<?xml version="1.0" encoding="UTF-8"?>
<svg id="Layer_1" data-name="Layer 1" xmlns="http://www.w3.org/2000/svg" viewBox="0 0 23.69 44.75">
  <defs>
    <style>
      .cls-1 {
        fill: #F80123;
      }
    </style>
  </defs>
  <path class="cls-1" d="M22.97,21.98c-.6,1.37-1.22,2.73-1.89,4.07-.46,.95-1.21,1.7-2.16,2.17-.24-.5-.47-.99-.7-1.47,.35-.34,.71-.66,1.08-.97,.38-.11,.76-.21,1.15-.29,.63-1.21,1.07-2.5,1.12-3.86-.13,.22-.39,.66-.52,.87-.28-.3-.55-.6-.82-.9-.07-.91,.25-1.8,.38-2.69-.85,.63-1.38,1.56-1.84,2.5v-1.75c-.19,.16-.38,.33-.56,.5-1.17,.88-2.1,2.02-2.81,3.3-.26,.42-.54,.83-.82,1.23-.08-.78-.16-1.55-.2-2.33,.04-.51,.1-1,.2-1.48,.69-2.63,.39-5.48,.09-8.16-.37-3.9-.53-7.86-1.56-11.66-.13-.35-.26-.7-.39-1.04-.47,0-.95-.01-1.41-.02-.18,.51-.36,1.02-.53,1.54-.42-.01-.83-.02-1.24-.02,.46,3.64,0,7.33,.61,10.97,.2,.14,.6,.41,.8,.55-1.09,4.81-.49,9.71-.36,14.59-.09,1.35-.28,2.7-.66,4.01-.65-1.06-1.25-2.2-1.11-3.48,.02-2.24,.21-4.53-.39-6.72-.69-6.39,1.7-13.41-1.66-19.28,.64,3.93,.53,7.92,.72,11.89-.04,1.73-.07,3.55-1.13,5.01,.48,.13,.96,.26,1.46,.42l.08,.38c.08,.37,.16,.74,.25,1.13-.06,1.01-.06,2.02,.01,3.04-.67-.31-1.35-.61-2-.97l-.82-.64c-.17,.47-.37,.93-.57,1.4-.49-.25-.98-.5-1.47-.73,.16,.49,.32,.98,.5,1.47-.19,.19-.38,.38-.57,.58-.46-.39-.91-.76-1.36-1.14-.52-.03-1.04-.05-1.56-.05-.58,.38-.16,1.06,0,1.56,.7,1.46,.63,3.13,1.21,4.63,.21,.59,.48,1.17,.72,1.77,.65,1.79,1.47,3.51,2.39,5.19,.71,1.64,1.59,3.38,1.3,5.22,.93,.18,1.86,.32,2.79,.47,.05,.24,.16,.72,.22,.96,.92,.09,1.79,.43,2.54,.98,.24,0,.72,.03,.96,.04,3.42-1.62,2.88-6.29,4.78-9.13,1.22-2.24,2.56-4.4,3.67-6.69,.18-.37,.37-.74,.56-1.1,.91-1.57,1.35-3.33,2.03-4.99l.21-.58c-.18-.07-.54-.2-.72-.27Z"/>
</svg>