<?xml version="1.0" encoding="UTF-8"?>
<svg id="Layer_1" data-name="Layer 1" xmlns="http://www.w3.org/2000/svg" viewBox="0 0 218.01 83.87">
  <defs>
    <style>
      .cls-1 {
        fill: #fff;
      }

      .cls-2 {
        fill: #F80123;
      }
    </style>
  </defs>
  <g>
    <path class="cls-2" d="M197.82,42.99c-.4,.25-.8,.48-1.2,.74-.57,.38-1.3,.1-1.62,1.54-.04-.1-.07-.19-.11-.29,.05-.19,.11-.39,.17-.61-.7,.19-1.38,.37-2.06,.56-.02-.07-.03-.13-.05-.2,.29-.25,.58-.51,.81-.71-.16,0-.5-.18-.61,.03-.71,1.41-1.82,1.11-2.67,1.84,.02,.12,.03,.23,.05,.35,.55-.12,1.11-.23,1.66-.35,0,.03,.01,.06,.02,.09-.19,.14-.38,.28-.58,.42,0,.07,0,.14,.01,.21,.48-.11,.97-.22,1.45-.33,.01,.04,.02,.08,.03,.11-.11,.11-.21,.23-.32,.34,0,.08,0,.15-.01,.23,.42,.09,.84,.18,1.26,.27,0,.08,0,.16,0,.23-.48-.26-.91,.34-1.45-.11-.3-.25-.77,.15-1.15,.44,.27,.07,.54,.14,.82,.21,0,.05,0,.1,0,.15h-1.32c.15-.31,.25-.52,.44-.93-.69,.17-1.26,.35-1.84,.43-.76,.1-1.52,.09-2.27,.19-.18,.02-.35,.26-.51,.6,1.94,.07,3.89,.14,5.84,.2,0,.09,0,.19,0,.28-.49,.18-.97,.37-1.46,.55,0,.05,0,.09,0,.14h2.02c0,.12,.01,.24,.02,.36-.15,0-.3,0-.44,0-.24-.01-.47-.07-.71-.05-.21,.02-.43,.12-.69,.19,.06,.24,.11,.41,.14,.54-.44,.16-.86,.32-1.29,.48,0,.06,0,.13,.01,.19,.46-.09,.91-.18,1.37-.27,0,.09,0,.17,0,.26,.16-.02,.32-.03,.49-.05,0,.05,0,.11,0,.16-1.09,.29-2.19,.58-3.46,.92,.54,.15,.95,.26,1.36,.37,0,.09,0,.18,0,.27-.23-.02-.47-.06-.7-.06-.3,0-.62-.03-.91,.08-.26,.1-.51,.39-.74,.81h1.81c-.74,1.05-1.58,.21-2.35,.54,0,.09,0,.18,0,.28,.39,0,.78-.05,1.17,0,.72,.1,1.43-.08,2.15,.42,.51,.35,1.15,.13,1.74,.09,.45-.03,.9-.17,1.36-.26-.19-.05-.38-.1-.56-.15,.01-.11,.02-.22,.03-.33,.41,.16,.84,.25,1.22,.51,.32,.22,.57,.76,.88,.95,.31,.18,.67,.06,1.01,.12,.25,.05,.5,.25,.75,.26,.36,.02,.72-.08,1.08-.12,.26-.03,.51-.04,.77-.06,0,.09,.01,.18,.02,.27-.27,.03-.55,.06-.82,.09,0,.05,0,.09,0,.14,.5,.07,.99,.14,1.49,.2,0,.05,0,.09,0,.14h-7.05c0,.06,0,.12,0,.18,.86,.17,1.71,.43,2.57,.47,.87,.04,1.74-.18,2.61-.19,1.18-.01,2.37-.08,3.53,.16,1.08,.22,2.13,.8,3.2,1.35-1.08,.04-2.15,.07-3.23,.13-.92,.05-1.87-.07-2.76,.28-1.28,.51-2.56,.39-3.85,.49-1.17,.09-2.34,.35-3.51,.38-.52,.01-1.04-.38-1.57-.54-.13-.04-.27,.1-.55,.22,.35,.15,.56,.24,.86,.36-.6,.83-1.22,.65-1.81,.89h1.21c-.22,.15-.41,.28-.6,.41,0,.08,.02,.17,.03,.25l1.29-.26c0,.06,.01,.11,.02,.17-.07,.08-.15,.16-.22,.25,.14,.34,.4,.18,1.28-.82-.16-.09-.29-.17-.42-.24,.03-.03,.06-.07,.09-.1h2.87c0,.09,0,.18,0,.26-.96,.31-1.92,.62-2.88,.93l-.02,.16c1.53,.12,3.07,.24,4.6,.37,0,.1,0,.19,0,.29-.15,.12-.3,.25-.57,.46,.35-.05,.58-.08,.8-.11,0,.04,.01,.07,.02,.11-.17,.13-.34,.27-.57,.45,.12,.18,.2,.29,.17,.24-1.18,.17-2.43,.35-3.68,.52-.45,.06-.9,.07-1.35,.14-.65,.1-1.3,.24-1.95,.36,0,.08,0,.17,0,.25h7.45c0,.07,0,.15,.01,.22-.61,.08-1.23,.23-1.84,.24-1.67,.02-3.33-.08-5-.03-.85,.02-1.7,.28-2.56,.37-.21,.02-.42-.23-.63-.35-.11-.06-.23-.17-.33-.15-.5,.1-1,.28-1.51,.34-.79,.1-1.57,.15-2.36,.19-.57,.03-1.13,0-1.7,0,.02,.06,.07,.22,.15,.45-.57,.08-1.13,.12-1.68,.24-.88,.18-1.75,.4-2.62,.64-1.04,.29-2.06,.69-3.1,.89-.42,.08-.87-.3-1.31-.39-.28-.06-.58-.03-.86,.07-.77,.29-1.54,.65-2.31,.98-.44-.8-1.19,.06-1.61-.98-.06-.15-.35-.02-.53-.02,.03,.32,.06,.65,.08,.94-.56-.48-.79,.65-1.22,.89-.31,.18-.64,.32-.96,.45-.23,.09-.47,.11-.7,.17-.05,.01-.09,.06-.14,.06-.49,.04-.98,.07-1.51,.11-.08-.09-.25-.44-.41-.44-.63,.01-1.26,.12-1.89,.22-.58,.09-1.16,.21-1.74,.31-.74,.12-1.49,.22-2.27,.15,.35-.19,.71-.39,1.06-.58-.02-.1-.04-.19-.05-.29-.68,.4-1.37,.8-2.05,1.2,0,.12,.02,.24,.03,.37h2.94c-.05,.37-.6,.34-.09,1.01-1.3,.27-2.48,.51-3.76,.77,.17-.25,.27-.4,.38-.56-.95-.21-1.89-.42-2.86-.64,1.21-.58,2.39-1.15,3.58-1.72-.01-.15-.02-.3-.04-.44-1.53,.14-3.06,.29-4.59,.43,0,.14,0,.27,0,.41h1.32c-.62,.73-1.14,.35-1.66,.24-.47-.1-.95-.13-1.43-.14-.11,0-.21,.29-.33,.33-.21,.07-.43,.05-.64,.06-.21,0-.43,0-.7,0,.14-.18,.25-.32,.38-.48-.37-.07-.72-.19-1.06-.18-.14,0-.28,.27-.38,.6-.25-.06-.5-.12-.75-.18,0,.1-.02,.2-.02,.29,1.03,.6,2.16,.1,3.21,.7-.09,.11-.2,.24-.31,.38,.01,.06,.03,.12,.04,.18,.37-.21,.74-.42,1.15-.64-.07-.16-.14-.3-.32-.7,.54,.05,.94,.09,1.37,.12-.04,.31-.06,.48-.1,.77,.39-.15,.75-.28,1.1-.41,0,.1,.02,.19,.03,.29-1.27,1.1-2.74,.34-4.06,1.12,.19-.18,.38-.37,.57-.55,0-.06-.01-.11-.02-.17-.8,.37-1.6,.75-2.4,1.12-.02-.08-.03-.15-.05-.23,.38-.3,.77-.6,1.21-.95-.12-.12-.2-.29-.29-.28-1.16,.08-2.33,.17-3.49,.28-.12,.01-.23,.21-.35,.32-.02-.07-.04-.15-.07-.22,.12-.14,.24-.31,.37-.41,.15-.12,.32-.17,.63-.34-.26-.25-.37-.35-.5-.47,.14-.18,.26-.33,.41-.52-.51-.81-1.12-.4-1.66-.61-.85-.32-1.69-.12-2.54-.16-.39-.02-.83-.47-1.16-.28-.95,.57-1.93,.13-2.84,.44-.61,.21-1.25-.01-1.84,.47h.37c0,.05,0,.1,.01,.15-.19,.05-.38,.1-.56,.15-.1-.19-.2-.53-.29-.53-.25,0-.49,.2-.74,.26-.68,.17-1.35,.3-2.03,.46-.13,.03-.25,.14-.37,.21,.5,.21,.98,.25,1.47,.2,.31-.03,.61-.17,.91-.3,.15-.07,.28-.23,.42-.35,0-.1-.01-.21-.02-.31,.22,.12,.44,.24,.65,.37,.2,.18,.42,.55,.59,.5,.48-.16,.91-.17,1.38,.22,.28,.23,.64,.15,.97,.2,0,.08,.02,.16,.03,.24-.36,.2-.73,.4-1.09,.6,.14,.11,.28,.23,.43,.35,0,.08-.01,.16-.02,.24-1.08-.68-2.15-.56-3.23-.07,0-.09-.02-.17-.03-.26,.16-.09,.32-.17,.48-.26,0-.05,0-.1,0-.15-.29,.03-.58,.05-.86,.12-.06,.01-.14,.21-.14,.32,0,.11,.08,.29,.14,.32,.14,.06,.3,.05,.45,.12h-2.16c.44-.35,.82-.66,1.34-1.08-1.45-.42-2.78,.1-4.24,.06,.4-.24,.65-.39,.91-.54,0-.11-.01-.21-.02-.32-.27,.05-.55,.05-.81,.19-.13,.07-.21,.4-.31,.61,.03,.1,.06,.19,.09,.29-.89,.17-1.77,.34-2.66,.51,0,.13,0,.26,0,.4l2.75,.56s0,.06,0,.09h-2.95c.3,.14,.6,.28,.9,.42,0,.06-.02,.11-.02,.17-1.02-.22-2.03-.45-3.04-.67,.63-.4,1.25-.8,1.97-1.25-1.02-.25-1.92-.46-2.82-.68,0-.07,0-.14,0-.21,.27-.03,.55-.06,.88-.09-.25-.65-.14-.85,.24-.95,.72-.2,1.42-.52,2.13-.8,.01,.11,.02,.21,.04,.32-.62,.23-1.24,.45-1.96,.72,.22,.14,.33,.21,.58,.38-.38,.1-.63,.16-.88,.23,0,.05,0,.11,.01,.16h1.84c0-.07,0-.13,0-.2-.13-.07-.26-.14-.39-.2,.38-.2,.75-.79,1.12,.06,.07,.17,.43-.01,.65-.11,.31-.14,.61-.49,.92-.52,1.02-.08,2.05-.03,3.07-.08,.19,0,.37-.23,.56-.36-.01-.09-.02-.18-.04-.27-.6,0-1.19,0-1.79,0-.26,0-.52,0-.77,0-.24,0-.48-.03-.72-.03-.26,0-.46,.13-.75-.29-.23-.34-.77,0-1.17-.01-.42,0-.84-.02-1.26-.09-.44-.07-.89-.52-1.28,.27-.03,.07-.13,.1-.19,.07-.68-.3-1.34-.24-1.97,.46,.04-.13,.07-.26,.11-.38-.19-.08-.39-.15-.56-.22,.06,.5,.11,.83,.17,1.28,.38-.17,.8-.34,1.21-.52-.52,.95-1.19,.95-1.84,1.09-.41,.09-.82,.21-1.23,.25-.36,.04-.73-.05-1.09-.02-.4,.04-.8,.13-1.19,.26-.65,.21-1.29,.47-1.96,.61,.7-.9,1.68-.46,2.45-1.64-1.57-.02-3.01,.02-4.52,.46,.17,.46,.26,.7,.37,.99,.18-.12,.38-.25,.62-.41-.2,.57-.2,.61-1.17,.99-.43,.17-.87,.15-1.31,.43,.55,.09,1.1,.18,1.65,.28-1.68,.55-3.39-.51-5.07,.36,1.01,.46,2.05-.61,3.04,.34-.41-.07-.82-.15-1.23-.22,.09,.26,.17,.48,.25,.71v-.02c-1.08-.08-2.17-.21-3.26-.24-.78-.02-1.57,.08-2.35,.18-.42,.06-.84,.21-1.26,.37-.11,.04-.19,.27-.35,.5,.05-.33,.08-.56,.11-.82-.34-.21-.82-.27-.92-1.19-.52,.07-1.05,.12-1.58,.23-.33,.07-.73-.28-.96,.48-.03,.08-.2,.05-.3,.03-.76-.11-1.52-.21-2.28-.35-.11-.02-.21-.23-.31-.52,1.42,1.16,2.7-.44,4.06-.52-.81-.32-1.61-.61-2.45-.32-.39,.13-.78,.21-1.18,.31-.24,.06-.5,0-.7,.18-.2,.17-.34,.56-.54,.89,.25,.15,.43,.26,.61,.37-.47,.05-.94,.11-1.41,.16,.5,.41,.99,.73,1.4-.18,.37,.06,.74,.17,1.11,.18,.82,.03,1.64,0,2.53,0-.11-.14-.17-.2-.22-.27,0-.07,.02-.13,.03-.2,.42,.17,.83,.39,1.25,.51,.37,.1,.75,.08,1.13,.12,0,.12-.02,.24-.02,.36h-4.57c0,.08-.01,.16-.02,.25,.25,.12,.49,.23,.74,.35-.11,.23-.22,.44-.41,.84,.02-.42,.03-.61,.04-.88h-2.11c.12,.08,.2,.14,.33,.23-.44,.3-.82,.55-1.21,.81,.36,.11,.7,.21,1.04,.32v.11h-1.42c-.03-.57-.07-1.14-.11-1.83-.66,.12-1.31,.34-1.97,.34-.57,0-1.15-.27-1.72-.39-.22-.04-.46,.02-.68,.04v-.03c-.55,.85-1.17,.47-1.65-.06-.27-.29-.39-.28-.64-.16-.2,.1-.43,0-.65,.05-.16,.04-.32,.17-.48,.26-.33,0-.65,0-.98,0,.2,.34,.4,.57,.6,.55,.13,0,.25-.37,.37-.57,.46,.31,.91,.67,1.38,.93,.19,.11,.42,.02,.72,.02-.51,.78-1.02,.57-1.48,.44-.65-.19-1.29-.55-1.95-.84,.05-.1,.13-.29,.21-.48-.01-.08-.03-.17-.04-.25-.3,.06-.59,.12-.94,.19-.4-.46-.96-.15-1.48-.15-.54,0-1.08,.15-1.64,.23-.02,.13-.04,.34-.05,.42,.26,.21,.52,.42,.81,.66-.28,.67-.87-.08-.9,.89,.6,.21,1.14,.4,1.67,.59,0,.08,0,.17,0,.25h-1.8c-.16-.62-2.51-2.08-3.53-1.95,.08-.19,.14-.32,.2-.47-.57,0-1.14,0-1.7,0-.08,0-.19,.1-.25,.04-.63-.76-1.23,.29-1.81-.07,.04,.46,.06,.76,.08,1.05,0,0,.02-.03,.02-.03-.53-.55-1.31-.81-1.33-.41,.11,.04,.22,.08,.32,.11-.06,.16-.13,.31-.19,.46-1.18-.74-3.06-.98-3.89-.66,.09-.24,.14-.5,.21-.52,.37-.07,.74-.12,1.1-.1,1.02,.06,2.04,.18,3.05,.22,.12,0,.24-.29,.37-.45-.12-.16-.23-.42-.36-.47-.92-.39-1.81,.2-2.72,.31-.31,.04-.63-.24-.94-.29-.23-.03-.47,.08-.71,.12-.19,.03-.38,.06-.56,.09,0-.08-.02-.16-.03-.24,.17-.1,.34-.19,.67-.37-.73-.65-1.38-.12-1.98-.4,.02,.23,.03,.36,.05,.5,.29,.05,.61,.11,.93,.16,0,.08,0,.15,0,.23h-1.17c0,.06,0,.12-.01,.17,.16,.06,.32,.13,.58,.23-.82,.5-1.6-.92-2.33,.08-.52-.09-1.08-.2-1.64-.26-.08,0-.17,.29-.32,.56h-1.89c.2,.17,.31,.25,.41,.34-.01,.09-.02,.18-.03,.27-1.13-.74-2.35-.27-3.48-1.09h1.72c-2.5-.53-4.99-1.39-7.52-.99,.09,.03,.19,.05,.28,.08,.37,.13,.74,.1,1.12,.22,.98,.33,2.01,.23,3.02,.36,.36,.04,.71,.23,1.07,.35,0,.08-.02,.15-.02,.23-.75-.08-1.5-.19-2.25-.23-1.37-.07-2.75-.11-4.12-.11-.68,0-1.37,.23-2.05,.15-.55-.07-1.09-.48-1.64-.7-.31-.12-.62-.25-.93-.21-.98,.1-1.96,.28-2.93,.42,0-.09-.02-.18-.02-.27,.18-.06,.36-.11,.54-.17,0-.07,0-.14,.01-.21-.76-.16-1.51-.33-2.27-.49,0,.04-.01,.09-.02,.13,.22,.12,.44,.25,.65,.37-.88-.29-1.69,.68-2.58,.41-.92-.28-1.86-.31-2.79-.44-.01-.1-.03-.19-.04-.29,.19-.21,.38-.42,.67-.76-.38-.03-.67-.06-.97-.09,0,.06-.01,.12-.02,.18,.07,.07,.14,.15,.2,.22-.02,.04-.04,.11-.07,.12-.34,.13-.68,.24-1.03,.36-.08,.03-.2,.12-.24,.06-.53-.81-1.03,.13-1.55,.05-.53-.08-1.08,.12-1.62,.19,0,.11-.02,.22-.02,.32,.45,.17,.9,.47,1.35,.5,1.65,.11,3.3,.11,4.94,.2,.76,.04,1.52,.23,2.28,.3,.23,.02,.46-.15,.69-.15,.73,0,1.47,.03,2.2,.06,.04,0,.07,.1,.1,.24-.55-.24-1.03,.44-1.63,.1-.47-.26-1.04,.12-1.57,.13-.76,.03-1.53-.04-2.29-.02-.27,0-.55,.27-.82,.25-.43-.03-.85-.23-1.28-.32-1.43-.28-2.86-.67-4.29-.76-1.33-.09-2.7-.12-3.99,.34-.98,.35-1.78-.06-2.62-.57-.13-.08-.21-.39-.35-.66-.67,.11-1.43,.24-2.16,.36,.55,1.28,1.43,.35,2.12,1.02h-2.67c.25-.16,.4-.26,.69-.44-.28-.16-.45-.32-.61-.33-1.16-.08-2.32-.09-3.48-.21-1.94-.19-3.88-.43-5.81-.68-1.55-.21-3.09-.49-4.63-.7-.25-.03-.52,.15-.78,.24,0,.08,0,.17,0,.25,1.17,.44,2.33,.97,3.5,1.28,1.25,.33,2.51,.45,3.77,.66,0,.1,0,.2-.01,.29-.88-.13-1.76-.23-2.64-.39-.87-.16-1.75-.34-2.62-.55-.89-.22-1.79-.48-2.68-.73-.89-.24-1.78-.48-2.74-.75-.01,.35,0,.65-.04,.92-.04,.27-.12,.65-.23,.72-.13,.08-.42-.06-.45-.23-.34-1.47-1.13-2.24-1.76-3.53,.3-.09,.5-.11,.68-.21,.2-.11,.39-.3,.58-.47,.09-.08,.17-.2,.25-.31,.03,.18,.03,.38,.09,.52,.14,.37,.27,.78,.46,1.03,.09,.12,.32-.1,.52-.17-.38-.63-.68-1.13-1.08-1.8,.36-.13,.56-.16,.74-.27,.21-.14,.41-.35,.61-.52,.09-.08,.19-.2,.27-.19,.05,.01,.13,.28,.11,.41-.08,.96,.33,.95,.74,1.38-.11-.46-.17-.66-.2-.88-.16-1.22-.14-1.27,.58-1.32,.17-.01,.34-.08,.5-.13,.15-.04,.3-.09,.45-.13-.14-1.13-.11-1.15,.54-1.23,.35-.04,.7-.17,1.04-.42-.18,0-.37-.05-.55,0-.59,.19-1.05,.34-1.56-.74-.32-.68-1.13-.64-1.72-.88-.18-.07-.37-.01-.69-.01,.42-.71,.76-1.3,1.04-1.77-.14-1.13-.22-2.08-.37-2.99-.07-.42-.3-.75-.45-1.12-.09-.21-.25-.41-.26-.63-.11-1.72-.03-3.41,.29-5.05,.02-.1,.1-.17,.2-.33-.22-.34-.43-.66-.64-.99,.31-.83-.07-1.4-.38-2,.79-.8,1.29-1.79,1.12-3.53-.03-.27,.29-.65,.43-.93-.35-.34-.68-.66-1.11-1.09,.27-.2,.41-.3,.57-.42-.15-.22-.28-.42-.47-.7,.23-.26,.42-.48,.66-.77-.15-.31-.29-.59-.41-.84,.11-.44,.41-1.13,.32-1.36-.21-.54-.59-.87-.96-1.35,.1-1.04,.84-.89,1.28-1.56-.27-.3-.51-.57-.76-.84,.05-.02,.11-.04,.16-.06,.04-.37,.17-.8,.11-1.09-.2-.83-.46-1.62-.72-2.39-.14-.39-.17-.6,.03-1.01,.31-.63,.64-1.36,.22-2.29-.09-.19-.14-.57-.09-.78,.3-1.32-.31-2.27-.38-3.46,.09-.18,.19-.4,.34-.7-.23-.06-.4-.1-.43-.1,.12-.39,.29-.83,.39-1.3,.14-.67,.1-1.46,.56-1.86,.11-.09,.16-.6,.15-.91-.03-.69,.07-1.17,.47-1.38,.11-.06,.21-.18,.32-.28-.03-.1-.05-.21-.08-.31-.31-.2-.62-.41-.93-.61v-.17c.29-.03,.59,0,.87-.11,.19-.07,.39-.29,.51-.55,.17-.37,.27-.86,.4-1.29,.28-.91,.21-1.25-.34-1.65-.13-.1-.26-.22-.39-.34,0-.08,.02-.15,.03-.23h1.23c.19-.69,.42-1.42,.58-2.2,.11-.57,.05-1.1-.14-1.72-.37-1.18-.09-1.85,.76-2-.16-.24-.31-.45-.45-.65,.02-.07,.04-.14,.06-.2,.28,.14,.56,.28,.89,.45,.14-.41,.19-1.16,.67-1.18,.06,0,.11-.41,.18-.61,.08-.23,.16-.56,.28-.65,.43-.29,.52-.92,.57-1.6v.02q.41,.45,1.25-.1c-.32-.75-.37-.77-.73-.24,.03-.21,.04-.46,.1-.65,.05-.15,.24-.35,.25-.33,.44,.81,.92,.16,1.38,.15,.25,0,.5,.09,.75,.13l.14-.31c-.29-.29-.58-.57-.87-.86,.06-.15,.12-.3,.18-.46,.62,.29,1.24,.66,1.87,.85,.55,.17,1.11,.16,1.67,.18,.76,.03,1.52-.02,2.28,.01,.69,.03,1.38,.11,2.07,.21,.49,.07,.98,.26,1.47,.27,.41,0,.82-.18,1.23-.28l-.02,.03c.54,.11,1.08,.23,1.62,.34,.08,.02,.22,.04,.25-.04,.45-1.12,1.13-.52,1.81-.74-.23-.46-.41-.85-.6-1.23,.01-.06,.02-.13,.04-.19,.62,.3,1.23,.68,1.86,.87,.52,.15,1.05,.09,1.58,.1,1.08,.01,2.15-.04,3.23,.03,1.31,.09,2.62,.27,3.93,.41,.15,.02,.3-.03,.52-.05-.11-.23-.18-.37-.34-.72,.79,.11,1.46-.41,2.13,.4,.24,.29,.6,.23,.92,.46,.6,.43,1.3,.43,1.95,.6,.02-.08,.04-.16,.06-.23-.19-.38-.38-.76-.57-1.15l.06-.21c.64,.33,1.28,.74,1.94,.96,.46,.15,.96,.03,1.44,.04,1.11,0,2.22-.05,3.33,.04,.88,.07,1.76,.4,2.65,.45,.51,.03,1.02-.29,1.54-.38,.63-.11,1.24-.36,1.88,.27,.36,.35,.89,.18,1.35,.22,.22,.02,.44-.04,.71-.06-.06,.22-.09,.36-.13,.5h.85c-.14-.38-.26-.68-.46-1.21,.75,.37,1.35,.78,1.98,.96,.52,.15,1.06,.13,1.59,.06,1.57-.21,3.13-.5,4.7,0,.31,.1,.65-.01,.97-.04,.41-.03,.82-.06,1.22-.11,.23-.03,.58,.33,.58-.53,0-.06,.11-.16,.17-.16,.54,0,1.13-.19,1.62,.09,.83,.49,1.63,.15,2.45,.13,.29,0,.57-.04,.86-.07,1.14-.09,2.29-.19,3.43-.27,.4-.03,.8,0,1.09,0-.37-.51-.81-1.12-1.34-1.86,1.16-.45,2.1,.04,3.14,.52-.6,.34-1.1,.62-1.62,.92,.52,.74,1.1,.73,1.68,.72,.07,0,.17-.02,.19-.1,.35-1.25,.98-.81,1.54-.83,.05,0,.1-.02,.25-.06-.24-.47-.44-.88-.64-1.28,.01-.06,.02-.13,.03-.19,.63,.29,1.26,.65,1.9,.85,.52,.16,1.05,.14,1.58,.15,1.04,.02,2.08-.07,3.12,.02,1.01,.08,2.01,.39,3.01,.48,1.07,.1,2.15,.07,3.23,.09,.64,.01,1.28,0,2.02,0v1.43c1.68,.11,3.42,.18,5.16,.34,1.12,.1,2.24,.4,3.37,.48,.82,.06,1.64-.09,2.46-.16,.39-.03,.79-.11,1.18-.16,1.73-.22,3.47-.45,5.2-.65,.91-.1,1.83-.16,2.75-.22,1.44-.09,2.88-.14,4.32-.26,1.7-.14,3.41-.35,5.11-.5,1.59-.14,3.19-.14,4.77-.38,1.52-.23,3,.17,4.5,.33,.69,.07,1.39,.01,2.09,.04,1.34,.05,2.68,.07,4.01,.21,1.09,.11,2.17,.39,3.26,.54,1.05,.15,2.11,.19,3.16,.36,1.12,.18,2.22,.48,3.34,.67,.47,.08,.94-.04,1.41-.02,1.04,.03,2.07,.03,3.11,.16,1.05,.14,2.09,.43,3.14,.64,1.03,.21,2.06,.49,3.1,.58,1.28,.12,2.57,.06,3.86,.1,.45,.02,.9,.13,1.35,.18,1.01,.11,2.01,.2,3.02,.31,.58,.07,1.15,.19,1.73,.26,.3,.03,.61-.03,.91-.02,.93,.03,1.86,.08,2.78,.11,.42,.01,.84,.02,1.26-.02,.58-.06,1.12-.16,1.72,.29,.5,.38,1.16,.06,1.76,.08,.26,.01,.52,.12,.78,.18,0,.08,0,.16,0,.24-.67,.13-1.33,.27-2,.4,0,.07,0,.14,.01,.2h2.49c-.11,.23-.16,.33-.23,.49,1.21,.7,2.43,0,3.68,.19-.07,.22-.12,.38-.2,.61h2.94s0,.09,0,.13l-.97,.4c0,.12,.01,.23,.02,.35,1.47,.1,2.94,.2,4.42,.29,0,.04,.01,.07,.02,.11-.74,.25-1.48,.5-2.22,.75,0,.13,.01,.25,.02,.38,.17,.02,.37,.15,.5,.03,.45-.4,.89-.29,1.37-.18,.84,.19,1.7,.17,2.58,.24-.09,.97,.13,1.05,.62,.96,1.25-.22,2.52-.25,3.78-.35,0,.1,.02,.2,.03,.3-.13,.05-.25,.12-.38,.15-.15,.03-.3,.03-.55,.05,.2,.27,.33,.43,.45,.6-.13,.1-.28,.21-.56,.43,.23,.07,.35,.11,.48,.15v-.02c-.37,.07-.74,.18-1.1,.2-.74,.05-1.49,.06-2.23,.07-.73,0-1.45-.05-2.18-.03-.29,0-.58,.16-.87,.25,0,.08,0,.17,.01,.25,1.04,.06,2.09,.09,3.13,.21,1.01,.11,2.06-.84,3.16,.56-.32,.15-.51,.32-.71,.33-1.49,.08-2.98,.2-4.47,.18-.97,0-1.93-.22-2.9-.34-.07,0-.13,.02-.21,.18,.4,.06,.79,.11,1.19,.17,0,.05,.01,.11,.02,.16-.24,.07-.48,.22-.71,.2-.84-.06-1.71-.49-2.49-.18-.93,.37-1.76-.47-2.64-.17-.14,.05-.27,.23-.48,.41,.54,.09,.95,.15,1.37,.22,0,.09,0,.18-.01,.27h-1.6c0,.05,0,.1,0,.15,1.01,.09,2.01,.19,3.02,.28,0,.07,0,.15,0,.22h-6.28s0,.06-.01,.09c.55,.19,1.09,.44,1.64,.55,1.35,.28,2.71,.57,4.07,.71,1.32,.14,2.65,.06,3.98,.13,.72,.04,1.43,.19,2.15,.3,.38,.06,.77,.15,1.15,.37h-2.47s0,.06,0,.08c.16,.07,.31,.15,.47,.22-.52,.33-1.12-.45-1.66,.67,1.88,.46,3.69,.9,5.49,1.33,0-.06,.02-.11,.03-.17-.08,.07-.17,.13-.27,.21,.06,.09,.08,.16,.11,.16,.15,.01,.3,0,.46,0,.1-.68,1.06-.71,2.52,.01-.39-.06-.78-.11-1.16-.17,0,.06,0,.12,0,.19,2.47,.51,4.94,1.03,7.4,1.54,0,.09,0,.19,0,.28-.1,.01-.2,.04-.3,.04-.5,0-1.1,.31-1.46-.09-.41-.45-.8-.3-1.18-.46-.67-.29-1.37-.28-2.06-.38-.68-.1-1.37-.21-2.05-.23-1.11-.03-2.23,.03-3.34,.01-.94-.01-1.87-.07-2.81-.11-.14,0-.27-.03-.44-.05,.48,.54,.48,.49,1.07,.4,.25-.04,.5,.27,.76,.31,.49,.09,.99,.09,1.49,.17,.2,.03,.41-.05,.56,.47,.09,.3,.48,.32,.73,.46,.01-.08,.03-.17,.04-.25-.19-.15-.38-.29-.56-.44v-.17c.49,0,.97-.02,1.44,0,.7,.03,1.4,.07,2.1,.13,.43,.03,.91-.1,1.27,.21,.84,.71,1.68,.09,2.51,.22,.95,.14,1.91,.24,2.86,.33,.54,.05,1.09,.06,1.63,.09,.33,.02,.66,0,.99,.06,.27,.05,.53-.01,.78,.47,.18,.35,.65,.22,.99,.3,.46,.1,.92,.19,1.37,.47-4.49-1.07-8.99-.99-13.5-1.02,0,.09,0,.19-.01,.28l2.17,.39c.01,.05,.02,.1,.03,.16-.38,.29-.76,.57-1.14,.86,0,.07,0,.13,0,.2h2.31c-.33,.32-.57,.55-.81,.78-.96-.48-1.9-.62-2.75,.48,0,.11,.02,.22,.03,.33,.91-.27,1.81-.55,2.72-.82h.37c-.18,.24-.26,.36-.34,.47,.01,.07,.02,.15,.04,.22,.41-.18,.82-.37,1.24-.55,0,.11,.02,.23,.02,.34-.75,.16-1.51,.31-2.3,.48,.15,.1,.28,.18,.41,.27-.05,.13-.09,.23-.09,.22,.74,.21,1.47,.43,2.2,.64,0-.05,.01-.1,.02-.16-.15-.08-.3-.17-.45-.25,1.44-.26,2.87-.47,4.37,.18-.57,.24-1.02,.43-1.46,.62,.02,.13,.03,.26,.05,.39,.54,.07,1.08,.04,1.53-.65,.26-.39,.37-.38,.76,.02,.08,.09,.22,0,.34-.02,.16-.02,.33-.05,.49-.07,0,.11,.02,.22,.02,.34-.86,.27-1.71,.53-2.57,.8,0,.06,0,.12,0,.18,.46-.07,.93-.27,1.38-.17,.47,.1,.91,.48,1.35,.94-1.35,.1-2.68-.7-4.01,.13,1.23,.24,2.45,.49,3.61,.72,.39,.17,.74,.31,1.09,.46,0,.04,0,.08,0,.12-1.29-.12-2.59-.24-3.88-.35,0,.15-.01,.3-.02,.46,3.27,.46,6.54,.93,9.82,1.4-.53,.45-1.05,.54-1.66,.35-.48-.15-1,.06-1.58,.12,.16,.14,.25,.22,.38,.33-.15,.13-.28,.23-.44,.37,.67,.15,1.3,.29,1.92,.42,0,.05,0,.1,0,.15h-1.22c0,.1,0,.2,0,.29,.9,0,1.81-.01,2.71,0,.51,0,1.01,.09,1.51,.07,.32-.01,.64-.24,.95-.22,.68,.05,1.36,.21,2.04,.32,0,0-.01-.02-.01-.02-.26,.09-.53,.17-.79,.26-.09,.03-.19,.06-.27,.3,.83,.1,1.67,.21,2.5,.31,0,.1,0,.2,0,.3-2.34,.6-4.7,.65-7.07,.61,.18-.06,.35-.13,.53-.19,0-.05,0-.1,.01-.14-.13-.02-.26-.04-.39-.05-.89-.06-1.78-.1-2.67-.19-.34-.04-.68-.23-1.03-.26-.36-.04-.45,.35-.32,1.11-.46-.21-.85-.39-1.16-.53,.26-.1,.6-.22,.94-.35,0-.1-.01-.2-.02-.3-1.71-.13-3.42-.26-5.14-.39,0,.06,0,.12,0,.18,.85,.15,1.71,.31,2.56,.46,0,.1,0,.2,0,.3-1.34,.07-2.68,.14-4.03,.21,0,.04,0,.09,.01,.13,.9,.2,1.79,.46,2.69,.59,.46,.07,.93-.13,1.39-.08,.84,.1,1.67,.36,2.51,.43,.86,.07,1.73-.01,2.59-.03,.3,0,.59,0,1.05,0-.22,.26-.3,.35-.38,.45,0,.07,0,.14,0,.21h3.39c0,.13,0,.26,0,.38-1.45,.21-2.89,.42-4.44,.65,.41,.19,.71,.4,1.02,.46,.37,.07,.71,.02,1.1-.18,.51-.26,1.12,.05,1.68,.17,.37,.07,.72,.31,1.09,.33,.64,.03,1.28-.02,1.92-.09,.36-.04,.72-.16,1.1-.06-.11,.06-.21,.13-.32,.19,0,.06,0,.11,0,.17,.38,.1,.77,.2,1.15,.3,0,.08,0,.16,.01,.24-1.08,.2-2.16,.45-3.24,.57-.53,.06-1.08-.22-1.61-.23-1.05,0-2.1,.07-3.14,.1-.13,0-.26-.15-.4-.14-.16,0-.32,.09-.4,.12-.43-.12-.83-.39-1.19-.28-.75,.23-1.42-.38-2.13-.47-.24-.03-.53-.23-.7-.06-.87,.84-1.82,.56-2.73,.73-.72,.13-1.45,.04-2.17,.08-.37,.02-.74,.12-1.12,.18-.23-.07-.45-.19-.68-.2-.45-.02-.91,.04-1.36,.02-1.35-.05-2.7-.14-4.04-.15-.52,0-1.06,.05-1.53,.88,.42-.04,.77-.06,1.19-.1-.11,.27-.16,.4-.32,.77,.95-.35,1.76-.64,2.63-.96-.01-.02,.07,.21,.17,.22,.41,.07,.82,.15,1.22,.08,.91-.15,1.82-.39,2.73-.59Zm-82.61,27.04c.11-.25,.21-.51,.36-.85-.5,.12-.95,.23-1.45,.35,.42,.19,.76,.35,1.09,.5,.06,.03,.11,.06,.28,.14-.38,.15-.66,.26-.93,.37,.29,.13,.61,.04,.86,.22,.45,.33,.7-.22,1.02-.52,.12-.12,.25-.22,.38-.33-.09,.25-.19,.5-.29,.76,.04,.06,.08,.11,.11,.17,.43,.65,.72,.55,1.07-.26,.13-.29,.35-.44,.52-.65h-1.44c-.09-.59-.47-.9-.69-.41-.28,.64-.61,.37-.91,.51Zm72.08-20.23c-.37-.88-.78-.14-1.19-.04,.04-.19,.06-.31,.08-.43-.08,.01-.16,0-.23,.05-.17,.13-.34,.4-.5,.4-.65,.02-1.31-.05-1.96-.06-.09,0-.18,.11-.27,.17,.54,.19,1.11,.03,1.58,.32,.68,.42,1.3-.11,1.95-.07,.2,.01,.41-.2,.61-.31,.52-.05,1.04-.1,1.56-.14,0-.08,0-.16,0-.24-.46,0-.92-.02-1.37,.02-.08,0-.16,.22-.25,.33Zm-111.06,24.43c-.19-.08-.39-.14-.58-.27-.08-.06-.14-.27-.27-.54-.5,.1-1.12,.23-1.74,.35,0,.06,0,.13,0,.19h1.41c-.21,.13-.28,.18-.39,.26,.56,.58,1.06,.18,1.57,0,.29,.21,.57,.42,.93,.68h-4.67c0,.09,0,.18,0,.28h5.88c0-.06,0-.12,0-.18-.37-.05-.74-.11-1.11-.16v-.22c.2-.06,.4-.12,.6-.18,0-.07,0-.14-.01-.21-.54,0-1.08,0-1.63,0Zm-21.71-.08c0,.1-.02,.2-.03,.3,.16,.07,.32,.19,.48,.22,1.01,.2,2.03,.4,3.04,.56,.51,.08,1.02,.11,1.52,.08,1-.06,1.99-.19,2.99-.28,.31-.03,.61,0,.92,0-.54-.15-1.07-.24-1.6-.37-.35-.08-.8-.02-1.03-.38-.28-.44-.51-.32-.78-.32-.22,0-.44,.02-.66,.02-.63,0-1.27-.05-1.9,0-.13,.01-.25,.35-.41,.6-.75-.97-1.67-.19-2.54-.41Zm108.89-5.68s.08,.25,.15,.22c.46-.16,.99-.19,1.33-.65,.55-.73,1.05-.9,1.55-.4,.22-.28,.4-.5,.62-.78,.05,.36,.09,.58,.1,.64h3.77c.44-.65,1.05-.64,1.64-.71,.16-.02,.33,0,.49,0,0-.08,0-.15,0-.23-.22-.05-.43-.16-.65-.14-.83,.07-1.66,.2-2.5,.25-.97,.06-1.94,0-2.9,.09-.97,.1-1.93,.32-2.9,.51-.09,.02-.2,.09-.26,.2-.14,.25-.25,.54-.45,.99Zm-116.28,5.06h-6.97c0,.14,0,.28,0,.42,1.08,.11,2.15,.27,3.23,.32,.76,.04,1.53-.16,2.28-.07,.52,.06,1.01,.2,1.47-.67Zm-35.49,.16c0,.09,0,.19-.01,.28,.74,.17,1.47,.41,2.21,.48,.62,.06,1.25-.11,1.87-.12,.49,0,.97,.09,1.32,.13,.2-.38,.31-.6,.4-.77-.77-.55-1.58,.32-2.43-.35-.54-.42-1.28,0-1.94,.05,0,.11,0,.22,0,.34,.37,.09,.75,.19,1.16,.29-.91,.53-1.71-.8-2.57-.33Zm178.21-29.84c-.02-.1-.05-.2-.07-.3-.23,.24-.45,.61-.7,.68-.28,.08-.58-.13-.88-.21-.08,.19-.18,.44-.28,.69,0-.09-.01-.19-.02-.28-.33-.13-.65-.31-.98-.37-.24-.05-.57,.25-.71,.05-.44-.62-.76-.06-1.13,.21,.23,.05,.47,.1,.81,.17-.19,.16-.26,.22-.47,.4,1.11,0,2.07,0,3.03,0,.15,0,.31,0,.46,.06,.38,.18,.69,.06,.92-.63-.09-.08-.17-.15-.27-.24,.1-.08,.2-.16,.3-.24ZM56.55,70.15c.29,.13,.53,.31,.77,.33,.83,.05,1.64,.88,2.48,.1,.06-.06,.23-.02,.24,.03,.1,.64,.39,.34,.58,.36,.37,.04,.76,.03,1.13-.06,.2-.05,.39-.31,.58-.47-.02-.1-.05-.19-.07-.29h-5.7Zm-39.01,4.15h4.4c0-.13,0-.27,0-.4-.19-.04-.38-.09-.57-.11-.25-.03-.5-.02-.74-.05-.27-.04-.55-.13-.82-.16-.41-.05-.82-.08-1.22-.09-.44,0-.83,.17-1.05,.81Zm87.73-2.73c0-.06,0-.13,0-.19-.15-.1-.33-.14-.44-.32-.19-.32-.16-.35-.31-.01-.05,.11-.18,.24-.22,.2-.74-.74-1.49,.04-2.2,.13-.45,.06-.94,.32-1.42,.39-.18,.03-.36,.11-.54,.17,0,.06,.01,.12,.02,.17h2.94c0-.1-.03-.31-.05-.53h2.22Zm-57.03-1.56c.01-.11,.02-.21,.03-.32-1.36-.48-2.74-.54-4.14-.35,.37,.32,.75,.54,1.14,.71,.1,.04,.27,0,.33-.12,.25-.53,.47-.38,.7,.01,.07,.11,.17,.22,.25,.21,.56-.03,1.12-.1,1.68-.15Zm-33.25-.95s0-.04,0-.07c-1.6-.36-3.19-.71-4.79-1.07,.11,.37,.26,.64,.44,.68,.76,.19,1.52,.36,2.28,.44,.68,.07,1.37,.02,2.06,.02Zm171.18-22.58c0,.08,.01,.15,.02,.23,.29,.05,.59,.22,.86,.13,.34-.11,.71,0,1.03-.57,.18-.32,.61-.33,.91-.29,.38,.04,.46,.05,.67-.75-1.08,.29-2.1,.56-3.12,.83v.11h1.02s0,.09,0,.13c-.46,.06-.93,.12-1.39,.19ZM12.49,69.37c0,.08-.02,.16-.02,.24,.95,.21,1.9,.42,2.87,.64-.06-1.12,.47-.54,.76-.88h-3.61Zm67.24,4.64c.02-.07,.04-.15,.06-.22-.3-.07-.6-.14-.88-.2,.28,1.52,1.04,1.15,1.6,1.23,.62,.09,1.34,.58,1.9-.5-.17-.07-.34-.1-.48,0-.66,.5-1.33,.14-1.99,.1-.07,0-.14-.27-.21-.41Zm-57.82-.95c-1.08-.39-2.17-1.01-3.19-.06,1.01-.02,2.09,.59,3.19,.06Zm164.21-26.63c.02-.07,.03-.14,.05-.22-.06-.1-.13-.19-.2-.31,.1-.05,.19-.1,.21-.11-.06-.19-.11-.39-.19-.64-.6,.3-1.29,.63-2,.98,.7,.81,1.44-.25,2.13,.29Zm-119.05,26.67c0,.08,0,.17,0,.25,.27,0,.54-.02,.81,0,.57,.06,1.14,.05,1.69,.25,.39,.14,.45,.21,.56-.57-1.02-.09-2.05-.35-3.06,.06Zm23.95,.31c-.62,.09-1.13,.16-1.62,.23v.5c.32-.08,.61-.14,1.04-.25-.2,.22-.27,.3-.37,.41,.89,.09,1.72,.17,2.56,.26,0-.06,0-.13,0-.19-.64-.19-1.27-.37-1.97-.58,.13-.15,.19-.21,.36-.39Zm-54.49,.36c0,.1-.01,.2-.02,.31,.94,.12,1.88,.25,2.82,.37,0-.1,.01-.19,.02-.29-.91-.69-1.88-.19-2.82-.38Zm71.01-1.38c.65,.39,1.27,.97,1.93,.15-.12-.61-.44-.65-.74-.59-.39,.08-.77,.28-1.19,.45Zm80.19-12.24c-.13-.73-1.84-.7-2.73,0h2.73Zm-82.51,11.96c.7,.18,1.41,.39,2.11-.22-.72-.18-1.45-.89-2.11,.22Zm85.47-14.27c-.61-.54-1.06,.07-1.52,.69,.23,.04,.45-.09,.68-.13,.1-.01,.2,.19,.3,.25,.15,.09,.31,.15,.47,.2,.03,0,.07-.1,.14-.19-.1-.17-.19-.32-.29-.47,.09-.14,.15-.25,.22-.35Zm-128.81,14.99c-.02,.1-.04,.21-.07,.31-.58,.25-1.2-.06-1.79,.23,.78,.13,1.57,.26,2.35,.39,.02-.1,.05-.21,.07-.31-.19-.21-.38-.42-.57-.63Zm-10.02,.49s0,.09,0,.13c.35,.05,.7,.13,1.05,.16,.35,.03,.71,0,1.06,0-.02-.02-.11-.07-.24-.16,.21-.21,.32-.33,.52-.54-.87,.15-1.63,.28-2.39,.41Zm12.2-2.49c-.63-.62-1.25-.54-1.44,0h1.44ZM205.5,35.56c1.04,.52,1.66,.45,1.83-.29-.62,.1-1.21,.2-1.83,.29Zm-22.91,8.2c0-.14-.01-.28-.02-.41-.7,.17-1.41,.34-2.11,.51,.26,.16,.52,.19,.78,.15,.25-.04,.5-.15,.75-.2,.2-.04,.4-.03,.6-.04ZM26.44,72.36c0-.1,0-.19-.01-.29-.54-.44-1,.18-1.49,.35,0,.11,.02,.22,.03,.34,.49-.13,.98-.26,1.47-.39Zm116.08-1.65h1.69q-.6-.57-1.69,0Zm-98.38,1.98c.64,.64,.94,.58,1.36-.28-.46,.09-.88,.18-1.36,.28Zm143.56-21.64h1.3c-.15-.76-.66-.75-1.3,0ZM22.05,73.94c.59,.08,1.04,.14,1.56,.21-.48-1.05-.95-.59-1.56-.21ZM186.59,19.27c0-.06,0-.12,0-.17h-1.32c.02,.07,.05,.23,.07,.35,.42-.06,.83-.12,1.24-.18Zm-120.79,54.79c.01-.08,.02-.16,.03-.24-.63-.15-1.25-.3-1.88-.46,0,.06,0,.12-.01,.18,.62,.17,1.24,.35,1.86,.52Zm123.47-16.27h-1.82c.67,.3,1.22,.53,1.82,0Zm-125.45,11.91c-.44-.28-.76-.5-1.09-.67-.04-.02-.13,.24-.2,.37,.07,.1,.14,.28,.22,.29,.3,.03,.6,.01,1.07,.01Zm98.87-.52c-.02-.06-.03-.13-.05-.19-.36,.14-.72,.28-1.03,.39,.06,.23,.11,.42,.18,.68,.27-.26,.58-.57,.89-.88Z"/>
    <path class="cls-2" d="M141.39,72.4c.02,.07,.04,.15,.07,.22-.08,.87-.18,.9-1,.34,.11-.08,.19-.14,.36-.26-.79,.1-1.48,.19-2.17,.27,0,.13,0,.26-.01,.39,.47,.13,.94,.26,1.41,.41,.52,.17,1.04,.42,1.57,.51,.36,.06,.73-.12,1.1-.15,1.04-.06,2.08-.1,3.11-.14,.16,0,.31,0,.47,.12-.69,.68-1.51,1.2-2.17,.7-.79-.6-1.51,.04-2.24-.22-.18-.06-.36-.11-.52-.24-.31-.25-.57-.27-.76,.36,.17,.12,.33,.24,.49,.36,0,.02-.01,.05-.02,.07-.54-.17-1.08-.36-1.62-.49-.52-.13-1.04-.19-1.57-.28,0-.09,0-.17,.01-.26,.53,.11,1.06,.21,1.58,.32,0-.09,.01-.18,.02-.26-1.38-.3-2.75-.59-4.22-.9,.29-.26,.49-.45,.7-.63,.23,0,.46,0,.69,0,0,.05,0,.11,0,.16-.19,.09-.39,.17-.68,.3h1.8c-.39-.29-.65-.6-.92-.65-.29-.06-.59,.13-.89,.21-.15-.17-.3-.37-.46-.51-.04-.03-.13,.1-.38,.32,.12-.33,.2-.7,.27-.69,.42,.04,.78-.08,1.16-.46,.15-.15,.45,.18,.68,.24,.19,.04,.49,.13,.56-.04,.22-.54,.43-.33,.7-.22,.36,.15,.75,.16,1.12,.17,.6,.03,1.2,0,1.89,0-.15,.22-.25,.36-.36,.51,.07,.13,.14,.26,.21,.38Z"/>
    <path class="cls-2" d="M11.15,79.45c-.66,.7-1.16-1.04-1.94-.24,.24,.11,.35,.16,.43,.19-.15,.51-.3,1-.47,1.58-1.04-.74-2.14-1.52-3.27-2.33,.26-.29,.46-.48,.76-.11,.54,.68,1.15,.46,1.74,.16,.18-.09,.37-.13,.6-.37-.25-.2-.49-.44-.74-.59-.25-.15-.53-.2-.78-.42,.24-.44,.44-.71,.77-.28,.56,.73,1.17,.38,1.78,.16,.4-.15,.84-.54,1.21,.28,.14,.31,.18,.36-.05,.78-.19,.35-.41,.7-.03,1.18Z"/>
    <path class="cls-2" d="M8.26,3.99c-.24-.14-.49-.29-.7-.41-.57,.37-1.15,.87-1.76,1.08-.21,.07-.51-.51-.75-.85-.1-.14-.16-.4-.32-.82,.44,0,.84-.06,1.23,.02,.38,.07,.75,.28,1.18,.45-.32-.61-.61-1.16-1-1.92,.74,0,1.39-.17,1.99,.07,.27,.11,.53,.38,.85,.33,.08-.01,.17,.22,.27,.35-.54,.3-1.04,.57-1.55,.84,.2,.33,.37,.61,.53,.88,0,0,.01-.03,.01-.03Z"/>
    <path class="cls-2" d="M21.17,76.25c.24,.06,.48,.07,.7,.19,.75,.4,1.46,.44,2.18-.24,.15-.14,.43,.13,.68,.22-.09,.35-.14,.53-.18,.69,.46,.81,.85,.44,1.33,0,.28-.25,.73,.09,1.12,.23-.91,.16-1.85,.23-2.74,1.45-.93-.63-2.03-1.39-3.13-2.14,.01-.13,.02-.27,.03-.4Z"/>
    <path class="cls-2" d="M85.78,78.31c.15,.11,.28,.2,.34,.24-.19,.51-.38,1.04-.63,1.71-.46-.32-1.04-.7-1.61-1.13-.52-.39-.52-.42-.97-.3-.28-.11-.57-.22-.86-.34,.33-.5,.54-1.34,1.17-1.19-.12,.18-.19,.29-.24,.38,.75,.96,1.52,.35,2.3,.07,.24-.09,.48-.12,.76-.18-.11,.32-.18,.52-.25,.73Z"/>
    <path class="cls-2" d="M109.46,74.75h2.68c.04-.08,0,.02-.12,.22,.87,.13,1.61-.11,2.35-.67,.4-.3,.87-.26,1.31-.37,.01,.11,.02,.22,.04,.33-.39,.2-.78,.4-1.27,.65,.3,.16,.51,.27,.71,.37,0,.04,0,.08,0,.12h-1.58c.23,1.18,.81,.44,1.15,.97-.77,.34-1.51,.01-2.24-.4,.16-.02,.31-.04,.47-.06,0-.06,0-.12,0-.17-1.18-.24-2.36-.48-3.55-.72,.01-.09,.02-.18,.03-.27Z"/>
    <path class="cls-2" d="M162.66,71.81c-.9,.89-1.93,1.14-2.9,1.66-.02-.07-.04-.15-.05-.22,.37-.31,.74-.63,1.11-.94,0-.06,.01-.12,.02-.19-.64-.02-1.28-.08-1.92-.04-.66,.04-1.33,.16-2,.13,.25-.16,.5-.32,.84-.54-.23-.22-.37-.34-.59-.55,.86-.13,1.63-.24,2.4-.36-.06,.11-.18,.35-.42,.82h3.43c.03,.08,.05,.15,.08,.23Z"/>
    <path class="cls-2" d="M70.71,78.88c-.17,.44-.34,.88-.54,1.39-1.02-.73-2.11-1.51-3.21-2.3,0-.06,0-.12,0-.18h3.55c-.06,.4-.09,.61-.1,.72,.29-.14,.57-.28,.84-.42,.01,.07,.02,.15,.03,.22-.17,.04-.34,.08-.55,.13,.02,.19,.04,.38,.07,.57-.03-.05-.06-.09-.09-.14Z"/>
    <path class="cls-2" d="M40.1,76.83c-.09,.33-.16,.59-.25,.92,.13,.02,.23,.03,.34,.05-.16,.5-.31,1-.49,1.57-1.05-.72-2.15-1.47-3.26-2.22,0-.07,0-.15,.01-.22,.17-.07,.42-.31,.5-.19,.65,.98,1.34,.17,2.01,.19,.35,.01,.7-.06,1.14-.1Z"/>
    <path class="cls-2" d="M193.73,49.42c1.32-1.15,2.72-.97,4.11-.8-.41,.06-.82,.12-1.24,.19,0,.08,0,.16,.01,.24h1.09c-1.39,1.26-2.67,1.37-3.98,.37Z"/>
    <path class="cls-2" d="M31.61,79.32c.11,.04,.21,.07,.28,.1-.15,.53-.29,1.02-.44,1.58-1.06-.76-2.16-1.53-3.25-2.31,0-.1,.02-.2,.03-.31,.24,.07,.51,.03,.71,.22,.62,.6,1.22,.36,1.84,.02,.16-.09,.33-.18,.49-.2,.49-.07,.54,.07,.35,.9Z"/>
    <path class="cls-2" d="M212.04,33.47c.06,0,.13-.01,.19,.03,.57,.46,1.1,.74,1.75,.3,.45-.3,1-.12,1.5-.16,.18-.02,.37,0,.54-.1,.69-.38,1.32-.06,1.98,.44-1.44,.16-2.85,.31-4.26,.46,.16,.46,.15,.43,.63,.27,.26-.09,.54-.08,.9-.12-.51,.94-1.02,1.42-1.76,1.28,.35-.19,.63-.35,.91-.5,0-.07-.02-.14-.03-.21-.25,.05-.49,.09-.77,.14-.09-.52-.1-1.18-.65-1.07-.31,.07-.65-.37-.98-.58,0-.06,.02-.12,.03-.19Z"/>
    <path class="cls-2" d="M55.29,77.82c-.12,.38-.17,.54-.23,.76,.14,.06,.25,.11,.28,.12-.14,.51-.28,1.01-.43,1.57-1.04-.74-2.14-1.52-3.23-2.29,0-.09,0-.18,0-.27,.22,.03,.48-.06,.66,.12,.61,.62,1.22,.39,1.84,.14,.32-.13,.67-.1,1.11-.15Z"/>
    <path class="cls-2" d="M199.61,46.5c-.2,.31-.27,.41-.4,.6,.25,.1,.42,.17,.6,.24,0,.03,0,.07,0,.1h-3.75c0,.06,0,.12,0,.17,.23,.05,.47,.1,.7,.16,0,.08-.01,.16-.02,.24l-2.21-.62c0-.05-.01-.1-.02-.16,.37-.03,.76-.16,1.12-.07,.38,.1,.65-.09,.98-.43,.31-.33,.73-.43,1.1-.44,.59-.02,1.18,.12,1.9,.2Z"/>
    <path class="cls-2" d="M71.85,77.1c.89-.13,1.79-.33,2.68-.37,.56-.03,1.13,.17,1.76,.27-.24,.24-.37,.47-.52,.51-.23,.07-.48,.04-.71,.02-.17-.01-.34-.18-.49-.12-.52,.21-1.02,.03-1.54-.07-.47-.09-.95,.26-1.44,.34-.1,.02-.22-.27-.34-.42,.21-.07,.41-.13,.62-.2l-.02,.03Z"/>
    <path class="cls-2" d="M21.33,2.6c-.68,.15-.98-.77-1.42-1.7,.75,.1,1.42-.38,2.08,.36,.18,.2,.47,.09,.72,.28-.41,.26-.81,.5-1.21,.78-.08,.05-.13,.21-.2,.32,0,0,.02-.03,.02-.03Z"/>
    <path class="cls-2" d="M212.27,49.45c-.41,1-2.53,.86-3.32-.19,.35-.18,.64-.49,.91-.44,.79,.13,1.58,.4,2.41,.63Z"/>
    <path class="cls-2" d="M13.47,75.96h6.31c0,.09,0,.18,0,.27h-6.32c0-.09,0-.18,0-.27Z"/>
    <path class="cls-2" d="M203.46,25.94c-.66,0-1.32-.02-1.98,0-.42,.02-.85,.08-1.27,.2-.39,.11-.79,.65-1.1-.31-.06-.19-.3-.2-.46-.29,0-.09,.01-.17,.02-.26,1.6,.1,3.19,.2,4.79,.29,0,.11,0,.23,0,.34Z"/>
    <path class="cls-2" d="M205.47,31.37c.35,.2,.7,.39,1.05,.59,0,.06-.01,.11-.02,.17-.43-.17-.87-.34-1.4-.54,.2-.45,.34-.74,.46-1.01,1.08,.12,2.15,.24,3.23,.36,0,.07,.01,.14,.02,.21-.35,.11-.69,.3-1.04,.32-.38,.03-.76-.09-1.14-.15-.37-.06-.75-.12-1.12-.18-.02,.08-.03,.16-.05,.24Z"/>
    <path class="cls-2" d="M199.27,63.43c-.42,.09-.84,.18-1.26,.27,0,.05,0,.1,0,.15h1.72c-.58,.41-1.12,.8-1.66,1.18-.02-.06-.03-.12-.05-.18,.12-.13,.24-.26,.36-.39,0-.06,0-.12,0-.18h-1.29c0-.11-.01-.21-.02-.32,.54-.99,1.22-1.2,1.97-.95,.08,.03,.14,.28,.21,.42h0Z"/>
    <path class="cls-2" d="M199.01,14.56c-1.04,.44-2.16,.14-3.12,1.34-.01-.08-.03-.15-.04-.23,.07-.15,.13-.31,.2-.46,0-.09-.02-.18-.02-.26-.82,.96-1.66,1.58-2.54,.84,.43-.28,.91-.78,1.4-.86,1.32-.23,2.65-.28,3.98-.4,.05,0,.1,.02,.15,.03Z"/>
    <path class="cls-2" d="M164.58,72.1c.32-.14,.65-.29,1.12-.5-.2,.34-.29,.63-.4,.65-.57,.1-1.14,.13-1.71,.19-.06,0-.13,.01-.19,.04-.6,.24-1.21,.48-1.81,.72-.01-.07-.02-.15-.03-.22,.56-.3,1.12-.58,1.67-.91,.14-.08,.22-.39,.36-.53,.16-.16,.36-.39,.51-.34,.18,.05,.33,.38,.49,.58,0,.1,0,.21-.01,.31Z"/>
    <path class="cls-2" d="M130.68,76.73c-.29,.27-.49,.56-.7,.61-.17,.04-.39-.14-.52-.36-.46-.76-.82-.89-1.37-.39-.08-.19-.15-.38-.25-.61,.15-.02,.28-.04,.42-.05-.51-.7-1.28,.25-1.7-1.12,.78,.27,1.53,.52,2.35,.81-.14,.14-.21,.2-.33,.32,.54,.14,1.03,.26,1.52,.39,0,.03,0,.06-.01,.09-.18,.05-.35,.1-.53,.14,0,.06,0,.11,0,.17h1.11Z"/>
    <path class="cls-2" d="M192.69,15.86c-1.51,.2-3.02,.41-4.53,.61,0-.1,0-.21-.01-.31,1.5-.25,3-.5,4.51-.75,.01,.15,.02,.3,.03,.45Z"/>
    <path class="cls-2" d="M132.97,76.25c.05,.06,.09,.18,.14,.18,1.04-.04,2.09-.08,3.13-.15,.22-.01,.43-.12,.67-.19,.01,.61-.1,.85-.43,.81-.39-.04-.78-.01-1.28-.01-.24-.8-.79-.22-1.26-.28-.27-.03-.54,.1-.81,.08-.06,0-.11-.3-.17-.46h0Z"/>
    <path class="cls-2" d="M123.09,75.46c1.21-.12,2.42-.16,3.57,.85-.22-.07-.44-.14-.66-.21-.01,0-.02-.06-.03-.06-.73,0-1.45,0-2.18,.03-.23,.01-.45,.13-.71,.04,.11-.06,.21-.13,.4-.23-.18-.08-.3-.12-.41-.17,0-.08,.01-.16,.02-.24Z"/>
    <path class="cls-2" d="M96.98,76.09c1.33-.62,2.49,.18,3.66,.57,0,.09,0,.17-.01,.26-1.18-.27-2.36-.53-3.65-.83Z"/>
    <path class="cls-2" d="M200.62,43.7c1.1-.73,2.08-.11,3.08-.07-.28,.2-.56,.56-.85,.56-.44,.01-.88-.23-1.32-.34-.26-.06-.52-.09-.91-.15Z"/>
    <path class="cls-2" d="M120.15,73.68h-3.91c0-.12,0-.24,0-.37,1.37-.3,2.71,.21,3.9,.37Z"/>
    <path class="cls-2" d="M107.69,75.13c.17-.02,.34-.09,.51-.05,.8,.2,1.6,.44,2.4,.66,0,.08,0,.16,0,.25-.93-.07-1.86-.15-2.78-.22-.04-.25-.07-.45-.1-.65,0,0-.02,.02-.02,.02Z"/>
    <path class="cls-2" d="M152.22,76.52h-3.95c0-.05,0-.1,0-.16h3.94c0,.05,.01,.1,.02,.16Z"/>
    <path class="cls-2" d="M106.42,75.62h-3.99c0-.06,0-.11,0-.17h3.99c0,.06,0,.11,0,.17Z"/>
    <path class="cls-2" d="M201.01,59.79c-1.21,.22-2.42,.45-3.63,.67,0-.08-.01-.16-.02-.25,1.19-.59,2.42-.52,3.65-.43Z"/>
    <path class="cls-2" d="M61.28,76.78c1.19,.23,2.38,.45,3.57,.68,0,.07,0,.14-.01,.21-1.18-.16-2.37-.32-3.55-.49,0-.13,0-.27,0-.4Z"/>
    <path class="cls-2" d="M141.46,76.2h-3.1c.74-.57,2.76-.62,3.1,0Z"/>
    <path class="cls-2" d="M196.44,50.5c.07,.38,.1,.55,.15,.76-.34,.07-.67,.2-1,.2-.38,0-.77-.11-1.16-.26,.69-.24,1.39-.49,2.01-.71Z"/>
    <path class="cls-2" d="M131.01,74.4c-.76,.22-1.52,.44-2.28,.66,0-.1-.02-.2-.03-.31,.79,.05,1.44-1.31,2.28-.62,0,.09,.02,.18,.02,.26Z"/>
    <path class="cls-2" d="M65.2,79.32c-.01-.07-.05-.27-.1-.51,.03-.02,.07-.07,.12-.07,.56,.05,1.12,.08,1.68,.2,.11,.02,.2,.36,.34,.63h-1.35s-.01-.05-.02-.07c.21-.09,.42-.18,.63-.28,0-.06,0-.11-.01-.17-.42,.09-.84,.17-1.28,.26Z"/>
    <path class="cls-2" d="M49.57,76.46h-2.79c0-.07,0-.13,0-.2h2.79c0,.07,0,.13-.01,.2Z"/>
    <path class="cls-2" d="M195.68,46.05c-.61,.13-1.23,.33-1.85,.35-.19,0-.38-.46-.64-.8,.92,.12,1.71,.23,2.5,.33,0,.04,0,.08-.01,.12Z"/>
    <path class="cls-2" d="M198.18,52.79c-.49,.22-.98,.44-1.46,.66,.01,.09,.02,.17,.03,.26,.2,.03,.4,.07,.59,.1,0,.08,0,.15,.01,.23-.39,.1-.78,.19-1.16,.29,.45-1.47,1.18-1.71,1.98-1.53Z"/>
    <path class="cls-2" d="M118.23,76.45c.17-.06,.34-.17,.51-.18,.88-.06,1.77-.12,2.65-.14,.1,0,.21,.23,.38,.43h-3.52s-.02-.08-.03-.11Z"/>
    <path class="cls-2" d="M132.98,76.24s-.03,.04-.05,.04c-.54-.11-1.05,.13-1.56,.41-.12,.07-.29-.08-.42-.23,.67-.98,1.35-.5,2.02-.2,0,0,0-.02,0-.02Z"/>
    <path class="cls-2" d="M202.23,46.36c-.81,.25-1.61,.49-2.47,.75,.4-.83,1.14-1.07,2.47-.75Z"/>
    <path class="cls-2" d="M199.27,63.43c.24-.78,.62-1.05,1.1-1,.4,.04,.8,0,1.2,.18-.77,.27-1.53,.55-2.3,.82,0,0,0,0,0,0Z"/>
    <path class="cls-2" d="M193.84,10.56c.44-.25,.88-.57,1.33-.73,.16-.06,.36,.24,.54,.38-.02,.1-.04,.2-.06,.3-.61,.08-1.22,.16-1.82,.23,0-.06,0-.12,0-.19Z"/>
    <path class="cls-2" d="M202.43,48.2c-.67,.07-1.28,.14-1.88,.21,0-.09,0-.18,0-.27,.61,.06,1.21-1.19,1.89,.06Z"/>
    <path class="cls-2" d="M204.77,28.83c-.8-.08-1.6-.15-2.39-.23,0-.13,0-.26,.01-.39,.8,.1,1.6,.2,2.39,.29,0,.11,0,.22-.01,.33Z"/>
    <path class="cls-2" d="M79.97,76.58c.5-.9,1-.12,1.55-.3-.3,.68-1.01,.78-1.55,.3Z"/>
    <path class="cls-2" d="M185.07,16.35h-2.44c0-.13,0-.26,0-.39,.81,.1,1.61,.2,2.42,.3,0,.03,0,.05,0,.08Z"/>
    <path class="cls-2" d="M96.02,76.92c-.08,.11-.15,.31-.23,.33-.47,.09-.95,.19-1.43,.18-.18,0-.35-.31-.54-.49h2.19Z"/>
    <path class="cls-2" d="M194.11,51.84c-.48,.11-.96,.27-1.44,.32-.34,.03-.69-.11-1.02-.37h2.46s0,.04,0,.06Z"/>
    <path class="cls-2" d="M78.13,78.36c-.16,.09-.32,.16-.46,.28-.12,.11-.23,.29-.34,.44-.03-.06-.05-.12-.08-.18,.06-.1,.13-.2,.18-.28-.22-.18-.45-.35-.67-.53,0-.08,.02-.16,.03-.23,.45,.05,.91,.11,1.36,.16,0,.11-.01,.22-.02,.34Z"/>
    <path class="cls-2" d="M71.22,81.86c-.02,.49-.03,.82-.05,1.28-.41-.07-.86-.15-1.41-.24,0,.01-.07-.2-.19-.58,.45,.16,.82,.29,1.19,.42,.12-.24,.26-.5,.46-.87Z"/>
    <path class="cls-2" d="M134.97,77.59c-.5,.1-1,.19-1.49,.29,.03,.13,.06,.26,.09,.41-.61,.34-.34-.58-.45-1,.63,.05,1.25,.11,1.87,.16,0,.05-.01,.1-.02,.14Z"/>
    <path class="cls-2" d="M99.35,78.49c-.06-.13-.12-.25-.19-.4h1.26c0,.1,.01,.2,.02,.29-.48,.17-.96,.33-1.44,.5,0-.07-.02-.15-.03-.22,.13-.06,.26-.12,.38-.18Z"/>
    <path class="cls-2" d="M194.16,51.49c-.6-.08-1.15-.16-1.65-.22,.24-.66,1.25-.68,1.65,.22Z"/>
    <path class="cls-2" d="M208.83,26.75c.75-.72,1.18-.72,1.42,0h-1.42Z"/>
    <path class="cls-2" d="M203.72,51.87c.01,.09,.05,.31,.07,.48-.52-.06-1.05-.12-1.59-.19,0-.1,0-.2,0-.29h1.52Z"/>
    <path class="cls-2" d="M59.81,78.44c.99-.09,1.94-.17,2.89-.25-.95,.26-1.9,.86-2.89,.25Z"/>
    <path class="cls-2" d="M96.02,76.93h2.11c-.71,.28-1.42,.92-2.11,0,0,0,0,0,0,0Z"/>
    <path class="cls-2" d="M62.04,80.91c.47,.11,.94,.23,1.41,.34,0,.11,0,.22-.01,.33-.47-.06-.94-.11-1.41-.17v-.5Z"/>
    <path class="cls-2" d="M78.92,80.88c.32-.39,.62-.74,.92-1.11-.34,1.71-.41,1.79-.92,1.11Z"/>
    <path class="cls-2" d="M90.14,77.24c.28-.57,1.24-.67,1.94-.15-.7,.05-1.3,.1-1.94,.15Z"/>
    <path class="cls-2" d="M129.29,75.44l1.82,.24c0,.1,0,.21,0,.31-.61-.06-1.23-.12-1.84-.18,.01-.12,.02-.24,.04-.36Z"/>
    <path class="cls-2" d="M86.49,82.09c.03,.4,.07,.8,.11,1.28-.27-.09-.56-.19-1-.34,.25-.17,.39-.26,.57-.38-.11-.13-.18-.22-.26-.32,.2-.09,.41-.17,.58-.24Z"/>
    <path class="cls-2" d="M198.48,53.82h1.77c0,.09,0,.19,0,.28h-1.77c0-.09,0-.19,0-.28Z"/>
    <path class="cls-2" d="M71.87,77.07c-.21,.07-.41,.13-.62,.2-.19-.01-.38-.02-.57-.03,.06-.15,.12-.3,.19-.46-.1-.04-.22-.08-.32-.11,.02-.4,.8-.14,1.33,.41Z"/>
    <path class="cls-2" d="M53.54,77.17c-.73-.1-1.47-.2-2.2-.3,0-.09,0-.19,0-.28,.73,.1,1.46,.19,2.19,.29,0,.1,0,.19,0,.29Z"/>
    <path class="cls-2" d="M144.14,75.69c-.18,.13-.36,.27-.54,.4-.31-1.13-.98-.08-1.38-.82,.64,.07,1.28,.14,1.92,.2,0,.07,0,.14,0,.21Z"/>
    <path class="cls-2" d="M42.87,75.76h1.8s0,.09,0,.14c-.6,.06-1.19,.12-1.79,.18,0-.11,0-.21,0-.32Z"/>
    <path class="cls-2" d="M196.12,61.6s.05-.11,.07-.11c.83,0,1.66,0,2.49-.11-.86,.16-1.71,.32-2.57,.48,0-.09,0-.17,0-.26Z"/>
    <path class="cls-2" d="M123.92,77.73c-.39-.42-.89,.64-1.34-.45,.55,.07,.99-.15,1.34,.45Z"/>
    <path class="cls-2" d="M147.85,75.57q-1.16,.19-1.32-.49c.39,.46,.89-.5,1.32,.49Z"/>
    <path class="cls-2" d="M208.64,46.64h-1.75c.45,.56,1.1-1.1,1.75,0Z"/>
    <path class="cls-2" d="M108.65,76.84h-1.18c0-.15,0-.29,0-.44,.39,.03,.79,.06,1.18,.09,0,.11,0,.23,0,.34Z"/>
    <path class="cls-2" d="M82.2,76.73c.07,.22,.13,.42,.22,.73h-1.5c.46-.26,.85-.49,1.28-.73Z"/>
    <path class="cls-2" d="M138.01,77.88c.02-.19,.03-.55,.06-.55,.37-.04,.74-.02,1.11-.02,0,.13,0,.26,0,.38-.39,.06-.79,.12-1.18,.18h.01Z"/>
    <path class="cls-2" d="M194.47,13.43c.49-.83,1-.01,1.5-.08-.5,.5-1,.22-1.51,.06,0,0,.01,.02,.01,.02Z"/>
    <path class="cls-2" d="M13.46,78.13h-1.38c.42-.7,.92-.05,1.36-.35,0,.12,0,.23,.01,.35Z"/>
    <path class="cls-2" d="M57.51,78.89h-1.3c0-.12,0-.25,0-.37,.43,.05,.86,.11,1.29,.16,0,.07,0,.14,0,.21Z"/>
    <path class="cls-2" d="M93.11,78.97c-.16,.25-.29,.47-.42,.68-.03-.03-.06-.07-.08-.1,.02-.13,.04-.25,.06-.42h-.88c.13-.25,.23-.45,.32-.6,.32,.14,.64,.28,1,.44Z"/>
    <path class="cls-2" d="M154.46,77.62h-1.15c0-.07,0-.14,0-.21h1.16c0,.07,0,.14,0,.21Z"/>
    <path class="cls-2" d="M87.76,75.56c.39,.17,.77,.34,1.22,.53-.71,.47-1.04,.3-1.21-.56,0,0-.01,.03-.01,.03Z"/>
    <path class="cls-2" d="M11.76,82.39h-.89c.38-.47,.68-.86,1-1.26-.04,.42-.07,.81-.11,1.26Z"/>
    <path class="cls-2" d="M215.42,36.51s.01,.02,.01,.02c.2-.06,.39-.17,.59-.18,.3-.01,.6,.04,.9,.17-.51,.56-1.01,.09-1.51-.01Z"/>
    <path class="cls-2" d="M205.7,53.96h1.67c-.35,.53-1.22,.53-1.67,0Z"/>
    <path class="cls-2" d="M131.98,78.01c-.15,.45-.36,.51-1.24,.27,.02-.19,.05-.39,.05-.41,.44,.05,.83,.09,1.19,.13Z"/>
    <path class="cls-2" d="M206.14,26.42c.6,.06,1.21,.11,1.78,.17-.15,.43-1.21,.43-1.78-.17Z"/>
    <path class="cls-2" d="M46.41,77.5c-.65-.19-1.3-.38-1.95-.57,0-.09,.02-.19,.03-.28,.65,.23,1.29,.46,1.94,.69,0,.05-.01,.1-.02,.15Z"/>
    <path class="cls-2" d="M150.67,73.66c-.69,.07-1.38,.13-2.07,.2,0-.07,0-.13,0-.2,.69-.06,1.38-.13,2.06-.19,0,.06,0,.13,.01,.19Z"/>
    <path class="cls-2" d="M126.11,75.17c-.45-.11-.91-.22-1.36-.34,0-.05,0-.09,.01-.14h1.35c0,.16,0,.32,0,.48Z"/>
    <path class="cls-2" d="M94.13,79.13c0-.09-.02-.29-.02-.42h1.7v.12c-.54,.1-1.07,.2-1.68,.31Z"/>
    <path class="cls-2" d="M107.19,77.92c-.51,.09-1.02,.19-1.53,.24-.08,0-.16-.24-.18-.54,.57,.08,1.14,.15,1.72,.23,0,.02,0,.05,0,.07Z"/>
    <path class="cls-2" d="M205.34,62.08c-.06,.2-.09,.32-.14,.49,.18-.03,.34-.05,.56-.08-.45,.59-.45,.59-1.06-.19,.22-.07,.41-.14,.63-.21Z"/>
    <path class="cls-2" d="M200.28,43.58h-1.5s0-.03-.01-.05c.49-.09,.99-.17,1.48-.26,.01,.1,.02,.21,.03,.31Z"/>
    <path class="cls-2" d="M209.26,30.48h1.46c0,.06,0,.13,0,.19h-1.46c0-.06,0-.13,0-.19Z"/>
    <path class="cls-2" d="M138,77.87h-1.88c0-.1,0-.2,.01-.31,.63,.11,1.25,.21,1.88,.32,0,0-.01-.01-.01-.01Z"/>
    <path class="cls-2" d="M55.9,82.02c0,.33-.02,.68-.03,1.12-.24-.02-.5-.05-.79-.08,.3-.38,.56-.72,.81-1.04Z"/>
    <path class="cls-2" d="M24.55,81.64c.33-.4,.57-.7,.81-.99v1.08c-.24-.03-.49-.05-.81-.09Z"/>
    <path class="cls-2" d="M187.78,8.01c.37-.18,.74-.37,1.11-.55,.02,.12,.04,.24,.06,.36-.37,.2-.75,.4-1.12,.61-.02-.14-.04-.28-.05-.42Z"/>
    <path class="cls-2" d="M200.51,26.42c.41-.1,.81-.19,1.22-.29l.02,.29c-.4,.09-.81,.18-1.21,.27-.01-.09-.02-.18-.04-.28Z"/>
    <path class="cls-2" d="M212.48,44.33h1.16c0,.07,0,.14,0,.22h-1.16c0-.07,0-.14,0-.22Z"/>
    <path class="cls-2" d="M10.16,82.73v1.14c-.25-.04-.5-.08-.74-.11,.26-.36,.5-.7,.74-1.03Z"/>
    <path class="cls-2" d="M190.99,19.32c.49-.07,.98-.14,1.47-.2,0,.07,.01,.13,.02,.2-.48,.12-.96,.24-1.44,.35-.02-.12-.03-.23-.05-.35Z"/>
    <path class="cls-2" d="M72.83,78.9h-1.28c0-.09,0-.19,0-.28h1.28c0,.09,0,.19,0,.28Z"/>
    <path class="cls-2" d="M196.09,14.61h-1.43s0-.08-.01-.13c.48-.07,.96-.13,1.43-.2,0,.11,0,.22,0,.33Z"/>
    <path class="cls-2" d="M184.42,17.08h1.43s0,.09,0,.13h-1.43s0-.09,0-.13Z"/>
    <path class="cls-2" d="M204.6,58.72c.24,.04,.48,.08,.72,.12,.24,.04,.47,.08,.71,.19h-1.43c0-.1,0-.21,0-.31Z"/>
    <path class="cls-2" d="M40.69,81.13c-.01,.37-.02,.7-.03,1.13-.24-.02-.48-.04-.77-.07,.29-.38,.54-.72,.8-1.06Z"/>
    <path class="cls-2" d="M97.72,77.99h-1.44c0-.05,0-.11,0-.16,.48-.07,.95-.13,1.43-.2,0,.12,0,.24,.01,.35Z"/>
    <path class="cls-2" d="M143.53,78.85h-1.41s0-.08,0-.12c.47-.05,.94-.11,1.41-.16,0,.1,0,.19,0,.29Z"/>
    <path class="cls-2" d="M120.86,77.61c.54,.08,1.07,.16,1.61,.24,0,.07,0,.13,0,.2-.54-.06-1.08-.11-1.61-.17,0-.09,0-.18,.01-.27Z"/>
    <path class="cls-2" d="M32.39,82.84c.01,.28,.03,.58,.05,1.01-.25-.03-.5-.05-.79-.08,.27-.34,.51-.63,.74-.93Z"/>
    <path class="cls-2" d="M54.53,74.16c.87,.22,1.79-.56,2.54,.41,.16-.24,.28-.58,.41-.6,.63-.05,1.27,0,1.9,0,.22,0,.44-.01,.66-.02,.27,0,.51-.12,.78,.32,.23,.36,.68,.3,1.03,.38,.53,.13,1.07,.22,1.6,.37-.31,0-.61-.02-.92,0-1,.09-1.99,.22-2.99,.28-.51,.03-1.02,0-1.52-.08-1.02-.16-2.03-.36-3.04-.56-.16-.03-.32-.14-.48-.22,0-.1,.02-.2,.03-.3Z"/>
    <path class="cls-2" d="M163.43,68.48c.2-.45,.31-.74,.45-.99,.06-.11,.17-.19,.26-.2,.97-.18,1.93-.41,2.9-.51,.96-.1,1.93-.03,2.9-.09,.83-.05,1.66-.19,2.5-.25,.21-.02,.43,.09,.65,.14,0,.08,0,.15,0,.23-.16,0-.33-.02-.49,0-.6,.07-1.21,.06-1.64,.71h-3.77c0-.06-.04-.27-.1-.64-.23,.28-.4,.5-.62,.78-.5-.5-1-.33-1.55,.4-.35,.46-.88,.48-1.33,.65-.07,.02-.17-.27-.15-.22Z"/>
    <path class="cls-2" d="M197.82,42.99c-.91,.2-1.82,.43-2.73,.59-.4,.07-.81-.01-1.22-.08-.1-.02-.18-.24-.17-.22-.87,.32-1.68,.61-2.63,.96,.15-.37,.2-.5,.32-.77-.42,.03-.77,.06-1.19,.1,.47-.82,1.01-.88,1.53-.88,1.35,.01,2.7,.11,4.04,.15,.45,.02,.91-.05,1.36-.02,.23,.01,.45,.13,.68,.2,0,0,.01-.02,.01-.02Z"/>
    <path class="cls-2" d="M47.15,73.55c-.45,.87-.94,.73-1.47,.67-.76-.09-1.52,.11-2.28,.07-1.08-.05-2.15-.21-3.23-.32,0-.14,0-.28,0-.42h6.97Z"/>
    <path class="cls-2" d="M11.65,73.71c.87-.47,1.66,.86,2.57,.33-.41-.1-.79-.2-1.16-.29,0-.11,0-.22,0-.34,.65-.05,1.4-.48,1.94-.05,.85,.67,1.66-.2,2.43,.35-.09,.17-.2,.39-.4,.77-.35-.04-.84-.13-1.32-.13-.62,0-1.25,.18-1.87,.12-.74-.07-1.48-.31-2.21-.48,0-.09,0-.19,.01-.28Z"/>
    <path class="cls-2" d="M189.86,43.87c-.1,.08-.19,.15-.3,.24,.1,.09,.18,.17,.27,.24-.23,.69-.54,.81-.92,.63-.15-.07-.3-.06-.46-.06-.96,0-1.92,0-3.03,0,.21-.18,.28-.24,.47-.4-.35-.07-.58-.12-.81-.17,.37-.27,.69-.83,1.13-.21,.14,.2,.47-.1,.71-.05,.33,.07,.66,.24,.98,.37,0,.09,.01,.19,.02,.28,.1-.25,.2-.5,.28-.69,.31,.09,.61,.29,.88,.21,.25-.07,.47-.44,.7-.68,.02,.1,.05,.2,.07,.3Z"/>
    <path class="cls-2" d="M56.55,70.15h5.7c.02,.1,.05,.19,.07,.29-.19,.16-.38,.42-.58,.47-.37,.09-.75,.1-1.13,.06-.2-.02-.49,.28-.58-.36,0-.05-.17-.09-.24-.03-.84,.78-1.65-.05-2.48-.1-.24-.01-.48-.2-.77-.33Z"/>
    <path class="cls-2" d="M17.54,74.3c.22-.64,.61-.82,1.05-.81,.41,0,.82,.04,1.22,.09,.27,.03,.55,.12,.82,.16,.25,.03,.5,.02,.74,.05,.19,.02,.38,.07,.57,.11,0,.13,0,.27,0,.4h-4.4Z"/>
    <path class="cls-2" d="M105.27,71.57h-2.22c.02,.22,.04,.43,.05,.53h-2.94c0-.06-.01-.12-.02-.17,.18-.06,.36-.14,.54-.17,.48-.07,.98-.33,1.42-.39,.72-.09,1.46-.87,2.2-.13,.04,.04,.17-.09,.22-.2,.15-.33,.12-.31,.31,.01,.11,.18,.29,.22,.44,.32,0,.06,0,.13,0,.19Z"/>
    <path class="cls-2" d="M48.24,70.01c-.56,.05-1.12,.12-1.68,.15-.08,0-.19-.1-.25-.21-.24-.39-.45-.54-.7-.01-.06,.12-.23,.16-.33,.12-.39-.17-.77-.38-1.14-.71,1.4-.2,2.78-.14,4.14,.35-.01,.1-.02,.21-.03,.32Z"/>
    <path class="cls-2" d="M76.24,74.23h1.63c0,.07,0,.14,.01,.21-.2,.06-.4,.12-.6,.18v.22c.37,.05,.74,.11,1.11,.16,0,.06,0,.12,0,.18h-5.88c0-.09,0-.18,0-.28h4.67c-.35-.26-.64-.47-.93-.68h0Z"/>
    <path class="cls-2" d="M14.99,69.06c-.69,0-1.38,.06-2.06-.02-.76-.08-1.52-.25-2.28-.44-.17-.04-.33-.31-.44-.68,1.6,.36,3.19,.71,4.79,1.07,0,.02,0,.04,0,.07Z"/>
    <path class="cls-2" d="M187.36,49.84c-.2,.11-.41,.32-.61,.31-.65-.04-1.27,.49-1.95,.07-.47-.29-1.04-.13-1.58-.32,.09-.06,.18-.18,.27-.17,.65,.02,1.31,.08,1.96,.06,.17,0,.33-.28,.5-.4,.07-.05,.15-.03,.23-.05-.02,.12-.04,.24-.08,.43,.41-.1,.82-.84,1.19,.04,.02,.02,.04,.03,.06,.04Z"/>
    <path class="cls-2" d="M186.18,46.48c.46-.06,.93-.12,1.39-.19,0-.04,0-.09,0-.13h-1.02v-.11c1.02-.27,2.04-.54,3.12-.83-.21,.8-.29,.8-.67,.75-.31-.04-.73-.03-.91,.29-.32,.56-.69,.46-1.03,.57-.27,.09-.57-.08-.86-.13,0-.08-.01-.15-.02-.23Z"/>
    <path class="cls-2" d="M12.49,69.37h3.61c-.29,.35-.82-.23-.76,.88-.98-.22-1.92-.43-2.87-.64,0-.08,.02-.16,.02-.24Z"/>
    <path class="cls-2" d="M79.73,74.01c.07,.14,.14,.41,.21,.41,.66,.04,1.33,.39,1.99-.1,.14-.11,.32-.08,.48,0-.56,1.07-1.28,.59-1.9,.5-.57-.08-1.32,.3-1.6-1.23,.27,.06,.58,.13,.88,.2-.02,.07-.04,.15-.06,.22Z"/>
    <path class="cls-2" d="M21.91,73.05c-1.09,.53-2.18-.08-3.19-.06,1.02-.95,2.11-.34,3.19,.06Z"/>
    <path class="cls-2" d="M186.12,46.42c-.69-.54-1.44,.52-2.13-.29,.71-.35,1.39-.68,2-.98,.07,.25,.13,.45,.19,.64-.02,0-.11,.06-.21,.11,.08,.11,.14,.21,.2,.31-.02,.07-.03,.14-.05,.22Z"/>
    <path class="cls-2" d="M67.07,73.09c1.01-.41,2.03-.14,3.06-.06-.12,.78-.18,.71-.56,.57-.55-.2-1.13-.19-1.69-.25-.27-.03-.54,0-.81,0,0-.08,0-.17,0-.25Z"/>
    <path class="cls-2" d="M91.02,73.4c-.16,.17-.22,.24-.36,.39,.7,.2,1.33,.39,1.97,.58,0,.06,0,.13,0,.19-.84-.08-1.67-.17-2.56-.26,.1-.12,.17-.19,.37-.41-.43,.1-.72,.17-1.04,.25v-.5c.49-.07,.99-.14,1.62-.23Z"/>
    <path class="cls-2" d="M132.09,70.83c-.22-.12-.44-.24-.65-.37,0,.1,.01,.21,.02,.31-.14,.12-.28,.29-.42,.35-.3,.13-.6,.27-.91,.3-.48,.05-.97,.01-1.47-.2,.12-.07,.25-.18,.37-.21,.68-.16,1.35-.29,2.03-.46,.25-.06,.49-.25,.74-.26,.1,0,.2,.34,.29,.53,0,0,0,0,0,0Z"/>
    <path class="cls-2" d="M196.81,27.15c-.91,.27-1.81,.55-2.72,.82,0-.11-.02-.22-.03-.33,.85-1.1,1.79-.96,2.75-.48,0,0,0,0,0,0Z"/>
    <path class="cls-2" d="M116.83,69.91c-.13,.11-.25,.21-.38,.33-.32,.3-.57,.85-1.02,.52-.25-.18-.56-.1-.86-.22,.27-.11,.55-.22,.93-.37-.17-.08-.22-.11-.28-.14h0c.3-.14,.64,.13,.92-.51,.21-.49,.6-.17,.69,.41v-.02Z"/>
    <path class="cls-2" d="M116.81,69.94h1.44c-.17,.2-.4,.36-.52,.65-.35,.81-.65,.91-1.07,.26-.04-.06-.08-.12-.11-.17,.1-.26,.19-.51,.29-.76,0,0-.01,.02-.01,.02Z"/>
    <path class="cls-2" d="M76.24,74.23c-.51,.18-1.01,.57-1.57,0,.11-.07,.19-.12,.39-.26h-1.41c0-.06,0-.13,0-.19,.62-.12,1.24-.25,1.74-.35,.13,.27,.18,.48,.27,.54,.18,.13,.38,.18,.58,.27,0,0,0,0,0,0Z"/>
    <path class="cls-2" d="M36.53,73.77c.94,.19,1.91-.31,2.82,.38,0,.1-.01,.19-.02,.29-.94-.12-1.88-.25-2.82-.37,0-.1,.01-.2,.02-.31Z"/>
    <path class="cls-2" d="M107.54,72.39c.42-.16,.8-.37,1.19-.45,.3-.06,.62-.02,.74,.59-.66,.83-1.28,.24-1.93-.15Z"/>
    <path class="cls-2" d="M187.73,60.15h-2.73c.89-.7,2.59-.73,2.73,0Z"/>
    <path class="cls-2" d="M105.22,72.11c.66-1.11,1.39-.41,2.11-.22-.69,.62-1.41,.41-2.11,.22Z"/>
    <path class="cls-2" d="M190.69,57.84c-.06,.1-.13,.21-.22,.35,.1,.16,.19,.31,.29,.47-.07,.09-.11,.2-.14,.19-.16-.05-.32-.11-.47-.2-.11-.06-.21-.27-.3-.25-.23,.04-.45,.16-.68,.13,.46-.62,.91-1.23,1.52-.69Z"/>
    <path class="cls-2" d="M61.88,72.83c.19,.21,.38,.42,.57,.63-.02,.1-.05,.21-.07,.31-.78-.13-1.57-.26-2.35-.39,.58-.3,1.2,.02,1.79-.23,.02-.1,.04-.21,.07-.31Z"/>
    <path class="cls-2" d="M51.86,73.31c.76-.13,1.52-.26,2.39-.41-.21,.21-.32,.33-.52,.54,.13,.09,.22,.15,.24,.16-.35,0-.7,.02-1.06,0-.35-.03-.7-.1-1.05-.16,0-.04,0-.09,0-.13Z"/>
    <path class="cls-2" d="M64.06,70.83h-1.44c.19-.54,.81-.62,1.44,0Z"/>
    <path class="cls-2" d="M205.5,35.56c.61-.1,1.21-.2,1.83-.29-.17,.74-.79,.82-1.83,.29Z"/>
    <path class="cls-2" d="M182.59,43.76c-.2,.01-.4,0-.6,.04-.25,.05-.5,.17-.75,.2-.26,.04-.52,0-.78-.15,.7-.17,1.41-.34,2.11-.51,0,.14,.01,.28,.02,.41Z"/>
    <path class="cls-2" d="M26.44,72.36c-.49,.13-.98,.26-1.47,.39,0-.11-.02-.22-.03-.34,.49-.16,.94-.79,1.49-.35,0,.1,0,.19,.01,.29Z"/>
    <path class="cls-2" d="M142.52,70.71q1.09-.57,1.69,0h-1.69Z"/>
    <path class="cls-2" d="M44.14,72.69c.48-.1,.89-.18,1.36-.28-.42,.86-.72,.92-1.36,.28Z"/>
    <path class="cls-2" d="M187.7,51.05c.64-.75,1.15-.76,1.3,0h-1.3Z"/>
    <path class="cls-2" d="M22.05,73.94c.61-.38,1.08-.84,1.56,.21-.51-.07-.96-.13-1.56-.21Z"/>
    <path class="cls-2" d="M186.59,19.27c-.41,.06-.82,.12-1.24,.18-.03-.12-.06-.28-.07-.35h1.32c0,.06,0,.12,0,.17Z"/>
    <path class="cls-2" d="M94.03,74.68c-.42,.9-.91,.59-1.4,.18,.47-.05,.94-.11,1.41-.16,0,0,0-.02,0-.02Z"/>
    <path class="cls-2" d="M187.36,49.84s-.04-.02-.06-.04c.08-.12,.16-.33,.25-.33,.46-.03,.91-.02,1.37-.02,0,.08,0,.16,0,.24-.52,.05-1.04,.1-1.56,.14Z"/>
    <path class="cls-2" d="M115.22,70.03c-.34-.15-.67-.31-1.09-.5,.5-.12,.94-.23,1.45-.35-.15,.35-.25,.6-.36,.86,0,0,0,0,0,0Z"/>
    <path class="cls-2" d="M65.8,74.06c-.62-.17-1.24-.35-1.86-.52,0-.06,0-.12,.01-.18,.63,.15,1.25,.3,1.88,.46-.01,.08-.02,.16-.03,.24Z"/>
    <path class="cls-2" d="M189.27,57.79c-.6,.53-1.16,.3-1.82,0h1.82Z"/>
    <path class="cls-2" d="M63.81,69.7c-.47,0-.77,.02-1.07-.01-.07,0-.14-.19-.22-.29,.07-.13,.16-.39,.2-.37,.33,.17,.65,.39,1.09,.67Z"/>
    <path class="cls-2" d="M84.33,75.61c-.12,.2-.24,.57-.37,.57-.2,.01-.4-.22-.6-.55,.33,0,.65,0,.98,0v-.02Z"/>
    <path class="cls-2" d="M162.68,69.18c-.31,.31-.63,.62-.89,.88-.07-.26-.12-.44-.18-.68,.3-.12,.66-.26,1.03-.39,.02,.06,.03,.13,.05,.19Z"/>
    <path class="cls-2" d="M136,72.68c.3-.08,.6-.27,.89-.21,.27,.05,.53,.36,.92,.65h-1.8c.29-.13,.48-.22,.68-.3,0-.05,0-.11,0-.16-.23,0-.46,0-.69,0,0,0,.01,.02,.01,.02Z"/>
  </g>
  <path class="cls-1" d="M112.21,17.67c-4.33-2.03-8.97-3.5-13.81-4.34-.6,1.08-1.29,2.52-1.77,3.67-5.15-.77-10.25-.77-15.31,0-.48-1.15-1.19-2.6-1.79-3.67-4.85,.84-9.49,2.32-13.82,4.35-8.74,13.21-11.11,26.09-9.93,38.79,5.8,4.33,11.42,6.96,16.94,8.68,1.36-1.88,2.58-3.87,3.63-5.98-2-.76-3.91-1.69-5.71-2.78,.48-.36,.95-.73,1.4-1.11,11.02,5.15,22.99,5.15,33.87,0,.46,.38,.93,.75,1.4,1.11-1.81,1.09-3.73,2.03-5.72,2.79,1.05,2.1,2.26,4.1,3.63,5.98,5.53-1.72,11.15-4.35,16.95-8.69,1.39-14.72-2.38-27.49-9.95-38.8Zm-34.36,30.99c-3.31,0-6.02-3.09-6.02-6.85s2.65-6.85,6.02-6.85,6.08,3.09,6.02,6.85c0,3.76-2.65,6.85-6.02,6.85Zm22.25,0c-3.31,0-6.02-3.09-6.02-6.85s2.65-6.85,6.02-6.85,6.08,3.09,6.02,6.85c0,3.76-2.65,6.85-6.02,6.85Z"/>
</svg>