<?xml version="1.0" encoding="UTF-8"?>
<svg id="Layer_1" data-name="Layer 1" xmlns="http://www.w3.org/2000/svg" viewBox="0 0 106.32 89.13">
  <defs>
    <style>
      .cls-1 {
        fill: #fff;
      }

      .cls-2 {
        fill: #F80123;
      }
    </style>
  </defs>
  <g>
    <path class="cls-2" d="M53.92,4.88c-.07,.29-.09,.41-.1,.41-.54,.09-1.07,.16-1.61,.27-.06,.01-.12,.22-.19,.35-.04,.08-.08,.27-.1,.24-.18-.19-.13,.34-.16,.68,.45,.12,.88,.17,1.3,.37,.43,.21,.86,.85,1.29,.79,.39-.05,.78,.72,1.16,.12,.11-.07,.21-.18,.31-.17,.09,0,.18,.17,.26,.19,.05,.01,.11-.11,.16-.18-.04-.2-.08-.4-.12-.59-.02-.11-.05-.2-.06-.41,.32,.46,.69-.34,.99,.89,.11,.45,.33,.51,.5,.54,.32,.06,.65,.02,.97-.09,.21-.07,.43,.23,.62-.42,.02-.08,.09,0,.13,.09,.3,.87,.65,.7,.99,.81,.3,.1,.59,.19,.89,.24,.06,0,.13-.21,.18-.54,.26,.17,.53,.35,.82,.53,.11,1.23,.42,.74,.65,.91,.31,.23,.64,.02,.92,.42,.22,.3,.41,.07,.62,.17,.08,.04,.15,.14,.22,.31,.18-.07,.36-.14,.52-.19,.07-.27,.14-.71,.18-.67,.08,.09,.15,.44,.23,.7,.06,.19,.1,.51,.17,.57,.28,.28,.57,.47,.85,.74,.07,.07,.13,.31,.19,.49,.04-.11,.09-.35,.14-.33,.48,.16,.97,.35,1.45,.56,.56,.24,1.12,.5,1.69,.78,.13,.06,.25,.29,.38,.36,.29,.15,.57,.27,.86,.36,.04,.01,.08-.24,.1-.3,.1,.13,.22,.42,.32,.35,.06-.04,.1-.64,.18-1.14,.12,.14,.28,.38,.46,.49,.05,.03,.11-.33,.13-.38,.3,.14,.57,.3,.84,.39,.26,.09,.53,.11,.81,.17,.03-.27,.06-.53,.1-.96,0,1,.11,1.1,.29,1.06,.21-.04,.43,.15,.64,.19,.1,.02,.21-.14,.31-.14,.28-.01,.56,.1,.83-.01,.13-.06,.36,.12,.35-1.14-.18-.18-.37-.44-.57-.54-.3-.16-.61-.15-.91-.34-.17-.11-.33-.47-.5-.69-.04-.05-.09,.07-.13,.03-.06-.07-.14-.14-.18-.33-.09-.47-.15-.68-.21,.1-.05,.66-.19,.69-.32,.68-.37-.03-.73-.1-1.1-.11-.1,0-.21,.16-.34,.27-.05-.25-.13-.63-.21-1.01-.04,.27-.08,.53-.13,.8-.02,.11-.03,.23-.05,.34-.06-.37-.13-.73-.19-1.1-.01-.12-.03-.23-.04-.35-.04,.3-.08,.6-.13,1.06-.04-.39-.06-.67-.1-1.08,.26-.22,.49-.42,.73-.64-.02-.33-.04-.6-.06-.87,.01-.05,.03-.1,.04-.15,.04,.16,.11,.29,.12,.48,.03,.6,.12,.64,.24,.63,.43-.02,.86,.03,1.29,0,.16-.01,.31-.25,.47-.32,.16-.07,.33-.08,.49-.09,.5-.03,1.01,.01,1.51-.11,.21-.05,.41-.42,.61-.68,.23-.29,.47-.54,.69-.93,.24-.41,.57,.02,.85,.12,.15,.05,.3,.17,.44,.26,.03,.02,.07-.04,.09,.02,.28,.8,.57,.85,.89,.6,.1-.08,.21,.24,.31,.23,.07,0,.15-.25,.16-.27,.22,.27,.39,.57,.56,.68,.35,.22,.7,.35,1.05,.49,.12,.05,.24,0,.39,0,0-.09,.03-.32,.06-.64,.07,.34,.13,.59,.18,.85,0-.09,0-.17,0-.26,.33,.13,.66,.28,1,.39,.12,.04,.25,0,.37,0,.02,0,.05-.06,.06-.02,.43,1.03,.92,1.02,1.38,1.34,.3,.2,.61,.35,.91,.48,.14,.06,.29,.02,.43,.02,.04,0,.08-.08,.11-.01,.4,.96,.65-.59,.97-1.01,.15-.19,.3-.28,.46-.28,.12,0,.24,.19,.36,.36,.04,.07,.07,.34,.11,.52-.05,.15-.09,.38-.14,.44-.17,.18-.34,.3-.52,.45,0,.16,0,.31,0,.47,.15,.15,.3,.33,.45,.45,.44,.36,.88,.82,1.33,1,.4,.16,.81-.01,1.22,0,.08,0,.16,.22,.24,.32,.12,.14,.23,.88,.32,.12,.13,.13,.23,.24,.4,.41-.07-.72-.11-1.2-.15-1.67-.05-.55-.06-.54,.1-.74,.24,.94,.36,1.96,.1,3.19-.07-.05-.16-.15-.26-.17-.06-.02-.12,.08-.18,.12,.02,.23,.03,.56,.07,.68,.13,.39,.26,.82,.41,1.03,.2,.29,.42,.36,.63,.56,.23,.22,.45,.48,.68,.72,.04,.05,.1,.16,.13,.08,.35-.88,.73-.6,1.11-.48,.17,.05,.33,.4,.49,.51,.14,.09,.32,.33,.37-.52,.42,1.32,.7,.01,1.01-.95-.14-1.53-.55-1.38-.79-2.36,.41,.26,.82,.49,1.22,.82,.05,.04,.13,.67,.11,.95-.12,2.19-.11,2.36,.34,3.38,.04,.1,.09,.41,.08,.61-.01,1.45,.04,2.83,.19,4.15,.08,.69,.14,.68,.24,.07,.03,.13,.07,.27,.07,.36-.06,1.11,.13,1.74,.26,2.44,.06,.32,.19,.39,.29,.57,.03-.32,.04-.7,.09-.94,.11-.52,.24-.97,.36-1.45,.05-.21,.1-.47,.17-.62,.07-.15,.14-.2,.22-.29,0,.22,.03,.45,.03,.67,0,.22-.03,.43-.03,.65-.01,1.38-.08,1.64-.41,1.35v1.53c.21-.04,.41-.08,.64-.13,.02,.44,.06,1.11,.1,1.87,.19-.75,.4-.71,.66,.13,.23,.77,.51,.52,.76,.78,.04,.04,.1-.21,.18-.41,0,.27,0,.52-.02,.61-.19,.7-.04,.86,.09,1.1,.23,.46,.47,.48,.72,.5,.22,.02,.44,.18,.61,1.2-.1-.06-.16-.1-.28-.18,.05,.48,.08,.85,.12,1.21-.22,.14-.3-.15-.32-1.02,0-.19-.06-.48-.1-.51-.22-.16-.43-.26-.69-.4,.02,.41,.04,.67,.06,.94,.04,.66,.07,1.26-.13,1.67-.09,.2-.15,.69-.07,1.26,.05,.38,.06,.86,.1,1.39,.36-1.67,.62-.03,.94,.27-.11,.24-.2,.44-.3,.66-.1-.2-.23-.48-.36-.65-.05-.07-.13,.11-.18,.25-.02,.04,0,.48,.01,.5,.05,.07,.11,.04,.17,.04,.05,0,.09,0,.11,0-.02,.49-.03,.86-.05,1.23,.08-.13,.15-.26,.27-.45,.05,.18,.24,.2,.17,1.2-.06-.29-.1-.47-.14-.64-.02,.02-.03,.03-.05,.05,0,.32-.01,.7,.02,.94,.08,.53,.12,.97,0,1.47-.03,.11-.03,.59,0,.68,.11,.35,.24,.61,.36,.9,.01-.08,.03-.15,.04-.23,.03,.33,.05,.66,.09,1.13,.05-.32,.08-.53,.11-.72,.17,.23-.05,1.62,.22,1.37,.09,.54,.17,1.03,.28,1.65-.09,1.84,.13,3.7,.23,5.62,.1,1.8,.21,3.6,.08,5.43-.06,.86-.16,1.67-.26,2.47-.02,.17-.09,.24-.17,.19,.04-.19,.08-.39,.13-.63-.09-.42-.18-.84-.27-1.26,.2-.46,.26-1.7,.12-2.43-.02-.1-.04-.19-.06-.29q-.19-.96-.41,.02c-.15-1.1-.3-2.18-.46-3.27-.08,.02-.18,.04-.24,.06-.12,.7-.23,1.34-.34,1.98l-.04-.3c-.12,.12-.23,.35-.35,.35-.22,0-.35,.78-.53,1.09-.38,.65-.47,.59-.72-1.29-.09,.54-.2,.98-.25,1.51-.08,.87-.17,1.65-.37,2.11-.03,.07-.03,.41-.04,.63,.07,.04,.15,.08,.22,.12,0-.08,0-.16,0-.23,.09,.26,.19,.52,.31,.84-.16,.44-.24,1.3-.46,.67,0-.01-.02-.01-.02,0-.2,.76-.51,.56-.68,1.51-.02,.13-.07,.27-.07,.37,.08,1.7-.29,1.62-.47,1.86-.36,.47-.75,.51-1.13,.7-.07,.04-.15-.06-.23,0-.08,.06-.18,.14-.22,.37-.14,.82-.27,1.71-.41,2.68,.23-.3,.43-.64,.65-.83,.19-.16,.38-.18,.57-.17,.23,.01,.23,.68,.15,1.3-.07,.52-.17,.94-.26,1.41,.14,.28,.42-.05,.47-.73,.06-.88,.18-1.37,.42-1.55-.03,.3-.04,.59-.08,.75-.16,.68-.15,1.16,.07,1.52,.04,.07,.07,.3,.08,.62-.09-.11-.19-.22-.3-.35-.03,.28-.03,.59-.08,.74-.07,.25-.21,.64-.24,.54-.18-.57-.31,0-.47,.12-.36,.25-.73,.6-1.1-.05-.32-.57-.48-.15-.6,1.26-.04,.49-.16,.86-.23,1.33-.08,.53-.12,1.13-.2,1.65-.06,.37-.16,.61-.22,.98-.05,.3-.09,.69-.1,1.06-.01,.76,0,1.52,0,2.43-.23-.51-.42-.93-.64-1.4-.04,.57-.08,1.11-.12,1.72-.14-.35-.22-.64-.18-1.35,.06-1.02-.12-1.65-.26-2.63-.07,.67-.1,1.15-.16,1.58-.14,1.06-.3,2.08-.44,3.14-.05,.36-.07,.78-.12,1.36-.23-.83-.46-1.64-.68-2.44-.14,.46-.3,1.03-.47,1.59-.17,.56-.31,1.36-.58,1.18,.03-.62,.06-1.2,.09-1.85-.38-.33-.73-.64-1.14-1,.12-.13,.19-.2,.28-.29-.07-.63-.18-.92-.32-.73-.18,.26-.33,.03-.47-.46-.21-.73-.44-1.24-.72-1.04-.12,.09-.23,.31-.34,.58-.52-.7-1.06-1.33-1.63-1.48-.31-.08-.62-.14-.92-.85-.22-.51-.51-.49-.76-.58-.25-.09-.51-.05-.77-.01-.09,.01-.19,.18-.28,.29-.01,.02-.03,.09-.04,.08-.27-.55-.46,.55-.71,.55-.25,0-.5,.39-.74,.36-.16-.02-.33-.43-.49-.72-.14-.25-.26-.39-.38,.16-.02,.09-.05,.17-.08,.19-.22,.11-.26,.84-.33,1.57-.07,.71-.18,1.35-.29,1.99-.07,.43-.15,.3-.26,.04-.12-.31-.27-.43-.41-.62-.03-.04-.09-.05-.09-.11,0-.17,0-.35,.02-.52,0-.08,.04-.11,.05-.19,.06-.27,.11-.55,.17-.83-.11-.13-.21-.35-.32-.37-.24-.05-.47-.05-.71,.02-.1,.03-.19,.3-.31,.5-.12-.17-.26-.37-.44-.64-.1,.47-.23,1.07-.38,1.72,0-.16-.04-.37-.02-.49,.11-1.02-.01-1.02-.2-.92-.28,.14-.56,.2-.84,.32-.06,.03-.12,.19-.18,.28-.05,.07-.1,.21-.14,.18-.25-.16-.5-.37-.78-.58v1.23c-.14-.4-.24-.69-.38-1.06-.05,.07-.14,.19-.23,.3-.02,.03-.07,.05-.07,0-.13-.77-.16-.05-.22,.28-.13-.77-.21-.37-.25,.32-.28-.75-.57-.81-.84-.37,.01,.41,.02,.75,.03,1.09-.07-.29-.15-.59-.23-.92-.02,.1-.06,.28-.1,.46-.39-.91-.76,.15-1.14,.13-.02-.26-.03-.48-.05-.69-.05,.07-.1,.1-.14,.21-.1,.27-.19,.58-.28,.88-.02-.12-.04-.25-.05-.37,.08-.15,.16-.29,.24-.44,0-.06,0-.13,0-.19-.18-.06-.36-.11-.54-.17v.29c.07,.24,.14,.47,.21,.74,0,.03-.03,.25-.07,.56-.2-.78-.37-1.6-.57-2.16-.15-.41-.35-.48-.54-.71,.03,1.61-.29,1.05-.44,1.49-.03,.1-.11,.12-.11,.22-.08,1.49-.37,1.5-.63,1.63-.18,.09-.37,.02-.55,.05-.38,.07-.76,.16-1.13,.24,0,.08-.02,.16-.03,.25,.14,.24,.27,.48,.46,.81-.21,0-.37,0-.53,0-.16,0-.18-.15-.05-1.06-.17-.07-.31-.13-.46-.2,.04,.54,.06,.84,.08,1.15-.04,0-.12,.07-.12,.02-.03-.37-.05-.76-.09-1.33-.82,.13-1.67,.27-2.52,.41-.04,0-.09,.1-.11,.03-.31-.95-.63-.44-.96-.28-.35,.17-.71,.06-1.07,.11-.28,.04-.57,.12-.85,.18-.08,.02-.15,.08-.23,.06-.41-.09-.82-.19-1.22-.3-.03,0-.07-.1-.1-.3,.24-.07,.48-.14,.73-.22-.01-.5-.02-.93-.03-1.55-.13,.34-.23,.59-.33,.85-.29-1.15-.68-.98-.93,.44-.17,.99-.19,1.03-.43,.71,.16-.46,.26-1.01,.12-1.89-.11,.2-.22,.42-.35,.67,0,0-.07-.3-.09-.24-.4,1.01-.86,.24-1.27,.82-.05,.07-.1,.26-.14,.36,.11,.34,.19,.66,.28,.82,.05,.08,.13-.12,.18-.27,.14-.42,.28-.61,.42-.02-.14,.24-.29,.4-.42,.71-.25,.63-.51,.12-.76,.23-.22,.09-.43,.26-.65,.32-.07,.02-.19-.14-.2-.33-.1-1.18-.31-.77-.5-.79-.2-.02-.43,.2-.53-.87-.14,.12-.27,.25-.4,.36-.03,.03-.08,.11-.1,.05-.27-.71-.53-.32-.8-.03-.11,.11-.23-.04-.34-.1-.25-.13-.49-.28-.74-.2,.21,.55,.42,1.11,.64,1.7-.03,.73-.13,1.12-.3,1.14-.2,.03-.42-.1-.61,.14-.33,.43-.64-.29-.97-.19-.46,.15-.92-.04-1.38,.03-.22,.04-.45,.48-.67,.52-.32,.06-.65-.08-.97-.11-.09,0-.18,.15-.27,.1-.2-.11-.42,.16-.56-.73,0-.04-.04,.02-.09,.04,.04,.25,.07,.46,.1,.66,0,.06-.02,.12-.02,.17-.18-.29-.35-.56-.52-.88-.03-.05-.04-.33-.05-.51-.04-1.18-.21-1.52-.45-.99-.09,.19-.21,.13-.31,.15-.13,.03-.26-.07-.39,.05-.11,.1-.26,.34-.3,.69-.03,.32,.07,.88,.11,1.34,.02,.17,.04,.33,.06,.55h-2.06v-1.46h-.67c0-.12,0-.24,0-.36,.08-.07,.16-.13,.31-.26-.08-.2-.13-.41-.18-.41-.23,.03-.46,.04-.69,.21-.24,.18-.35-.57-.51-1.08-.04,.29-.09,.63-.11,.78-.13,0-.23,.02-.32,0-.18-.06-.37-.22-.55-.2-.25,.03-.49,.19-.73,.29-.04,.02-.08,.06-.12,.03-.29-.16-.59-.64-.86-.42-.28,.23-.5-.15-.75-.28-.06-.03-.12,.01-.18,.06-.15,.12-.3,.3-.41-.65-.04,.35-.07,.59-.1,.81-.21-.65-.37-1.16-.59-.19-.08,.36-.32,.09-.48,.1-.42,.02-.83,.03-1.25,.03-.05,0-.1-.03-.17-.05v.74c-.23-1.12-.48-1.53-.78-.47-.09-.17-.21-.4-.33-.62-.21-.84-.41-1.13-.49-.66-.42-.55-.83-1.07-1.23-1.6-.23-.3-.45-.73-.68-.9-.16-.12-.34,.09-.51,.21-.04,.03-.07,.26-.14,.51,.1,.09,.16,.15,.23,.22,0,.12,0,.33,0,.35-.14,.24-.29,.58-.43,.64-.26,.1-.52,.03-.79,.03-.07-1.02-.26-.78-.44-.79-.18-.01-.38,.26-.48-.82-.08,.09-.15,.27-.23,.27-.21-.01-.42-.13-.63-.15-.09-.01-.19,.02-.27,.19-.14,.32-.24,.17-.38-.03-.21-.29-.45-.26-.68-.23,.2,.61,.46,.73,.58,2.07-.06,.95-.33,.63-.54,.8-.16,.12-.32,.2-.48,.23-.07,0-.14-.26-.21-.26-.27-.03-.55,0-.82,0-.23,0-.46-.1-.69-.03-.26,.08-.52,.39-.79,.45-.29,.06-.57-.05-.86-.08-.09,0-.18,.06-.27,.03-.17-.05-.36,.17-.48-.65,0-.02-.04,.04-.08,.08,.03,.2,.06,.37,.08,.54,0,.07-.02,.13-.02,.2-.18-.3-.35-.59-.53-.89,0-.09,0-.18,.01-.27,.44-.09,.89-.18,1.36-.28-.09-.72-.15-1.07-.33-.81-.16,.22-.34,.13-.52,.19-.16,.06-.33,.16-.52,.25-.08-.51-.17-1.4-.4-.33-.05,.22-.2,.01-.31,0-.07,0-.14-.03-.21,0-.31,.11-.52,.54-.24,2.17,.01,.09,.01,.23,.02,.36h-1.85c0-.35,.01-.78,.02-1.32-.19-.04-.39-.08-.59-.12,0-.09,0-.19-.01-.28,.19-.1,.38-.2,.58-.31,0-.08,0-.16,0-.24-.27-.24-.55-.47-.85-.74-.14,.53-.55,.53-.64,.05-.23,.13-.42,.28-.62,.35-.3,.1-.6,.2-.9,.18-.28-.02-.57-.29-.85-.25-.29,.04-.58,.19-.85-.47-.01-.03-.05,.08-.07,.13-.14,.39-.26,.36-.39-.47-.03,.3-.05,.55-.07,.78-.2-.72-.34-1.13-.54-.24-.06,.27-.22,.15-.33,.15-.46,.01-.92,0-1.4,0,0,.23,.02,.46,.03,.77-.19-1.32-.52-1.52-.67-.65-.13-.1-.25-.1-.35-.29-.1-.19-.18-.58-.27-.87-.02-.08-.06-.21-.08-.17-.31,.56-.48-.8-.74-.95-.03-.02-.07-.03-.1-.08-.31-.48-.61-.97-.91-1.47-.03-.05-.05-.23-.11-.55,.55,.6,1.04,1.22,1.53,1.67,.51,.46,1.02,.76,1.52,1.21,.14-.08,.28-.19,.43-.23,.23-.07,.46-.07,.68-.17,.07-.03,.14-.29,.2-.43-.42-.32-.84-.65-1.25-.94-.31-.21-.62-.33-.93-.56-.25-.19-.5-.45-.75-.74-.03-.04-.04-.41-.08-.76-.05,.27-.08,.45-.13,.74-.04-.98-.08-1.87-.13-2.83,.1-.21,.15-.42,.03-1.02-.1-.47-.11-1.23-.27-1.53-.11-.2-.22-.41-.32-.65-.08-.19-.16-.43-.26-.72-.02,.05-.06,.18-.12,.35,0-.73,.05-1.46-.01-1.96-.07-.61-.28-.44-.35,0-.29-.26-.56-.49-.86-.76,0,.05-.03,.34-.04,.52-.08,.11-.14,.2-.23,.32-.14-.66,.09-.73,.18-1.36-.13-.05-.22-.09-.34-.14-.06-.87-.52-.17-.46-2.19-.15,.52-.23,.81-.32,1.11-.01,.16-.03,.33-.04,.49-.05-.34-.1-.67-.18-1.16,.1-.11,.15-.17,.26-.3-.25-.5-.45-.91-.66-1.32,.04-.42,.07-.77,.1-1.16-.08-.17-.14-.3-.22-.47-.02,.18-.05,.37-.08,.59-.02-.1-.03-.17-.04-.24-.04-.22-.08-.65-.12-.64-.2,.08-.23-.59-.29-1.12-.06-.55-.1-1.2-.3-1.01-.03,.03-.11-.29-.12-.5-.07-1.05-.21-1.11-.41-.67-.03,.07-.09-.02-.13-.03,.03,.31,.06,.6,.07,.92,0,.07-.08,.2-.14,.33-.05-.53,.01-1.45-.26-1.01,.03,.33,.06,.65,.12,1.25-.1-.36-.18-.51-.2-.75-.05-.77-.17-.91-.33-.82-.39,.22-.78,.31-1.17-.05-.21-.19-.43-.06-.63-.33-.16-.22-.29-.82-.43-1.25,.01-.09,.03-.17,.04-.26,.16,.05,.33,.07,.49,.14,.37,.16,.74,.37,1.1,.52,.37,.15,.73,.28,1.1,.35,.06,.01,.14-.32,.18-.58,.03-.19,0-.6-.02-.79-.05-.27-.13-.47-.2-.62-.14-.26-.3-.35-.42-.7-.12-.34-.2-.92-.28-1.31,.04-.32,.12-.63,.1-.84-.02-.33-.08-.67-.2-.37-.04,.1-.15-.31-.25-.54-.03,.17-.07,.38-.12,.62-.19-.5-.37-1.14-.58-1.46-.23-.36-.48-.46-.72-.61-.25-.15-.49-.24-.74-.35-.06-.02-.12,0-.17-.02-.07-.03-.13-.09-.2-.14,0-.13,0-.26,0-.39,.15,0,.3,0,.46,0,.18,.01,.36,.19,.53,.03,.12-.11,.21-.7,.33-1.01,.07-.19,.17-.4,.24-.34,.17,.12,.27-.27,.3-.77,.04-.61,.12-.59,.22-.76,.09-.15,.16-.52,.24-.79-.1-.19-.2-.52-.3-.54-.13-.02-.27,.33-.4,.31-.19-.02-.38-.23-.57-.6h.36q.06-.91-.35-1.19c.12-.11,.23-.22,.36-.35,0-.26-.01-.5-.02-.91,.24,0,.46,0,.68,0,.04,0,.09,.04,.11-.04,.24-1.15,.62-.99,.9-1.9-.02-.74,.02-1.1,.26-1.17,.25-.07,.49-.65,.73-1.05,.02-.03,.01-.33,.02-.36-.15-.09-.29-.23-.43-.22-.11,0-.22,.22-.33,.28-.13,.07-.27,.13-.4,.06-.22-.11-.43-.14-.52,.64h-.48v-.67c.34-.34,.67-.65,.99-1.02,.04-.04,.06-.42,.1-.74,.04,.31,.08,.62,.12,.96,.17-.21,.34-.4,.51-.67,.04-.07,.06-.38,.09-.58-.05,0-.1-.04-.15,.02-.08,.11-.15,.28-.22,.42-.02-.07-.04-.14-.06-.21,.08-.54,.15-1.08,.23-1.67,.03,.14,.06,.27,.1,.45,.03-.22,.05-.41,.07-.56,.13,.08,.24,.15,.42,.25-.07-.46-.11-.73-.16-1.08,.04-.06,.09-.08,.11-.18,.02-.18,.04-.43,.02-.62-.01-.19-.06-.33-.09-.49,.05-.05,.11-.1,.16-.13,.05-.03,.11,.02,.15-.07,.04-.11,.07-.34,.1-.52-.04-.11-.08-.23-.12-.33-.06-.14-.11-.26-.21-.48,.22-.21,.39-.37,.56-.54,0-.12,0-.24,0-.36-.06-.12-.13-.23-.19-.35,0-.08,0-.17,0-.25,.21-.11,.42-.16,.62-.35,.11-.1,.21-.43,.32-.65,.23-.47,.47-.87,.68-1.44,.1-.27,.14-.99,.24-1.25,.19-.5,.41-.85,.62-1.23,.37-.66,.75-1.2,1.11-1.97,.27-.6,.54-1.32,.72-2.47,.04-.26,.17-.26,.24-.45,.07-.16,.15-.37,.18-.65,.02-.22-.02-.71-.07-.83-.06-.14-.16-.12-.23,0-.22,.42-.43,.94-.65,1.39-.22,.44-.44,.85-.7,1.34,.03-.25,.04-.41,.06-.48,.2-.66,.48-.66,.63-1.83,.08-.6,.38-.56,.55-1.03,.47-1.28,1.05-1.01,1.52-2.24,0,.16,0,.32,0,.48,.12,.19,.23,.52,.35,.54,.12,.02,.23-.33,.35-.4,.14-.08,.28,0,.42-.02,.08,0,.17-.03,.25-.06,.15-.06,.31-.11,.46-.2,.44-.27,.87-.54,1.31-.84,.22-.15,.43-.34,.65-.69-.53-.89-1.07,.3-1.6-.3,.36-.23,.72-.43,1.08-.71,.29-.23,.58-.58,.87-.81,.11-.08,.22,.05,.33,.03,.11-.01,.22-.09,.33-.14,.07,1.35,.48,1.56,1.04,.62-.15-.25-.25-.43-.36-.62,.06-.28,.12-.56,.18-.85,0-.1-.02-.2-.02-.3h-.46c0-.11,0-.22,0-.33h.63c-.02,.25-.05,.56-.07,.76,.12,.17,.2,.36,.29,.4,.13,.07,.27,.06,.4,.04,.07,0,.14-.19,.2-.13,.17,.18,.26-.14,.32-1,.09,1.46,.34,1.56,.57,1.6,.24,.03,.49-.11,.73-.24,.05-.03,.09-.35,.14-.53-.05-.11-.09-.32-.14-.33-.32-.03-.63-.02-.95-.02,.02-.8,.06-.95,.26-.56,.25,.48,.47,.19,.78-.2-.13-.27-.2-.51-.28-.56-.23-.16-.47-.33-.7-.36-.33-.04-.67,.02-1,.07-.48,.07-.96,.1-1.44,.3-.65,.27-1.29,.69-1.94,1.02-.11,.06-.22,0-.33,0,0-.08,0-.16,0-.24,.09-.03,.19,.04,.26-.11,.22-.44,.47-.81,.65-1.51,.24-.95,.5-.72,.7-.31,.23,.46,.43,.29,.64,.27,.51-.05,1.01-.26,1.51-.38,.57-.14,1.14-.25,1.71-.4,.08-.02,.16-.26,.24-.3,.08-.04,.16,0,.23,.1,.2,.23,.39,.7,.58,.71,.4,.03,.79-.15,1.19-.32,.13-.06,.25-.5,.38-.52,.29-.05,.57,.07,.86,.1,.09,0,.17-.07,.28-.33-.05-.15-.12-.49-.15-.43-.19,.37-.35-.19-.52-.28-.2-.1-.27-.57-.28-1.49,.34,.18,.67,.36,1,.53,.02,.72,.03,1.33,.04,1.97,.3,.06,.57,.13,.85,.15,.05,0,.13-.21,.14-.37,0-.23-.03-.51-.06-.74-.03-.27-.08-.51-.12-.76,.07-.09,.15-.26,.22-.27,.38-.04,.77-.09,1.15-.02,.18,.03,.37,.21,.53,.53,.15,.29,.06,.76-.03,1.07-.11,.37-.22,.69-.33,1.18,.76,.11,1.51,.93,2.26,.28,0-.14,.01-.28,.02-.42-.25-.34-.49-.68-.76-1.06-.04-.69,0-1,.34-.95,.67,.1,1.34,.26,2.01,.44,.12,.03,.24,.32,.38,.52-.04,.27-.05,.41-.07,.41-.48,.1-.96,.2-1.45,.28-.13,.02-.39,.76-.4,1.07,.74,.4,1.48,.81,2.22,1.19,.32,.17,.65,.48,.96,.33,.21-.1,.42-.11,.62-.11,.09,0,.18-.18,.25-.26,.15,.09,.3,.32,.43,.21,.21-.17,.4,.06,.6,.14,.25,.1,.53-.13,.77-.51,.31-.49,.6-.81,.93-.54,.06,.05,.14-.18,.25-.34,.19,.72,.45,.46,.7-.14-.12-.04-.24-.02-.35-.15-.09-.11-.27,.24-.26-.62,.33-.24,.64-.47,.95-.71,.02-.02,.05-.08,.07-.04,.25,.58,.52,.35,.83,.12-.07,1.05-.13,1.96-.2,2.96-.21-.79-.43-.79-.67-.26-.11,.24-.25,.34-.39,.16-.07-.09-.17,.14-.25,.29,1.19,.89,2.36,1.29,3.5-.39,.06-.35,.11-.89,.17-.92,.07-.03,.15,.38,.24,.58,.07,.16,.15,.28,.28,.54,.1,.83,.41,1.31,.7,.91,.11-.16,.23-.23,.35-.34,0-.09,.02-.18,.03-.27-.15-.22-.3-.44-.44-.64,.09-.25,.19-.51,.28-.77-.01-.13-.02-.27-.03-.4h-.53c0-.12,0-.23,0-.35h.74c-.04,.2-.08,.41-.17,.91,.32,.15,.57,.31,.83,.38,.12,.04,.24-.07,.37-.13,.23-.11,.16-.83,.14-1.57,.07,.5,.12,.85,.17,1.2,.24-.47,.43-1.17,.73-.63,.18,.32,.43-.04,.64-.1,0-.12,.01-.25,.02-.37-.08-.16-.15-.42-.24-.48-.29-.18-.57-.35-.86-.4-.24-.04-.48,.11-.72,.14-.11,.02-.22-.05-.33-.04-.28,.02-.57,.05-.85,.11-.37,.08-.74,.19-1.11,.29-.02,.27-.04,.56-.05,.86-.06-.13-.12-.26-.18-.4-.06-.13-.12-.38-.17-.36-.23,.1-.45,.28-.69,.45,.02,.45,.04,.76,.05,1.15-.12,.04-.23,.07-.35,.11,.03-.45,.06-.77,.09-1.24-.31,.24-.6,.14-.69,1.83-.03-.1-.06-.19-.09-.29,.02-.32,.04-.65,.06-.97,.02-.38,.04-.76,.06-1.27,.1,.91,.24,.66,.36,.33,.18-.46,.35-.97,.52-1.47,.22-.65,.49-.41,.68-.02,.25,.52,.48,.31,.71,.29,.57-.05,1.15-.25,1.72-.39,.63-.15,1.26-.29,1.89-.45,.07-.02,.14-.19,.22-.29,.11-.16,.19-.24,.31,.15,.27,.89,.61,.76,.93,.73,.35-.04,.7-.23,1.05-.39,.06-.03,.1-.3,.16-.34,.13-.09,.27-.11,.41-.03,.3-.85,.64,.28,.96-.17,.02-.67-.04-.68-.19-.7-.23-.03-.46-.36-.68-.7-.05-.08-.07-.66-.11-1.18,.41,.21,.78,.39,1.15,.57,.01,2.1,.01,2.1,.49,2.14,.17,.02,.34,.1,.5,.07,.06,0,.14-.2,.16-.39,.02-.19-.03-.5-.07-.73-.04-.31-.1-.58-.14-.87,.08-.08,.17-.21,.25-.22,.43-.05,.85-.12,1.28-.06,.2,.03,.41,.26,.6,.6,.15,.28,.06,.77-.03,1.07-.11,.37-.24,.68-.35,1.02,0,.1,0,.21,0,.31,.28,.08,.55,.15,.83,.23,.3,.09,.6,.23,.91,.24,.27,.01,.53-.12,.8-.19,0-.17,0-.34,.01-.51-.28-.36-.56-.71-.87-1.09-.02-.83,.01-1.07,.29-1.03,.48,.06,.96,.22,1.44,.32,.3,.06,.59,.04,.89,.16,.14,.06,.27,.36,.44,.6Zm-19.74,75.28c0,.05,0,.11,0,.16,.36,.32,.73,.64,1.1,.97,.09-.09,.21-.26,.32-.29,.16-.04,.32,.04,.48,.07,.26,.03,.47-.27,.6-.91h-2.49Zm-1.47-1.5c0,.1,0,.19,0,.29,.55,.91,1.11,1.04,1.69,.38-.15-.33-.3-.61-.45-.78-.24-.26-.5-.85-.71,.41-.07,.42-.19,.5-.22-.26,0-.17-.02-.34-.04-.53-.1,.19-.18,.34-.26,.49Zm17.72,4.03c.04,.83,.18,.95,.34,.83,.19-.15,.38-.36,.57-.52,.16-.14,.32-.25,.48-.37-.27-1.07-.89-.93-1.39,.06Zm-25.39-2.25c.08,.69,.18,.91,.33,.76,.17-.17,.34-.35,.51-.5,.14-.13,.29-.23,.44-.34,0-.16-.01-.32-.02-.48-.41-.3-.83-.49-1.26,.56Zm22.12,3.05c0,.13,0,.26,0,.39,.11,.12,.25,.48,.31,.3,.23-.62,.46-.34,.69-.27,.14,.04,.28-.08,.42-.13,0-.14,.01-.28,.02-.42-.1-.18-.19-.53-.29-.52-.28,.01-.57,.14-.85,.28-.11,.05-.21,.25-.31,.38ZM42.61,9.08c-.44-.35-.86-.35-1.3-.12,.16,1.19,1.08,1.22,1.3,.12ZM4.72,35.29c.14-.27,.25-.53,.37-.72,.15-.23,.15-.52,.05-.97-.18-.8-.27-.85-.47-.19-.06,.19-.12,.38-.17,.58,.03,.44,.05,.85,.06,1.04,.09,.13,.14,.21,.17,.26Zm-.59-.04c-.05,.47-.08,.8-.11,1.14,.01,.08,.03,.15,.04,.23,.15-.18,.33-.23,.43-.62,.05-.16-.05-1.07-.09-1.64-.02,.03-.05,.05-.07,.08-.01,.35-.02,.71-.04,1.06-.02,0-.04-.01-.06-.02v-.93c-.11,.09-.2,.13-.28,.25-.04,.06-.07,.26-.11,.39,.05,.07,.1,.16,.15,.18,.03,.02,.07-.07,.13-.13Zm59.75,44.81c-.21-.05-.39-.09-.56-.13,0,.05,0,.11,0,.16,.19,.42,.38,.85,.62,1.37-.02-.63-.04-1.08-.05-1.41Zm11.17-.79c0-.68,.01-1.26-.16-1.23-.07,.01-.2,.48-.19,.69,.02,1.02,.21,.32,.35,.54Zm-2.98-.4c.09,1.03,.25,1.16,.41,.36-.05-.28-.09-.57-.14-.83-.1,.16-.18,.3-.28,.46ZM44.67,8.05c0-.14,.01-.27,.02-.41-.12-.14-.25-.31-.37-.41-.02-.02-.09,.27-.09,.42,0,.16,.05,.47,.08,.47,.12,.02,.25-.04,.37-.07Zm-24.06,1.64c0-.12,0-.24,.01-.36-.11-.14-.22-.32-.33-.41-.03-.02-.1,.23-.1,.36,0,.18,.05,.5,.07,.51,.12,.02,.23-.06,.35-.1Zm52.72,68.96s-.05,.03-.08,.05c.05,.29,.11,.57,.16,.86,.06-.42,.12-.83,.18-1.25-.02-.04-.03-.07-.05-.11-.07,.15-.15,.3-.22,.45ZM37.04,11.22c0,.12,0,.25-.01,.37,.16,.08,.31,.17,.47,.25v-.43c-.15-.06-.3-.13-.46-.19Z"/>
    <path class="cls-2" d="M2.12,62.15c.19-.13,.33-.19,.45-.32,.07-.07,.13-.26,.19-.39-.05-.24-.09-.6-.15-.71-.22-.4-.46-.67-.68-1.08-.17-.31-.33-.74-.52-.34-.02,.03-.1-.31-.1-.35,.02-.21,.07-.55,.11-.55,.24,.02,.47,.12,.69,.19-.06,.39-.12,.77,.1,.97,.19,.17,.35,.72,.54,.92,.17,.18,.35,.15,.53,.17,.25,.02,.5,0,.77,0,0,.88,.02,1.31,.22,1.11,.1-.1,.22,.33,.32,.29,.19-.08,.39-.47,.54,.45,.01,.08,.08,0,.11-.02,.01,.37,.02,.68,.04,1.13-.14-.05-.27-.1-.4-.14-.22-.07-.44-.19-.66-.19-.06,0-.11,.36-.16,.51-.03-.26-.07-.53-.1-.79-.09,.22-.17,.43-.28,.71-.15-.81-.39-.59-.64-.43-.19,.12-.39,0-.58-.07-.23-.08-.46-.23-.7-.34-.17-.09-.34-.18-.53-.27,.24-1.1,.75-1.15,.89-.44Z"/>
    <path class="cls-2" d="M12.58,11.45c-.24-.91-.48-.51-.74-.06-.15,.26-.32,.17-.48,.32-.56,.51-1.11,1.04-1.67,1.6-.5,.5-.99,1.07-1.49,1.6,.2-1.1,.56-1.32,.8-2.4,.22-.99,.67-.95,.99-1.67,.32-.73,.68-.11,1.03-.73,.24,.84,.53,.38,.77-.22,.23-.57,.5-.53,.73-.94,.05-.08,.16,.06,.17,.22,.02,.23,0,.58-.02,.87-.03,.46-.07,.91-.1,1.41Z"/>
    <path class="cls-2" d="M1.71,26.98c.38-1.12,.62-1.03,.73,.42,.11-.3,.22-.51,.3-.87,.12-.56,.27-.06,.4-.24,.15-.21,.32-.24,.48-.35,.09,.55,.05,1.03-.07,1.22-.36,.58-.74,1.07-1.1,1.62-.09,.14-.18,.32-.25,.59-.26,.98-.62,.67-.91,1.27-.05,.11-.11,.26-.22,.53,.2,.15,.32,.25,.44,.35,0,.13,0,.26,0,.39-.36,.25-.73,.5-1.09,.75-.01-.04-.03-.07-.04-.11,.12-.31,.22-.8,.35-.89,.29-.2,.38-1,.41-1.91,.33-.91,.76-.83,.98-2.58-.14-.07-.27-.13-.41-.19Z"/>
    <path class="cls-2" d="M102.32,64.12c-.11,.74,.05,1.2,.16,1.59-.13,.4-.22,.91-.33,.99-.14,.1-.3-.14-.47-.25,0-.07,0,.15-.02,.36-.14-.2-.21-.83-.13-1.68,.06-.58,.02-.68-.09-.91-.23-.45-.43-1.29-.67-1.46-.24-.18-.43-.54-.62-1.17-.05,.25-.1,.48-.21,.97-.01-.64-.02-1.01-.03-1.38,.06,.02,.13,.01,.18,.07,.39,.42,.79,.86,1.19,1.3,.03-.31,.05-.56,.1-1.14,.12,2.53,.53,2.53,.93,2.7Z"/>
    <path class="cls-2" d="M75.25,7.73c-.72,.09-1.43,.19-2.13,.27-.26,.03-.26,.03-.27,.52-.12-.14-.24-.33-.36-.44-.39-.34-.77-.64-1.16-.97,0,0-.01-.1-.03-.22,.42,0,.83,0,1.25,0,.68-.01,1.35-.05,2.03-.06,.24,0,.47,.13,.67,.89Z"/>
    <path class="cls-2" d="M93.71,.91c-.09,.15-.2,.19-.25,.44-.28,1.23-.66,1.59-1.01,2.08-.08,.11-.21-.37-.3-.69-.03-.12-.01-.78,.02-.86,.25-.55,.51-1.05,.78-1.49,.12-.2,.25-.23,.38-.34,.21-.18,.33,.29,.38,.87Z"/>
    <path class="cls-2" d="M59.65,5.91c.36-.31,.62-.49,.88-.77,.23-.25,.64,.15,.74,.68,.16-.25,.31-.47,.49-.76-.05,.68-.08,1.13-.12,1.66-.04,.01-.11,.13-.16,.03-.21-.41-.4,.15-.59,.26-.05,.03-.11,.09-.16,.06-.29-.2-.58-.42-.86-.67-.07-.06-.12-.27-.22-.49Z"/>
    <path class="cls-2" d="M64.52,3.07c-.05,.07-.12,.07-.14,.21-.22,1.32-.58,1.46-.88,2.13-.14,.32-.26,.05-.34-.46-.03-.21-.03-.79,0-.86,.23-.54,.47-1.05,.72-1.47,.12-.21,.26-.32,.38-.29,.1,.02,.2,.32,.29,.5-.01,.08-.03,.16-.04,.24Z"/>
    <path class="cls-2" d="M106.32,54.6c-.19,.09-.38,.21-.56,.27-.17,.05-.34,.11-.5,.03-.05-.03-.13-.48-.13-.77-.02-.71,.14-1.32,.32-1.33,.4-.02,.73,.62,.88,1.8Z"/>
    <path class="cls-2" d="M94.81,14.45c-.18,1.6-.35,1.83-.69,1.23-.21-.37-.44-.56-.65-.89-.07-.1-.16-.34-.18-.59-.12-1.57-.2-1.84-.57-1.77-.06,.01-.11-.14-.17-.21,.06-.09,.12-.28,.18-.26,.15,.05,.3,.12,.45,.33,.06,.1,.12,.51,.15,.83,.06,.8,.11,1.44,.37,1.3,.14-.08,.3,.28,.45,.3,.13,.02,.27-.19,.4-.26,.08-.04,.17,0,.27,0Z"/>
    <path class="cls-2" d="M90.15,7.98v-1.33c.3,.11,.59,.19,.88,.34,.03,.01,.08,.62,.06,.69-.15,.57-.31,1.1-.48,1.59-.02,.05-.08-.17-.12-.28-.11-.31-.21-.63-.34-1Z"/>
    <path class="cls-2" d="M91.31,9.75c.12,1.33,.34,.88,.54,.71,.12-.11,.2-.05,.24,.56,.04,.63-.02,.81-.15,.94-.1,.11-.2,.38-.3,.46-.14,.11-.28,.11-.29-.8,0-.19-.1-.48-.16-.53-.15-.14-.31-.17-.46-.36,.16-.76,.44,.46,.57-.97Z"/>
    <path class="cls-2" d="M3.55,30.37c.07,1.62-.1,2.23-.56,2.18-.16-.02-.32-.07-.48,.48-.04,.15-.24,.75-.42,.23-.09-.27-.27,0-.41,.05-.09,.03-.18,.1-.27-.06,.17-.16,.33-.35,.5-.47,.27-.18,.53-.27,.77-.92,.13-.35,.32-.26,.48-.38,.16-.11,.35-.05,.38-1.1Z"/>
    <path class="cls-2" d="M97.54,16.26c.16-1.2,.58-.03,.65-1.71,.14,.49,.26,1.17,.36,.38h.53c-.15,.77-.26,1.43-.52,1.26-.27-.17-.56,.06-.84,.11-.05,0-.11-.03-.18-.05Z"/>
    <path class="cls-2" d="M70.98,85.72c-.19,0-.38-.04-.56,.01-.19,.06-.37,.25-.56,.3-.05,.01-.1-.28-.14-.44,0-.09,0-.18,.01-.27,.34-.31,.69-.71,1.03-.88,.12-.06,.26,.45,.47,.85-.11,.34-.18,.54-.24,.73,0-.1,0-.21,0-.31Z"/>
    <path class="cls-2" d="M29.56,7.22c.15-.89,.29-1.78,.44-2.66,.11,.29,.2,.59,.3,.78,.17,.31,.2,.91,.04,1.24-.23,.46-.48,.67-.72,.98l-.06-.34Z"/>
    <path class="cls-2" d="M103.62,53.92c.12-.66,.23-1.32,.36-2.04,.05,.02,.14,.06,.28,.12,.05,.39,.14,1.03,.23,1.73-.09,.04-.17,.03-.24,.11-.07,.09-.14,.27-.23,.43,.02,.19,.04,.39,.07,.6-.02,.04-.03,.08-.05,.11-.07-.5-.14-1-.2-1.49-.01-.1-.02-.21-.04-.31-.03,.35-.06,.7-.09,1.04-.03-.1-.06-.21-.08-.31Z"/>
    <path class="cls-2" d="M67.13,8.48c.1-.04,.16-.07,.23-.1v-1.08c.09,0,.16,.07,.22-.01,.19-.27,.22,.48,.28,.86,.03,.16-.04,.67-.08,.97-.05,.33-.12,.6-.19,.93-.07-.56-.12-1.55-.38-.58-.03-.34-.05-.59-.09-.98Z"/>
    <path class="cls-2" d="M7,8.85c.14-.84,.28-1.68,.42-2.49,.13,.35,.25,.66,.39,1.04-.09,1.84-.5,1.13-.74,1.73-.02-.09-.04-.18-.07-.27Z"/>
    <path class="cls-2" d="M38.96,85.16c-.01-1.18,.22-.73,.33-.77,.24-.1,.48,.02,.72,.11,.15,.06,.28,.32,.28,.91-.44-.08-.87-.16-1.32-.25Z"/>
    <path class="cls-2" d="M55.88,4.54c.24-.07,.45-.09,.65-.22,.13-.08,.24-.31,.35,.34,.06,.33,.2,.41,.36,.72-.23,.15-.39,.26-.59,.39-.12-.55-.32-.83-.53-.65-.18,.15-.23-.12-.24-.58Z"/>
    <path class="cls-2" d="M102.76,35.34c.37,.77,.63,1.65,.82,2.88-.01,.07-.03,.13-.04,.2-.03-.13-.06-.28-.1-.38-.05-.12-.1-.2-.15-.3,0,.26-.04,.56-.02,.78,.03,.44,.1,.83,.15,1.24-.03,.06-.05,.12-.08,.18-.18-1.45-.37-2.9-.58-4.61Z"/>
    <path class="cls-2" d="M1.63,31.23c.54-.46,1.03-1.44,1.57-1.1-.52,.29-.99,2.02-1.57,1.1Z"/>
    <path class="cls-2" d="M85.21,6.49c-.33-.46-.72-.11-1.03-1.6,.37,.16,.68,.26,.99,.48,.05,.04,.08,.62,.12,.94-.03,.06-.05,.11-.08,.17Z"/>
    <path class="cls-2" d="M31.89,7.29c-.12,.04-.22-.02-.31,.13-.07,.12-.11,.48-.19,.82-.06-1.18-.22-1.47-.63-1.22-.02-.24-.04-.5-.07-.8,.04-.01,.06-.04,.08-.03,.11,.07,.22,.23,.32,.22,.14-.02,.3-.34,.43-.21,.12,.12,.22,.65,.36,1.1Z"/>
    <path class="cls-2" d="M14.74,82.81c-.03-1.04,.18-.68,.28-.72,.61-.24,.85,.08,.89,.94-.38-.07-.77-.14-1.16-.22Z"/>
    <path class="cls-2" d="M5.19,22.99c0-.56,.04-.67,.19-.7,.26-.05,.52-.43,.78-.68,.05-.05,.1-.14,.15-.21,.05,.83-.07,1.3-.31,1.33-.27,.03-.54,.16-.82,.26Z"/>
    <path class="cls-2" d="M2.33,34.6c-.2,0-.34-.01-.48,.03,0,0,0,.43-.01,.61-.25-.08-.52-.18-.8-.27,0,.04,.01-.2,.04-.23,.2-.16,.4-.26,.6-.42,.1-.08,.21-.22,.3-.38,.17-.29,.24,.14,.35,.66Z"/>
    <path class="cls-2" d="M101.15,58.67c.11,1.94,.51,1.07,.79,1.53-.09,.82-.22,1-.41,.81-.38-.37-.38-.33-.38-2.34Z"/>
    <path class="cls-2" d="M63.67,87.34c-.33,.09-.66,.18-1,.27,0-.1,0-.21,0-.31,.29-.23,.57-.49,.86-.66,.06-.03,.13,.29,.19,.45-.02,.09-.04,.17-.05,.26Z"/>
    <path class="cls-2" d="M1.29,54.09h.74c-.01,.26,0,.7-.05,.8-.06,.14-.15,.06-.22,.03-.13-.04-.26-.08-.39-.19-.04-.04-.08-.28-.12-.43,.01-.07,.02-.14,.04-.21Z"/>
    <path class="cls-2" d="M60.35,87.02c.11,.21,.23,.42,.34,.62-.2,.62-.9,.9-.98,.49,.21-.28,.43-.58,.65-.88,0-.08-.01-.16-.02-.23Z"/>
    <path class="cls-2" d="M59.04,6.35c-.18-1.23-.37-.02-.55-.29-.05-.07-.1-.14-.13-.28-.02-.1,0-.34,0-.51,.05,.02,.09,.07,.14,.06,.12-.03,.25-.06,.37-.14,.26-.17,.26-.18,.17,1.17Z"/>
    <path class="cls-2" d="M67.85,9.9c.37-.51,.43-.42,.55,.87-.26,.47-.38,.28-.55-.87Z"/>
    <path class="cls-2" d="M35.49,4c.32-.23,.63-.95,.94-.27-.32-.14-.62,.98-.94,.27Z"/>
    <path class="cls-2" d="M5.01,71.2c.27,.16,.54,.33,.82,.49,0,.11,0,.23,0,.34-.14,.05-.29,.19-.43,.13-.14-.06-.28-.32-.42-.5,0-.15,.02-.31,.03-.46Z"/>
    <path class="cls-2" d="M33.33,85.55c.2-.3,.39-.6,.63-.96,.04,.08,.14,.27,.23,.44-.2,.62-.8,.89-.86,.52Z"/>
    <path class="cls-2" d="M33.56,7.67c-.2,.05-.34,.11-.49,.11-.05,0-.11-.09-.15-.21-.02-.05,0-.29,0-.44,.05,.03,.1,.11,.15,.09,.11-.03,.23-.02,.33-.19,.31-.52,.18,.3,.17,.64Z"/>
    <path class="cls-2" d="M.13,53.17c.2,.24,.39,.47,.63,.76-.08,.61-.14,1.08-.2,1.56-.09-1.05-.09-2.25-.5-1.83,.02-.17,.04-.33,.07-.5Z"/>
    <path class="cls-2" d="M87.64,85.36c-.34-.55-.54,1.25-.91,.69,.22-.48,.4-.92,.59-1.26,.12-.21,.25-.26,.32,.57Z"/>
    <path class="cls-2" d="M35.97,84.74c.22-.23,.44-.51,.67-.67,.09-.06,.26-.3,.26,.65-.31,.1-.62,.19-.92,.28,0-.09,0-.17,0-.26Z"/>
    <path class="cls-2" d="M65.99,9.69c.31,.06,.58,.12,.93,.19-.09,.25-.14,.51-.19,.51-.22,.02-.44-.02-.67-.08-.02,0-.04-.32-.07-.62Z"/>
    <path class="cls-2" d="M68.67,85.32c.19-.19,.37-.54,.56-.5,.13,.03,.19,.61,.11,.85h-.63c-.01-.12-.02-.23-.03-.35Z"/>
    <path class="cls-2" d="M6.17,19.01c0-.1,.01-.46,.02-.89,.07,.05,.13,.1,.19,.13,0,1.39-.28,1.55-.45,2.22-.02-.08-.04-.16-.06-.24,.08-.34,.17-.68,.3-1.22Z"/>
    <path class="cls-2" d="M70.66,6.95h.59c-.05,.54-.09,.91-.12,1.18-.14-.35-.28-.7-.47-1.18Z"/>
    <path class="cls-2" d="M64.51,8.55c-.19-.21-.31-.33-.46-.49,.04-.38,.06-.79,.12-.99,.03-.11,.15,.04,.2,.23,.06,.27,.08,.68,.15,1.25Z"/>
    <path class="cls-2" d="M71.2,10.86c-.16-.33-.29-.59-.46-.94,.19-.31,.32-.52,.48-.79,0,.56-.01,1-.02,1.73Z"/>
    <path class="cls-2" d="M62.89,7.46c.06-.59,.1-1.02,.13-1.37h.19c.02,.4,.03,.82,.05,1.24-.11,.04-.23,.09-.37,.13Z"/>
    <path class="cls-2" d="M94.25,7.46c-.06,.09-.15,.32-.17,.25-.1-.5-.18-1.06-.27-1.61,.02-.09,.05-.19,.07-.28,.13,.43,.25,.87,.38,1.3,0,.11-.01,.23-.02,.34Z"/>
    <path class="cls-2" d="M64.15,5.5c.12,0,.22-.07,.31,.03,.05,.06,.09,.39,.12,.64,0,.07-.08,.39-.12,.41-.17,.08-.3-.17-.3-1.08Z"/>
    <path class="cls-2" d="M12.43,6.23c.04-.83,.5-1.24,.79-.69-.27,.23-.53,.46-.79,.69Z"/>
    <path class="cls-2" d="M89.17,82.85c-.13,1.72-.25,2.09-.53,1.79,.18-.6,.35-1.2,.53-1.79Z"/>
    <path class="cls-2" d="M99.87,65.98c.07-.84,.12-1.52,.18-2.25,.18,1.05,.2,1.55-.18,2.25Z"/>
    <path class="cls-2" d="M72.9,84.96c.23-.08,.45-.16,.72-.25,0,.12,.02,.4,.03,.68-.27-.07-.51-.14-.75-.2,0-.08,0-.16,0-.23Z"/>
    <path class="cls-2" d="M102.21,60.9c-.2-.32-.11-1-.13-1.57,.09-.1,.17-.19,.24-.27-.03,.55-.07,1.11-.11,1.84Z"/>
    <path class="cls-2" d="M64.69,7.74c.08,.4,.17,.78,.25,1.2,.02,.09,0,.37-.02,.5-.02,.09-.09,.15-.09,.11-.08-.51-.15-1.04-.22-1.56,.03-.08,.06-.16,.09-.24Z"/>
    <path class="cls-2" d="M83.7,81.99c-.24,.12-.48,.24-.72,.36,0-.11,0-.21,0-.32,.24-.13,.48-.27,.72-.4,0,.12,0,.24,.01,.37Z"/>
    <path class="cls-2" d="M68.01,7.91c.19,.3,.36,.56,.53,.82-.14,.71-.3,.44-.53-.82Z"/>
    <path class="cls-2" d="M8.35,13.06c-.15,.2-.27,.37-.4,.55-.01-.09-.03-.18-.04-.27,.13-.35,.25-.71,.4-1.13,.01,.36,.02,.62,.03,.86Z"/>
    <path class="cls-2" d="M.02,29.4c.22-.39,.39-.67,.56-.97-.03,.8-.23,1.18-.56,.97Z"/>
    <path class="cls-2" d="M85.2,9.12c.03-.64,.05-1.29,.08-1.93l.1,.05-.05,1.96s-.09-.06-.13-.09Z"/>
    <path class="cls-2" d="M10.76,86.59c-.2-.23-.39-.46-.59-.68,0-.08,0-.17,.01-.25l.6,.58c0,.12-.02,.23-.03,.35Z"/>
    <path class="cls-2" d="M65.1,83.78c.08-.41,.12-.79,.16-.78,.11,.03,.22,.2,.34,.32,0,.11,0,.22-.01,.33-.13,.04-.26,.07-.48,.13Z"/>
    <path class="cls-2" d="M40.15,7.8c.15,.06,.3,.12,.45,.18,0,.09,0,.18,0,.27h-.45c0-.15,0-.3,0-.45Z"/>
    <path class="cls-2" d="M101.6,37.92c.01-.37,.03-.7,.04-1.03l.05-.04c.07,.48,.13,.96,.21,1.55-.12-.18-.2-.31-.31-.48Z"/>
    <path class="cls-2" d="M69.65,6.96h.6c0,.09,0,.18,0,.26h-.6c0-.09,0-.18,0-.26Z"/>
    <path class="cls-2" d="M10.78,14.36c.39-.82,.46-.8,.54,0h-.54Z"/>
    <path class="cls-2" d="M34.58,89.13c-.23-.25-.46-.5-.69-.75,0-.08,0-.16,.01-.24,.23,.2,.47,.4,.7,.61,0,.13-.02,.25-.03,.38Z"/>
    <path class="cls-2" d="M77.79,83.87c-.15-.09-.3-.17-.45-.26,0-.12,0-.25,.01-.37,.15,.07,.3,.15,.45,.22,0,.13,0,.27,0,.4Z"/>
    <path class="cls-2" d="M7.54,70.5c.08-.03,.16-.06,.26-.09v1.16c-.11-.35-.2-.6-.28-.86,0-.07,.01-.14,.02-.21Z"/>
    <path class="cls-2" d="M5.83,20.13c-.08-.28-.14-.45-.21-.71,.1-.25,.18-.45,.33-.82-.05,.66-.08,1.03-.12,1.53Z"/>
    <path class="cls-2" d="M66.14,9.06c-.08-.42-.15-.83-.23-1.25,.02-.08,.05-.16,.07-.24,.08,.39,.17,.77,.25,1.16-.03,.11-.07,.22-.1,.33Z"/>
    <path class="cls-2" d="M34.18,80.15h2.49c-.12,.64-.34,.95-.6,.91-.16-.02-.32-.1-.48-.07-.12,.03-.23,.2-.32,.29-.37-.33-.74-.65-1.1-.97,0-.05,0-.11,0-.16Z"/>
    <path class="cls-2" d="M32.71,78.65c.08-.15,.16-.31,.26-.49,.01,.2,.03,.36,.04,.53,.03,.76,.15,.68,.22,.26,.21-1.26,.46-.67,.71-.41,.16,.17,.31,.45,.45,.78-.58,.67-1.14,.53-1.69-.38,0-.1,0-.19,0-.29Z"/>
    <path class="cls-2" d="M50.44,82.68c.5-.99,1.12-1.12,1.39-.06-.16,.12-.32,.23-.48,.37-.19,.16-.38,.38-.57,.52-.16,.12-.3,0-.34-.83Z"/>
    <path class="cls-2" d="M25.04,80.44c.43-1.05,.84-.86,1.26-.56,0,.16,.01,.32,.02,.48-.15,.11-.29,.21-.44,.34-.17,.15-.34,.33-.51,.5-.15,.15-.25-.07-.33-.76Z"/>
    <path class="cls-2" d="M47.17,83.49c.1-.13,.21-.33,.31-.38,.28-.14,.57-.26,.85-.28,.1,0,.19,.34,.29,.52,0,.14-.01,.28-.02,.42-.14,.05-.28,.17-.42,.13-.24-.07-.46-.35-.69,.27-.06,.17-.21-.19-.31-.3,0-.13,0-.26,0-.39Z"/>
    <path class="cls-2" d="M42.61,9.08c-.22,1.1-1.14,1.07-1.3-.12,.44-.23,.86-.23,1.3,.12Z"/>
    <path class="cls-2" d="M4.72,35.29s-.08-.12-.17-.26c-.01-.2-.04-.6-.06-1.04,.06-.19,.12-.38,.17-.58,.2-.66,.29-.61,.47,.19,.1,.45,.1,.74-.05,.97-.12,.18-.23,.44-.37,.72Z"/>
    <path class="cls-2" d="M4.13,35.26c-.06,.06-.1,.15-.13,.13-.05-.02-.1-.12-.15-.18,.04-.14,.07-.34,.11-.39,.08-.12,.17-.16,.28-.25v.93s.04,.01,.06,.02c.01-.35,.02-.71,.04-1.06,.02-.03,.05-.06,.07-.08,.03,.57,.13,1.47,.09,1.64-.11,.39-.28,.44-.43,.62-.01-.08-.03-.15-.04-.23,.03-.33,.07-.67,.11-1.14Z"/>
    <path class="cls-2" d="M63.89,80.07c.01,.33,.03,.78,.05,1.41-.24-.53-.43-.95-.62-1.37,0-.05,0-.11,0-.16,.18,.04,.35,.08,.56,.13Z"/>
    <path class="cls-2" d="M75.05,79.28c-.14-.22-.32,.48-.35-.54,0-.21,.12-.68,.19-.69,.17-.03,.16,.55,.16,1.23Z"/>
    <path class="cls-2" d="M72.08,78.88c.1-.16,.18-.3,.28-.46,.04,.26,.09,.54,.14,.83-.16,.8-.32,.67-.41-.36Z"/>
    <path class="cls-2" d="M44.67,8.05c-.12,.03-.25,.1-.37,.07-.03,0-.08-.31-.08-.47,0-.15,.06-.43,.09-.42,.13,.09,.25,.26,.37,.41,0,.14-.01,.27-.02,.41Z"/>
    <path class="cls-2" d="M20.62,9.69c-.12,.04-.23,.12-.35,.1-.03,0-.07-.33-.07-.51,0-.13,.07-.38,.1-.36,.11,.09,.22,.26,.33,.41,0,.12,0,.24-.01,.36Z"/>
    <path class="cls-2" d="M73.34,78.65c.07-.15,.15-.3,.22-.45,.02,.04,.03,.07,.05,.11-.06,.42-.12,.83-.18,1.25-.05-.29-.11-.57-.16-.86,.03-.02,.05-.03,.08-.05Z"/>
    <path class="cls-2" d="M37.04,11.22c.16,.06,.31,.13,.47,.19v.43c-.17-.08-.33-.17-.48-.25,0-.12,0-.25,.01-.37Z"/>
  </g>
  <path class="cls-1" d="M78.22,29.02c-1.85,.82-3.83,1.37-5.91,1.62,2.12-1.27,3.76-3.29,4.52-5.69-1.98,1.18-4.19,2.03-6.53,2.49-1.88-2-4.55-3.25-7.5-3.25-5.68,0-10.29,4.6-10.29,10.28,0,.8,.09,1.59,.27,2.34-8.55-.43-16.12-4.52-21.2-10.75-.89,1.52-1.39,3.29-1.39,5.17,0,3.57,1.81,6.71,4.57,8.56-1.69-.05-3.27-.52-4.66-1.29v.13c0,4.98,3.55,9.14,8.25,10.09-.86,.23-1.77,.36-2.71,.36-.66,0-1.31-.06-1.94-.19,1.31,4.08,5.11,7.06,9.61,7.14-3.52,2.76-7.95,4.4-12.77,4.4-.83,0-1.65-.05-2.45-.14,4.55,2.92,9.95,4.62,15.76,4.62,18.91,0,29.26-15.67,29.26-29.25,0-.45-.01-.89-.03-1.33,2.01-1.45,3.75-3.26,5.13-5.32Z"/>
</svg>