<?xml version="1.0" encoding="UTF-8"?>
<svg id="Layer_1" data-name="Layer 1" xmlns="http://www.w3.org/2000/svg" viewBox="0 0 218.01 83.87">
  <defs>
    <style>
      .cls-1 {
        fill: #F80123;
      }

      .cls-2 {
        fill: #fff;
        fill-rule: evenodd;
      }
    </style>
  </defs>
  <g>
    <path class="cls-1" d="M22.92,43.58c.4,.07,.81-.01,1.22-.08,.1-.02,.18-.24,.17-.22,.87,.32,1.68,.61,2.63,.96-.15-.37-.2-.5-.32-.77,.42,.03,.77,.06,1.19,.1-.47-.82-1.01-.88-1.53-.88-1.35,.01-2.7,.11-4.04,.15-.45,.02-.91-.05-1.36-.02-.23,.01-.45,.13-.68,.2-.37-.06-.75-.16-1.12-.18-.72-.04-1.45,.05-2.17-.08-.91-.17-1.86,.1-2.73-.73-.18-.17-.47,.03-.7,.06-.71,.09-1.38,.7-2.13,.47-.36-.11-.75,.17-1.19,.28-.08-.03-.24-.12-.4-.12-.13,0-.26,.15-.4,.14-1.05-.03-2.1-.11-3.14-.1-.54,0-1.08,.28-1.61,.23-1.08-.11-2.16-.37-3.24-.57,0-.08,0-.16,.01-.24,.38-.1,.77-.2,1.15-.3,0-.06,0-.11,0-.17-.11-.06-.21-.13-.32-.19,.38-.1,.74,.02,1.1,.06,.64,.06,1.28,.12,1.92,.09,.36-.02,.72-.25,1.09-.33,.56-.11,1.17-.43,1.68-.17,.39,.2,.73,.26,1.1,.18,.31-.06,.61-.27,1.02-.46-1.55-.23-2.99-.44-4.44-.65,0-.13,0-.26,0-.38h3.39c0-.07,0-.14,0-.21-.08-.1-.16-.19-.38-.45,.46,0,.76,0,1.05,0,.86,.01,1.73,.1,2.59,.03,.84-.07,1.67-.33,2.51-.43,.46-.05,.93,.15,1.39,.08,.9-.14,1.79-.39,2.69-.59,0-.04,0-.09,.01-.13-1.34-.07-2.68-.14-4.03-.21,0-.1,0-.2,0-.3,.85-.15,1.71-.31,2.56-.46,0-.06,0-.12,0-.18-1.71,.13-3.42,.26-5.14,.39,0,.1-.01,.2-.02,.3,.34,.13,.68,.25,.94,.35-.31,.14-.7,.32-1.16,.53,.14-.76,.05-1.15-.32-1.11-.34,.04-.68,.23-1.03,.26-.89,.09-1.78,.13-2.67,.19-.13,0-.26,.03-.39,.05,0,.05,0,.1,.01,.14,.18,.06,.35,.13,.53,.19-2.38,.04-4.74,0-7.07-.61,0-.1,0-.2,0-.3,.83-.1,1.67-.21,2.5-.31-.08-.24-.17-.27-.27-.3-.26-.08-.53-.17-.79-.26,0,0-.01,.02-.01,.02,.68-.11,1.36-.26,2.04-.32,.31-.02,.63,.21,.95,.22,.5,.02,1.01-.06,1.51-.07,.9-.01,1.81,0,2.71,0,0-.1,0-.2,0-.29h-1.22c0-.05,0-.1,0-.15,.62-.14,1.25-.28,1.92-.42-.16-.14-.29-.24-.44-.37,.13-.11,.22-.19,.38-.33-.58-.06-1.1-.28-1.58-.12-.6,.19-1.13,.1-1.66-.35,3.28-.47,6.55-.93,9.82-1.4,0-.15-.01-.3-.02-.46-1.29,.12-2.59,.24-3.88,.35,0-.04,0-.08,0-.12,.35-.15,.69-.29,1.09-.46,1.16-.23,2.39-.48,3.61-.72-1.33-.84-2.66-.04-4.01-.13,.44-.46,.89-.84,1.35-.94,.45-.1,.92,.1,1.38,.17,0-.06,0-.12,0-.18-.86-.27-1.71-.53-2.57-.8,0-.11,.02-.22,.02-.34,.16,.02,.33,.05,.49,.07,.11,.01,.25,.11,.34,.02,.38-.4,.5-.41,.76-.02,.46,.69,.99,.72,1.53,.65,.02-.13,.03-.26,.05-.39-.44-.19-.89-.38-1.46-.62,1.51-.65,2.93-.43,4.37-.18-.15,.08-.3,.17-.45,.25,0,.05,.01,.1,.02,.16,.73-.21,1.46-.42,2.2-.64,0,.01-.04-.09-.09-.22,.13-.09,.26-.18,.41-.27-.79-.16-1.54-.32-2.3-.48,0-.11,.02-.23,.02-.34,.41,.18,.82,.37,1.24,.55,.01-.07,.02-.15,.04-.22-.08-.11-.17-.23-.34-.47h.37c.91,.27,1.81,.55,2.72,.82,0-.11,.02-.22,.03-.33-.85-1.1-1.79-.96-2.75-.48-.24-.23-.48-.46-.81-.78h2.31c0-.07,0-.13,0-.2-.38-.29-.76-.57-1.14-.86,.01-.05,.02-.1,.03-.16l2.17-.39c0-.09,0-.19-.01-.28-4.5,.03-9.01-.04-13.5,1.02,.45-.27,.91-.36,1.37-.47,.34-.08,.81,.05,.99-.3,.26-.49,.51-.42,.78-.47,.33-.07,.66-.05,.99-.06,.54-.03,1.09-.04,1.63-.09,.95-.09,1.91-.19,2.86-.33,.83-.12,1.67,.49,2.51-.22,.36-.3,.84-.17,1.27-.21,.7-.06,1.4-.1,2.1-.13,.48-.02,.95,0,1.43,0v.17c-.17,.15-.36,.29-.55,.44,.01,.08,.03,.17,.04,.25,.25-.14,.65-.16,.73-.46,.15-.52,.36-.44,.56-.47,.49-.08,.99-.08,1.49-.17,.26-.05,.52-.35,.76-.31,.59,.1,.59,.15,1.07-.4-.17,.02-.3,.04-.44,.05-.94,.04-1.87,.1-2.81,.11-1.11,.01-2.23-.04-3.34-.01-.69,.02-1.37,.14-2.05,.23-.69,.1-1.4,.09-2.06,.38-.38,.16-.78,0-1.18,.46-.36,.4-.97,.09-1.46,.09-.1,0-.2-.03-.3-.04,0-.09,0-.19,0-.28,2.47-.51,4.94-1.03,7.4-1.54,0-.06,0-.12,0-.19-.39,.06-.78,.11-1.16,.17,1.46-.72,2.43-.7,2.52-.01,.15,0,.31,0,.46,0,.03,0,.05-.07,.11-.16-.1-.08-.19-.15-.27-.21,0,.06,.02,.11,.03,.17,1.81-.44,3.61-.88,5.49-1.33-.54-1.11-1.15-.34-1.66-.67,.16-.07,.31-.15,.47-.22,0-.03,0-.06,0-.08h-2.47c.39-.22,.77-.31,1.15-.37,.71-.11,1.43-.26,2.15-.3,1.33-.07,2.66,0,3.98-.13,1.36-.14,2.71-.43,4.07-.71,.55-.11,1.09-.37,1.64-.55,0-.03,0-.06-.01-.09h-6.28c0-.07,0-.15,0-.22,1.01-.09,2.01-.19,3.02-.28,0-.05,0-.1,0-.15h-1.6c0-.09,0-.18-.01-.27,.41-.07,.83-.13,1.37-.22-.2-.18-.33-.36-.48-.41-.88-.3-1.71,.53-2.64,.17-.78-.31-1.66,.12-2.49,.18-.24,.02-.47-.13-.71-.2,0-.05,.01-.11,.02-.16,.4-.06,.79-.11,1.19-.17-.07-.16-.14-.19-.21-.18-.97,.12-1.93,.33-2.9,.34-1.49,.02-2.98-.1-4.47-.18-.2-.01-.39-.18-.71-.33,1.1-1.4,2.16-.45,3.16-.56,1.04-.11,2.09-.14,3.13-.21,0-.08,0-.17,.01-.25-.29-.09-.58-.24-.87-.25-.73-.02-1.45,.03-2.18,.03-.74,0-1.49-.02-2.23-.07-.36-.02-.73-.13-1.09-.2v.02c.11-.04,.23-.08,.47-.15-.28-.22-.43-.33-.56-.43,.12-.16,.25-.33,.45-.6-.25-.02-.4-.02-.55-.05-.13-.03-.25-.1-.38-.15,0-.1,.02-.2,.03-.3,1.26,.11,2.52,.14,3.78,.35,.49,.09,.71,0,.62-.96,.89-.07,1.74-.05,2.58-.24,.48-.11,.91-.22,1.37,.18,.13,.12,.33-.02,.5-.03,0-.13,.01-.25,.02-.38-.74-.25-1.48-.5-2.22-.75,0-.04,.01-.07,.02-.11,1.47-.1,2.94-.2,4.42-.29,0-.12,.01-.23,.02-.35l-.97-.4s0-.09,0-.13h2.94c-.08-.23-.13-.39-.2-.61,1.25-.19,2.47,.51,3.68-.19-.08-.16-.12-.26-.23-.49h2.49c0-.07,0-.14,.01-.2-.67-.13-1.33-.27-2-.4,0-.08,0-.16,0-.24,.26-.06,.52-.17,.78-.18,.59-.03,1.26,.3,1.76-.08,.6-.46,1.14-.36,1.72-.29,.42,.05,.84,.04,1.26,.02,.93-.03,1.86-.08,2.78-.11,.3-.01,.61,.06,.91,.02,.58-.06,1.15-.19,1.73-.26,1.01-.12,2.01-.2,3.02-.31,.45-.05,.9-.16,1.35-.18,1.29-.05,2.58,.01,3.86-.1,1.03-.09,2.06-.38,3.1-.58,1.05-.21,2.09-.5,3.14-.64,1.03-.13,2.07-.13,3.11-.16,.47-.02,.95,.1,1.41,.02,1.12-.19,2.22-.49,3.34-.67,1.05-.17,2.11-.21,3.16-.36,1.09-.15,2.17-.44,3.26-.54,1.34-.13,2.67-.15,4.01-.21,.7-.03,1.4,.03,2.09-.04,1.5-.16,2.99-.56,4.5-.33,1.59,.24,3.18,.24,4.77,.38,1.7,.15,3.41,.36,5.11,.5,1.44,.12,2.88,.17,4.32,.26,.92,.06,1.83,.11,2.75,.22,1.73,.2,3.47,.43,5.2,.65,.39,.05,.79,.12,1.18,.16,.82,.07,1.64,.22,2.46,.16,1.12-.08,2.24-.37,3.37-.48,1.74-.16,3.47-.23,5.16-.34V1.59c.73,0,1.37,0,2.02,0,1.08-.02,2.16,.01,3.23-.09,1.01-.09,2.01-.4,3.01-.48,1.04-.09,2.08,0,3.12-.02,.53,0,1.06,0,1.58-.15,.64-.2,1.27-.56,1.9-.85,.01,.06,.02,.13,.03,.19-.2,.4-.4,.8-.64,1.28,.15,.03,.2,.05,.25,.06,.55,.02,1.19-.42,1.54,.83,.02,.07,.12,.09,.19,.1,.58,.01,1.15,.02,1.68-.72-.52-.3-1.02-.58-1.62-.92,1.04-.47,1.99-.97,3.14-.52-.53,.74-.97,1.35-1.34,1.86,.29,0,.69-.02,1.09,0,1.14,.08,2.29,.18,3.43,.27,.29,.02,.57,.06,.86,.07,.81,.02,1.61,.36,2.45-.13,.49-.29,1.08-.09,1.62-.09,.06,0,.17,.1,.17,.16,0,.86,.36,.5,.58,.53,.41,.05,.81,.08,1.22,.11,.32,.02,.66,.14,.97,.04,1.57-.51,3.13-.21,4.7,0,.53,.07,1.07,.1,1.59-.06,.63-.19,1.23-.59,1.98-.96-.2,.54-.32,.83-.46,1.21h.85c-.04-.15-.07-.28-.13-.5,.27,.03,.49,.08,.71,.06,.45-.03,.98,.14,1.35-.22,.64-.62,1.25-.38,1.88-.27,.52,.09,1.03,.41,1.54,.38,.88-.06,1.76-.38,2.65-.45,1.11-.09,2.22-.03,3.33-.04,.48,0,.97,.12,1.44-.04,.66-.21,1.29-.63,1.94-.96l.06,.21c-.19,.38-.38,.76-.57,1.15,.02,.08,.04,.16,.06,.23,.66-.18,1.35-.17,1.95-.6,.32-.23,.68-.17,.92-.46,.67-.81,1.34-.29,2.13-.4-.17,.35-.23,.49-.34,.72,.22,.02,.37,.06,.52,.05,1.31-.14,2.62-.32,3.93-.41,1.07-.07,2.15-.01,3.23-.03,.53,0,1.07,.05,1.58-.1,.63-.19,1.24-.57,1.86-.87,.01,.06,.02,.13,.04,.19-.19,.38-.37,.77-.6,1.23,.67,.22,1.35-.38,1.81,.74,.03,.08,.17,.05,.25,.04,.54-.11,1.08-.22,1.62-.34l-.02-.03c.41,.1,.82,.29,1.23,.28,.49,0,.98-.2,1.47-.27,.69-.09,1.38-.17,2.07-.21,.76-.03,1.52,.01,2.28-.01,.56-.02,1.12-.02,1.67-.18,.63-.19,1.25-.56,1.87-.85,.06,.15,.12,.3,.18,.46-.29,.29-.58,.57-.87,.86l.14,.31c.25-.05,.5-.14,.75-.13,.46,.01,.94,.66,1.38-.15,.01-.02,.2,.18,.25,.33,.06,.19,.07,.44,.1,.65-.36-.53-.41-.51-.73,.24q.84,.55,1.26,.1v-.02c.04,.69,.13,1.31,.56,1.6,.12,.08,.2,.41,.28,.65,.07,.2,.12,.61,.18,.61,.48,.02,.53,.77,.67,1.18,.33-.17,.61-.31,.89-.45,.02,.07,.04,.14,.06,.2-.14,.21-.29,.41-.45,.65,.85,.15,1.13,.82,.76,2-.19,.61-.26,1.15-.14,1.72,.16,.78,.39,1.51,.58,2.2h1.23c0,.08,.02,.15,.03,.23-.13,.11-.26,.24-.39,.34-.55,.39-.62,.73-.34,1.65,.13,.43,.23,.91,.4,1.29,.12,.26,.32,.48,.51,.55,.28,.11,.58,.08,.87,.11v.17c-.32,.2-.62,.41-.93,.61-.03,.1-.05,.21-.08,.31,.11,.09,.21,.22,.32,.28,.39,.22,.49,.7,.47,1.38-.01,.31,.04,.82,.15,.91,.46,.4,.42,1.2,.56,1.86,.1,.48,.27,.91,.39,1.3-.03,0-.19,.05-.43,.1,.15,.31,.25,.52,.34,.7-.08,1.19-.69,2.14-.38,3.46,.05,.21,0,.59-.09,.78-.42,.93-.08,1.65,.22,2.29,.2,.41,.17,.62,.03,1.01-.27,.77-.53,1.56-.72,2.39-.07,.29,.07,.72,.11,1.09,.05,.02,.11,.04,.16,.06-.25,.27-.49,.54-.76,.84,.44,.66,1.18,.52,1.28,1.56-.37,.48-.75,.8-.96,1.35-.09,.23,.21,.92,.32,1.36-.12,.25-.26,.53-.41,.84,.25,.29,.44,.51,.66,.77-.19,.28-.32,.48-.47,.7,.16,.12,.3,.22,.57,.42-.44,.43-.77,.75-1.11,1.09,.14,.28,.45,.66,.43,.93-.18,1.74,.33,2.73,1.12,3.53-.31,.6-.7,1.18-.38,2-.21,.33-.42,.64-.64,.99,.1,.16,.18,.23,.2,.33,.32,1.64,.4,3.33,.29,5.05-.01,.22-.17,.42-.26,.63-.16,.37-.38,.7-.45,1.12-.16,.91-.24,1.87-.37,2.99,.28,.47,.62,1.06,1.04,1.77-.32,0-.51-.06-.69,.01-.59,.24-1.4,.2-1.72,.88-.51,1.08-.97,.94-1.56,.74-.18-.06-.37,0-.55,0,.34,.26,.69,.38,1.04,.42,.66,.08,.68,.11,.54,1.23,.15,.04,.3,.09,.45,.13,.17,.05,.33,.12,.5,.13,.71,.05,.74,.1,.58,1.32-.03,.21-.09,.41-.2,.88,.4-.42,.82-.42,.74-1.38-.01-.13,.07-.4,.11-.41,.09-.02,.18,.11,.27,.19,.21,.17,.4,.39,.61,.52,.18,.12,.38,.15,.74,.27-.41,.67-.7,1.17-1.08,1.8,.2,.08,.43,.29,.52,.17,.19-.25,.32-.66,.46-1.03,.05-.14,.06-.35,.09-.52,.08,.1,.16,.23,.25,.31,.19,.17,.38,.35,.58,.47,.18,.1,.38,.12,.68,.21-.63,1.29-1.42,2.06-1.76,3.53-.04,.17-.33,.31-.45,.23-.11-.07-.19-.45-.23-.72-.04-.27-.03-.57-.04-.92-.96,.26-1.85,.5-2.74,.75-.89,.24-1.78,.51-2.68,.73-.87,.21-1.74,.4-2.62,.55-.88,.16-1.76,.26-2.64,.39,0-.1,0-.2-.01-.29,1.26-.21,2.52-.33,3.77-.66,1.18-.31,2.34-.84,3.5-1.28,0-.08,0-.17,0-.25-.26-.08-.52-.27-.78-.24-1.55,.21-3.09,.5-4.63,.7-1.94,.26-3.87,.49-5.81,.68-1.16,.12-2.32,.12-3.48,.21-.17,.01-.33,.17-.61,.33,.28,.18,.43,.28,.69,.44h-2.67c.69-.67,1.57,.27,2.12-1.02-.73-.12-1.49-.25-2.16-.36-.14,.27-.22,.58-.35,.66-.85,.51-1.65,.91-2.62,.57-1.29-.46-2.66-.43-3.99-.34-1.43,.09-2.86,.48-4.29,.76-.43,.08-.85,.28-1.28,.32-.27,.02-.54-.24-.82-.25-.76-.03-1.53,.04-2.29,.02-.53-.02-1.1-.4-1.57-.13-.6,.33-1.08-.34-1.63-.1,.03-.13,.07-.24,.1-.24,.73-.03,1.47-.06,2.2-.06,.23,0,.47,.17,.69,.15,.76-.08,1.52-.26,2.28-.3,1.65-.09,3.3-.09,4.94-.2,.45-.03,.9-.32,1.35-.5,0-.11-.02-.22-.02-.32-.54-.08-1.09-.28-1.62-.19-.52,.08-1.03-.86-1.55-.05-.04,.06-.16-.03-.24-.06-.34-.12-.68-.23-1.03-.36-.03,0-.04-.08-.07-.12,.07-.08,.14-.15,.2-.22,0-.06-.01-.12-.02-.18-.3,.03-.6,.05-.97,.09,.3,.33,.48,.54,.67,.76-.01,.1-.03,.19-.04,.29-.93,.14-1.87,.16-2.79,.44-.89,.28-1.69-.69-2.58-.41,.22-.12,.44-.25,.65-.37,0-.04-.01-.09-.02-.13-.76,.16-1.51,.33-2.27,.49,0,.07,0,.14,.01,.21,.18,.06,.36,.11,.54,.17,0,.09-.02,.18-.02,.27-.98-.15-1.95-.32-2.93-.42-.31-.03-.63,.09-.93,.21-.55,.22-1.09,.63-1.64,.7-.68,.09-1.37-.15-2.05-.15-1.37,0-2.75,.05-4.12,.11-.75,.04-1.5,.15-2.25,.23,0-.08-.02-.15-.02-.23,.35-.12,.71-.31,1.07-.35,1.01-.12,2.04-.02,3.02-.36,.38-.13,.75-.1,1.12-.22,.09-.03,.19-.05,.28-.08-2.54-.39-5.02,.47-7.52,.99h1.72c-1.14,.82-2.36,.36-3.48,1.09-.01-.09-.02-.18-.03-.27,.1-.08,.21-.17,.41-.34h-1.89c-.15-.27-.24-.57-.32-.56-.56,.05-1.13,.17-1.64,.26-.74-1-1.51,.42-2.33-.08,.26-.1,.42-.17,.58-.23,0-.06,0-.12-.01-.17h-1.17c0-.08,0-.15,0-.23,.32-.06,.65-.11,.93-.16,.01-.14,.03-.27,.05-.5-.6,.28-1.26-.25-1.98,.4,.32,.18,.49,.27,.67,.37,0,.08-.02,.16-.03,.24-.19-.03-.38-.06-.56-.09-.24-.04-.47-.15-.71-.12-.32,.05-.63,.33-.94,.29-.91-.11-1.79-.7-2.72-.31-.13,.06-.24,.31-.36,.47,.12,.16,.25,.46,.37,.45,1.02-.05,2.04-.16,3.05-.22,.37-.02,.74,.03,1.1,.1,.06,.01,.11,.27,.21,.52-.83-.32-2.7-.08-3.89,.66-.06-.15-.12-.3-.19-.46,.1-.04,.22-.08,.32-.11-.02-.4-.8-.14-1.33,.41,0,0,.02,.03,.02,.03,.02-.3,.05-.59,.08-1.05-.58,.36-1.18-.7-1.81,.07-.05,.06-.16-.04-.25-.04-.56,0-1.12,0-1.7,0,.07,.16,.12,.29,.2,.47-1.01-.13-3.36,1.33-3.53,1.95h-1.8c0-.08,0-.17,0-.25,.54-.19,1.07-.38,1.67-.59-.03-.97-.62-.22-.9-.89,.29-.23,.55-.44,.81-.66,0-.07-.04-.28-.05-.42-.56-.09-1.1-.23-1.64-.23-.52,0-1.08-.31-1.48,.15-.35-.07-.65-.13-.94-.19-.01,.08-.03,.17-.04,.25,.08,.19,.17,.38,.21,.48-.66,.29-1.29,.64-1.95,.84-.47,.14-.98,.34-1.48-.44,.3,0,.53,.09,.72-.02,.47-.26,.92-.61,1.38-.93,.12,.2,.24,.57,.37,.57,.2,.01,.4-.22,.6-.55-.33,0-.65,0-.98,0-.16-.09-.32-.22-.48-.26-.21-.05-.45,.05-.65-.05-.25-.12-.37-.13-.64,.16-.48,.52-1.1,.9-1.66,.06v.03c-.22-.02-.45-.08-.67-.04-.58,.11-1.15,.38-1.72,.39-.66,0-1.31-.22-1.97-.34-.04,.7-.08,1.27-.11,1.83h-1.42v-.11c.34-.1,.68-.21,1.03-.32-.39-.26-.77-.52-1.21-.81,.13-.09,.21-.15,.33-.23h-2.11c.01,.27,.02,.46,.04,.88-.19-.39-.3-.6-.41-.84,.25-.12,.49-.23,.74-.35,0-.08-.01-.16-.02-.25h-4.57c0-.12-.02-.24-.02-.36,.38-.03,.76-.02,1.13-.12,.42-.11,.84-.33,1.25-.51,0,.07,.02,.13,.03,.2-.06,.07-.11,.13-.22,.27,.89,0,1.71,.02,2.53,0,.37-.01,.74-.12,1.11-.18,.42,.9,.91,.59,1.4,.18-.47-.05-.94-.11-1.41-.16,.18-.11,.36-.22,.61-.37-.19-.33-.34-.72-.54-.89-.2-.17-.47-.12-.7-.18-.39-.1-.79-.18-1.18-.31-.84-.28-1.64,0-2.45,.32,1.36,.08,2.64,1.68,4.06,.52-.1,.28-.2,.5-.31,.52-.76,.14-1.52,.24-2.28,.35-.1,.01-.27,.05-.3-.03-.23-.76-.63-.41-.96-.48-.53-.11-1.06-.16-1.58-.23-.11,.92-.59,.99-.92,1.19,.04,.26,.07,.49,.11,.82-.15-.23-.24-.46-.35-.5-.42-.16-.84-.32-1.26-.37-.78-.1-1.57-.2-2.35-.18-1.09,.02-2.18,.15-3.27,.24v.02c.09-.23,.17-.45,.26-.71-.42,.08-.83,.15-1.23,.22,.99-.95,2.04,.12,3.04-.34-1.68-.87-3.39,.19-5.07-.36,.55-.09,1.1-.18,1.65-.28-.43-.28-.88-.26-1.31-.43-.97-.38-.97-.41-1.17-.99,.24,.16,.44,.29,.62,.41,.1-.28,.19-.52,.37-.99-1.51-.44-2.95-.48-4.52-.46,.77,1.18,1.76,.74,2.45,1.64-.66-.14-1.31-.4-1.96-.61-.39-.13-.79-.22-1.19-.26-.36-.04-.73,.05-1.09,.02-.41-.04-.82-.16-1.23-.25-.65-.14-1.32-.14-1.84-1.09,.41,.18,.82,.35,1.21,.52,.06-.45,.1-.77,.17-1.28-.18,.07-.37,.15-.56,.22,.04,.13,.07,.26,.11,.38-.64-.69-1.29-.76-1.97-.46-.06,.03-.16,0-.19-.07-.38-.79-.84-.34-1.28-.27-.42,.07-.84,.09-1.26,.09-.4,0-.94-.33-1.17,.01-.29,.42-.49,.28-.75,.29-.24,0-.48,.03-.72,.03-.26,0-.52,0-.77,0-.6,0-1.19,0-1.79,0-.01,.09-.02,.18-.04,.27,.19,.12,.37,.35,.56,.36,1.02,.05,2.05,0,3.07,.08,.31,.02,.61,.38,.92,.52,.22,.1,.57,.28,.65,.11,.37-.84,.74-.26,1.12-.06-.13,.07-.26,.14-.39,.2,0,.07,0,.13,0,.2h1.84c0-.05,0-.11,.01-.16-.25-.06-.5-.13-.88-.23,.25-.16,.37-.24,.58-.38-.73-.27-1.35-.49-1.96-.72,.01-.11,.02-.21,.04-.32,.71,.27,1.42,.6,2.13,.8,.39,.11,.5,.3,.24,.95,.33,.03,.61,.06,.88,.09,0,.07,0,.14,0,.21-.9,.22-1.79,.43-2.82,.68,.72,.46,1.34,.85,1.97,1.25-1.01,.22-2.03,.44-3.04,.67,0-.06-.02-.11-.02-.17,.3-.14,.6-.28,.9-.42h-2.95s0-.06,0-.09l2.75-.56c0-.13,0-.26,0-.4-.89-.17-1.77-.34-2.66-.51,.03-.1,.06-.19,.09-.29-.1-.21-.18-.55-.31-.61-.26-.14-.54-.13-.81-.19,0,.1-.01,.21-.02,.32,.26,.15,.51,.31,.91,.54-1.46,.04-2.78-.48-4.24-.06,.52,.42,.9,.72,1.34,1.08h-2.16c.15-.07,.3-.05,.45-.12,.06-.03,.14-.21,.14-.32,0-.11-.08-.31-.14-.32-.28-.06-.57-.08-.86-.12,0,.05,0,.1,0,.15,.16,.09,.32,.17,.48,.26,0,.09-.02,.17-.03,.26-1.08-.49-2.16-.61-3.23,.07,0-.08-.01-.16-.02-.24,.15-.12,.29-.24,.43-.35-.36-.2-.73-.4-1.09-.6,0-.08,.02-.16,.03-.24,.33-.06,.69,.03,.97-.2,.46-.38,.89-.38,1.38-.22,.17,.06,.39-.32,.59-.5,.22-.12,.44-.24,.65-.37,0,.1-.01,.21-.02,.31,.14,.12,.28,.29,.42,.35,.3,.13,.6,.27,.91,.3,.48,.05,.97,.01,1.47-.2-.12-.07-.25-.18-.37-.21-.68-.16-1.35-.29-2.03-.46-.25-.06-.49-.25-.74-.26-.1,0-.2,.34-.29,.53-.19-.05-.38-.1-.56-.15,0-.05,0-.1,.01-.15h.37c-.59-.48-1.22-.26-1.84-.47-.91-.31-1.89,.13-2.84-.44-.33-.2-.77,.26-1.16,.28-.85,.04-1.69-.16-2.54,.16-.54,.2-1.15-.21-1.66,.61,.15,.19,.26,.34,.41,.52-.13,.13-.24,.23-.5,.47,.31,.16,.48,.22,.63,.34,.13,.1,.25,.27,.37,.41-.02,.07-.04,.15-.07,.22-.12-.11-.23-.31-.35-.32-1.16-.12-2.33-.21-3.49-.28-.09,0-.17,.16-.29,.28,.45,.35,.83,.65,1.21,.95-.02,.08-.03,.15-.05,.23-.8-.37-1.6-.75-2.4-1.12,0,.06-.01,.11-.02,.17,.19,.18,.38,.37,.57,.55-1.32-.78-2.79-.01-4.06-1.12,0-.1,.02-.19,.03-.29,.36,.13,.71,.26,1.1,.41-.04-.29-.06-.46-.1-.77,.43-.04,.83-.08,1.37-.12-.18,.39-.25,.54-.32,.7,.4,.23,.77,.43,1.15,.64,.01-.06,.03-.12,.04-.18-.11-.13-.22-.27-.31-.38,1.05-.6,2.17-.1,3.21-.7,0-.1-.02-.2-.02-.29-.25,.06-.5,.12-.75,.18-.11-.33-.24-.6-.38-.6-.34,0-.69,.11-1.06,.18,.13,.16,.24,.31,.38,.48-.27,0-.48,0-.7,0-.21,0-.43,0-.64-.06-.12-.04-.22-.33-.33-.33-.48,0-.96,.04-1.43,.14-.52,.1-1.03,.48-1.66-.24h1.32c0-.14,0-.27,0-.41-1.53-.14-3.06-.29-4.59-.43-.01,.15-.02,.3-.04,.44,1.18,.57,2.37,1.14,3.58,1.72-.97,.22-1.91,.43-2.86,.64,.11,.16,.21,.31,.38,.56-1.28-.26-2.46-.5-3.76-.77,.51-.67-.04-.64-.09-1.01h2.94c0-.12,.02-.24,.03-.37-.68-.4-1.37-.8-2.05-1.2-.02,.1-.04,.19-.05,.29,.35,.19,.71,.39,1.06,.58-.78,.07-1.53-.03-2.27-.15-.58-.09-1.16-.22-1.74-.31-.63-.1-1.26-.21-1.89-.22-.16,0-.33,.35-.41,.44-.53-.04-1.02-.07-1.51-.11-.05,0-.09-.05-.14-.06-.23-.06-.47-.08-.7-.17-.32-.12-.65-.26-.96-.45-.42-.25-.66-1.37-1.22-.89,.03-.29,.05-.61,.08-.94-.18,0-.47-.13-.53,.02-.41,1.04-1.17,.18-1.61,.98-.77-.33-1.53-.68-2.31-.98-.28-.11-.58-.13-.86-.07-.44,.09-.88,.47-1.31,.39-1.04-.2-2.07-.6-3.1-.89-.87-.24-1.75-.45-2.62-.64-.55-.12-1.1-.16-1.68-.24,.08-.23,.13-.39,.15-.45-.57,0-1.13,.02-1.7,0-.79-.04-1.58-.09-2.36-.19-.51-.07-1.01-.25-1.51-.34-.11-.02-.22,.09-.33,.15-.21,.12-.43,.37-.63,.35-.85-.09-1.7-.35-2.56-.37-1.67-.05-3.33,.04-5,.03-.61,0-1.23-.15-1.84-.24,0-.07,0-.15,.01-.22h7.45c0-.08,0-.17,0-.25-.65-.12-1.3-.26-1.95-.36-.45-.07-.9-.08-1.35-.14-1.25-.17-2.5-.36-3.68-.52-.03,.04,.05-.07,.17-.24-.23-.18-.4-.31-.57-.45,0-.04,.01-.07,.02-.11,.22,.03,.45,.06,.8,.11-.27-.22-.42-.34-.57-.46,0-.1,0-.19,0-.29,1.53-.12,3.07-.24,4.6-.37l-.02-.16c-.96-.31-1.92-.62-2.88-.93,0-.09,0-.18,0-.26h2.87s.06,.07,.09,.1c-.13,.07-.26,.15-.42,.24,.89,1,1.15,1.16,1.28,.82-.07-.08-.15-.17-.22-.25,0-.06,.01-.11,.02-.17l1.29,.26c0-.08,.02-.17,.03-.25-.19-.13-.38-.26-.6-.41h1.21c-.59-.24-1.22-.06-1.81-.89,.3-.13,.51-.22,.86-.36-.28-.12-.42-.26-.55-.22-.53,.16-1.05,.55-1.57,.54-1.17-.03-2.34-.28-3.51-.38-1.28-.1-2.57,.02-3.85-.49-.89-.35-1.84-.23-2.76-.28-1.08-.06-2.15-.09-3.23-.13,1.07-.55,2.12-1.13,3.2-1.35,1.17-.23,2.35-.17,3.53-.16,.87,0,1.74,.24,2.61,.19,.86-.04,1.71-.31,2.57-.47,0-.06,0-.12,0-.18h-7.05s0-.09,0-.14c.5-.07,.99-.14,1.49-.2,0-.05,0-.09,0-.14-.27-.03-.55-.06-.82-.09,0-.09,.01-.18,.02-.27,.26,.02,.51,.03,.77,.06,.36,.04,.72,.13,1.08,.12,.25-.01,.49-.21,.75-.26,.34-.06,.7,.06,1.01-.12,.32-.18,.57-.73,.88-.95,.39-.26,.81-.35,1.22-.51,.01,.11,.02,.22,.03,.33-.18,.05-.37,.1-.56,.15,.46,.09,.91,.23,1.36,.26,.58,.04,1.23,.26,1.74-.09,.73-.51,1.44-.32,2.15-.42,.39-.06,.78,0,1.17,0,0-.09,0-.18,0-.28-.77-.33-1.61,.5-2.35-.54h1.81c-.24-.42-.48-.7-.74-.81-.29-.12-.61-.08-.91-.08-.23,0-.47,.04-.7,.06,0-.09,0-.18,0-.27,.41-.11,.82-.22,1.36-.37-1.27-.34-2.36-.63-3.46-.92,0-.05,0-.11,0-.16,.16,.02,.32,.03,.49,.05,0-.09,0-.17,0-.26,.46,.09,.91,.18,1.37,.27,0-.06,0-.13,.01-.19-.43-.16-.85-.32-1.29-.48,.03-.13,.08-.3,.14-.54-.26-.08-.47-.18-.69-.19-.23-.02-.47,.04-.71,.05-.15,0-.3,0-.44,0,0-.12,.01-.24,.02-.36h2.02s0-.09,0-.14c-.49-.18-.97-.37-1.46-.55,0-.09,0-.19,0-.28,1.94-.07,3.89-.14,5.84-.2-.16-.33-.33-.58-.51-.6-.76-.09-1.52-.09-2.27-.19-.57-.08-1.14-.26-1.84-.43,.2,.41,.3,.62,.44,.93h-1.32c0-.05,0-.1,0-.15,.27-.07,.54-.14,.82-.21-.38-.29-.85-.69-1.15-.44-.53,.45-.97-.15-1.45,.11,0-.08,0-.16,0-.23,.42-.09,.84-.18,1.26-.27,0-.08,0-.15-.01-.23-.11-.11-.21-.23-.32-.34,.01-.04,.02-.08,.03-.11,.48,.11,.97,.22,1.45,.33,0-.07,0-.14,.01-.21-.19-.14-.38-.28-.58-.42,0-.03,.01-.06,.02-.09,.55,.12,1.11,.23,1.66,.35,.02-.12,.03-.23,.05-.35-.86-.74-1.96-.43-2.67-1.84-.11-.21-.45-.03-.61-.03,.23,.2,.52,.46,.81,.71-.02,.07-.03,.13-.05,.2-.68-.18-1.36-.37-2.06-.56,.06,.22,.12,.42,.17,.61-.04,.1-.07,.19-.11,.29-.31-1.44-1.05-1.16-1.62-1.54-.4-.26-.8-.5-1.2-.74,.91,.2,1.82,.43,2.73,.59Zm78.96,25.94c-.21-.49-.6-.17-.69,.41h-1.44c.17,.2,.4,.36,.52,.65,.35,.81,.65,.91,1.07,.26,.04-.06,.08-.12,.11-.17-.1-.26-.19-.51-.29-.76,.13,.11,.25,.21,.38,.33,.32,.3,.57,.85,1.02,.52,.25-.18,.56-.1,.86-.22-.27-.11-.55-.22-.93-.37,.17-.08,.22-.11,.28-.14,.34-.15,.67-.31,1.09-.5-.5-.12-.94-.23-1.45-.35,.15,.35,.25,.6,.36,.85-.3-.15-.63,.12-.91-.51ZM30.47,49.47c-.46-.03-.91-.02-1.37-.02,0,.08,0,.16,0,.24,.52,.05,1.04,.1,1.56,.14,.2,.11,.41,.32,.61,.31,.65-.04,1.27,.49,1.95,.07,.47-.29,1.04-.13,1.58-.32-.09-.06-.18-.18-.27-.17-.65,.02-1.31,.08-1.96,.06-.17,0-.33-.28-.5-.4-.07-.05-.15-.03-.23-.05,.02,.12,.04,.24,.08,.43-.41-.1-.82-.84-1.19,.04-.08-.12-.16-.33-.25-.33Zm109.68,24.76c0,.07,0,.14-.01,.21,.2,.06,.4,.12,.6,.18v.22c-.37,.05-.74,.11-1.11,.16,0,.06,0,.12,0,.18h5.88c0-.09,0-.18,0-.28h-4.67c.35-.26,.64-.47,.93-.68,.51,.18,1.01,.57,1.57,0-.11-.07-.19-.12-.39-.26h1.41c0-.06,0-.13,0-.19-.62-.12-1.24-.25-1.74-.35-.13,.27-.18,.48-.27,.54-.18,.13-.38,.18-.58,.27-.54,0-1.08,0-1.63,0Zm20.79,.34c-.16-.24-.28-.58-.41-.6-.63-.05-1.27,0-1.9,0-.22,0-.44-.01-.66-.02-.27,0-.51-.12-.78,.32-.23,.36-.68,.3-1.03,.38-.53,.13-1.07,.22-1.6,.37,.31,0,.61-.02,.92,0,1,.09,1.99,.22,2.99,.28,.51,.03,1.02,0,1.52-.08,1.02-.16,2.03-.36,3.04-.56,.16-.03,.32-.14,.48-.22,0-.1-.02-.2-.03-.3-.87,.22-1.79-.56-2.54,.41Zm-106.8-7.08c-.06-.11-.17-.19-.26-.2-.97-.18-1.93-.41-2.9-.51-.96-.1-1.93-.03-2.9-.09-.83-.05-1.66-.19-2.5-.25-.21-.02-.43,.09-.65,.14,0,.08,0,.15,0,.23,.16,0,.33-.02,.49,0,.6,.07,1.21,.06,1.64,.71h3.77c0-.06,.04-.27,.1-.64,.23,.28,.4,.5,.62,.78,.5-.5,1-.33,1.55,.4,.35,.46,.88,.48,1.33,.65,.07,.02,.17-.27,.15-.22-.2-.45-.31-.74-.45-.99Zm118.2,6.72c.76-.09,1.52,.11,2.28,.07,1.08-.05,2.15-.21,3.23-.32,0-.14,0-.28,0-.42h-6.97c.45,.87,.94,.73,1.47,.67Zm31.45-.18c.41-.1,.79-.2,1.16-.29,0-.11,0-.22,0-.34-.65-.05-1.4-.48-1.94-.05-.85,.67-1.66-.2-2.43,.35,.09,.17,.2,.39,.4,.77,.35-.04,.84-.13,1.32-.13,.62,0,1.25,.18,1.87,.12,.74-.07,1.48-.31,2.21-.48,0-.09,0-.19-.01-.28-.87-.47-1.66,.86-2.57,.33ZM28.45,44.11c-.1,.09-.18,.17-.27,.24,.23,.69,.54,.81,.92,.63,.15-.07,.3-.06,.46-.06,.96,0,1.92,0,3.03,0-.21-.18-.28-.24-.47-.4,.35-.07,.58-.12,.81-.17-.37-.27-.69-.83-1.13-.21-.14,.2-.47-.1-.71-.05-.33,.07-.66,.24-.98,.37,0,.09-.01,.19-.02,.28-.1-.25-.2-.5-.28-.69-.31,.09-.61,.29-.88,.21-.25-.07-.47-.44-.7-.68-.02,.1-.05,.2-.07,.3,.1,.08,.19,.15,.3,.24Zm127.31,26.04c-.02,.1-.05,.19-.07,.29,.19,.16,.38,.42,.58,.47,.37,.09,.75,.1,1.13,.06,.2-.02,.49,.28,.58-.36,0-.05,.17-.09,.24-.03,.84,.78,1.65-.05,2.48-.1,.24-.01,.48-.2,.77-.33h-5.7Zm43.67,3.34c-.41,0-.82,.04-1.22,.09-.27,.03-.55,.12-.82,.16-.25,.03-.5,.02-.74,.05-.19,.02-.38,.07-.57,.11,0,.13,0,.27,0,.4h4.4c-.22-.64-.61-.82-1.05-.81Zm-84.46-1.92c-.02,.22-.04,.43-.05,.53h2.94c0-.06,.01-.12,.02-.17-.18-.06-.36-.14-.54-.17-.48-.07-.98-.33-1.42-.39-.72-.09-1.46-.87-2.2-.13-.04,.04-.17-.09-.22-.2-.15-.33-.12-.31-.31,.01-.11,.18-.29,.22-.44,.32,0,.06,0,.13,0,.19h2.22Zm56.49-1.41c.08,0,.19-.1,.25-.21,.24-.39,.45-.54,.7-.01,.06,.12,.23,.16,.33,.12,.39-.17,.77-.38,1.14-.71-1.4-.2-2.78-.14-4.14,.35,.01,.1,.02,.21,.03,.32,.56,.05,1.12,.12,1.68,.15Zm33.63-1.12c.76-.08,1.52-.25,2.28-.44,.17-.04,.33-.31,.44-.68-1.6,.36-3.19,.71-4.79,1.07,0,.02,0,.04,0,.07,.69,0,1.38,.06,2.06-.01ZM30.44,46.3s0-.09,0-.13h1.02v-.11c-1.02-.27-2.04-.54-3.12-.83,.21,.8,.29,.8,.67,.75,.31-.04,.73-.03,.91,.29,.32,.56,.69,.46,1.03,.57,.27,.09,.57-.08,.86-.13,0-.08,.01-.15,.02-.23-.46-.06-.93-.12-1.39-.19Zm171.47,23.07c.29,.35,.82-.23,.76,.88,.98-.22,1.92-.43,2.87-.64,0-.08-.02-.16-.02-.24h-3.61Zm-63.84,5.05c-.66,.04-1.33,.39-1.99-.1-.14-.11-.32-.08-.48,0,.56,1.07,1.28,.59,1.9,.5,.57-.08,1.32,.3,1.6-1.23-.27,.06-.58,.13-.88,.2,.02,.07,.04,.15,.06,.22-.07,.14-.14,.41-.21,.41Zm61.22-1.42c-1.02-.95-2.11-.34-3.19,.06,1.09,.53,2.18-.08,3.19-.06ZM34.03,46.13c-.71-.35-1.39-.68-2-.98-.07,.25-.13,.45-.19,.64,.02,0,.11,.06,.21,.11-.08,.11-.14,.21-.2,.31,.02,.07,.03,.14,.05,.22,.69-.54,1.44,.52,2.13-.29Zm113.86,26.9c.12,.78,.18,.71,.56,.57,.55-.2,1.13-.19,1.69-.25,.27-.03,.54,0,.81,0,0-.08,0-.17,0-.25-1.01-.41-2.03-.14-3.06-.06Zm-20.54,.75c-.7,.2-1.33,.39-1.97,.58,0,.06,0,.13,0,.19,.84-.08,1.67-.17,2.56-.26-.1-.12-.17-.19-.37-.41,.43,.1,.72,.17,1.04,.25v-.5c-.49-.07-.99-.14-1.62-.23,.16,.17,.22,.24,.36,.39Zm51.31,.36c0,.1,.01,.19,.02,.29,.94-.12,1.88-.25,2.82-.37,0-.1-.01-.2-.02-.31-.94,.19-1.91-.31-2.82,.38Zm-69.38-2.21c-.3-.06-.62-.02-.74,.59,.66,.83,1.28,.24,1.93-.15-.42-.16-.8-.37-1.19-.45Zm-76.27-11.79c-.89-.7-2.59-.73-2.73,0h2.73Zm77.67,11.74c.69,.62,1.41,.41,2.11,.22-.66-1.11-1.39-.41-2.11-.22ZM27.54,58.19c-.1,.16-.19,.31-.29,.47,.07,.09,.11,.2,.14,.19,.16-.05,.32-.11,.47-.2,.11-.06,.21-.27,.3-.25,.23,.04,.45,.16,.68,.13-.46-.62-.91-1.23-1.52-.69,.06,.1,.13,.21,.22,.35Zm128.02,15.27c.02,.1,.05,.21,.07,.31,.78-.13,1.57-.26,2.35-.39-.58-.3-1.2,.02-1.79-.23-.02-.1-.04-.21-.07-.31-.19,.21-.38,.42-.57,.63Zm8.21-.55c.21,.21,.32,.33,.52,.54-.13,.09-.22,.15-.24,.16,.35,0,.7,.02,1.06,0,.35-.03,.7-.1,1.05-.16,0-.04,0-.09,0-.13-.76-.13-1.52-.26-2.39-.41Zm-8.38-2.08c-.19-.54-.81-.62-1.44,0h1.44ZM10.69,35.26c.17,.74,.79,.82,1.83,.29-.61-.1-1.21-.2-1.83-.29Zm25.33,8.54c.25,.05,.5,.17,.75,.2,.26,.04,.52,0,.78-.15-.7-.17-1.41-.34-2.11-.51,0,.14-.01,.28-.02,.41,.2,.01,.4,0,.6,.04Zm157.02,28.96c0-.11,.02-.22,.03-.34-.49-.16-.94-.79-1.49-.35,0,.1,0,.19-.01,.29,.49,.13,.98,.26,1.47,.39Zm-119.24-2.05h1.69q-1.09-.57-1.69,0Zm98.72,1.7c.42,.86,.72,.92,1.36,.28-.48-.1-.89-.18-1.36-.28ZM29.02,51.05h1.3c-.64-.75-1.15-.76-1.3,0Zm165.39,23.1c.51-.07,.96-.13,1.56-.21-.61-.38-1.08-.84-1.56,.21ZM32.67,19.45c.03-.12,.06-.28,.07-.35h-1.32c0,.06,0,.12,0,.17,.41,.06,.82,.12,1.24,.18Zm121.4,54.09c0-.06,0-.12-.01-.18-.63,.15-1.25,.3-1.88,.46,.01,.08,.02,.16,.03,.24,.62-.17,1.24-.35,1.86-.52ZM30.57,57.79h-1.82c.6,.53,1.16,.3,1.82,0Zm124.7,11.9c.07,0,.14-.19,.22-.29-.07-.13-.16-.39-.2-.37-.33,.17-.65,.39-1.09,.67,.47,0,.77,.02,1.07-.01Zm-99.05,.38c.07-.26,.12-.44,.18-.68-.3-.12-.66-.26-1.03-.39-.02,.06-.03,.13-.05,.19,.31,.31,.63,.62,.89,.88Z"/>
    <path class="cls-1" d="M76.62,72.4c-.02,.07-.04,.15-.07,.22,.08,.87,.18,.9,1,.34-.11-.08-.19-.14-.36-.26,.79,.1,1.48,.19,2.17,.27,0,.13,0,.26,.01,.39-.47,.13-.94,.26-1.41,.41-.52,.17-1.04,.42-1.57,.51-.36,.06-.73-.12-1.1-.15-1.04-.06-2.08-.1-3.11-.14-.16,0-.31,0-.47,.12,.69,.68,1.51,1.2,2.17,.7,.79-.6,1.51,.04,2.24-.22,.18-.06,.36-.11,.52-.24,.31-.25,.57-.27,.76,.36-.17,.12-.33,.24-.49,.36,0,.02,.01,.05,.02,.07,.54-.17,1.08-.36,1.62-.49,.52-.13,1.04-.19,1.57-.28,0-.09,0-.17-.01-.26-.53,.11-1.06,.21-1.58,.32,0-.09-.01-.18-.02-.26,1.38-.3,2.75-.59,4.22-.9-.29-.26-.49-.45-.7-.63-.23,0-.46,0-.69,0,0,.05,0,.11,0,.16,.19,.09,.39,.17,.68,.3h-1.8c.39-.29,.65-.6,.92-.65,.29-.06,.59,.13,.89,.21,.15-.17,.3-.37,.46-.51,.04-.03,.13,.1,.38,.32-.12-.33-.2-.7-.27-.69-.42,.04-.78-.08-1.16-.46-.15-.15-.45,.18-.68,.24-.19,.04-.49,.13-.56-.04-.22-.54-.43-.33-.7-.22-.36,.15-.75,.16-1.12,.17-.6,.03-1.2,0-1.89,0,.15,.22,.25,.36,.36,.51-.07,.13-.14,.26-.21,.38Z"/>
    <path class="cls-1" d="M206.86,79.45c.66,.7,1.16-1.04,1.94-.24-.24,.11-.35,.16-.43,.19,.15,.51,.3,1,.47,1.58,1.04-.74,2.14-1.52,3.27-2.33-.26-.29-.46-.48-.76-.11-.54,.68-1.15,.46-1.74,.16-.18-.09-.37-.13-.6-.37,.25-.2,.49-.44,.74-.59,.25-.15,.53-.2,.78-.42-.24-.44-.44-.71-.77-.28-.56,.73-1.17,.38-1.78,.16-.4-.15-.84-.54-1.21,.28-.14,.31-.18,.36,.05,.78,.19,.35,.41,.7,.03,1.18Z"/>
    <path class="cls-1" d="M209.75,3.99c.24-.14,.49-.29,.7-.41,.57,.37,1.15,.87,1.76,1.08,.21,.07,.51-.51,.75-.85,.1-.14,.16-.4,.32-.82-.44,0-.84-.06-1.23,.02-.38,.07-.75,.28-1.18,.45,.32-.61,.61-1.16,1-1.92-.74,0-1.39-.17-1.99,.07-.27,.11-.53,.38-.85,.33-.08-.01-.17,.22-.27,.35,.54,.3,1.04,.57,1.55,.84-.2,.33-.37,.61-.53,.88,0,0-.01-.03-.01-.03Z"/>
    <path class="cls-1" d="M196.84,76.25c-.24,.06-.48,.07-.7,.19-.75,.4-1.46,.44-2.18-.24-.15-.14-.43,.13-.68,.22,.09,.35,.14,.53,.18,.69-.46,.81-.85,.44-1.33,0-.28-.25-.73,.09-1.12,.23,.91,.16,1.85,.23,2.74,1.45,.93-.63,2.03-1.39,3.13-2.14-.01-.13-.02-.27-.03-.4Z"/>
    <path class="cls-1" d="M132.24,78.31c-.15,.11-.28,.2-.34,.24,.19,.51,.38,1.04,.63,1.71,.46-.32,1.04-.7,1.61-1.13,.52-.39,.52-.42,.97-.3,.28-.11,.57-.22,.86-.34-.33-.5-.54-1.34-1.17-1.19,.12,.18,.19,.29,.24,.38-.75,.96-1.52,.35-2.3,.07-.24-.09-.48-.12-.76-.18,.11,.32,.18,.52,.25,.73Z"/>
    <path class="cls-1" d="M108.55,74.75h-2.68c-.04-.08,0,.02,.12,.22-.87,.13-1.61-.11-2.35-.67-.4-.3-.87-.26-1.31-.37-.01,.11-.02,.22-.04,.33,.39,.2,.78,.4,1.27,.65-.3,.16-.51,.27-.71,.37,0,.04,0,.08,0,.12h1.58c-.23,1.18-.81,.44-1.15,.97,.77,.34,1.51,.01,2.24-.4-.16-.02-.31-.04-.47-.06,0-.06,0-.12,0-.17,1.18-.24,2.36-.48,3.55-.72-.01-.09-.02-.18-.03-.27Z"/>
    <path class="cls-1" d="M55.36,71.81c.9,.89,1.93,1.14,2.9,1.66,.02-.07,.04-.15,.05-.22-.37-.31-.74-.63-1.11-.94,0-.06-.01-.12-.02-.19,.64-.02,1.28-.08,1.92-.04,.66,.04,1.33,.16,2,.13-.25-.16-.5-.32-.84-.54,.23-.22,.37-.34,.59-.55-.86-.13-1.63-.24-2.4-.36,.06,.11,.18,.35,.42,.82h-3.43c-.03,.08-.05,.15-.08,.23Z"/>
    <path class="cls-1" d="M147.3,78.88c.17,.44,.34,.88,.54,1.39,1.02-.73,2.11-1.51,3.21-2.3,0-.06,0-.12,0-.18h-3.55c.06,.4,.09,.61,.1,.72-.29-.14-.57-.28-.84-.42-.01,.07-.02,.15-.03,.22,.17,.04,.34,.08,.55,.13-.02,.19-.04,.38-.07,.57,.03-.05,.06-.09,.09-.14Z"/>
    <path class="cls-1" d="M177.91,76.83c.09,.33,.16,.59,.25,.92-.13,.02-.23,.03-.34,.05,.16,.5,.31,1,.49,1.57,1.05-.72,2.15-1.47,3.26-2.22,0-.07,0-.15-.01-.22-.17-.07-.42-.31-.5-.19-.65,.98-1.34,.17-2.01,.19-.35,.01-.7-.06-1.14-.1Z"/>
    <path class="cls-1" d="M24.29,49.42c-1.32-1.15-2.72-.97-4.11-.8,.41,.06,.82,.12,1.24,.19,0,.08,0,.16-.01,.24h-1.09c1.39,1.26,2.67,1.37,3.98,.37Z"/>
    <path class="cls-1" d="M186.4,79.32c-.11,.04-.21,.07-.28,.1,.15,.53,.29,1.02,.44,1.58,1.06-.76,2.16-1.53,3.25-2.31,0-.1-.02-.2-.03-.31-.24,.07-.51,.03-.71,.22-.62,.6-1.22,.36-1.84,.02-.16-.09-.33-.18-.49-.2-.49-.07-.54,.07-.35,.9Z"/>
    <path class="cls-1" d="M5.97,33.47c-.06,0-.13-.01-.19,.03-.57,.46-1.1,.74-1.75,.3-.45-.3-1-.12-1.5-.16-.18-.02-.37,0-.54-.1-.69-.38-1.32-.06-1.98,.44,1.44,.16,2.85,.31,4.26,.46-.16,.46-.15,.43-.63,.27-.26-.09-.54-.08-.9-.12,.51,.94,1.02,1.42,1.76,1.28-.35-.19-.63-.35-.91-.5,0-.07,.02-.14,.03-.21,.25,.05,.49,.09,.77,.14,.09-.52,.1-1.18,.65-1.07,.31,.07,.65-.37,.98-.58,0-.06-.02-.12-.03-.19Z"/>
    <path class="cls-1" d="M162.73,77.82c.12,.38,.17,.54,.23,.76-.14,.06-.25,.11-.28,.12,.14,.51,.28,1.01,.43,1.57,1.04-.74,2.14-1.52,3.23-2.29,0-.09,0-.18,0-.27-.22,.03-.48-.06-.66,.12-.61,.62-1.22,.39-1.84,.14-.32-.13-.67-.1-1.11-.15Z"/>
    <path class="cls-1" d="M18.41,46.5c.2,.31,.27,.41,.4,.6-.25,.1-.42,.17-.6,.24,0,.03,0,.07,0,.1h3.75c0,.06,0,.12,0,.17-.23,.05-.47,.1-.7,.16,0,.08,.01,.16,.02,.24l2.21-.62c0-.05,.01-.1,.02-.16-.37-.03-.76-.16-1.12-.07-.38,.1-.65-.09-.98-.43-.31-.33-.73-.43-1.1-.44-.59-.02-1.18,.12-1.9,.2Z"/>
    <path class="cls-1" d="M146.17,77.1c-.89-.13-1.79-.33-2.68-.37-.56-.03-1.13,.17-1.76,.27,.24,.24,.37,.47,.52,.51,.23,.07,.48,.04,.71,.02,.17-.01,.34-.18,.49-.12,.52,.21,1.02,.03,1.54-.07,.47-.09,.95,.26,1.44,.34,.1,.02,.22-.27,.34-.42-.21-.07-.41-.13-.62-.2l.02,.03Z"/>
    <path class="cls-1" d="M196.68,2.6c.68,.15,.98-.77,1.42-1.7-.75,.1-1.42-.38-2.08,.36-.18,.2-.47,.09-.72,.28,.41,.26,.81,.5,1.21,.78,.08,.05,.13,.21,.2,.32,0,0-.02-.03-.02-.03Z"/>
    <path class="cls-1" d="M5.74,49.45c.41,1,2.53,.86,3.32-.19-.35-.18-.64-.49-.91-.44-.79,.13-1.58,.4-2.41,.63Z"/>
    <path class="cls-1" d="M204.54,75.96h-6.31c0,.09,0,.18,0,.27h6.32c0-.09,0-.18,0-.27Z"/>
    <path class="cls-1" d="M14.55,25.94c.66,0,1.32-.02,1.98,0,.42,.02,.85,.08,1.27,.2,.39,.11,.79,.65,1.1-.31,.06-.19,.3-.2,.46-.29,0-.09-.01-.17-.02-.26-1.6,.1-3.19,.2-4.79,.29,0,.11,0,.23,0,.34Z"/>
    <path class="cls-1" d="M12.54,31.37c-.35,.2-.7,.39-1.05,.59,0,.06,.01,.11,.02,.17,.43-.17,.87-.34,1.4-.54-.2-.45-.34-.74-.46-1.01-1.08,.12-2.15,.24-3.23,.36,0,.07-.01,.14-.02,.21,.35,.11,.69,.3,1.04,.32,.38,.03,.76-.09,1.14-.15,.37-.06,.75-.12,1.12-.18,.02,.08,.03,.16,.05,.24Z"/>
    <path class="cls-1" d="M18.74,63.43c.42,.09,.84,.18,1.26,.27,0,.05,0,.1,0,.15h-1.72c.58,.41,1.12,.8,1.66,1.18,.02-.06,.03-.12,.05-.18-.12-.13-.24-.26-.36-.39,0-.06,0-.12,0-.18h1.29c0-.11,.01-.21,.02-.32-.54-.99-1.22-1.2-1.97-.95-.08,.03-.14,.28-.21,.42h0Z"/>
    <path class="cls-1" d="M19.01,14.56c1.04,.44,2.16,.14,3.12,1.34,.01-.08,.03-.15,.04-.23-.07-.15-.13-.31-.2-.46,0-.09,.02-.18,.02-.26,.82,.96,1.66,1.58,2.54,.84-.43-.28-.91-.78-1.4-.86-1.32-.23-2.65-.28-3.98-.4-.05,0-.1,.02-.15,.03Z"/>
    <path class="cls-1" d="M53.44,72.1c-.32-.14-.65-.29-1.12-.5,.2,.34,.29,.63,.4,.65,.57,.1,1.14,.13,1.71,.19,.06,0,.13,.01,.19,.04,.6,.24,1.21,.48,1.81,.72,.01-.07,.02-.15,.03-.22-.56-.3-1.12-.58-1.67-.91-.14-.08-.22-.39-.36-.53-.16-.16-.36-.39-.51-.34-.18,.05-.33,.38-.49,.58,0,.1,0,.21,.01,.31Z"/>
    <path class="cls-1" d="M87.33,76.73c.29,.27,.49,.56,.7,.61,.17,.04,.39-.14,.52-.36,.46-.76,.82-.89,1.37-.39,.08-.19,.15-.38,.25-.61-.15-.02-.28-.04-.42-.05,.51-.7,1.28,.25,1.7-1.12-.78,.27-1.53,.52-2.35,.81,.14,.14,.21,.2,.33,.32-.54,.14-1.03,.26-1.52,.39,0,.03,0,.06,.01,.09,.18,.05,.35,.1,.53,.14,0,.06,0,.11,0,.17h-1.11Z"/>
    <path class="cls-1" d="M25.33,15.86c1.51,.2,3.02,.41,4.53,.61,0-.1,0-.21,.01-.31-1.5-.25-3-.5-4.51-.75-.01,.15-.02,.3-.03,.45Z"/>
    <path class="cls-1" d="M85.04,76.25c-.05,.06-.09,.18-.14,.18-1.04-.04-2.09-.08-3.13-.15-.22-.01-.43-.12-.67-.19-.01,.61,.1,.85,.43,.81,.39-.04,.78-.01,1.28-.01,.24-.8,.79-.22,1.26-.28,.27-.03,.54,.1,.81,.08,.06,0,.11-.3,.17-.46h0Z"/>
    <path class="cls-1" d="M94.93,75.46c-1.21-.12-2.42-.16-3.57,.85,.22-.07,.44-.14,.66-.21,.01,0,.02-.06,.03-.06,.73,0,1.45,0,2.18,.03,.23,.01,.45,.13,.71,.04-.11-.06-.21-.13-.4-.23,.18-.08,.3-.12,.41-.17,0-.08-.01-.16-.02-.24Z"/>
    <path class="cls-1" d="M121.04,76.09c-1.33-.62-2.49,.18-3.66,.57,0,.09,0,.17,.01,.26,1.18-.27,2.36-.53,3.65-.83Z"/>
    <path class="cls-1" d="M17.4,43.7c-1.1-.73-2.08-.11-3.08-.07,.28,.2,.56,.56,.85,.56,.44,.01,.88-.23,1.32-.34,.26-.06,.52-.09,.91-.15Z"/>
    <path class="cls-1" d="M97.86,73.68h3.91c0-.12,0-.24,0-.37-1.37-.3-2.71,.21-3.9,.37Z"/>
    <path class="cls-1" d="M110.32,75.13c-.17-.02-.34-.09-.51-.05-.8,.2-1.6,.44-2.4,.66,0,.08,0,.16,0,.25,.93-.07,1.86-.15,2.78-.22,.04-.25,.07-.45,.1-.65,0,0,.02,.02,.02,.02Z"/>
    <path class="cls-1" d="M65.8,76.52h3.95c0-.05,0-.1,0-.16h-3.94c0,.05-.01,.1-.02,.16Z"/>
    <path class="cls-1" d="M111.59,75.62h3.99c0-.06,0-.11,0-.17h-3.99c0,.06,0,.11,0,.17Z"/>
    <path class="cls-1" d="M17,59.79c1.21,.22,2.42,.45,3.63,.67,0-.08,.01-.16,.02-.25-1.19-.59-2.42-.52-3.65-.43Z"/>
    <path class="cls-1" d="M156.73,76.78c-1.19,.23-2.38,.45-3.57,.68,0,.07,0,.14,.01,.21,1.18-.16,2.37-.32,3.55-.49,0-.13,0-.27,0-.4Z"/>
    <path class="cls-1" d="M76.55,76.2h3.1c-.74-.57-2.76-.62-3.1,0Z"/>
    <path class="cls-1" d="M21.57,50.5c-.07,.38-.1,.55-.15,.76,.34,.07,.67,.2,1,.2,.38,0,.77-.11,1.16-.26-.69-.24-1.39-.49-2.01-.71Z"/>
    <path class="cls-1" d="M87.01,74.4c.76,.22,1.52,.44,2.28,.66,0-.1,.02-.2,.03-.31-.79,.05-1.44-1.31-2.28-.62,0,.09-.02,.18-.02,.26Z"/>
    <path class="cls-1" d="M152.82,79.32c.01-.07,.05-.27,.1-.51-.03-.02-.07-.07-.12-.07-.56,.05-1.12,.08-1.68,.2-.11,.02-.2,.36-.34,.63h1.35s.01-.05,.02-.07c-.21-.09-.42-.18-.63-.28,0-.06,0-.11,.01-.17,.42,.09,.84,.17,1.28,.26Z"/>
    <path class="cls-1" d="M168.45,76.46h2.79c0-.07,0-.13,0-.2h-2.79c0,.07,0,.13,.01,.2Z"/>
    <path class="cls-1" d="M22.33,46.05c.61,.13,1.23,.33,1.85,.35,.19,0,.38-.46,.64-.8-.92,.12-1.71,.23-2.5,.33,0,.04,0,.08,.01,.12Z"/>
    <path class="cls-1" d="M19.84,52.79c.49,.22,.98,.44,1.46,.66-.01,.09-.02,.17-.03,.26-.2,.03-.4,.07-.59,.1,0,.08,0,.15-.01,.23,.39,.1,.78,.19,1.16,.29-.45-1.47-1.18-1.71-1.98-1.53Z"/>
    <path class="cls-1" d="M99.78,76.45c-.17-.06-.34-.17-.51-.18-.88-.06-1.77-.12-2.65-.14-.1,0-.21,.23-.38,.43h3.52s.02-.08,.03-.11Z"/>
    <path class="cls-1" d="M85.03,76.24s.03,.04,.05,.04c.54-.11,1.05,.13,1.56,.41,.12,.07,.29-.08,.42-.23-.67-.98-1.35-.5-2.02-.2,0,0,0-.02,0-.02Z"/>
    <path class="cls-1" d="M15.78,46.36c.81,.25,1.61,.49,2.47,.75-.4-.83-1.14-1.07-2.47-.75Z"/>
    <path class="cls-1" d="M18.74,63.43c-.24-.78-.62-1.05-1.1-1-.4,.04-.8,0-1.2,.18,.77,.27,1.53,.55,2.3,.82,0,0,0,0,0,0Z"/>
    <path class="cls-1" d="M24.17,10.56c-.44-.25-.88-.57-1.33-.73-.16-.06-.36,.24-.54,.38,.02,.1,.04,.2,.06,.3,.61,.08,1.22,.16,1.82,.23,0-.06,0-.12,0-.19Z"/>
    <path class="cls-1" d="M15.59,48.2c.67,.07,1.28,.14,1.88,.21,0-.09,0-.18,0-.27-.61,.06-1.21-1.19-1.89,.06Z"/>
    <path class="cls-1" d="M13.25,28.83c.8-.08,1.6-.15,2.39-.23,0-.13,0-.26-.01-.39-.8,.1-1.6,.2-2.39,.29,0,.11,0,.22,.01,.33Z"/>
    <path class="cls-1" d="M138.04,76.58c-.5-.9-1-.12-1.55-.3,.3,.68,1.01,.78,1.55,.3Z"/>
    <path class="cls-1" d="M32.94,16.35h2.44c0-.13,0-.26,0-.39-.81,.1-1.61,.2-2.42,.3,0,.03,0,.05,0,.08Z"/>
    <path class="cls-1" d="M121.99,76.92c.08,.11,.15,.31,.23,.33,.47,.09,.95,.19,1.43,.18,.18,0,.35-.31,.54-.49h-2.19Z"/>
    <path class="cls-1" d="M23.91,51.84c.48,.11,.96,.27,1.44,.32,.34,.03,.69-.11,1.02-.37h-2.46s0,.04,0,.06Z"/>
    <path class="cls-1" d="M139.88,78.36c.16,.09,.32,.16,.46,.28,.12,.11,.23,.29,.34,.44,.03-.06,.05-.12,.08-.18-.06-.1-.13-.2-.18-.28,.22-.18,.45-.35,.67-.53,0-.08-.02-.16-.03-.23-.45,.05-.91,.11-1.36,.16,0,.11,.01,.22,.02,.34Z"/>
    <path class="cls-1" d="M146.79,81.86c.02,.49,.03,.82,.05,1.28,.41-.07,.86-.15,1.41-.24,0,.01,.07-.2,.19-.58-.45,.16-.82,.29-1.19,.42-.12-.24-.26-.5-.46-.87Z"/>
    <path class="cls-1" d="M83.05,77.59c.5,.1,1,.19,1.49,.29-.03,.13-.06,.26-.09,.41,.61,.34,.34-.58,.45-1-.63,.05-1.25,.11-1.87,.16,0,.05,.01,.1,.02,.14Z"/>
    <path class="cls-1" d="M118.66,78.49c.06-.13,.12-.25,.19-.4h-1.26c0,.1-.01,.2-.02,.29,.48,.17,.96,.33,1.44,.5,0-.07,.02-.15,.03-.22-.13-.06-.26-.12-.38-.18Z"/>
    <path class="cls-1" d="M23.86,51.49c.6-.08,1.15-.16,1.65-.22-.24-.66-1.25-.68-1.65,.22Z"/>
    <path class="cls-1" d="M9.18,26.75c-.75-.72-1.18-.72-1.42,0h1.42Z"/>
    <path class="cls-1" d="M14.29,51.87c-.01,.09-.05,.31-.07,.48,.52-.06,1.05-.12,1.59-.19,0-.1,0-.2,0-.29h-1.52Z"/>
    <path class="cls-1" d="M158.2,78.44c-.99-.09-1.94-.17-2.89-.25,.95,.26,1.9,.86,2.89,.25Z"/>
    <path class="cls-1" d="M121.99,76.93h-2.11c.71,.28,1.42,.92,2.11,0,0,0,0,0,0,0Z"/>
    <path class="cls-1" d="M155.98,80.91c-.47,.11-.94,.23-1.41,.34,0,.11,0,.22,.01,.33,.47-.06,.94-.11,1.41-.17v-.5Z"/>
    <path class="cls-1" d="M139.09,80.88c-.32-.39-.62-.74-.92-1.11,.34,1.71,.41,1.79,.92,1.11Z"/>
    <path class="cls-1" d="M127.87,77.24c-.28-.57-1.24-.67-1.94-.15,.7,.05,1.3,.1,1.94,.15Z"/>
    <path class="cls-1" d="M88.72,75.44l-1.82,.24c0,.1,0,.21,0,.31,.61-.06,1.23-.12,1.84-.18-.01-.12-.02-.24-.04-.36Z"/>
    <path class="cls-1" d="M131.52,82.09c-.03,.4-.07,.8-.11,1.28,.27-.09,.56-.19,1-.34-.25-.17-.39-.26-.57-.38,.11-.13,.18-.22,.26-.32-.2-.09-.41-.17-.58-.24Z"/>
    <path class="cls-1" d="M19.53,53.82h-1.77c0,.09,0,.19,0,.28h1.77c0-.09,0-.19,0-.28Z"/>
    <path class="cls-1" d="M146.15,77.07c.21,.07,.41,.13,.62,.2,.19-.01,.38-.02,.57-.03-.06-.15-.12-.3-.19-.46,.1-.04,.22-.08,.32-.11-.02-.4-.8-.14-1.33,.41Z"/>
    <path class="cls-1" d="M164.47,77.17c.73-.1,1.47-.2,2.2-.3,0-.09,0-.19,0-.28-.73,.1-1.46,.19-2.19,.29,0,.1,0,.19,0,.29Z"/>
    <path class="cls-1" d="M73.88,75.69c.18,.13,.36,.27,.54,.4,.31-1.13,.98-.08,1.38-.82-.64,.07-1.28,.14-1.92,.2,0,.07,0,.14,0,.21Z"/>
    <path class="cls-1" d="M175.14,75.76h-1.8s0,.09,0,.14c.6,.06,1.19,.12,1.79,.18,0-.11,0-.21,0-.32Z"/>
    <path class="cls-1" d="M21.9,61.6s-.05-.11-.07-.11c-.83,0-1.66,0-2.49-.11,.86,.16,1.71,.32,2.57,.48,0-.09,0-.17,0-.26Z"/>
    <path class="cls-1" d="M94.1,77.73c.39-.42,.89,.64,1.34-.45-.55,.07-.99-.15-1.34,.45Z"/>
    <path class="cls-1" d="M70.16,75.57q1.16,.19,1.32-.49c-.39,.46-.89-.5-1.32,.49Z"/>
    <path class="cls-1" d="M9.37,46.64h1.75c-.45,.56-1.1-1.1-1.75,0Z"/>
    <path class="cls-1" d="M109.36,76.84h1.18c0-.15,0-.29,0-.44-.39,.03-.79,.06-1.18,.09,0,.11,0,.23,0,.34Z"/>
    <path class="cls-1" d="M135.81,76.73c-.07,.22-.13,.42-.22,.73h1.5c-.46-.26-.85-.49-1.28-.73Z"/>
    <path class="cls-1" d="M80,77.88c-.02-.19-.03-.55-.06-.55-.37-.04-.74-.02-1.11-.02,0,.13,0,.26,0,.38,.39,.06,.79,.12,1.18,.18h-.01Z"/>
    <path class="cls-1" d="M23.54,13.43c-.49-.83-1-.01-1.5-.08,.5,.5,1,.22,1.51,.06,0,0-.01,.02-.01,.02Z"/>
    <path class="cls-1" d="M204.56,78.13h1.38c-.42-.7-.92-.05-1.36-.35,0,.12,0,.23-.01,.35Z"/>
    <path class="cls-1" d="M160.5,78.89h1.3c0-.12,0-.25,0-.37-.43,.05-.86,.11-1.29,.16,0,.07,0,.14,0,.21Z"/>
    <path class="cls-1" d="M124.9,78.97c.16,.25,.29,.47,.42,.68,.03-.03,.06-.07,.08-.1-.02-.13-.04-.25-.06-.42h.88c-.13-.25-.23-.45-.32-.6-.32,.14-.64,.28-1,.44Z"/>
    <path class="cls-1" d="M63.55,77.62h1.15c0-.07,0-.14,0-.21h-1.16c0,.07,0,.14,0,.21Z"/>
    <path class="cls-1" d="M130.26,75.56c-.39,.17-.77,.34-1.22,.53,.71,.47,1.04,.3,1.21-.56,0,0,.01,.03,.01,.03Z"/>
    <path class="cls-1" d="M206.25,82.39h.89c-.38-.47-.68-.86-1-1.26,.04,.42,.07,.81,.11,1.26Z"/>
    <path class="cls-1" d="M2.59,36.51s-.01,.02-.01,.02c-.2-.06-.39-.17-.59-.18-.3-.01-.6,.04-.9,.17,.51,.56,1.01,.09,1.51-.01Z"/>
    <path class="cls-1" d="M12.31,53.96h-1.67c.35,.53,1.22,.53,1.67,0Z"/>
    <path class="cls-1" d="M86.03,78.01c.15,.45,.36,.51,1.24,.27-.02-.19-.05-.39-.05-.41-.44,.05-.83,.09-1.19,.13Z"/>
    <path class="cls-1" d="M11.87,26.42c-.6,.06-1.21,.11-1.78,.17,.15,.43,1.21,.43,1.78-.17Z"/>
    <path class="cls-1" d="M171.61,77.5c.65-.19,1.3-.38,1.95-.57,0-.09-.02-.19-.03-.28-.65,.23-1.29,.46-1.94,.69,0,.05,.01,.1,.02,.15Z"/>
    <path class="cls-1" d="M67.34,73.66c.69,.07,1.38,.13,2.07,.2,0-.07,0-.13,0-.2-.69-.06-1.38-.13-2.06-.19,0,.06,0,.13-.01,.19Z"/>
    <path class="cls-1" d="M91.9,75.17c.45-.11,.91-.22,1.36-.34,0-.05,0-.09-.01-.14h-1.35c0,.16,0,.32,0,.48Z"/>
    <path class="cls-1" d="M123.88,79.13c0-.09,.02-.29,.02-.42h-1.7v.12c.54,.1,1.07,.2,1.68,.31Z"/>
    <path class="cls-1" d="M110.83,77.92c.51,.09,1.02,.19,1.53,.24,.08,0,.16-.24,.18-.54-.57,.08-1.14,.15-1.72,.23,0,.02,0,.05,0,.07Z"/>
    <path class="cls-1" d="M12.67,62.08c.06,.2,.09,.32,.14,.49-.18-.03-.34-.05-.56-.08,.45,.59,.45,.59,1.06-.19-.22-.07-.41-.14-.63-.21Z"/>
    <path class="cls-1" d="M17.73,43.58h1.5s0-.03,.01-.05c-.49-.09-.99-.17-1.48-.26-.01,.1-.02,.21-.03,.31Z"/>
    <path class="cls-1" d="M8.75,30.48h-1.46c0,.06,0,.13,0,.19h1.46c0-.06,0-.13,0-.19Z"/>
    <path class="cls-1" d="M80.01,77.87h1.88c0-.1,0-.2-.01-.31-.63,.11-1.25,.21-1.88,.32,0,0,.01-.01,.01-.01Z"/>
    <path class="cls-1" d="M162.11,82.02c0,.33,.02,.68,.03,1.12,.24-.02,.5-.05,.79-.08-.3-.38-.56-.72-.81-1.04Z"/>
    <path class="cls-1" d="M193.46,81.64c-.33-.4-.57-.7-.81-.99v1.08c.24-.03,.49-.05,.81-.09Z"/>
    <path class="cls-1" d="M30.23,8.01c-.37-.18-.74-.37-1.11-.55-.02,.12-.04,.24-.06,.36,.37,.2,.75,.4,1.12,.61,.02-.14,.04-.28,.05-.42Z"/>
    <path class="cls-1" d="M17.5,26.42c-.41-.1-.81-.19-1.22-.29l-.02,.29c.4,.09,.81,.18,1.21,.27,.01-.09,.02-.18,.04-.28Z"/>
    <path class="cls-1" d="M5.53,44.33h-1.16c0,.07,0,.14,0,.22h1.16c0-.07,0-.14,0-.22Z"/>
    <path class="cls-1" d="M207.86,82.73v1.14c.25-.04,.5-.08,.74-.11-.26-.36-.5-.7-.74-1.03Z"/>
    <path class="cls-1" d="M27.03,19.32c-.49-.07-.98-.14-1.47-.2,0,.07-.01,.13-.02,.2,.48,.12,.96,.24,1.44,.35,.02-.12,.03-.23,.05-.35Z"/>
    <path class="cls-1" d="M145.18,78.9h1.28c0-.09,0-.19,0-.28h-1.28c0,.09,0,.19,0,.28Z"/>
    <path class="cls-1" d="M21.92,14.61h1.43s0-.08,.01-.13c-.48-.07-.96-.13-1.43-.2,0,.11,0,.22,0,.33Z"/>
    <path class="cls-1" d="M33.6,17.08h-1.43s0,.09,0,.13h1.43s0-.09,0-.13Z"/>
    <path class="cls-1" d="M13.41,58.72c-.24,.04-.48,.08-.72,.12-.24,.04-.47,.08-.71,.19h1.43c0-.1,0-.21,0-.31Z"/>
    <path class="cls-1" d="M177.32,81.13c.01,.37,.02,.7,.03,1.13,.24-.02,.48-.04,.77-.07-.29-.38-.54-.72-.8-1.06Z"/>
    <path class="cls-1" d="M120.29,77.99h1.44c0-.05,0-.11,0-.16-.48-.07-.95-.13-1.43-.2,0,.12,0,.24-.01,.35Z"/>
    <path class="cls-1" d="M74.49,78.85h1.41s0-.08,0-.12c-.47-.05-.94-.11-1.41-.16,0,.1,0,.19,0,.29Z"/>
    <path class="cls-1" d="M97.16,77.61c-.54,.08-1.07,.16-1.61,.24,0,.07,0,.13,0,.2,.54-.06,1.08-.11,1.61-.17,0-.09,0-.18-.01-.27Z"/>
    <path class="cls-1" d="M185.62,82.84c-.01,.28-.03,.58-.05,1.01,.25-.03,.5-.05,.79-.08-.27-.34-.51-.63-.74-.93Z"/>
    <path class="cls-1" d="M163.48,74.16c-.87,.22-1.79-.56-2.54,.41-.16-.24-.28-.58-.41-.6-.63-.05-1.27,0-1.9,0-.22,0-.44-.01-.66-.02-.27,0-.51-.12-.78,.32-.23,.36-.68,.3-1.03,.38-.53,.13-1.07,.22-1.6,.37,.31,0,.61-.02,.92,0,1,.09,1.99,.22,2.99,.28,.51,.03,1.02,0,1.52-.08,1.02-.16,2.03-.36,3.04-.56,.16-.03,.32-.14,.48-.22,0-.1-.02-.2-.03-.3Z"/>
    <path class="cls-1" d="M54.59,68.48c-.2-.45-.31-.74-.45-.99-.06-.11-.17-.19-.26-.2-.97-.18-1.93-.41-2.9-.51-.96-.1-1.93-.03-2.9-.09-.83-.05-1.66-.19-2.5-.25-.21-.02-.43,.09-.65,.14,0,.08,0,.15,0,.23,.16,0,.33-.02,.49,0,.6,.07,1.21,.06,1.64,.71h3.77c0-.06,.04-.27,.1-.64,.23,.28,.4,.5,.62,.78,.5-.5,1-.33,1.55,.4,.35,.46,.88,.48,1.33,.65,.07,.02,.17-.27,.15-.22Z"/>
    <path class="cls-1" d="M20.19,42.99c.91,.2,1.82,.43,2.73,.59,.4,.07,.81-.01,1.22-.08,.1-.02,.18-.24,.17-.22,.87,.32,1.68,.61,2.63,.96-.15-.37-.2-.5-.32-.77,.42,.03,.77,.06,1.19,.1-.47-.82-1.01-.88-1.53-.88-1.35,.01-2.7,.11-4.04,.15-.45,.02-.91-.05-1.36-.02-.23,.01-.45,.13-.68,.2,0,0-.01-.02-.01-.02Z"/>
    <path class="cls-1" d="M170.87,73.55c.45,.87,.94,.73,1.47,.67,.76-.09,1.52,.11,2.28,.07,1.08-.05,2.15-.21,3.23-.32,0-.14,0-.28,0-.42h-6.97Z"/>
    <path class="cls-1" d="M206.36,73.71c-.87-.47-1.66,.86-2.57,.33,.41-.1,.79-.2,1.16-.29,0-.11,0-.22,0-.34-.65-.05-1.4-.48-1.94-.05-.85,.67-1.66-.2-2.43,.35,.09,.17,.2,.39,.4,.77,.35-.04,.84-.13,1.32-.13,.62,0,1.25,.18,1.87,.12,.74-.07,1.48-.31,2.21-.48,0-.09,0-.19-.01-.28Z"/>
    <path class="cls-1" d="M28.15,43.87c.1,.08,.19,.15,.3,.24-.1,.09-.18,.17-.27,.24,.23,.69,.54,.81,.92,.63,.15-.07,.3-.06,.46-.06,.96,0,1.92,0,3.03,0-.21-.18-.28-.24-.47-.4,.35-.07,.58-.12,.81-.17-.37-.27-.69-.83-1.13-.21-.14,.2-.47-.1-.71-.05-.33,.07-.66,.24-.98,.37,0,.09-.01,.19-.02,.28-.1-.25-.2-.5-.28-.69-.31,.09-.61,.29-.88,.21-.25-.07-.47-.44-.7-.68-.02,.1-.05,.2-.07,.3Z"/>
    <path class="cls-1" d="M161.46,70.15h-5.7c-.02,.1-.05,.19-.07,.29,.19,.16,.38,.42,.58,.47,.37,.09,.75,.1,1.13,.06,.2-.02,.49,.28,.58-.36,0-.05,.17-.09,.24-.03,.84,.78,1.65-.05,2.48-.1,.24-.01,.48-.2,.77-.33Z"/>
    <path class="cls-1" d="M200.47,74.3c-.22-.64-.61-.82-1.05-.81-.41,0-.82,.04-1.22,.09-.27,.03-.55,.12-.82,.16-.25,.03-.5,.02-.74,.05-.19,.02-.38,.07-.57,.11,0,.13,0,.27,0,.4h4.4Z"/>
    <path class="cls-1" d="M112.74,71.57h2.22c-.02,.22-.04,.43-.05,.53h2.94c0-.06,.01-.12,.02-.17-.18-.06-.36-.14-.54-.17-.48-.07-.98-.33-1.42-.39-.72-.09-1.46-.87-2.2-.13-.04,.04-.17-.09-.22-.2-.15-.33-.12-.31-.31,.01-.11,.18-.29,.22-.44,.32,0,.06,0,.13,0,.19Z"/>
    <path class="cls-1" d="M169.77,70.01c.56,.05,1.12,.12,1.68,.15,.08,0,.19-.1,.25-.21,.24-.39,.45-.54,.7-.01,.06,.12,.23,.16,.33,.12,.39-.17,.77-.38,1.14-.71-1.4-.2-2.78-.14-4.14,.35,.01,.1,.02,.21,.03,.32Z"/>
    <path class="cls-1" d="M141.77,74.23h-1.63c0,.07,0,.14-.01,.21,.2,.06,.4,.12,.6,.18v.22c-.37,.05-.74,.11-1.11,.16,0,.06,0,.12,0,.18h5.88c0-.09,0-.18,0-.28h-4.67c.35-.26,.64-.47,.93-.68h0Z"/>
    <path class="cls-1" d="M203.02,69.06c.69,0,1.38,.06,2.06-.01,.76-.08,1.52-.25,2.28-.44,.17-.04,.33-.31,.44-.68-1.6,.36-3.19,.71-4.79,1.07,0,.02,0,.04,0,.07Z"/>
    <path class="cls-1" d="M30.65,49.84c.2,.11,.41,.32,.61,.31,.65-.04,1.27,.49,1.95,.07,.47-.29,1.04-.13,1.58-.32-.09-.06-.18-.18-.27-.17-.65,.02-1.31,.08-1.96,.06-.17,0-.33-.28-.5-.4-.07-.05-.15-.03-.23-.05,.02,.12,.04,.24,.08,.43-.41-.1-.82-.84-1.19,.04-.02,.02-.04,.03-.06,.04Z"/>
    <path class="cls-1" d="M31.84,46.48c-.46-.06-.93-.12-1.39-.19,0-.04,0-.09,0-.13h1.02v-.11c-1.02-.27-2.04-.54-3.12-.83,.21,.8,.29,.8,.67,.75,.31-.04,.73-.03,.91,.29,.32,.56,.69,.46,1.03,.57,.27,.09,.57-.08,.86-.13,0-.08,.01-.15,.02-.23Z"/>
    <path class="cls-1" d="M205.53,69.37h-3.61c.29,.35,.82-.23,.76,.88,.98-.22,1.92-.43,2.87-.64,0-.08-.02-.16-.02-.24Z"/>
    <path class="cls-1" d="M138.28,74.01c-.07,.14-.14,.41-.21,.41-.66,.04-1.33,.39-1.99-.1-.14-.11-.32-.08-.48,0,.56,1.07,1.28,.59,1.9,.5,.57-.08,1.32,.3,1.6-1.23-.27,.06-.58,.13-.88,.2,.02,.07,.04,.15,.06,.22Z"/>
    <path class="cls-1" d="M196.1,73.05c1.09,.53,2.18-.08,3.19-.06-1.02-.95-2.11-.34-3.19,.06Z"/>
    <path class="cls-1" d="M31.89,46.42c.69-.54,1.44,.52,2.13-.29-.71-.35-1.39-.68-2-.98-.07,.25-.13,.45-.19,.64,.02,0,.11,.06,.21,.11-.08,.11-.14,.21-.2,.31,.02,.07,.03,.14,.05,.22Z"/>
    <path class="cls-1" d="M150.94,73.09c-1.01-.41-2.03-.14-3.06-.06,.12,.78,.18,.71,.56,.57,.55-.2,1.13-.19,1.69-.25,.27-.03,.54,0,.81,0,0-.08,0-.17,0-.25Z"/>
    <path class="cls-1" d="M126.99,73.4c.16,.17,.22,.24,.36,.39-.7,.2-1.33,.39-1.97,.58,0,.06,0,.13,0,.19,.84-.08,1.67-.17,2.56-.26-.1-.12-.17-.19-.37-.41,.43,.1,.72,.17,1.04,.25v-.5c-.49-.07-.99-.14-1.62-.23Z"/>
    <path class="cls-1" d="M85.93,70.83c.22-.12,.44-.24,.65-.37,0,.1-.01,.21-.02,.31,.14,.12,.28,.29,.42,.35,.3,.13,.6,.27,.91,.3,.48,.05,.97,.01,1.47-.2-.12-.07-.25-.18-.37-.21-.68-.16-1.35-.29-2.03-.46-.25-.06-.49-.25-.74-.26-.1,0-.2,.34-.29,.53,0,0,0,0,0,0Z"/>
    <path class="cls-1" d="M21.2,27.15c.91,.27,1.81,.55,2.72,.82,0-.11,.02-.22,.03-.33-.85-1.1-1.79-.96-2.75-.48,0,0,0,0,0,0Z"/>
    <path class="cls-1" d="M101.19,69.91c.13,.11,.25,.21,.38,.33,.32,.3,.57,.85,1.02,.52,.25-.18,.56-.1,.86-.22-.27-.11-.55-.22-.93-.37,.17-.08,.22-.11,.28-.14h0c-.3-.14-.64,.13-.92-.51-.21-.49-.6-.17-.69,.41v-.02Z"/>
    <path class="cls-1" d="M101.2,69.94h-1.44c.17,.2,.4,.36,.52,.65,.35,.81,.65,.91,1.07,.26,.04-.06,.08-.12,.11-.17-.1-.26-.19-.51-.29-.76,0,0,.01,.02,.01,.02Z"/>
    <path class="cls-1" d="M141.77,74.23c.51,.18,1.01,.57,1.57,0-.11-.07-.19-.12-.39-.26h1.41c0-.06,0-.13,0-.19-.62-.12-1.24-.25-1.74-.35-.13,.27-.18,.48-.27,.54-.18,.13-.38,.18-.58,.27,0,0,0,0,0,0Z"/>
    <path class="cls-1" d="M181.48,73.77c-.94,.19-1.91-.31-2.82,.38,0,.1,.01,.19,.02,.29,.94-.12,1.88-.25,2.82-.37,0-.1-.01-.2-.02-.31Z"/>
    <path class="cls-1" d="M110.47,72.39c-.42-.16-.8-.37-1.19-.45-.3-.06-.62-.02-.74,.59,.66,.83,1.28,.24,1.93-.15Z"/>
    <path class="cls-1" d="M30.28,60.15h2.73c-.89-.7-2.59-.73-2.73,0Z"/>
    <path class="cls-1" d="M112.79,72.11c-.66-1.11-1.39-.41-2.11-.22,.69,.62,1.41,.41,2.11,.22Z"/>
    <path class="cls-1" d="M27.32,57.84c.06,.1,.13,.21,.22,.35-.1,.16-.19,.31-.29,.47,.07,.09,.11,.2,.14,.19,.16-.05,.32-.11,.47-.2,.11-.06,.21-.27,.3-.25,.23,.04,.45,.16,.68,.13-.46-.62-.91-1.23-1.52-.69Z"/>
    <path class="cls-1" d="M156.13,72.83c-.19,.21-.38,.42-.57,.63,.02,.1,.05,.21,.07,.31,.78-.13,1.57-.26,2.35-.39-.58-.3-1.2,.02-1.79-.23-.02-.1-.04-.21-.07-.31Z"/>
    <path class="cls-1" d="M166.15,73.31c-.76-.13-1.52-.26-2.39-.41,.21,.21,.32,.33,.52,.54-.13,.09-.22,.15-.24,.16,.35,0,.7,.02,1.06,0,.35-.03,.7-.1,1.05-.16,0-.04,0-.09,0-.13Z"/>
    <path class="cls-1" d="M153.95,70.83h1.44c-.19-.54-.81-.62-1.44,0Z"/>
    <path class="cls-1" d="M12.51,35.56c-.61-.1-1.21-.2-1.83-.29,.17,.74,.79,.82,1.83,.29Z"/>
    <path class="cls-1" d="M35.42,43.76c.2,.01,.4,0,.6,.04,.25,.05,.5,.17,.75,.2,.26,.04,.52,0,.78-.15-.7-.17-1.41-.34-2.11-.51,0,.14-.01,.28-.02,.41Z"/>
    <path class="cls-1" d="M191.57,72.36c.49,.13,.98,.26,1.47,.39,0-.11,.02-.22,.03-.34-.49-.16-.94-.79-1.49-.35,0,.1,0,.19-.01,.29Z"/>
    <path class="cls-1" d="M75.49,70.71q-1.09-.57-1.69,0h1.69Z"/>
    <path class="cls-1" d="M173.87,72.69c-.48-.1-.89-.18-1.36-.28,.42,.86,.72,.92,1.36,.28Z"/>
    <path class="cls-1" d="M30.31,51.05c-.64-.75-1.15-.76-1.3,0h1.3Z"/>
    <path class="cls-1" d="M195.96,73.94c-.61-.38-1.08-.84-1.56,.21,.51-.07,.96-.13,1.56-.21Z"/>
    <path class="cls-1" d="M31.43,19.27c.41,.06,.82,.12,1.24,.18,.03-.12,.06-.28,.07-.35h-1.32c0,.06,0,.12,0,.17Z"/>
    <path class="cls-1" d="M123.99,74.68c.42,.9,.91,.59,1.4,.18-.47-.05-.94-.11-1.41-.16,0,0,0-.02,0-.02Z"/>
    <path class="cls-1" d="M30.65,49.84s.04-.02,.06-.04c-.08-.12-.16-.33-.25-.33-.46-.03-.91-.02-1.37-.02,0,.08,0,.16,0,.24,.52,.05,1.04,.1,1.56,.14Z"/>
    <path class="cls-1" d="M102.8,70.03c.34-.15,.67-.31,1.09-.5-.5-.12-.94-.23-1.45-.35,.15,.35,.25,.6,.36,.86,0,0,0,0,0,0Z"/>
    <path class="cls-1" d="M152.21,74.06c.62-.17,1.24-.35,1.86-.52,0-.06,0-.12-.01-.18-.63,.15-1.25,.3-1.88,.46,.01,.08,.02,.16,.03,.24Z"/>
    <path class="cls-1" d="M28.75,57.79c.6,.53,1.16,.3,1.82,0h-1.82Z"/>
    <path class="cls-1" d="M154.2,69.7c.47,0,.77,.02,1.07-.01,.07,0,.14-.19,.22-.29-.07-.13-.16-.39-.2-.37-.33,.17-.65,.39-1.09,.67Z"/>
    <path class="cls-1" d="M133.68,75.61c.12,.2,.24,.57,.37,.57,.2,.01,.4-.22,.6-.55-.33,0-.65,0-.98,0v-.02Z"/>
    <path class="cls-1" d="M55.33,69.18c.31,.31,.63,.62,.89,.88,.07-.26,.12-.44,.18-.68-.3-.12-.66-.26-1.03-.39-.02,.06-.03,.13-.05,.19Z"/>
    <path class="cls-1" d="M82.01,72.68c-.3-.08-.6-.27-.89-.21-.27,.05-.53,.36-.92,.65h1.8c-.29-.13-.48-.22-.68-.3,0-.05,0-.11,0-.16,.23,0,.46,0,.69,0,0,0-.01,.02-.01,.02Z"/>
  </g>
  <path class="cls-2" d="M159.66,19.54c-1.88,.9-3.89,1.5-6.01,1.78,2.16-1.39,3.82-3.6,4.6-6.23-2.02,1.29-4.27,2.23-6.65,2.74-1.9-2.19-4.63-3.56-7.63-3.56-5.78,0-10.47,5.05-10.47,11.27,0,.88,.1,1.74,.27,2.57-8.69-.47-16.41-4.95-21.57-11.77-.9,1.66-1.42,3.6-1.42,5.66,0,3.91,2.42,7.35,5.23,9.38-1.72-.06-4.17-.57-4.17-1.42v.15c0,5.45,3.04,10,7.82,11.05-.88,.25-2.08,.39-3.04,.39-.67,0-1.47-.07-2.11-.21,1.33,4.48,5.13,7.73,9.71,7.83-3.58,3.01-8.13,4.82-13.03,4.82-.85,0-1.7-.05-2.52-.16,4.63,3.19,10.12,5.06,16.03,5.06,19.26,0,29.78-17.16,29.78-32.05,0-.49-.01-.98-.04-1.46,2.05-1.59,3.82-3.57,5.22-5.83"/>
</svg>