<?xml version="1.0" encoding="UTF-8"?>
<svg id="Layer_1" data-name="Layer 1" xmlns="http://www.w3.org/2000/svg" viewBox="0 0 189.73 30.23">
  <defs>
    <style>
      .cls-1 {
        fill: #fdfefe;
      }
    </style>
  </defs>
  <path class="cls-1" d="M5.21,6.21l-.9,2.63c-.07,0-.12-.01-.14-.04,.12-.48,.26-.96,.43-1.44,.17-.48,.34-.96,.5-1.44,.05-.24,.1-.47,.14-.68,.05-.22,.13-.42,.25-.61,.12-.26,.14-.49,.05-.67-.08-.18-.22-.37-.41-.56-.1-.12-.19-.23-.27-.34-.08-.11-.16-.22-.23-.34-.12-.22-.25-.47-.38-.77-.13-.3-.16-.49-.09-.56,.26-.24,.53-.47,.79-.68,.26-.22,.61-.3,1.04-.25,1.3-.19,2.67-.3,4.12-.32s2.87,.08,4.27,.31c1.39,.23,2.71,.61,3.94,1.13,1.24,.53,2.29,1.24,3.17,2.14,.88,.9,1.51,2.01,1.91,3.33,.4,1.32,.45,2.88,.16,4.68-.12,.7-.25,1.36-.38,1.98-.13,.62-.4,1.22-.81,1.8-.91,1.34-1.93,2.63-3.06,3.87-1.13,1.24-2.35,2.36-3.65,3.38-1.31,1.02-2.69,1.89-4.16,2.61-1.46,.72-2.98,1.24-4.54,1.55-.24,.05-.5,.08-.77,.11-.28,.02-.56,.06-.85,.11-.07,0-.14,.06-.22,.18-.07,.12-.12,.22-.14,.29-.12,.43-.3,.82-.54,1.17-.24,.35-.6,.53-1.08,.56-.5,.05-.97-.01-1.4-.18s-.78-.53-1.04-1.08l-.11-.32c-.48-.17-.74-.43-.79-.77C-.02,26.62,0,26.23,.1,25.8c.12-.7,.23-1.37,.34-2.03,.11-.66,.26-1.33,.45-2-.07,.53-.14,1.05-.2,1.57-.06,.52-.14,1.04-.23,1.57,.05,0,.09,.02,.13,.05,.04,.04,.08,.05,.13,.05,.22-1.61,.5-3.2,.85-4.77,.35-1.57,.74-3.13,1.17-4.68,.43-1.55,.89-3.09,1.37-4.63,.48-1.54,.95-3.08,1.4-4.64l-.29-.07Zm5.9-1.12c-.84,2.9-1.67,5.77-2.48,8.6-.82,2.83-1.64,5.68-2.48,8.53,2.14-.74,4.1-1.75,5.9-3.01,1.8-1.26,3.41-2.78,4.82-4.55,.6-.77,1.12-1.6,1.55-2.48,.43-.89,.71-1.75,.83-2.57,.12-.83,.05-1.59-.22-2.29-.26-.7-.79-1.24-1.58-1.62-.34-.17-.79-.34-1.37-.5-.58-.17-1.18-.29-1.8-.38-.62-.08-1.23-.11-1.82-.09-.59,.02-1.04,.14-1.35,.36Z"/>
  <path class="cls-1" d="M31.52,12.84c.46-.07,.87-.14,1.24-.2,.37-.06,.73-.1,1.06-.13,.82-.07,1.63-.13,2.43-.18,.8-.05,1.59-.1,2.36-.14,.46-.05,.8-.04,1.03,.02,.23,.06,.42,.14,.58,.25,.16,.11,.32,.22,.5,.32,.18,.11,.44,.19,.77,.23,.22,.07,.46,.23,.72,.49,.26,.25,.5,.53,.72,.85,.22,.31,.39,.63,.52,.95,.13,.32,.2,.59,.2,.81,0,.41-.11,.67-.34,.77-.23,.11-.49,.16-.77,.16-.62,.02-1.24,.03-1.84,.02-.6-.01-1.21,0-1.84,.02-1.44,.07-2.86,.18-4.27,.32-1.4,.14-2.79,.49-4.16,1.04-.34,.12-.61,.28-.83,.49-.22,.2-.37,.51-.47,.92-.1,.46-.23,.91-.4,1.37-.17,.46-.35,.94-.54,1.44,.29-.02,.56-.05,.81-.07,.25-.02,.51-.06,.77-.11,.74-.1,1.48-.18,2.2-.25,.72-.07,1.45-.17,2.2-.29,.29-.05,.58-.07,.88-.07h.9c.3,0,.59-.02,.88-.07,.29-.05,.58-.14,.86-.29,.12-.05,.24-.04,.36,.04,.53,.29,1.04,.56,1.55,.81,.5,.25,.98,.55,1.44,.88,.26,.19,.47,.46,.61,.81,.14,.35,.28,.69,.4,1.03,.1,.19,.08,.38-.04,.58-.12,.19-.31,.3-.58,.32-.38,.05-.77,.1-1.15,.14-.38,.05-.77,.06-1.15,.04-1.7,0-3.39,.1-5.06,.31-1.67,.2-3.33,.52-4.99,.95-.22,.05-.43,.1-.65,.16-.22,.06-.42,.15-.61,.27-.12,.07-.23,.18-.32,.32-.1,.14-.14,.28-.14,.4,0,.34-.08,.62-.25,.86-.17,.24-.38,.4-.65,.47-.19,.05-.42,.01-.68-.11-.26-.12-.47-.26-.61-.43-.46-.48-.92-.96-1.39-1.44-.47-.48-.76-1.07-.88-1.76-.05-.19-.16-.38-.32-.58-.17-.19-.23-.37-.18-.54,.07-.17,.22-.29,.45-.36,.23-.07,.41-.19,.56-.36,.29-.29,.47-.61,.54-.97,.14-.72,.29-1.45,.45-2.18,.16-.73,.26-1.47,.31-2.21,.05-.48,.02-.97-.09-1.46-.11-.49-.23-.98-.38-1.46-.07-.26-.1-.47-.09-.63,.01-.16,.17-.29,.49-.41,.26-.05,.5-.15,.72-.31,.22-.16,.44-.31,.68-.45,.05-.05,.07-.13,.05-.23-.01-.11,0-.21,.02-.31,0-.05,0-.11-.02-.18-.01-.07,0-.14,.02-.22,.43-1.15,.87-2.3,1.31-3.44,.44-1.14,.86-2.3,1.24-3.47,.12-.31,.16-.65,.11-1.01-.05-.36-.08-.71-.11-1.04-.02-.26-.07-.54-.13-.83-.06-.29-.11-.59-.16-.9,.24,0,.45,0,.63,.02,.18,.01,.34,0,.49-.02,.19-.02,.35-.05,.49-.09,.13-.04,.19-.19,.16-.45,0-.26,.08-.41,.25-.45,.17-.04,.31,.02,.43,.16,.22,.19,.43,.29,.65,.31,.22,.01,.46,0,.72-.02,1.27-.14,2.54-.25,3.8-.31,1.26-.06,2.53-.03,3.8,.09h.67c.2,0,.41,.01,.63,.04,.48,.02,.94,.08,1.37,.18,.43,.1,.82,.34,1.15,.72,.05,.1,.13,.14,.25,.14,.46,.14,.82,.34,1.1,.58,.28,.24,.5,.52,.67,.85,.17,.32,.29,.67,.38,1.03s.16,.73,.23,1.12c.02,.1-.03,.22-.16,.36-.13,.14-.26,.23-.38,.25-.19,.02-.4,.02-.61,0-.22-.02-.42-.05-.61-.07-1.44-.17-2.89-.28-4.34-.34-1.45-.06-2.9,0-4.34,.16h-.14c-.6,.05-1.13,.18-1.58,.4-.46,.22-.76,.68-.9,1.4-.19,.7-.44,1.38-.76,2.05-.31,.67-.61,1.38-.9,2.12Z"/>
  <path class="cls-1" d="M48.01,6.39c.05-.26,.11-.51,.18-.74,.07-.23,.11-.47,.11-.74-.05-.79,.14-1.31,.58-1.57,.43-.25,.98-.28,1.66-.09,.41,.14,.82,.29,1.22,.45,.41,.16,.8,.35,1.19,.59,.12,.07,.23,.2,.32,.38,.1,.18,.16,.37,.18,.56,.1,.7,.04,1.39-.16,2.07-.2,.68-.37,1.37-.49,2.07l-1.15,5.76v.4l-.43,2.81,.36,.07c.14-.29,.29-.58,.45-.86,.16-.29,.28-.59,.38-.9,.12-.48,.33-.88,.63-1.19,.3-.31,.61-.64,.92-.97,.5-.58,.96-1.2,1.37-1.87,.43-.67,.85-1.34,1.26-2.02,.41-.67,.83-1.33,1.26-1.98,.6-.91,1.21-1.81,1.84-2.68,.62-.88,1.25-1.73,1.87-2.57,.41-.62,.91-.97,1.49-1.03,.59-.06,1.18,.11,1.78,.52,.26,.17,.49,.38,.67,.63,.18,.25,.37,.41,.56,.49,.19,.07,.34,.17,.43,.29,.1,.12,.17,.25,.23,.38,.06,.13,.11,.25,.16,.36,.05,.11,.12,.19,.22,.23-.7,.67-1.4,1.32-2.11,1.94-.71,.62-1.35,1.3-1.93,2.02-1.08,1.3-2.09,2.62-3.04,3.98-.95,1.36-1.9,2.72-2.86,4.09-1.01,1.44-1.86,2.95-2.56,4.54-.7,1.58-1.43,3.17-2.2,4.75-.12,.26-.23,.53-.34,.79-.11,.26-.17,.54-.2,.83-.07,.34-.2,.56-.4,.68-.19,.12-.42,.18-.68,.18-.58,.02-1.14-.04-1.69-.18-.55-.14-1.04-.46-1.48-.94-.07-.12-.13-.19-.18-.22-.34-.12-.58-.28-.74-.49-.16-.2-.27-.43-.34-.68-.07-.25-.13-.51-.16-.77-.04-.26-.08-.53-.13-.79-.07-.38-.12-.8-.14-1.24-.02-.44-.02-.98,0-1.6,.02-.62,.08-1.37,.16-2.23,.08-.86,.21-1.91,.38-3.15,.17-1.24,.38-2.7,.63-4.39s.56-3.68,.92-5.96Z"/>
  <path class="cls-1" d="M68.17,12.84c.46-.07,.87-.14,1.24-.2,.37-.06,.73-.1,1.06-.13,.82-.07,1.63-.13,2.43-.18,.8-.05,1.59-.1,2.36-.14,.46-.05,.8-.04,1.03,.02,.23,.06,.42,.14,.58,.25,.16,.11,.32,.22,.5,.32,.18,.11,.44,.19,.77,.23,.22,.07,.46,.23,.72,.49,.26,.25,.5,.53,.72,.85,.22,.31,.39,.63,.52,.95,.13,.32,.2,.59,.2,.81,0,.41-.11,.67-.34,.77-.23,.11-.49,.16-.77,.16-.62,.02-1.24,.03-1.84,.02-.6-.01-1.21,0-1.84,.02-1.44,.07-2.86,.18-4.27,.32-1.4,.14-2.79,.49-4.16,1.04-.34,.12-.61,.28-.83,.49-.22,.2-.37,.51-.47,.92-.1,.46-.23,.91-.4,1.37-.17,.46-.35,.94-.54,1.44,.29-.02,.56-.05,.81-.07,.25-.02,.51-.06,.77-.11,.74-.1,1.48-.18,2.2-.25,.72-.07,1.45-.17,2.2-.29,.29-.05,.58-.07,.88-.07h.9c.3,0,.59-.02,.88-.07,.29-.05,.58-.14,.86-.29,.12-.05,.24-.04,.36,.04,.53,.29,1.04,.56,1.55,.81,.5,.25,.98,.55,1.44,.88,.26,.19,.47,.46,.61,.81,.14,.35,.28,.69,.4,1.03,.1,.19,.08,.38-.04,.58-.12,.19-.31,.3-.58,.32-.38,.05-.77,.1-1.15,.14-.38,.05-.77,.06-1.15,.04-1.7,0-3.39,.1-5.06,.31-1.67,.2-3.33,.52-4.99,.95-.22,.05-.43,.1-.65,.16-.22,.06-.42,.15-.61,.27-.12,.07-.23,.18-.32,.32-.1,.14-.14,.28-.14,.4,0,.34-.08,.62-.25,.86-.17,.24-.38,.4-.65,.47-.19,.05-.42,.01-.68-.11-.26-.12-.47-.26-.61-.43-.46-.48-.92-.96-1.39-1.44-.47-.48-.76-1.07-.88-1.76-.05-.19-.16-.38-.32-.58-.17-.19-.23-.37-.18-.54,.07-.17,.22-.29,.45-.36,.23-.07,.41-.19,.56-.36,.29-.29,.47-.61,.54-.97,.14-.72,.29-1.45,.45-2.18,.16-.73,.26-1.47,.31-2.21,.05-.48,.02-.97-.09-1.46-.11-.49-.23-.98-.38-1.46-.07-.26-.1-.47-.09-.63,.01-.16,.17-.29,.49-.41,.26-.05,.5-.15,.72-.31,.22-.16,.44-.31,.68-.45,.05-.05,.07-.13,.05-.23-.01-.11,0-.21,.02-.31,0-.05,0-.11-.02-.18-.01-.07,0-.14,.02-.22,.43-1.15,.87-2.3,1.31-3.44,.44-1.14,.86-2.3,1.24-3.47,.12-.31,.16-.65,.11-1.01-.05-.36-.08-.71-.11-1.04-.02-.26-.07-.54-.13-.83-.06-.29-.11-.59-.16-.9,.24,0,.45,0,.63,.02,.18,.01,.34,0,.49-.02,.19-.02,.35-.05,.49-.09,.13-.04,.19-.19,.16-.45,0-.26,.08-.41,.25-.45,.17-.04,.31,.02,.43,.16,.22,.19,.43,.29,.65,.31,.22,.01,.46,0,.72-.02,1.27-.14,2.54-.25,3.8-.31,1.26-.06,2.53-.03,3.8,.09h.67c.2,0,.41,.01,.63,.04,.48,.02,.94,.08,1.37,.18,.43,.1,.82,.34,1.15,.72,.05,.1,.13,.14,.25,.14,.46,.14,.82,.34,1.1,.58,.28,.24,.5,.52,.67,.85,.17,.32,.29,.67,.38,1.03s.16,.73,.23,1.12c.02,.1-.03,.22-.16,.36-.13,.14-.26,.23-.38,.25-.19,.02-.4,.02-.61,0-.22-.02-.42-.05-.61-.07-1.44-.17-2.89-.28-4.34-.34-1.45-.06-2.9,0-4.34,.16h-.14c-.6,.05-1.13,.18-1.58,.4-.46,.22-.76,.68-.9,1.4-.19,.7-.44,1.38-.76,2.05-.31,.67-.61,1.38-.9,2.12Z"/>
  <path class="cls-1" d="M78.29,26.66l3.17-1.58c.12-.05,.21-.14,.27-.27,.06-.13,.1-.26,.13-.38,.1-.79,.19-1.6,.29-2.41,.1-.82,.2-1.63,.32-2.45,.02-.19,.11-.37,.27-.54,.16-.17,.26-.34,.31-.5,.34-.94,.65-1.87,.95-2.79,.3-.92,.59-1.85,.88-2.79-.02,0-.05,0-.07-.02-.02-.01-.06-.02-.11-.02-.14,.38-.29,.76-.43,1.13-.14,.37-.28,.75-.4,1.13-.05,0-.11-.02-.18-.07,.19-.48,.37-.97,.52-1.46,.16-.49,.33-.98,.52-1.46,.46-1.18,.91-2.33,1.37-3.47,.46-1.14,.91-2.29,1.37-3.44,.29-.65,.58-1.28,.86-1.91,.29-.62,.59-1.25,.9-1.87,.1-.17,.2-.28,.32-.32,.29-.17,.62-.28,1.01-.34,.38-.06,.77-.07,1.17-.02,.4,.05,.77,.14,1.13,.27,.36,.13,.65,.31,.86,.52,.34,.38,.5,.76,.5,1.13s-.17,.83-.5,1.39c-1.8,3.29-3.28,6.68-4.43,10.19-.19,.48-.38,.96-.56,1.44s-.37,.97-.56,1.48c-.12,.41-.22,.8-.31,1.19-.08,.38-.17,.77-.27,1.15-.12,.55-.24,1.12-.36,1.69s-.24,1.18-.36,1.8l2.59-.58c1.06-.24,2.11-.46,3.15-.67,1.04-.2,2.09-.4,3.15-.59,.31-.05,.62-.01,.94,.11,.31,.12,.62,.19,.94,.22,.74,.05,1.36,.26,1.85,.65,.49,.38,.88,.88,1.17,1.48,.12,.19,.16,.43,.11,.72-.05,.29-.11,.54-.18,.76-.05,.1-.22,.14-.5,.14s-.53,.01-.72,.04c-.58,0-1.16-.02-1.75-.05-.59-.04-1.16,0-1.71,.13-1.27,.31-2.53,.66-3.76,1.04-1.24,.38-2.49,.77-3.76,1.15-.19,.05-.36,.12-.5,.22-.14,.1-.3,.18-.47,.25l.18,.11c-.1,.12-.18,.23-.25,.34-.07,.11-.17,.19-.29,.23-.14,.1-.3,.18-.47,.25-.17,.07-.34,.1-.5,.07-.48-.07-.92-.02-1.33,.16-.41,.18-.82,.37-1.22,.56-1.01,.48-1.92,.56-2.74,.25-.82-.31-1.42-.96-1.8-1.94-.12-.26-.24-.51-.36-.74-.12-.23-.24-.46-.36-.7Z"/>
  <path class="cls-1" d="M115.44,24.61c-.62,.91-1.32,1.76-2.09,2.56s-1.7,1.39-2.81,1.8c-1.15,.41-2.25,.53-3.29,.38-1.04-.16-2.08-.53-3.11-1.13-.79-.46-1.43-.98-1.91-1.57-.48-.59-.83-1.22-1.04-1.89s-.33-1.39-.34-2.14c-.01-.76,.04-1.53,.16-2.32,.14-.89,.39-1.85,.74-2.9s.75-2.09,1.21-3.13c.46-1.04,.94-2.05,1.46-3.01,.52-.96,1.01-1.81,1.49-2.56,.43-.65,.86-1.29,1.28-1.93,.42-.64,.83-1.27,1.24-1.89,.31-.5,.71-.85,1.19-1.04,.48-.19,.97-.34,1.48-.43,.53-.12,1.06-.19,1.6-.22,.54-.02,1.07-.06,1.6-.11,.05,0,.1,0,.16,.02,.06,.01,.1,0,.13-.02,.43-.41,.87-.58,1.31-.5,.44,.07,.87,.22,1.28,.43,1.34,.7,2.44,1.6,3.28,2.7,.84,1.1,1.36,2.42,1.55,3.96,.1,.74,.04,1.55-.16,2.43-.2,.88-.5,1.78-.88,2.7-.38,.92-.83,1.86-1.35,2.81-.52,.95-1.03,1.85-1.55,2.7-.52,.85-1.01,1.65-1.48,2.39-.47,.74-.85,1.38-1.13,1.91Zm-13.46,.97c-.41-1.08-.61-2.12-.61-3.11s.11-1.99,.32-2.97c.26-.94,.57-1.87,.92-2.79,.35-.92,.68-1.83,.99-2.72-.53,.58-.98,1.42-1.37,2.52-.38,1.1-.66,2.24-.83,3.42-.17,1.18-.22,2.29-.14,3.33,.07,1.04,.31,1.82,.72,2.32Zm4.82-7.67c-.14,.46-.28,.93-.41,1.42-.13,.49-.26,.99-.38,1.49-.19,.77-.26,1.54-.22,2.32,.05,.78,.18,1.55,.4,2.32,.07,.26,.16,.44,.27,.54,.11,.1,.33,.08,.67-.04,.6-.24,1.24-.72,1.93-1.44,.68-.72,1.36-1.57,2.02-2.56,.66-.98,1.3-2.03,1.93-3.15,.62-1.12,1.18-2.2,1.67-3.26,.49-1.06,.89-2.02,1.19-2.88,.3-.86,.47-1.52,.52-1.98,.05-.43,.05-.81,0-1.13-.05-.32-.11-.64-.2-.94-.08-.3-.18-.61-.29-.94-.11-.32-.2-.7-.27-1.13-.02-.22-.09-.38-.2-.49s-.34-.15-.7-.13c-.7,.07-1.21,.34-1.55,.79-.34,.46-.64,.9-.9,1.33-.36,.5-.7,1.13-1.03,1.89-.32,.76-.6,1.55-.83,2.38-.23,.83-.38,1.65-.45,2.47-.07,.82-.04,1.54,.11,2.16,.1,.41,.04,.76-.18,1.06-.22,.3-.55,.43-1.01,.38-.34-.05-.67-.11-1.01-.2-.34-.08-.7-.19-1.08-.31Z"/>
  <path class="cls-1" d="M122.28,16.62c.29,.12,.54,.11,.76-.02,.22-.13,.37-.35,.47-.67,.34-1.06,.67-2.09,1.01-3.11,.34-1.02,.67-2.05,1.01-3.08,.17-.67,.38-1.32,.65-1.94,.19-.41,.2-.77,.04-1.08-.17-.31-.38-.62-.65-.94l-1.76-1.98c.22-.07,.36-.17,.43-.29,.07-.12,.13-.24,.18-.36,.05-.12,.1-.23,.16-.34,.06-.11,.19-.19,.38-.23,.41-.07,.73-.12,.97-.14,.24-.02,.46-.04,.67-.04s.43-.01,.67-.04c.24-.02,.56-.07,.97-.14,.79-.14,1.79-.25,3.01-.32,1.21-.07,2.45-.07,3.71,.02,1.26,.08,2.44,.26,3.55,.52,1.1,.26,1.94,.66,2.52,1.19,2.04,1.87,3.08,3.67,3.13,5.4,.05,1.73-.79,3.53-2.52,5.4-.58,.62-1.19,1.22-1.84,1.8s-1.32,1.07-2.02,1.48c-.82,.48-1.65,.88-2.5,1.19-.85,.31-1.7,.58-2.56,.79-.85,.22-1.69,.4-2.5,.54s-1.61,.3-2.38,.47c-.19,.65-.37,1.3-.54,1.96-.17,.66-.31,1.34-.43,2.03-.12,.67-.22,1.35-.31,2.03-.08,.68-.19,1.37-.31,2.07-.07,.53-.35,.84-.83,.94-.53,.05-1.03,.02-1.51-.07-.48-.1-.95-.35-1.4-.76-.12-.12-.26-.22-.41-.31-.16-.08-.31-.19-.45-.31-.26-.19-.47-.35-.61-.47-.14-.12-.25-.24-.31-.36-.06-.12-.08-.26-.05-.43,.02-.17,.06-.4,.11-.68,.1-.41,.2-.79,.31-1.15,.11-.36,.21-.74,.31-1.15l-.04,.61c.07,0,.14,.01,.22,.04l.47-2.38h-.04c.12-.41,.24-.8,.36-1.17,.12-.37,.24-.76,.36-1.17-.02-.05-.07-.09-.13-.13-.06-.04-.11-.08-.16-.13-.36-.29-.63-.53-.81-.72-.18-.19-.28-.38-.31-.58-.02-.19,.05-.42,.22-.68s.42-.64,.76-1.12Zm6.08,2.88c-.12,.05-.22,.16-.29,.32,.17-.12,.28-.21,.34-.27,.06-.06,.04-.08-.05-.05Zm.79-3.82c1.32-.24,2.51-.59,3.58-1.06,1.07-.47,2.01-1,2.83-1.6,.91-.67,1.69-1.38,2.32-2.12,.64-.74,1.04-1.43,1.21-2.05,.17-.62,.05-1.15-.34-1.57s-1.17-.63-2.32-.63c-.67,0-1.33,.04-1.98,.11-.65,.07-1.28,.2-1.91,.4-.12,.05-.25,.13-.4,.23-.14,.11-.24,.22-.29,.34-.19,.5-.36,1.01-.5,1.51-.14,.5-.31,1.01-.5,1.51-.07,.29-.19,.65-.36,1.08-.17,.43-.34,.88-.5,1.35-.17,.47-.33,.92-.49,1.37-.16,.44-.27,.82-.34,1.13Z"/>
  <path class="cls-1" d="M150.25,12.84c.46-.07,.87-.14,1.24-.2,.37-.06,.73-.1,1.06-.13,.82-.07,1.63-.13,2.43-.18,.8-.05,1.59-.1,2.36-.14,.46-.05,.8-.04,1.03,.02,.23,.06,.42,.14,.58,.25,.16,.11,.32,.22,.5,.32,.18,.11,.44,.19,.77,.23,.22,.07,.46,.23,.72,.49,.26,.25,.5,.53,.72,.85,.22,.31,.39,.63,.52,.95,.13,.32,.2,.59,.2,.81,0,.41-.11,.67-.34,.77-.23,.11-.49,.16-.77,.16-.62,.02-1.24,.03-1.84,.02-.6-.01-1.21,0-1.84,.02-1.44,.07-2.86,.18-4.27,.32-1.4,.14-2.79,.49-4.16,1.04-.34,.12-.61,.28-.83,.49-.22,.2-.37,.51-.47,.92-.1,.46-.23,.91-.4,1.37-.17,.46-.35,.94-.54,1.44,.29-.02,.56-.05,.81-.07,.25-.02,.51-.06,.77-.11,.74-.1,1.48-.18,2.2-.25,.72-.07,1.45-.17,2.2-.29,.29-.05,.58-.07,.88-.07h.9c.3,0,.59-.02,.88-.07,.29-.05,.58-.14,.86-.29,.12-.05,.24-.04,.36,.04,.53,.29,1.04,.56,1.55,.81,.5,.25,.98,.55,1.44,.88,.26,.19,.47,.46,.61,.81,.14,.35,.28,.69,.4,1.03,.1,.19,.08,.38-.04,.58-.12,.19-.31,.3-.58,.32-.38,.05-.77,.1-1.15,.14-.38,.05-.77,.06-1.15,.04-1.7,0-3.39,.1-5.06,.31-1.67,.2-3.33,.52-4.99,.95-.22,.05-.43,.1-.65,.16-.22,.06-.42,.15-.61,.27-.12,.07-.23,.18-.32,.32-.1,.14-.14,.28-.14,.4,0,.34-.08,.62-.25,.86-.17,.24-.38,.4-.65,.47-.19,.05-.42,.01-.68-.11-.26-.12-.47-.26-.61-.43-.46-.48-.92-.96-1.39-1.44-.47-.48-.76-1.07-.88-1.76-.05-.19-.16-.38-.32-.58-.17-.19-.23-.37-.18-.54,.07-.17,.22-.29,.45-.36,.23-.07,.41-.19,.56-.36,.29-.29,.47-.61,.54-.97,.14-.72,.29-1.45,.45-2.18,.16-.73,.26-1.47,.31-2.21,.05-.48,.02-.97-.09-1.46-.11-.49-.23-.98-.38-1.46-.07-.26-.1-.47-.09-.63,.01-.16,.17-.29,.49-.41,.26-.05,.5-.15,.72-.31,.22-.16,.44-.31,.68-.45,.05-.05,.07-.13,.05-.23-.01-.11,0-.21,.02-.31,0-.05,0-.11-.02-.18-.01-.07,0-.14,.02-.22,.43-1.15,.87-2.3,1.31-3.44,.44-1.14,.86-2.3,1.24-3.47,.12-.31,.16-.65,.11-1.01-.05-.36-.08-.71-.11-1.04-.02-.26-.07-.54-.13-.83-.06-.29-.11-.59-.16-.9,.24,0,.45,0,.63,.02,.18,.01,.34,0,.49-.02,.19-.02,.35-.05,.49-.09,.13-.04,.19-.19,.16-.45,0-.26,.08-.41,.25-.45,.17-.04,.31,.02,.43,.16,.22,.19,.43,.29,.65,.31,.22,.01,.46,0,.72-.02,1.27-.14,2.54-.25,3.8-.31,1.26-.06,2.53-.03,3.8,.09h.67c.2,0,.41,.01,.63,.04,.48,.02,.94,.08,1.37,.18,.43,.1,.82,.34,1.15,.72,.05,.1,.13,.14,.25,.14,.46,.14,.82,.34,1.1,.58,.28,.24,.5,.52,.67,.85,.17,.32,.29,.67,.38,1.03s.16,.73,.23,1.12c.02,.1-.03,.22-.16,.36-.13,.14-.26,.23-.38,.25-.19,.02-.4,.02-.61,0-.22-.02-.42-.05-.61-.07-1.44-.17-2.89-.28-4.34-.34-1.45-.06-2.9,0-4.34,.16h-.14c-.6,.05-1.13,.18-1.58,.4-.46,.22-.76,.68-.9,1.4-.19,.7-.44,1.38-.76,2.05-.31,.67-.61,1.38-.9,2.12Z"/>
  <path class="cls-1" d="M185.78,27.42c-.67,.86-1.43,1.4-2.27,1.62-.84,.22-1.72,.25-2.63,.11-.48-.1-.95-.27-1.4-.52-.46-.25-.89-.53-1.3-.85-.55-.43-1.07-.91-1.55-1.42-.48-.52-.94-1.04-1.37-1.57-.74-.96-1.46-1.92-2.14-2.88-.68-.96-1.39-1.92-2.11-2.88-.12-.14-.25-.28-.4-.4-.14-.12-.3-.28-.47-.47-.26,.65-.52,1.26-.76,1.84-.24,.58-.46,1.15-.65,1.73-.46,1.2-.89,2.38-1.31,3.55-.42,1.16-.73,2.36-.92,3.58,0,.14-.09,.28-.27,.4-.18,.12-.34,.2-.49,.25-.19,.05-.41,.03-.67-.05-.25-.08-.5-.19-.76-.32-.25-.13-.49-.28-.7-.45-.22-.17-.37-.32-.47-.47-.1-.17-.18-.32-.25-.47-.07-.14-.18-.25-.32-.32-.31-.14-.47-.32-.49-.52-.01-.2,.02-.4,.09-.59,.19-.67,.4-1.33,.63-1.98,.23-.65,.45-1.28,.67-1.91,.29-.84,.58-1.68,.88-2.52,.3-.84,.59-1.68,.88-2.52,.19-.58,.4-1.14,.63-1.69,.23-.55,.44-1.12,.63-1.69,.31-.98,.62-1.98,.94-2.99,.31-1.01,.6-2,.86-2.99,.05-.19,.07-.39,.07-.59s-.02-.4-.07-.59c0-.1-.07-.18-.22-.25-.14-.07-.28-.12-.4-.14-.41-.07-.72-.2-.94-.4-.22-.19-.4-.43-.54-.72-.12-.19-.26-.38-.41-.58-.16-.19-.32-.38-.49-.58,.1-.12,.18-.22,.25-.31,.07-.08,.16-.17,.25-.27-.12-.07-.25-.14-.38-.2-.13-.06-.29-.14-.49-.23,.17-.12,.28-.34,.32-.65,.05-.31,.1-.55,.14-.72,.05-.22,.37-.43,.95-.63,.59-.2,1.36-.39,2.3-.56,.95-.17,2.03-.31,3.24-.41,1.21-.11,2.48-.17,3.8-.18,1.32-.01,2.65,.03,3.98,.13,1.33,.1,2.59,.28,3.76,.54,.38,.1,.83,.28,1.33,.54,.5,.26,1,.57,1.48,.92,.48,.35,.92,.72,1.33,1.12,.41,.4,.71,.76,.9,1.1,.46,.7,.79,1.47,1.01,2.32,.22,.85,.26,1.71,.14,2.57-.12,.86-.41,1.72-.88,2.56-.47,.84-1.16,1.6-2.07,2.27-.96,.48-1.81,.88-2.54,1.21-.73,.32-1.4,.61-2,.85-.6,.24-1.15,.44-1.64,.61-.49,.17-.98,.32-1.46,.47-.22,.1-.44,.15-.67,.16-.23,.01-.45,.02-.67,.02-.89,.05-1.14,.42-.76,1.12,.34,.5,.67,1.01,1.01,1.53,.34,.52,.7,1.04,1.08,1.57,.31,.43,.63,.88,.95,1.33,.32,.46,.69,.89,1.1,1.3,.43,.48,.91,.92,1.42,1.31s1.03,.8,1.53,1.21c.05,.05,.1,.07,.14,.07s.1,.02,.14,.07c.22,.12,.44,.21,.67,.27,.23,.06,.47,.15,.74,.27Zm-6.52-14.9c.55-.24,1.1-.47,1.64-.7,.54-.23,1.1-.44,1.67-.63,.74-.29,1.42-.62,2.03-1.01,.61-.38,1.04-.96,1.28-1.73,.19-.65,.18-1.24-.04-1.78-.22-.54-.73-.94-1.55-1.21-1.01-.26-1.97-.46-2.88-.58-.91-.12-1.9-.19-2.95-.22-.82-.02-1.63-.03-2.45-.02-.82,.01-1.61,.11-2.38,.31-.12,.05-.23,.13-.32,.23-.1,.11-.13,.2-.11,.27,.1,.7,.07,1.36-.09,1.98-.16,.62-.31,1.26-.45,1.91-.19,.77-.41,1.52-.65,2.27-.24,.74-.46,1.52-.65,2.34,.14,.02,.27,.04,.38,.05,.11,.01,.22,.02,.34,.02,.55-.1,1.1-.17,1.64-.22,.54-.05,1.05-.13,1.53-.25,.55-.12,1.09-.25,1.62-.4,.53-.14,1.07-.3,1.62-.47-.19,.14-.4,.27-.63,.38-.23,.11-.45,.21-.67,.31v.07s.01,.04,.04,.04c.7-.19,1.37-.39,2.02-.59,.65-.2,1.31-.43,1.98-.67-.05-.1-.07-.17-.07-.22-.17,.05-.32,.1-.45,.14-.13,.05-.28,.08-.45,.11-.19,.05-.37,.09-.54,.13-.17,.04-.32,.08-.47,.13Z"/>
</svg>