<?xml version="1.0" encoding="UTF-8"?>
<svg id="Layer_1" data-name="Layer 1" xmlns="http://www.w3.org/2000/svg" viewBox="0 0 111.77 35.44">
  <defs>
    <style>
      .cls-1 {
        fill: #8390a4;
      }
    </style>
  </defs>
  <path class="cls-1" d="M13.21,8.35c-.41,.22-.82,.42-1.22,.61-.41,.19-.82,.35-1.22,.47-.41,.12-.83,.18-1.26,.18s-.88-.08-1.33-.25c-.22-.1-.48-.26-.79-.49-.31-.23-.62-.48-.92-.76-.3-.28-.57-.56-.81-.85-.24-.29-.41-.54-.5-.76,1.22-.26,2.39-.65,3.49-1.17,1.1-.52,2.23-1.03,3.38-1.53,1.15-.48,2.29-.96,3.4-1.44,1.12-.48,2.25-.96,3.4-1.44,.41-.19,.82-.36,1.24-.5,.42-.14,.86-.24,1.31-.29,.24-.05,.5-.02,.79,.09s.54,.22,.76,.34c.26,.14,.5,.32,.7,.52,.2,.2,.4,.4,.59,.59,.12,.12,.25,.25,.4,.4s.28,.3,.4,.47c.26,.41,.32,.74,.16,1.01-.16,.26-.47,.4-.95,.4s-.93,.06-1.35,.18-.84,.26-1.26,.43c-.42,.17-.83,.35-1.22,.54-.4,.19-.81,.36-1.24,.5,.12,.19,.23,.37,.32,.54,.1,.17,.17,.35,.22,.54,.05,.05,.06,.13,.04,.25-.02,.12-.07,.19-.14,.22-.29,.17-.51,.37-.67,.61-.16,.24-.29,.49-.4,.76-.11,.26-.2,.54-.29,.83-.08,.29-.19,.55-.31,.79-.34,.79-.64,1.59-.92,2.39-.28,.8-.56,1.63-.85,2.47-.48,1.39-.94,2.78-1.39,4.18-.44,1.39-.91,2.8-1.39,4.21-.26,.77-.55,1.52-.85,2.27-.3,.74-.59,1.5-.88,2.27-.05,.12-.08,.24-.11,.36-.02,.12-.06,.24-.11,.36-.14,.36-.28,.72-.41,1.08-.13,.36-.31,.7-.52,1.01-.36,.43-.84,.73-1.44,.9-.84,.19-1.67,.22-2.48,.09-.82-.13-1.58-.47-2.3-1.03-.48-.38-.97-.76-1.46-1.13-.49-.37-.94-.79-1.35-1.24-.34-.38-.65-.79-.94-1.22s-.44-.94-.47-1.51v-1.8c0-.65-.02-1.3-.05-1.94S0,20.55,.07,19.91c.05-.53,.14-1.06,.27-1.58,.13-.53,.26-1.07,.38-1.62,.05-.1,.16-.19,.34-.29,.18-.1,.34-.13,.49-.11,.43,.07,.87,.17,1.31,.29,.44,.12,.91,.24,1.39,.36,.19,.05,.38,.11,.56,.2,.18,.08,.37,.15,.56,.2,.31,.05,.52,.16,.61,.34,.1,.18,.13,.4,.11,.67-.05,.48-.07,.94-.07,1.39s-.02,.91-.07,1.39c-.02,.22-.09,.44-.2,.67-.11,.23-.17,.45-.2,.67-.07,.86-.07,1.73,.02,2.59,.08,.86,.26,1.75,.52,2.66,.26-.41,.51-.79,.74-1.13,.23-.35,.41-.71,.56-1.1,.55-1.32,1.07-2.63,1.57-3.94,.49-1.31,.97-2.63,1.42-3.98,.5-1.49,.98-2.96,1.44-4.43,.46-1.46,.92-2.93,1.4-4.39,.02-.05,.03-.1,.02-.14-.01-.05-.02-.13-.02-.25Zm-1.48,6.26s.1,.04,.14,.04,.1,.02,.14,.07c.17-.65,.36-1.26,.58-1.84h-.47c-.1,.29-.17,.58-.22,.86-.05,.29-.11,.58-.18,.86Z"/>
  <path class="cls-1" d="M13.61,28.01c.26-.41,.54-.8,.83-1.19,.29-.38,.56-.78,.83-1.19,.6-.91,1.21-1.8,1.82-2.66,.61-.86,1.21-1.75,1.78-2.66,.67-1.08,1.31-2.15,1.93-3.22,.61-1.07,1.24-2.14,1.89-3.22l4.36-7.6c.22-.38,.4-.77,.54-1.17s.31-.77,.5-1.13c.07-.1,.17-.17,.31-.23,.13-.06,.26-.13,.38-.2,.07-.02,.14-.03,.2-.02,.06,.01,.13,0,.2-.02,.65-.07,1.13-.31,1.46-.72,.32-.41,.46-.95,.41-1.62-.05-.34,0-.56,.14-.67s.37-.19,.68-.23c.29,0,.58-.02,.86-.07,.29-.05,.6-.1,.94-.14,.31-.07,.63-.03,.95,.13,.32,.16,.61,.38,.86,.67,.25,.29,.44,.61,.56,.95,.12,.35,.13,.68,.04,.99-.38,1.22-.8,2.43-1.24,3.62-.44,1.19-.85,2.38-1.21,3.58-.65,2.16-1.31,4.29-2,6.39-.68,2.1-1.22,4.24-1.6,6.43-.05,.41,.02,.77,.22,1.08,.19,.41,.25,.74,.16,.99-.08,.25-.29,.5-.63,.74-.24,.17-.36,.38-.36,.65-.1,.98-.17,1.96-.22,2.92-.05,.96-.11,1.92-.18,2.88-.02,.29-.06,.59-.11,.9-.05,.31-.24,.54-.58,.68-.34,.14-.68,.25-1.04,.31-.36,.06-.71-.08-1.04-.41-.14-.14-.33-.25-.56-.31-.23-.06-.4-.16-.52-.31-.19-.12-.33-.29-.41-.5-.08-.22-.17-.42-.27-.61l.07-.07c.07-.07,.13-.12,.18-.14l.07-5.11c-.67,.19-1.34,.4-2.02,.61-.67,.22-1.36,.42-2.05,.61-.05,0-.11,.02-.18,.07-.07,.05-.13,.05-.18,0-.5-.14-.87-.08-1.1,.2-.23,.28-.44,.58-.63,.92-.34,.6-.81,.97-1.42,1.1-.61,.13-1.28-.08-2-.63-.29-.22-.56-.43-.81-.65s-.52-.44-.81-.68Zm13.25-11.95s-.05-.04-.09-.04-.07-.01-.09-.04l-3.89,6.55,2.48-.54,.04,.04s.1,.07,.14,.07l.68-3.1c.12-.5,.24-1,.36-1.49,.12-.49,.24-.98,.36-1.46Z"/>
  <path class="cls-1" d="M39.46,9.25c.58-.48,1.13-.99,1.66-1.53,.53-.54,1.1-1.03,1.73-1.46,.72-.55,1.48-1.06,2.27-1.53,.79-.47,1.6-.92,2.41-1.35,.86-.46,1.82-.86,2.86-1.22,1.04-.36,2.11-.59,3.19-.7s2.15-.05,3.22,.18c1.07,.23,2.05,.68,2.93,1.35,.19,.17,.35,.34,.47,.5,.12,.17,.23,.35,.32,.54,.02,.05-.09,.24-.34,.58-.25,.34-.57,.73-.95,1.19-.38,.46-.8,.92-1.26,1.4-.46,.48-.9,.88-1.33,1.19-.22,.17-.41,.26-.59,.27-.18,.01-.34,0-.49-.04-.14-.04-.26-.09-.34-.16-.08-.07-.14-.11-.16-.11-.55-.29-1.03-.53-1.44-.72-.41-.19-.8-.32-1.17-.4-.37-.07-.76-.07-1.15,.02-.4,.08-.85,.27-1.35,.56-1.58,.94-3.12,2.03-4.61,3.28-1.49,1.25-2.82,2.6-4,4.07-1.18,1.46-2.11,2.99-2.81,4.59-.7,1.6-1.04,3.2-1.04,4.81,0,1.08,.22,1.8,.67,2.16,.44,.36,1,.52,1.67,.47,.77-.07,1.68-.35,2.74-.83,1.06-.48,2.11-1.04,3.15-1.69,1.04-.65,2.01-1.34,2.9-2.07,.89-.73,1.55-1.39,1.98-1.96-.02-.05-.05-.08-.07-.11s-.04-.05-.04-.07c-.38,.1-.76,.2-1.13,.32-.37,.12-.75,.24-1.13,.36-.34,.12-.68,.18-1.04,.18s-.72-.04-1.08-.13c-.36-.08-.7-.21-1.01-.38-.31-.17-.56-.37-.76-.61l-1.12-1.44v-.2c0-.11,0-.23,.02-.36,.01-.13,.02-.25,.04-.36,.01-.11,.03-.16,.05-.16,1.56-.36,3.01-.73,4.36-1.1,1.34-.37,2.57-.7,3.69-.99s2.11-.53,2.99-.72,1.63-.3,2.25-.32c.34-.02,.65-.06,.94-.11,.29-.05,.57-.08,.85-.09,.28-.01,.56,.02,.85,.09,.29,.07,.6,.22,.94,.43,.17,.12,.29,.27,.38,.45,.08,.18,.16,.37,.22,.58,.06,.2,.11,.41,.14,.63s.09,.41,.16,.58c.19,.41,.2,.73,.04,.95-.17,.23-.49,.37-.97,.41-.72,.05-1.43,.1-2.14,.14-.71,.05-1.43,.1-2.18,.14-.43,.07-.58,.3-.43,.68,.22,.79,.26,1.54,.13,2.23-.13,.7-.47,1.38-1.03,2.05-.86,1.13-1.82,2.14-2.88,3.04-1.06,.9-2.21,1.72-3.46,2.47-.98,.62-2.02,1.11-3.1,1.46-1.08,.35-2.22,.47-3.42,.38-1.15-.05-2.22-.26-3.2-.63-.98-.37-1.85-1-2.59-1.89-.19-.26-.42-.52-.68-.77-.26-.25-.53-.51-.79-.77-.67-.77-1.11-1.6-1.31-2.48-.2-.89-.26-1.8-.16-2.74,.05-.34,.11-.67,.18-1.01,.07-.34,.13-.67,.18-1.01l-.29,3.78h.32c-.07-1.66,.13-3.25,.59-4.79,.47-1.54,1.19-3.05,2.18-4.54-.29,.1-.49,.14-.61,.14,.19-.34,.37-.67,.54-.99,.17-.32,.36-.62,.58-.88,.41-.55,.85-1.09,1.31-1.6,.47-.52,.93-1.04,1.39-1.57-.19,.43-.4,.77-.61,1.01l.22,.14,1.66-1.66c-.1-.02-.16-.06-.18-.11-.14,.12-.29,.22-.43,.29-.14,.07-.29,.16-.43,.25Zm-2.77,3.35c.1,.05,.18,.11,.25,.18l1.58-2.05s-.06-.02-.11-.07l-1.73,1.94Z"/>
  <path class="cls-1" d="M66.42,9.25c.58-.48,1.13-.99,1.66-1.53,.53-.54,1.1-1.03,1.73-1.46,.72-.55,1.48-1.06,2.27-1.53,.79-.47,1.6-.92,2.41-1.35,.86-.46,1.82-.86,2.86-1.22,1.04-.36,2.11-.59,3.19-.7s2.15-.05,3.22,.18c1.07,.23,2.05,.68,2.93,1.35,.19,.17,.35,.34,.47,.5,.12,.17,.23,.35,.32,.54,.02,.05-.09,.24-.34,.58-.25,.34-.57,.73-.95,1.19-.38,.46-.8,.92-1.26,1.4-.46,.48-.9,.88-1.33,1.19-.22,.17-.41,.26-.59,.27-.18,.01-.34,0-.49-.04-.14-.04-.26-.09-.34-.16-.08-.07-.14-.11-.16-.11-.55-.29-1.03-.53-1.44-.72-.41-.19-.8-.32-1.17-.4-.37-.07-.76-.07-1.15,.02-.4,.08-.85,.27-1.35,.56-1.58,.94-3.12,2.03-4.61,3.28-1.49,1.25-2.82,2.6-4,4.07-1.18,1.46-2.11,2.99-2.81,4.59-.7,1.6-1.04,3.2-1.04,4.81,0,1.08,.22,1.8,.67,2.16,.44,.36,1,.52,1.67,.47,.77-.07,1.68-.35,2.74-.83,1.06-.48,2.11-1.04,3.15-1.69,1.04-.65,2.01-1.34,2.9-2.07,.89-.73,1.55-1.39,1.98-1.96-.02-.05-.05-.08-.07-.11s-.04-.05-.04-.07c-.38,.1-.76,.2-1.13,.32-.37,.12-.75,.24-1.13,.36-.34,.12-.68,.18-1.04,.18s-.72-.04-1.08-.13c-.36-.08-.7-.21-1.01-.38-.31-.17-.56-.37-.76-.61l-1.12-1.44v-.2c0-.11,0-.23,.02-.36,.01-.13,.02-.25,.04-.36,.01-.11,.03-.16,.05-.16,1.56-.36,3.01-.73,4.36-1.1,1.34-.37,2.57-.7,3.69-.99s2.11-.53,2.99-.72,1.63-.3,2.25-.32c.34-.02,.65-.06,.94-.11,.29-.05,.57-.08,.85-.09,.28-.01,.56,.02,.85,.09,.29,.07,.6,.22,.94,.43,.17,.12,.29,.27,.38,.45,.08,.18,.16,.37,.22,.58,.06,.2,.11,.41,.14,.63s.09,.41,.16,.58c.19,.41,.2,.73,.04,.95-.17,.23-.49,.37-.97,.41-.72,.05-1.43,.1-2.14,.14-.71,.05-1.43,.1-2.18,.14-.43,.07-.58,.3-.43,.68,.22,.79,.26,1.54,.13,2.23-.13,.7-.47,1.38-1.03,2.05-.86,1.13-1.82,2.14-2.88,3.04-1.06,.9-2.21,1.72-3.46,2.47-.98,.62-2.02,1.11-3.1,1.46-1.08,.35-2.22,.47-3.42,.38-1.15-.05-2.22-.26-3.2-.63-.98-.37-1.85-1-2.59-1.89-.19-.26-.42-.52-.68-.77-.26-.25-.53-.51-.79-.77-.67-.77-1.11-1.6-1.31-2.48-.2-.89-.26-1.8-.16-2.74,.05-.34,.11-.67,.18-1.01,.07-.34,.13-.67,.18-1.01l-.29,3.78h.32c-.07-1.66,.13-3.25,.59-4.79,.47-1.54,1.19-3.05,2.18-4.54-.29,.1-.49,.14-.61,.14,.19-.34,.37-.67,.54-.99,.17-.32,.36-.62,.58-.88,.41-.55,.85-1.09,1.31-1.6,.47-.52,.93-1.04,1.39-1.57-.19,.43-.4,.77-.61,1.01l.22,.14,1.66-1.66c-.1-.02-.16-.06-.18-.11-.14,.12-.29,.22-.43,.29-.14,.07-.29,.16-.43,.25Zm-2.77,3.35c.1,.05,.18,.11,.25,.18l1.58-2.05s-.06-.02-.11-.07l-1.73,1.94Z"/>
  <path class="cls-1" d="M107.1,2.95c.17-.17,.38-.25,.65-.25s.56,.05,.88,.14c.32,.1,.65,.23,.99,.4,.34,.17,.65,.36,.94,.58,.7,.48,1.09,.92,1.19,1.33,.1,.41-.1,.95-.58,1.62-.46,.62-.89,1.25-1.31,1.87s-.86,1.25-1.31,1.87c-.55,.77-1.11,1.53-1.67,2.29-.56,.76-1.11,1.53-1.64,2.32-.67,1.03-1.34,2.08-2,3.13-.66,1.06-1.25,2.15-1.78,3.28-.58,1.18-1.09,2.39-1.53,3.64-.44,1.25-.87,2.51-1.28,3.78-.19,.65-.34,1.32-.43,2.02-.1,.7-.19,1.38-.29,2.05-.02,.19,.01,.38,.11,.56,.1,.18,.17,.37,.22,.56,.02,.12,.05,.26,.07,.43,.02,.17,.01,.32-.04,.47-.02,.1-.11,.16-.25,.18-.14,.02-.28,.06-.4,.11-.89,.26-1.68,.12-2.38-.43-.58-.48-1.15-.98-1.71-1.49-.56-.52-.92-1.19-1.06-2.03v-.29c0-.1-.01-.19-.04-.29,.26,0,.37-.07,.31-.22-.06-.14-.05-.26,.02-.36,.05-.07,.1-.15,.14-.23,.05-.08,.08-.17,.11-.27,.1-.29,.17-.61,.22-.97,.05-.55,.16-1.05,.32-1.49,.17-.44,.4-.91,.68-1.39,.34-.48,.59-1,.76-1.57,.17-.56,.4-1.1,.68-1.6,.6-1.03,1.2-2.05,1.8-3.06,.6-1.01,1.21-2.02,1.84-3.02l1.15-1.94c-.17,.12-.31,.21-.41,.27-.11,.06-.2,.13-.27,.2-.84,.98-1.67,1.95-2.5,2.9-.83,.95-1.67,1.91-2.54,2.9-.24,.31-.46,.62-.67,.92-.2,.3-.44,.62-.7,.95-.38,.53-.87,.86-1.46,.99-.59,.13-1.16,0-1.71-.38-.41-.31-.8-.63-1.17-.95-.37-.32-.73-.69-1.06-1.1-.19-.22-.3-.48-.32-.79s-.05-.61-.07-.9c-.07-.55-.11-1.09-.13-1.62s0-1.04,.05-1.55c.05,.77,.11,1.54,.18,2.3,.07,.77,.14,1.54,.22,2.3h.07c-.02-.77-.04-1.52-.05-2.27-.01-.74-.02-1.49-.02-2.23,0-.29,.01-.56,.04-.83,.02-.26,.06-.53,.11-.79,.02-.34,.04-.67,.05-1.01,.01-.34,.04-.66,.09-.97,.12-.65,.25-1.3,.38-1.94s.29-1.3,.49-1.94c.31-1.01,.63-2.01,.95-3.01,.32-1,.63-2.01,.92-3.04,.12-.34,.26-.56,.43-.67,.17-.11,.42-.09,.76,.05,.22,.05,.44,.06,.68,.04,.24-.02,.48-.04,.72-.04h.34c.11,0,.21,.02,.31,.07,.24,.19,.47,.38,.7,.58,.23,.19,.46,.38,.7,.58,.22,.24,.33,.48,.34,.72,.01,.24-.03,.49-.13,.76-.36,.96-.72,1.91-1.08,2.84-.36,.94-.7,1.91-1.01,2.92-.24,.7-.45,1.4-.63,2.12-.18,.72-.35,1.45-.52,2.2-.05,.19-.08,.38-.09,.58-.01,.19-.03,.4-.05,.61,.89-.82,1.93-1.75,3.13-2.81,1.2-1.06,2.46-2.17,3.78-3.35,1.32-1.18,2.65-2.38,4-3.62,1.34-1.24,2.6-2.47,3.78-3.69Z"/>
</svg>