<?xml version="1.0" encoding="UTF-8"?>
<svg id="Layer_1" data-name="Layer 1" xmlns="http://www.w3.org/2000/svg" viewBox="0 0 114.14 33.94">
  <defs>
    <style>
      .cls-1 {
        fill: #8390a4;
      }
    </style>
  </defs>
  <path class="cls-1" d="M25.14,16.49c.05-.19,.1-.38,.14-.58,.05-.19,.1-.38,.14-.58,.05-.12,.08-.25,.09-.38,.01-.13,.04-.26,.09-.38,.07-.02,.16-.04,.27-.04s.17-.02,.2-.07c.12-.26,.22-.53,.29-.81,.07-.28,.16-.55,.25-.81l-.04-.07h-.04l-.5,.68,1.44-3.6s0-.09,.02-.13c.01-.04,.03-.08,.05-.13l-.14-.11-2.41,2.63c-.7,.79-1.38,1.59-2.05,2.39-.67,.8-1.32,1.63-1.94,2.47-.84,1.13-1.61,2.29-2.32,3.47-.71,1.19-1.29,2.47-1.75,3.83-.19,.62-.57,1.07-1.13,1.33-.56,.26-1.19,.28-1.89,.04-.55-.14-1.09-.34-1.6-.58-.52-.24-1.04-.49-1.57-.76-.12-.05-.25-.16-.38-.32-.13-.17-.21-.32-.23-.47-.05-.36-.1-.73-.14-1.12-.05-.38-.05-.74,0-1.08,.12-.74,.1-1.46-.05-2.16-.16-.7-.26-1.4-.31-2.12,0-.6-.12-1.18-.36-1.73-.07,.19-.15,.38-.23,.58-.08,.19-.15,.38-.2,.58l-3.13,11.05c-.14,.53-.28,1.04-.4,1.55-.12,.5-.25,1.02-.4,1.55-.07,.29-.22,.53-.43,.74-.22,.2-.46,.35-.74,.45-.28,.1-.57,.14-.88,.13-.31-.01-.59-.1-.83-.27-.5-.29-.92-.56-1.24-.83-.32-.26-.55-.56-.67-.88C0,29.64-.03,29.28,.03,28.89c.06-.4,.2-.86,.41-1.39,.14-.29,.23-.59,.25-.92s.1-.62,.22-.88c.17-.24,.27-.47,.31-.68,.04-.22,.08-.47,.13-.76,.05-.53,.17-1.03,.36-1.51,.19-.48,.37-.96,.54-1.44-.02,.12-.04,.22-.05,.31s-.04,.19-.09,.31c.48-.34,.65-.83,.5-1.48,0-.12-.01-.23-.04-.34s-.02-.21,0-.31l1.94-6.59,1.66-5.51c0-.1,0-.2,.02-.31,.01-.11,.02-.22,.02-.34,.02-.29,.04-.52,.05-.68,.01-.17,.05-.29,.13-.36s.19-.12,.34-.14c.16-.02,.37-.04,.63-.04-.02-.12-.06-.23-.11-.32-.05-.1-.08-.2-.11-.32,.14-.05,.28-.09,.4-.13,.12-.04,.24-.05,.36-.05,.55,.05,1.11,.1,1.67,.16,.56,.06,1.12,.13,1.67,.2,.67,.1,1.2,.34,1.58,.74,.38,.4,.67,.87,.86,1.42,.12,.31,.18,.62,.18,.92s-.02,.59-.05,.88c-.04,.29-.08,.58-.13,.88-.05,.3-.05,.59,0,.88,.07,.67,.14,1.34,.22,2.02,.07,.67,.17,1.34,.29,2.02,.1,.41,.2,.82,.31,1.24,.11,.42,.22,.87,.34,1.35,.24-.34,.47-.66,.7-.97,.23-.31,.46-.64,.7-.97,.77-.94,1.52-1.88,2.25-2.83,.73-.95,1.48-1.88,2.25-2.79,.89-1.03,1.79-2.05,2.7-3.04,.91-1,1.81-2.01,2.7-3.04,.36-.43,.77-.81,1.24-1.13,.47-.32,.98-.59,1.53-.81,.12-.05,.25-.06,.4-.04,.14,.02,.28,.07,.4,.14,.58,.22,1.15,.44,1.71,.67,.56,.23,1.13,.46,1.71,.7,.46,.24,.82,.63,1.08,1.17s.31,1.05,.14,1.53c-.34,.98-.7,1.95-1.1,2.9-.4,.95-.79,1.91-1.17,2.9-.62,1.61-1.26,3.2-1.91,4.79s-1.27,3.19-1.87,4.82c-.41,1.15-.8,2.3-1.17,3.46-.37,1.15-.71,2.3-1.03,3.46-.14,.5-.21,1.04-.2,1.6,.01,.56-.02,1.1-.09,1.6-.02,.17-.13,.32-.31,.47s-.37,.24-.56,.29c-.48,.14-.95,.17-1.4,.07-.46-.1-.9-.28-1.33-.54-.58-.31-1.16-.62-1.76-.94-.19-.72-.23-1.42-.13-2.09,.11-.67,.31-1.34,.59-2.02l-.36,3.17c.12-.41,.23-.8,.32-1.17,.1-.37,.2-.75,.32-1.13l3.13-9.18c.05-.14,.06-.3,.04-.47-.02-.17-.05-.35-.07-.54,.12-.02,.23-.08,.32-.18v-.14l.5-.94Z"/>
  <path class="cls-1" d="M28.27,28.01c.26-.41,.54-.8,.83-1.19,.29-.38,.56-.78,.83-1.19,.6-.91,1.21-1.8,1.82-2.66,.61-.86,1.21-1.75,1.78-2.66,.67-1.08,1.31-2.15,1.93-3.22,.61-1.07,1.24-2.14,1.89-3.22l4.36-7.6c.22-.38,.4-.77,.54-1.17s.31-.77,.5-1.13c.07-.1,.17-.17,.31-.23,.13-.06,.26-.13,.38-.2,.07-.02,.14-.03,.2-.02,.06,.01,.13,0,.2-.02,.65-.07,1.13-.31,1.46-.72,.32-.41,.46-.95,.41-1.62-.05-.34,0-.56,.14-.67s.37-.19,.68-.23c.29,0,.58-.02,.86-.07,.29-.05,.6-.1,.94-.14,.31-.07,.63-.03,.95,.13,.32,.16,.61,.38,.86,.67,.25,.29,.44,.61,.56,.95,.12,.35,.13,.68,.04,.99-.38,1.22-.8,2.43-1.24,3.62-.44,1.19-.85,2.38-1.21,3.58-.65,2.16-1.31,4.29-2,6.39-.68,2.1-1.22,4.24-1.6,6.43-.05,.41,.02,.77,.22,1.08,.19,.41,.25,.74,.16,.99-.08,.25-.29,.5-.63,.74-.24,.17-.36,.38-.36,.65-.1,.98-.17,1.96-.22,2.92-.05,.96-.11,1.92-.18,2.88-.02,.29-.06,.59-.11,.9-.05,.31-.24,.54-.58,.68-.34,.14-.68,.25-1.04,.31-.36,.06-.71-.08-1.04-.41-.14-.14-.33-.25-.56-.31-.23-.06-.4-.16-.52-.31-.19-.12-.33-.29-.41-.5-.08-.22-.17-.42-.27-.61l.07-.07c.07-.07,.13-.12,.18-.14l.07-5.11c-.67,.19-1.34,.4-2.02,.61-.67,.22-1.36,.42-2.05,.61-.05,0-.11,.02-.18,.07-.07,.05-.13,.05-.18,0-.5-.14-.87-.08-1.1,.2-.23,.28-.44,.58-.63,.92-.34,.6-.81,.97-1.42,1.1-.61,.13-1.28-.08-2-.63-.29-.22-.56-.43-.81-.65s-.52-.44-.81-.68Zm13.25-11.95s-.05-.04-.09-.04-.07-.01-.09-.04l-3.89,6.55,2.48-.54,.04,.04s.1,.07,.14,.07l.68-3.1c.12-.5,.24-1,.36-1.49,.12-.49,.24-.98,.36-1.46Z"/>
  <path class="cls-1" d="M69.6,29.3c-.67,.86-1.43,1.4-2.27,1.62-.84,.22-1.72,.25-2.63,.11-.48-.1-.95-.27-1.4-.52-.46-.25-.89-.53-1.3-.85-.55-.43-1.07-.91-1.55-1.42-.48-.52-.94-1.04-1.37-1.57-.74-.96-1.46-1.92-2.14-2.88-.68-.96-1.39-1.92-2.11-2.88-.12-.14-.25-.28-.4-.4-.14-.12-.3-.28-.47-.47-.26,.65-.52,1.26-.76,1.84-.24,.58-.46,1.15-.65,1.73-.46,1.2-.89,2.38-1.31,3.55-.42,1.16-.73,2.36-.92,3.58,0,.14-.09,.28-.27,.4-.18,.12-.34,.2-.49,.25-.19,.05-.41,.03-.67-.05-.25-.08-.5-.19-.76-.32-.25-.13-.49-.28-.7-.45-.22-.17-.37-.32-.47-.47-.1-.17-.18-.32-.25-.47-.07-.14-.18-.25-.32-.32-.31-.14-.47-.32-.49-.52-.01-.2,.02-.4,.09-.59,.19-.67,.4-1.33,.63-1.98,.23-.65,.45-1.28,.67-1.91,.29-.84,.58-1.68,.88-2.52,.3-.84,.59-1.68,.88-2.52,.19-.58,.4-1.14,.63-1.69,.23-.55,.44-1.12,.63-1.69,.31-.98,.62-1.98,.94-2.99,.31-1.01,.6-2,.86-2.99,.05-.19,.07-.39,.07-.59s-.02-.4-.07-.59c0-.1-.07-.18-.22-.25-.14-.07-.28-.12-.4-.14-.41-.07-.72-.2-.94-.4-.22-.19-.4-.43-.54-.72-.12-.19-.26-.38-.41-.58-.16-.19-.32-.38-.49-.58,.1-.12,.18-.22,.25-.31,.07-.08,.16-.17,.25-.27-.12-.07-.25-.14-.38-.2-.13-.06-.29-.14-.49-.23,.17-.12,.28-.34,.32-.65,.05-.31,.1-.55,.14-.72,.05-.22,.37-.43,.95-.63,.59-.2,1.36-.39,2.3-.56,.95-.17,2.03-.31,3.24-.41,1.21-.11,2.48-.17,3.8-.18,1.32-.01,2.65,.03,3.98,.13,1.33,.1,2.59,.28,3.76,.54,.38,.1,.83,.28,1.33,.54,.5,.26,1,.57,1.48,.92,.48,.35,.92,.72,1.33,1.12,.41,.4,.71,.76,.9,1.1,.46,.7,.79,1.47,1.01,2.32,.22,.85,.26,1.71,.14,2.57-.12,.86-.41,1.72-.88,2.56-.47,.84-1.16,1.6-2.07,2.27-.96,.48-1.81,.88-2.54,1.21-.73,.32-1.4,.61-2,.85-.6,.24-1.15,.44-1.64,.61-.49,.17-.98,.32-1.46,.47-.22,.1-.44,.15-.67,.16-.23,.01-.45,.02-.67,.02-.89,.05-1.14,.42-.76,1.12,.34,.5,.67,1.01,1.01,1.53,.34,.52,.7,1.04,1.08,1.57,.31,.43,.63,.88,.95,1.33,.32,.46,.69,.89,1.1,1.3,.43,.48,.91,.92,1.42,1.31s1.03,.8,1.53,1.21c.05,.05,.1,.07,.14,.07s.1,.02,.14,.07c.22,.12,.44,.21,.67,.27,.23,.06,.47,.15,.74,.27Zm-6.52-14.9c.55-.24,1.1-.47,1.64-.7,.54-.23,1.1-.44,1.67-.63,.74-.29,1.42-.62,2.03-1.01,.61-.38,1.04-.96,1.28-1.73,.19-.65,.18-1.24-.04-1.78-.22-.54-.73-.94-1.55-1.21-1.01-.26-1.97-.46-2.88-.58-.91-.12-1.9-.19-2.95-.22-.82-.02-1.63-.03-2.45-.02-.82,.01-1.61,.11-2.38,.31-.12,.05-.23,.13-.32,.23-.1,.11-.13,.2-.11,.27,.1,.7,.07,1.36-.09,1.98-.16,.62-.31,1.26-.45,1.91-.19,.77-.41,1.52-.65,2.27-.24,.74-.46,1.52-.65,2.34,.14,.02,.27,.04,.38,.05,.11,.01,.22,.02,.34,.02,.55-.1,1.1-.17,1.64-.22,.54-.05,1.05-.13,1.53-.25,.55-.12,1.09-.25,1.62-.4,.53-.14,1.07-.3,1.62-.47-.19,.14-.4,.27-.63,.38-.23,.11-.45,.21-.67,.31v.07s.01,.04,.04,.04c.7-.19,1.37-.39,2.02-.59,.65-.2,1.31-.43,1.98-.67-.05-.1-.07-.17-.07-.22-.17,.05-.32,.1-.45,.14-.13,.05-.28,.08-.45,.11-.19,.05-.37,.09-.54,.13-.17,.04-.32,.08-.47,.13Z"/>
  <path class="cls-1" d="M86.3,2.95c.43,.05,.83,.08,1.19,.09,.36,.01,.71,.05,1.04,.11,.34,.06,.68,.15,1.03,.27,.35,.12,.73,.32,1.13,.61,.53,.38,1.04,.77,1.53,1.15,.49,.38,.87,.92,1.13,1.62,.05,.17,.02,.52-.07,1.06-.1,.54-.23,1.11-.41,1.71-.18,.6-.38,1.15-.61,1.66-.23,.5-.44,.82-.63,.94-.14,.07-.36,.09-.65,.05-.29-.04-.59-.11-.92-.22-.32-.11-.62-.24-.88-.4-.26-.16-.44-.32-.54-.49-.17-.22-.22-.58-.14-1.08,.07-.5,.16-1,.27-1.48,.11-.48,.19-.88,.23-1.21,.05-.32-.02-.43-.22-.31-1.49,.91-2.8,2-3.94,3.26-1.14,1.26-2.15,2.68-3.04,4.27-.48,.91-.95,1.83-1.4,2.75-.46,.92-.85,1.89-1.19,2.9-.26,.89-.51,1.78-.74,2.68-.23,.9-.34,1.87-.34,2.9,0,.55,.08,.89,.25,1.03,.17,.13,.49,.14,.97,.02,1.13-.36,2.17-.88,3.11-1.55,.95-.67,1.88-1.39,2.79-2.16,.43-.34,.82-.72,1.17-1.15,.35-.43,.73-.85,1.13-1.26,.19-.19,.4-.26,.61-.22,.36,.05,.7,.11,1.03,.18,.32,.07,.65,.13,.99,.18,.17,.05,.37,.17,.61,.36,.24,.19,.47,.41,.7,.65,.23,.24,.43,.49,.59,.76,.17,.26,.26,.48,.29,.65,.02,.22-.02,.43-.13,.63-.11,.2-.22,.37-.34,.49-.77,.7-1.54,1.39-2.32,2.09-.78,.7-1.59,1.37-2.43,2.02-.48,.36-.99,.7-1.53,1.01-.54,.31-1.11,.58-1.71,.79-1.2,.43-2.39,.56-3.58,.4-1.19-.17-2.37-.73-3.55-1.69-.31-.26-.6-.58-.86-.94-.26-.36-.54-.71-.83-1.04-.05-.07-.08-.15-.11-.23-.02-.08-.06-.14-.11-.16-.43-.43-.74-.88-.94-1.33-.19-.46-.31-.92-.36-1.39-.05-.47-.04-.94,.02-1.4,.06-.47,.13-.94,.2-1.42,.29-1.73,.74-3.37,1.37-4.93,.62-1.56,1.36-3.01,2.2-4.36,.31-.5,.78-1.26,1.4-2.27,.62-1.01,1.34-2.02,2.16-3.02,.82-1.01,1.69-1.87,2.61-2.59,.92-.72,1.84-1.04,2.75-.97Z"/>
  <path class="cls-1" d="M107.54,26.49c-.62,.91-1.32,1.76-2.09,2.56s-1.7,1.39-2.81,1.8c-1.15,.41-2.25,.53-3.29,.38-1.04-.16-2.08-.53-3.11-1.13-.79-.46-1.43-.98-1.91-1.57-.48-.59-.83-1.22-1.04-1.89s-.33-1.39-.34-2.14c-.01-.76,.04-1.53,.16-2.32,.14-.89,.39-1.85,.74-2.9s.75-2.09,1.21-3.13c.46-1.04,.94-2.05,1.46-3.01,.52-.96,1.01-1.81,1.49-2.56,.43-.65,.86-1.29,1.28-1.93,.42-.64,.83-1.27,1.24-1.89,.31-.5,.71-.85,1.19-1.04,.48-.19,.97-.34,1.48-.43,.53-.12,1.06-.19,1.6-.22,.54-.02,1.07-.06,1.6-.11,.05,0,.1,0,.16,.02,.06,.01,.1,0,.13-.02,.43-.41,.87-.58,1.31-.5,.44,.07,.87,.22,1.28,.43,1.34,.7,2.44,1.6,3.28,2.7,.84,1.1,1.36,2.42,1.55,3.96,.1,.74,.04,1.55-.16,2.43-.2,.88-.5,1.78-.88,2.7-.38,.92-.83,1.86-1.35,2.81-.52,.95-1.03,1.85-1.55,2.7-.52,.85-1.01,1.65-1.48,2.39-.47,.74-.85,1.38-1.13,1.91Zm-13.46,.97c-.41-1.08-.61-2.12-.61-3.11s.11-1.99,.32-2.97c.26-.94,.57-1.87,.92-2.79,.35-.92,.68-1.83,.99-2.72-.53,.58-.98,1.42-1.37,2.52-.38,1.1-.66,2.24-.83,3.42-.17,1.18-.22,2.29-.14,3.33,.07,1.04,.31,1.82,.72,2.32Zm4.82-7.67c-.14,.46-.28,.93-.41,1.42-.13,.49-.26,.99-.38,1.49-.19,.77-.26,1.54-.22,2.32,.05,.78,.18,1.55,.4,2.32,.07,.26,.16,.44,.27,.54,.11,.1,.33,.08,.67-.04,.6-.24,1.24-.72,1.93-1.44,.68-.72,1.36-1.57,2.02-2.56,.66-.98,1.3-2.03,1.93-3.15,.62-1.12,1.18-2.2,1.67-3.26,.49-1.06,.89-2.02,1.19-2.88,.3-.86,.47-1.52,.52-1.98,.05-.43,.05-.81,0-1.13-.05-.32-.11-.64-.2-.94-.08-.3-.18-.61-.29-.94-.11-.32-.2-.7-.27-1.13-.02-.22-.09-.38-.2-.49s-.34-.15-.7-.13c-.7,.07-1.21,.34-1.55,.79-.34,.46-.64,.9-.9,1.33-.36,.5-.7,1.13-1.03,1.89-.32,.76-.6,1.55-.83,2.38-.23,.83-.38,1.65-.45,2.47-.07,.82-.04,1.54,.11,2.16,.1,.41,.04,.76-.18,1.06-.22,.3-.55,.43-1.01,.38-.34-.05-.67-.11-1.01-.2-.34-.08-.7-.19-1.08-.31Z"/>
</svg>