<?xml version="1.0" encoding="UTF-8"?>
<svg id="Layer_1" data-name="Layer 1" xmlns="http://www.w3.org/2000/svg" viewBox="0 0 103.21 29.5">
  <defs>
    <style>
      .cls-1 {
        fill: #8390a4
        ;
      }
    </style>
  </defs>
  <path class="cls-1" d="M20.92,13.72c.04-.16,.08-.32,.12-.48,.04-.16,.08-.32,.12-.48,.04-.1,.06-.2,.07-.31,.01-.11,.03-.21,.08-.31,.06-.02,.13-.03,.22-.03s.14-.02,.17-.06c.1-.22,.18-.44,.24-.67,.06-.23,.13-.45,.21-.67l-.03-.06h-.03l-.42,.57,1.2-3s0-.08,.01-.1c0-.03,.02-.06,.04-.1l-.12-.09-2.01,2.19c-.58,.66-1.15,1.32-1.71,1.99-.56,.67-1.1,1.35-1.62,2.05-.7,.94-1.34,1.9-1.93,2.89-.59,.99-1.07,2.05-1.45,3.19-.16,.52-.47,.89-.94,1.11-.47,.22-.99,.23-1.57,.03-.46-.12-.9-.28-1.33-.48s-.86-.41-1.3-.63c-.1-.04-.21-.13-.31-.27-.11-.14-.18-.27-.19-.39-.04-.3-.08-.61-.12-.93-.04-.32-.04-.62,0-.9,.1-.62,.08-1.22-.04-1.8-.13-.58-.21-1.17-.25-1.77,0-.5-.1-.98-.3-1.44-.06,.16-.12,.32-.19,.48-.07,.16-.12,.32-.17,.48l-2.61,9.2c-.12,.44-.23,.87-.33,1.29-.1,.42-.21,.85-.33,1.29-.06,.24-.18,.44-.36,.61-.18,.17-.38,.29-.61,.37-.23,.08-.47,.11-.73,.1-.26-.01-.49-.09-.69-.22-.42-.24-.76-.47-1.03-.69-.27-.22-.45-.46-.55-.73-.1-.27-.12-.57-.07-.9s.16-.71,.34-1.15c.12-.24,.19-.49,.21-.76,.02-.27,.08-.51,.18-.73,.14-.2,.22-.39,.25-.57,.03-.18,.06-.39,.1-.63,.04-.44,.14-.86,.3-1.26,.16-.4,.31-.8,.45-1.2-.02,.1-.03,.19-.04,.25s-.04,.15-.07,.25c.4-.28,.54-.69,.42-1.23,0-.1-.01-.19-.03-.28-.02-.09-.02-.17,0-.25l1.62-5.48,1.38-4.58c0-.08,0-.16,.01-.25,0-.09,.02-.18,.02-.28,.02-.24,.03-.43,.04-.57,0-.14,.04-.24,.1-.3s.15-.1,.28-.12c.13-.02,.3-.03,.52-.03-.02-.1-.05-.19-.09-.27-.04-.08-.07-.17-.09-.27,.12-.04,.23-.08,.33-.1s.2-.04,.3-.04c.46,.04,.92,.09,1.39,.13,.47,.05,.93,.1,1.39,.17,.56,.08,1,.28,1.32,.61,.32,.33,.56,.72,.72,1.18,.1,.26,.15,.51,.15,.76s-.02,.49-.04,.73c-.03,.24-.07,.48-.1,.73-.04,.25-.04,.49,0,.73,.06,.56,.12,1.12,.18,1.68,.06,.56,.14,1.12,.24,1.68,.08,.34,.16,.68,.25,1.03,.09,.35,.18,.72,.28,1.12,.2-.28,.39-.55,.58-.81,.19-.26,.38-.53,.58-.81,.64-.78,1.26-1.56,1.87-2.35s1.23-1.56,1.87-2.32c.74-.86,1.49-1.7,2.25-2.53,.76-.83,1.51-1.67,2.25-2.53,.3-.36,.64-.67,1.03-.94s.81-.49,1.27-.67c.1-.04,.21-.05,.33-.03,.12,.02,.23,.06,.33,.12,.48,.18,.95,.36,1.42,.55s.94,.38,1.42,.58c.38,.2,.68,.52,.9,.97,.22,.45,.26,.87,.12,1.27-.28,.82-.58,1.62-.91,2.41-.33,.79-.65,1.59-.97,2.41-.52,1.34-1.05,2.67-1.59,3.98-.54,1.32-1.06,2.66-1.56,4.01-.34,.96-.66,1.92-.97,2.88-.31,.96-.59,1.92-.85,2.88-.12,.42-.18,.86-.17,1.33,.01,.47-.01,.91-.07,1.33-.02,.14-.1,.27-.25,.39-.15,.12-.3,.2-.46,.24-.4,.12-.79,.14-1.17,.06-.38-.08-.75-.23-1.11-.45-.48-.26-.97-.52-1.47-.78-.16-.6-.19-1.18-.1-1.74s.25-1.12,.49-1.68l-.3,2.64c.1-.34,.19-.66,.27-.97,.08-.31,.17-.62,.27-.94l2.61-7.64c.04-.12,.05-.25,.03-.39-.02-.14-.04-.29-.06-.45,.1-.02,.19-.07,.27-.15v-.12l.42-.78Z"/>
  <path class="cls-1" d="M28.83,14.11l.75-2.4c.08-.32,.16-.64,.25-.96,.09-.32,.17-.65,.22-.99,.02-.02,.02-.04,.02-.06-.01-.02,0-.04,.04-.06,.1-.26,.22-.51,.37-.76,.15-.25,.25-.51,.31-.79,.06-.16,.06-.29,0-.39-.06-.1-.13-.19-.22-.27-.09-.08-.19-.15-.31-.22-.12-.07-.21-.15-.27-.25-.1-.08-.21-.15-.31-.21s-.22-.12-.33-.19c-.11-.07-.21-.15-.28-.25-.08-.1-.13-.24-.15-.42l3.33-.45c.48-.06,.95-.13,1.42-.22s.94-.14,1.42-.17c.3-.02,.59-.04,.88-.07,.29-.03,.58-.03,.88-.02,.3,.02,.6,.08,.9,.18,.3,.1,.59,.26,.87,.48,.42,.3,.59,.59,.51,.87-.04,.1-.1,.21-.19,.31-.09,.11-.21,.19-.34,.22-.34,.1-.68,.19-1.03,.28-.35,.09-.69,.15-1.03,.19-.24,.04-.41,.11-.51,.21-.1,.1-.2,.26-.3,.48-.16,.48-.35,.95-.57,1.42s-.43,.93-.63,1.39c-.18,.52-.36,1.02-.54,1.51-.18,.49-.35,.99-.51,1.51-.14,.4-.24,.67-.3,.82-.06,.15-.11,.27-.15,.37-.04,.1-.09,.22-.13,.37-.05,.15-.13,.43-.25,.85-.2,.86-.38,1.71-.54,2.55-.16,.84-.32,1.7-.48,2.58-.06,.34-.04,.54,.07,.61,.11,.07,.33,.07,.67,.02,.66-.12,1.18-.16,1.56-.12,.38,.04,.68,.13,.9,.28s.4,.34,.54,.58c.14,.24,.3,.49,.48,.75,.1,.2,.13,.35,.09,.45-.04,.1-.12,.2-.24,.3-.06,.04-.11,.11-.15,.22s-.07,.23-.1,.36c-.03,.13-.06,.24-.1,.34-.04,.1-.09,.14-.15,.12-.86-.26-1.74-.34-2.65-.24-.91,.1-1.79,.22-2.64,.37-.85,.15-1.63,.26-2.34,.33-.71,.07-1.3-.04-1.78-.34-.22-.14-.37-.29-.46-.45-.09-.16-.14-.33-.17-.52-.02-.19-.02-.39,0-.6,.02-.21,.04-.42,.06-.64,.46-.14,.96-.24,1.5-.31s1.05-.17,1.53-.31c-.26-.28-.44-.55-.55-.81-.11-.26-.17-.52-.19-.78-.02-.26-.01-.52,.03-.78,.04-.26,.08-.53,.12-.81,.04-.4,.11-.8,.21-1.2,.1-.4,.19-.81,.27-1.23,.02,.18,.02,.35,0,.52-.02,.17-.03,.33-.03,.49h.06l1.56-5.87c-.16,.2-.28,.39-.36,.57l-.51,1.23Z"/>
  <path class="cls-1" d="M53.49,2.46c.14-.14,.32-.21,.54-.21s.46,.04,.73,.12c.27,.08,.54,.19,.82,.33,.28,.14,.54,.3,.78,.48,.58,.4,.91,.77,.99,1.11,.08,.34-.08,.79-.48,1.35-.38,.52-.74,1.04-1.09,1.56-.35,.52-.71,1.04-1.09,1.56-.46,.64-.92,1.27-1.39,1.9-.47,.63-.92,1.27-1.36,1.93-.56,.86-1.11,1.73-1.66,2.61-.55,.88-1.04,1.79-1.48,2.73-.48,.98-.9,1.99-1.27,3.03-.37,1.04-.72,2.09-1.06,3.15-.16,.54-.28,1.1-.36,1.68-.08,.58-.16,1.15-.24,1.71-.02,.16,0,.31,.09,.46,.08,.15,.14,.3,.18,.46,.02,.1,.04,.22,.06,.36,.02,.14,0,.27-.03,.39-.02,.08-.09,.13-.21,.15-.12,.02-.23,.05-.33,.09-.74,.22-1.4,.1-1.98-.36-.48-.4-.95-.81-1.42-1.24-.47-.43-.76-.99-.88-1.69v-.24c0-.08-.01-.16-.03-.24,.22,0,.3-.06,.25-.18-.05-.12-.04-.22,.02-.3,.04-.06,.08-.12,.12-.19,.04-.07,.07-.14,.09-.22,.08-.24,.14-.51,.18-.81,.04-.46,.13-.87,.27-1.24,.14-.37,.33-.75,.57-1.15,.28-.4,.49-.83,.63-1.3,.14-.47,.33-.91,.57-1.33,.5-.86,1-1.71,1.5-2.55,.5-.84,1.01-1.68,1.53-2.52l.96-1.62c-.14,.1-.25,.18-.34,.23-.09,.05-.16,.1-.22,.16-.7,.82-1.39,1.62-2.08,2.41s-1.39,1.59-2.11,2.41c-.2,.26-.38,.51-.55,.76-.17,.25-.36,.51-.58,.79-.32,.44-.72,.71-1.21,.82-.49,.11-.96,0-1.42-.31-.34-.26-.66-.52-.97-.79s-.6-.57-.88-.91c-.16-.18-.25-.4-.27-.66-.02-.26-.04-.51-.06-.75-.06-.46-.09-.91-.1-1.35-.01-.44,0-.87,.04-1.29,.04,.64,.09,1.28,.15,1.92l.18,1.92h.06c-.02-.64-.04-1.27-.04-1.89-.01-.62-.01-1.24-.01-1.86,0-.24,0-.47,.03-.69,.02-.22,.05-.44,.09-.66,.02-.28,.03-.56,.04-.84,0-.28,.03-.55,.07-.81,.1-.54,.2-1.08,.31-1.62,.11-.54,.24-1.08,.4-1.62,.26-.84,.52-1.67,.79-2.5s.52-1.67,.76-2.53c.1-.28,.22-.46,.36-.55,.14-.09,.35-.07,.63,.05,.18,.04,.37,.05,.57,.03,.2-.02,.4-.03,.6-.03h.28c.09,0,.17,.02,.25,.06,.2,.16,.39,.32,.58,.48,.19,.16,.38,.32,.58,.48,.18,.2,.27,.4,.28,.6,0,.2-.03,.41-.1,.63-.3,.8-.6,1.59-.9,2.37-.3,.78-.58,1.59-.84,2.43-.2,.58-.37,1.17-.52,1.77s-.29,1.21-.43,1.83c-.04,.16-.06,.32-.07,.48-.01,.16-.03,.33-.04,.51,.74-.68,1.61-1.46,2.61-2.34,1-.88,2.05-1.81,3.15-2.79,1.1-.98,2.21-1.98,3.33-3.01,1.12-1.03,2.17-2.05,3.15-3.07Z"/>
  <path class="cls-1" d="M50.91,23.31c.22-.34,.45-.67,.69-.99,.24-.32,.47-.65,.69-.99,.5-.76,1-1.5,1.51-2.22,.51-.72,1-1.46,1.48-2.22,.56-.9,1.09-1.79,1.6-2.68,.51-.89,1.03-1.78,1.57-2.68l3.62-6.32c.18-.32,.33-.64,.45-.97,.12-.33,.26-.64,.42-.94,.06-.08,.15-.15,.25-.19,.11-.05,.21-.1,.31-.17,.06-.02,.11-.02,.17-.01,.05,.01,.1,0,.16-.02,.54-.06,.94-.26,1.21-.6,.27-.34,.38-.79,.34-1.35-.04-.28,0-.46,.12-.55,.12-.09,.31-.15,.57-.19,.24,0,.48-.02,.72-.06s.5-.08,.78-.12c.26-.06,.52-.02,.79,.1,.27,.13,.51,.31,.72,.55,.21,.24,.36,.5,.46,.79,.1,.29,.11,.56,.03,.82-.32,1.02-.66,2.02-1.03,3.01-.37,.99-.7,1.98-1,2.98-.54,1.8-1.09,3.57-1.66,5.32-.57,1.75-1.01,3.53-1.33,5.35-.04,.34,.02,.64,.18,.9,.16,.34,.2,.61,.13,.82-.07,.21-.24,.41-.52,.61-.2,.14-.3,.32-.3,.54-.08,.82-.14,1.63-.18,2.43-.04,.8-.09,1.6-.15,2.4-.02,.24-.05,.49-.09,.75-.04,.26-.2,.45-.48,.57-.28,.12-.57,.2-.87,.25-.3,.05-.59-.07-.87-.34-.12-.12-.27-.21-.46-.25-.19-.05-.33-.13-.43-.25-.16-.1-.27-.24-.34-.42-.07-.18-.15-.35-.23-.51l.06-.06c.06-.06,.11-.1,.15-.12l.06-4.25c-.56,.16-1.12,.33-1.68,.51-.56,.18-1.13,.35-1.71,.51-.04,0-.09,.02-.15,.06-.06,.04-.11,.04-.15,0-.42-.12-.72-.06-.91,.17-.19,.23-.36,.48-.52,.76-.28,.5-.67,.8-1.18,.91-.51,.11-1.06-.06-1.66-.52-.24-.18-.46-.36-.67-.54-.21-.18-.43-.37-.67-.57Zm11.03-9.95s-.04-.03-.07-.03-.06,0-.08-.03l-3.24,5.45,2.07-.45,.03,.03s.08,.06,.12,.06l.57-2.58c.1-.42,.2-.83,.3-1.24,.1-.41,.2-.81,.3-1.21Z"/>
  <path class="cls-1" d="M73.17,7.7c.48-.4,.94-.82,1.38-1.27,.44-.45,.92-.85,1.44-1.21,.6-.46,1.23-.88,1.89-1.27s1.33-.76,2.01-1.12c.72-.38,1.51-.72,2.38-1.02,.87-.3,1.75-.49,2.65-.58s1.79-.04,2.68,.15c.89,.19,1.7,.56,2.44,1.12,.16,.14,.29,.28,.39,.42,.1,.14,.19,.29,.27,.45,.02,.04-.08,.2-.28,.48-.21,.28-.47,.61-.79,.99-.32,.38-.67,.77-1.05,1.17-.38,.4-.75,.73-1.11,.99-.18,.14-.34,.21-.49,.22-.15,.01-.28,0-.4-.03-.12-.03-.21-.08-.28-.13-.07-.06-.12-.09-.13-.09-.46-.24-.86-.44-1.2-.6-.34-.16-.66-.27-.97-.33-.31-.06-.63-.05-.96,.02-.33,.07-.7,.22-1.12,.46-1.32,.78-2.6,1.69-3.83,2.73-1.24,1.04-2.35,2.17-3.33,3.39-.98,1.22-1.76,2.49-2.34,3.82-.58,1.33-.87,2.66-.87,4,0,.9,.18,1.5,.55,1.8,.37,.3,.83,.43,1.39,.39,.64-.06,1.4-.29,2.28-.69,.88-.4,1.75-.87,2.62-1.41,.87-.54,1.67-1.11,2.41-1.72,.74-.61,1.29-1.15,1.65-1.63-.02-.04-.04-.07-.06-.09-.02-.02-.03-.04-.03-.06-.32,.08-.63,.17-.94,.27s-.62,.2-.94,.3c-.28,.1-.57,.15-.87,.15s-.6-.03-.9-.1c-.3-.07-.58-.17-.84-.31-.26-.14-.47-.31-.63-.51l-.93-1.2v-.16c0-.09,0-.19,.01-.3,0-.11,.02-.21,.03-.3,0-.09,.02-.13,.04-.13,1.3-.3,2.51-.6,3.62-.91,1.12-.31,2.14-.58,3.07-.82,.93-.24,1.76-.44,2.49-.6s1.35-.25,1.87-.27c.28-.02,.54-.05,.78-.09,.24-.04,.47-.06,.7-.07,.23,0,.46,.02,.7,.07,.24,.06,.5,.18,.78,.36,.14,.1,.24,.22,.31,.37,.07,.15,.13,.31,.18,.48,.05,.17,.09,.34,.12,.52s.07,.34,.13,.48c.16,.34,.17,.6,.03,.79-.14,.19-.41,.3-.81,.34-.6,.04-1.19,.08-1.78,.12-.59,.04-1.19,.08-1.81,.12-.36,.06-.48,.25-.36,.57,.18,.66,.21,1.28,.1,1.86-.11,.58-.39,1.15-.85,1.71-.72,.94-1.52,1.78-2.4,2.53s-1.84,1.43-2.88,2.05c-.82,.52-1.68,.92-2.58,1.21s-1.85,.39-2.85,.31c-.96-.04-1.85-.21-2.67-.52-.82-.31-1.54-.83-2.16-1.57-.16-.22-.35-.43-.57-.64-.22-.21-.44-.42-.66-.64-.56-.64-.92-1.33-1.09-2.07-.17-.74-.21-1.5-.14-2.28,.04-.28,.09-.56,.15-.84,.06-.28,.11-.56,.15-.84l-.24,3.15h.27c-.06-1.38,.1-2.71,.49-3.98,.39-1.28,.99-2.54,1.81-3.77-.24,.08-.41,.12-.51,.12,.16-.28,.31-.55,.45-.82s.3-.51,.48-.73c.34-.46,.7-.9,1.09-1.33,.39-.43,.77-.86,1.15-1.3-.16,.36-.33,.64-.51,.84l.18,.12,1.38-1.38c-.08-.02-.13-.05-.15-.09-.12,.1-.24,.18-.36,.24-.12,.06-.24,.13-.36,.21Zm-2.31,2.79c.08,.04,.15,.09,.21,.15l1.32-1.71s-.05-.02-.09-.06l-1.44,1.62Z"/>
  <path class="cls-1" d="M92.89,14.11l.75-2.4c.08-.32,.16-.64,.25-.96,.09-.32,.17-.65,.22-.99,.02-.02,.02-.04,.02-.06-.01-.02,0-.04,.04-.06,.1-.26,.22-.51,.37-.76,.15-.25,.25-.51,.31-.79,.06-.16,.06-.29,0-.39-.06-.1-.13-.19-.22-.27-.09-.08-.19-.15-.31-.22-.12-.07-.21-.15-.27-.25-.1-.08-.21-.15-.31-.21s-.22-.12-.33-.19c-.11-.07-.21-.15-.28-.25-.08-.1-.13-.24-.15-.42l3.33-.45c.48-.06,.95-.13,1.42-.22s.94-.14,1.42-.17c.3-.02,.59-.04,.88-.07,.29-.03,.58-.03,.88-.02,.3,.02,.6,.08,.9,.18,.3,.1,.59,.26,.87,.48,.42,.3,.59,.59,.51,.87-.04,.1-.1,.21-.19,.31-.09,.11-.21,.19-.34,.22-.34,.1-.68,.19-1.03,.28-.35,.09-.69,.15-1.03,.19-.24,.04-.41,.11-.51,.21-.1,.1-.2,.26-.3,.48-.16,.48-.35,.95-.57,1.42s-.43,.93-.63,1.39c-.18,.52-.36,1.02-.54,1.51-.18,.49-.35,.99-.51,1.51-.14,.4-.24,.67-.3,.82-.06,.15-.11,.27-.15,.37-.04,.1-.09,.22-.13,.37-.05,.15-.13,.43-.25,.85-.2,.86-.38,1.71-.54,2.55-.16,.84-.32,1.7-.48,2.58-.06,.34-.04,.54,.07,.61,.11,.07,.33,.07,.67,.02,.66-.12,1.18-.16,1.56-.12,.38,.04,.68,.13,.9,.28s.4,.34,.54,.58c.14,.24,.3,.49,.48,.75,.1,.2,.13,.35,.09,.45-.04,.1-.12,.2-.24,.3-.06,.04-.11,.11-.15,.22s-.07,.23-.1,.36c-.03,.13-.06,.24-.1,.34-.04,.1-.09,.14-.15,.12-.86-.26-1.74-.34-2.65-.24-.91,.1-1.79,.22-2.64,.37-.85,.15-1.63,.26-2.34,.33-.71,.07-1.3-.04-1.78-.34-.22-.14-.37-.29-.46-.45-.09-.16-.14-.33-.17-.52-.02-.19-.02-.39,0-.6,.02-.21,.04-.42,.06-.64,.46-.14,.96-.24,1.5-.31s1.05-.17,1.53-.31c-.26-.28-.44-.55-.55-.81-.11-.26-.17-.52-.19-.78-.02-.26-.01-.52,.03-.78,.04-.26,.08-.53,.12-.81,.04-.4,.11-.8,.21-1.2,.1-.4,.19-.81,.27-1.23,.02,.18,.02,.35,0,.52-.02,.17-.03,.33-.03,.49h.06l1.56-5.87c-.16,.2-.28,.39-.36,.57l-.51,1.23Z"/>
</svg>