<?xml version="1.0" encoding="UTF-8"?>
<svg id="Layer_1" data-name="Layer 1" xmlns="http://www.w3.org/2000/svg" viewBox="0 0 187.34 35.44">
  <defs>
    <style>
      .cls-1 {
        fill: #8390a4;
      }
    </style>
  </defs>
  <path class="cls-1" d="M25.14,16.49c.05-.19,.1-.38,.14-.58,.05-.19,.1-.38,.14-.58,.05-.12,.08-.25,.09-.38,.01-.13,.04-.26,.09-.38,.07-.02,.16-.04,.27-.04s.17-.02,.2-.07c.12-.26,.22-.53,.29-.81,.07-.28,.16-.55,.25-.81l-.04-.07h-.04l-.5,.68,1.44-3.6s0-.09,.02-.13c.01-.04,.03-.08,.05-.13l-.14-.11-2.41,2.63c-.7,.79-1.38,1.59-2.05,2.39-.67,.8-1.32,1.63-1.94,2.47-.84,1.13-1.61,2.29-2.32,3.47-.71,1.19-1.29,2.47-1.75,3.83-.19,.62-.57,1.07-1.13,1.33-.56,.26-1.19,.28-1.89,.04-.55-.14-1.09-.34-1.6-.58-.52-.24-1.04-.49-1.57-.76-.12-.05-.25-.16-.38-.32-.13-.17-.21-.32-.23-.47-.05-.36-.1-.73-.14-1.12-.05-.38-.05-.74,0-1.08,.12-.74,.1-1.46-.05-2.16-.16-.7-.26-1.4-.31-2.12,0-.6-.12-1.18-.36-1.73-.07,.19-.15,.38-.23,.58-.08,.19-.15,.38-.2,.58l-3.13,11.05c-.14,.53-.28,1.04-.4,1.55-.12,.5-.25,1.02-.4,1.55-.07,.29-.22,.53-.43,.74-.22,.2-.46,.35-.74,.45-.28,.1-.57,.14-.88,.13-.31-.01-.59-.1-.83-.27-.5-.29-.92-.56-1.24-.83-.32-.26-.55-.56-.67-.88C0,29.64-.03,29.28,.03,28.89c.06-.4,.2-.86,.41-1.39,.14-.29,.23-.59,.25-.92s.1-.62,.22-.88c.17-.24,.27-.47,.31-.68,.04-.22,.08-.47,.13-.76,.05-.53,.17-1.03,.36-1.51,.19-.48,.37-.96,.54-1.44-.02,.12-.04,.22-.05,.31s-.04,.19-.09,.31c.48-.34,.65-.83,.5-1.48,0-.12-.01-.23-.04-.34s-.02-.21,0-.31l1.94-6.59,1.66-5.51c0-.1,0-.2,.02-.31,.01-.11,.02-.22,.02-.34,.02-.29,.04-.52,.05-.68,.01-.17,.05-.29,.13-.36s.19-.12,.34-.14c.16-.02,.37-.04,.63-.04-.02-.12-.06-.23-.11-.32-.05-.1-.08-.2-.11-.32,.14-.05,.28-.09,.4-.13,.12-.04,.24-.05,.36-.05,.55,.05,1.11,.1,1.67,.16,.56,.06,1.12,.13,1.67,.2,.67,.1,1.2,.34,1.58,.74,.38,.4,.67,.87,.86,1.42,.12,.31,.18,.62,.18,.92s-.02,.59-.05,.88c-.04,.29-.08,.58-.13,.88-.05,.3-.05,.59,0,.88,.07,.67,.14,1.34,.22,2.02,.07,.67,.17,1.34,.29,2.02,.1,.41,.2,.82,.31,1.24,.11,.42,.22,.87,.34,1.35,.24-.34,.47-.66,.7-.97,.23-.31,.46-.64,.7-.97,.77-.94,1.52-1.88,2.25-2.83,.73-.95,1.48-1.88,2.25-2.79,.89-1.03,1.79-2.05,2.7-3.04,.91-1,1.81-2.01,2.7-3.04,.36-.43,.77-.81,1.24-1.13,.47-.32,.98-.59,1.53-.81,.12-.05,.25-.06,.4-.04,.14,.02,.28,.07,.4,.14,.58,.22,1.15,.44,1.71,.67,.56,.23,1.13,.46,1.71,.7,.46,.24,.82,.63,1.08,1.17s.31,1.05,.14,1.53c-.34,.98-.7,1.95-1.1,2.9-.4,.95-.79,1.91-1.17,2.9-.62,1.61-1.26,3.2-1.91,4.79s-1.27,3.19-1.87,4.82c-.41,1.15-.8,2.3-1.17,3.46-.37,1.15-.71,2.3-1.03,3.46-.14,.5-.21,1.04-.2,1.6,.01,.56-.02,1.1-.09,1.6-.02,.17-.13,.32-.31,.47s-.37,.24-.56,.29c-.48,.14-.95,.17-1.4,.07-.46-.1-.9-.28-1.33-.54-.58-.31-1.16-.62-1.76-.94-.19-.72-.23-1.42-.13-2.09,.11-.67,.31-1.34,.59-2.02l-.36,3.17c.12-.41,.23-.8,.32-1.17,.1-.37,.2-.75,.32-1.13l3.13-9.18c.05-.14,.06-.3,.04-.47-.02-.17-.05-.35-.07-.54,.12-.02,.23-.08,.32-.18v-.14l.5-.94Z"/>
  <path class="cls-1" d="M53.76,29.3c-.67,.86-1.43,1.4-2.27,1.62-.84,.22-1.72,.25-2.63,.11-.48-.1-.95-.27-1.4-.52-.46-.25-.89-.53-1.3-.85-.55-.43-1.07-.91-1.55-1.42-.48-.52-.94-1.04-1.37-1.57-.74-.96-1.46-1.92-2.14-2.88-.68-.96-1.39-1.92-2.11-2.88-.12-.14-.25-.28-.4-.4-.14-.12-.3-.28-.47-.47-.26,.65-.52,1.26-.76,1.84-.24,.58-.46,1.15-.65,1.73-.46,1.2-.89,2.38-1.31,3.55-.42,1.16-.73,2.36-.92,3.58,0,.14-.09,.28-.27,.4-.18,.12-.34,.2-.49,.25-.19,.05-.41,.03-.67-.05-.25-.08-.5-.19-.76-.32-.25-.13-.49-.28-.7-.45-.22-.17-.37-.32-.47-.47-.1-.17-.18-.32-.25-.47-.07-.14-.18-.25-.32-.32-.31-.14-.47-.32-.49-.52-.01-.2,.02-.4,.09-.59,.19-.67,.4-1.33,.63-1.98,.23-.65,.45-1.28,.67-1.91,.29-.84,.58-1.68,.88-2.52,.3-.84,.59-1.68,.88-2.52,.19-.58,.4-1.14,.63-1.69,.23-.55,.44-1.12,.63-1.69,.31-.98,.62-1.98,.94-2.99,.31-1.01,.6-2,.86-2.99,.05-.19,.07-.39,.07-.59s-.02-.4-.07-.59c0-.1-.07-.18-.22-.25-.14-.07-.28-.12-.4-.14-.41-.07-.72-.2-.94-.4-.22-.19-.4-.43-.54-.72-.12-.19-.26-.38-.41-.58-.16-.19-.32-.38-.49-.58,.1-.12,.18-.22,.25-.31,.07-.08,.16-.17,.25-.27-.12-.07-.25-.14-.38-.2-.13-.06-.29-.14-.49-.23,.17-.12,.28-.34,.32-.65,.05-.31,.1-.55,.14-.72,.05-.22,.37-.43,.95-.63,.59-.2,1.36-.39,2.3-.56,.95-.17,2.03-.31,3.24-.41,1.21-.11,2.48-.17,3.8-.18,1.32-.01,2.65,.03,3.98,.13,1.33,.1,2.59,.28,3.76,.54,.38,.1,.83,.28,1.33,.54,.5,.26,1,.57,1.48,.92,.48,.35,.92,.72,1.33,1.12,.41,.4,.71,.76,.9,1.1,.46,.7,.79,1.47,1.01,2.32,.22,.85,.26,1.71,.14,2.57-.12,.86-.41,1.72-.88,2.56-.47,.84-1.16,1.6-2.07,2.27-.96,.48-1.81,.88-2.54,1.21-.73,.32-1.4,.61-2,.85-.6,.24-1.15,.44-1.64,.61-.49,.17-.98,.32-1.46,.47-.22,.1-.44,.15-.67,.16-.23,.01-.45,.02-.67,.02-.89,.05-1.14,.42-.76,1.12,.34,.5,.67,1.01,1.01,1.53,.34,.52,.7,1.04,1.08,1.57,.31,.43,.63,.88,.95,1.33,.32,.46,.69,.89,1.1,1.3,.43,.48,.91,.92,1.42,1.31s1.03,.8,1.53,1.21c.05,.05,.1,.07,.14,.07s.1,.02,.14,.07c.22,.12,.44,.21,.67,.27,.23,.06,.47,.15,.74,.27Zm-6.52-14.9c.55-.24,1.1-.47,1.64-.7,.54-.23,1.1-.44,1.67-.63,.74-.29,1.42-.62,2.03-1.01,.61-.38,1.04-.96,1.28-1.73,.19-.65,.18-1.24-.04-1.78-.22-.54-.73-.94-1.55-1.21-1.01-.26-1.97-.46-2.88-.58-.91-.12-1.9-.19-2.95-.22-.82-.02-1.63-.03-2.45-.02-.82,.01-1.61,.11-2.38,.31-.12,.05-.23,.13-.32,.23-.1,.11-.13,.2-.11,.27,.1,.7,.07,1.36-.09,1.98-.16,.62-.31,1.26-.45,1.91-.19,.77-.41,1.52-.65,2.27-.24,.74-.46,1.52-.65,2.34,.14,.02,.27,.04,.38,.05,.11,.01,.22,.02,.34,.02,.55-.1,1.1-.17,1.64-.22,.54-.05,1.05-.13,1.53-.25,.55-.12,1.09-.25,1.62-.4,.53-.14,1.07-.3,1.62-.47-.19,.14-.4,.27-.63,.38-.23,.11-.45,.21-.67,.31v.07s.01,.04,.04,.04c.7-.19,1.37-.39,2.02-.59,.65-.2,1.31-.43,1.98-.67-.05-.1-.07-.17-.07-.22-.17,.05-.32,.1-.45,.14-.13,.05-.28,.08-.45,.11-.19,.05-.37,.09-.54,.13-.17,.04-.32,.08-.47,.13Z"/>
  <path class="cls-1" d="M61.79,26.89c-.12,.43-.26,.85-.43,1.24s-.38,.76-.65,1.1c-.26,.36-.55,.59-.86,.68-.31,.1-.66,.14-1.04,.14-.17,0-.34-.05-.5-.16-.17-.11-.32-.24-.47-.4-.14-.16-.26-.32-.36-.49-.1-.17-.16-.32-.18-.47-.12-.65-.06-1.22,.18-1.71,.24-.49,.56-.95,.97-1.39,.1-.12,.19-.25,.27-.4,.08-.14,.19-.23,.31-.25,.24-.05,.48-.04,.72,.02,.24,.06,.47,.13,.68,.2,.5,.19,.87,.46,1.1,.79,.23,.34,.32,.7,.27,1.08Z"/>
  <path class="cls-1" d="M102.36,16.49c.05-.19,.1-.38,.14-.58,.05-.19,.1-.38,.14-.58,.05-.12,.08-.25,.09-.38,.01-.13,.04-.26,.09-.38,.07-.02,.16-.04,.27-.04s.17-.02,.2-.07c.12-.26,.22-.53,.29-.81,.07-.28,.16-.55,.25-.81l-.04-.07h-.04l-.5,.68,1.44-3.6s0-.09,.02-.13c.01-.04,.03-.08,.05-.13l-.14-.11-2.41,2.63c-.7,.79-1.38,1.59-2.05,2.39-.67,.8-1.32,1.63-1.94,2.47-.84,1.13-1.61,2.29-2.32,3.47-.71,1.19-1.29,2.47-1.75,3.83-.19,.62-.57,1.07-1.13,1.33-.56,.26-1.19,.28-1.89,.04-.55-.14-1.09-.34-1.6-.58-.52-.24-1.04-.49-1.57-.76-.12-.05-.25-.16-.38-.32-.13-.17-.21-.32-.23-.47-.05-.36-.1-.73-.14-1.12-.05-.38-.05-.74,0-1.08,.12-.74,.1-1.46-.05-2.16-.16-.7-.26-1.4-.31-2.12,0-.6-.12-1.18-.36-1.73-.07,.19-.15,.38-.23,.58-.08,.19-.15,.38-.2,.58l-3.13,11.05c-.14,.53-.28,1.04-.4,1.55-.12,.5-.25,1.02-.4,1.55-.07,.29-.22,.53-.43,.74-.22,.2-.46,.35-.74,.45-.28,.1-.57,.14-.88,.13-.31-.01-.59-.1-.83-.27-.5-.29-.92-.56-1.24-.83-.32-.26-.55-.56-.67-.88-.12-.32-.15-.68-.09-1.08,.06-.4,.2-.86,.41-1.39,.14-.29,.23-.59,.25-.92s.1-.62,.22-.88c.17-.24,.27-.47,.31-.68,.04-.22,.08-.47,.13-.76,.05-.53,.17-1.03,.36-1.51,.19-.48,.37-.96,.54-1.44-.02,.12-.04,.22-.05,.31s-.04,.19-.09,.31c.48-.34,.65-.83,.5-1.48,0-.12-.01-.23-.04-.34s-.02-.21,0-.31l1.94-6.59,1.66-5.51c0-.1,0-.2,.02-.31,.01-.11,.02-.22,.02-.34,.02-.29,.04-.52,.05-.68,.01-.17,.05-.29,.13-.36s.19-.12,.34-.14c.16-.02,.37-.04,.63-.04-.02-.12-.06-.23-.11-.32-.05-.1-.08-.2-.11-.32,.14-.05,.28-.09,.4-.13,.12-.04,.24-.05,.36-.05,.55,.05,1.11,.1,1.67,.16,.56,.06,1.12,.13,1.67,.2,.67,.1,1.2,.34,1.58,.74,.38,.4,.67,.87,.86,1.42,.12,.31,.18,.62,.18,.92s-.02,.59-.05,.88c-.04,.29-.08,.58-.13,.88-.05,.3-.05,.59,0,.88,.07,.67,.14,1.34,.22,2.02,.07,.67,.17,1.34,.29,2.02,.1,.41,.2,.82,.31,1.24,.11,.42,.22,.87,.34,1.35,.24-.34,.47-.66,.7-.97,.23-.31,.46-.64,.7-.97,.77-.94,1.52-1.88,2.25-2.83,.73-.95,1.48-1.88,2.25-2.79,.89-1.03,1.79-2.05,2.7-3.04,.91-1,1.81-2.01,2.7-3.04,.36-.43,.77-.81,1.24-1.13,.47-.32,.98-.59,1.53-.81,.12-.05,.25-.06,.4-.04,.14,.02,.28,.07,.4,.14,.58,.22,1.15,.44,1.71,.67,.56,.23,1.13,.46,1.71,.7,.46,.24,.82,.63,1.08,1.17s.31,1.05,.14,1.53c-.34,.98-.7,1.95-1.1,2.9-.4,.95-.79,1.91-1.17,2.9-.62,1.61-1.26,3.2-1.91,4.79s-1.27,3.19-1.87,4.82c-.41,1.15-.8,2.3-1.17,3.46-.37,1.15-.71,2.3-1.03,3.46-.14,.5-.21,1.04-.2,1.6,.01,.56-.02,1.1-.09,1.6-.02,.17-.13,.32-.31,.47s-.37,.24-.56,.29c-.48,.14-.95,.17-1.4,.07-.46-.1-.9-.28-1.33-.54-.58-.31-1.16-.62-1.76-.94-.19-.72-.23-1.42-.13-2.09,.11-.67,.31-1.34,.59-2.02l-.36,3.17c.12-.41,.23-.8,.32-1.17,.1-.37,.2-.75,.32-1.13l3.13-9.18c.05-.14,.06-.3,.04-.47-.02-.17-.05-.35-.07-.54,.12-.02,.23-.08,.32-.18v-.14l.5-.94Z"/>
  <path class="cls-1" d="M129.21,2.95c.17-.17,.38-.25,.65-.25s.56,.05,.88,.14c.32,.1,.65,.23,.99,.4,.34,.17,.65,.36,.94,.58,.7,.48,1.09,.92,1.19,1.33,.1,.41-.1,.95-.58,1.62-.46,.62-.89,1.25-1.31,1.87s-.86,1.25-1.31,1.87c-.55,.77-1.11,1.53-1.67,2.29-.56,.76-1.11,1.53-1.64,2.32-.67,1.03-1.34,2.08-2,3.13-.66,1.06-1.25,2.15-1.78,3.28-.58,1.18-1.09,2.39-1.53,3.64-.44,1.25-.87,2.51-1.28,3.78-.19,.65-.34,1.32-.43,2.02-.1,.7-.19,1.38-.29,2.05-.02,.19,.01,.38,.11,.56,.1,.18,.17,.37,.22,.56,.02,.12,.05,.26,.07,.43,.02,.17,.01,.32-.04,.47-.02,.1-.11,.16-.25,.18-.14,.02-.28,.06-.4,.11-.89,.26-1.68,.12-2.38-.43-.58-.48-1.15-.98-1.71-1.49-.56-.52-.92-1.19-1.06-2.03v-.29c0-.1-.01-.19-.04-.29,.26,0,.37-.07,.31-.22-.06-.14-.05-.26,.02-.36,.05-.07,.1-.15,.14-.23,.05-.08,.08-.17,.11-.27,.1-.29,.17-.61,.22-.97,.05-.55,.16-1.05,.32-1.49,.17-.44,.4-.91,.68-1.39,.34-.48,.59-1,.76-1.57,.17-.56,.4-1.1,.68-1.6,.6-1.03,1.2-2.05,1.8-3.06,.6-1.01,1.21-2.02,1.84-3.02l1.15-1.94c-.17,.12-.31,.21-.41,.27-.11,.06-.2,.13-.27,.2-.84,.98-1.67,1.95-2.5,2.9-.83,.95-1.67,1.91-2.54,2.9-.24,.31-.46,.62-.67,.92-.2,.3-.44,.62-.7,.95-.38,.53-.87,.86-1.46,.99-.59,.13-1.16,0-1.71-.38-.41-.31-.8-.63-1.17-.95-.37-.32-.73-.69-1.06-1.1-.19-.22-.3-.48-.32-.79s-.05-.61-.07-.9c-.07-.55-.11-1.09-.13-1.62s0-1.04,.05-1.55c.05,.77,.11,1.54,.18,2.3,.07,.77,.14,1.54,.22,2.3h.07c-.02-.77-.04-1.52-.05-2.27-.01-.74-.02-1.49-.02-2.23,0-.29,.01-.56,.04-.83,.02-.26,.06-.53,.11-.79,.02-.34,.04-.67,.05-1.01,.01-.34,.04-.66,.09-.97,.12-.65,.25-1.3,.38-1.94s.29-1.3,.49-1.94c.31-1.01,.63-2.01,.95-3.01,.32-1,.63-2.01,.92-3.04,.12-.34,.26-.56,.43-.67,.17-.11,.42-.09,.76,.05,.22,.05,.44,.06,.68,.04,.24-.02,.48-.04,.72-.04h.34c.11,0,.21,.02,.31,.07,.24,.19,.47,.38,.7,.58,.23,.19,.46,.38,.7,.58,.22,.24,.33,.48,.34,.72,.01,.24-.03,.49-.13,.76-.36,.96-.72,1.91-1.08,2.84-.36,.94-.7,1.91-1.01,2.92-.24,.7-.45,1.4-.63,2.12-.18,.72-.35,1.45-.52,2.2-.05,.19-.08,.38-.09,.58-.01,.19-.03,.4-.05,.61,.89-.82,1.93-1.75,3.13-2.81,1.2-1.06,2.46-2.17,3.78-3.35,1.32-1.18,2.65-2.38,4-3.62,1.34-1.24,2.6-2.47,3.78-3.69Z"/>
  <path class="cls-1" d="M125.58,28.01c.26-.41,.54-.8,.83-1.19,.29-.38,.56-.78,.83-1.19,.6-.91,1.21-1.8,1.82-2.66,.61-.86,1.21-1.75,1.78-2.66,.67-1.08,1.31-2.15,1.93-3.22,.61-1.07,1.24-2.14,1.89-3.22l4.36-7.6c.22-.38,.4-.77,.54-1.17s.31-.77,.5-1.13c.07-.1,.17-.17,.31-.23,.13-.06,.26-.13,.38-.2,.07-.02,.14-.03,.2-.02,.06,.01,.13,0,.2-.02,.65-.07,1.13-.31,1.46-.72,.32-.41,.46-.95,.41-1.62-.05-.34,0-.56,.14-.67s.37-.19,.68-.23c.29,0,.58-.02,.86-.07,.29-.05,.6-.1,.94-.14,.31-.07,.63-.03,.95,.13,.32,.16,.61,.38,.86,.67,.25,.29,.44,.61,.56,.95,.12,.35,.13,.68,.04,.99-.38,1.22-.8,2.43-1.24,3.62-.44,1.19-.85,2.38-1.21,3.58-.65,2.16-1.31,4.29-2,6.39-.68,2.1-1.22,4.24-1.6,6.43-.05,.41,.02,.77,.22,1.08,.19,.41,.25,.74,.16,.99-.08,.25-.29,.5-.63,.74-.24,.17-.36,.38-.36,.65-.1,.98-.17,1.96-.22,2.92-.05,.96-.11,1.92-.18,2.88-.02,.29-.06,.59-.11,.9-.05,.31-.24,.54-.58,.68-.34,.14-.68,.25-1.04,.31-.36,.06-.71-.08-1.04-.41-.14-.14-.33-.25-.56-.31-.23-.06-.4-.16-.52-.31-.19-.12-.33-.29-.41-.5-.08-.22-.17-.42-.27-.61l.07-.07c.07-.07,.13-.12,.18-.14l.07-5.11c-.67,.19-1.34,.4-2.02,.61-.67,.22-1.36,.42-2.05,.61-.05,0-.11,.02-.18,.07-.07,.05-.13,.05-.18,0-.5-.14-.87-.08-1.1,.2-.23,.28-.44,.58-.63,.92-.34,.6-.81,.97-1.42,1.1-.61,.13-1.28-.08-2-.63-.29-.22-.56-.43-.81-.65s-.52-.44-.81-.68Zm13.25-11.95s-.05-.04-.09-.04-.07-.01-.09-.04l-3.89,6.55,2.48-.54,.04,.04s.1,.07,.14,.07l.68-3.1c.12-.5,.24-1,.36-1.49,.12-.49,.24-.98,.36-1.46Z"/>
  <path class="cls-1" d="M151.79,9.25c.58-.48,1.13-.99,1.66-1.53,.53-.54,1.1-1.03,1.73-1.46,.72-.55,1.48-1.06,2.27-1.53,.79-.47,1.6-.92,2.41-1.35,.86-.46,1.82-.86,2.86-1.22,1.04-.36,2.11-.59,3.19-.7s2.15-.05,3.22,.18c1.07,.23,2.05,.68,2.93,1.35,.19,.17,.35,.34,.47,.5,.12,.17,.23,.35,.32,.54,.02,.05-.09,.24-.34,.58-.25,.34-.57,.73-.95,1.19-.38,.46-.8,.92-1.26,1.4-.46,.48-.9,.88-1.33,1.19-.22,.17-.41,.26-.59,.27-.18,.01-.34,0-.49-.04-.14-.04-.26-.09-.34-.16-.08-.07-.14-.11-.16-.11-.55-.29-1.03-.53-1.44-.72-.41-.19-.8-.32-1.17-.4-.37-.07-.76-.07-1.15,.02-.4,.08-.85,.27-1.35,.56-1.58,.94-3.12,2.03-4.61,3.28-1.49,1.25-2.82,2.6-4,4.07-1.18,1.46-2.11,2.99-2.81,4.59-.7,1.6-1.04,3.2-1.04,4.81,0,1.08,.22,1.8,.67,2.16,.44,.36,1,.52,1.67,.47,.77-.07,1.68-.35,2.74-.83,1.06-.48,2.11-1.04,3.15-1.69,1.04-.65,2.01-1.34,2.9-2.07,.89-.73,1.55-1.39,1.98-1.96-.02-.05-.05-.08-.07-.11s-.04-.05-.04-.07c-.38,.1-.76,.2-1.13,.32-.37,.12-.75,.24-1.13,.36-.34,.12-.68,.18-1.04,.18s-.72-.04-1.08-.13c-.36-.08-.7-.21-1.01-.38-.31-.17-.56-.37-.76-.61l-1.12-1.44v-.2c0-.11,0-.23,.02-.36,.01-.13,.02-.25,.04-.36,.01-.11,.03-.16,.05-.16,1.56-.36,3.01-.73,4.36-1.1,1.34-.37,2.57-.7,3.69-.99s2.11-.53,2.99-.72,1.63-.3,2.25-.32c.34-.02,.65-.06,.94-.11,.29-.05,.57-.08,.85-.09,.28-.01,.56,.02,.85,.09,.29,.07,.6,.22,.94,.43,.17,.12,.29,.27,.38,.45,.08,.18,.16,.37,.22,.58,.06,.2,.11,.41,.14,.63s.09,.41,.16,.58c.19,.41,.2,.73,.04,.95-.17,.23-.49,.37-.97,.41-.72,.05-1.43,.1-2.14,.14-.71,.05-1.43,.1-2.18,.14-.43,.07-.58,.3-.43,.68,.22,.79,.26,1.54,.13,2.23-.13,.7-.47,1.38-1.03,2.05-.86,1.13-1.82,2.14-2.88,3.04-1.06,.9-2.21,1.72-3.46,2.47-.98,.62-2.02,1.11-3.1,1.46-1.08,.35-2.22,.47-3.42,.38-1.15-.05-2.22-.26-3.2-.63-.98-.37-1.85-1-2.59-1.89-.19-.26-.42-.52-.68-.77-.26-.25-.53-.51-.79-.77-.67-.77-1.11-1.6-1.31-2.48-.2-.89-.26-1.8-.16-2.74,.05-.34,.11-.67,.18-1.01,.07-.34,.13-.67,.18-1.01l-.29,3.78h.32c-.07-1.66,.13-3.25,.59-4.79,.47-1.54,1.19-3.05,2.18-4.54-.29,.1-.49,.14-.61,.14,.19-.34,.37-.67,.54-.99,.17-.32,.36-.62,.58-.88,.41-.55,.85-1.09,1.31-1.6,.47-.52,.93-1.04,1.39-1.57-.19,.43-.4,.77-.61,1.01l.22,.14,1.66-1.66c-.1-.02-.16-.06-.18-.11-.14,.12-.29,.22-.43,.29-.14,.07-.29,.16-.43,.25Zm-2.77,3.35c.1,.05,.18,.11,.25,.18l1.58-2.05s-.06-.02-.11-.07l-1.73,1.94Z"/>
  <path class="cls-1" d="M174.93,16.95l.9-2.88c.1-.38,.2-.77,.31-1.15,.11-.38,.2-.78,.27-1.19,.02-.02,.03-.05,.02-.07-.01-.02,0-.05,.05-.07,.12-.31,.27-.62,.45-.92,.18-.3,.31-.62,.38-.95,.07-.19,.07-.35,0-.47-.07-.12-.16-.23-.27-.32-.11-.1-.23-.19-.38-.27-.14-.08-.25-.19-.32-.31-.12-.1-.25-.18-.38-.25-.13-.07-.26-.15-.4-.23-.13-.08-.25-.19-.34-.31-.1-.12-.16-.29-.18-.5l4-.54c.58-.07,1.15-.16,1.71-.27,.56-.11,1.13-.17,1.71-.2,.36-.02,.71-.05,1.06-.09,.35-.04,.7-.04,1.06-.02,.36,.02,.72,.1,1.08,.22,.36,.12,.71,.31,1.04,.58,.5,.36,.71,.71,.61,1.04-.05,.12-.13,.25-.23,.38-.11,.13-.25,.22-.41,.27-.41,.12-.82,.23-1.24,.34-.42,.11-.83,.19-1.24,.23-.29,.05-.49,.13-.61,.25-.12,.12-.24,.31-.36,.58-.19,.58-.42,1.15-.68,1.71-.26,.56-.52,1.12-.76,1.67-.22,.62-.43,1.23-.65,1.82-.22,.59-.42,1.19-.61,1.82-.17,.48-.29,.81-.36,.99-.07,.18-.13,.33-.18,.45-.05,.12-.1,.27-.16,.45-.06,.18-.16,.52-.31,1.03-.24,1.03-.46,2.05-.65,3.06-.19,1.01-.38,2.04-.58,3.1-.07,.41-.04,.65,.09,.74,.13,.08,.4,.09,.81,.02,.79-.14,1.42-.19,1.87-.14,.46,.05,.82,.16,1.08,.34,.26,.18,.48,.41,.65,.7,.17,.29,.36,.59,.58,.9,.12,.24,.16,.42,.11,.54-.05,.12-.14,.24-.29,.36-.07,.05-.13,.14-.18,.27-.05,.13-.09,.28-.13,.43-.04,.16-.08,.29-.13,.41-.05,.12-.11,.17-.18,.14-1.03-.31-2.09-.41-3.19-.29-1.09,.12-2.15,.27-3.17,.45-1.02,.18-1.96,.31-2.81,.4-.85,.08-1.57-.05-2.14-.41-.26-.17-.45-.35-.56-.54-.11-.19-.17-.4-.2-.63-.02-.23-.02-.47,0-.72,.02-.25,.05-.51,.07-.77,.55-.17,1.15-.29,1.8-.38,.65-.08,1.26-.21,1.84-.38-.31-.34-.53-.66-.67-.97-.13-.31-.21-.62-.23-.94-.02-.31-.01-.62,.04-.94,.05-.31,.1-.64,.14-.97,.05-.48,.13-.96,.25-1.44,.12-.48,.23-.97,.32-1.48,.02,.22,.02,.43,0,.63-.02,.2-.04,.4-.04,.59h.07l1.87-7.06c-.19,.24-.34,.47-.43,.68l-.61,1.48Z"/>
</svg>