<?xml version="1.0" encoding="UTF-8"?>
<svg id="Layer_1" data-name="Layer 1" xmlns="http://www.w3.org/2000/svg" viewBox="0 0 233.89 34.81">
  <defs>
    <style>
      .cls-1 {
        fill: #fff;
      }
    </style>
  </defs>
  <path class="cls-1" d="M9.12,15.59c.46-.07,.87-.14,1.24-.2,.37-.06,.73-.1,1.06-.13,.82-.07,1.63-.13,2.43-.18,.8-.05,1.59-.1,2.36-.14,.46-.05,.8-.04,1.03,.02,.23,.06,.42,.14,.58,.25,.16,.11,.32,.22,.5,.32,.18,.11,.44,.19,.77,.23,.22,.07,.46,.23,.72,.49,.26,.25,.5,.53,.72,.85,.22,.31,.39,.63,.52,.95,.13,.32,.2,.59,.2,.81,0,.41-.11,.67-.34,.77-.23,.11-.49,.16-.77,.16-.62,.02-1.24,.03-1.84,.02-.6-.01-1.21,0-1.84,.02-1.44,.07-2.86,.18-4.27,.32-1.4,.14-2.79,.49-4.16,1.04-.34,.12-.61,.28-.83,.49-.22,.2-.37,.51-.47,.92-.1,.46-.23,.91-.4,1.37-.17,.46-.35,.94-.54,1.44,.29-.02,.56-.05,.81-.07,.25-.02,.51-.06,.77-.11,.74-.1,1.48-.18,2.2-.25,.72-.07,1.45-.17,2.2-.29,.29-.05,.58-.07,.88-.07h.9c.3,0,.59-.02,.88-.07,.29-.05,.58-.14,.86-.29,.12-.05,.24-.04,.36,.04,.53,.29,1.04,.56,1.55,.81,.5,.25,.98,.55,1.44,.88,.26,.19,.47,.46,.61,.81,.14,.35,.28,.69,.4,1.03,.1,.19,.08,.38-.04,.58-.12,.19-.31,.3-.58,.32-.38,.05-.77,.1-1.15,.14-.38,.05-.77,.06-1.15,.04-1.7,0-3.39,.1-5.06,.31-1.67,.2-3.33,.52-4.99,.95-.22,.05-.43,.1-.65,.16-.22,.06-.42,.15-.61,.27-.12,.07-.23,.18-.32,.32-.1,.14-.14,.28-.14,.4,0,.34-.08,.62-.25,.86-.17,.24-.38,.4-.65,.47-.19,.05-.42,.01-.68-.11-.26-.12-.47-.26-.61-.43-.46-.48-.92-.96-1.39-1.44-.47-.48-.76-1.07-.88-1.76-.05-.19-.16-.38-.32-.58-.17-.19-.23-.37-.18-.54,.07-.17,.22-.29,.45-.36,.23-.07,.41-.19,.56-.36,.29-.29,.47-.61,.54-.97,.14-.72,.29-1.45,.45-2.18,.16-.73,.26-1.47,.31-2.21,.05-.48,.02-.97-.09-1.46-.11-.49-.23-.98-.38-1.46-.07-.26-.1-.47-.09-.63,.01-.16,.17-.29,.49-.41,.26-.05,.5-.15,.72-.31,.22-.16,.44-.31,.68-.45,.05-.05,.07-.13,.05-.23-.01-.11,0-.21,.02-.31,0-.05,0-.11-.02-.18-.01-.07,0-.14,.02-.22,.43-1.15,.87-2.3,1.31-3.44,.44-1.14,.86-2.3,1.24-3.47,.12-.31,.16-.65,.11-1.01-.05-.36-.08-.71-.11-1.04-.02-.26-.07-.54-.13-.83-.06-.29-.11-.59-.16-.9,.24,0,.45,0,.63,.02,.18,.01,.34,0,.49-.02,.19-.02,.35-.05,.49-.09,.13-.04,.19-.19,.16-.45,0-.26,.08-.41,.25-.45,.17-.04,.31,.02,.43,.16,.22,.19,.43,.29,.65,.31,.22,.01,.46,0,.72-.02,1.27-.14,2.54-.25,3.8-.31,1.26-.06,2.53-.03,3.8,.09h.67c.2,0,.41,.01,.63,.04,.48,.02,.94,.08,1.37,.18,.43,.1,.82,.34,1.15,.72,.05,.1,.13,.14,.25,.14,.46,.14,.82,.34,1.1,.58,.28,.24,.5,.52,.67,.85,.17,.32,.29,.67,.38,1.03s.16,.73,.23,1.12c.02,.1-.03,.22-.16,.36-.13,.14-.26,.23-.38,.25-.19,.02-.4,.02-.61,0-.22-.02-.42-.05-.61-.07-1.44-.17-2.89-.28-4.34-.34-1.45-.06-2.9,0-4.34,.16h-.14c-.6,.05-1.13,.18-1.58,.4-.46,.22-.76,.68-.9,1.4-.19,.7-.44,1.38-.76,2.05-.31,.67-.61,1.38-.9,2.12Z"/>
  <path class="cls-1" d="M36.88,18.83c.24-.7,.47-1.42,.68-2.18,.22-.76,.46-1.48,.72-2.18,.22-.77,.45-1.52,.7-2.27,.25-.74,.51-1.48,.77-2.2,.26-.77,.51-1.52,.74-2.27,.23-.74,.5-1.46,.81-2.16,.14-.34,.25-.69,.32-1.06,.07-.37,.15-.75,.23-1.13,.08-.38,.19-.75,.32-1.1,.13-.35,.32-.68,.56-.99,.58,.34,1.12,.63,1.62,.88s1.02,.51,1.55,.77c.46,.24,.79,.56,1.01,.97,.22,.41,.23,.85,.04,1.33-.55,1.58-1.12,3.14-1.71,4.68-.59,1.54-1.15,3.1-1.67,4.68-.65,1.9-1.28,3.79-1.89,5.69-.61,1.9-1.19,3.82-1.75,5.76-.17,.55-.29,1.12-.36,1.71-.07,.59-.05,1.19,.07,1.82,.07,.41-.04,.74-.34,1.01-.3,.26-.69,.41-1.17,.43-.7,.02-1.38-.11-2.05-.4-.67-.29-1.27-.64-1.8-1.04-.53-.34-.92-.73-1.19-1.17-.26-.44-.47-.93-.61-1.46-.19-.58-.42-1.15-.68-1.71-.26-.56-.41-1.17-.43-1.82-.02-.58-.05-1.16-.07-1.75-.02-.59-.07-1.19-.14-1.82-.05-.34-.12-.68-.22-1.03-.1-.35-.17-.69-.22-1.03h-.29c-.22,.65-.44,1.3-.68,1.94-.24,.65-.47,1.3-.68,1.94-.34,1.03-.67,2.06-.99,3.08-.32,1.02-.63,2.06-.92,3.11-.12,.48-.2,.96-.23,1.44-.04,.48-.05,.97-.05,1.48,0,.38-.11,.62-.34,.7-.23,.08-.44,.16-.63,.23-.94,.26-1.73,.04-2.38-.68-.07-.12-.19-.23-.36-.32-.34-.1-.59-.24-.76-.43-.17-.19-.29-.4-.36-.63-.07-.23-.1-.47-.09-.74,.01-.26,.03-.52,.05-.76,.1-.65,.22-1.28,.38-1.91,.16-.62,.33-1.24,.52-1.84,.41-1.3,.83-2.59,1.28-3.89,.44-1.3,.89-2.59,1.35-3.89,.36-1.03,.72-2.05,1.08-3.06,.36-1.01,.71-2.03,1.04-3.06,.17-.48,.28-.97,.32-1.46,.05-.49,.12-.98,.22-1.46,.05-.1,.1-.2,.16-.31,.06-.11,.13-.17,.2-.2,.84-.17,1.66-.25,2.47-.25s1.59,.26,2.36,.79c.38,.26,.67,.58,.86,.94,.19,.36,.32,.76,.4,1.19,.12,.79,.23,1.58,.32,2.36,.1,.78,.19,1.55,.29,2.32,.07,.7,.15,1.38,.23,2.05,.08,.67,.15,1.34,.2,2.02,.05,.48,.1,.95,.16,1.4,.06,.46,.13,.92,.2,1.4l.83-2.52Zm3.24-8.06c-.26,.7-.53,1.41-.79,2.14-.26,.73-.53,1.45-.79,2.14l.25,.11,.29-.79,1.12-3.56c.22-.48,.41-.97,.59-1.46,.18-.49,.37-.98,.56-1.46-.07,0-.13-.02-.18-.07l-1.04,2.95Z"/>
  <path class="cls-1" d="M50.2,10.12c.58-.48,1.13-.99,1.66-1.53,.53-.54,1.1-1.03,1.73-1.46,.72-.55,1.48-1.06,2.27-1.53,.79-.47,1.6-.92,2.41-1.35,.86-.46,1.82-.86,2.86-1.22,1.04-.36,2.11-.59,3.19-.7s2.15-.05,3.22,.18c1.07,.23,2.05,.68,2.93,1.35,.19,.17,.35,.34,.47,.5,.12,.17,.23,.35,.32,.54,.02,.05-.09,.24-.34,.58-.25,.34-.57,.73-.95,1.19-.38,.46-.8,.92-1.26,1.4-.46,.48-.9,.88-1.33,1.19-.22,.17-.41,.26-.59,.27-.18,.01-.34,0-.49-.04-.14-.04-.26-.09-.34-.16-.08-.07-.14-.11-.16-.11-.55-.29-1.03-.53-1.44-.72-.41-.19-.8-.32-1.17-.4-.37-.07-.76-.07-1.15,.02-.4,.08-.85,.27-1.35,.56-1.58,.94-3.12,2.03-4.61,3.28-1.49,1.25-2.82,2.6-4,4.07-1.18,1.46-2.11,2.99-2.81,4.59-.7,1.6-1.04,3.2-1.04,4.81,0,1.08,.22,1.8,.67,2.16,.44,.36,1,.52,1.67,.47,.77-.07,1.68-.35,2.74-.83,1.06-.48,2.11-1.04,3.15-1.69,1.04-.65,2.01-1.34,2.9-2.07,.89-.73,1.55-1.39,1.98-1.96-.02-.05-.05-.08-.07-.11s-.04-.05-.04-.07c-.38,.1-.76,.2-1.13,.32-.37,.12-.75,.24-1.13,.36-.34,.12-.68,.18-1.04,.18s-.72-.04-1.08-.13c-.36-.08-.7-.21-1.01-.38-.31-.17-.56-.37-.76-.61l-1.12-1.44v-.2c0-.11,0-.23,.02-.36,.01-.13,.02-.25,.04-.36,.01-.11,.03-.16,.05-.16,1.56-.36,3.01-.73,4.36-1.1,1.34-.37,2.57-.7,3.69-.99s2.11-.53,2.99-.72,1.63-.3,2.25-.32c.34-.02,.65-.06,.94-.11,.29-.05,.57-.08,.85-.09,.28-.01,.56,.02,.85,.09,.29,.07,.6,.22,.94,.43,.17,.12,.29,.27,.38,.45,.08,.18,.16,.37,.22,.58,.06,.2,.11,.41,.14,.63s.09,.41,.16,.58c.19,.41,.2,.73,.04,.95-.17,.23-.49,.37-.97,.41-.72,.05-1.43,.1-2.14,.14-.71,.05-1.43,.1-2.18,.14-.43,.07-.58,.3-.43,.68,.22,.79,.26,1.54,.13,2.23-.13,.7-.47,1.38-1.03,2.05-.86,1.13-1.82,2.14-2.88,3.04-1.06,.9-2.21,1.72-3.46,2.47-.98,.62-2.02,1.11-3.1,1.46-1.08,.35-2.22,.47-3.42,.38-1.15-.05-2.22-.26-3.2-.63-.98-.37-1.85-1-2.59-1.89-.19-.26-.42-.52-.68-.77-.26-.25-.53-.51-.79-.77-.67-.77-1.11-1.6-1.31-2.48-.2-.89-.26-1.8-.16-2.74,.05-.34,.11-.67,.18-1.01,.07-.34,.13-.67,.18-1.01l-.29,3.78h.32c-.07-1.66,.13-3.25,.59-4.79,.47-1.54,1.19-3.05,2.18-4.54-.29,.1-.49,.14-.61,.14,.19-.34,.37-.67,.54-.99,.17-.32,.36-.62,.58-.88,.41-.55,.85-1.09,1.31-1.6,.47-.52,.93-1.04,1.39-1.57-.19,.43-.4,.77-.61,1.01l.22,.14,1.66-1.66c-.1-.02-.16-.06-.18-.11-.14,.12-.29,.22-.43,.29-.14,.07-.29,.16-.43,.25Zm-2.77,3.35c.1,.05,.18,.11,.25,.18l1.58-2.05s-.06-.02-.11-.07l-1.73,1.94Z"/>
  <path class="cls-1" d="M66.97,28.87c.26-.41,.54-.8,.83-1.19,.29-.38,.56-.78,.83-1.19,.6-.91,1.21-1.8,1.82-2.66,.61-.86,1.21-1.75,1.78-2.66,.67-1.08,1.31-2.15,1.93-3.22,.61-1.07,1.24-2.14,1.89-3.22l4.36-7.6c.22-.38,.4-.77,.54-1.17s.31-.77,.5-1.13c.07-.1,.17-.17,.31-.23,.13-.06,.26-.13,.38-.2,.07-.02,.14-.03,.2-.02,.06,.01,.13,0,.2-.02,.65-.07,1.13-.31,1.46-.72,.32-.41,.46-.95,.41-1.62-.05-.34,0-.56,.14-.67s.37-.19,.68-.23c.29,0,.58-.02,.86-.07,.29-.05,.6-.1,.94-.14,.31-.07,.63-.03,.95,.13,.32,.16,.61,.38,.86,.67,.25,.29,.44,.61,.56,.95,.12,.35,.13,.68,.04,.99-.38,1.22-.8,2.43-1.24,3.62-.44,1.19-.85,2.38-1.21,3.58-.65,2.16-1.31,4.29-2,6.39-.68,2.1-1.22,4.24-1.6,6.43-.05,.41,.02,.77,.22,1.08,.19,.41,.25,.74,.16,.99-.08,.25-.29,.5-.63,.74-.24,.17-.36,.38-.36,.65-.1,.98-.17,1.96-.22,2.92-.05,.96-.11,1.92-.18,2.88-.02,.29-.06,.59-.11,.9-.05,.31-.24,.54-.58,.68-.34,.14-.68,.25-1.04,.31-.36,.06-.71-.08-1.04-.41-.14-.14-.33-.25-.56-.31-.23-.06-.4-.16-.52-.31-.19-.12-.33-.29-.41-.5-.08-.22-.17-.42-.27-.61l.07-.07c.07-.07,.13-.12,.18-.14l.07-5.11c-.67,.19-1.34,.4-2.02,.61-.67,.22-1.36,.42-2.05,.61-.05,0-.11,.02-.18,.07-.07,.05-.13,.05-.18,0-.5-.14-.87-.08-1.1,.2-.23,.28-.44,.58-.63,.92-.34,.6-.81,.97-1.42,1.1-.61,.13-1.28-.08-2-.63-.29-.22-.56-.43-.81-.65s-.52-.44-.81-.68Zm13.25-11.95s-.05-.04-.09-.04-.07-.01-.09-.04l-3.89,6.55,2.48-.54,.04,.04s.1,.07,.14,.07l.68-3.1c.12-.5,.24-1,.36-1.49,.12-.49,.24-.98,.36-1.46Z"/>
  <path class="cls-1" d="M92.28,10.12c.58-.48,1.13-.99,1.66-1.53,.53-.54,1.1-1.03,1.73-1.46,.72-.55,1.48-1.06,2.27-1.53,.79-.47,1.6-.92,2.41-1.35,.86-.46,1.82-.86,2.86-1.22,1.04-.36,2.11-.59,3.19-.7s2.15-.05,3.22,.18c1.07,.23,2.05,.68,2.93,1.35,.19,.17,.35,.34,.47,.5,.12,.17,.23,.35,.32,.54,.02,.05-.09,.24-.34,.58-.25,.34-.57,.73-.95,1.19-.38,.46-.8,.92-1.26,1.4-.46,.48-.9,.88-1.33,1.19-.22,.17-.41,.26-.59,.27-.18,.01-.34,0-.49-.04-.14-.04-.26-.09-.34-.16-.08-.07-.14-.11-.16-.11-.55-.29-1.03-.53-1.44-.72-.41-.19-.8-.32-1.17-.4-.37-.07-.76-.07-1.15,.02-.4,.08-.85,.27-1.35,.56-1.58,.94-3.12,2.03-4.61,3.28-1.49,1.25-2.82,2.6-4,4.07-1.18,1.46-2.11,2.99-2.81,4.59-.7,1.6-1.04,3.2-1.04,4.81,0,1.08,.22,1.8,.67,2.16,.44,.36,1,.52,1.67,.47,.77-.07,1.68-.35,2.74-.83,1.06-.48,2.11-1.04,3.15-1.69,1.04-.65,2.01-1.34,2.9-2.07,.89-.73,1.55-1.39,1.98-1.96-.02-.05-.05-.08-.07-.11s-.04-.05-.04-.07c-.38,.1-.76,.2-1.13,.32-.37,.12-.75,.24-1.13,.36-.34,.12-.68,.18-1.04,.18s-.72-.04-1.08-.13c-.36-.08-.7-.21-1.01-.38-.31-.17-.56-.37-.76-.61l-1.12-1.44v-.2c0-.11,0-.23,.02-.36,.01-.13,.02-.25,.04-.36,.01-.11,.03-.16,.05-.16,1.56-.36,3.01-.73,4.36-1.1,1.34-.37,2.57-.7,3.69-.99s2.11-.53,2.99-.72,1.63-.3,2.25-.32c.34-.02,.65-.06,.94-.11,.29-.05,.57-.08,.85-.09,.28-.01,.56,.02,.85,.09,.29,.07,.6,.22,.94,.43,.17,.12,.29,.27,.38,.45,.08,.18,.16,.37,.22,.58,.06,.2,.11,.41,.14,.63s.09,.41,.16,.58c.19,.41,.2,.73,.04,.95-.17,.23-.49,.37-.97,.41-.72,.05-1.43,.1-2.14,.14-.71,.05-1.43,.1-2.18,.14-.43,.07-.58,.3-.43,.68,.22,.79,.26,1.54,.13,2.23-.13,.7-.47,1.38-1.03,2.05-.86,1.13-1.82,2.14-2.88,3.04-1.06,.9-2.21,1.72-3.46,2.47-.98,.62-2.02,1.11-3.1,1.46-1.08,.35-2.22,.47-3.42,.38-1.15-.05-2.22-.26-3.2-.63-.98-.37-1.85-1-2.59-1.89-.19-.26-.42-.52-.68-.77-.26-.25-.53-.51-.79-.77-.67-.77-1.11-1.6-1.31-2.48-.2-.89-.26-1.8-.16-2.74,.05-.34,.11-.67,.18-1.01,.07-.34,.13-.67,.18-1.01l-.29,3.78h.32c-.07-1.66,.13-3.25,.59-4.79,.47-1.54,1.19-3.05,2.18-4.54-.29,.1-.49,.14-.61,.14,.19-.34,.37-.67,.54-.99,.17-.32,.36-.62,.58-.88,.41-.55,.85-1.09,1.31-1.6,.47-.52,.93-1.04,1.39-1.57-.19,.43-.4,.77-.61,1.01l.22,.14,1.66-1.66c-.1-.02-.16-.06-.18-.11-.14,.12-.29,.22-.43,.29-.14,.07-.29,.16-.43,.25Zm-2.77,3.35c.1,.05,.18,.11,.25,.18l1.58-2.05s-.06-.02-.11-.07l-1.73,1.94Z"/>
  <path class="cls-1" d="M120.83,15.59c.46-.07,.87-.14,1.24-.2,.37-.06,.73-.1,1.06-.13,.82-.07,1.63-.13,2.43-.18,.8-.05,1.59-.1,2.36-.14,.46-.05,.8-.04,1.03,.02,.23,.06,.42,.14,.58,.25,.16,.11,.32,.22,.5,.32,.18,.11,.44,.19,.77,.23,.22,.07,.46,.23,.72,.49,.26,.25,.5,.53,.72,.85,.22,.31,.39,.63,.52,.95,.13,.32,.2,.59,.2,.81,0,.41-.11,.67-.34,.77-.23,.11-.49,.16-.77,.16-.62,.02-1.24,.03-1.84,.02-.6-.01-1.21,0-1.84,.02-1.44,.07-2.86,.18-4.27,.32-1.4,.14-2.79,.49-4.16,1.04-.34,.12-.61,.28-.83,.49-.22,.2-.37,.51-.47,.92-.1,.46-.23,.91-.4,1.37-.17,.46-.35,.94-.54,1.44,.29-.02,.56-.05,.81-.07,.25-.02,.51-.06,.77-.11,.74-.1,1.48-.18,2.2-.25,.72-.07,1.45-.17,2.2-.29,.29-.05,.58-.07,.88-.07h.9c.3,0,.59-.02,.88-.07,.29-.05,.58-.14,.86-.29,.12-.05,.24-.04,.36,.04,.53,.29,1.04,.56,1.55,.81,.5,.25,.98,.55,1.44,.88,.26,.19,.47,.46,.61,.81,.14,.35,.28,.69,.4,1.03,.1,.19,.08,.38-.04,.58-.12,.19-.31,.3-.58,.32-.38,.05-.77,.1-1.15,.14-.38,.05-.77,.06-1.15,.04-1.7,0-3.39,.1-5.06,.31-1.67,.2-3.33,.52-4.99,.95-.22,.05-.43,.1-.65,.16-.22,.06-.42,.15-.61,.27-.12,.07-.23,.18-.32,.32-.1,.14-.14,.28-.14,.4,0,.34-.08,.62-.25,.86-.17,.24-.38,.4-.65,.47-.19,.05-.42,.01-.68-.11-.26-.12-.47-.26-.61-.43-.46-.48-.92-.96-1.39-1.44-.47-.48-.76-1.07-.88-1.76-.05-.19-.16-.38-.32-.58-.17-.19-.23-.37-.18-.54,.07-.17,.22-.29,.45-.36,.23-.07,.41-.19,.56-.36,.29-.29,.47-.61,.54-.97,.14-.72,.29-1.45,.45-2.18,.16-.73,.26-1.47,.31-2.21,.05-.48,.02-.97-.09-1.46-.11-.49-.23-.98-.38-1.46-.07-.26-.1-.47-.09-.63,.01-.16,.17-.29,.49-.41,.26-.05,.5-.15,.72-.31,.22-.16,.44-.31,.68-.45,.05-.05,.07-.13,.05-.23-.01-.11,0-.21,.02-.31,0-.05,0-.11-.02-.18-.01-.07,0-.14,.02-.22,.43-1.15,.87-2.3,1.31-3.44,.44-1.14,.86-2.3,1.24-3.47,.12-.31,.16-.65,.11-1.01-.05-.36-.08-.71-.11-1.04-.02-.26-.07-.54-.13-.83-.06-.29-.11-.59-.16-.9,.24,0,.45,0,.63,.02,.18,.01,.34,0,.49-.02,.19-.02,.35-.05,.49-.09,.13-.04,.19-.19,.16-.45,0-.26,.08-.41,.25-.45,.17-.04,.31,.02,.43,.16,.22,.19,.43,.29,.65,.31,.22,.01,.46,0,.72-.02,1.27-.14,2.54-.25,3.8-.31,1.26-.06,2.53-.03,3.8,.09h.67c.2,0,.41,.01,.63,.04,.48,.02,.94,.08,1.37,.18,.43,.1,.82,.34,1.15,.72,.05,.1,.13,.14,.25,.14,.46,.14,.82,.34,1.1,.58,.28,.24,.5,.52,.67,.85,.17,.32,.29,.67,.38,1.03s.16,.73,.23,1.12c.02,.1-.03,.22-.16,.36-.13,.14-.26,.23-.38,.25-.19,.02-.4,.02-.61,0-.22-.02-.42-.05-.61-.07-1.44-.17-2.89-.28-4.34-.34-1.45-.06-2.9,0-4.34,.16h-.14c-.6,.05-1.13,.18-1.58,.4-.46,.22-.76,.68-.9,1.4-.19,.7-.44,1.38-.76,2.05-.31,.67-.61,1.38-.9,2.12Z"/>
  <path class="cls-1" d="M158.09,17.35c.05-.19,.1-.38,.14-.58,.05-.19,.1-.38,.14-.58,.05-.12,.08-.25,.09-.38,.01-.13,.04-.26,.09-.38,.07-.02,.16-.04,.27-.04s.17-.02,.2-.07c.12-.26,.22-.53,.29-.81,.07-.28,.16-.55,.25-.81l-.04-.07h-.04l-.5,.68,1.44-3.6s0-.09,.02-.13c.01-.04,.03-.08,.05-.13l-.14-.11-2.41,2.63c-.7,.79-1.38,1.59-2.05,2.39-.67,.8-1.32,1.63-1.94,2.47-.84,1.13-1.61,2.29-2.32,3.47-.71,1.19-1.29,2.47-1.75,3.83-.19,.62-.57,1.07-1.13,1.33-.56,.26-1.19,.28-1.89,.04-.55-.14-1.09-.34-1.6-.58-.52-.24-1.04-.49-1.57-.76-.12-.05-.25-.16-.38-.32-.13-.17-.21-.32-.23-.47-.05-.36-.1-.73-.14-1.12-.05-.38-.05-.74,0-1.08,.12-.74,.1-1.46-.05-2.16-.16-.7-.26-1.4-.31-2.12,0-.6-.12-1.18-.36-1.73-.07,.19-.15,.38-.23,.58-.08,.19-.15,.38-.2,.58l-3.13,11.05c-.14,.53-.28,1.04-.4,1.55-.12,.5-.25,1.02-.4,1.55-.07,.29-.22,.53-.43,.74-.22,.2-.46,.35-.74,.45-.28,.1-.57,.14-.88,.13-.31-.01-.59-.1-.83-.27-.5-.29-.92-.56-1.24-.83-.32-.26-.55-.56-.67-.88-.12-.32-.15-.68-.09-1.08,.06-.4,.2-.86,.41-1.39,.14-.29,.23-.59,.25-.92s.1-.62,.22-.88c.17-.24,.27-.47,.31-.68,.04-.22,.08-.47,.13-.76,.05-.53,.17-1.03,.36-1.51,.19-.48,.37-.96,.54-1.44-.02,.12-.04,.22-.05,.31s-.04,.19-.09,.31c.48-.34,.65-.83,.5-1.48,0-.12-.01-.23-.04-.34s-.02-.21,0-.31l1.94-6.59,1.66-5.51c0-.1,0-.2,.02-.31,.01-.11,.02-.22,.02-.34,.02-.29,.04-.52,.05-.68,.01-.17,.05-.29,.13-.36s.19-.12,.34-.14c.16-.02,.37-.04,.63-.04-.02-.12-.06-.23-.11-.32-.05-.1-.08-.2-.11-.32,.14-.05,.28-.09,.4-.13,.12-.04,.24-.05,.36-.05,.55,.05,1.11,.1,1.67,.16,.56,.06,1.12,.13,1.67,.2,.67,.1,1.2,.34,1.58,.74,.38,.4,.67,.87,.86,1.42,.12,.31,.18,.62,.18,.92s-.02,.59-.05,.88c-.04,.29-.08,.58-.13,.88-.05,.3-.05,.59,0,.88,.07,.67,.14,1.34,.22,2.02,.07,.67,.17,1.34,.29,2.02,.1,.41,.2,.82,.31,1.24,.11,.42,.22,.87,.34,1.35,.24-.34,.47-.66,.7-.97,.23-.31,.46-.64,.7-.97,.77-.94,1.52-1.88,2.25-2.83,.73-.95,1.48-1.88,2.25-2.79,.89-1.03,1.79-2.05,2.7-3.04,.91-1,1.81-2.01,2.7-3.04,.36-.43,.77-.81,1.24-1.13,.47-.32,.98-.59,1.53-.81,.12-.05,.25-.06,.4-.04,.14,.02,.28,.07,.4,.14,.58,.22,1.15,.44,1.71,.67,.56,.23,1.13,.46,1.71,.7,.46,.24,.82,.63,1.08,1.17s.31,1.05,.14,1.53c-.34,.98-.7,1.95-1.1,2.9-.4,.95-.79,1.91-1.17,2.9-.62,1.61-1.26,3.2-1.91,4.79s-1.27,3.19-1.87,4.82c-.41,1.15-.8,2.3-1.17,3.46-.37,1.15-.71,2.3-1.03,3.46-.14,.5-.21,1.04-.2,1.6,.01,.56-.02,1.1-.09,1.6-.02,.17-.13,.32-.31,.47s-.37,.24-.56,.29c-.48,.14-.95,.17-1.4,.07-.46-.1-.9-.28-1.33-.54-.58-.31-1.16-.62-1.76-.94-.19-.72-.23-1.42-.13-2.09,.11-.67,.31-1.34,.59-2.02l-.36,3.17c.12-.41,.23-.8,.32-1.17,.1-.37,.2-.75,.32-1.13l3.13-9.18c.05-.14,.06-.3,.04-.47-.02-.17-.05-.35-.07-.54,.12-.02,.23-.08,.32-.18v-.14l.5-.94Z"/>
  <path class="cls-1" d="M172.45,15.59c.46-.07,.87-.14,1.24-.2,.37-.06,.73-.1,1.06-.13,.82-.07,1.63-.13,2.43-.18,.8-.05,1.59-.1,2.36-.14,.46-.05,.8-.04,1.03,.02,.23,.06,.42,.14,.58,.25,.16,.11,.32,.22,.5,.32,.18,.11,.44,.19,.77,.23,.22,.07,.46,.23,.72,.49,.26,.25,.5,.53,.72,.85,.22,.31,.39,.63,.52,.95,.13,.32,.2,.59,.2,.81,0,.41-.11,.67-.34,.77-.23,.11-.49,.16-.77,.16-.62,.02-1.24,.03-1.84,.02-.6-.01-1.21,0-1.84,.02-1.44,.07-2.86,.18-4.27,.32-1.4,.14-2.79,.49-4.16,1.04-.34,.12-.61,.28-.83,.49-.22,.2-.37,.51-.47,.92-.1,.46-.23,.91-.4,1.37-.17,.46-.35,.94-.54,1.44,.29-.02,.56-.05,.81-.07,.25-.02,.51-.06,.77-.11,.74-.1,1.48-.18,2.2-.25,.72-.07,1.45-.17,2.2-.29,.29-.05,.58-.07,.88-.07h.9c.3,0,.59-.02,.88-.07,.29-.05,.58-.14,.86-.29,.12-.05,.24-.04,.36,.04,.53,.29,1.04,.56,1.55,.81,.5,.25,.98,.55,1.44,.88,.26,.19,.47,.46,.61,.81,.14,.35,.28,.69,.4,1.03,.1,.19,.08,.38-.04,.58-.12,.19-.31,.3-.58,.32-.38,.05-.77,.1-1.15,.14-.38,.05-.77,.06-1.15,.04-1.7,0-3.39,.1-5.06,.31-1.67,.2-3.33,.52-4.99,.95-.22,.05-.43,.1-.65,.16-.22,.06-.42,.15-.61,.27-.12,.07-.23,.18-.32,.32-.1,.14-.14,.28-.14,.4,0,.34-.08,.62-.25,.86-.17,.24-.38,.4-.65,.47-.19,.05-.42,.01-.68-.11-.26-.12-.47-.26-.61-.43-.46-.48-.92-.96-1.39-1.44-.47-.48-.76-1.07-.88-1.76-.05-.19-.16-.38-.32-.58-.17-.19-.23-.37-.18-.54,.07-.17,.22-.29,.45-.36,.23-.07,.41-.19,.56-.36,.29-.29,.47-.61,.54-.97,.14-.72,.29-1.45,.45-2.18,.16-.73,.26-1.47,.31-2.21,.05-.48,.02-.97-.09-1.46-.11-.49-.23-.98-.38-1.46-.07-.26-.1-.47-.09-.63,.01-.16,.17-.29,.49-.41,.26-.05,.5-.15,.72-.31,.22-.16,.44-.31,.68-.45,.05-.05,.07-.13,.05-.23-.01-.11,0-.21,.02-.31,0-.05,0-.11-.02-.18-.01-.07,0-.14,.02-.22,.43-1.15,.87-2.3,1.31-3.44,.44-1.14,.86-2.3,1.24-3.47,.12-.31,.16-.65,.11-1.01-.05-.36-.08-.71-.11-1.04-.02-.26-.07-.54-.13-.83-.06-.29-.11-.59-.16-.9,.24,0,.45,0,.63,.02,.18,.01,.34,0,.49-.02,.19-.02,.35-.05,.49-.09,.13-.04,.19-.19,.16-.45,0-.26,.08-.41,.25-.45,.17-.04,.31,.02,.43,.16,.22,.19,.43,.29,.65,.31,.22,.01,.46,0,.72-.02,1.27-.14,2.54-.25,3.8-.31,1.26-.06,2.53-.03,3.8,.09h.67c.2,0,.41,.01,.63,.04,.48,.02,.94,.08,1.37,.18,.43,.1,.82,.34,1.15,.72,.05,.1,.13,.14,.25,.14,.46,.14,.82,.34,1.1,.58,.28,.24,.5,.52,.67,.85,.17,.32,.29,.67,.38,1.03s.16,.73,.23,1.12c.02,.1-.03,.22-.16,.36-.13,.14-.26,.23-.38,.25-.19,.02-.4,.02-.61,0-.22-.02-.42-.05-.61-.07-1.44-.17-2.89-.28-4.34-.34-1.45-.06-2.9,0-4.34,.16h-.14c-.6,.05-1.13,.18-1.58,.4-.46,.22-.76,.68-.9,1.4-.19,.7-.44,1.38-.76,2.05-.31,.67-.61,1.38-.9,2.12Z"/>
  <path class="cls-1" d="M200.21,18.83c.24-.7,.47-1.42,.68-2.18,.22-.76,.46-1.48,.72-2.18,.22-.77,.45-1.52,.7-2.27,.25-.74,.51-1.48,.77-2.2,.26-.77,.51-1.52,.74-2.27,.23-.74,.5-1.46,.81-2.16,.14-.34,.25-.69,.32-1.06,.07-.37,.15-.75,.23-1.13,.08-.38,.19-.75,.32-1.1,.13-.35,.32-.68,.56-.99,.58,.34,1.12,.63,1.62,.88s1.02,.51,1.55,.77c.46,.24,.79,.56,1.01,.97,.22,.41,.23,.85,.04,1.33-.55,1.58-1.12,3.14-1.71,4.68-.59,1.54-1.15,3.1-1.67,4.68-.65,1.9-1.28,3.79-1.89,5.69-.61,1.9-1.19,3.82-1.75,5.76-.17,.55-.29,1.12-.36,1.71-.07,.59-.05,1.19,.07,1.82,.07,.41-.04,.74-.34,1.01-.3,.26-.69,.41-1.17,.43-.7,.02-1.38-.11-2.05-.4-.67-.29-1.27-.64-1.8-1.04-.53-.34-.92-.73-1.19-1.17-.26-.44-.47-.93-.61-1.46-.19-.58-.42-1.15-.68-1.71-.26-.56-.41-1.17-.43-1.82-.02-.58-.05-1.16-.07-1.75-.02-.59-.07-1.19-.14-1.82-.05-.34-.12-.68-.22-1.03-.1-.35-.17-.69-.22-1.03h-.29c-.22,.65-.44,1.3-.68,1.94-.24,.65-.47,1.3-.68,1.94-.34,1.03-.67,2.06-.99,3.08-.32,1.02-.63,2.06-.92,3.11-.12,.48-.2,.96-.23,1.44-.04,.48-.05,.97-.05,1.48,0,.38-.11,.62-.34,.7-.23,.08-.44,.16-.63,.23-.94,.26-1.73,.04-2.38-.68-.07-.12-.19-.23-.36-.32-.34-.1-.59-.24-.76-.43-.17-.19-.29-.4-.36-.63-.07-.23-.1-.47-.09-.74,.01-.26,.03-.52,.05-.76,.1-.65,.22-1.28,.38-1.91,.16-.62,.33-1.24,.52-1.84,.41-1.3,.83-2.59,1.28-3.89,.44-1.3,.89-2.59,1.35-3.89,.36-1.03,.72-2.05,1.08-3.06,.36-1.01,.71-2.03,1.04-3.06,.17-.48,.28-.97,.32-1.46,.05-.49,.12-.98,.22-1.46,.05-.1,.1-.2,.16-.31,.06-.11,.13-.17,.2-.2,.84-.17,1.66-.25,2.47-.25s1.59,.26,2.36,.79c.38,.26,.67,.58,.86,.94,.19,.36,.32,.76,.4,1.19,.12,.79,.23,1.58,.32,2.36,.1,.78,.19,1.55,.29,2.32,.07,.7,.15,1.38,.23,2.05,.08,.67,.15,1.34,.2,2.02,.05,.48,.1,.95,.16,1.4,.06,.46,.13,.92,.2,1.4l.83-2.52Zm3.24-8.06c-.26,.7-.53,1.41-.79,2.14-.26,.73-.53,1.45-.79,2.14l.25,.11,.29-.79,1.12-3.56c.22-.48,.41-.97,.59-1.46,.18-.49,.37-.98,.56-1.46-.07,0-.13-.02-.18-.07l-1.04,2.95Z"/>
  <path class="cls-1" d="M218.17,9.58c-.74,1.97-1.49,3.92-2.25,5.87-.76,1.94-1.47,3.92-2.14,5.94-.41,1.18-.73,2.38-.97,3.6-.24,1.22-.48,2.45-.72,3.67-.07,.36-.1,.74-.07,1.13s.06,.79,.11,1.17c.05,.55,0,.89-.14,1.03-.14,.13-.49,.21-1.04,.23-.65,.05-1.24-.03-1.78-.23-.54-.2-1.09-.46-1.64-.77-.38-.22-.65-.49-.81-.81-.16-.32-.23-.67-.23-1.03-.05-.79,.04-1.55,.25-2.27,.22-.72,.41-1.45,.58-2.2,.46-1.78,.97-3.51,1.53-5.2,.56-1.69,1.17-3.38,1.82-5.06,.53-1.3,1.03-2.6,1.51-3.91,.48-1.31,.96-2.62,1.44-3.94,.05-.12,.1-.24,.14-.36,.05-.12,.09-.24,.13-.36,.04-.12,.08-.24,.13-.36-.86,.22-1.71,.41-2.54,.59-.83,.18-1.64,.38-2.43,.59-.43,.14-.87,.17-1.31,.09-.44-.08-.85-.24-1.21-.47-.36-.23-.67-.52-.94-.88-.26-.36-.44-.76-.54-1.19-.07-.26-.16-.53-.27-.79s-.19-.49-.23-.68c1.8-.36,3.56-.71,5.27-1.06,1.72-.35,3.45-.68,5.2-.99,2.42-.43,4.83-.72,7.22-.86,2.39-.14,4.75-.07,7.07,.22,.48,.12,.98,.31,1.49,.58,.52,.26,.99,.55,1.42,.86,.46,.31,.83,.68,1.12,1.12,.29,.43,.47,.91,.54,1.44,.02,.19,.02,.4,0,.61-.02,.22-.08,.35-.18,.4-.12,.05-.28,.05-.49,0-.2-.05-.4-.1-.59-.14-.12-.02-.25-.07-.38-.13-.13-.06-.26-.09-.38-.09-1.2-.14-2.32-.26-3.35-.36-1.03-.1-2.04-.15-3.02-.16-.98-.01-1.98,.01-2.99,.07-1.01,.06-2.06,.17-3.17,.34,.1,.38,.11,.79,.04,1.22-.07,.43-.18,.86-.32,1.3s-.3,.84-.47,1.22c-.17,.38-.3,.72-.4,1.01Z"/>
</svg>