<?xml version="1.0" encoding="UTF-8"?>
<svg id="Layer_1" data-name="Layer 1" xmlns="http://www.w3.org/2000/svg" viewBox="0 0 73.97 30.86">
  <defs>
    <style>
      .cls-1 {
        fill: #8390A4;
      }
    </style>
  </defs>
  <path class="cls-1" d="M14.92,17.53c.24-.7,.47-1.42,.68-2.18,.22-.76,.46-1.48,.72-2.18,.22-.77,.45-1.52,.7-2.27,.25-.74,.51-1.48,.77-2.2,.26-.77,.51-1.52,.74-2.27,.23-.74,.5-1.46,.81-2.16,.14-.34,.25-.69,.32-1.06,.07-.37,.15-.75,.23-1.13,.08-.38,.19-.75,.32-1.1,.13-.35,.32-.68,.56-.99,.58,.34,1.12,.63,1.62,.88s1.02,.51,1.55,.77c.46,.24,.79,.56,1.01,.97,.22,.41,.23,.85,.04,1.33-.55,1.58-1.12,3.14-1.71,4.68-.59,1.54-1.15,3.1-1.67,4.68-.65,1.9-1.28,3.79-1.89,5.69-.61,1.9-1.19,3.82-1.75,5.76-.17,.55-.29,1.12-.36,1.71-.07,.59-.05,1.19,.07,1.82,.07,.41-.04,.74-.34,1.01-.3,.26-.69,.41-1.17,.43-.7,.02-1.38-.11-2.05-.4-.67-.29-1.27-.64-1.8-1.04-.53-.34-.92-.73-1.19-1.17-.26-.44-.47-.93-.61-1.46-.19-.58-.42-1.15-.68-1.71-.26-.56-.41-1.17-.43-1.82-.02-.58-.05-1.16-.07-1.75-.02-.59-.07-1.19-.14-1.82-.05-.34-.12-.68-.22-1.03-.1-.35-.17-.69-.22-1.03h-.29c-.22,.65-.44,1.3-.68,1.94-.24,.65-.47,1.3-.68,1.94-.34,1.03-.67,2.06-.99,3.08-.32,1.02-.63,2.06-.92,3.11-.12,.48-.2,.96-.23,1.44-.04,.48-.05,.97-.05,1.48,0,.38-.11,.62-.34,.7-.23,.08-.44,.16-.63,.23-.94,.26-1.73,.04-2.38-.68-.07-.12-.19-.23-.36-.32-.34-.1-.59-.24-.76-.43-.17-.19-.29-.4-.36-.63-.07-.23-.1-.47-.09-.74,.01-.26,.03-.52,.05-.76,.1-.65,.22-1.28,.38-1.91,.16-.62,.33-1.24,.52-1.84,.41-1.3,.83-2.59,1.28-3.89,.44-1.3,.89-2.59,1.35-3.89,.36-1.03,.72-2.05,1.08-3.06,.36-1.01,.71-2.03,1.04-3.06,.17-.48,.28-.97,.32-1.46,.05-.49,.12-.98,.22-1.46,.05-.1,.1-.2,.16-.31,.06-.11,.13-.17,.2-.2,.84-.17,1.66-.25,2.47-.25s1.59,.26,2.36,.79c.38,.26,.67,.58,.86,.94,.19,.36,.32,.76,.4,1.19,.12,.79,.23,1.58,.32,2.36,.1,.78,.19,1.55,.29,2.32,.07,.7,.15,1.38,.23,2.05,.08,.67,.15,1.34,.2,2.02,.05,.48,.1,.95,.16,1.4,.06,.46,.13,.92,.2,1.4l.83-2.52Zm3.24-8.06c-.26,.7-.53,1.41-.79,2.14-.26,.73-.53,1.45-.79,2.14l.25,.11,.29-.79,1.12-3.56c.22-.48,.41-.97,.59-1.46,.18-.49,.37-.98,.56-1.46-.07,0-.13-.02-.18-.07l-1.04,2.95Z"/>
  <path class="cls-1" d="M24.61,16.52l.9-2.88c.1-.38,.2-.77,.31-1.15,.11-.38,.2-.78,.27-1.19,.02-.02,.03-.05,.02-.07-.01-.02,0-.05,.05-.07,.12-.31,.27-.62,.45-.92,.18-.3,.31-.62,.38-.95,.07-.19,.07-.35,0-.47-.07-.12-.16-.23-.27-.32-.11-.1-.23-.19-.38-.27-.14-.08-.25-.19-.32-.31-.12-.1-.25-.18-.38-.25-.13-.07-.26-.15-.4-.23-.13-.08-.25-.19-.34-.31-.1-.12-.16-.29-.18-.5l4-.54c.58-.07,1.15-.16,1.71-.27,.56-.11,1.13-.17,1.71-.2,.36-.02,.71-.05,1.06-.09,.35-.04,.7-.04,1.06-.02,.36,.02,.72,.1,1.08,.22,.36,.12,.71,.31,1.04,.58,.5,.36,.71,.71,.61,1.04-.05,.12-.13,.25-.23,.38-.11,.13-.25,.22-.41,.27-.41,.12-.82,.23-1.24,.34-.42,.11-.83,.19-1.24,.23-.29,.05-.49,.13-.61,.25-.12,.12-.24,.31-.36,.58-.19,.58-.42,1.15-.68,1.71-.26,.56-.52,1.12-.76,1.67-.22,.62-.43,1.23-.65,1.82-.22,.59-.42,1.19-.61,1.82-.17,.48-.29,.81-.36,.99-.07,.18-.13,.33-.18,.45-.05,.12-.1,.27-.16,.45-.06,.18-.16,.52-.31,1.03-.24,1.03-.46,2.05-.65,3.06-.19,1.01-.38,2.04-.58,3.1-.07,.41-.04,.65,.09,.74,.13,.08,.4,.09,.81,.02,.79-.14,1.42-.19,1.87-.14,.46,.05,.82,.16,1.08,.34,.26,.18,.48,.41,.65,.7,.17,.29,.36,.59,.58,.9,.12,.24,.16,.42,.11,.54-.05,.12-.14,.24-.29,.36-.07,.05-.13,.14-.18,.27-.05,.13-.09,.28-.13,.43-.04,.16-.08,.29-.13,.41-.05,.12-.11,.17-.18,.14-1.03-.31-2.09-.41-3.19-.29-1.09,.12-2.15,.27-3.17,.45-1.02,.18-1.96,.31-2.81,.4-.85,.08-1.57-.05-2.14-.41-.26-.17-.45-.35-.56-.54-.11-.19-.17-.4-.2-.63-.02-.23-.02-.47,0-.72,.02-.25,.05-.51,.07-.77,.55-.17,1.15-.29,1.8-.38,.65-.08,1.26-.21,1.84-.38-.31-.34-.53-.66-.67-.97-.13-.31-.21-.62-.23-.94-.02-.31-.01-.62,.04-.94,.05-.31,.1-.64,.14-.97,.05-.48,.13-.96,.25-1.44,.12-.48,.23-.97,.32-1.48,.02,.22,.02,.43,0,.63-.02,.2-.04,.4-.04,.59h.07l1.87-7.06c-.19,.24-.34,.47-.43,.68l-.61,1.48Z"/>
  <path class="cls-1" d="M46.14,2.52c.43,.05,.83,.08,1.19,.09,.36,.01,.71,.05,1.04,.11,.34,.06,.68,.15,1.03,.27,.35,.12,.73,.32,1.13,.61,.53,.38,1.04,.77,1.53,1.15,.49,.38,.87,.92,1.13,1.62,.05,.17,.02,.52-.07,1.06-.1,.54-.23,1.11-.41,1.71-.18,.6-.38,1.15-.61,1.66-.23,.5-.44,.82-.63,.94-.14,.07-.36,.09-.65,.05-.29-.04-.59-.11-.92-.22-.32-.11-.62-.24-.88-.4-.26-.16-.44-.32-.54-.49-.17-.22-.22-.58-.14-1.08,.07-.5,.16-1,.27-1.48,.11-.48,.19-.88,.23-1.21,.05-.32-.02-.43-.22-.31-1.49,.91-2.8,2-3.94,3.26-1.14,1.26-2.15,2.68-3.04,4.27-.48,.91-.95,1.83-1.4,2.75-.46,.92-.85,1.89-1.19,2.9-.26,.89-.51,1.78-.74,2.68-.23,.9-.34,1.87-.34,2.9,0,.55,.08,.89,.25,1.03,.17,.13,.49,.14,.97,.02,1.13-.36,2.17-.88,3.11-1.55,.95-.67,1.88-1.39,2.79-2.16,.43-.34,.82-.72,1.17-1.15,.35-.43,.73-.85,1.13-1.26,.19-.19,.4-.26,.61-.22,.36,.05,.7,.11,1.03,.18,.32,.07,.65,.13,.99,.18,.17,.05,.37,.17,.61,.36,.24,.19,.47,.41,.7,.65,.23,.24,.43,.49,.59,.76,.17,.26,.26,.48,.29,.65,.02,.22-.02,.43-.13,.63-.11,.2-.22,.37-.34,.49-.77,.7-1.54,1.39-2.32,2.09-.78,.7-1.59,1.37-2.43,2.02-.48,.36-.99,.7-1.53,1.01-.54,.31-1.11,.58-1.71,.79-1.2,.43-2.39,.56-3.58,.4-1.19-.17-2.37-.73-3.55-1.69-.31-.26-.6-.58-.86-.94-.26-.36-.54-.71-.83-1.04-.05-.07-.08-.15-.11-.23-.02-.08-.06-.14-.11-.16-.43-.43-.74-.88-.94-1.33-.19-.46-.31-.92-.36-1.39-.05-.47-.04-.94,.02-1.4,.06-.47,.13-.94,.2-1.42,.29-1.73,.74-3.37,1.37-4.93,.62-1.56,1.36-3.01,2.2-4.36,.31-.5,.78-1.26,1.4-2.27,.62-1.01,1.34-2.02,2.16-3.02,.82-1.01,1.69-1.87,2.61-2.59,.92-.72,1.84-1.04,2.75-.97Z"/>
  <path class="cls-1" d="M67.38,26.06c-.62,.91-1.32,1.76-2.09,2.56s-1.7,1.39-2.81,1.8c-1.15,.41-2.25,.53-3.29,.38-1.04-.16-2.08-.53-3.11-1.13-.79-.46-1.43-.98-1.91-1.57-.48-.59-.83-1.22-1.04-1.89s-.33-1.39-.34-2.14c-.01-.76,.04-1.53,.16-2.32,.14-.89,.39-1.85,.74-2.9s.75-2.09,1.21-3.13c.46-1.04,.94-2.05,1.46-3.01,.52-.96,1.01-1.81,1.49-2.56,.43-.65,.86-1.29,1.28-1.93,.42-.64,.83-1.27,1.24-1.89,.31-.5,.71-.85,1.19-1.04,.48-.19,.97-.34,1.48-.43,.53-.12,1.06-.19,1.6-.22,.54-.02,1.07-.06,1.6-.11,.05,0,.1,0,.16,.02,.06,.01,.1,0,.13-.02,.43-.41,.87-.58,1.31-.5,.44,.07,.87,.22,1.28,.43,1.34,.7,2.44,1.6,3.28,2.7,.84,1.1,1.36,2.42,1.55,3.96,.1,.74,.04,1.55-.16,2.43-.2,.88-.5,1.78-.88,2.7-.38,.92-.83,1.86-1.35,2.81-.52,.95-1.03,1.85-1.55,2.7-.52,.85-1.01,1.65-1.48,2.39-.47,.74-.85,1.38-1.13,1.91Zm-13.46,.97c-.41-1.08-.61-2.12-.61-3.11s.11-1.99,.32-2.97c.26-.94,.57-1.87,.92-2.79,.35-.92,.68-1.83,.99-2.72-.53,.58-.98,1.42-1.37,2.52-.38,1.1-.66,2.24-.83,3.42-.17,1.18-.22,2.29-.14,3.33,.07,1.04,.31,1.82,.72,2.32Zm4.82-7.67c-.14,.46-.28,.93-.41,1.42-.13,.49-.26,.99-.38,1.49-.19,.77-.26,1.54-.22,2.32,.05,.78,.18,1.55,.4,2.32,.07,.26,.16,.44,.27,.54,.11,.1,.33,.08,.67-.04,.6-.24,1.24-.72,1.93-1.44,.68-.72,1.36-1.57,2.02-2.56,.66-.98,1.3-2.03,1.93-3.15,.62-1.12,1.18-2.2,1.67-3.26,.49-1.06,.89-2.02,1.19-2.88,.3-.86,.47-1.52,.52-1.98,.05-.43,.05-.81,0-1.13-.05-.32-.11-.64-.2-.94-.08-.3-.18-.61-.29-.94-.11-.32-.2-.7-.27-1.13-.02-.22-.09-.38-.2-.49s-.34-.15-.7-.13c-.7,.07-1.21,.34-1.55,.79-.34,.46-.64,.9-.9,1.33-.36,.5-.7,1.13-1.03,1.89-.32,.76-.6,1.55-.83,2.38-.23,.83-.38,1.65-.45,2.47-.07,.82-.04,1.54,.11,2.16,.1,.41,.04,.76-.18,1.06-.22,.3-.55,.43-1.01,.38-.34-.05-.67-.11-1.01-.2-.34-.08-.7-.19-1.08-.31Z"/>
</svg>