<?xml version="1.0" encoding="UTF-8"?>
<svg id="Layer_1" data-name="Layer 1" xmlns="http://www.w3.org/2000/svg" viewBox="0 0 87.85 19.86">
  <defs>
    <style>
      .cls-1 {
        fill: #fff;
      }
    </style>
  </defs>
  <path class="cls-1" d="M13.85,17.15c-.39,.51-.84,.82-1.33,.95-.49,.13-1,.15-1.54,.06-.28-.06-.56-.16-.82-.31s-.52-.31-.76-.49c-.32-.25-.62-.53-.91-.83-.28-.3-.55-.61-.8-.92-.44-.56-.85-1.12-1.25-1.69-.4-.56-.81-1.12-1.23-1.69-.07-.08-.15-.16-.23-.23-.08-.07-.18-.16-.27-.27-.15,.38-.3,.74-.44,1.07-.14,.34-.27,.67-.38,1.01-.27,.7-.52,1.39-.77,2.08s-.42,1.38-.54,2.1c0,.08-.05,.16-.16,.23-.11,.07-.2,.12-.28,.15-.11,.03-.24,.02-.39-.03-.15-.05-.29-.11-.44-.19s-.28-.17-.41-.26-.22-.19-.27-.27c-.06-.1-.11-.19-.15-.27-.04-.08-.11-.15-.19-.19-.18-.08-.28-.19-.28-.31,0-.12,.01-.24,.05-.35,.11-.39,.24-.78,.37-1.16,.13-.38,.26-.75,.39-1.12,.17-.49,.34-.98,.52-1.47s.35-.98,.52-1.47c.11-.34,.24-.67,.37-.99,.13-.32,.26-.65,.37-.99,.18-.58,.37-1.16,.55-1.75,.18-.59,.35-1.17,.51-1.75,.03-.11,.04-.23,.04-.35s-.01-.23-.04-.35c0-.06-.04-.1-.13-.15-.08-.04-.16-.07-.23-.08-.24-.04-.42-.12-.55-.23-.13-.11-.23-.25-.32-.42-.07-.11-.15-.22-.24-.34-.09-.11-.19-.22-.28-.34,.06-.07,.11-.13,.15-.18,.04-.05,.09-.1,.15-.16-.07-.04-.14-.08-.22-.12-.08-.03-.17-.08-.28-.14,.1-.07,.16-.2,.19-.38,.03-.18,.06-.32,.08-.42,.03-.13,.21-.25,.56-.37,.34-.12,.79-.23,1.35-.33,.55-.1,1.19-.18,1.9-.24,.71-.06,1.45-.1,2.22-.11,.77,0,1.55,.02,2.33,.07,.78,.06,1.51,.16,2.2,.32,.22,.06,.48,.16,.78,.32,.29,.15,.58,.33,.86,.54,.28,.2,.54,.42,.78,.65,.24,.23,.41,.45,.53,.64,.27,.41,.46,.86,.59,1.36,.13,.5,.15,1,.08,1.51-.07,.51-.24,1-.52,1.5-.27,.49-.68,.93-1.21,1.33-.56,.28-1.06,.52-1.48,.71-.43,.19-.82,.35-1.17,.5-.35,.14-.67,.26-.96,.36-.29,.1-.57,.19-.85,.27-.13,.06-.26,.09-.39,.09-.13,0-.26,.01-.39,.01-.52,.03-.67,.25-.44,.65,.2,.29,.39,.59,.59,.9,.2,.3,.41,.61,.63,.92,.18,.25,.37,.51,.56,.78,.19,.27,.4,.52,.64,.76,.25,.28,.53,.54,.83,.77,.3,.23,.6,.47,.9,.71,.03,.03,.06,.04,.08,.04s.06,.01,.08,.04c.13,.07,.26,.12,.39,.16,.13,.04,.28,.09,.43,.16Zm-3.81-8.72c.32-.14,.64-.28,.96-.41,.32-.13,.64-.26,.98-.37,.44-.17,.83-.37,1.19-.59,.36-.22,.61-.56,.75-1.01,.11-.38,.11-.73-.02-1.04s-.43-.55-.91-.71c-.59-.15-1.15-.27-1.69-.34s-1.11-.11-1.73-.13c-.48-.01-.96-.02-1.43-.01-.48,0-.94,.07-1.39,.18-.07,.03-.13,.07-.19,.14-.06,.06-.08,.12-.06,.16,.06,.41,.04,.79-.05,1.16s-.18,.74-.26,1.12c-.11,.45-.24,.89-.38,1.33-.14,.44-.27,.89-.38,1.37,.08,.01,.16,.02,.22,.03,.06,0,.13,.01,.2,.01,.32-.06,.64-.1,.96-.13,.32-.03,.61-.08,.9-.15,.32-.07,.64-.15,.95-.23,.31-.08,.62-.18,.95-.27-.11,.08-.24,.16-.37,.22s-.26,.12-.39,.18v.04s0,.02,.02,.02c.41-.11,.8-.23,1.18-.35,.38-.12,.77-.25,1.16-.39-.03-.06-.04-.1-.04-.13-.1,.03-.19,.06-.26,.08-.08,.03-.17,.05-.26,.06-.11,.03-.22,.05-.32,.07s-.19,.05-.27,.07Z"/>
  <path class="cls-1" d="M24.95,15.5c-.37,.53-.77,1.03-1.22,1.5-.45,.46-1,.81-1.64,1.05-.67,.24-1.32,.31-1.93,.22s-1.22-.31-1.82-.66c-.46-.27-.84-.57-1.12-.92-.28-.34-.48-.71-.61-1.11-.13-.39-.19-.81-.2-1.25,0-.44,.02-.9,.09-1.36,.08-.52,.23-1.08,.43-1.7,.2-.61,.44-1.22,.71-1.83,.27-.61,.55-1.2,.85-1.76,.3-.56,.59-1.06,.87-1.5,.25-.38,.5-.75,.75-1.13s.49-.74,.73-1.11c.18-.29,.41-.5,.7-.61,.28-.11,.57-.2,.86-.25,.31-.07,.62-.11,.94-.13,.32-.01,.63-.04,.94-.06,.03,0,.06,0,.1,.01,.03,0,.06,0,.07-.01,.25-.24,.51-.34,.77-.29,.26,.04,.51,.13,.75,.25,.79,.41,1.43,.93,1.92,1.58s.79,1.42,.91,2.32c.06,.44,.02,.91-.09,1.42s-.29,1.04-.52,1.58c-.22,.54-.49,1.09-.79,1.64-.3,.56-.6,1.08-.91,1.58-.3,.5-.59,.97-.86,1.4-.27,.44-.5,.81-.66,1.12Zm-7.88,.57c-.24-.63-.36-1.24-.36-1.82s.06-1.16,.19-1.74c.15-.55,.33-1.09,.54-1.63s.4-1.07,.58-1.59c-.31,.34-.58,.83-.8,1.47-.22,.65-.39,1.31-.48,2-.1,.69-.13,1.34-.08,1.95s.18,1.06,.42,1.36Zm2.82-4.49c-.08,.27-.17,.54-.24,.83-.08,.29-.15,.58-.22,.87-.11,.45-.15,.9-.13,1.36,.03,.46,.11,.91,.23,1.36,.04,.15,.09,.26,.16,.32,.06,.06,.19,.05,.39-.02,.35-.14,.73-.42,1.13-.84,.4-.42,.79-.92,1.18-1.5,.39-.58,.76-1.19,1.13-1.84,.37-.65,.69-1.29,.98-1.91,.29-.62,.52-1.18,.69-1.69,.18-.51,.28-.89,.31-1.16,.03-.25,.03-.47,0-.66-.03-.19-.07-.37-.12-.55-.05-.18-.11-.36-.17-.55-.06-.19-.12-.41-.16-.66-.01-.13-.05-.22-.12-.28s-.2-.09-.41-.07c-.41,.04-.71,.2-.91,.46-.2,.27-.37,.53-.53,.78-.21,.29-.41,.66-.6,1.11-.19,.44-.35,.91-.48,1.39s-.22,.97-.26,1.44c-.04,.48-.02,.9,.06,1.26,.06,.24,.02,.45-.11,.62-.13,.18-.32,.25-.59,.22-.2-.03-.39-.07-.59-.12-.2-.05-.41-.11-.63-.18Z"/>
  <path class="cls-1" d="M36.63,5.05c-.32,.17-.62,.35-.91,.55s-.55,.41-.8,.65c-.13,.11-.31,.29-.56,.54s-.46,.51-.64,.8c-.18,.29-.29,.57-.33,.83-.04,.27,.09,.48,.39,.63,.53,.32,1.02,.68,1.46,1.07,.44,.39,.8,.88,1.06,1.45,.27,.55,.37,1.12,.31,1.73-.06,.6-.34,1.17-.83,1.71-.31,.34-.69,.69-1.13,1.05s-.92,.71-1.44,1.03-1.06,.59-1.61,.81c-.55,.22-1.1,.34-1.62,.38-.53,.04-1.02-.05-1.47-.24-.46-.2-.85-.55-1.19-1.05-.11-.18-.2-.34-.27-.46s-.08-.24-.04-.34c.04-.1,.15-.18,.33-.24,.18-.06,.45-.12,.81-.18,.28-.03,.63-.13,1.05-.31,.42-.18,.86-.39,1.31-.65,.45-.26,.89-.55,1.32-.88,.43-.33,.79-.66,1.1-.99,.3-.33,.51-.65,.62-.96s.08-.58-.08-.8c-.37-.29-.73-.58-1.11-.86-.37-.28-.73-.56-1.08-.84-.29-.22-.51-.47-.65-.74-.14-.27-.22-.54-.23-.82-.01-.28,.03-.56,.13-.83,.1-.27,.24-.53,.42-.77,.44-.62,.91-1.17,1.42-1.66,.51-.49,1.05-.94,1.62-1.34,.57-.4,1.16-.77,1.78-1.11,.62-.34,1.25-.66,1.9-.97,.11,0,.22,0,.33-.02s.21,0,.31,.02c.17-.1,.41-.08,.73,.04s.64,.32,.98,.57c.34,.25,.66,.54,.96,.87,.3,.33,.52,.64,.66,.94,.18,.35,.09,.6-.27,.76-.17,.07-.34,.13-.53,.18-.18,.05-.37,.11-.55,.18-.37,.11-.65,.31-.84,.58-.2,.27-.36,.57-.48,.9-.08,.23-.25,.39-.48,.48-.24,.1-.48,.1-.72,.02-.44-.13-.72-.34-.86-.64-.14-.3-.22-.66-.23-1.06Z"/>
  <path class="cls-1" d="M43.43,8.62c.27-.04,.51-.08,.73-.12,.22-.03,.42-.06,.62-.07,.48-.04,.95-.08,1.42-.11,.47-.03,.93-.06,1.38-.08,.27-.03,.47-.02,.6,.01,.13,.04,.25,.08,.34,.15,.09,.06,.19,.13,.29,.19,.11,.06,.26,.11,.45,.14,.13,.04,.27,.14,.42,.28,.15,.15,.29,.31,.42,.5s.23,.37,.31,.56,.12,.35,.12,.47c0,.24-.07,.39-.2,.45-.13,.06-.28,.09-.45,.09-.37,.01-.72,.02-1.07,.01-.35,0-.71,0-1.07,.01-.84,.04-1.67,.1-2.5,.19-.82,.08-1.63,.29-2.43,.61-.2,.07-.36,.17-.48,.28s-.22,.3-.27,.54c-.06,.27-.13,.53-.23,.8-.1,.27-.2,.55-.32,.84,.17-.01,.33-.03,.47-.04s.3-.04,.45-.06c.44-.06,.86-.1,1.29-.15,.42-.04,.85-.1,1.29-.17,.17-.03,.34-.04,.52-.04h.53c.18,0,.35-.01,.52-.04,.17-.03,.34-.08,.51-.17,.07-.03,.14-.02,.21,.02,.31,.17,.61,.33,.91,.47,.29,.15,.58,.32,.84,.52,.15,.11,.27,.27,.36,.47,.08,.2,.16,.4,.23,.6,.06,.11,.05,.22-.02,.34-.07,.11-.18,.18-.34,.19-.23,.03-.45,.06-.67,.08-.22,.03-.45,.04-.67,.02-1,0-1.98,.06-2.96,.18-.98,.12-1.95,.31-2.92,.56-.13,.03-.25,.06-.38,.09-.13,.04-.25,.09-.36,.16-.07,.04-.13,.11-.19,.19-.06,.08-.08,.16-.08,.23,0,.2-.05,.36-.15,.51-.1,.14-.22,.23-.38,.27-.11,.03-.25,0-.4-.06-.15-.07-.27-.15-.36-.25-.27-.28-.54-.56-.81-.84-.27-.28-.45-.62-.52-1.03-.03-.11-.09-.22-.19-.34-.1-.11-.13-.22-.11-.32,.04-.1,.13-.17,.26-.21s.24-.11,.33-.21c.17-.17,.27-.36,.32-.57,.08-.42,.17-.85,.26-1.27,.09-.43,.15-.86,.18-1.3,.03-.28,.01-.56-.05-.85-.06-.29-.14-.57-.22-.85-.04-.15-.06-.28-.05-.37,0-.09,.1-.17,.28-.24,.15-.03,.29-.09,.42-.18,.13-.09,.26-.18,.4-.26,.03-.03,.04-.07,.03-.14,0-.06,0-.12,.01-.18,0-.03,0-.06-.01-.11,0-.04,0-.08,.01-.13,.25-.67,.51-1.34,.77-2.01,.26-.67,.5-1.34,.73-2.03,.07-.18,.09-.38,.06-.59-.03-.21-.05-.41-.06-.61-.01-.15-.04-.32-.07-.48-.04-.17-.07-.34-.1-.53,.14,0,.26,0,.37,.01,.11,0,.2,0,.28-.01,.11-.01,.21-.03,.28-.05,.08-.02,.11-.11,.09-.26,0-.15,.05-.24,.15-.26s.18,.01,.25,.09c.13,.11,.25,.17,.38,.18,.13,0,.27,0,.42-.01,.74-.08,1.48-.14,2.22-.18,.74-.04,1.48-.02,2.22,.05h.39c.12,0,.24,0,.37,.02,.28,.01,.55,.05,.8,.1,.25,.06,.48,.2,.67,.42,.03,.06,.08,.08,.15,.08,.27,.08,.48,.2,.64,.34,.16,.14,.29,.31,.39,.5,.1,.19,.17,.39,.22,.6,.05,.21,.09,.43,.14,.65,.01,.06-.02,.13-.09,.21-.08,.08-.15,.13-.22,.15-.11,.01-.23,.01-.36,0-.13-.01-.25-.03-.36-.04-.84-.1-1.69-.17-2.54-.2-.85-.03-1.7,0-2.54,.1h-.08c-.35,.03-.66,.1-.93,.23s-.44,.4-.53,.82c-.11,.41-.26,.81-.44,1.2-.18,.39-.36,.81-.53,1.24Z"/>
  <path class="cls-1" d="M50.19,16.7l1.85-.93c.07-.03,.12-.08,.16-.16,.04-.08,.06-.15,.07-.22,.06-.46,.11-.93,.17-1.41,.06-.48,.12-.95,.19-1.43,.01-.11,.07-.22,.16-.32,.09-.1,.15-.2,.18-.29,.2-.55,.38-1.09,.56-1.63,.18-.54,.35-1.08,.52-1.63-.01,0-.03,0-.04-.01-.01,0-.04-.01-.06-.01-.08,.22-.17,.45-.25,.66-.08,.22-.16,.44-.23,.66-.03,0-.06-.01-.11-.04,.11-.28,.21-.57,.31-.85,.09-.29,.19-.57,.31-.85,.27-.69,.53-1.37,.8-2.03,.27-.67,.53-1.34,.8-2.01,.17-.38,.34-.75,.51-1.12,.17-.36,.34-.73,.53-1.1,.06-.1,.12-.16,.19-.19,.17-.1,.36-.17,.59-.2,.22-.04,.45-.04,.68-.01,.23,.03,.45,.08,.66,.16,.21,.08,.38,.18,.51,.31,.2,.23,.29,.45,.29,.66s-.1,.49-.29,.81c-1.05,1.92-1.92,3.91-2.59,5.96-.11,.28-.22,.56-.33,.84-.11,.28-.21,.57-.33,.86-.07,.24-.13,.47-.18,.7-.05,.22-.1,.45-.16,.67-.07,.32-.14,.65-.21,.99-.07,.34-.14,.69-.21,1.05l1.52-.34c.62-.14,1.23-.27,1.84-.39,.61-.12,1.23-.23,1.84-.35,.18-.03,.36,0,.55,.06,.18,.07,.36,.11,.55,.13,.44,.03,.8,.15,1.08,.38,.29,.23,.52,.51,.68,.86,.07,.11,.09,.25,.06,.42-.03,.17-.06,.32-.11,.44-.03,.06-.13,.08-.29,.08s-.31,0-.42,.02c-.34,0-.68-.01-1.02-.03-.34-.02-.68,0-1,.07-.74,.18-1.48,.39-2.2,.61-.72,.23-1.46,.45-2.2,.67-.11,.03-.21,.07-.29,.13-.08,.06-.18,.1-.27,.15l.11,.06c-.06,.07-.11,.14-.15,.2s-.1,.11-.17,.14c-.08,.06-.18,.11-.27,.15-.1,.04-.2,.06-.29,.04-.28-.04-.54-.01-.78,.09-.24,.11-.48,.21-.72,.33-.59,.28-1.12,.33-1.6,.15-.48-.18-.83-.56-1.05-1.14-.07-.15-.14-.3-.21-.43-.07-.13-.14-.27-.21-.41Z"/>
  <path class="cls-1" d="M62.35,16.7l1.85-.93c.07-.03,.12-.08,.16-.16,.04-.08,.06-.15,.07-.22,.06-.46,.11-.93,.17-1.41,.06-.48,.12-.95,.19-1.43,.01-.11,.07-.22,.16-.32,.09-.1,.15-.2,.18-.29,.2-.55,.38-1.09,.56-1.63,.18-.54,.35-1.08,.52-1.63-.01,0-.03,0-.04-.01-.01,0-.04-.01-.06-.01-.08,.22-.17,.45-.25,.66-.08,.22-.16,.44-.23,.66-.03,0-.06-.01-.11-.04,.11-.28,.21-.57,.31-.85,.09-.29,.19-.57,.31-.85,.27-.69,.53-1.37,.8-2.03,.27-.67,.53-1.34,.8-2.01,.17-.38,.34-.75,.51-1.12,.17-.36,.34-.73,.53-1.1,.06-.1,.12-.16,.19-.19,.17-.1,.36-.17,.59-.2,.22-.04,.45-.04,.68-.01,.23,.03,.45,.08,.66,.16,.21,.08,.38,.18,.51,.31,.2,.23,.29,.45,.29,.66s-.1,.49-.29,.81c-1.05,1.92-1.92,3.91-2.59,5.96-.11,.28-.22,.56-.33,.84-.11,.28-.21,.57-.33,.86-.07,.24-.13,.47-.18,.7-.05,.22-.1,.45-.16,.67-.07,.32-.14,.65-.21,.99-.07,.34-.14,.69-.21,1.05l1.52-.34c.62-.14,1.23-.27,1.84-.39,.61-.12,1.23-.23,1.84-.35,.18-.03,.36,0,.55,.06,.18,.07,.36,.11,.55,.13,.44,.03,.8,.15,1.08,.38,.29,.23,.52,.51,.68,.86,.07,.11,.09,.25,.06,.42-.03,.17-.06,.32-.11,.44-.03,.06-.13,.08-.29,.08s-.31,0-.42,.02c-.34,0-.68-.01-1.02-.03-.34-.02-.68,0-1,.07-.74,.18-1.48,.39-2.2,.61-.72,.23-1.46,.45-2.2,.67-.11,.03-.21,.07-.29,.13-.08,.06-.18,.1-.27,.15l.11,.06c-.06,.07-.11,.14-.15,.2s-.1,.11-.17,.14c-.08,.06-.18,.11-.27,.15-.1,.04-.2,.06-.29,.04-.28-.04-.54-.01-.78,.09-.24,.11-.48,.21-.72,.33-.59,.28-1.12,.33-1.6,.15-.48-.18-.83-.56-1.05-1.14-.07-.15-.14-.3-.21-.43-.07-.13-.14-.27-.21-.41Z"/>
  <path class="cls-1" d="M74.67,16.39c.15-.24,.32-.47,.48-.7,.17-.22,.33-.46,.48-.7,.35-.53,.71-1.05,1.06-1.56,.36-.51,.71-1.03,1.04-1.56,.39-.63,.77-1.26,1.13-1.89,.36-.62,.73-1.25,1.11-1.89l2.55-4.44c.13-.22,.23-.45,.32-.69,.08-.23,.18-.45,.29-.66,.04-.06,.1-.1,.18-.14,.08-.04,.15-.07,.22-.12,.04-.01,.08-.02,.12-.01,.03,0,.07,0,.12-.01,.38-.04,.66-.18,.85-.42,.19-.24,.27-.55,.24-.95-.03-.2,0-.33,.08-.39,.08-.06,.22-.11,.4-.14,.17,0,.34-.01,.51-.04,.17-.03,.35-.06,.55-.08,.18-.04,.37-.02,.56,.07,.19,.09,.36,.22,.51,.39s.26,.35,.33,.56c.07,.2,.08,.4,.02,.58-.23,.72-.47,1.42-.73,2.12-.26,.69-.49,1.39-.71,2.1-.38,1.26-.77,2.51-1.17,3.74-.4,1.23-.71,2.48-.94,3.76-.03,.24,.01,.45,.13,.63,.11,.24,.14,.43,.1,.58-.05,.15-.17,.29-.37,.43-.14,.1-.21,.23-.21,.38-.06,.58-.1,1.14-.13,1.71-.03,.56-.06,1.12-.1,1.69-.01,.17-.04,.34-.06,.53-.03,.18-.14,.32-.34,.4-.2,.08-.4,.14-.61,.18-.21,.04-.41-.05-.61-.24-.08-.08-.19-.14-.33-.18-.13-.04-.24-.09-.31-.18-.11-.07-.19-.17-.24-.29-.05-.13-.1-.25-.16-.36l.04-.04s.08-.07,.1-.08l.04-2.99c-.39,.11-.79,.23-1.18,.36-.39,.13-.79,.25-1.2,.36-.03,0-.06,.01-.1,.04-.04,.03-.08,.03-.11,0-.29-.08-.51-.05-.64,.12-.13,.16-.26,.34-.37,.54-.2,.35-.47,.57-.83,.64-.36,.08-.75-.05-1.17-.37-.17-.13-.33-.25-.47-.38s-.31-.26-.47-.4Zm7.75-6.99s-.03-.02-.05-.02-.04,0-.05-.02l-2.27,3.83,1.45-.32,.02,.02s.06,.04,.08,.04l.4-1.81c.07-.29,.14-.59,.21-.87,.07-.29,.14-.57,.21-.85Z"/>
</svg>