<?xml version="1.0" encoding="UTF-8"?>
<svg id="Layer_1" data-name="Layer 1" xmlns="http://www.w3.org/2000/svg" viewBox="0 0 138.25 28.25">
  <defs>
    <style>
      .cls-1 {
        fill: #8390a4;
      }
    </style>
  </defs>
  <path class="cls-1" d="M19.7,24.39c-.56,.72-1.19,1.17-1.89,1.35s-1.43,.21-2.19,.09c-.4-.08-.79-.22-1.17-.43-.38-.21-.74-.44-1.08-.7-.46-.36-.89-.75-1.29-1.18-.4-.43-.78-.86-1.14-1.3-.62-.8-1.21-1.6-1.78-2.4s-1.15-1.6-1.75-2.4c-.1-.12-.21-.23-.33-.33-.12-.1-.25-.23-.39-.39-.22,.54-.43,1.05-.63,1.53-.2,.48-.38,.96-.54,1.44-.38,1-.74,1.98-1.09,2.95-.35,.97-.6,1.96-.76,2.98,0,.12-.07,.23-.22,.33-.15,.1-.28,.17-.4,.21-.16,.04-.34,.02-.55-.04-.21-.07-.42-.16-.63-.27-.21-.11-.4-.23-.58-.37s-.31-.27-.39-.39c-.08-.14-.15-.27-.21-.39-.06-.12-.15-.21-.27-.27-.26-.12-.39-.26-.4-.43,0-.17,.02-.33,.07-.49,.16-.56,.33-1.11,.52-1.65,.19-.54,.37-1.07,.55-1.59,.24-.7,.48-1.4,.73-2.1s.49-1.4,.73-2.1c.16-.48,.33-.95,.52-1.41,.19-.46,.36-.93,.52-1.41,.26-.82,.52-1.65,.78-2.49,.26-.84,.5-1.67,.72-2.49,.04-.16,.06-.32,.06-.49s-.02-.33-.06-.49c0-.08-.06-.15-.18-.21-.12-.06-.23-.1-.33-.12-.34-.06-.6-.17-.78-.33-.18-.16-.33-.36-.45-.6-.1-.16-.21-.32-.34-.48-.13-.16-.27-.32-.4-.48,.08-.1,.15-.18,.21-.25,.06-.07,.13-.14,.21-.22-.1-.06-.21-.11-.31-.17-.11-.05-.24-.11-.4-.19,.14-.1,.23-.28,.27-.54,.04-.26,.08-.46,.12-.6,.04-.18,.3-.35,.79-.52,.49-.17,1.13-.32,1.92-.46,.79-.14,1.69-.25,2.7-.34,1.01-.09,2.06-.14,3.16-.15,1.1,0,2.2,.03,3.31,.1,1.11,.08,2.15,.23,3.13,.45,.32,.08,.69,.23,1.11,.45,.42,.22,.83,.47,1.23,.76,.4,.29,.77,.6,1.11,.93,.34,.33,.59,.63,.75,.91,.38,.58,.66,1.22,.84,1.93s.22,1.42,.12,2.14c-.1,.72-.34,1.43-.73,2.13-.39,.7-.96,1.33-1.72,1.89-.8,.4-1.5,.73-2.11,1s-1.16,.5-1.66,.7c-.5,.2-.95,.37-1.36,.51-.41,.14-.81,.27-1.21,.39-.18,.08-.36,.12-.55,.13-.19,.01-.37,.01-.55,.01-.74,.04-.95,.35-.63,.93,.28,.42,.56,.84,.84,1.27,.28,.43,.58,.86,.9,1.3,.26,.36,.52,.73,.79,1.11s.57,.74,.91,1.08c.36,.4,.75,.76,1.18,1.09,.43,.33,.85,.66,1.27,1,.04,.04,.08,.06,.12,.06s.08,.02,.12,.06c.18,.1,.36,.18,.55,.23,.19,.05,.39,.12,.61,.22Zm-5.42-12.4c.46-.2,.91-.39,1.36-.58,.45-.19,.91-.36,1.39-.52,.62-.24,1.18-.52,1.69-.84s.86-.8,1.06-1.44c.16-.54,.15-1.03-.03-1.48-.18-.45-.61-.78-1.29-1-.84-.22-1.64-.38-2.4-.48s-1.58-.16-2.46-.18c-.68-.02-1.36-.02-2.04-.02-.68,.01-1.34,.09-1.98,.25-.1,.04-.19,.1-.27,.19s-.11,.17-.09,.22c.08,.58,.06,1.13-.07,1.65-.13,.52-.25,1.05-.37,1.59-.16,.64-.34,1.27-.54,1.89-.2,.62-.38,1.27-.54,1.95,.12,.02,.22,.04,.31,.04,.09,.01,.18,.02,.28,.02,.46-.08,.91-.14,1.36-.18,.45-.04,.87-.11,1.27-.21,.46-.1,.91-.21,1.35-.33,.44-.12,.89-.25,1.35-.39-.16,.12-.33,.22-.52,.31s-.37,.18-.55,.25v.06s0,.03,.03,.03c.58-.16,1.14-.32,1.68-.49,.54-.17,1.09-.35,1.65-.55-.04-.08-.06-.14-.06-.18-.14,.04-.27,.08-.37,.12-.11,.04-.23,.07-.37,.09-.16,.04-.31,.08-.45,.1-.14,.03-.27,.06-.39,.1Z"/>
  <path class="cls-1" d="M35.49,22.05c-.52,.76-1.1,1.47-1.74,2.13s-1.42,1.16-2.34,1.5c-.96,.34-1.87,.44-2.74,.31-.87-.13-1.73-.44-2.59-.94-.66-.38-1.19-.81-1.59-1.3-.4-.49-.69-1.01-.87-1.57-.18-.56-.27-1.15-.28-1.78,0-.63,.04-1.27,.13-1.93,.12-.74,.32-1.54,.61-2.41,.29-.87,.62-1.74,1-2.61,.38-.87,.78-1.7,1.21-2.5,.43-.8,.84-1.51,1.24-2.13,.36-.54,.71-1.07,1.06-1.6,.35-.53,.69-1.05,1.03-1.57,.26-.42,.59-.71,.99-.87,.4-.16,.81-.28,1.23-.36,.44-.1,.88-.16,1.33-.18,.45-.02,.89-.05,1.33-.09,.04,0,.08,0,.13,.01,.05,.01,.08,0,.1-.01,.36-.34,.72-.48,1.09-.42,.37,.06,.72,.18,1.06,.36,1.12,.58,2.03,1.33,2.73,2.25,.7,.92,1.13,2.02,1.29,3.3,.08,.62,.03,1.29-.13,2.02-.17,.73-.41,1.48-.73,2.25-.32,.77-.69,1.55-1.12,2.34-.43,.79-.86,1.54-1.29,2.25-.43,.71-.84,1.37-1.23,1.99s-.7,1.15-.94,1.59Zm-11.21,.81c-.34-.9-.51-1.76-.51-2.59s.09-1.65,.27-2.47c.22-.78,.47-1.55,.76-2.32,.29-.77,.56-1.52,.82-2.26-.44,.48-.82,1.18-1.14,2.1-.32,.92-.55,1.87-.69,2.85-.14,.98-.18,1.9-.12,2.77,.06,.87,.26,1.51,.6,1.93Zm4.01-6.38c-.12,.38-.24,.77-.34,1.18-.11,.41-.21,.82-.31,1.24-.16,.64-.22,1.28-.18,1.93,.04,.65,.15,1.29,.33,1.93,.06,.22,.13,.37,.22,.45,.09,.08,.27,.07,.55-.03,.5-.2,1.03-.6,1.6-1.2s1.13-1.31,1.68-2.13c.55-.82,1.08-1.69,1.6-2.62,.52-.93,.98-1.83,1.39-2.71,.41-.88,.74-1.68,.99-2.4,.25-.72,.39-1.27,.43-1.65,.04-.36,.04-.67,0-.94s-.09-.53-.16-.78c-.07-.25-.15-.51-.24-.78-.09-.27-.16-.58-.22-.94-.02-.18-.08-.31-.17-.4s-.28-.12-.58-.1c-.58,.06-1.01,.28-1.29,.66-.28,.38-.53,.75-.75,1.11-.3,.42-.58,.94-.85,1.57-.27,.63-.5,1.29-.69,1.98s-.31,1.37-.37,2.05c-.06,.68-.03,1.28,.09,1.8,.08,.34,.03,.63-.15,.88-.18,.25-.46,.35-.84,.31-.28-.04-.56-.09-.84-.17-.28-.07-.58-.15-.9-.25Z"/>
  <path class="cls-1" d="M52.09,7.19c-.46,.24-.89,.5-1.29,.78-.4,.28-.78,.59-1.14,.93-.18,.16-.44,.41-.79,.76-.35,.35-.65,.73-.91,1.14-.26,.41-.41,.8-.46,1.18s.13,.68,.55,.9c.76,.46,1.45,.97,2.08,1.53,.63,.56,1.13,1.25,1.51,2.07,.38,.78,.52,1.6,.43,2.46-.09,.86-.48,1.67-1.18,2.43-.44,.48-.97,.98-1.6,1.5-.63,.52-1.31,1.01-2.05,1.47-.74,.46-1.5,.84-2.29,1.15-.79,.31-1.56,.49-2.31,.54-.75,.05-1.45-.06-2.1-.34-.65-.28-1.21-.78-1.69-1.5-.16-.26-.29-.48-.39-.66-.1-.18-.12-.34-.06-.48,.06-.14,.21-.25,.46-.34,.25-.09,.63-.17,1.15-.25,.4-.04,.9-.18,1.5-.43,.6-.25,1.22-.56,1.86-.93s1.26-.79,1.87-1.26c.61-.47,1.13-.94,1.56-1.41,.43-.47,.72-.92,.88-1.36,.16-.44,.12-.82-.12-1.14-.52-.42-1.04-.83-1.57-1.23-.53-.4-1.04-.8-1.54-1.2-.42-.32-.73-.67-.93-1.05-.2-.38-.31-.77-.33-1.17-.02-.4,.04-.79,.18-1.18,.14-.39,.34-.75,.6-1.09,.62-.88,1.29-1.67,2.02-2.37s1.5-1.33,2.31-1.9,1.65-1.09,2.53-1.57c.88-.48,1.78-.94,2.7-1.38,.16,0,.31,0,.46-.03,.15-.02,.29,0,.43,.03,.24-.14,.58-.12,1.03,.06s.91,.45,1.39,.81c.48,.36,.93,.77,1.36,1.24,.43,.47,.74,.91,.94,1.33,.26,.5,.13,.86-.39,1.08-.24,.1-.49,.18-.75,.25-.26,.07-.52,.15-.78,.25-.52,.16-.92,.43-1.2,.82s-.51,.81-.69,1.27c-.12,.32-.35,.55-.69,.69-.34,.14-.68,.15-1.02,.03-.62-.18-1.03-.48-1.23-.91-.2-.43-.31-.93-.33-1.51Z"/>
  <path class="cls-1" d="M65.39,7.19c-.46,.24-.89,.5-1.29,.78-.4,.28-.78,.59-1.14,.93-.18,.16-.44,.41-.79,.76-.35,.35-.65,.73-.91,1.14-.26,.41-.41,.8-.46,1.18s.13,.68,.55,.9c.76,.46,1.45,.97,2.08,1.53,.63,.56,1.13,1.25,1.51,2.07,.38,.78,.52,1.6,.43,2.46-.09,.86-.48,1.67-1.18,2.43-.44,.48-.97,.98-1.6,1.5-.63,.52-1.31,1.01-2.05,1.47-.74,.46-1.5,.84-2.29,1.15-.79,.31-1.56,.49-2.31,.54-.75,.05-1.45-.06-2.1-.34-.65-.28-1.21-.78-1.69-1.5-.16-.26-.29-.48-.39-.66-.1-.18-.12-.34-.06-.48,.06-.14,.21-.25,.46-.34,.25-.09,.63-.17,1.15-.25,.4-.04,.9-.18,1.5-.43,.6-.25,1.22-.56,1.86-.93s1.26-.79,1.87-1.26c.61-.47,1.13-.94,1.56-1.41,.43-.47,.72-.92,.88-1.36,.16-.44,.12-.82-.12-1.14-.52-.42-1.04-.83-1.57-1.23-.53-.4-1.04-.8-1.54-1.2-.42-.32-.73-.67-.93-1.05-.2-.38-.31-.77-.33-1.17-.02-.4,.04-.79,.18-1.18,.14-.39,.34-.75,.6-1.09,.62-.88,1.29-1.67,2.02-2.37s1.5-1.33,2.31-1.9,1.65-1.09,2.53-1.57c.88-.48,1.78-.94,2.7-1.38,.16,0,.31,0,.46-.03,.15-.02,.29,0,.43,.03,.24-.14,.58-.12,1.03,.06s.91,.45,1.39,.81c.48,.36,.93,.77,1.36,1.24,.43,.47,.74,.91,.94,1.33,.26,.5,.13,.86-.39,1.08-.24,.1-.49,.18-.75,.25-.26,.07-.52,.15-.78,.25-.52,.16-.92,.43-1.2,.82s-.51,.81-.69,1.27c-.12,.32-.35,.55-.69,.69-.34,.14-.68,.15-1.02,.03-.62-.18-1.03-.48-1.23-.91-.2-.43-.31-.93-.33-1.51Z"/>
  <path class="cls-1" d="M75.07,12.25c.38-.06,.72-.11,1.03-.16s.6-.08,.88-.1c.68-.06,1.35-.11,2.02-.15,.67-.04,1.32-.08,1.96-.12,.38-.04,.66-.03,.85,.01,.19,.05,.35,.12,.48,.21,.13,.09,.27,.18,.42,.27s.36,.15,.64,.19c.18,.06,.38,.19,.6,.4,.22,.21,.42,.44,.6,.7,.18,.26,.32,.52,.43,.79,.11,.27,.17,.49,.17,.67,0,.34-.1,.55-.28,.64-.19,.09-.4,.13-.64,.13-.52,.02-1.03,.03-1.53,.02-.5,0-1.01,0-1.53,.02-1.2,.06-2.38,.15-3.55,.27-1.17,.12-2.32,.41-3.46,.87-.28,.1-.51,.24-.69,.4-.18,.17-.31,.42-.39,.76-.08,.38-.19,.76-.33,1.14-.14,.38-.29,.78-.45,1.2,.24-.02,.46-.04,.67-.06s.42-.05,.64-.09c.62-.08,1.23-.15,1.83-.21s1.21-.14,1.83-.24c.24-.04,.48-.06,.73-.06h.75c.25,0,.49-.02,.73-.06s.48-.12,.72-.24c.1-.04,.2-.03,.3,.03,.44,.24,.87,.46,1.29,.67,.42,.21,.82,.45,1.2,.73,.22,.16,.39,.38,.51,.67,.12,.29,.23,.57,.33,.85,.08,.16,.07,.32-.03,.48-.1,.16-.26,.25-.48,.27-.32,.04-.64,.08-.96,.12-.32,.04-.64,.05-.96,.03-1.42,0-2.82,.09-4.21,.25-1.39,.17-2.77,.43-4.15,.79-.18,.04-.36,.08-.54,.13-.18,.05-.35,.12-.51,.22-.1,.06-.19,.15-.27,.27-.08,.12-.12,.23-.12,.33,0,.28-.07,.52-.21,.72-.14,.2-.32,.33-.54,.39-.16,.04-.35,0-.57-.09-.22-.1-.39-.22-.51-.36-.38-.4-.76-.8-1.15-1.2s-.63-.89-.73-1.47c-.04-.16-.13-.32-.27-.48-.14-.16-.19-.31-.15-.45,.06-.14,.19-.24,.37-.3,.19-.06,.34-.16,.46-.3,.24-.24,.39-.51,.45-.81,.12-.6,.24-1.2,.37-1.81,.13-.61,.21-1.22,.25-1.84,.04-.4,.01-.8-.08-1.21-.09-.41-.19-.81-.31-1.21-.06-.22-.09-.39-.08-.52,.01-.13,.15-.24,.4-.34,.22-.04,.42-.12,.6-.25,.18-.13,.37-.25,.57-.37,.04-.04,.05-.1,.04-.19-.01-.09,0-.17,.02-.25,0-.04,0-.09-.02-.15-.01-.06,0-.12,.02-.18,.36-.96,.72-1.91,1.09-2.86,.37-.95,.71-1.91,1.03-2.89,.1-.26,.13-.54,.09-.84-.04-.3-.07-.59-.09-.87-.02-.22-.06-.45-.1-.69s-.09-.49-.13-.75c.2,0,.37,0,.52,.02,.15,.01,.28,0,.4-.02,.16-.02,.29-.04,.4-.07,.11-.03,.15-.15,.13-.37,0-.22,.07-.34,.21-.37,.14-.03,.26,.01,.36,.13,.18,.16,.36,.24,.54,.25,.18,.01,.38,0,.6-.01,1.06-.12,2.11-.2,3.16-.25,1.05-.05,2.1-.02,3.16,.07h.55c.17,0,.34,.01,.52,.03,.4,.02,.78,.07,1.14,.15,.36,.08,.68,.28,.96,.6,.04,.08,.11,.12,.21,.12,.38,.12,.68,.28,.91,.48,.23,.2,.41,.43,.55,.7s.24,.55,.31,.85c.07,.3,.13,.61,.19,.93,.02,.08-.03,.18-.14,.3-.11,.12-.21,.19-.31,.21-.16,.02-.33,.02-.51,0-.18-.02-.35-.04-.51-.06-1.2-.14-2.4-.23-3.61-.28-1.21-.05-2.41,0-3.61,.13h-.12c-.5,.04-.94,.15-1.32,.33-.38,.18-.63,.57-.75,1.17-.16,.58-.37,1.15-.63,1.71-.26,.56-.51,1.15-.75,1.77Z"/>
  <path class="cls-1" d="M84.69,23.76l2.64-1.32c.1-.04,.17-.11,.22-.22,.05-.11,.08-.21,.1-.31,.08-.66,.16-1.33,.24-2.01,.08-.68,.17-1.36,.27-2.04,.02-.16,.09-.31,.22-.45,.13-.14,.21-.28,.25-.42,.28-.78,.54-1.55,.79-2.32,.25-.77,.49-1.54,.73-2.32-.02,0-.04,0-.06-.01-.02-.01-.05-.02-.09-.02-.12,.32-.24,.63-.36,.94-.12,.31-.23,.62-.33,.94-.04,0-.09-.02-.15-.06,.16-.4,.3-.8,.43-1.21,.13-.41,.27-.81,.43-1.21,.38-.98,.76-1.94,1.14-2.89,.38-.95,.76-1.9,1.14-2.86,.24-.54,.48-1.07,.72-1.59s.49-1.04,.75-1.56c.08-.14,.17-.23,.27-.27,.24-.14,.52-.23,.84-.28,.32-.05,.64-.05,.97-.02,.33,.04,.64,.12,.94,.22,.3,.11,.54,.25,.72,.43,.28,.32,.42,.63,.42,.94s-.14,.69-.42,1.15c-1.5,2.74-2.73,5.56-3.69,8.48-.16,.4-.31,.8-.46,1.2-.15,.4-.3,.81-.46,1.23-.1,.34-.19,.67-.25,.99-.07,.32-.15,.64-.22,.96-.1,.46-.2,.93-.3,1.41-.1,.48-.2,.98-.3,1.5l2.16-.48c.88-.2,1.75-.38,2.62-.55,.87-.17,1.74-.33,2.62-.49,.26-.04,.52,0,.78,.09,.26,.1,.52,.16,.78,.18,.62,.04,1.13,.22,1.54,.54,.41,.32,.73,.73,.97,1.23,.1,.16,.13,.36,.09,.6-.04,.24-.09,.45-.15,.63-.04,.08-.18,.12-.42,.12s-.44,.01-.6,.03c-.48,0-.96-.02-1.45-.04-.49-.03-.96,0-1.42,.1-1.06,.26-2.1,.55-3.13,.87-1.03,.32-2.07,.64-3.13,.96-.16,.04-.3,.1-.42,.18-.12,.08-.25,.15-.39,.21l.15,.09c-.08,.1-.15,.19-.21,.28-.06,.09-.14,.15-.24,.19-.12,.08-.25,.15-.39,.21-.14,.06-.28,.08-.42,.06-.4-.06-.77-.01-1.11,.13-.34,.15-.68,.3-1.02,.46-.84,.4-1.6,.47-2.28,.21-.68-.26-1.18-.8-1.5-1.62-.1-.22-.2-.42-.3-.61s-.2-.38-.3-.58Z"/>
  <path class="cls-1" d="M101.97,23.76l2.64-1.32c.1-.04,.17-.11,.22-.22,.05-.11,.08-.21,.1-.31,.08-.66,.16-1.33,.24-2.01,.08-.68,.17-1.36,.27-2.04,.02-.16,.09-.31,.22-.45,.13-.14,.21-.28,.25-.42,.28-.78,.54-1.55,.79-2.32,.25-.77,.49-1.54,.73-2.32-.02,0-.04,0-.06-.01-.02-.01-.05-.02-.09-.02-.12,.32-.24,.63-.36,.94-.12,.31-.23,.62-.33,.94-.04,0-.09-.02-.15-.06,.16-.4,.3-.8,.43-1.21,.13-.41,.27-.81,.43-1.21,.38-.98,.76-1.94,1.14-2.89,.38-.95,.76-1.9,1.14-2.86,.24-.54,.48-1.07,.72-1.59s.49-1.04,.75-1.56c.08-.14,.17-.23,.27-.27,.24-.14,.52-.23,.84-.28,.32-.05,.64-.05,.97-.02,.33,.04,.64,.12,.94,.22,.3,.11,.54,.25,.72,.43,.28,.32,.42,.63,.42,.94s-.14,.69-.42,1.15c-1.5,2.74-2.73,5.56-3.69,8.48-.16,.4-.31,.8-.46,1.2-.15,.4-.3,.81-.46,1.23-.1,.34-.19,.67-.25,.99-.07,.32-.15,.64-.22,.96-.1,.46-.2,.93-.3,1.41-.1,.48-.2,.98-.3,1.5l2.16-.48c.88-.2,1.75-.38,2.62-.55,.87-.17,1.74-.33,2.62-.49,.26-.04,.52,0,.78,.09,.26,.1,.52,.16,.78,.18,.62,.04,1.13,.22,1.54,.54,.41,.32,.73,.73,.97,1.23,.1,.16,.13,.36,.09,.6-.04,.24-.09,.45-.15,.63-.04,.08-.18,.12-.42,.12s-.44,.01-.6,.03c-.48,0-.96-.02-1.45-.04-.49-.03-.96,0-1.42,.1-1.06,.26-2.1,.55-3.13,.87-1.03,.32-2.07,.64-3.13,.96-.16,.04-.3,.1-.42,.18-.12,.08-.25,.15-.39,.21l.15,.09c-.08,.1-.15,.19-.21,.28-.06,.09-.14,.15-.24,.19-.12,.08-.25,.15-.39,.21-.14,.06-.28,.08-.42,.06-.4-.06-.77-.01-1.11,.13-.34,.15-.68,.3-1.02,.46-.84,.4-1.6,.47-2.28,.21-.68-.26-1.18-.8-1.5-1.62-.1-.22-.2-.42-.3-.61s-.2-.38-.3-.58Z"/>
  <path class="cls-1" d="M119.5,23.31c.22-.34,.45-.67,.69-.99,.24-.32,.47-.65,.69-.99,.5-.76,1-1.5,1.51-2.22,.51-.72,1-1.46,1.48-2.22,.56-.9,1.09-1.79,1.6-2.68,.51-.89,1.03-1.78,1.57-2.68l3.62-6.32c.18-.32,.33-.64,.45-.97,.12-.33,.26-.64,.42-.94,.06-.08,.15-.15,.25-.19,.11-.05,.21-.1,.31-.17,.06-.02,.11-.02,.17-.01,.05,.01,.1,0,.16-.02,.54-.06,.94-.26,1.21-.6,.27-.34,.38-.79,.34-1.35-.04-.28,0-.46,.12-.55,.12-.09,.31-.15,.57-.19,.24,0,.48-.02,.72-.06s.5-.08,.78-.12c.26-.06,.52-.02,.79,.1,.27,.13,.51,.31,.72,.55,.21,.24,.36,.5,.46,.79,.1,.29,.11,.56,.03,.82-.32,1.02-.66,2.02-1.03,3.01-.37,.99-.7,1.98-1,2.98-.54,1.8-1.09,3.57-1.66,5.32-.57,1.75-1.01,3.53-1.33,5.35-.04,.34,.02,.64,.18,.9,.16,.34,.2,.61,.13,.82-.07,.21-.24,.41-.52,.61-.2,.14-.3,.32-.3,.54-.08,.82-.14,1.63-.18,2.43-.04,.8-.09,1.6-.15,2.4-.02,.24-.05,.49-.09,.75-.04,.26-.2,.45-.48,.57-.28,.12-.57,.2-.87,.25-.3,.05-.59-.07-.87-.34-.12-.12-.27-.21-.46-.25-.19-.05-.33-.13-.43-.25-.16-.1-.27-.24-.34-.42-.07-.18-.15-.35-.23-.51l.06-.06c.06-.06,.11-.1,.15-.12l.06-4.25c-.56,.16-1.12,.33-1.68,.51-.56,.18-1.13,.35-1.71,.51-.04,0-.09,.02-.15,.06-.06,.04-.11,.04-.15,0-.42-.12-.72-.06-.91,.17-.19,.23-.36,.48-.52,.76-.28,.5-.67,.8-1.18,.91-.51,.11-1.06-.06-1.66-.52-.24-.18-.46-.36-.67-.54-.21-.18-.43-.37-.67-.57Zm11.03-9.95s-.04-.03-.07-.03-.06,0-.08-.03l-3.24,5.45,2.07-.45,.03,.03s.08,.06,.12,.06l.57-2.58c.1-.42,.2-.83,.3-1.24,.1-.41,.2-.81,.3-1.21Z"/>
</svg>