<?xml version="1.0" encoding="UTF-8"?>
<svg id="Layer_1" data-name="Layer 1" xmlns="http://www.w3.org/2000/svg" viewBox="0 0 316.99 40.01">
  <defs>
    <style>
      .cls-1 {
        fill: #fff;
      }
    </style>
  </defs>
  <path class="cls-1" d="M28.04,1.86h.09c.28,0,.49,.16,.63,.47,.36,0,.54,.34,.54,1.02-.42,1.15-.92,2.86-1.49,5.13-1.37,3.54-2.06,5.41-2.06,5.61,0,.09-.11,.3-.32,.63l.07,.4c-.12,.02-.3,.52-.54,1.49-.36,.87-.84,2.34-1.42,4.43-.12,.08-.38,.87-.79,2.36-1.95,5.4-3.6,9.17-4.97,11.3-1.05,1.78-1.58,3.52-1.58,5.2l-.16,.09c-1.3-1.36-1.96-2.1-1.97-2.21,0-.59-.05-.93-.16-1.04,.06-.45,.09-.81,.09-1.09l-.16-.25v-.32l.16-.54-.16-.09,.07-.39v-.32h-.07c-.27,.5-.56,1.48-.88,2.92v.54h-.07c-.07,0-.26-.34-.56-1.02-.07,0-.15-.08-.23-.23v-.63c0-1.66,1.05-5.19,3.15-10.58,.16-.19,.25-.45,.25-.79-2.77,.42-5,.69-6.71,.79l-2.44,1.88c-1.22,1-2.14,1.55-2.76,1.67h-.63c-1.01-.29-1.72-.77-2.14-1.42,0-.34-.21-.68-.63-1.02l-.16-.56v-.47c.14-1.03,1.59-2.71,4.36-5.04l.54-1.67c.09-.08,.62-.16,1.58-.23l4.03-4.11c1.54-1.68,2.88-3.09,4.03-4.25,.27,0,.69-.35,1.27-1.04h.07l.09,.16-.09,.32c.09,.32,.18,.47,.25,.47,.48-.2,1.06-.52,1.74-.95h.23l.25,.16c.33,0,1.25-.69,2.76-2.06,.28-.29,1.04-.5,2.29-.62h.16c0,.12,.21,.25,.63,.39,0,.73-.34,1.73-1.02,3.01l-.25,.79h.32l.88-1.99h.16c-.42,1.44-.69,2.21-.79,2.3v.16c.16-.05,.53-.84,1.11-2.37l1.34-3.96h.16v.16c0,.13-.08,.37-.25,.72l.09,.32-.09,.54v.07h.09l.86-2.67v-.09h.16l.25,.16v-.16l-.09-.39,.16-.09c.11,0,.16,.11,.16,.32h.09l.16-.07,.07,.16c.42-.05,.63-.26,.63-.63v-.32l-.32-.4v-.07Zm-12.01,15.56c.11,.05,.19,.07,.25,.07,1.52,0,2.29-.16,2.29-.47,1.72-3.89,3.04-6.23,3.96-7.01,0-.08,.05-.19,.16-.32v-.25c-.28,.18-2.04,2.18-5.29,6.01-.95,1.23-1.42,1.89-1.42,1.97h.07ZM27.81,1.62l.07,.16-.16,.09h-.07v-.09c.01-.11,.06-.16,.16-.16Z"/>
  <path class="cls-1" d="M40.38,.07c.79,0,1.47,.16,2.06,.47,.96,.27,1.61,.66,1.93,1.18,.19,.19,.28,.37,.28,.54,0,.09-.25,.6-.76,1.51,.63,3.07,.95,7.08,.95,12.04v.28c0,.39-.02,1.01-.05,1.86h.12c.6-1.36,1.12-2.39,1.58-3.09,.09,.01,.14,.05,.14,.12v.07c-.13,.2-.19,.39-.19,.56l1.78-3.04,.76-1.02c.07,0,.21-.19,.42-.56l-.07-.14v-.07c.13-.27,.22-.4,.28-.4,.05,.06,.07,.18,.07,.35-.06,0-.13,.02-.21,.05l.07,.14-.07,.14c.14,0,.21,.09,.21,.28h.07l.12-.07-.07-.14c.13-.36,.22-.54,.28-.54l.14,.07c.26-.34,.46-.66,.62-.97l.69-.97s.02,.07,.07,.07l-1.51,2.62c0,.11-.07,.24-.21,.4l.14,.07c0-.11,.71-1.3,2.14-3.59,.53-.68,1.21-1.71,2.06-3.09,.07,0,.25-.18,.54-.54l.07,.14c-.29,.32-.57,.82-.83,1.51,.48-.69,.76-1.04,.83-1.04v.14c-.41,.7-.62,1.1-.62,1.18v.05h.07c.22-.46,.54-.89,.97-1.3h.07v.07c-.19,.26-.28,.42-.28,.47h.14c0-.11,.16-.29,.47-.54h.07v.07l-.07,.14c.05,.08,.07,.17,.07,.26-.5,.69-.76,1.15-.76,1.39l.49-.42,.07,.14s-.23,.32-.56,.97v.14h.07c0-.09,.21-.39,.62-.9,.29-.4,.57-.7,.83-.9h.07v.07c0,.07-.13,.32-.4,.76,0,.21-.62,1.38-1.86,3.52l-.47,.76,.07,.14c-.19,.52-.42,.97-.7,1.37v.4l.14,.21c-.13,.33-.22,.49-.26,.49l-.07-.14c.05-.09,.07-.16,.07-.21l-.14-.07c-.07,.06-.14,.33-.21,.83,.09,.15,.14,.27,.14,.35-.28,.2-.42,.31-.42,.33,0,.05,.02,.07,.07,.07,0,.25-.3,1.07-.9,2.48v.28h.07c.34-.9,.54-1.36,.62-1.37,0,.22,.05,.33,.14,.33v.54l-.69,1.32,.07,.14c-.05,.18-.14,.26-.28,.26v.35l-1.37,3.45c-.19,.22-.42,.73-.69,1.51-.83,1.56-1.61,2.87-2.34,3.92-1.52,1.79-2.37,2.92-2.55,3.38h-.21c-.09,0-.14-.05-.14-.14l-.33,.07c-.12,0-.19-.09-.21-.28h-.21l-.33-.05c0,.08-.05,.12-.14,.12l-.21-.12h-.14l.07,.12c0,.09-.07,.14-.21,.14l-.33-.21c0,.09-.05,.14-.14,.14h-.14c-.4-.27-1.06-.59-1.99-.97-.49-.26-.79-.44-.9-.54-.33-.77-.56-1.73-.7-2.88l.07-.35v-1.11l-.07-.4s.02-.07,.07-.07c-.08-.84-.12-1.44-.12-1.79,0-.23,.02-.69,.05-1.37-.08-1.39-.12-2.72-.12-3.99,0-.05-.02-.23-.07-.56h-.21c-.94,2.04-2.2,4.04-3.78,5.99-.76,.84-1.29,1.55-1.6,2.13-.32,0-.66,.67-1.02,2v.42l.07,.62-.14,.07h-.35c-.08,0-.22-.21-.4-.63l-.14-.05c0,.08-.05,.12-.14,.12-.3-.41-.56-.62-.76-.62-.09,.05-.16,.07-.21,.07-.46-.55-.94-.83-1.44-.83-.55-.29-.83-.69-.83-1.18v-.19c.14-2.53,2.12-7.38,5.92-14.54,1.89-3.3,4.09-6.74,6.61-10.32,.26-.32,.49-.47,.69-.47Zm6.47,14.1h.14c-.04,.38-.11,.56-.21,.56-.05-.09-.07-.16-.07-.21,.09-.15,.14-.27,.14-.35Zm.76-1.37l.07,.14v.14c-.18,.46-.29,.69-.35,.69h-.05v-.14c0-.32,.11-.59,.33-.83Zm.28-.35h.07l-.07,.35h-.07c-.09,0-.14-.05-.14-.14,0-.06,.07-.13,.21-.21Zm1.58-2.6h.07v.12c-.4,.59-.86,1.35-1.39,2.29h-.12c.4-.97,.88-1.78,1.44-2.41Zm-.28,1.99v.21h.07c.09,0,.14-.05,.14-.14v-.07h-.21Zm.21-.26v.05c.01,.09,.06,.14,.14,.14h.14l.07-.26c-.08,.05-.2,.07-.35,.07Zm.35-1.25h.05c.09,.01,.14,.06,.14,.14v.07h-.19v-.21Zm2.41,6.75l-.07,.26c.07,0,.13-.09,.19-.26h-.12Zm.12-.76h.14v.07c0,.09-.05,.14-.14,.14v-.21Zm.42,0v.26c0,.09-.05,.14-.14,.14v-.26c.01-.09,.06-.14,.14-.14Zm.07-.83v.14c0,.08-.05,.12-.14,.12v-.12c.01-.09,.06-.14,.14-.14Zm.14-4.41c.01,.09,.06,.14,.14,.14l.12-.21v-.14h-.07c-.06,0-.12,.07-.19,.21Zm1.3-1.04c-.06,.21-.4,.7-1.04,1.46-.05,.3-.07,.56-.07,.76,.02,.09,.07,.14,.14,.14,0-.12,.14-.38,.42-.77,0-.16,.05-.3,.14-.4l-.14-.21c.18,0,.38-.3,.62-.9v-.07h-.07Zm-.9,.49l-.07,.14v.07h.21v-.07c0-.09-.05-.14-.14-.14Zm.14-.21l.14,.07,.07-.28c-.07,0-.14,.07-.21,.21Zm.28-1.37c0,.13-.05,.19-.14,.19v.07h.14l.14-.19v-.07h-.14Zm.26-.35v.07c.09,0,.14-.05,.14-.14v-.07c-.09,.02-.14,.07-.14,.14Zm.56-.83h.07c.06,0,.17-.13,.33-.4v-.07h-.07c-.11,.02-.22,.18-.33,.47Zm.14-1.37l-.07,.14v.07h.07c0-.06,.02-.13,.05-.21h-.05Zm1.99-.42l.07,.14-.14,.07h-.07v-.07c.01-.09,.06-.14,.14-.14Z"/>
  <path class="cls-1" d="M67.73,.02c.29,.06,.46,.09,.49,.09,.4-.06,.62-.09,.67-.09,.49,.06,.8,.09,.91,.09l.42-.09c2.75,0,6.22,1,10.39,3.01,2.57,1.35,4.29,2.34,5.17,2.99,1.55,1.23,2.32,2.62,2.32,4.17h-.09l.09,.16c-.06,.11-.09,.19-.09,.25l.09,.18c-.21,1.38-.68,2.6-1.41,3.66-1.73,1.99-2.74,2.99-3.01,2.99-2.62,2.24-4.87,3.74-6.73,4.5-.74,.47-1.85,.94-3.32,1.41-.06,.15-.45,.26-1.16,.33v-.09c-2.79,.67-6.01,1.8-9.65,3.41-1.21,.39-1.93,.58-2.16,.58-.08,.23-.33,.43-.76,.58-.11,0-.16-.05-.16-.16-.43,.07-.71,.15-.83,.25-.08,0-.16-.11-.25-.33l-.18,.09h-.09l-.33-.25-.25,.16h-.09c-.11,0-.16-.14-.16-.42h-.09l-.33,.26-.16-.09-.49,.09-.33-.18c-.11,.06-.22,.09-.33,.09,0-.09-.11-.21-.33-.33l-.51,.42h-.25c-.08,0-.16-.09-.25-.26v-.07c.27-.55,.69-1.03,1.25-1.42l-.09-.98v-.42c-.11,.01-.16,.06-.16,.16v.42l.07,.42-.16,.07c-.16,0-.28-.3-.33-.91,0-1,2.27-4.68,6.82-11.06,1.07-1.96,2.56-4.48,4.48-7.56,1.17-1.8,1.76-2.81,1.76-3.01l-2.25-1.56c-.45-.27-.67-.44-.67-.51v-.16c0-.12,.69-.37,2.07-.76l.42-.09Zm6.73,5.84c-.86,2.34-1.74,4.39-2.65,6.15-.61,.75-1.78,2.58-3.5,5.48-1.44,1.38-2.52,2.63-3.23,3.74h.16c6.36-2.51,10.8-4.89,13.31-7.15,1.83-1.5,2.74-2.78,2.74-3.83-.34-1.05-.76-1.58-1.25-1.58-3.01-1.88-4.87-2.81-5.57-2.81Z"/>
  <path class="cls-1" d="M133.49,.3c1.61,.28,2.86,.76,3.76,1.44,1.69,1.58,2.6,3.03,2.74,4.34,.06,.48,.08,.86,.05,1.12-.01,.12-.04,.22-.09,.3,.04,.09,.05,.17,.05,.23-.13,1.39-1.94,3-5.43,4.82-1.17,.61-2.2,1.07-3.09,1.37l-.02,.14c1.04,.46,2,1.17,2.88,2.13,1.02,1.2,1.62,2.24,1.81,3.13,.2,.6,.28,1.15,.23,1.67-.05,.55-.69,1.37-1.93,2.44-1.41,.89-2.83,1.56-4.27,2-.11-.01-1.2,.27-3.29,.84-2.03,.43-3.05,.74-3.06,.91-.95,.29-1.8,.64-2.55,1.05-1.73,.69-3.9,.92-6.49,.69-1.05-.23-1.77-.59-2.14-1.07h-.07s-.18,.12-.47,.4c-.43-.25-.64-.46-.62-.65l.02-.3-.16,.05-.14-.09c.06-.09,.09-.16,.11-.21l-.07-.16c.12-.15,.18-.29,.19-.42v-.09c-.41,.47-.63,.7-.65,.7-.39-.36-.86-.66-1.42-.88-.15-.46-.38-.7-.69-.72,0,.09-.08,.13-.23,.12-.76-.43-1.14-.69-1.12-.77l.04-.3,.07-.14c-.19-.12-.28-.25-.26-.39,.86-1.97,2.23-4.26,4.11-6.87,.63-1.04,1.91-2.82,3.83-5.34,2.66-3.79,4-5.73,4.01-5.84l.02-.14c.01-.19-.19-.7-.62-1.55l-.19-1.14c.05-.63,.7-1.07,1.97-1.32,.59-.23,2.64-.73,6.17-1.48,3.11-.18,5.44-.19,7.01-.05Zm-22.1,26.77l.07,.02c.12,.01,.21-.11,.26-.35l-.09-.02c-.08,0-.16,.12-.25,.35Zm19.72-8.19c-1.52-.13-3.64-.04-6.35,.26-1.12,.26-2.75,.39-4.89,.4-.02,.2-.46,.36-1.32,.47l-.14-.02c-.07,0-.18-.13-.33-.4v-.07c.02-.29,.29-.49,.79-.6l.04-.3c-.36-.07-.6-.16-.72-.28-.54,.82-1.34,1.75-2.41,2.78-.52,.36-.9,.73-1.14,1.09l.16,.02c4.37,.08,7.41-.03,9.12-.33,2.3-.39,4.37-1.03,6.21-1.92,.63-.36,1.11-.69,1.42-.98l.02-.07c-.2-.02-.3-.06-.3-.11l-.16,.05Zm-8.86-6.82l.14,.02c2.2-.8,5.45-2.1,9.74-3.92,1.42-.73,2.5-1.48,3.25-2.25l.02-.07c-2.5,.02-5.33,.25-8.49,.67-1.05,.07-1.6,.32-1.63,.76-.38,.46-1.21,1.83-2.51,4.11-.08-.01-.25,.22-.51,.69Z"/>
  <path class="cls-1" d="M168.24,.07c.62,0,1.3,.44,2.04,1.32,.26,0,.39,.19,.39,.56,.07,0,.15,.08,.23,.23,0,.11-.15,.16-.46,.16v.07c.36,0,.67,.29,.93,.86v.25l-.07,.16-.79-.09c-1.58,0-3.02,.7-4.31,2.11-.94,.63-3.29,1.47-7.05,2.51-2.11,.86-3.91,1.48-5.4,1.88,0,.25-.66,1.52-1.97,3.83v.16c1.79-.57,4.46-1.1,8-1.56,.43,0,.8,.23,1.09,.7,.35,.42,.59,.63,.7,.63,.11,.16,.16,.29,.16,.39-.11,.01-.16,.06-.16,.16v.39h-.32v.16h.32v.16h-.23v.09c.3,.05,.46,.12,.46,.23l-.07,.16c.42,.05,.63,.12,.63,.23-.06,.06-.27,.09-.63,.09l.54,.3v.16l-.07,.16-1.27-.16c-1.83,0-3.18,.66-4.06,1.97-2.5,1.41-4.82,2.11-6.98,2.11h-.7c-.2,0-.85-.05-1.95-.16-.39,.22-.76,.49-1.11,.79,0,.07-.31,.43-.93,1.09v.16c4.07-1.04,7.04-1.56,8.93-1.56,.68,.18,1.02,.46,1.02,.86,.2,.2,.4,.49,.62,.86v.07c0,.32-.44,.47-1.32,.47v.09c.55,.09,.91,.14,1.09,.14v.16h-1.09l-.25,.16h-.77v.16h.07c.12,0,.22-.02,.32-.07l.16,.07s.07-.02,.07-.07l1.34,.16v.16h-.47v.07h.4v.16h-.16c-.19,0-.42-.03-.7-.09-.11,.06-.19,.09-.25,.09v.07c1.42,.06,2.13,.16,2.13,.32-.62-.05-1.07-.07-1.34-.07h-.79c-.11,.01-.16,.06-.16,.16h.47v.16h-.77c-.11,.01-.16,.06-.16,.14h.16v.16c-1.46,.27-2.54,.59-3.22,.95-1.07,.68-2.5,1.22-4.31,1.63-1.07,.32-2.11,.47-3.13,.47h-1.34l-.39,.09v-.09l-.16,.09h-.79c-.21,0-.5,.02-.86,.07l-.16-.07c-.28,.05-.52,.07-.7,.07-.26,0-.49-.13-.7-.39v-.16c.33-.64,.56-1.06,.7-1.25-.21-.08-.32-.16-.32-.25,.11-.32,.21-.55,.32-.7v-.23c-.06,0-.13-.03-.23-.09-.12,0-.4,.34-.86,1.02-.08,0-.21-.16-.39-.47v-.14c.25-1.09,1.39-3.23,3.45-6.43,.75-1.31,1.29-2.2,1.63-2.65,1.49-2.38,2.56-4.26,3.22-5.64,.45-.73,1.85-3.91,4.22-9.56,.26-.2,.81-.3,1.65-.3,2.13,.26,3.41,.57,3.83,.93l.47,.39c3.64-1.56,7.82-2.34,12.53-2.34Zm-15.28,23.57v.07h.32v-.07h-.32Zm1.18,.23v.09h.39v-.09h-.39Zm1.18,1.02h.54l.39,.07v.16l-.77-.07h-.16v-.16Zm.23-.79h.39v.16h-.39v-.16Z"/>
  <path class="cls-1" d="M185.29,.09c.57,.15,1.07,.25,1.49,.28l.56-.04,.69,.3c.11-.04,.22-.05,.33-.04,2.16,.91,3.21,1.7,3.15,2.36,.09,0,.18,.3,.25,.9-.02,.3-.45,.56-1.27,.77-.01,.14-.45,.29-1.32,.44-.01,.09-.32,.2-.91,.32-.13,.19-1.67,1.04-4.62,2.57l-3.34,2.43c-1.48,1.22-2.5,2.28-3.08,3.18-4.34,4.9-6.53,7.62-6.57,8.16-.19,.34-.29,.68-.32,1.02,.08,.06,.18,.09,.3,.11,1.96,.16,4.56-.33,7.82-1.48,.09-.05,.21-.06,.33-.05,.05,0,.07,.03,.07,.09,.62-.06,1-.08,1.12-.07,.4,.14,.67,.4,.81,.79,.28,.02,.45,.25,.51,.69,.15,.13,.45,.66,.9,1.6,.15,.13,.4,.26,.76,.39,.12-.05,.2-.06,.25-.05l.21,.33v.09c-.23,.22-1.01,.53-2.32,.91-1.05,.6-2.13,1.04-3.23,1.32-.01,.08-.38,.23-1.09,.46-.04,.36-1.25,.47-3.64,.33-1.45-.13-2.75-.59-3.88-1.39-.95-.45-1.66-1.17-2.13-2.18-1.32-1.88-1.97-3.38-1.93-4.5,.01-.07,.01-.34,0-.81l.09-.14-.07-.18c.15-1.73,2.1-4.47,5.85-8.21,1.3-1.85,3.85-4.41,7.65-7.66,2.95-2.14,5.15-3.15,6.59-3.02Z"/>
  <path class="cls-1" d="M205.47,0c1,.43,1.87,.93,2.62,1.49,.34,.55,.51,.94,.51,1.18,0,.38-.54,.77-1.63,1.18-.11,.12-.6,.45-1.49,.98v.12c2.92,.93,4.38,1.71,4.38,2.36,.35,.49,.72,.91,1.11,1.25,.05,.42,.13,.7,.26,.84l-.39,2.41c-.64,2.12-1.24,3.63-1.78,4.52,0,.22-.11,.39-.32,.51v-.12h-.07v.26c-.28,.47-.47,.73-.58,.79,0,.23-.5,1.19-1.51,2.87-.23,.15-.56,.63-.98,1.44-.11,0-.32,.28-.65,.84-.04,.08-.05,.15-.05,.19,.08,.01,.12,.06,.12,.14v.05h-.12v-.12h-.21l.07,.32c-.19,.05-.36,.33-.53,.86-1.77,1.69-3.29,2.73-4.57,3.13-1.43,.48-2.54,.72-3.32,.72-2.11,0-4.07-.8-5.89-2.41-1.3-1.8-1.95-3.5-1.95-5.1,0-3.01,1.35-6.35,4.04-10,.69-1.05,2.29-2.84,4.78-5.34,1.55-1.65,3.01-2.98,4.38-3.99,.93-.67,2.19-1.12,3.78-1.37Zm-11.81,22.2s.02,.11,.05,.19l-.05,.14,.05,.26s-.02,.05-.05,.05c.09,.96,.29,1.44,.58,1.44,.16,.05,.34,.07,.53,.07,1.05,0,2.67-.76,4.83-2.29,2.16-2.09,3.62-3.7,4.38-4.83,1.39-1.96,2.55-4.14,3.46-6.54,.39-1.18,.58-2.03,.58-2.55v-.12c-.79-.4-1.59-.73-2.43-.98-.36,.05-.67,.07-.91,.07h-.12v-.07l.33-.26h-.07c-.53,.09-.81,.14-.84,.14v-.07c0-.12,.19-.23,.58-.33,0-.08-.04-.12-.12-.12-.09,.05-.16,.07-.21,.07l-.05-.14s.05-.02,.05-.05h-.51c-.63,.41-1.83,1.49-3.6,3.25-3.01,3.22-5.03,6.34-6.06,9.35-.26,1.12-.39,2.23-.39,3.32Zm10.56-16.45s-.02,.11-.05,.19h.46v-.12l-.33-.07h-.07Z"/>
  <path class="cls-1" d="M224.7,.09c.59,0,1.18,.28,1.79,.83,.14,0,.66,.28,1.55,.84,.06,0,.21,.15,.44,.44v.12c0,.15-.25,1.22-.76,3.22v.05c.94,1.69,1.41,3.91,1.41,6.66,0,.56-.05,1.16-.14,1.79,.05,.08,.07,.15,.07,.19,.2-.14,.8-.87,1.79-2.18,1.86-2.24,3.45-4.01,4.75-5.31,.7-.6,1.17-.9,1.41-.9l.12,.05,1.41-1.07h.07v.05s-.22,.3-.65,.77h.14l1.09-.9,.05,.12-.63,.9v.07l.7-.51,.07,.12c-.08,0-.21,.15-.39,.44,.08,0,.12,.06,.12,.19h.07l.44-.32h.07v.12c-.12,0-.22,.11-.32,.33v.05h.05c.27-.26,.53-.45,.77-.56,.08,.09,.12,.18,.12,.25l-.25,.58h.12l.32-.26,.07,.14c-.34,.25-.56,.5-.65,.76l.19,.14c0-.07,.13-.18,.39-.33h.07c-.34,.35-.51,.54-.51,.58v.07h.05c.43-.39,.67-.58,.7-.58h.07v.12c-.52,.61-.77,.93-.77,.97v.12c.09,0,.14,.02,.14,.07l.12-.07h.12s.15,.17,.32,.51h-.05s.08,.18,.25,.39v.14l-.05,.12c.08,.01,.12,.05,.12,.12-.64,.68-1.18,1.79-1.6,3.34l-1.67,4.41-.58,1.67c-.07,0-.15,.25-.25,.76-.21,0-.32,.22-.32,.65,.08,.01,.12,.05,.12,.12h-.12l-.14-.07c-.43,1.3-.71,2.22-.83,2.76-.11,.09-.32,.61-.63,1.55-.41,.84-.67,1.27-.77,1.27-.14,.02-.44,.56-.9,1.6-.13,.22-.22,.33-.26,.33,0-.09-.23-.16-.7-.19-.47,.39-.7,.75-.7,1.09-.05,0-.07,.04-.07,.12l-.12-.07h-.05c-.09,0-.35,.41-.77,1.23l-.12,.05h-.07v-.12l.39-.7v-.12h-.07c-.16,.08-.25,.21-.25,.37h-.14v-.12s.02-.05,.07-.05l-.07-.14c.13-.28,.19-.45,.19-.51v-.07h-.05c-.04,.22-.1,.33-.19,.33h-.07l.07-.46v-.19l-.14,.07c-.06-.18-.12-.26-.19-.26l-.32,.26c-.09,0-.18-.02-.25-.07-.08,.05-.17,.07-.26,.07,0-.08-.04-.12-.12-.12l.05-.14v-.12l-.12,.07h-.07v-.14h-.05v.07c.04,.07,.05,.16,.05,.26h-.25v-.14c-.26,.39-.6,1.33-1.02,2.83v.32h-.14v-.07c0-.63,.56-2.72,1.67-6.28,.52-1.8,.97-3.26,1.35-4.36l-.14-.05c-1.11,1.03-2.03,1.76-2.74,2.18l-1.09,.63c-.08,0-.15-.19-.19-.58h-.07l-.58,.14c-.11-.32-.25-.56-.44-.72,0-.36-.39-.7-1.16-1.02h-.05c0,.08-.05,.12-.14,.12-.11,0-.19-.19-.25-.56h-.14l-.19,.12c-.34-.52-.51-.9-.51-1.16,.18-1.59,.3-2.6,.39-3.01h-.12c-1.38,3.38-3.3,7.13-5.77,11.27-.28,.63-.67,1.29-1.16,1.99-.04,.23-.05,.43-.05,.58v.32c0,.14,.06,.38,.19,.7l-.26,.19h-.12c-.07,0-.24-.21-.51-.63-.25,0-.42-.4-.51-1.21h-.07v.39c.08,.27,.12,.42,.12,.44h-.12s-.13-.11-.32-.32h-.07v.19h-.07c-.18-.25-.64-.54-1.41-.9v-.14h-.05v.14h-.14c-.55-.3-.83-.77-.83-1.41v-.46c0-1.12,1.52-4.8,4.55-11.02,3.75-8.33,6.08-13.43,6.98-15.29l.7-1.21c0-.18,.15-.26,.44-.26Z"/>
  <path class="cls-1" d="M272.74,.07c.62,0,1.3,.44,2.04,1.32,.26,0,.39,.19,.39,.56,.07,0,.15,.08,.23,.23,0,.11-.15,.16-.46,.16v.07c.36,0,.67,.29,.93,.86v.25l-.07,.16-.79-.09c-1.58,0-3.02,.7-4.31,2.11-.94,.63-3.29,1.47-7.05,2.51-2.11,.86-3.91,1.48-5.4,1.88,0,.25-.66,1.52-1.97,3.83v.16c1.79-.57,4.46-1.1,8-1.56,.43,0,.8,.23,1.09,.7,.35,.42,.59,.63,.7,.63,.11,.16,.16,.29,.16,.39-.11,.01-.16,.06-.16,.16v.39h-.32v.16h.32v.16h-.23v.09c.3,.05,.46,.12,.46,.23l-.07,.16c.42,.05,.63,.12,.63,.23-.06,.06-.27,.09-.63,.09l.54,.3v.16l-.07,.16-1.27-.16c-1.83,0-3.18,.66-4.06,1.97-2.5,1.41-4.82,2.11-6.98,2.11h-.7c-.2,0-.85-.05-1.95-.16-.39,.22-.76,.49-1.11,.79,0,.07-.31,.43-.93,1.09v.16c4.07-1.04,7.04-1.56,8.93-1.56,.68,.18,1.02,.46,1.02,.86,.2,.2,.4,.49,.62,.86v.07c0,.32-.44,.47-1.32,.47v.09c.55,.09,.91,.14,1.09,.14v.16h-1.09l-.25,.16h-.77v.16h.07c.12,0,.22-.02,.32-.07l.16,.07s.07-.02,.07-.07l1.34,.16v.16h-.47v.07h.4v.16h-.16c-.19,0-.42-.03-.7-.09-.11,.06-.19,.09-.25,.09v.07c1.42,.06,2.13,.16,2.13,.32-.62-.05-1.07-.07-1.34-.07h-.79c-.11,.01-.16,.06-.16,.16h.47v.16h-.77c-.11,.01-.16,.06-.16,.14h.16v.16c-1.46,.27-2.54,.59-3.22,.95-1.07,.68-2.5,1.22-4.31,1.63-1.07,.32-2.11,.47-3.13,.47h-1.34l-.39,.09v-.09l-.16,.09h-.79c-.21,0-.5,.02-.86,.07l-.16-.07c-.28,.05-.52,.07-.7,.07-.26,0-.49-.13-.7-.39v-.16c.33-.64,.56-1.06,.7-1.25-.21-.08-.32-.16-.32-.25,.11-.32,.21-.55,.32-.7v-.23c-.06,0-.13-.03-.23-.09-.12,0-.4,.34-.86,1.02-.08,0-.21-.16-.39-.47v-.14c.25-1.09,1.39-3.23,3.45-6.43,.75-1.31,1.29-2.2,1.63-2.65,1.49-2.38,2.56-4.26,3.22-5.64,.45-.73,1.85-3.91,4.22-9.56,.26-.2,.81-.3,1.65-.3,2.13,.26,3.41,.57,3.83,.93l.47,.39c3.64-1.56,7.82-2.34,12.53-2.34Zm-15.28,23.57v.07h.32v-.07h-.32Zm1.18,.23v.09h.39v-.09h-.39Zm1.18,1.02h.54l.39,.07v.16l-.77-.07h-.16v-.16Zm.23-.79h.39v.16h-.39v-.16Z"/>
  <path class="cls-1" d="M315.72,1.86h.09c.28,0,.49,.16,.63,.47,.36,0,.54,.34,.54,1.02-.42,1.15-.92,2.86-1.49,5.13-1.37,3.54-2.06,5.41-2.06,5.61,0,.09-.11,.3-.32,.63l.07,.4c-.12,.02-.3,.52-.54,1.49-.36,.87-.84,2.34-1.42,4.43-.12,.08-.38,.87-.79,2.36-1.95,5.4-3.6,9.17-4.97,11.3-1.05,1.78-1.58,3.52-1.58,5.2l-.16,.09c-1.3-1.36-1.96-2.1-1.97-2.21,0-.59-.05-.93-.16-1.04,.06-.45,.09-.81,.09-1.09l-.16-.25v-.32l.16-.54-.16-.09,.07-.39v-.32h-.07c-.27,.5-.56,1.48-.88,2.92v.54h-.07c-.07,0-.26-.34-.56-1.02-.07,0-.15-.08-.23-.23v-.63c0-1.66,1.05-5.19,3.15-10.58,.16-.19,.25-.45,.25-.79-2.77,.42-5,.69-6.71,.79l-2.44,1.88c-1.22,1-2.14,1.55-2.76,1.67h-.63c-1.01-.29-1.72-.77-2.14-1.42,0-.34-.21-.68-.63-1.02l-.16-.56v-.47c.14-1.03,1.59-2.71,4.36-5.04l.54-1.67c.09-.08,.62-.16,1.58-.23l4.03-4.11c1.54-1.68,2.88-3.09,4.03-4.25,.27,0,.69-.35,1.27-1.04h.07l.09,.16-.09,.32c.09,.32,.18,.47,.25,.47,.48-.2,1.06-.52,1.74-.95h.23l.25,.16c.33,0,1.25-.69,2.76-2.06,.28-.29,1.04-.5,2.29-.62h.16c0,.12,.21,.25,.63,.39,0,.73-.34,1.73-1.02,3.01l-.25,.79h.32l.88-1.99h.16c-.42,1.44-.69,2.21-.79,2.3v.16c.16-.05,.53-.84,1.11-2.37l1.34-3.96h.16v.16c0,.13-.08,.37-.25,.72l.09,.32-.09,.54v.07h.09l.86-2.67v-.09h.16l.25,.16v-.16l-.09-.39,.16-.09c.11,0,.16,.11,.16,.32h.09l.16-.07,.07,.16c.42-.05,.63-.26,.63-.63v-.32l-.32-.4v-.07Zm-12.01,15.56c.11,.05,.19,.07,.25,.07,1.52,0,2.29-.16,2.29-.47,1.72-3.89,3.04-6.23,3.96-7.01,0-.08,.05-.19,.16-.32v-.25c-.28,.18-2.04,2.18-5.29,6.01-.95,1.23-1.42,1.89-1.42,1.97h.07Zm11.78-15.8l.07,.16-.16,.09h-.07v-.09c.01-.11,.06-.16,.16-.16Z"/>
</svg>