<?xml version="1.0" encoding="UTF-8"?>
<svg id="Layer_1" data-name="Layer 1" xmlns="http://www.w3.org/2000/svg" viewBox="0 0 377.47 40.08">
  <defs>
    <style>
      .cls-1 {
        fill: #fff;
      }
    </style>
  </defs>
  <path class="cls-1" d="M20.11,.16c.57,.15,1.07,.25,1.49,.28l.56-.04,.69,.3c.11-.04,.22-.05,.33-.04,2.16,.91,3.21,1.7,3.15,2.36,.09,0,.18,.3,.25,.9-.02,.3-.45,.56-1.27,.77-.01,.14-.45,.29-1.32,.44-.01,.09-.32,.2-.91,.32-.13,.19-1.67,1.04-4.62,2.57l-3.34,2.43c-1.48,1.22-2.5,2.28-3.08,3.18-4.34,4.9-6.53,7.62-6.57,8.16-.19,.34-.29,.68-.32,1.02,.08,.06,.18,.09,.3,.11,1.96,.16,4.56-.33,7.82-1.48,.09-.05,.21-.06,.33-.05,.05,0,.07,.03,.07,.09,.62-.06,1-.08,1.12-.07,.4,.14,.67,.4,.81,.79,.28,.02,.45,.25,.51,.69,.15,.13,.45,.66,.9,1.6,.15,.13,.4,.26,.76,.39,.12-.05,.2-.06,.25-.05l.21,.33v.09c-.23,.22-1.01,.53-2.32,.91-1.05,.6-2.13,1.04-3.23,1.32-.01,.08-.38,.23-1.09,.46-.04,.36-1.25,.47-3.64,.33-1.45-.13-2.75-.59-3.88-1.39-.95-.45-1.66-1.17-2.13-2.18C.61,22.8-.03,21.3,0,20.18c.01-.07,.01-.34,0-.81l.09-.14-.07-.18c.15-1.73,2.1-4.47,5.85-8.21,1.3-1.85,3.85-4.41,7.65-7.66C16.47,1.04,18.67,.03,20.11,.16Z"/>
  <path class="cls-1" d="M39.57,.12c.83,.16,1.78,.63,2.83,1.39,1.12,.82,1.69,1.35,1.69,1.6-.71,2.29-1.35,4.51-1.92,6.68-.41,.87-.62,1.48-.62,1.85,0,.25,1.87,.76,5.61,1.53,2.86-3.59,4.55-6.3,5.06-8.14l.54-.07c.32,0,.77,.23,1.37,.69,0,.26,.21,.39,.62,.39l.16-.07c.14,0,.37,.15,.69,.46,1.34,.19,2,.37,2,.54v.07c-1.12,1.55-2.02,3.72-2.69,6.52-.07,0-.38,.72-.91,2.16-.7,1.8-1.5,3.34-2.39,4.61-.87,1.23-1.86,2.53-2.99,3.9-.09,0-.53,.46-1.3,1.39-.05,0-.71,.66-2,1.99-.26,.14-.69,.76-1.3,1.85-.11,0-.16,.13-.16,.39h-.23v-.23s.03-.07,.09-.07l-.09-.16v-.09l.23-.76c-.35,0-.71,.64-1.07,1.92h-.07l-.09-.16v-.76c0-.11,.05-.36,.16-.77-.16,.06-.34,.49-.53,1.3h-.16c0-.26-.05-.39-.16-.39h-.23c0-.13-.05-.26-.16-.39,.11-.43,.16-.71,.16-.84h-.16c-.18,.25-.33,.91-.46,2h-.16s-.02-.25-.07-.62c0-.21,.08-.77,.23-1.69v-.07h-.07s-.05,.18-.16,.46h-.16l-.07-.54s.07-.02,.07-.07h-.14c-.26,.48-.46,1.2-.62,2.14,.05,.09,.07,.2,.07,.32h-.23v-.09c.05-.98,.12-1.57,.23-1.76-.11,0-.16-.05-.16-.16,.15,0,.23-.05,.23-.16-.05-.09-.07-.17-.07-.23h-.07c-.36,.61-.54,1.02-.54,1.23h-.16v-.23l.09-.39h-.16v.39c-.26,.29-.39,.52-.39,.69h-.16v-.23h-.07c0,.36-.08,.54-.23,.54,0-.11-.05-.16-.16-.16,0-2.12,1.48-5.5,4.45-10.12,.11,0,.16-.13,.16-.39l-.16-.09h-.53c-1.08-.19-2.56-.62-4.45-1.3-2.05,2.6-3.92,4.47-5.61,5.61-.83,.73-1.63,1.37-2.39,1.92-1.03,1.12-1.59,2.02-1.69,2.69-.05,0-.07,.08-.07,.23v.32h-.16v-.09l.09-.77c-.11,0-.23,.26-.39,.77h-.16c-.06,0-.19-.18-.39-.53l-.16,.07c-.71-.6-1.07-1.03-1.07-1.3v-.32c0-.06,.05-.34,.16-.84v-.07h-.07c-.15,.49-.23,.8-.23,.91h-.16v-.23c0-.3,.13-.69,.39-1.14v-.23h-.16c-.3,1.05-.53,1.59-.69,1.6h-.09v-.3c0-.07,.05-.35,.16-.84l-.54,1c-.61-.14-.91-.27-.91-.39l-.16,.07c-.13,0-.21-.1-.23-.3,0-1.17,.69-2.76,2.07-4.76,2.29-3.69,5.69-8.17,10.21-13.43,1.18-1.61,2.23-3.73,3.15-6.38,.18-.71,.51-1.07,1-1.07Zm-13.68,25.1l-.07,.3c.11,0,.16-.08,.16-.23v-.07h-.09Z"/>
  <path class="cls-1" d="M73.93,.07c1,.43,1.87,.93,2.62,1.49,.34,.55,.51,.94,.51,1.18,0,.38-.54,.77-1.63,1.18-.11,.12-.6,.45-1.49,.98v.12c2.92,.93,4.38,1.71,4.38,2.36,.35,.49,.72,.91,1.11,1.25,.05,.42,.13,.7,.26,.84l-.39,2.41c-.64,2.12-1.24,3.63-1.78,4.52,0,.22-.11,.39-.32,.51v-.12h-.07v.26c-.28,.47-.47,.73-.58,.79,0,.23-.5,1.19-1.51,2.87-.23,.15-.56,.63-.98,1.44-.11,0-.32,.28-.65,.84-.04,.08-.05,.15-.05,.19,.08,.01,.12,.06,.12,.14v.05h-.12v-.12h-.21l.07,.32c-.19,.05-.36,.33-.53,.86-1.77,1.69-3.29,2.73-4.57,3.13-1.43,.48-2.54,.72-3.32,.72-2.11,0-4.07-.8-5.89-2.41-1.3-1.8-1.95-3.5-1.95-5.1,0-3.01,1.35-6.35,4.04-10,.69-1.05,2.29-2.84,4.78-5.34,1.55-1.65,3.01-2.98,4.38-3.99,.93-.67,2.19-1.12,3.78-1.37Zm-11.81,22.2s.02,.11,.05,.19l-.05,.14,.05,.26s-.02,.05-.05,.05c.09,.96,.29,1.44,.58,1.44,.16,.05,.34,.07,.53,.07,1.05,0,2.67-.76,4.83-2.29,2.16-2.09,3.62-3.7,4.38-4.83,1.39-1.96,2.55-4.14,3.46-6.54,.39-1.18,.58-2.03,.58-2.55v-.12c-.79-.4-1.59-.73-2.43-.98-.36,.05-.67,.07-.91,.07h-.12v-.07l.33-.26h-.07c-.53,.09-.81,.14-.84,.14v-.07c0-.12,.19-.23,.58-.33,0-.08-.04-.12-.12-.12-.09,.05-.16,.07-.21,.07l-.05-.14s.05-.02,.05-.05h-.51c-.63,.41-1.83,1.49-3.6,3.25-3.01,3.22-5.03,6.34-6.06,9.35-.26,1.12-.39,2.23-.39,3.32Zm10.56-16.45s-.02,.11-.05,.19h.46v-.12l-.33-.07h-.07Z"/>
  <path class="cls-1" d="M97.58,.07c1,.43,1.87,.93,2.62,1.49,.34,.55,.51,.94,.51,1.18,0,.38-.54,.77-1.63,1.18-.11,.12-.6,.45-1.49,.98v.12c2.92,.93,4.38,1.71,4.38,2.36,.35,.49,.72,.91,1.11,1.25,.05,.42,.13,.7,.26,.84l-.39,2.41c-.64,2.12-1.24,3.63-1.78,4.52,0,.22-.11,.39-.32,.51v-.12h-.07v.26c-.28,.47-.47,.73-.58,.79,0,.23-.5,1.19-1.51,2.87-.23,.15-.56,.63-.98,1.44-.11,0-.32,.28-.65,.84-.04,.08-.05,.15-.05,.19,.08,.01,.12,.06,.12,.14v.05h-.12v-.12h-.21l.07,.32c-.19,.05-.36,.33-.53,.86-1.77,1.69-3.29,2.73-4.57,3.13-1.43,.48-2.54,.72-3.32,.72-2.11,0-4.07-.8-5.89-2.41-1.3-1.8-1.95-3.5-1.95-5.1,0-3.01,1.35-6.35,4.04-10,.69-1.05,2.29-2.84,4.78-5.34,1.55-1.65,3.01-2.98,4.38-3.99,.93-.67,2.19-1.12,3.78-1.37Zm-11.81,22.2s.02,.11,.05,.19l-.05,.14,.05,.26s-.02,.05-.05,.05c.09,.96,.29,1.44,.58,1.44,.16,.05,.34,.07,.53,.07,1.05,0,2.67-.76,4.83-2.29,2.16-2.09,3.62-3.7,4.38-4.83,1.39-1.96,2.55-4.14,3.46-6.54,.39-1.18,.58-2.03,.58-2.55v-.12c-.79-.4-1.59-.73-2.43-.98-.36,.05-.67,.07-.91,.07h-.12v-.07l.33-.26h-.07c-.53,.09-.81,.14-.84,.14v-.07c0-.12,.19-.23,.58-.33,0-.08-.04-.12-.12-.12-.09,.05-.16,.07-.21,.07l-.05-.14s.05-.02,.05-.05h-.51c-.63,.41-1.83,1.49-3.6,3.25-3.01,3.22-5.03,6.34-6.06,9.35-.26,1.12-.39,2.23-.39,3.32Zm10.56-16.45s-.02,.11-.05,.19h.46v-.12l-.33-.07h-.07Z"/>
  <path class="cls-1" d="M123.29,.72c1.92,.59,3.73,1.55,5.41,2.9,1.41,1.15,2.06,1.92,1.97,2.3,.34,.91,.49,1.46,.44,1.63l.09,.28-.02,.07c-.25,.09-.38,.19-.4,.3-.01,.05,.05,.22,.18,.53-.04,.15-.08,.22-.12,.19-.36,2.33-.56,3.57-.6,3.71l-.11,.39c-.62,1.11-1.11,1.62-1.46,1.53-.47,.52-.72,.77-.76,.77l-.16-.05c-.22-.08-.41-.77-.56-2.07-1.36-3.8-4.08-6.25-8.17-7.35l-.6-.16c-.87-.23-1.88-.29-3.02-.16l-.09,.3c.68,1,2.1,2.29,4.27,3.87,2.57,2.02,4.6,4.25,6.1,6.71,1.16,1.89,1.62,3.27,1.39,4.15l-.14,.53c-.41,1.5-2.17,3.26-5.27,5.27-1.1,.5-1.92,.84-2.46,1.02-.14,.2-.85,.36-2.13,.47l-.79,.19c-.01,.06-.04,.08-.09,.05l-.07-.02-.14-.11s-.04,.06-.09,.05l.04,.18-.02,.07-.16-.04c-.11-.04-.2-.09-.28-.16-.26-.01-.49,.04-.69,.14l-.07-.04c-.19-.26-.36-.41-.51-.46-.12,.02-.2,.03-.25,.02l.04,.18c-.04,.09-.12,.12-.26,.09l.02,.18c-.55,.01-.92-.01-1.11-.07l-.32-.32-.14-.04-.05,.14c.2,.08,.28,.18,.25,.3-.02,.11-.09,.15-.19,.12l-.07-.02c-.07-.23-.29-.4-.67-.51-.07,.25-.43,.31-1.09,.19l.04-.16,.14,.05,.07-.23-.46-.12c-.05,.2-.22,.26-.53,.18l-.63-.33c-.11,.02-.21,.02-.32,0-.05-.22-.18-.36-.39-.42-.02,.09-.08,.13-.18,.11l-.47-.69c-.01,.07-.11,.13-.28,.18,.04-.11,0-.17-.11-.19-.11,.02-.19,.03-.25,.02-.04-.19-.48-.74-1.34-1.65-.86-1.27-1.34-2.34-1.46-3.22l-.18,.04c-.12-.02-.15-.49-.11-1.39l.11-.14c0-.4,.01-.63,.04-.7l.12-.14c.08-.5,.13-1,.14-1.48l.12-.14,.11-1.02c.11,.04,.17,0,.19-.11l.02-.32c.12-.26,.19-.45,.23-.58-.06-.01-.16-.33-.3-.97l.04-.16,.21-.18c-.07-.02-.12-.12-.16-.28l.16-.04,.32,.32,.02-.07-.09-.26,.18-.04c.04,.26,.1,.41,.19,.46l.09-.3c-.11-.21-.15-.36-.12-.44l.11-.14c-.06-.19-.08-.32-.05-.4l.18-.04,.46,.12,.49,.84,.18-.04c.59,.39,.91,1.95,.98,4.69l.54,2.16c.52,1.27,1.61,2.12,3.27,2.57,1.3,.35,2.62,.41,3.97,.18,2.88-.55,4.51-1.51,4.87-2.87l.12-.46c.41-1.55-1.49-3.96-5.7-7.24-1.8-1.69-2.72-2.58-2.76-2.67-1.1-1.34-1.68-2.7-1.72-4.08,.12-.56,.14-.85,.07-.86l.18-.37,.14-.53c.52-1.89,1.65-3.08,3.39-3.59,.07-.28,1.24-.53,3.5-.76,1.91-.08,3.76,.12,5.55,.6Zm-18.95,19.63l-.16,.28-.02,.07,.07,.02,.16-.28,.02-.07-.07-.02Zm.11,.51l-.04,.16c-.02,.07,.05,.19,.21,.37l.02-.07c-.04-.26-.1-.41-.19-.46Zm.74,2.37c.13,.41,.29,.7,.49,.86l.02-.09c.02-.06-.12-.31-.44-.76l-.07-.02Zm1.71-8.81l-.02,.09c-.01,.11,.02,.16,.11,.18l.07-.21-.16-.05Zm.16,.37l-.07,.23,.16,.04,.05-.23-.14-.04Zm4.82,12.64l-.04,.16,.3,.07c.02-.09-.02-.16-.12-.19l-.14-.04Zm2,.62l.07,.02c.07,.02,.13,.12,.18,.3l-.18,.04c-.11-.04-.14-.1-.11-.19l.04-.16Zm2.85-.44l-.04,.16,.07,.02c.11,.02,.17-.02,.19-.12l-.23-.05Z"/>
  <path class="cls-1" d="M162.95,.14c.62,0,1.3,.44,2.04,1.32,.26,0,.39,.19,.39,.56,.07,0,.15,.08,.23,.23,0,.11-.15,.16-.46,.16v.07c.36,0,.67,.29,.93,.86v.25l-.07,.16-.79-.09c-1.58,0-3.02,.7-4.31,2.11-.94,.63-3.29,1.47-7.05,2.51-2.11,.86-3.91,1.48-5.4,1.88,0,.25-.66,1.52-1.97,3.83v.16c1.79-.57,4.46-1.1,8-1.56,.43,0,.8,.23,1.09,.7,.35,.42,.59,.63,.7,.63,.11,.16,.16,.29,.16,.39-.11,.01-.16,.06-.16,.16v.39h-.32v.16h.32v.16h-.23v.09c.3,.05,.46,.12,.46,.23l-.07,.16c.42,.05,.63,.12,.63,.23-.06,.06-.27,.09-.63,.09l.54,.3v.16l-.07,.16-1.27-.16c-1.83,0-3.18,.66-4.06,1.97-2.5,1.41-4.82,2.11-6.98,2.11h-.7c-.2,0-.85-.05-1.95-.16-.39,.22-.76,.49-1.11,.79,0,.07-.31,.43-.93,1.09v.16c4.07-1.04,7.04-1.56,8.93-1.56,.68,.18,1.02,.46,1.02,.86,.2,.2,.4,.49,.62,.86v.07c0,.32-.44,.47-1.32,.47v.09c.55,.09,.91,.14,1.09,.14v.16h-1.09l-.25,.16h-.77v.16h.07c.12,0,.22-.02,.32-.07l.16,.07s.07-.02,.07-.07l1.34,.16v.16h-.47v.07h.4v.16h-.16c-.19,0-.42-.03-.7-.09-.11,.06-.19,.09-.25,.09v.07c1.42,.06,2.13,.16,2.13,.32-.62-.05-1.07-.07-1.34-.07h-.79c-.11,.01-.16,.06-.16,.16h.47v.16h-.77c-.11,.01-.16,.06-.16,.14h.16v.16c-1.46,.27-2.54,.59-3.22,.95-1.07,.68-2.5,1.22-4.31,1.63-1.07,.32-2.11,.47-3.13,.47h-1.34l-.39,.09v-.09l-.16,.09h-.79c-.21,0-.5,.02-.86,.07l-.16-.07c-.28,.05-.52,.07-.7,.07-.26,0-.49-.13-.7-.39v-.16c.33-.64,.56-1.06,.7-1.25-.21-.08-.32-.16-.32-.25,.11-.32,.21-.55,.32-.7v-.23c-.06,0-.13-.03-.23-.09-.12,0-.4,.34-.86,1.02-.08,0-.21-.16-.39-.47v-.14c.25-1.09,1.39-3.23,3.45-6.43,.75-1.31,1.29-2.2,1.63-2.65,1.49-2.38,2.56-4.26,3.22-5.64,.45-.73,1.85-3.91,4.22-9.56,.26-.2,.81-.3,1.65-.3,2.13,.26,3.41,.57,3.83,.93l.47,.39c3.64-1.56,7.82-2.34,12.53-2.34Zm-15.28,23.57v.07h.32v-.07h-.32Zm1.18,.23v.09h.39v-.09h-.39Zm1.18,1.02h.54l.39,.07v.16l-.77-.07h-.16v-.16Zm.23-.79h.39v.16h-.39v-.16Z"/>
  <path class="cls-1" d="M184.04,.07c.63,.45,1.28,1.1,1.95,1.97,1.02,1.15,1.68,2.11,1.97,2.88,.34,.5,.77,1.06,1.3,1.67v.18s-.02,.07-.07,.07c1.07,1.84,1.6,2.8,1.6,2.88l.67,1.41h.12c2.05-2.57,3.73-4.45,5.04-5.64,.42-.25,1.49-.62,3.2-1.11,.39-.21,.77-.32,1.16-.32,.9,.08,1.35,.19,1.35,.32v.05c-.08,.62-.86,2.03-2.34,4.24l-2.64,4.13c-.02,.15-.64,.97-1.85,2.44l-.12-.05c-.11,.47-.37,.94-.79,1.41-.8,1.46-2.62,3.9-5.47,7.31-2.11,2.25-3.46,3.58-4.06,3.99-.34,.25-.52,.43-.54,.56-.14,.04-.43,.2-.86,.49,0-.05-.02-.07-.07-.07l-.05,.12v.07l.12-.07h.05v.07s-.1,.13-.3,.25h-.12v-.12h-.12c-.08,.01-.12,.05-.12,.12h.25l-.69,.37c-.67,.4-1.59,.76-2.76,1.09v-.18h-.07l-.18,.12h-.07l-.12-.07c0,.06-.1,.16-.3,.32-.06-.25-.12-.37-.18-.37-.01,.06-.12,.14-.32,.25h-.18l-.07-.3v-.19h-.18c0,.16-.04,.25-.12,.25,0-.04-.02-.05-.07-.05,.05-.06,.07-.16,.07-.32h-.19c.05-.41,.13-.62,.25-.62v-.05h-.18v-.07l.3-.49-.12-.05c-.38,.49-.58,.74-.62,.74v-.12c.3-.54,.53-.81,.69-.81l-.07-.12,.37-.49-.05-.12c.04-.08,.05-.14,.05-.18-.08,0-.12-.04-.12-.12l.07-.12h-.12s-.17,.08-.37,.25v-.12l1.95-2.71c.15-.15,.73-.91,1.72-2.27,1.22-1.55,3.16-3.86,5.84-6.94-1.16-1.34-2.04-2.71-2.64-4.11-.86-1.3-1.68-3.12-2.46-5.47-.16-.56-.37-1.16-.62-1.79v-.12c0-.47,.37-1.45,1.11-2.94,.5-.87,.9-1.3,1.18-1.3Zm-5.66,27.28v.05c.11,.25,.19,.37,.25,.37,.08-.01,.16-.11,.25-.3-.04-.08-.05-.15-.05-.19,.18-.07,.28-.15,.3-.25-.08-.04-.14-.05-.18-.05-.27,.08-.43,.21-.49,.37h-.07Z"/>
  <path class="cls-1" d="M214.63,.07c1,.43,1.87,.93,2.62,1.49,.34,.55,.51,.94,.51,1.18,0,.38-.54,.77-1.63,1.18-.11,.12-.6,.45-1.49,.98v.12c2.92,.93,4.38,1.71,4.38,2.36,.35,.49,.72,.91,1.11,1.25,.05,.42,.13,.7,.26,.84l-.39,2.41c-.64,2.12-1.24,3.63-1.78,4.52,0,.22-.11,.39-.32,.51v-.12h-.07v.26c-.28,.47-.47,.73-.58,.79,0,.23-.5,1.19-1.51,2.87-.23,.15-.56,.63-.98,1.44-.11,0-.32,.28-.65,.84-.04,.08-.05,.15-.05,.19,.08,.01,.12,.06,.12,.14v.05h-.12v-.12h-.21l.07,.32c-.19,.05-.36,.33-.53,.86-1.77,1.69-3.29,2.73-4.57,3.13-1.43,.48-2.54,.72-3.32,.72-2.11,0-4.07-.8-5.89-2.41-1.3-1.8-1.95-3.5-1.95-5.1,0-3.01,1.35-6.35,4.04-10,.69-1.05,2.29-2.84,4.78-5.34,1.55-1.65,3.01-2.98,4.38-3.99,.93-.67,2.19-1.12,3.78-1.37Zm-11.81,22.2s.02,.11,.05,.19l-.05,.14,.05,.26s-.02,.05-.05,.05c.09,.96,.29,1.44,.58,1.44,.16,.05,.34,.07,.53,.07,1.05,0,2.67-.76,4.83-2.29,2.16-2.09,3.62-3.7,4.38-4.83,1.39-1.96,2.55-4.14,3.46-6.54,.39-1.18,.58-2.03,.58-2.55v-.12c-.79-.4-1.59-.73-2.43-.98-.36,.05-.67,.07-.91,.07h-.12v-.07l.33-.26h-.07c-.53,.09-.81,.14-.84,.14v-.07c0-.12,.19-.23,.58-.33,0-.08-.04-.12-.12-.12-.09,.05-.16,.07-.21,.07l-.05-.14s.05-.02,.05-.05h-.51c-.63,.41-1.83,1.49-3.6,3.25-3.01,3.22-5.03,6.34-6.06,9.35-.26,1.12-.39,2.23-.39,3.32Zm10.56-16.45s-.02,.11-.05,.19h.46v-.12l-.33-.07h-.07Z"/>
  <path class="cls-1" d="M248.08,0c.05,.2,.26,.33,.63,.39,.42-.11,.71-.21,.86-.32h.56c.12,0,.19,.19,.23,.56l-.39,.32h-.16v-.16h-.32c0,.27-.13,.53-.4,.79l-.54-.09v-.16c.21,0,.32-.08,.32-.23v-.25h.07v-.07h-.07c-.28,0-.6,.26-.95,.79,.32,0,.47,.26,.47,.79-.29,0-.59,.47-.88,1.42h.16c.11,0,.16-.13,.16-.4h.09c.07,0,.15,.08,.23,.25-.08,.01-.35,.59-.79,1.74l-.47,.86-1.34,2.6c-.12,0-.22,.26-.32,.79-.09,.09-.25,.44-.47,1.04v.16l.16-.09v.25c-.32,0-.47,.13-.47,.39-.12,.32-.2,.47-.25,.47-.09-.05-.17-.07-.23-.07,0,.05-.03,.07-.09,.07,.11,.18,.16,.31,.16,.4l-.16-.09-.16,.09,.09,.16c-.04,.22-.32,.56-.86,1.02-.9,1.52-1.35,2.34-1.35,2.44,0,.27,.05,.4,.16,.4-.64,1.16-1.17,2.03-1.58,2.6-.18,.16-.39,.51-.63,1.04h.09l.79-.72,.07,.16c-.73,.71-1.22,1.37-1.49,1.97,0,.13,.02,.23,.07,.32-.25,.61-1.14,1.56-2.69,2.85-2.43,1.92-4.37,3.06-5.84,3.41-1.57,.26-2.49,.39-2.76,.39h-.16c-1.29,0-2.66-.39-4.11-1.18-1.48-.75-2.21-1.99-2.21-3.73,0-1.89,1.05-5.23,3.16-10.02,.59-1.11,1.48-2.62,2.69-4.52,1.32-1.82,2.51-3.18,3.55-4.1,1.02-.74,1.6-1.11,1.74-1.11,.86-.27,1.8-.64,2.85-1.11,.46-.21,.96-.32,1.49-.32h.47c.07,0,.15,.08,.23,.23v.09c-1.36,3.15-2.94,6.91-4.73,11.29-.8,1.3-1.93,4.01-3.41,8.14l-.63,2.3c.21,.15,.5,.23,.88,.23,.93,0,2.72-1.39,5.38-4.18,2.38-2.72,4.14-5.27,5.29-7.66,1.91-2.6,3.7-6.02,5.36-10.27,1.11-1.58,1.93-2.37,2.46-2.37Zm-6.01,13.75v.07h.16v-.23c-.11,.01-.16,.06-.16,.16Zm.88,.79l.07,.16-.7,.86h-.09v-.07c.16-.45,.4-.76,.72-.95Zm-.56-1.42v.09c.11,0,.16-.05,.16-.16v-.09c-.11,.01-.16,.06-.16,.16Zm.63-.47v.25h.16v-.25h-.16Zm1.65-1.02v.07c-.06,.27-.13,.4-.23,.4h-.09v-.16c0-.08,.11-.19,.32-.32Zm.32-.63l.09,.16-.25,.16h-.07v-.09c0-.07,.08-.15,.23-.23Zm.4-1.11c.11,.01,.16,.06,.16,.16-.08,.21-.16,.32-.25,.32l-.07-.16v-.16c.01-.11,.06-.16,.16-.16Zm.39-.79h.16v.23c0,.11-.05,.16-.16,.16h-.16v-.07c.11-.13,.16-.23,.16-.32Zm.47-.56h.09v.09c0,.07-.08,.15-.25,.23h-.07v-.07c0-.08,.08-.16,.23-.25Zm.25-.39l.07,.16-.23,.16v-.16c.01-.11,.06-.16,.16-.16Zm.86-1.74l.16,.07,.16-.07v.07c-.25,.53-.4,.79-.47,.79-.21-.07-.32-.15-.32-.23,.12,0,.28-.21,.47-.63Zm-.07-2.29v.54h.07c0-.32,.05-.53,.16-.63v-.07c-.15,.05-.23,.1-.23,.16Zm.95,1.02c.11,.01,.16,.06,.16,.16v.32c-.19,.06-.29,.09-.32,.09-.06-.11-.09-.19-.09-.25,.08-.21,.16-.32,.25-.32Zm.54-1.34l.09,.16c0,.07-.08,.15-.25,.23v-.23c.02-.11,.08-.16,.16-.16Zm.25-.88h.16c0,.28-.08,.44-.25,.47l-.07-.16v-.16c.01-.11,.06-.16,.16-.16Zm.79-1.27h.16v.09l-.56,.79c0,.07-.08,.15-.23,.23,.16-.68,.29-1.02,.39-1.02h.25v-.09Z"/>
  <path class="cls-1" d="M256.06,.11h.39c1.02,0,3.2,.56,6.54,1.69,1.34,.27,2.41,.6,3.23,1,1.03,0,2.09,.26,3.16,.77,.09-.05,.17-.07,.23-.07,.12,0,.7,.18,1.76,.53v.25h-.23l-.23-.16h-.07c.48,.52,.91,.77,1.3,.77h.09c0-.16,.02-.25,.07-.25,1.34,.55,2,.99,2,1.32,.77,.35,1.31,.84,1.62,1.46,.07,0,.17,.13,.3,.39v.16h-.07l-.84-1v.16h-.09c-.4-.34-.76-.73-1.07-1.16-.52-.21-1.03-.45-1.53-.7v.16c.77,.39,1.31,.75,1.6,1.09,0-.06,.03-.09,.09-.09,0,.2,.3,.56,.91,1.07v.09h-.14v.39c.09,.2,.25,.3,.46,.3,0-.05,.02-.07,.07-.07l.09,.16c-.09,.05-.2,.07-.32,.07v.07c0,.08,.11,.19,.32,.32,0-.07,.08-.15,.23-.23,.15,.41,.23,.67,.23,.77-.05,.09-.07,.17-.07,.23h.07l.3-.39c.15,0,.26,.23,.32,.69h-.16v-.16h-.07c0,.25-.08,.71-.23,1.39h.14v.16c-.15,0-.23,.05-.23,.16,.06,.09,.09,.17,.09,.23-.08,0-.19,.1-.32,.3,.06,0,.09,.03,.09,.09-.06,0-.29,.23-.7,.69l.09,.16c-.16,0-.42,.26-.77,.77-.66,.49-1.3,.88-1.93,1.16l-.07,.14v.09c.26,0,.39,.05,.39,.14-.93,.29-1.39,.58-1.39,.86-.18,0-.56,.21-1.16,.62-.41,.29-.82,.47-1.23,.53,0,.16-.28,.35-.84,.54h-.16l-.16-.07c0,.41-1.59,.92-4.76,1.53l-.16,.16c.47,.62,.98,1.44,1.55,2.46l.23-.16s.1,.21,.3,.47h-.23c0,.29,.21,.73,.62,1.3h-.07l1.07,1.55c0,.09-.05,.14-.14,.14-.18-.15-.3-.33-.39-.53l-.32-.09v.23c.66,1.5,1.32,2.63,2,3.39,.2,.21,.3,.36,.3,.46h.16v-.14h.16l.32,.23c.09-.06,.17-.09,.23-.09,.15,.18,.23,.3,.23,.39h.07c.02-.2,.1-.3,.23-.3,.19,0,.39,.21,.62,.62,.29,.09,.53,.43,.7,1h.16v-.16c.09,0,.19,.26,.3,.77v.84c0,.26-.1,.41-.3,.46,0,.14,.08,.38,.23,.7-.11,.05-.18,.07-.23,.07v.07l.14,.54h-.23l-.16-.07c0,.11-.05,.16-.14,.16h-.09l-.23-.16v.07l.16,.23v.16h-.07l-.25-.16h-.07l.16,.23v.09c0,.11-.05,.16-.16,.16l.16,.3c-.18,0-.36,.18-.54,.54,0-.06-.21-.19-.62-.39v.16l.23,.37v.09c-.09-.11-.25-.16-.46-.16,0,.06-.02,.13-.07,.23l-.16-.07h-.09l.09,.16v.07h-.09c-.26-.3-.43-.46-.53-.46-.16,.09-.29,.14-.39,.14-.18-.09-.43-.17-.77-.23l.39,.47h-.07c-.36-.14-.83-.58-1.39-1.32v-.39h-.09l-.14,.09c-.14,0-.43-.36-.86-1.09-.91-.97-1.37-1.54-1.37-1.69,0-.2-.36-.71-1.09-1.55l-.3-.07v-.32l.07-.14c-.08,0-.21-.08-.39-.23,0,.15-.05,.23-.16,.23-.95-1.59-1.46-2.39-1.53-2.39h-.07v.23l.07,.16h-.07c-1.09-1.24-2.25-3.04-3.48-5.4,0-.2-.08-.3-.23-.3-2.78,3.54-4.68,5.31-5.7,5.31-1.12,.6-1.69,1.21-1.69,1.85h-.23v-.39h-.09c0,.36-.08,.54-.23,.54-.46-.12-.69-.25-.69-.39h-.09l-.3,.3c-.06-.09-.09-.17-.09-.23h-.14c0,.21-.13,.32-.39,.32,0-.07-.08-.15-.23-.23l-.23,.14c-.73-.53-1.09-1.07-1.09-1.62,1.79-3.87,4.1-7.89,6.93-12.08,.66-.91,2.02-3.09,4.1-6.54l1.6-2.23v-.09c-.2-.16-.89-.5-2.07-1-.76-.46-1.14-.76-1.14-.91,.69-2.45,1.25-3.79,1.69-4.01Zm3.3,26.02c.07,.21,.2,.37,.39,.47v-.16c-.11-.13-.16-.23-.16-.32h-.23Zm.7,1.32h.07c.3,.28,.46,.54,.46,.77h-.14c0-.12-.13-.35-.39-.7v-.07Zm.14-11.71c.06,0,.09,.02,.09,.07,.96-.25,3.25-.7,6.86-1.37,.66-.14,1.52-.58,2.6-1.32,.62-.64,.96-1.21,1-1.69,0-1.31-1.36-2.42-4.08-3.32-.09,.06-.17,.09-.23,.09-.28-.11-1-.23-2.14-.39l-.16,.07c-.11-.05-.18-.07-.23-.07-.29,0-.47,.39-.54,1.16-.43,1.36-.74,2.18-.93,2.46-.29,1-.98,2.33-2.07,4.01l-.16,.3Zm2,12.78v.07c0,.12,.16,.38,.47,.77,.41,.49,.62,.77,.62,.84h.14c-.2-.47-.61-1.03-1.23-1.69Zm1.23,2.07v.09c.62,.82,.96,1.23,1,1.23v-.46c-.3-.08-.46-.21-.46-.39,.05-.11,.07-.19,.07-.25l-.23-.14-.16,.07v-.16h-.23Zm2.94,3.94v.07c.01,.11,.06,.16,.16,.16v-.23h-.16Zm.46-8.02h.23c.2,.15,.35,.23,.46,.23v.23h-.23l.09,.16v.09h-.09c-.3-.33-.46-.56-.46-.7Zm.62-.39c.23,.11,.36,.21,.39,.32v.23l-.07,.16c.09,.01,.14,.06,.14,.14h-.07c-.08,0-.29-.25-.62-.76,.09-.06,.17-.09,.23-.09Zm0,2v.23c0,.08,.11,.19,.32,.32h.07v-.09c-.19-.3-.32-.46-.39-.46Zm.54-1c.56,.4,.84,.63,.84,.7v.07h-.07c-.52-.05-.77-.3-.77-.77Zm.39,1.62v.16l.23,.16v-.16c-.11,0-.16-.05-.16-.16h-.07Zm.62-.69c0,.15,.13,.23,.39,.23v.16c0,.09-.05,.14-.16,.14,0-.13-.13-.21-.39-.23v-.14c.01-.11,.06-.16,.16-.16Zm.07,1v.07c.08,.21,.16,.32,.23,.32h.09v-.09c0-.08-.11-.18-.32-.3Zm.46,0v.07c.08,.21,.16,.32,.23,.32h.09c-.14-.26-.25-.39-.32-.39Zm5.55-16.72h.14c0-.07,.08-.17,.25-.3v-.16c-.07,0-.2,.15-.39,.46Zm.62-2.99l.14,.07v-.23c-.09,.01-.14,.06-.14,.16Z"/>
  <path class="cls-1" d="M313.42,1.93h.09c.28,0,.49,.16,.63,.47,.36,0,.54,.34,.54,1.02-.42,1.15-.92,2.86-1.49,5.13-1.37,3.54-2.06,5.41-2.06,5.61,0,.09-.11,.3-.32,.63l.07,.4c-.12,.02-.3,.52-.54,1.49-.36,.87-.84,2.34-1.42,4.43-.12,.08-.38,.87-.79,2.36-1.95,5.4-3.6,9.17-4.97,11.3-1.05,1.78-1.58,3.52-1.58,5.2l-.16,.09c-1.3-1.36-1.96-2.1-1.97-2.21,0-.59-.05-.93-.16-1.04,.06-.45,.09-.81,.09-1.09l-.16-.25v-.32l.16-.54-.16-.09,.07-.39v-.32h-.07c-.27,.5-.56,1.48-.88,2.92v.54h-.07c-.07,0-.26-.34-.56-1.02-.07,0-.15-.08-.23-.23v-.63c0-1.66,1.05-5.19,3.15-10.58,.16-.19,.25-.45,.25-.79-2.77,.42-5,.69-6.71,.79l-2.44,1.88c-1.22,1-2.14,1.55-2.76,1.67h-.63c-1.01-.29-1.72-.77-2.14-1.42,0-.34-.21-.68-.63-1.02l-.16-.56v-.47c.14-1.03,1.59-2.71,4.36-5.04l.54-1.67c.09-.08,.62-.16,1.58-.23l4.03-4.11c1.54-1.68,2.88-3.09,4.03-4.25,.27,0,.69-.35,1.27-1.04h.07l.09,.16-.09,.32c.09,.32,.18,.47,.25,.47,.48-.2,1.06-.52,1.74-.95h.23l.25,.16c.33,0,1.25-.69,2.76-2.06,.28-.29,1.04-.5,2.29-.62h.16c0,.12,.21,.25,.63,.39,0,.73-.34,1.73-1.02,3.01l-.25,.79h.32l.88-1.99h.16c-.42,1.44-.69,2.21-.79,2.3v.16c.16-.05,.53-.84,1.11-2.37l1.34-3.96h.16v.16c0,.13-.08,.37-.25,.72l.09,.32-.09,.54v.07h.09l.86-2.67v-.09h.16l.25,.16v-.16l-.09-.39,.16-.09c.11,0,.16,.11,.16,.32h.09l.16-.07,.07,.16c.42-.05,.63-.26,.63-.63v-.32l-.32-.4v-.07Zm-12.01,15.56c.11,.05,.19,.07,.25,.07,1.52,0,2.29-.16,2.29-.47,1.72-3.89,3.04-6.23,3.96-7.01,0-.08,.05-.19,.16-.32v-.25c-.28,.18-2.04,2.18-5.29,6.01-.95,1.23-1.42,1.89-1.42,1.97h.07Zm11.78-15.8l.07,.16-.16,.09h-.07v-.09c.01-.11,.06-.16,.16-.16Z"/>
  <path class="cls-1" d="M331.58,.21l.42,.04c4.99,.43,8.88,1.98,11.67,4.64,1.8,2,2.68,3.36,2.62,4.06,.38,.61,.53,1.32,.46,2.14-.2,2.29-1.85,4.1-4.96,5.43-.29,.21-.52,.31-.69,.3v.14l.14,.02-.02,.14-.35-.11c-.16-.01-.67,.21-1.51,.67-1.1,.53-1.87,.77-2.3,.74l-1.2,.54s-.02-.08-.07-.09c-.05,.08-1.18,.39-3.41,.93-1.32,.22-3.22,.42-5.7,.6v-.07c-.2,.07-.71,.12-1.53,.14l.02-.07c-.14,.09-.51,.13-1.11,.12l.02-.07-.16,.07-.42-.05c-.67-.06-1.1,.15-1.28,.62-.82,1.17-2.13,2.55-3.92,4.15,0,.11-.53,.73-1.6,1.88-.01,.05,0,.07,.05,.07l-.11,.37c.09,.59,.13,.95,.12,1.09l-.33-.25-.02,.28-.16-.02c-.09,0-.13-.05-.12-.14l-.16,.05h-.07c-.29-.41-.63-.66-1.02-.76-.19-.16-.36-.37-.51-.62-.48-.13-.7-.34-.67-.63l-.09-.02c-.01,.15-.06,.22-.16,.21-.18-.05-.33-.45-.47-1.2l.02-.07-.3-.04-.02,.21h-.14l.04-.44-.04-.44c.12-.26,.19-.56,.23-.91l-.14-.02c-.01,.14-.04,.21-.09,.21-.01,.05,0,.08,.05,.09l-.32,1.12c.05,.09,.06,.16,.05,.21h-.07c.08,.25,.12,.42,.11,.51l-.21-.02c-.06-.42-.08-.76-.05-1.02,.06-.74,.5-2,1.34-3.78,1.17-3.2,4.56-8.3,10.16-15.31l-.12-.09c-.96-.13-1.68-.22-2.16-.26-.29-.02-.83,.05-1.6,.23l-.12-.23c.04-.43,.4-.84,1.11-1.21,1.96-1.75,3.28-2.71,3.96-2.9,1.37-1.09,3.67-1.49,6.91-1.21Zm-1.99,6.93c.04,.09,.05,.16,.05,.21-.19-.01-.61,.97-1.27,2.94-1.82,4.03-2.81,6.04-2.99,6.03l-.28,.63h.07c5.14-.86,9.01-1.7,11.58-2.53,2.73-.89,4.16-2.07,4.29-3.53,.14-1.62-1.27-2.88-4.22-3.78-.8-.06-1.46-.16-2-.32-.27-.02-.44-.01-.51,.04-.04,0-.18-.04-.42-.11-2.73-.25-4.11-.18-4.15,.21-.05,0-.1,.07-.16,.21Z"/>
  <path class="cls-1" d="M374.35,.14c.62,0,1.3,.44,2.04,1.32,.26,0,.39,.19,.39,.56,.07,0,.15,.08,.23,.23,0,.11-.15,.16-.46,.16v.07c.36,0,.67,.29,.93,.86v.25l-.07,.16-.79-.09c-1.58,0-3.02,.7-4.31,2.11-.94,.63-3.29,1.47-7.05,2.51-2.11,.86-3.91,1.48-5.4,1.88,0,.25-.66,1.52-1.97,3.83v.16c1.79-.57,4.46-1.1,8-1.56,.43,0,.8,.23,1.09,.7,.35,.42,.59,.63,.7,.63,.11,.16,.16,.29,.16,.39-.11,.01-.16,.06-.16,.16v.39h-.32v.16h.32v.16h-.23v.09c.3,.05,.46,.12,.46,.23l-.07,.16c.42,.05,.63,.12,.63,.23-.06,.06-.27,.09-.63,.09l.54,.3v.16l-.07,.16-1.27-.16c-1.83,0-3.18,.66-4.06,1.97-2.5,1.41-4.82,2.11-6.98,2.11h-.7c-.2,0-.85-.05-1.95-.16-.39,.22-.76,.49-1.11,.79,0,.07-.31,.43-.93,1.09v.16c4.07-1.04,7.04-1.56,8.93-1.56,.68,.18,1.02,.46,1.02,.86,.2,.2,.4,.49,.62,.86v.07c0,.32-.44,.47-1.32,.47v.09c.55,.09,.91,.14,1.09,.14v.16h-1.09l-.25,.16h-.77v.16h.07c.12,0,.22-.02,.32-.07l.16,.07s.07-.02,.07-.07l1.34,.16v.16h-.47v.07h.4v.16h-.16c-.19,0-.42-.03-.7-.09-.11,.06-.19,.09-.25,.09v.07c1.42,.06,2.13,.16,2.13,.32-.62-.05-1.07-.07-1.34-.07h-.79c-.11,.01-.16,.06-.16,.16h.47v.16h-.77c-.11,.01-.16,.06-.16,.14h.16v.16c-1.46,.27-2.54,.59-3.22,.95-1.07,.68-2.5,1.22-4.31,1.63-1.07,.32-2.11,.47-3.13,.47h-1.34l-.39,.09v-.09l-.16,.09h-.79c-.21,0-.5,.02-.86,.07l-.16-.07c-.28,.05-.52,.07-.7,.07-.26,0-.49-.13-.7-.39v-.16c.33-.64,.56-1.06,.7-1.25-.21-.08-.32-.16-.32-.25,.11-.32,.21-.55,.32-.7v-.23c-.06,0-.13-.03-.23-.09-.12,0-.4,.34-.86,1.02-.08,0-.21-.16-.39-.47v-.14c.25-1.09,1.39-3.23,3.45-6.43,.75-1.31,1.29-2.2,1.63-2.65,1.49-2.38,2.56-4.26,3.22-5.64,.45-.73,1.85-3.91,4.22-9.56,.26-.2,.81-.3,1.65-.3,2.13,.26,3.41,.57,3.83,.93l.47,.39c3.64-1.56,7.82-2.34,12.53-2.34Zm-15.28,23.57v.07h.32v-.07h-.32Zm1.18,.23v.09h.39v-.09h-.39Zm1.18,1.02h.54l.39,.07v.16l-.77-.07h-.16v-.16Zm.23-.79h.39v.16h-.39v-.16Z"/>
</svg>