<?xml version="1.0" encoding="UTF-8"?>
<svg id="Layer_1" data-name="Layer 1" xmlns="http://www.w3.org/2000/svg" viewBox="0 0 247.51 32.98">
  <defs>
    <style>
      .cls-1 {
        fill: #F80123;
      }
    </style>
  </defs>
  <path class="cls-1" d="M0,29.41l3.17-1.58c.12-.05,.21-.14,.27-.27,.06-.13,.1-.26,.13-.38,.1-.79,.19-1.6,.29-2.41,.1-.82,.2-1.63,.32-2.45,.02-.19,.11-.37,.27-.54,.16-.17,.26-.34,.31-.5,.34-.94,.65-1.87,.95-2.79,.3-.92,.59-1.85,.88-2.79-.02,0-.05,0-.07-.02-.02-.01-.06-.02-.11-.02-.14,.38-.29,.76-.43,1.13-.14,.37-.28,.75-.4,1.13-.05,0-.11-.02-.18-.07,.19-.48,.37-.97,.52-1.46,.16-.49,.33-.98,.52-1.46,.46-1.18,.91-2.33,1.37-3.47,.46-1.14,.91-2.29,1.37-3.44,.29-.65,.58-1.28,.86-1.91,.29-.62,.59-1.25,.9-1.87,.1-.17,.2-.28,.32-.32,.29-.17,.62-.28,1.01-.34,.38-.06,.77-.07,1.17-.02,.4,.05,.77,.14,1.13,.27,.36,.13,.65,.31,.86,.52,.34,.38,.5,.76,.5,1.13s-.17,.83-.5,1.39c-1.8,3.29-3.28,6.68-4.43,10.19-.19,.48-.38,.96-.56,1.44s-.37,.97-.56,1.48c-.12,.41-.22,.8-.31,1.19-.08,.38-.17,.77-.27,1.15-.12,.55-.24,1.12-.36,1.69s-.24,1.18-.36,1.8l2.59-.58c1.06-.24,2.11-.46,3.15-.67,1.04-.2,2.09-.4,3.15-.59,.31-.05,.62-.01,.94,.11,.31,.12,.62,.19,.94,.22,.74,.05,1.36,.26,1.85,.65,.49,.38,.88,.88,1.17,1.48,.12,.19,.16,.43,.11,.72-.05,.29-.11,.54-.18,.76-.05,.1-.22,.14-.5,.14s-.53,.01-.72,.04c-.58,0-1.16-.02-1.75-.05-.59-.04-1.16,0-1.71,.13-1.27,.31-2.53,.66-3.76,1.04-1.24,.38-2.49,.77-3.76,1.15-.19,.05-.36,.12-.5,.22-.14,.1-.3,.18-.47,.25l.18,.11c-.1,.12-.18,.23-.25,.34-.07,.11-.17,.19-.29,.23-.14,.1-.3,.18-.47,.25-.17,.07-.34,.1-.5,.07-.48-.07-.92-.02-1.33,.16-.41,.18-.82,.37-1.22,.56-1.01,.48-1.92,.56-2.74,.25-.82-.31-1.42-.96-1.8-1.94-.12-.26-.24-.51-.36-.74-.12-.23-.24-.46-.36-.7Z"/>
  <path class="cls-1" d="M32.29,15.59c.46-.07,.87-.14,1.24-.2,.37-.06,.73-.1,1.06-.13,.82-.07,1.63-.13,2.43-.18,.8-.05,1.59-.1,2.36-.14,.46-.05,.8-.04,1.03,.02,.23,.06,.42,.14,.58,.25,.16,.11,.32,.22,.5,.32,.18,.11,.44,.19,.77,.23,.22,.07,.46,.23,.72,.49,.26,.25,.5,.53,.72,.85,.22,.31,.39,.63,.52,.95,.13,.32,.2,.59,.2,.81,0,.41-.11,.67-.34,.77-.23,.11-.49,.16-.77,.16-.62,.02-1.24,.03-1.84,.02-.6-.01-1.21,0-1.84,.02-1.44,.07-2.86,.18-4.27,.32-1.4,.14-2.79,.49-4.16,1.04-.34,.12-.61,.28-.83,.49-.22,.2-.37,.51-.47,.92-.1,.46-.23,.91-.4,1.37-.17,.46-.35,.94-.54,1.44,.29-.02,.56-.05,.81-.07,.25-.02,.51-.06,.77-.11,.74-.1,1.48-.18,2.2-.25,.72-.07,1.45-.17,2.2-.29,.29-.05,.58-.07,.88-.07h.9c.3,0,.59-.02,.88-.07,.29-.05,.58-.14,.86-.29,.12-.05,.24-.04,.36,.04,.53,.29,1.04,.56,1.55,.81,.5,.25,.98,.55,1.44,.88,.26,.19,.47,.46,.61,.81,.14,.35,.28,.69,.4,1.03,.1,.19,.08,.38-.04,.58-.12,.19-.31,.3-.58,.32-.38,.05-.77,.1-1.15,.14-.38,.05-.77,.06-1.15,.04-1.7,0-3.39,.1-5.06,.31-1.67,.2-3.33,.52-4.99,.95-.22,.05-.43,.1-.65,.16-.22,.06-.42,.15-.61,.27-.12,.07-.23,.18-.32,.32-.1,.14-.14,.28-.14,.4,0,.34-.08,.62-.25,.86-.17,.24-.38,.4-.65,.47-.19,.05-.42,.01-.68-.11-.26-.12-.47-.26-.61-.43-.46-.48-.92-.96-1.39-1.44-.47-.48-.76-1.07-.88-1.76-.05-.19-.16-.38-.32-.58-.17-.19-.23-.37-.18-.54,.07-.17,.22-.29,.45-.36,.23-.07,.41-.19,.56-.36,.29-.29,.47-.61,.54-.97,.14-.72,.29-1.45,.45-2.18,.16-.73,.26-1.47,.31-2.21,.05-.48,.02-.97-.09-1.46-.11-.49-.23-.98-.38-1.46-.07-.26-.1-.47-.09-.63,.01-.16,.17-.29,.49-.41,.26-.05,.5-.15,.72-.31,.22-.16,.44-.31,.68-.45,.05-.05,.07-.13,.05-.23-.01-.11,0-.21,.02-.31,0-.05,0-.11-.02-.18-.01-.07,0-.14,.02-.22,.43-1.15,.87-2.3,1.31-3.44,.44-1.14,.86-2.3,1.24-3.47,.12-.31,.16-.65,.11-1.01-.05-.36-.08-.71-.11-1.04-.02-.26-.07-.54-.13-.83-.06-.29-.11-.59-.16-.9,.24,0,.45,0,.63,.02,.18,.01,.34,0,.49-.02,.19-.02,.35-.05,.49-.09,.13-.04,.19-.19,.16-.45,0-.26,.08-.41,.25-.45,.17-.04,.31,.02,.43,.16,.22,.19,.43,.29,.65,.31,.22,.01,.46,0,.72-.02,1.27-.14,2.54-.25,3.8-.31,1.26-.06,2.53-.03,3.8,.09h.67c.2,0,.41,.01,.63,.04,.48,.02,.94,.08,1.37,.18,.43,.1,.82,.34,1.15,.72,.05,.1,.13,.14,.25,.14,.46,.14,.82,.34,1.1,.58,.28,.24,.5,.52,.67,.85,.17,.32,.29,.67,.38,1.03s.16,.73,.23,1.12c.02,.1-.03,.22-.16,.36-.13,.14-.26,.23-.38,.25-.19,.02-.4,.02-.61,0-.22-.02-.42-.05-.61-.07-1.44-.17-2.89-.28-4.34-.34-1.45-.06-2.9,0-4.34,.16h-.14c-.6,.05-1.13,.18-1.58,.4-.46,.22-.76,.68-.9,1.4-.19,.7-.44,1.38-.76,2.05-.31,.67-.61,1.38-.9,2.12Z"/>
  <path class="cls-1" d="M57.89,9.58c-.74,1.97-1.49,3.92-2.25,5.87-.76,1.94-1.47,3.92-2.14,5.94-.41,1.18-.73,2.38-.97,3.6-.24,1.22-.48,2.45-.72,3.67-.07,.36-.1,.74-.07,1.13s.06,.79,.11,1.17c.05,.55,0,.89-.14,1.03-.14,.13-.49,.21-1.04,.23-.65,.05-1.24-.03-1.78-.23-.54-.2-1.09-.46-1.64-.77-.38-.22-.65-.49-.81-.81-.16-.32-.23-.67-.23-1.03-.05-.79,.04-1.55,.25-2.27,.22-.72,.41-1.45,.58-2.2,.46-1.78,.97-3.51,1.53-5.2,.56-1.69,1.17-3.38,1.82-5.06,.53-1.3,1.03-2.6,1.51-3.91,.48-1.31,.96-2.62,1.44-3.94,.05-.12,.1-.24,.14-.36,.05-.12,.09-.24,.13-.36,.04-.12,.08-.24,.13-.36-.86,.22-1.71,.41-2.54,.59-.83,.18-1.64,.38-2.43,.59-.43,.14-.87,.17-1.31,.09-.44-.08-.85-.24-1.21-.47-.36-.23-.67-.52-.94-.88-.26-.36-.44-.76-.54-1.19-.07-.26-.16-.53-.27-.79s-.19-.49-.23-.68c1.8-.36,3.56-.71,5.27-1.06,1.72-.35,3.45-.68,5.2-.99,2.42-.43,4.83-.72,7.22-.86,2.39-.14,4.75-.07,7.07,.22,.48,.12,.98,.31,1.49,.58,.52,.26,.99,.55,1.42,.86,.46,.31,.83,.68,1.12,1.12,.29,.43,.47,.91,.54,1.44,.02,.19,.02,.4,0,.61-.02,.22-.08,.35-.18,.4-.12,.05-.28,.05-.49,0-.2-.05-.4-.1-.59-.14-.12-.02-.25-.07-.38-.13-.13-.06-.26-.09-.38-.09-1.2-.14-2.32-.26-3.35-.36-1.03-.1-2.04-.15-3.02-.16-.98-.01-1.98,.01-2.99,.07-1.01,.06-2.06,.17-3.17,.34,.1,.38,.11,.79,.04,1.22-.07,.43-.18,.86-.32,1.3s-.3,.84-.47,1.22c-.17,.38-.3,.72-.4,1.01Z"/>
  <path class="cls-1" d="M60.8,16.13c-.48-.07-.77-.16-.86-.27-.1-.11-.06-.38,.11-.81,.34-.79,.62-1.56,.86-2.3,.05-.19,.05-.41,0-.65-.05-.24-.08-.47-.11-.68-.02-.24-.08-.5-.16-.77-.08-.28-.08-.45,.02-.52,.24-.19,.46-.43,.67-.7,.2-.28,.52-.39,.95-.34,.46,.05,.87,.14,1.24,.27,.37,.13,.63,.4,.77,.81,.12,.36,.19,.75,.2,1.17,.01,.42-.04,.81-.16,1.17-.19,.53-.43,1.04-.7,1.55-.28,.5-.65,.92-1.13,1.26-.26,.17-.55,.32-.85,.45-.3,.13-.58,.26-.85,.38Z"/>
  <path class="cls-1" d="M78.23,9.5c-.55,.29-1.07,.6-1.55,.94-.48,.34-.94,.71-1.37,1.12-.22,.19-.53,.5-.95,.92-.42,.42-.79,.88-1.1,1.37-.31,.49-.5,.97-.56,1.42-.06,.46,.16,.82,.67,1.08,.91,.55,1.75,1.16,2.5,1.84,.76,.67,1.36,1.5,1.82,2.48,.46,.94,.63,1.92,.52,2.95-.11,1.03-.58,2-1.42,2.92-.53,.58-1.17,1.18-1.93,1.8-.76,.62-1.58,1.21-2.47,1.76-.89,.55-1.81,1.01-2.75,1.39-.95,.37-1.87,.59-2.77,.65-.9,.06-1.74-.08-2.52-.41-.78-.34-1.46-.94-2.03-1.8-.19-.31-.35-.58-.47-.79-.12-.22-.14-.41-.07-.58,.07-.17,.26-.31,.56-.41,.3-.11,.76-.21,1.39-.31,.48-.05,1.08-.22,1.8-.52,.72-.3,1.46-.67,2.23-1.12,.77-.44,1.52-.95,2.25-1.51,.73-.56,1.36-1.13,1.87-1.69,.52-.56,.87-1.11,1.06-1.64,.19-.53,.14-.98-.14-1.37-.62-.5-1.25-1-1.89-1.48-.64-.48-1.25-.96-1.85-1.44-.5-.38-.88-.8-1.12-1.26-.24-.46-.37-.92-.4-1.4-.02-.48,.05-.95,.22-1.42,.17-.47,.41-.91,.72-1.31,.74-1.06,1.55-2,2.43-2.84,.88-.84,1.8-1.6,2.77-2.29,.97-.68,1.99-1.31,3.04-1.89,1.06-.58,2.14-1.13,3.24-1.66,.19,0,.38-.01,.56-.04,.18-.02,.35-.01,.52,.04,.29-.17,.7-.14,1.24,.07,.54,.22,1.1,.54,1.67,.97,.58,.43,1.12,.93,1.64,1.49s.89,1.1,1.13,1.6c.31,.6,.16,1.03-.47,1.3-.29,.12-.59,.22-.9,.31-.31,.08-.62,.19-.94,.31-.62,.19-1.1,.52-1.44,.99-.34,.47-.61,.98-.83,1.53-.14,.38-.42,.66-.83,.83-.41,.17-.82,.18-1.22,.04-.74-.22-1.24-.58-1.48-1.1-.24-.52-.37-1.12-.4-1.82Z"/>
  <path class="cls-1" d="M105.48,3.82c.43,.05,.83,.08,1.19,.09,.36,.01,.71,.05,1.04,.11,.34,.06,.68,.15,1.03,.27,.35,.12,.73,.32,1.13,.61,.53,.38,1.04,.77,1.53,1.15,.49,.38,.87,.92,1.13,1.62,.05,.17,.02,.52-.07,1.06-.1,.54-.23,1.11-.41,1.71-.18,.6-.38,1.15-.61,1.66-.23,.5-.44,.82-.63,.94-.14,.07-.36,.09-.65,.05-.29-.04-.59-.11-.92-.22-.32-.11-.62-.24-.88-.4-.26-.16-.44-.32-.54-.49-.17-.22-.22-.58-.14-1.08,.07-.5,.16-1,.27-1.48,.11-.48,.19-.88,.23-1.21,.05-.32-.02-.43-.22-.31-1.49,.91-2.8,2-3.94,3.26-1.14,1.26-2.15,2.68-3.04,4.27-.48,.91-.95,1.83-1.4,2.75-.46,.92-.85,1.89-1.19,2.9-.26,.89-.51,1.78-.74,2.68-.23,.9-.34,1.87-.34,2.9,0,.55,.08,.89,.25,1.03,.17,.13,.49,.14,.97,.02,1.13-.36,2.17-.88,3.11-1.55,.95-.67,1.88-1.39,2.79-2.16,.43-.34,.82-.72,1.17-1.15,.35-.43,.73-.85,1.13-1.26,.19-.19,.4-.26,.61-.22,.36,.05,.7,.11,1.03,.18,.32,.07,.65,.13,.99,.18,.17,.05,.37,.17,.61,.36,.24,.19,.47,.41,.7,.65,.23,.24,.43,.49,.59,.76,.17,.26,.26,.48,.29,.65,.02,.22-.02,.43-.13,.63-.11,.2-.22,.37-.34,.49-.77,.7-1.54,1.39-2.32,2.09-.78,.7-1.59,1.37-2.43,2.02-.48,.36-.99,.7-1.53,1.01-.54,.31-1.11,.58-1.71,.79-1.2,.43-2.39,.56-3.58,.4-1.19-.17-2.37-.73-3.55-1.69-.31-.26-.6-.58-.86-.94-.26-.36-.54-.71-.83-1.04-.05-.07-.08-.15-.11-.23-.02-.08-.06-.14-.11-.16-.43-.43-.74-.88-.94-1.33-.19-.46-.31-.92-.36-1.39-.05-.47-.04-.94,.02-1.4,.06-.47,.13-.94,.2-1.42,.29-1.73,.74-3.37,1.37-4.93,.62-1.56,1.36-3.01,2.2-4.36,.31-.5,.78-1.26,1.4-2.27,.62-1.01,1.34-2.02,2.16-3.02,.82-1.01,1.69-1.87,2.61-2.59,.92-.72,1.84-1.04,2.75-.97Z"/>
  <path class="cls-1" d="M127.08,27.36c-.62,.91-1.32,1.76-2.09,2.56s-1.7,1.39-2.81,1.8c-1.15,.41-2.25,.53-3.29,.38-1.04-.16-2.08-.53-3.11-1.13-.79-.46-1.43-.98-1.91-1.57-.48-.59-.83-1.22-1.04-1.89s-.33-1.39-.34-2.14c-.01-.76,.04-1.53,.16-2.32,.14-.89,.39-1.85,.74-2.9s.75-2.09,1.21-3.13c.46-1.04,.94-2.05,1.46-3.01,.52-.96,1.01-1.81,1.49-2.56,.43-.65,.86-1.29,1.28-1.93,.42-.64,.83-1.27,1.24-1.89,.31-.5,.71-.85,1.19-1.04,.48-.19,.97-.34,1.48-.43,.53-.12,1.06-.19,1.6-.22,.54-.02,1.07-.06,1.6-.11,.05,0,.1,0,.16,.02,.06,.01,.1,0,.13-.02,.43-.41,.87-.58,1.31-.5,.44,.07,.87,.22,1.28,.43,1.34,.7,2.44,1.6,3.28,2.7,.84,1.1,1.36,2.42,1.55,3.96,.1,.74,.04,1.55-.16,2.43-.2,.88-.5,1.78-.88,2.7-.38,.92-.83,1.86-1.35,2.81-.52,.95-1.03,1.85-1.55,2.7-.52,.85-1.01,1.65-1.48,2.39-.47,.74-.85,1.38-1.13,1.91Zm-13.46,.97c-.41-1.08-.61-2.12-.61-3.11s.11-1.99,.32-2.97c.26-.94,.57-1.87,.92-2.79,.35-.92,.68-1.83,.99-2.72-.53,.58-.98,1.42-1.37,2.52-.38,1.1-.66,2.24-.83,3.42-.17,1.18-.22,2.29-.14,3.33,.07,1.04,.31,1.82,.72,2.32Zm4.82-7.67c-.14,.46-.28,.93-.41,1.42-.13,.49-.26,.99-.38,1.49-.19,.77-.26,1.54-.22,2.32,.05,.78,.18,1.55,.4,2.32,.07,.26,.16,.44,.27,.54,.11,.1,.33,.08,.67-.04,.6-.24,1.24-.72,1.93-1.44,.68-.72,1.36-1.57,2.02-2.56,.66-.98,1.3-2.03,1.93-3.15,.62-1.12,1.18-2.2,1.67-3.26,.49-1.06,.89-2.02,1.19-2.88,.3-.86,.47-1.52,.52-1.98,.05-.43,.05-.81,0-1.13-.05-.32-.11-.64-.2-.94-.08-.3-.18-.61-.29-.94-.11-.32-.2-.7-.27-1.13-.02-.22-.09-.38-.2-.49s-.34-.15-.7-.13c-.7,.07-1.21,.34-1.55,.79-.34,.46-.64,.9-.9,1.33-.36,.5-.7,1.13-1.03,1.89-.32,.76-.6,1.55-.83,2.38-.23,.83-.38,1.65-.45,2.47-.07,.82-.04,1.54,.11,2.16,.1,.41,.04,.76-.18,1.06-.22,.3-.55,.43-1.01,.38-.34-.05-.67-.11-1.01-.2-.34-.08-.7-.19-1.08-.31Z"/>
  <path class="cls-1" d="M147.71,18.83c.24-.7,.47-1.42,.68-2.18,.22-.76,.46-1.48,.72-2.18,.22-.77,.45-1.52,.7-2.27,.25-.74,.51-1.48,.77-2.2,.26-.77,.51-1.52,.74-2.27,.23-.74,.5-1.46,.81-2.16,.14-.34,.25-.69,.32-1.06,.07-.37,.15-.75,.23-1.13,.08-.38,.19-.75,.32-1.1,.13-.35,.32-.68,.56-.99,.58,.34,1.12,.63,1.62,.88s1.02,.51,1.55,.77c.46,.24,.79,.56,1.01,.97,.22,.41,.23,.85,.04,1.33-.55,1.58-1.12,3.14-1.71,4.68-.59,1.54-1.15,3.1-1.67,4.68-.65,1.9-1.28,3.79-1.89,5.69-.61,1.9-1.19,3.82-1.75,5.76-.17,.55-.29,1.12-.36,1.71-.07,.59-.05,1.19,.07,1.82,.07,.41-.04,.74-.34,1.01-.3,.26-.69,.41-1.17,.43-.7,.02-1.38-.11-2.05-.4-.67-.29-1.27-.64-1.8-1.04-.53-.34-.92-.73-1.19-1.17-.26-.44-.47-.93-.61-1.46-.19-.58-.42-1.15-.68-1.71-.26-.56-.41-1.17-.43-1.82-.02-.58-.05-1.16-.07-1.75-.02-.59-.07-1.19-.14-1.82-.05-.34-.12-.68-.22-1.03-.1-.35-.17-.69-.22-1.03h-.29c-.22,.65-.44,1.3-.68,1.94-.24,.65-.47,1.3-.68,1.94-.34,1.03-.67,2.06-.99,3.08-.32,1.02-.63,2.06-.92,3.11-.12,.48-.2,.96-.23,1.44-.04,.48-.05,.97-.05,1.48,0,.38-.11,.62-.34,.7-.23,.08-.44,.16-.63,.23-.94,.26-1.73,.04-2.38-.68-.07-.12-.19-.23-.36-.32-.34-.1-.59-.24-.76-.43-.17-.19-.29-.4-.36-.63-.07-.23-.1-.47-.09-.74,.01-.26,.03-.52,.05-.76,.1-.65,.22-1.28,.38-1.91,.16-.62,.33-1.24,.52-1.84,.41-1.3,.83-2.59,1.28-3.89,.44-1.3,.89-2.59,1.35-3.89,.36-1.03,.72-2.05,1.08-3.06,.36-1.01,.71-2.03,1.04-3.06,.17-.48,.28-.97,.32-1.46,.05-.49,.12-.98,.22-1.46,.05-.1,.1-.2,.16-.31,.06-.11,.13-.17,.2-.2,.84-.17,1.66-.25,2.47-.25s1.59,.26,2.36,.79c.38,.26,.67,.58,.86,.94,.19,.36,.32,.76,.4,1.19,.12,.79,.23,1.58,.32,2.36,.1,.78,.19,1.55,.29,2.32,.07,.7,.15,1.38,.23,2.05,.08,.67,.15,1.34,.2,2.02,.05,.48,.1,.95,.16,1.4,.06,.46,.13,.92,.2,1.4l.83-2.52Zm3.24-8.06c-.26,.7-.53,1.41-.79,2.14-.26,.73-.53,1.45-.79,2.14l.25,.11,.29-.79,1.12-3.56c.22-.48,.41-.97,.59-1.46,.18-.49,.37-.98,.56-1.46-.07,0-.13-.02-.18-.07l-1.04,2.95Z"/>
  <path class="cls-1" d="M169.63,18.83c.24-.7,.47-1.42,.68-2.18,.22-.76,.46-1.48,.72-2.18,.22-.77,.45-1.52,.7-2.27,.25-.74,.51-1.48,.77-2.2,.26-.77,.51-1.52,.74-2.27,.23-.74,.5-1.46,.81-2.16,.14-.34,.25-.69,.32-1.06,.07-.37,.15-.75,.23-1.13,.08-.38,.19-.75,.32-1.1,.13-.35,.32-.68,.56-.99,.58,.34,1.12,.63,1.62,.88s1.02,.51,1.55,.77c.46,.24,.79,.56,1.01,.97,.22,.41,.23,.85,.04,1.33-.55,1.58-1.12,3.14-1.71,4.68-.59,1.54-1.15,3.1-1.67,4.68-.65,1.9-1.28,3.79-1.89,5.69-.61,1.9-1.19,3.82-1.75,5.76-.17,.55-.29,1.12-.36,1.71-.07,.59-.05,1.19,.07,1.82,.07,.41-.04,.74-.34,1.01-.3,.26-.69,.41-1.17,.43-.7,.02-1.38-.11-2.05-.4-.67-.29-1.27-.64-1.8-1.04-.53-.34-.92-.73-1.19-1.17-.26-.44-.47-.93-.61-1.46-.19-.58-.42-1.15-.68-1.71-.26-.56-.41-1.17-.43-1.82-.02-.58-.05-1.16-.07-1.75-.02-.59-.07-1.19-.14-1.82-.05-.34-.12-.68-.22-1.03-.1-.35-.17-.69-.22-1.03h-.29c-.22,.65-.44,1.3-.68,1.94-.24,.65-.47,1.3-.68,1.94-.34,1.03-.67,2.06-.99,3.08-.32,1.02-.63,2.06-.92,3.11-.12,.48-.2,.96-.23,1.44-.04,.48-.05,.97-.05,1.48,0,.38-.11,.62-.34,.7-.23,.08-.44,.16-.63,.23-.94,.26-1.73,.04-2.38-.68-.07-.12-.19-.23-.36-.32-.34-.1-.59-.24-.76-.43-.17-.19-.29-.4-.36-.63-.07-.23-.1-.47-.09-.74,.01-.26,.03-.52,.05-.76,.1-.65,.22-1.28,.38-1.91,.16-.62,.33-1.24,.52-1.84,.41-1.3,.83-2.59,1.28-3.89,.44-1.3,.89-2.59,1.35-3.89,.36-1.03,.72-2.05,1.08-3.06,.36-1.01,.71-2.03,1.04-3.06,.17-.48,.28-.97,.32-1.46,.05-.49,.12-.98,.22-1.46,.05-.1,.1-.2,.16-.31,.06-.11,.13-.17,.2-.2,.84-.17,1.66-.25,2.47-.25s1.59,.26,2.36,.79c.38,.26,.67,.58,.86,.94,.19,.36,.32,.76,.4,1.19,.12,.79,.23,1.58,.32,2.36,.1,.78,.19,1.55,.29,2.32,.07,.7,.15,1.38,.23,2.05,.08,.67,.15,1.34,.2,2.02,.05,.48,.1,.95,.16,1.4,.06,.46,.13,.92,.2,1.4l.83-2.52Zm3.24-8.06c-.26,.7-.53,1.41-.79,2.14-.26,.73-.53,1.45-.79,2.14l.25,.11,.29-.79,1.12-3.56c.22-.48,.41-.97,.59-1.46,.18-.49,.37-.98,.56-1.46-.07,0-.13-.02-.18-.07l-1.04,2.95Z"/>
  <path class="cls-1" d="M185.97,15.59c.46-.07,.87-.14,1.24-.2,.37-.06,.73-.1,1.06-.13,.82-.07,1.63-.13,2.43-.18,.8-.05,1.59-.1,2.36-.14,.46-.05,.8-.04,1.03,.02,.23,.06,.42,.14,.58,.25,.16,.11,.32,.22,.5,.32,.18,.11,.44,.19,.77,.23,.22,.07,.46,.23,.72,.49,.26,.25,.5,.53,.72,.85,.22,.31,.39,.63,.52,.95,.13,.32,.2,.59,.2,.81,0,.41-.11,.67-.34,.77-.23,.11-.49,.16-.77,.16-.62,.02-1.24,.03-1.84,.02-.6-.01-1.21,0-1.84,.02-1.44,.07-2.86,.18-4.27,.32-1.4,.14-2.79,.49-4.16,1.04-.34,.12-.61,.28-.83,.49-.22,.2-.37,.51-.47,.92-.1,.46-.23,.91-.4,1.37-.17,.46-.35,.94-.54,1.44,.29-.02,.56-.05,.81-.07,.25-.02,.51-.06,.77-.11,.74-.1,1.48-.18,2.2-.25,.72-.07,1.45-.17,2.2-.29,.29-.05,.58-.07,.88-.07h.9c.3,0,.59-.02,.88-.07,.29-.05,.58-.14,.86-.29,.12-.05,.24-.04,.36,.04,.53,.29,1.04,.56,1.55,.81,.5,.25,.98,.55,1.44,.88,.26,.19,.47,.46,.61,.81,.14,.35,.28,.69,.4,1.03,.1,.19,.08,.38-.04,.58-.12,.19-.31,.3-.58,.32-.38,.05-.77,.1-1.15,.14-.38,.05-.77,.06-1.15,.04-1.7,0-3.39,.1-5.06,.31-1.67,.2-3.33,.52-4.99,.95-.22,.05-.43,.1-.65,.16-.22,.06-.42,.15-.61,.27-.12,.07-.23,.18-.32,.32-.1,.14-.14,.28-.14,.4,0,.34-.08,.62-.25,.86-.17,.24-.38,.4-.65,.47-.19,.05-.42,.01-.68-.11-.26-.12-.47-.26-.61-.43-.46-.48-.92-.96-1.39-1.44-.47-.48-.76-1.07-.88-1.76-.05-.19-.16-.38-.32-.58-.17-.19-.23-.37-.18-.54,.07-.17,.22-.29,.45-.36,.23-.07,.41-.19,.56-.36,.29-.29,.47-.61,.54-.97,.14-.72,.29-1.45,.45-2.18,.16-.73,.26-1.47,.31-2.21,.05-.48,.02-.97-.09-1.46-.11-.49-.23-.98-.38-1.46-.07-.26-.1-.47-.09-.63,.01-.16,.17-.29,.49-.41,.26-.05,.5-.15,.72-.31,.22-.16,.44-.31,.68-.45,.05-.05,.07-.13,.05-.23-.01-.11,0-.21,.02-.31,0-.05,0-.11-.02-.18-.01-.07,0-.14,.02-.22,.43-1.15,.87-2.3,1.31-3.44,.44-1.14,.86-2.3,1.24-3.47,.12-.31,.16-.65,.11-1.01-.05-.36-.08-.71-.11-1.04-.02-.26-.07-.54-.13-.83-.06-.29-.11-.59-.16-.9,.24,0,.45,0,.63,.02,.18,.01,.34,0,.49-.02,.19-.02,.35-.05,.49-.09,.13-.04,.19-.19,.16-.45,0-.26,.08-.41,.25-.45,.17-.04,.31,.02,.43,.16,.22,.19,.43,.29,.65,.31,.22,.01,.46,0,.72-.02,1.27-.14,2.54-.25,3.8-.31,1.26-.06,2.53-.03,3.8,.09h.67c.2,0,.41,.01,.63,.04,.48,.02,.94,.08,1.37,.18,.43,.1,.82,.34,1.15,.72,.05,.1,.13,.14,.25,.14,.46,.14,.82,.34,1.1,.58,.28,.24,.5,.52,.67,.85,.17,.32,.29,.67,.38,1.03s.16,.73,.23,1.12c.02,.1-.03,.22-.16,.36-.13,.14-.26,.23-.38,.25-.19,.02-.4,.02-.61,0-.22-.02-.42-.05-.61-.07-1.44-.17-2.89-.28-4.34-.34-1.45-.06-2.9,0-4.34,.16h-.14c-.6,.05-1.13,.18-1.58,.4-.46,.22-.76,.68-.9,1.4-.19,.7-.44,1.38-.76,2.05-.31,.67-.61,1.38-.9,2.12Z"/>
  <path class="cls-1" d="M213.44,3.82c.43,.05,.83,.08,1.19,.09,.36,.01,.71,.05,1.04,.11,.34,.06,.68,.15,1.03,.27,.35,.12,.73,.32,1.13,.61,.53,.38,1.04,.77,1.53,1.15,.49,.38,.87,.92,1.13,1.62,.05,.17,.02,.52-.07,1.06-.1,.54-.23,1.11-.41,1.71-.18,.6-.38,1.15-.61,1.66-.23,.5-.44,.82-.63,.94-.14,.07-.36,.09-.65,.05-.29-.04-.59-.11-.92-.22-.32-.11-.62-.24-.88-.4-.26-.16-.44-.32-.54-.49-.17-.22-.22-.58-.14-1.08,.07-.5,.16-1,.27-1.48,.11-.48,.19-.88,.23-1.21,.05-.32-.02-.43-.22-.31-1.49,.91-2.8,2-3.94,3.26-1.14,1.26-2.15,2.68-3.04,4.27-.48,.91-.95,1.83-1.4,2.75-.46,.92-.85,1.89-1.19,2.9-.26,.89-.51,1.78-.74,2.68-.23,.9-.34,1.87-.34,2.9,0,.55,.08,.89,.25,1.03,.17,.13,.49,.14,.97,.02,1.13-.36,2.17-.88,3.11-1.55,.95-.67,1.88-1.39,2.79-2.16,.43-.34,.82-.72,1.17-1.15,.35-.43,.73-.85,1.13-1.26,.19-.19,.4-.26,.61-.22,.36,.05,.7,.11,1.03,.18,.32,.07,.65,.13,.99,.18,.17,.05,.37,.17,.61,.36,.24,.19,.47,.41,.7,.65,.23,.24,.43,.49,.59,.76,.17,.26,.26,.48,.29,.65,.02,.22-.02,.43-.13,.63-.11,.2-.22,.37-.34,.49-.77,.7-1.54,1.39-2.32,2.09-.78,.7-1.59,1.37-2.43,2.02-.48,.36-.99,.7-1.53,1.01-.54,.31-1.11,.58-1.71,.79-1.2,.43-2.39,.56-3.58,.4-1.19-.17-2.37-.73-3.55-1.69-.31-.26-.6-.58-.86-.94-.26-.36-.54-.71-.83-1.04-.05-.07-.08-.15-.11-.23-.02-.08-.06-.14-.11-.16-.43-.43-.74-.88-.94-1.33-.19-.46-.31-.92-.36-1.39-.05-.47-.04-.94,.02-1.4,.06-.47,.13-.94,.2-1.42,.29-1.73,.74-3.37,1.37-4.93,.62-1.56,1.36-3.01,2.2-4.36,.31-.5,.78-1.26,1.4-2.27,.62-1.01,1.34-2.02,2.16-3.02,.82-1.01,1.69-1.87,2.61-2.59,.92-.72,1.84-1.04,2.75-.97Z"/>
  <path class="cls-1" d="M231.8,9.58c-.74,1.97-1.49,3.92-2.25,5.87-.76,1.94-1.47,3.92-2.14,5.94-.41,1.18-.73,2.38-.97,3.6-.24,1.22-.48,2.45-.72,3.67-.07,.36-.1,.74-.07,1.13s.06,.79,.11,1.17c.05,.55,0,.89-.14,1.03-.14,.13-.49,.21-1.04,.23-.65,.05-1.24-.03-1.78-.23-.54-.2-1.09-.46-1.64-.77-.38-.22-.65-.49-.81-.81-.16-.32-.23-.67-.23-1.03-.05-.79,.04-1.55,.25-2.27,.22-.72,.41-1.45,.58-2.2,.46-1.78,.97-3.51,1.53-5.2,.56-1.69,1.17-3.38,1.82-5.06,.53-1.3,1.03-2.6,1.51-3.91,.48-1.31,.96-2.62,1.44-3.94,.05-.12,.1-.24,.14-.36,.05-.12,.09-.24,.13-.36,.04-.12,.08-.24,.13-.36-.86,.22-1.71,.41-2.54,.59-.83,.18-1.64,.38-2.43,.59-.43,.14-.87,.17-1.31,.09-.44-.08-.85-.24-1.21-.47-.36-.23-.67-.52-.94-.88-.26-.36-.44-.76-.54-1.19-.07-.26-.16-.53-.27-.79s-.19-.49-.23-.68c1.8-.36,3.56-.71,5.27-1.06,1.72-.35,3.45-.68,5.2-.99,2.42-.43,4.83-.72,7.22-.86,2.39-.14,4.75-.07,7.07,.22,.48,.12,.98,.31,1.49,.58,.52,.26,.99,.55,1.42,.86,.46,.31,.83,.68,1.12,1.12,.29,.43,.47,.91,.54,1.44,.02,.19,.02,.4,0,.61-.02,.22-.08,.35-.18,.4-.12,.05-.28,.05-.49,0-.2-.05-.4-.1-.59-.14-.12-.02-.25-.07-.38-.13-.13-.06-.26-.09-.38-.09-1.2-.14-2.32-.26-3.35-.36-1.03-.1-2.04-.15-3.02-.16-.98-.01-1.98,.01-2.99,.07-1.01,.06-2.06,.17-3.17,.34,.1,.38,.11,.79,.04,1.22-.07,.43-.18,.86-.32,1.3s-.3,.84-.47,1.22c-.17,.38-.3,.72-.4,1.01Z"/>
</svg>