<?xml version="1.0" encoding="UTF-8"?>
<svg id="Layer_1" data-name="Layer 1" xmlns="http://www.w3.org/2000/svg" viewBox="0 0 404.05 34.81">
  <defs>
    <style>
      .cls-1 {
        fill: #f8f2f4;
      }
    </style>
  </defs>
  <path class="cls-1" d="M25.14,17.35c.05-.19,.1-.38,.14-.58,.05-.19,.1-.38,.14-.58,.05-.12,.08-.25,.09-.38,.01-.13,.04-.26,.09-.38,.07-.02,.16-.04,.27-.04s.17-.02,.2-.07c.12-.26,.22-.53,.29-.81,.07-.28,.16-.55,.25-.81l-.04-.07h-.04l-.5,.68,1.44-3.6s0-.09,.02-.13c.01-.04,.03-.08,.05-.13l-.14-.11-2.41,2.63c-.7,.79-1.38,1.59-2.05,2.39-.67,.8-1.32,1.63-1.94,2.47-.84,1.13-1.61,2.29-2.32,3.47-.71,1.19-1.29,2.47-1.75,3.83-.19,.62-.57,1.07-1.13,1.33-.56,.26-1.19,.28-1.89,.04-.55-.14-1.09-.34-1.6-.58-.52-.24-1.04-.49-1.57-.76-.12-.05-.25-.16-.38-.32-.13-.17-.21-.32-.23-.47-.05-.36-.1-.73-.14-1.12-.05-.38-.05-.74,0-1.08,.12-.74,.1-1.46-.05-2.16-.16-.7-.26-1.4-.31-2.12,0-.6-.12-1.18-.36-1.73-.07,.19-.15,.38-.23,.58-.08,.19-.15,.38-.2,.58l-3.13,11.05c-.14,.53-.28,1.04-.4,1.55-.12,.5-.25,1.02-.4,1.55-.07,.29-.22,.53-.43,.74-.22,.2-.46,.35-.74,.45-.28,.1-.57,.14-.88,.13-.31-.01-.59-.1-.83-.27-.5-.29-.92-.56-1.24-.83-.32-.26-.55-.56-.67-.88C0,30.51-.03,30.15,.03,29.75c.06-.4,.2-.86,.41-1.39,.14-.29,.23-.59,.25-.92s.1-.62,.22-.88c.17-.24,.27-.47,.31-.68,.04-.22,.08-.47,.13-.76,.05-.53,.17-1.03,.36-1.51,.19-.48,.37-.96,.54-1.44-.02,.12-.04,.22-.05,.31s-.04,.19-.09,.31c.48-.34,.65-.83,.5-1.48,0-.12-.01-.23-.04-.34s-.02-.21,0-.31l1.94-6.59,1.66-5.51c0-.1,0-.2,.02-.31,.01-.11,.02-.22,.02-.34,.02-.29,.04-.52,.05-.68,.01-.17,.05-.29,.13-.36s.19-.12,.34-.14c.16-.02,.37-.04,.63-.04-.02-.12-.06-.23-.11-.32-.05-.1-.08-.2-.11-.32,.14-.05,.28-.09,.4-.13,.12-.04,.24-.05,.36-.05,.55,.05,1.11,.1,1.67,.16,.56,.06,1.12,.13,1.67,.2,.67,.1,1.2,.34,1.58,.74,.38,.4,.67,.87,.86,1.42,.12,.31,.18,.62,.18,.92s-.02,.59-.05,.88c-.04,.29-.08,.58-.13,.88-.05,.3-.05,.59,0,.88,.07,.67,.14,1.34,.22,2.02,.07,.67,.17,1.34,.29,2.02,.1,.41,.2,.82,.31,1.24,.11,.42,.22,.87,.34,1.35,.24-.34,.47-.66,.7-.97,.23-.31,.46-.64,.7-.97,.77-.94,1.52-1.88,2.25-2.83,.73-.95,1.48-1.88,2.25-2.79,.89-1.03,1.79-2.05,2.7-3.04,.91-1,1.81-2.01,2.7-3.04,.36-.43,.77-.81,1.24-1.13,.47-.32,.98-.59,1.53-.81,.12-.05,.25-.06,.4-.04,.14,.02,.28,.07,.4,.14,.58,.22,1.15,.44,1.71,.67,.56,.23,1.13,.46,1.71,.7,.46,.24,.82,.63,1.08,1.17s.31,1.05,.14,1.53c-.34,.98-.7,1.95-1.1,2.9-.4,.95-.79,1.91-1.17,2.9-.62,1.61-1.26,3.2-1.91,4.79s-1.27,3.19-1.87,4.82c-.41,1.15-.8,2.3-1.17,3.46-.37,1.15-.71,2.3-1.03,3.46-.14,.5-.21,1.04-.2,1.6,.01,.56-.02,1.1-.09,1.6-.02,.17-.13,.32-.31,.47s-.37,.24-.56,.29c-.48,.14-.95,.17-1.4,.07-.46-.1-.9-.28-1.33-.54-.58-.31-1.16-.62-1.76-.94-.19-.72-.23-1.42-.13-2.09,.11-.67,.31-1.34,.59-2.02l-.36,3.17c.12-.41,.23-.8,.32-1.17,.1-.37,.2-.75,.32-1.13l3.13-9.18c.05-.14,.06-.3,.04-.47-.02-.17-.05-.35-.07-.54,.12-.02,.23-.08,.32-.18v-.14l.5-.94Z"/>
  <path class="cls-1" d="M39.14,15.59c.46-.07,.87-.14,1.24-.2,.37-.06,.73-.1,1.06-.13,.82-.07,1.63-.13,2.43-.18,.8-.05,1.59-.1,2.36-.14,.46-.05,.8-.04,1.03,.02,.23,.06,.42,.14,.58,.25,.16,.11,.32,.22,.5,.32,.18,.11,.44,.19,.77,.23,.22,.07,.46,.23,.72,.49,.26,.25,.5,.53,.72,.85,.22,.31,.39,.63,.52,.95,.13,.32,.2,.59,.2,.81,0,.41-.11,.67-.34,.77-.23,.11-.49,.16-.77,.16-.62,.02-1.24,.03-1.84,.02-.6-.01-1.21,0-1.84,.02-1.44,.07-2.86,.18-4.27,.32-1.4,.14-2.79,.49-4.16,1.04-.34,.12-.61,.28-.83,.49-.22,.2-.37,.51-.47,.92-.1,.46-.23,.91-.4,1.37-.17,.46-.35,.94-.54,1.44,.29-.02,.56-.05,.81-.07,.25-.02,.51-.06,.77-.11,.74-.1,1.48-.18,2.2-.25,.72-.07,1.45-.17,2.2-.29,.29-.05,.58-.07,.88-.07h.9c.3,0,.59-.02,.88-.07,.29-.05,.58-.14,.86-.29,.12-.05,.24-.04,.36,.04,.53,.29,1.04,.56,1.55,.81,.5,.25,.98,.55,1.44,.88,.26,.19,.47,.46,.61,.81,.14,.35,.28,.69,.4,1.03,.1,.19,.08,.38-.04,.58-.12,.19-.31,.3-.58,.32-.38,.05-.77,.1-1.15,.14-.38,.05-.77,.06-1.15,.04-1.7,0-3.39,.1-5.06,.31-1.67,.2-3.33,.52-4.99,.95-.22,.05-.43,.1-.65,.16-.22,.06-.42,.15-.61,.27-.12,.07-.23,.18-.32,.32-.1,.14-.14,.28-.14,.4,0,.34-.08,.62-.25,.86-.17,.24-.38,.4-.65,.47-.19,.05-.42,.01-.68-.11-.26-.12-.47-.26-.61-.43-.46-.48-.92-.96-1.39-1.44-.47-.48-.76-1.07-.88-1.76-.05-.19-.16-.38-.32-.58-.17-.19-.23-.37-.18-.54,.07-.17,.22-.29,.45-.36,.23-.07,.41-.19,.56-.36,.29-.29,.47-.61,.54-.97,.14-.72,.29-1.45,.45-2.18,.16-.73,.26-1.47,.31-2.21,.05-.48,.02-.97-.09-1.46-.11-.49-.23-.98-.38-1.46-.07-.26-.1-.47-.09-.63,.01-.16,.17-.29,.49-.41,.26-.05,.5-.15,.72-.31,.22-.16,.44-.31,.68-.45,.05-.05,.07-.13,.05-.23-.01-.11,0-.21,.02-.31,0-.05,0-.11-.02-.18-.01-.07,0-.14,.02-.22,.43-1.15,.87-2.3,1.31-3.44,.44-1.14,.86-2.3,1.24-3.47,.12-.31,.16-.65,.11-1.01-.05-.36-.08-.71-.11-1.04-.02-.26-.07-.54-.13-.83-.06-.29-.11-.59-.16-.9,.24,0,.45,0,.63,.02,.18,.01,.34,0,.49-.02,.19-.02,.35-.05,.49-.09,.13-.04,.19-.19,.16-.45,0-.26,.08-.41,.25-.45,.17-.04,.31,.02,.43,.16,.22,.19,.43,.29,.65,.31,.22,.01,.46,0,.72-.02,1.27-.14,2.54-.25,3.8-.31,1.26-.06,2.53-.03,3.8,.09h.67c.2,0,.41,.01,.63,.04,.48,.02,.94,.08,1.37,.18,.43,.1,.82,.34,1.15,.72,.05,.1,.13,.14,.25,.14,.46,.14,.82,.34,1.1,.58,.28,.24,.5,.52,.67,.85,.17,.32,.29,.67,.38,1.03s.16,.73,.23,1.12c.02,.1-.03,.22-.16,.36-.13,.14-.26,.23-.38,.25-.19,.02-.4,.02-.61,0-.22-.02-.42-.05-.61-.07-1.44-.17-2.89-.28-4.34-.34-1.45-.06-2.9,0-4.34,.16h-.14c-.6,.05-1.13,.18-1.58,.4-.46,.22-.76,.68-.9,1.4-.19,.7-.44,1.38-.76,2.05-.31,.67-.61,1.38-.9,2.12Z"/>
  <path class="cls-1" d="M60.96,15.59c.46-.07,.87-.14,1.24-.2,.37-.06,.73-.1,1.06-.13,.82-.07,1.63-.13,2.43-.18,.8-.05,1.59-.1,2.36-.14,.46-.05,.8-.04,1.03,.02,.23,.06,.42,.14,.58,.25,.16,.11,.32,.22,.5,.32,.18,.11,.44,.19,.77,.23,.22,.07,.46,.23,.72,.49,.26,.25,.5,.53,.72,.85,.22,.31,.39,.63,.52,.95,.13,.32,.2,.59,.2,.81,0,.41-.11,.67-.34,.77-.23,.11-.49,.16-.77,.16-.62,.02-1.24,.03-1.84,.02-.6-.01-1.21,0-1.84,.02-1.44,.07-2.86,.18-4.27,.32-1.4,.14-2.79,.49-4.16,1.04-.34,.12-.61,.28-.83,.49-.22,.2-.37,.51-.47,.92-.1,.46-.23,.91-.4,1.37-.17,.46-.35,.94-.54,1.44,.29-.02,.56-.05,.81-.07,.25-.02,.51-.06,.77-.11,.74-.1,1.48-.18,2.2-.25,.72-.07,1.45-.17,2.2-.29,.29-.05,.58-.07,.88-.07h.9c.3,0,.59-.02,.88-.07,.29-.05,.58-.14,.86-.29,.12-.05,.24-.04,.36,.04,.53,.29,1.04,.56,1.55,.81,.5,.25,.98,.55,1.44,.88,.26,.19,.47,.46,.61,.81,.14,.35,.28,.69,.4,1.03,.1,.19,.08,.38-.04,.58-.12,.19-.31,.3-.58,.32-.38,.05-.77,.1-1.15,.14-.38,.05-.77,.06-1.15,.04-1.7,0-3.39,.1-5.06,.31-1.67,.2-3.33,.52-4.99,.95-.22,.05-.43,.1-.65,.16-.22,.06-.42,.15-.61,.27-.12,.07-.23,.18-.32,.32-.1,.14-.14,.28-.14,.4,0,.34-.08,.62-.25,.86-.17,.24-.38,.4-.65,.47-.19,.05-.42,.01-.68-.11-.26-.12-.47-.26-.61-.43-.46-.48-.92-.96-1.39-1.44-.47-.48-.76-1.07-.88-1.76-.05-.19-.16-.38-.32-.58-.17-.19-.23-.37-.18-.54,.07-.17,.22-.29,.45-.36,.23-.07,.41-.19,.56-.36,.29-.29,.47-.61,.54-.97,.14-.72,.29-1.45,.45-2.18,.16-.73,.26-1.47,.31-2.21,.05-.48,.02-.97-.09-1.46-.11-.49-.23-.98-.38-1.46-.07-.26-.1-.47-.09-.63,.01-.16,.17-.29,.49-.41,.26-.05,.5-.15,.72-.31,.22-.16,.44-.31,.68-.45,.05-.05,.07-.13,.05-.23-.01-.11,0-.21,.02-.31,0-.05,0-.11-.02-.18-.01-.07,0-.14,.02-.22,.43-1.15,.87-2.3,1.31-3.44,.44-1.14,.86-2.3,1.24-3.47,.12-.31,.16-.65,.11-1.01-.05-.36-.08-.71-.11-1.04-.02-.26-.07-.54-.13-.83-.06-.29-.11-.59-.16-.9,.24,0,.45,0,.63,.02,.18,.01,.34,0,.49-.02,.19-.02,.35-.05,.49-.09,.13-.04,.19-.19,.16-.45,0-.26,.08-.41,.25-.45,.17-.04,.31,.02,.43,.16,.22,.19,.43,.29,.65,.31,.22,.01,.46,0,.72-.02,1.27-.14,2.54-.25,3.8-.31,1.26-.06,2.53-.03,3.8,.09h.67c.2,0,.41,.01,.63,.04,.48,.02,.94,.08,1.37,.18,.43,.1,.82,.34,1.15,.72,.05,.1,.13,.14,.25,.14,.46,.14,.82,.34,1.1,.58,.28,.24,.5,.52,.67,.85,.17,.32,.29,.67,.38,1.03s.16,.73,.23,1.12c.02,.1-.03,.22-.16,.36-.13,.14-.26,.23-.38,.25-.19,.02-.4,.02-.61,0-.22-.02-.42-.05-.61-.07-1.44-.17-2.89-.28-4.34-.34-1.45-.06-2.9,0-4.34,.16h-.14c-.6,.05-1.13,.18-1.58,.4-.46,.22-.76,.68-.9,1.4-.19,.7-.44,1.38-.76,2.05-.31,.67-.61,1.38-.9,2.12Z"/>
  <path class="cls-1" d="M85.29,9.58c-.74,1.97-1.49,3.92-2.25,5.87-.76,1.94-1.47,3.92-2.14,5.94-.41,1.18-.73,2.38-.97,3.6-.24,1.22-.48,2.45-.72,3.67-.07,.36-.1,.74-.07,1.13s.06,.79,.11,1.17c.05,.55,0,.89-.14,1.03-.14,.13-.49,.21-1.04,.23-.65,.05-1.24-.03-1.78-.23-.54-.2-1.09-.46-1.64-.77-.38-.22-.65-.49-.81-.81-.16-.32-.23-.67-.23-1.03-.05-.79,.04-1.55,.25-2.27,.22-.72,.41-1.45,.58-2.2,.46-1.78,.97-3.51,1.53-5.2,.56-1.69,1.17-3.38,1.82-5.06,.53-1.3,1.03-2.6,1.51-3.91,.48-1.31,.96-2.62,1.44-3.94,.05-.12,.1-.24,.14-.36,.05-.12,.09-.24,.13-.36,.04-.12,.08-.24,.13-.36-.86,.22-1.71,.41-2.54,.59-.83,.18-1.64,.38-2.43,.59-.43,.14-.87,.17-1.31,.09-.44-.08-.85-.24-1.21-.47-.36-.23-.67-.52-.94-.88-.26-.36-.44-.76-.54-1.19-.07-.26-.16-.53-.27-.79s-.19-.49-.23-.68c1.8-.36,3.56-.71,5.27-1.06,1.72-.35,3.45-.68,5.2-.99,2.42-.43,4.83-.72,7.22-.86,2.39-.14,4.75-.07,7.07,.22,.48,.12,.98,.31,1.49,.58,.52,.26,.99,.55,1.42,.86,.46,.31,.83,.68,1.12,1.12,.29,.43,.47,.91,.54,1.44,.02,.19,.02,.4,0,.61-.02,.22-.08,.35-.18,.4-.12,.05-.28,.05-.49,0-.2-.05-.4-.1-.59-.14-.12-.02-.25-.07-.38-.13-.13-.06-.26-.09-.38-.09-1.2-.14-2.32-.26-3.35-.36-1.03-.1-2.04-.15-3.02-.16-.98-.01-1.98,.01-2.99,.07-1.01,.06-2.06,.17-3.17,.34,.1,.38,.11,.79,.04,1.22-.07,.43-.18,.86-.32,1.3s-.3,.84-.47,1.22c-.17,.38-.3,.72-.4,1.01Z"/>
  <path class="cls-1" d="M117.23,9.5c-.55,.29-1.07,.6-1.55,.94-.48,.34-.94,.71-1.37,1.12-.22,.19-.53,.5-.95,.92-.42,.42-.79,.88-1.1,1.37-.31,.49-.5,.97-.56,1.42-.06,.46,.16,.82,.67,1.08,.91,.55,1.75,1.16,2.5,1.84,.76,.67,1.36,1.5,1.82,2.48,.46,.94,.63,1.92,.52,2.95-.11,1.03-.58,2-1.42,2.92-.53,.58-1.17,1.18-1.93,1.8-.76,.62-1.58,1.21-2.47,1.76-.89,.55-1.81,1.01-2.75,1.39-.95,.37-1.87,.59-2.77,.65-.9,.06-1.74-.08-2.52-.41-.78-.34-1.46-.94-2.03-1.8-.19-.31-.35-.58-.47-.79-.12-.22-.14-.41-.07-.58,.07-.17,.26-.31,.56-.41,.3-.11,.76-.21,1.39-.31,.48-.05,1.08-.22,1.8-.52,.72-.3,1.46-.67,2.23-1.12,.77-.44,1.52-.95,2.25-1.51,.73-.56,1.36-1.13,1.87-1.69,.52-.56,.87-1.11,1.06-1.64,.19-.53,.14-.98-.14-1.37-.62-.5-1.25-1-1.89-1.48-.64-.48-1.25-.96-1.85-1.44-.5-.38-.88-.8-1.12-1.26-.24-.46-.37-.92-.4-1.4-.02-.48,.05-.95,.22-1.42,.17-.47,.41-.91,.72-1.31,.74-1.06,1.55-2,2.43-2.84,.88-.84,1.8-1.6,2.77-2.29,.97-.68,1.99-1.31,3.04-1.89,1.06-.58,2.14-1.13,3.24-1.66,.19,0,.38-.01,.56-.04,.18-.02,.35-.01,.52,.04,.29-.17,.7-.14,1.24,.07,.54,.22,1.1,.54,1.67,.97,.58,.43,1.12,.93,1.64,1.49s.89,1.1,1.13,1.6c.31,.6,.16,1.03-.47,1.3-.29,.12-.59,.22-.9,.31-.31,.08-.62,.19-.94,.31-.62,.19-1.1,.52-1.44,.99-.34,.47-.61,.98-.83,1.53-.14,.38-.42,.66-.83,.83-.41,.17-.82,.18-1.22,.04-.74-.22-1.24-.58-1.48-1.1-.24-.52-.37-1.12-.4-1.82Z"/>
  <path class="cls-1" d="M132.81,27.36c-.62,.91-1.32,1.76-2.09,2.56s-1.7,1.39-2.81,1.8c-1.15,.41-2.25,.53-3.29,.38-1.04-.16-2.08-.53-3.11-1.13-.79-.46-1.43-.98-1.91-1.57-.48-.59-.83-1.22-1.04-1.89s-.33-1.39-.34-2.14c-.01-.76,.04-1.53,.16-2.32,.14-.89,.39-1.85,.74-2.9s.75-2.09,1.21-3.13c.46-1.04,.94-2.05,1.46-3.01,.52-.96,1.01-1.81,1.49-2.56,.43-.65,.86-1.29,1.28-1.93,.42-.64,.83-1.27,1.24-1.89,.31-.5,.71-.85,1.19-1.04,.48-.19,.97-.34,1.48-.43,.53-.12,1.06-.19,1.6-.22,.54-.02,1.07-.06,1.6-.11,.05,0,.1,0,.16,.02,.06,.01,.1,0,.13-.02,.43-.41,.87-.58,1.31-.5,.44,.07,.87,.22,1.28,.43,1.34,.7,2.44,1.6,3.28,2.7,.84,1.1,1.36,2.42,1.55,3.96,.1,.74,.04,1.55-.16,2.43-.2,.88-.5,1.78-.88,2.7-.38,.92-.83,1.86-1.35,2.81-.52,.95-1.03,1.85-1.55,2.7-.52,.85-1.01,1.65-1.48,2.39-.47,.74-.85,1.38-1.13,1.91Zm-13.46,.97c-.41-1.08-.61-2.12-.61-3.11s.11-1.99,.32-2.97c.26-.94,.57-1.87,.92-2.79,.35-.92,.68-1.83,.99-2.72-.53,.58-.98,1.42-1.37,2.52-.38,1.1-.66,2.24-.83,3.42-.17,1.18-.22,2.29-.14,3.33,.07,1.04,.31,1.82,.72,2.32Zm4.82-7.67c-.14,.46-.28,.93-.41,1.42-.13,.49-.26,.99-.38,1.49-.19,.77-.26,1.54-.22,2.32,.05,.78,.18,1.55,.4,2.32,.07,.26,.16,.44,.27,.54,.11,.1,.33,.08,.67-.04,.6-.24,1.24-.72,1.93-1.44,.68-.72,1.36-1.57,2.02-2.56,.66-.98,1.3-2.03,1.93-3.15,.62-1.12,1.18-2.2,1.67-3.26,.49-1.06,.89-2.02,1.19-2.88,.3-.86,.47-1.52,.52-1.98,.05-.43,.05-.81,0-1.13-.05-.32-.11-.64-.2-.94-.08-.3-.18-.61-.29-.94-.11-.32-.2-.7-.27-1.13-.02-.22-.09-.38-.2-.49s-.34-.15-.7-.13c-.7,.07-1.21,.34-1.55,.79-.34,.46-.64,.9-.9,1.33-.36,.5-.7,1.13-1.03,1.89-.32,.76-.6,1.55-.83,2.38-.23,.83-.38,1.65-.45,2.47-.07,.82-.04,1.54,.11,2.16,.1,.41,.04,.76-.18,1.06-.22,.3-.55,.43-1.01,.38-.34-.05-.67-.11-1.01-.2-.34-.08-.7-.19-1.08-.31Z"/>
  <path class="cls-1" d="M161.69,17.35c.05-.19,.1-.38,.14-.58,.05-.19,.1-.38,.14-.58,.05-.12,.08-.25,.09-.38,.01-.13,.04-.26,.09-.38,.07-.02,.16-.04,.27-.04s.17-.02,.2-.07c.12-.26,.22-.53,.29-.81,.07-.28,.16-.55,.25-.81l-.04-.07h-.04l-.5,.68,1.44-3.6s0-.09,.02-.13c.01-.04,.03-.08,.05-.13l-.14-.11-2.41,2.63c-.7,.79-1.38,1.59-2.05,2.39-.67,.8-1.32,1.63-1.94,2.47-.84,1.13-1.61,2.29-2.32,3.47-.71,1.19-1.29,2.47-1.75,3.83-.19,.62-.57,1.07-1.13,1.33-.56,.26-1.19,.28-1.89,.04-.55-.14-1.09-.34-1.6-.58-.52-.24-1.04-.49-1.57-.76-.12-.05-.25-.16-.38-.32-.13-.17-.21-.32-.23-.47-.05-.36-.1-.73-.14-1.12-.05-.38-.05-.74,0-1.08,.12-.74,.1-1.46-.05-2.16-.16-.7-.26-1.4-.31-2.12,0-.6-.12-1.18-.36-1.73-.07,.19-.15,.38-.23,.58-.08,.19-.15,.38-.2,.58l-3.13,11.05c-.14,.53-.28,1.04-.4,1.55-.12,.5-.25,1.02-.4,1.55-.07,.29-.22,.53-.43,.74-.22,.2-.46,.35-.74,.45-.28,.1-.57,.14-.88,.13-.31-.01-.59-.1-.83-.27-.5-.29-.92-.56-1.24-.83-.32-.26-.55-.56-.67-.88-.12-.32-.15-.68-.09-1.08,.06-.4,.2-.86,.41-1.39,.14-.29,.23-.59,.25-.92s.1-.62,.22-.88c.17-.24,.27-.47,.31-.68,.04-.22,.08-.47,.13-.76,.05-.53,.17-1.03,.36-1.51,.19-.48,.37-.96,.54-1.44-.02,.12-.04,.22-.05,.31s-.04,.19-.09,.31c.48-.34,.65-.83,.5-1.48,0-.12-.01-.23-.04-.34s-.02-.21,0-.31l1.94-6.59,1.66-5.51c0-.1,0-.2,.02-.31,.01-.11,.02-.22,.02-.34,.02-.29,.04-.52,.05-.68,.01-.17,.05-.29,.13-.36s.19-.12,.34-.14c.16-.02,.37-.04,.63-.04-.02-.12-.06-.23-.11-.32-.05-.1-.08-.2-.11-.32,.14-.05,.28-.09,.4-.13,.12-.04,.24-.05,.36-.05,.55,.05,1.11,.1,1.67,.16,.56,.06,1.12,.13,1.67,.2,.67,.1,1.2,.34,1.58,.74,.38,.4,.67,.87,.86,1.42,.12,.31,.18,.62,.18,.92s-.02,.59-.05,.88c-.04,.29-.08,.58-.13,.88-.05,.3-.05,.59,0,.88,.07,.67,.14,1.34,.22,2.02,.07,.67,.17,1.34,.29,2.02,.1,.41,.2,.82,.31,1.24,.11,.42,.22,.87,.34,1.35,.24-.34,.47-.66,.7-.97,.23-.31,.46-.64,.7-.97,.77-.94,1.52-1.88,2.25-2.83,.73-.95,1.48-1.88,2.25-2.79,.89-1.03,1.79-2.05,2.7-3.04,.91-1,1.81-2.01,2.7-3.04,.36-.43,.77-.81,1.24-1.13,.47-.32,.98-.59,1.53-.81,.12-.05,.25-.06,.4-.04,.14,.02,.28,.07,.4,.14,.58,.22,1.15,.44,1.71,.67,.56,.23,1.13,.46,1.71,.7,.46,.24,.82,.63,1.08,1.17s.31,1.05,.14,1.53c-.34,.98-.7,1.95-1.1,2.9-.4,.95-.79,1.91-1.17,2.9-.62,1.61-1.26,3.2-1.91,4.79s-1.27,3.19-1.87,4.82c-.41,1.15-.8,2.3-1.17,3.46-.37,1.15-.71,2.3-1.03,3.46-.14,.5-.21,1.04-.2,1.6,.01,.56-.02,1.1-.09,1.6-.02,.17-.13,.32-.31,.47s-.37,.24-.56,.29c-.48,.14-.95,.17-1.4,.07-.46-.1-.9-.28-1.33-.54-.58-.31-1.16-.62-1.76-.94-.19-.72-.23-1.42-.13-2.09,.11-.67,.31-1.34,.59-2.02l-.36,3.17c.12-.41,.23-.8,.32-1.17,.1-.37,.2-.75,.32-1.13l3.13-9.18c.05-.14,.06-.3,.04-.47-.02-.17-.05-.35-.07-.54,.12-.02,.23-.08,.32-.18v-.14l.5-.94Z"/>
  <path class="cls-1" d="M175.69,15.59c.46-.07,.87-.14,1.24-.2,.37-.06,.73-.1,1.06-.13,.82-.07,1.63-.13,2.43-.18,.8-.05,1.59-.1,2.36-.14,.46-.05,.8-.04,1.03,.02,.23,.06,.42,.14,.58,.25,.16,.11,.32,.22,.5,.32,.18,.11,.44,.19,.77,.23,.22,.07,.46,.23,.72,.49,.26,.25,.5,.53,.72,.85,.22,.31,.39,.63,.52,.95,.13,.32,.2,.59,.2,.81,0,.41-.11,.67-.34,.77-.23,.11-.49,.16-.77,.16-.62,.02-1.24,.03-1.84,.02-.6-.01-1.21,0-1.84,.02-1.44,.07-2.86,.18-4.27,.32-1.4,.14-2.79,.49-4.16,1.04-.34,.12-.61,.28-.83,.49-.22,.2-.37,.51-.47,.92-.1,.46-.23,.91-.4,1.37-.17,.46-.35,.94-.54,1.44,.29-.02,.56-.05,.81-.07,.25-.02,.51-.06,.77-.11,.74-.1,1.48-.18,2.2-.25,.72-.07,1.45-.17,2.2-.29,.29-.05,.58-.07,.88-.07h.9c.3,0,.59-.02,.88-.07,.29-.05,.58-.14,.86-.29,.12-.05,.24-.04,.36,.04,.53,.29,1.04,.56,1.55,.81,.5,.25,.98,.55,1.44,.88,.26,.19,.47,.46,.61,.81,.14,.35,.28,.69,.4,1.03,.1,.19,.08,.38-.04,.58-.12,.19-.31,.3-.58,.32-.38,.05-.77,.1-1.15,.14-.38,.05-.77,.06-1.15,.04-1.7,0-3.39,.1-5.06,.31-1.67,.2-3.33,.52-4.99,.95-.22,.05-.43,.1-.65,.16-.22,.06-.42,.15-.61,.27-.12,.07-.23,.18-.32,.32-.1,.14-.14,.28-.14,.4,0,.34-.08,.62-.25,.86-.17,.24-.38,.4-.65,.47-.19,.05-.42,.01-.68-.11-.26-.12-.47-.26-.61-.43-.46-.48-.92-.96-1.39-1.44-.47-.48-.76-1.07-.88-1.76-.05-.19-.16-.38-.32-.58-.17-.19-.23-.37-.18-.54,.07-.17,.22-.29,.45-.36,.23-.07,.41-.19,.56-.36,.29-.29,.47-.61,.54-.97,.14-.72,.29-1.45,.45-2.18,.16-.73,.26-1.47,.31-2.21,.05-.48,.02-.97-.09-1.46-.11-.49-.23-.98-.38-1.46-.07-.26-.1-.47-.09-.63,.01-.16,.17-.29,.49-.41,.26-.05,.5-.15,.72-.31,.22-.16,.44-.31,.68-.45,.05-.05,.07-.13,.05-.23-.01-.11,0-.21,.02-.31,0-.05,0-.11-.02-.18-.01-.07,0-.14,.02-.22,.43-1.15,.87-2.3,1.31-3.44,.44-1.14,.86-2.3,1.24-3.47,.12-.31,.16-.65,.11-1.01-.05-.36-.08-.71-.11-1.04-.02-.26-.07-.54-.13-.83-.06-.29-.11-.59-.16-.9,.24,0,.45,0,.63,.02,.18,.01,.34,0,.49-.02,.19-.02,.35-.05,.49-.09,.13-.04,.19-.19,.16-.45,0-.26,.08-.41,.25-.45,.17-.04,.31,.02,.43,.16,.22,.19,.43,.29,.65,.31,.22,.01,.46,0,.72-.02,1.27-.14,2.54-.25,3.8-.31,1.26-.06,2.53-.03,3.8,.09h.67c.2,0,.41,.01,.63,.04,.48,.02,.94,.08,1.37,.18,.43,.1,.82,.34,1.15,.72,.05,.1,.13,.14,.25,.14,.46,.14,.82,.34,1.1,.58,.28,.24,.5,.52,.67,.85,.17,.32,.29,.67,.38,1.03s.16,.73,.23,1.12c.02,.1-.03,.22-.16,.36-.13,.14-.26,.23-.38,.25-.19,.02-.4,.02-.61,0-.22-.02-.42-.05-.61-.07-1.44-.17-2.89-.28-4.34-.34-1.45-.06-2.9,0-4.34,.16h-.14c-.6,.05-1.13,.18-1.58,.4-.46,.22-.76,.68-.9,1.4-.19,.7-.44,1.38-.76,2.05-.31,.67-.61,1.38-.9,2.12Z"/>
  <path class="cls-1" d="M213.78,27.36c-.62,.91-1.32,1.76-2.09,2.56s-1.7,1.39-2.81,1.8c-1.15,.41-2.25,.53-3.29,.38-1.04-.16-2.08-.53-3.11-1.13-.79-.46-1.43-.98-1.91-1.57-.48-.59-.83-1.22-1.04-1.89s-.33-1.39-.34-2.14c-.01-.76,.04-1.53,.16-2.32,.14-.89,.39-1.85,.74-2.9s.75-2.09,1.21-3.13c.46-1.04,.94-2.05,1.46-3.01,.52-.96,1.01-1.81,1.49-2.56,.43-.65,.86-1.29,1.28-1.93,.42-.64,.83-1.27,1.24-1.89,.31-.5,.71-.85,1.19-1.04,.48-.19,.97-.34,1.48-.43,.53-.12,1.06-.19,1.6-.22,.54-.02,1.07-.06,1.6-.11,.05,0,.1,0,.16,.02,.06,.01,.1,0,.13-.02,.43-.41,.87-.58,1.31-.5,.44,.07,.87,.22,1.28,.43,1.34,.7,2.44,1.6,3.28,2.7,.84,1.1,1.36,2.42,1.55,3.96,.1,.74,.04,1.55-.16,2.43-.2,.88-.5,1.78-.88,2.7-.38,.92-.83,1.86-1.35,2.81-.52,.95-1.03,1.85-1.55,2.7-.52,.85-1.01,1.65-1.48,2.39-.47,.74-.85,1.38-1.13,1.91Zm-13.46,.97c-.41-1.08-.61-2.12-.61-3.11s.11-1.99,.32-2.97c.26-.94,.57-1.87,.92-2.79,.35-.92,.68-1.83,.99-2.72-.53,.58-.98,1.42-1.37,2.52-.38,1.1-.66,2.24-.83,3.42-.17,1.18-.22,2.29-.14,3.33,.07,1.04,.31,1.82,.72,2.32Zm4.82-7.67c-.14,.46-.28,.93-.41,1.42-.13,.49-.26,.99-.38,1.49-.19,.77-.26,1.54-.22,2.32,.05,.78,.18,1.55,.4,2.32,.07,.26,.16,.44,.27,.54,.11,.1,.33,.08,.67-.04,.6-.24,1.24-.72,1.93-1.44,.68-.72,1.36-1.57,2.02-2.56,.66-.98,1.3-2.03,1.93-3.15,.62-1.12,1.18-2.2,1.67-3.26,.49-1.06,.89-2.02,1.19-2.88,.3-.86,.47-1.52,.52-1.98,.05-.43,.05-.81,0-1.13-.05-.32-.11-.64-.2-.94-.08-.3-.18-.61-.29-.94-.11-.32-.2-.7-.27-1.13-.02-.22-.09-.38-.2-.49s-.34-.15-.7-.13c-.7,.07-1.21,.34-1.55,.79-.34,.46-.64,.9-.9,1.33-.36,.5-.7,1.13-1.03,1.89-.32,.76-.6,1.55-.83,2.38-.23,.83-.38,1.65-.45,2.47-.07,.82-.04,1.54,.11,2.16,.1,.41,.04,.76-.18,1.06-.22,.3-.55,.43-1.01,.38-.34-.05-.67-.11-1.01-.2-.34-.08-.7-.19-1.08-.31Z"/>
  <path class="cls-1" d="M229.19,14.11c.65,0,1.28,.01,1.91,.04,.62,.02,1.25,.01,1.87-.04,.5-.05,.96,.04,1.37,.25,.41,.22,.83,.38,1.26,.5,.77,.22,1.37,.59,1.8,1.13,.43,.54,.82,1.13,1.15,1.78,.29,.62,.19,1.1-.29,1.44-.12,.1-.28,.13-.49,.11-.2-.02-.39-.04-.56-.04-.72-.05-1.45-.12-2.18-.22-.73-.1-1.47-.12-2.21-.07-.77,.05-1.55,.15-2.36,.31-.8,.16-1.59,.32-2.36,.49-.26,.05-.5,.11-.7,.18-.2,.07-.43,.16-.67,.25-.43,.14-.71,.4-.83,.77s-.25,.71-.4,1.03c-.26,.72-.5,1.44-.72,2.16-.22,.72-.42,1.45-.61,2.2-.17,.53-.31,1.06-.41,1.6-.11,.54-.22,1.07-.34,1.6-.05,.22-.1,.42-.16,.61-.06,.19-.14,.38-.23,.58-.26,.5-.6,.8-1.01,.9-.41,.1-.83-.04-1.26-.4-.7-.58-1.22-1.23-1.57-1.96-.35-.73-.41-1.64-.2-2.72,0,.24,.01,.45,.04,.63,.02,.18,.05,.39,.07,.63,.12-.74,.23-1.43,.32-2.05,.1-.62,.23-1.25,.4-1.87,.22-.86,.46-1.72,.72-2.57,.26-.85,.53-1.7,.79-2.54,.12-.34,.2-.65,.23-.94s-.08-.59-.34-.9c-.05-.07-.07-.17-.07-.31v-.38c.5-.05,.89-.22,1.15-.52,.26-.3,.47-.65,.61-1.06,.38-.96,.76-1.91,1.13-2.84s.74-1.9,1.1-2.88c.12-.24,.2-.5,.23-.77,.04-.28,.07-.56,.09-.85,.02-.05,.01-.1-.04-.14-.05-.05-.08-.1-.11-.14-.12-.36-.26-.71-.41-1.04-.16-.34-.29-.67-.41-1.01-.1-.22-.18-.44-.25-.67-.07-.23-.14-.44-.22-.63,1.06-.12,2.09-.24,3.11-.36,1.02-.12,2.05-.25,3.08-.4,.98-.12,1.95-.23,2.9-.34,.95-.11,1.91-.21,2.9-.31,.5-.05,1.02-.11,1.55-.18,.53-.07,1-.01,1.4,.18,.29,.12,.58,.25,.86,.38,.29,.13,.58,.28,.86,.43,.29,.16,.56,.33,.83,.52,.26,.19,.49,.43,.68,.72,.26,.41,.53,.82,.81,1.22,.28,.41,.41,.89,.41,1.44,0,.41-.13,.71-.38,.92-.25,.2-.57,.17-.95-.09-.62-.38-1.25-.59-1.89-.61-.64-.02-1.28-.01-1.93,.04-.82,.05-1.63,.13-2.45,.23-.82,.11-1.64,.22-2.48,.34-.31,.05-.61,.12-.9,.22-.29,.1-.6,.2-.94,.32-.1,.05-.19,.1-.27,.16-.08,.06-.14,.14-.16,.23l-1.84,4.86-.07,.43Z"/>
  <path class="cls-1" d="M264.43,27.36c-.62,.91-1.32,1.76-2.09,2.56s-1.7,1.39-2.81,1.8c-1.15,.41-2.25,.53-3.29,.38-1.04-.16-2.08-.53-3.11-1.13-.79-.46-1.43-.98-1.91-1.57-.48-.59-.83-1.22-1.04-1.89s-.33-1.39-.34-2.14c-.01-.76,.04-1.53,.16-2.32,.14-.89,.39-1.85,.74-2.9s.75-2.09,1.21-3.13c.46-1.04,.94-2.05,1.46-3.01,.52-.96,1.01-1.81,1.49-2.56,.43-.65,.86-1.29,1.28-1.93,.42-.64,.83-1.27,1.24-1.89,.31-.5,.71-.85,1.19-1.04,.48-.19,.97-.34,1.48-.43,.53-.12,1.06-.19,1.6-.22,.54-.02,1.07-.06,1.6-.11,.05,0,.1,0,.16,.02,.06,.01,.1,0,.13-.02,.43-.41,.87-.58,1.31-.5,.44,.07,.87,.22,1.28,.43,1.34,.7,2.44,1.6,3.28,2.7,.84,1.1,1.36,2.42,1.55,3.96,.1,.74,.04,1.55-.16,2.43-.2,.88-.5,1.78-.88,2.7-.38,.92-.83,1.86-1.35,2.81-.52,.95-1.03,1.85-1.55,2.7-.52,.85-1.01,1.65-1.48,2.39-.47,.74-.85,1.38-1.13,1.91Zm-13.46,.97c-.41-1.08-.61-2.12-.61-3.11s.11-1.99,.32-2.97c.26-.94,.57-1.87,.92-2.79,.35-.92,.68-1.83,.99-2.72-.53,.58-.98,1.42-1.37,2.52-.38,1.1-.66,2.24-.83,3.42-.17,1.18-.22,2.29-.14,3.33,.07,1.04,.31,1.82,.72,2.32Zm4.82-7.67c-.14,.46-.28,.93-.41,1.42-.13,.49-.26,.99-.38,1.49-.19,.77-.26,1.54-.22,2.32,.05,.78,.18,1.55,.4,2.32,.07,.26,.16,.44,.27,.54,.11,.1,.33,.08,.67-.04,.6-.24,1.24-.72,1.93-1.44,.68-.72,1.36-1.57,2.02-2.56,.66-.98,1.3-2.03,1.93-3.15,.62-1.12,1.18-2.2,1.67-3.26,.49-1.06,.89-2.02,1.19-2.88,.3-.86,.47-1.52,.52-1.98,.05-.43,.05-.81,0-1.13-.05-.32-.11-.64-.2-.94-.08-.3-.18-.61-.29-.94-.11-.32-.2-.7-.27-1.13-.02-.22-.09-.38-.2-.49s-.34-.15-.7-.13c-.7,.07-1.21,.34-1.55,.79-.34,.46-.64,.9-.9,1.33-.36,.5-.7,1.13-1.03,1.89-.32,.76-.6,1.55-.83,2.38-.23,.83-.38,1.65-.45,2.47-.07,.82-.04,1.54,.11,2.16,.1,.41,.04,.76-.18,1.06-.22,.3-.55,.43-1.01,.38-.34-.05-.67-.11-1.01-.2-.34-.08-.7-.19-1.08-.31Z"/>
  <path class="cls-1" d="M280.59,30.56c-1.15,.77-2.39,1.07-3.73,.92-1.33-.16-2.53-.68-3.58-1.57-.7-.6-1.27-1.24-1.71-1.93-.44-.68-.76-1.46-.95-2.32-.14-.72-.24-1.45-.29-2.18-.05-.73-.04-1.48,.04-2.25,.26-1.9,.7-3.73,1.31-5.49,.61-1.76,1.18-3.55,1.71-5.35,.17-.53,.3-1.06,.4-1.58,.1-.53,.19-1.06,.29-1.58,.05-.24,.16-.46,.32-.67,.17-.2,.37-.37,.59-.49,.23-.12,.48-.2,.76-.23,.28-.04,.53,0,.77,.09,.34,.14,.69,.28,1.06,.41,.37,.13,.73,.27,1.06,.41,.48,.22,.76,.44,.83,.68,.07,.24,.01,.61-.18,1.12-.34,.84-.66,1.7-.97,2.57-.31,.88-.61,1.77-.9,2.68-.31,.94-.62,1.85-.92,2.75-.3,.9-.57,1.8-.81,2.7-.24,.9-.41,1.8-.52,2.7-.11,.9-.13,1.82-.05,2.75,.07,.77,.2,1.46,.38,2.07,.18,.61,.43,1.01,.76,1.21,.32,.19,.71,.11,1.17-.23,.46-.35,1-1.1,1.62-2.25,.41-.72,.79-1.44,1.15-2.16,.36-.72,.72-1.44,1.08-2.16,.17-.26,.32-.53,.45-.81,.13-.28,.21-.59,.23-.95,.02-.29,.15-.58,.38-.88,.23-.3,.4-.61,.52-.92,.41-1.08,.8-2.15,1.17-3.22,.37-1.07,.75-2.13,1.13-3.19,.05-.12,.05-.23,.02-.34-.04-.11-.05-.17-.05-.2,.19-.26,.37-.51,.52-.74,.16-.23,.29-.45,.41-.67,.26-.53,.5-1.05,.7-1.57,.2-.52,.43-1.04,.67-1.57,.29-.6,.6-.95,.94-1.06,.34-.11,.83-.13,1.48-.05,.38,.02,.76,.08,1.12,.16,.36,.08,.73,.15,1.12,.2,.26,.02,.53,.1,.79,.22,.26,.12,.49,.24,.68,.36,.1,.1,.11,.27,.05,.52-.06,.25-.11,.47-.16,.67-.19,.46-.4,.92-.63,1.39-.23,.47-.45,.94-.67,1.42-.24,.5-.46,1.01-.65,1.53-.19,.52-.38,1.05-.58,1.6-.41,.96-.82,1.91-1.22,2.86-.41,.95-.79,1.91-1.15,2.9-.36,.91-.71,1.85-1.06,2.81-.35,.96-.65,1.92-.92,2.88-.26,.91-.49,1.82-.68,2.72-.19,.9-.38,1.81-.58,2.72-.07,.26-.1,.52-.09,.77,.01,.25-.02,.51-.09,.77-.05,.17-.14,.33-.29,.49s-.29,.23-.43,.23c-.48,.07-.94,.08-1.37,.04-.43-.05-.83-.3-1.19-.76-.14-.19-.33-.35-.56-.49-.23-.13-.46-.29-.7-.49Z"/>
  <path class="cls-1" d="M311.7,30.17c-.67,.86-1.43,1.4-2.27,1.62-.84,.22-1.72,.25-2.63,.11-.48-.1-.95-.27-1.4-.52-.46-.25-.89-.53-1.3-.85-.55-.43-1.07-.91-1.55-1.42-.48-.52-.94-1.04-1.37-1.57-.74-.96-1.46-1.92-2.14-2.88-.68-.96-1.39-1.92-2.11-2.88-.12-.14-.25-.28-.4-.4-.14-.12-.3-.28-.47-.47-.26,.65-.52,1.26-.76,1.84-.24,.58-.46,1.15-.65,1.73-.46,1.2-.89,2.38-1.31,3.55-.42,1.16-.73,2.36-.92,3.58,0,.14-.09,.28-.27,.4-.18,.12-.34,.2-.49,.25-.19,.05-.41,.03-.67-.05-.25-.08-.5-.19-.76-.32-.25-.13-.49-.28-.7-.45-.22-.17-.37-.32-.47-.47-.1-.17-.18-.32-.25-.47-.07-.14-.18-.25-.32-.32-.31-.14-.47-.32-.49-.52-.01-.2,.02-.4,.09-.59,.19-.67,.4-1.33,.63-1.98,.23-.65,.45-1.28,.67-1.91,.29-.84,.58-1.68,.88-2.52,.3-.84,.59-1.68,.88-2.52,.19-.58,.4-1.14,.63-1.69,.23-.55,.44-1.12,.63-1.69,.31-.98,.62-1.98,.94-2.99,.31-1.01,.6-2,.86-2.99,.05-.19,.07-.39,.07-.59s-.02-.4-.07-.59c0-.1-.07-.18-.22-.25-.14-.07-.28-.12-.4-.14-.41-.07-.72-.2-.94-.4-.22-.19-.4-.43-.54-.72-.12-.19-.26-.38-.41-.58-.16-.19-.32-.38-.49-.58,.1-.12,.18-.22,.25-.31,.07-.08,.16-.17,.25-.27-.12-.07-.25-.14-.38-.2-.13-.06-.29-.14-.49-.23,.17-.12,.28-.34,.32-.65,.05-.31,.1-.55,.14-.72,.05-.22,.37-.43,.95-.63,.59-.2,1.36-.39,2.3-.56,.95-.17,2.03-.31,3.24-.41,1.21-.11,2.48-.17,3.8-.18,1.32-.01,2.65,.03,3.98,.13,1.33,.1,2.59,.28,3.76,.54,.38,.1,.83,.28,1.33,.54,.5,.26,1,.57,1.48,.92,.48,.35,.92,.72,1.33,1.12,.41,.4,.71,.76,.9,1.1,.46,.7,.79,1.47,1.01,2.32,.22,.85,.26,1.71,.14,2.57-.12,.86-.41,1.72-.88,2.56-.47,.84-1.16,1.6-2.07,2.27-.96,.48-1.81,.88-2.54,1.21-.73,.32-1.4,.61-2,.85-.6,.24-1.15,.44-1.64,.61-.49,.17-.98,.32-1.46,.47-.22,.1-.44,.15-.67,.16-.23,.01-.45,.02-.67,.02-.89,.05-1.14,.42-.76,1.12,.34,.5,.67,1.01,1.01,1.53,.34,.52,.7,1.04,1.08,1.57,.31,.43,.63,.88,.95,1.33,.32,.46,.69,.89,1.1,1.3,.43,.48,.91,.92,1.42,1.31s1.03,.8,1.53,1.21c.05,.05,.1,.07,.14,.07s.1,.02,.14,.07c.22,.12,.44,.21,.67,.27,.23,.06,.47,.15,.74,.27Zm-6.52-14.9c.55-.24,1.1-.47,1.64-.7,.54-.23,1.1-.44,1.67-.63,.74-.29,1.42-.62,2.03-1.01,.61-.38,1.04-.96,1.28-1.73,.19-.65,.18-1.24-.04-1.78-.22-.54-.73-.94-1.55-1.21-1.01-.26-1.97-.46-2.88-.58-.91-.12-1.9-.19-2.95-.22-.82-.02-1.63-.03-2.45-.02-.82,.01-1.61,.11-2.38,.31-.12,.05-.23,.13-.32,.23-.1,.11-.13,.2-.11,.27,.1,.7,.07,1.36-.09,1.98-.16,.62-.31,1.26-.45,1.91-.19,.77-.41,1.52-.65,2.27-.24,.74-.46,1.52-.65,2.34,.14,.02,.27,.04,.38,.05,.11,.01,.22,.02,.34,.02,.55-.1,1.1-.17,1.64-.22,.54-.05,1.05-.13,1.53-.25,.55-.12,1.09-.25,1.62-.4,.53-.14,1.07-.3,1.62-.47-.19,.14-.4,.27-.63,.38-.23,.11-.45,.21-.67,.31v.07s.01,.04,.04,.04c.7-.19,1.37-.39,2.02-.59,.65-.2,1.31-.43,1.98-.67-.05-.1-.07-.17-.07-.22-.17,.05-.32,.1-.45,.14-.13,.05-.28,.08-.45,.11-.19,.05-.37,.09-.54,.13-.17,.04-.32,.08-.47,.13Z"/>
  <path class="cls-1" d="M321.85,28.87c.26-.41,.54-.8,.83-1.19,.29-.38,.56-.78,.83-1.19,.6-.91,1.21-1.8,1.82-2.66,.61-.86,1.21-1.75,1.78-2.66,.67-1.08,1.31-2.15,1.93-3.22,.61-1.07,1.24-2.14,1.89-3.22l4.36-7.6c.22-.38,.4-.77,.54-1.17s.31-.77,.5-1.13c.07-.1,.17-.17,.31-.23,.13-.06,.26-.13,.38-.2,.07-.02,.14-.03,.2-.02,.06,.01,.13,0,.2-.02,.65-.07,1.13-.31,1.46-.72,.32-.41,.46-.95,.41-1.62-.05-.34,0-.56,.14-.67s.37-.19,.68-.23c.29,0,.58-.02,.86-.07,.29-.05,.6-.1,.94-.14,.31-.07,.63-.03,.95,.13,.32,.16,.61,.38,.86,.67,.25,.29,.44,.61,.56,.95,.12,.35,.13,.68,.04,.99-.38,1.22-.8,2.43-1.24,3.62-.44,1.19-.85,2.38-1.21,3.58-.65,2.16-1.31,4.29-2,6.39-.68,2.1-1.22,4.24-1.6,6.43-.05,.41,.02,.77,.22,1.08,.19,.41,.25,.74,.16,.99-.08,.25-.29,.5-.63,.74-.24,.17-.36,.38-.36,.65-.1,.98-.17,1.96-.22,2.92-.05,.96-.11,1.92-.18,2.88-.02,.29-.06,.59-.11,.9-.05,.31-.24,.54-.58,.68-.34,.14-.68,.25-1.04,.31-.36,.06-.71-.08-1.04-.41-.14-.14-.33-.25-.56-.31-.23-.06-.4-.16-.52-.31-.19-.12-.33-.29-.41-.5-.08-.22-.17-.42-.27-.61l.07-.07c.07-.07,.13-.12,.18-.14l.07-5.11c-.67,.19-1.34,.4-2.02,.61-.67,.22-1.36,.42-2.05,.61-.05,0-.11,.02-.18,.07-.07,.05-.13,.05-.18,0-.5-.14-.87-.08-1.1,.2-.23,.28-.44,.58-.63,.92-.34,.6-.81,.97-1.42,1.1-.61,.13-1.28-.08-2-.63-.29-.22-.56-.43-.81-.65s-.52-.44-.81-.68Zm13.25-11.95s-.05-.04-.09-.04-.07-.01-.09-.04l-3.89,6.55,2.48-.54,.04,.04s.1,.07,.14,.07l.68-3.1c.12-.5,.24-1,.36-1.49,.12-.49,.24-.98,.36-1.46Z"/>
  <path class="cls-1" d="M341.61,19.37c.29,.12,.54,.11,.76-.02,.22-.13,.37-.35,.47-.67,.34-1.06,.67-2.09,1.01-3.11,.34-1.02,.67-2.05,1.01-3.08,.17-.67,.38-1.32,.65-1.94,.19-.41,.2-.77,.04-1.08-.17-.31-.38-.62-.65-.94l-1.76-1.98c.22-.07,.36-.17,.43-.29,.07-.12,.13-.24,.18-.36,.05-.12,.1-.23,.16-.34,.06-.11,.19-.19,.38-.23,.41-.07,.73-.12,.97-.14,.24-.02,.46-.04,.67-.04s.43-.01,.67-.04c.24-.02,.56-.07,.97-.14,.79-.14,1.79-.25,3.01-.32,1.21-.07,2.45-.07,3.71,.02,1.26,.08,2.44,.26,3.55,.52,1.1,.26,1.94,.66,2.52,1.19,2.04,1.87,3.08,3.67,3.13,5.4,.05,1.73-.79,3.53-2.52,5.4-.58,.62-1.19,1.22-1.84,1.8s-1.32,1.07-2.02,1.48c-.82,.48-1.65,.88-2.5,1.19-.85,.31-1.7,.58-2.56,.79-.85,.22-1.69,.4-2.5,.54s-1.61,.3-2.38,.47c-.19,.65-.37,1.3-.54,1.96-.17,.66-.31,1.34-.43,2.03-.12,.67-.22,1.35-.31,2.03-.08,.68-.19,1.37-.31,2.07-.07,.53-.35,.84-.83,.94-.53,.05-1.03,.02-1.51-.07-.48-.1-.95-.35-1.4-.76-.12-.12-.26-.22-.41-.31-.16-.08-.31-.19-.45-.31-.26-.19-.47-.35-.61-.47-.14-.12-.25-.24-.31-.36-.06-.12-.08-.26-.05-.43,.02-.17,.06-.4,.11-.68,.1-.41,.2-.79,.31-1.15,.11-.36,.21-.74,.31-1.15l-.04,.61c.07,0,.14,.01,.22,.04l.47-2.38h-.04c.12-.41,.24-.8,.36-1.17,.12-.37,.24-.76,.36-1.17-.02-.05-.07-.09-.13-.13-.06-.04-.11-.08-.16-.13-.36-.29-.63-.53-.81-.72-.18-.19-.28-.38-.31-.58-.02-.19,.05-.42,.22-.68s.42-.64,.76-1.12Zm6.08,2.88c-.12,.05-.22,.16-.29,.32,.17-.12,.28-.21,.34-.27,.06-.06,.04-.08-.05-.05Zm.79-3.82c1.32-.24,2.51-.59,3.58-1.06,1.07-.47,2.01-1,2.83-1.6,.91-.67,1.69-1.38,2.32-2.12,.64-.74,1.04-1.43,1.21-2.05,.17-.62,.05-1.15-.34-1.57s-1.17-.63-2.32-.63c-.67,0-1.33,.04-1.98,.11-.65,.07-1.28,.2-1.91,.4-.12,.05-.25,.13-.4,.23-.14,.11-.24,.22-.29,.34-.19,.5-.36,1.01-.5,1.51-.14,.5-.31,1.01-.5,1.51-.07,.29-.19,.65-.36,1.08-.17,.43-.34,.88-.5,1.35-.17,.47-.33,.92-.49,1.37-.16,.44-.27,.82-.34,1.13Z"/>
  <path class="cls-1" d="M369.22,15.59c.46-.07,.87-.14,1.24-.2,.37-.06,.73-.1,1.06-.13,.82-.07,1.63-.13,2.43-.18,.8-.05,1.59-.1,2.36-.14,.46-.05,.8-.04,1.03,.02,.23,.06,.42,.14,.58,.25,.16,.11,.32,.22,.5,.32,.18,.11,.44,.19,.77,.23,.22,.07,.46,.23,.72,.49,.26,.25,.5,.53,.72,.85,.22,.31,.39,.63,.52,.95,.13,.32,.2,.59,.2,.81,0,.41-.11,.67-.34,.77-.23,.11-.49,.16-.77,.16-.62,.02-1.24,.03-1.84,.02-.6-.01-1.21,0-1.84,.02-1.44,.07-2.86,.18-4.27,.32-1.4,.14-2.79,.49-4.16,1.04-.34,.12-.61,.28-.83,.49-.22,.2-.37,.51-.47,.92-.1,.46-.23,.91-.4,1.37-.17,.46-.35,.94-.54,1.44,.29-.02,.56-.05,.81-.07,.25-.02,.51-.06,.77-.11,.74-.1,1.48-.18,2.2-.25,.72-.07,1.45-.17,2.2-.29,.29-.05,.58-.07,.88-.07h.9c.3,0,.59-.02,.88-.07,.29-.05,.58-.14,.86-.29,.12-.05,.24-.04,.36,.04,.53,.29,1.04,.56,1.55,.81,.5,.25,.98,.55,1.44,.88,.26,.19,.47,.46,.61,.81,.14,.35,.28,.69,.4,1.03,.1,.19,.08,.38-.04,.58-.12,.19-.31,.3-.58,.32-.38,.05-.77,.1-1.15,.14-.38,.05-.77,.06-1.15,.04-1.7,0-3.39,.1-5.06,.31-1.67,.2-3.33,.52-4.99,.95-.22,.05-.43,.1-.65,.16-.22,.06-.42,.15-.61,.27-.12,.07-.23,.18-.32,.32-.1,.14-.14,.28-.14,.4,0,.34-.08,.62-.25,.86-.17,.24-.38,.4-.65,.47-.19,.05-.42,.01-.68-.11-.26-.12-.47-.26-.61-.43-.46-.48-.92-.96-1.39-1.44-.47-.48-.76-1.07-.88-1.76-.05-.19-.16-.38-.32-.58-.17-.19-.23-.37-.18-.54,.07-.17,.22-.29,.45-.36,.23-.07,.41-.19,.56-.36,.29-.29,.47-.61,.54-.97,.14-.72,.29-1.45,.45-2.18,.16-.73,.26-1.47,.31-2.21,.05-.48,.02-.97-.09-1.46-.11-.49-.23-.98-.38-1.46-.07-.26-.1-.47-.09-.63,.01-.16,.17-.29,.49-.41,.26-.05,.5-.15,.72-.31,.22-.16,.44-.31,.68-.45,.05-.05,.07-.13,.05-.23-.01-.11,0-.21,.02-.31,0-.05,0-.11-.02-.18-.01-.07,0-.14,.02-.22,.43-1.15,.87-2.3,1.31-3.44,.44-1.14,.86-2.3,1.24-3.47,.12-.31,.16-.65,.11-1.01-.05-.36-.08-.71-.11-1.04-.02-.26-.07-.54-.13-.83-.06-.29-.11-.59-.16-.9,.24,0,.45,0,.63,.02,.18,.01,.34,0,.49-.02,.19-.02,.35-.05,.49-.09,.13-.04,.19-.19,.16-.45,0-.26,.08-.41,.25-.45,.17-.04,.31,.02,.43,.16,.22,.19,.43,.29,.65,.31,.22,.01,.46,0,.72-.02,1.27-.14,2.54-.25,3.8-.31,1.26-.06,2.53-.03,3.8,.09h.67c.2,0,.41,.01,.63,.04,.48,.02,.94,.08,1.37,.18,.43,.1,.82,.34,1.15,.72,.05,.1,.13,.14,.25,.14,.46,.14,.82,.34,1.1,.58,.28,.24,.5,.52,.67,.85,.17,.32,.29,.67,.38,1.03s.16,.73,.23,1.12c.02,.1-.03,.22-.16,.36-.13,.14-.26,.23-.38,.25-.19,.02-.4,.02-.61,0-.22-.02-.42-.05-.61-.07-1.44-.17-2.89-.28-4.34-.34-1.45-.06-2.9,0-4.34,.16h-.14c-.6,.05-1.13,.18-1.58,.4-.46,.22-.76,.68-.9,1.4-.19,.7-.44,1.38-.76,2.05-.31,.67-.61,1.38-.9,2.12Z"/>
  <path class="cls-1" d="M395.39,9.5c-.55,.29-1.07,.6-1.55,.94-.48,.34-.94,.71-1.37,1.12-.22,.19-.53,.5-.95,.92-.42,.42-.79,.88-1.1,1.37-.31,.49-.5,.97-.56,1.42-.06,.46,.16,.82,.67,1.08,.91,.55,1.75,1.16,2.5,1.84,.76,.67,1.36,1.5,1.82,2.48,.46,.94,.63,1.92,.52,2.95-.11,1.03-.58,2-1.42,2.92-.53,.58-1.17,1.18-1.93,1.8-.76,.62-1.58,1.21-2.47,1.76-.89,.55-1.81,1.01-2.75,1.39-.95,.37-1.87,.59-2.77,.65-.9,.06-1.74-.08-2.52-.41-.78-.34-1.46-.94-2.03-1.8-.19-.31-.35-.58-.47-.79-.12-.22-.14-.41-.07-.58,.07-.17,.26-.31,.56-.41,.3-.11,.76-.21,1.39-.31,.48-.05,1.08-.22,1.8-.52,.72-.3,1.46-.67,2.23-1.12,.77-.44,1.52-.95,2.25-1.51,.73-.56,1.36-1.13,1.87-1.69,.52-.56,.87-1.11,1.06-1.64,.19-.53,.14-.98-.14-1.37-.62-.5-1.25-1-1.89-1.48-.64-.48-1.25-.96-1.85-1.44-.5-.38-.88-.8-1.12-1.26-.24-.46-.37-.92-.4-1.4-.02-.48,.05-.95,.22-1.42,.17-.47,.41-.91,.72-1.31,.74-1.06,1.55-2,2.43-2.84,.88-.84,1.8-1.6,2.77-2.29,.97-.68,1.99-1.31,3.04-1.89,1.06-.58,2.14-1.13,3.24-1.66,.19,0,.38-.01,.56-.04,.18-.02,.35-.01,.52,.04,.29-.17,.7-.14,1.24,.07,.54,.22,1.1,.54,1.67,.97,.58,.43,1.12,.93,1.64,1.49s.89,1.1,1.13,1.6c.31,.6,.16,1.03-.47,1.3-.29,.12-.59,.22-.9,.31-.31,.08-.62,.19-.94,.31-.62,.19-1.1,.52-1.44,.99-.34,.47-.61,.98-.83,1.53-.14,.38-.42,.66-.83,.83-.41,.17-.82,.18-1.22,.04-.74-.22-1.24-.58-1.48-1.1-.24-.52-.37-1.12-.4-1.82Z"/>
</svg>