<?xml version="1.0" encoding="UTF-8"?>
<svg id="Layer_1" data-name="Layer 1" xmlns="http://www.w3.org/2000/svg" viewBox="0 0 132.23 32.28">
  <defs>
    <style>
      .cls-1 {
        fill: #fff;
      }
    </style>
  </defs>
  <path class="cls-1" d="M25.14,16.06c.05-.19,.1-.38,.14-.58,.05-.19,.1-.38,.14-.58,.05-.12,.08-.25,.09-.38,.01-.13,.04-.26,.09-.38,.07-.02,.16-.04,.27-.04s.17-.02,.2-.07c.12-.26,.22-.53,.29-.81,.07-.28,.16-.55,.25-.81l-.04-.07h-.04l-.5,.68,1.44-3.6s0-.09,.02-.13c.01-.04,.03-.08,.05-.13l-.14-.11-2.41,2.63c-.7,.79-1.38,1.59-2.05,2.39-.67,.8-1.32,1.63-1.94,2.47-.84,1.13-1.61,2.29-2.32,3.47-.71,1.19-1.29,2.47-1.75,3.83-.19,.62-.57,1.07-1.13,1.33-.56,.26-1.19,.28-1.89,.04-.55-.14-1.09-.34-1.6-.58-.52-.24-1.04-.49-1.57-.76-.12-.05-.25-.16-.38-.32-.13-.17-.21-.32-.23-.47-.05-.36-.1-.73-.14-1.12-.05-.38-.05-.74,0-1.08,.12-.74,.1-1.46-.05-2.16-.16-.7-.26-1.4-.31-2.12,0-.6-.12-1.18-.36-1.73-.07,.19-.15,.38-.23,.58-.08,.19-.15,.38-.2,.58l-3.13,11.05c-.14,.53-.28,1.04-.4,1.55-.12,.5-.25,1.02-.4,1.55-.07,.29-.22,.53-.43,.74-.22,.2-.46,.35-.74,.45-.28,.1-.57,.14-.88,.13-.31-.01-.59-.1-.83-.27-.5-.29-.92-.56-1.24-.83-.32-.26-.55-.56-.67-.88C0,29.21-.03,28.85,.03,28.46c.06-.4,.2-.86,.41-1.39,.14-.29,.23-.59,.25-.92s.1-.62,.22-.88c.17-.24,.27-.47,.31-.68,.04-.22,.08-.47,.13-.76,.05-.53,.17-1.03,.36-1.51,.19-.48,.37-.96,.54-1.44-.02,.12-.04,.22-.05,.31s-.04,.19-.09,.31c.48-.34,.65-.83,.5-1.48,0-.12-.01-.23-.04-.34s-.02-.21,0-.31l1.94-6.59,1.66-5.51c0-.1,0-.2,.02-.31,.01-.11,.02-.22,.02-.34,.02-.29,.04-.52,.05-.68,.01-.17,.05-.29,.13-.36s.19-.12,.34-.14c.16-.02,.37-.04,.63-.04-.02-.12-.06-.23-.11-.32-.05-.1-.08-.2-.11-.32,.14-.05,.28-.09,.4-.13,.12-.04,.24-.05,.36-.05,.55,.05,1.11,.1,1.67,.16,.56,.06,1.12,.13,1.67,.2,.67,.1,1.2,.34,1.58,.74,.38,.4,.67,.87,.86,1.42,.12,.31,.18,.62,.18,.92s-.02,.59-.05,.88c-.04,.29-.08,.58-.13,.88-.05,.3-.05,.59,0,.88,.07,.67,.14,1.34,.22,2.02,.07,.67,.17,1.34,.29,2.02,.1,.41,.2,.82,.31,1.24,.11,.42,.22,.87,.34,1.35,.24-.34,.47-.66,.7-.97,.23-.31,.46-.64,.7-.97,.77-.94,1.52-1.88,2.25-2.83,.73-.95,1.48-1.88,2.25-2.79,.89-1.03,1.79-2.05,2.7-3.04,.91-1,1.81-2.01,2.7-3.04,.36-.43,.77-.81,1.24-1.13,.47-.32,.98-.59,1.53-.81,.12-.05,.25-.06,.4-.04,.14,.02,.28,.07,.4,.14,.58,.22,1.15,.44,1.71,.67,.56,.23,1.13,.46,1.71,.7,.46,.24,.82,.63,1.08,1.17s.31,1.05,.14,1.53c-.34,.98-.7,1.95-1.1,2.9-.4,.95-.79,1.91-1.17,2.9-.62,1.61-1.26,3.2-1.91,4.79s-1.27,3.19-1.87,4.82c-.41,1.15-.8,2.3-1.17,3.46-.37,1.15-.71,2.3-1.03,3.46-.14,.5-.21,1.04-.2,1.6,.01,.56-.02,1.1-.09,1.6-.02,.17-.13,.32-.31,.47s-.37,.24-.56,.29c-.48,.14-.95,.17-1.4,.07-.46-.1-.9-.28-1.33-.54-.58-.31-1.16-.62-1.76-.94-.19-.72-.23-1.42-.13-2.09,.11-.67,.31-1.34,.59-2.02l-.36,3.17c.12-.41,.23-.8,.32-1.17,.1-.37,.2-.75,.32-1.13l3.13-9.18c.05-.14,.06-.3,.04-.47-.02-.17-.05-.35-.07-.54,.12-.02,.23-.08,.32-.18v-.14l.5-.94Z"/>
  <path class="cls-1" d="M34.1,16.52l.9-2.88c.1-.38,.2-.77,.31-1.15,.11-.38,.2-.78,.27-1.19,.02-.02,.03-.05,.02-.07-.01-.02,0-.05,.05-.07,.12-.31,.27-.62,.45-.92,.18-.3,.31-.62,.38-.95,.07-.19,.07-.35,0-.47-.07-.12-.16-.23-.27-.32-.11-.1-.23-.19-.38-.27-.14-.08-.25-.19-.32-.31-.12-.1-.25-.18-.38-.25-.13-.07-.26-.15-.4-.23-.13-.08-.25-.19-.34-.31-.1-.12-.16-.29-.18-.5l4-.54c.58-.07,1.15-.16,1.71-.27,.56-.11,1.13-.17,1.71-.2,.36-.02,.71-.05,1.06-.09,.35-.04,.7-.04,1.06-.02,.36,.02,.72,.1,1.08,.22,.36,.12,.71,.31,1.04,.58,.5,.36,.71,.71,.61,1.04-.05,.12-.13,.25-.23,.38-.11,.13-.25,.22-.41,.27-.41,.12-.82,.23-1.24,.34-.42,.11-.83,.19-1.24,.23-.29,.05-.49,.13-.61,.25-.12,.12-.24,.31-.36,.58-.19,.58-.42,1.15-.68,1.71-.26,.56-.52,1.12-.76,1.67-.22,.62-.43,1.23-.65,1.82-.22,.59-.42,1.19-.61,1.82-.17,.48-.29,.81-.36,.99-.07,.18-.13,.33-.18,.45-.05,.12-.1,.27-.16,.45-.06,.18-.16,.52-.31,1.03-.24,1.03-.46,2.05-.65,3.06-.19,1.01-.38,2.04-.58,3.1-.07,.41-.04,.65,.09,.74,.13,.08,.4,.09,.81,.02,.79-.14,1.42-.19,1.87-.14,.46,.05,.82,.16,1.08,.34,.26,.18,.48,.41,.65,.7,.17,.29,.36,.59,.58,.9,.12,.24,.16,.42,.11,.54-.05,.12-.14,.24-.29,.36-.07,.05-.13,.14-.18,.27-.05,.13-.09,.28-.13,.43-.04,.16-.08,.29-.13,.41-.05,.12-.11,.17-.18,.14-1.03-.31-2.09-.41-3.19-.29-1.09,.12-2.15,.27-3.17,.45-1.02,.18-1.96,.31-2.81,.4-.85,.08-1.57-.05-2.14-.41-.26-.17-.45-.35-.56-.54-.11-.19-.17-.4-.2-.63-.02-.23-.02-.47,0-.72,.02-.25,.05-.51,.07-.77,.55-.17,1.15-.29,1.8-.38,.65-.08,1.26-.21,1.84-.38-.31-.34-.53-.66-.67-.97-.13-.31-.21-.62-.23-.94-.02-.31-.01-.62,.04-.94,.05-.31,.1-.64,.14-.97,.05-.48,.13-.96,.25-1.44,.12-.48,.23-.97,.32-1.48,.02,.22,.02,.43,0,.63-.02,.2-.04,.4-.04,.59h.07l1.87-7.06c-.19,.24-.34,.47-.43,.68l-.61,1.48Z"/>
  <path class="cls-1" d="M55.96,8.21c-.55,.29-1.07,.6-1.55,.94-.48,.34-.94,.71-1.37,1.12-.22,.19-.53,.5-.95,.92-.42,.42-.79,.88-1.1,1.37-.31,.49-.5,.97-.56,1.42-.06,.46,.16,.82,.67,1.08,.91,.55,1.75,1.16,2.5,1.84,.76,.67,1.36,1.5,1.82,2.48,.46,.94,.63,1.92,.52,2.95-.11,1.03-.58,2-1.42,2.92-.53,.58-1.17,1.18-1.93,1.8-.76,.62-1.58,1.21-2.47,1.76-.89,.55-1.81,1.01-2.75,1.39-.95,.37-1.87,.59-2.77,.65-.9,.06-1.74-.08-2.52-.41-.78-.34-1.46-.94-2.03-1.8-.19-.31-.35-.58-.47-.79-.12-.22-.14-.41-.07-.58,.07-.17,.26-.31,.56-.41,.3-.11,.76-.21,1.39-.31,.48-.05,1.08-.22,1.8-.52,.72-.3,1.46-.67,2.23-1.12,.77-.44,1.52-.95,2.25-1.51,.73-.56,1.36-1.13,1.87-1.69,.52-.56,.87-1.11,1.06-1.64,.19-.53,.14-.98-.14-1.37-.62-.5-1.25-1-1.89-1.48-.64-.48-1.25-.96-1.85-1.44-.5-.38-.88-.8-1.12-1.26-.24-.46-.37-.92-.4-1.4-.02-.48,.05-.95,.22-1.42,.17-.47,.41-.91,.72-1.31,.74-1.06,1.55-2,2.43-2.84,.88-.84,1.8-1.6,2.77-2.29,.97-.68,1.99-1.31,3.04-1.89,1.06-.58,2.14-1.13,3.24-1.66,.19,0,.38-.01,.56-.04,.18-.02,.35-.01,.52,.04,.29-.17,.7-.14,1.24,.07,.54,.22,1.1,.54,1.67,.97,.58,.43,1.12,.93,1.64,1.49s.89,1.1,1.13,1.6c.31,.6,.16,1.03-.47,1.3-.29,.12-.59,.22-.9,.31-.31,.08-.62,.19-.94,.31-.62,.19-1.1,.52-1.44,.99-.34,.47-.61,.98-.83,1.53-.14,.38-.42,.66-.83,.83-.41,.17-.82,.18-1.22,.04-.74-.22-1.24-.58-1.48-1.1-.24-.52-.37-1.12-.4-1.82Z"/>
  <path class="cls-1" d="M71.4,8.21c-.55,.29-1.07,.6-1.55,.94-.48,.34-.94,.71-1.37,1.12-.22,.19-.53,.5-.95,.92-.42,.42-.79,.88-1.1,1.37-.31,.49-.5,.97-.56,1.42-.06,.46,.16,.82,.67,1.08,.91,.55,1.75,1.16,2.5,1.84,.76,.67,1.36,1.5,1.82,2.48,.46,.94,.63,1.92,.52,2.95-.11,1.03-.58,2-1.42,2.92-.53,.58-1.17,1.18-1.93,1.8-.76,.62-1.58,1.21-2.47,1.76-.89,.55-1.81,1.01-2.75,1.39-.95,.37-1.87,.59-2.77,.65-.9,.06-1.74-.08-2.52-.41-.78-.34-1.46-.94-2.03-1.8-.19-.31-.35-.58-.47-.79-.12-.22-.14-.41-.07-.58,.07-.17,.26-.31,.56-.41,.3-.11,.76-.21,1.39-.31,.48-.05,1.08-.22,1.8-.52,.72-.3,1.46-.67,2.23-1.12,.77-.44,1.52-.95,2.25-1.51,.73-.56,1.36-1.13,1.87-1.69,.52-.56,.87-1.11,1.06-1.64,.19-.53,.14-.98-.14-1.37-.62-.5-1.25-1-1.89-1.48-.64-.48-1.25-.96-1.85-1.44-.5-.38-.88-.8-1.12-1.26-.24-.46-.37-.92-.4-1.4-.02-.48,.05-.95,.22-1.42,.17-.47,.41-.91,.72-1.31,.74-1.06,1.55-2,2.43-2.84,.88-.84,1.8-1.6,2.77-2.29,.97-.68,1.99-1.31,3.04-1.89,1.06-.58,2.14-1.13,3.24-1.66,.19,0,.38-.01,.56-.04,.18-.02,.35-.01,.52,.04,.29-.17,.7-.14,1.24,.07,.54,.22,1.1,.54,1.67,.97,.58,.43,1.12,.93,1.64,1.49s.89,1.1,1.13,1.6c.31,.6,.16,1.03-.47,1.3-.29,.12-.59,.22-.9,.31-.31,.08-.62,.19-.94,.31-.62,.19-1.1,.52-1.44,.99-.34,.47-.61,.98-.83,1.53-.14,.38-.42,.66-.83,.83-.41,.17-.82,.18-1.22,.04-.74-.22-1.24-.58-1.48-1.1-.24-.52-.37-1.12-.4-1.82Z"/>
  <path class="cls-1" d="M78.13,16.52l.9-2.88c.1-.38,.2-.77,.31-1.15,.11-.38,.2-.78,.27-1.19,.02-.02,.03-.05,.02-.07-.01-.02,0-.05,.05-.07,.12-.31,.27-.62,.45-.92,.18-.3,.31-.62,.38-.95,.07-.19,.07-.35,0-.47-.07-.12-.16-.23-.27-.32-.11-.1-.23-.19-.38-.27-.14-.08-.25-.19-.32-.31-.12-.1-.25-.18-.38-.25-.13-.07-.26-.15-.4-.23-.13-.08-.25-.19-.34-.31-.1-.12-.16-.29-.18-.5l4-.54c.58-.07,1.15-.16,1.71-.27,.56-.11,1.13-.17,1.71-.2,.36-.02,.71-.05,1.06-.09,.35-.04,.7-.04,1.06-.02,.36,.02,.72,.1,1.08,.22,.36,.12,.71,.31,1.04,.58,.5,.36,.71,.71,.61,1.04-.05,.12-.13,.25-.23,.38-.11,.13-.25,.22-.41,.27-.41,.12-.82,.23-1.24,.34-.42,.11-.83,.19-1.24,.23-.29,.05-.49,.13-.61,.25-.12,.12-.24,.31-.36,.58-.19,.58-.42,1.15-.68,1.71-.26,.56-.52,1.12-.76,1.67-.22,.62-.43,1.23-.65,1.82-.22,.59-.42,1.19-.61,1.82-.17,.48-.29,.81-.36,.99-.07,.18-.13,.33-.18,.45-.05,.12-.1,.27-.16,.45-.06,.18-.16,.52-.31,1.03-.24,1.03-.46,2.05-.65,3.06-.19,1.01-.38,2.04-.58,3.1-.07,.41-.04,.65,.09,.74,.13,.08,.4,.09,.81,.02,.79-.14,1.42-.19,1.87-.14,.46,.05,.82,.16,1.08,.34,.26,.18,.48,.41,.65,.7,.17,.29,.36,.59,.58,.9,.12,.24,.16,.42,.11,.54-.05,.12-.14,.24-.29,.36-.07,.05-.13,.14-.18,.27-.05,.13-.09,.28-.13,.43-.04,.16-.08,.29-.13,.41-.05,.12-.11,.17-.18,.14-1.03-.31-2.09-.41-3.19-.29-1.09,.12-2.15,.27-3.17,.45-1.02,.18-1.96,.31-2.81,.4-.85,.08-1.57-.05-2.14-.41-.26-.17-.45-.35-.56-.54-.11-.19-.17-.4-.2-.63-.02-.23-.02-.47,0-.72,.02-.25,.05-.51,.07-.77,.55-.17,1.15-.29,1.8-.38,.65-.08,1.26-.21,1.84-.38-.31-.34-.53-.66-.67-.97-.13-.31-.21-.62-.23-.94-.02-.31-.01-.62,.04-.94,.05-.31,.1-.64,.14-.97,.05-.48,.13-.96,.25-1.44,.12-.48,.23-.97,.32-1.48,.02,.22,.02,.43,0,.63-.02,.2-.04,.4-.04,.59h.07l1.87-7.06c-.19,.24-.34,.47-.43,.68l-.61,1.48Z"/>
  <path class="cls-1" d="M101.39,26.06c-.62,.91-1.32,1.76-2.09,2.56s-1.7,1.39-2.81,1.8c-1.15,.41-2.25,.53-3.29,.38-1.04-.16-2.08-.53-3.11-1.13-.79-.46-1.43-.98-1.91-1.57-.48-.59-.83-1.22-1.04-1.89s-.33-1.39-.34-2.14c-.01-.76,.04-1.53,.16-2.32,.14-.89,.39-1.85,.74-2.9s.75-2.09,1.21-3.13c.46-1.04,.94-2.05,1.46-3.01,.52-.96,1.01-1.81,1.49-2.56,.43-.65,.86-1.29,1.28-1.93,.42-.64,.83-1.27,1.24-1.89,.31-.5,.71-.85,1.19-1.04,.48-.19,.97-.34,1.48-.43,.53-.12,1.06-.19,1.6-.22,.54-.02,1.07-.06,1.6-.11,.05,0,.1,0,.16,.02,.06,.01,.1,0,.13-.02,.43-.41,.87-.58,1.31-.5,.44,.07,.87,.22,1.28,.43,1.34,.7,2.44,1.6,3.28,2.7,.84,1.1,1.36,2.42,1.55,3.96,.1,.74,.04,1.55-.16,2.43-.2,.88-.5,1.78-.88,2.7-.38,.92-.83,1.86-1.35,2.81-.52,.95-1.03,1.85-1.55,2.7-.52,.85-1.01,1.65-1.48,2.39-.47,.74-.85,1.38-1.13,1.91Zm-13.46,.97c-.41-1.08-.61-2.12-.61-3.11s.11-1.99,.32-2.97c.26-.94,.57-1.87,.92-2.79,.35-.92,.68-1.83,.99-2.72-.53,.58-.98,1.42-1.37,2.52-.38,1.1-.66,2.24-.83,3.42-.17,1.18-.22,2.29-.14,3.33,.07,1.04,.31,1.82,.72,2.32Zm4.82-7.67c-.14,.46-.28,.93-.41,1.42-.13,.49-.26,.99-.38,1.49-.19,.77-.26,1.54-.22,2.32,.05,.78,.18,1.55,.4,2.32,.07,.26,.16,.44,.27,.54,.11,.1,.33,.08,.67-.04,.6-.24,1.24-.72,1.93-1.44,.68-.72,1.36-1.57,2.02-2.56,.66-.98,1.3-2.03,1.93-3.15,.62-1.12,1.18-2.2,1.67-3.26,.49-1.06,.89-2.02,1.19-2.88,.3-.86,.47-1.52,.52-1.98,.05-.43,.05-.81,0-1.13-.05-.32-.11-.64-.2-.94-.08-.3-.18-.61-.29-.94-.11-.32-.2-.7-.27-1.13-.02-.22-.09-.38-.2-.49s-.34-.15-.7-.13c-.7,.07-1.21,.34-1.55,.79-.34,.46-.64,.9-.9,1.33-.36,.5-.7,1.13-1.03,1.89-.32,.76-.6,1.55-.83,2.38-.23,.83-.38,1.65-.45,2.47-.07,.82-.04,1.54,.11,2.16,.1,.41,.04,.76-.18,1.06-.22,.3-.55,.43-1.01,.38-.34-.05-.67-.11-1.01-.2-.34-.08-.7-.19-1.08-.31Z"/>
  <path class="cls-1" d="M122.01,17.53c.24-.7,.47-1.42,.68-2.18,.22-.76,.46-1.48,.72-2.18,.22-.77,.45-1.52,.7-2.27,.25-.74,.51-1.48,.77-2.2,.26-.77,.51-1.52,.74-2.27,.23-.74,.5-1.46,.81-2.16,.14-.34,.25-.69,.32-1.06,.07-.37,.15-.75,.23-1.13,.08-.38,.19-.75,.32-1.1,.13-.35,.32-.68,.56-.99,.58,.34,1.12,.63,1.62,.88s1.02,.51,1.55,.77c.46,.24,.79,.56,1.01,.97,.22,.41,.23,.85,.04,1.33-.55,1.58-1.12,3.14-1.71,4.68-.59,1.54-1.15,3.1-1.67,4.68-.65,1.9-1.28,3.79-1.89,5.69-.61,1.9-1.19,3.82-1.75,5.76-.17,.55-.29,1.12-.36,1.71-.07,.59-.05,1.19,.07,1.82,.07,.41-.04,.74-.34,1.01-.3,.26-.69,.41-1.17,.43-.7,.02-1.38-.11-2.05-.4-.67-.29-1.27-.64-1.8-1.04-.53-.34-.92-.73-1.19-1.17-.26-.44-.47-.93-.61-1.46-.19-.58-.42-1.15-.68-1.71-.26-.56-.41-1.17-.43-1.82-.02-.58-.05-1.16-.07-1.75-.02-.59-.07-1.19-.14-1.82-.05-.34-.12-.68-.22-1.03-.1-.35-.17-.69-.22-1.03h-.29c-.22,.65-.44,1.3-.68,1.94-.24,.65-.47,1.3-.68,1.94-.34,1.03-.67,2.06-.99,3.08-.32,1.02-.63,2.06-.92,3.11-.12,.48-.2,.96-.23,1.44-.04,.48-.05,.97-.05,1.48,0,.38-.11,.62-.34,.7-.23,.08-.44,.16-.63,.23-.94,.26-1.73,.04-2.38-.68-.07-.12-.19-.23-.36-.32-.34-.1-.59-.24-.76-.43-.17-.19-.29-.4-.36-.63-.07-.23-.1-.47-.09-.74,.01-.26,.03-.52,.05-.76,.1-.65,.22-1.28,.38-1.91,.16-.62,.33-1.24,.52-1.84,.41-1.3,.83-2.59,1.28-3.89,.44-1.3,.89-2.59,1.35-3.89,.36-1.03,.72-2.05,1.08-3.06,.36-1.01,.71-2.03,1.04-3.06,.17-.48,.28-.97,.32-1.46,.05-.49,.12-.98,.22-1.46,.05-.1,.1-.2,.16-.31,.06-.11,.13-.17,.2-.2,.84-.17,1.66-.25,2.47-.25s1.59,.26,2.36,.79c.38,.26,.67,.58,.86,.94,.19,.36,.32,.76,.4,1.19,.12,.79,.23,1.58,.32,2.36,.1,.78,.19,1.55,.29,2.32,.07,.7,.15,1.38,.23,2.05,.08,.67,.15,1.34,.2,2.02,.05,.48,.1,.95,.16,1.4,.06,.46,.13,.92,.2,1.4l.83-2.52Zm3.24-8.06c-.26,.7-.53,1.41-.79,2.14-.26,.73-.53,1.45-.79,2.14l.25,.11,.29-.79,1.12-3.56c.22-.48,.41-.97,.59-1.46,.18-.49,.37-.98,.56-1.46-.07,0-.13-.02-.18-.07l-1.04,2.95Z"/>
</svg>