<?xml version="1.0" encoding="UTF-8"?>
<svg id="Layer_1" data-name="Layer 1" xmlns="http://www.w3.org/2000/svg" viewBox="0 0 68.34 29.57">
  <defs>
    <style>
      .cls-1 {
        fill: #fff;
      }
    </style>
  </defs>
  <path class="cls-1" d="M14.6,24.61c-.62,.91-1.32,1.76-2.09,2.56s-1.7,1.39-2.81,1.8c-1.15,.41-2.25,.53-3.29,.38-1.04-.16-2.08-.53-3.11-1.13-.79-.46-1.43-.98-1.91-1.57-.48-.59-.83-1.22-1.04-1.89S.01,23.37,0,22.61c-.01-.76,.04-1.53,.16-2.32,.14-.89,.39-1.85,.74-2.9s.75-2.09,1.21-3.13c.46-1.04,.94-2.05,1.46-3.01,.52-.96,1.01-1.81,1.49-2.56,.43-.65,.86-1.29,1.28-1.93,.42-.64,.83-1.27,1.24-1.89,.31-.5,.71-.85,1.19-1.04,.48-.19,.97-.34,1.48-.43,.53-.12,1.06-.19,1.6-.22,.54-.02,1.07-.06,1.6-.11,.05,0,.1,0,.16,.02,.06,.01,.1,0,.13-.02,.43-.41,.87-.58,1.31-.5,.44,.07,.87,.22,1.28,.43,1.34,.7,2.44,1.6,3.28,2.7,.84,1.1,1.36,2.42,1.55,3.96,.1,.74,.04,1.55-.16,2.43-.2,.88-.5,1.78-.88,2.7-.38,.92-.83,1.86-1.35,2.81-.52,.95-1.03,1.85-1.55,2.7-.52,.85-1.01,1.65-1.48,2.39-.47,.74-.85,1.38-1.13,1.91Zm-13.46,.97c-.41-1.08-.61-2.12-.61-3.11s.11-1.99,.32-2.97c.26-.94,.57-1.87,.92-2.79,.35-.92,.68-1.83,.99-2.72-.53,.58-.98,1.42-1.37,2.52-.38,1.1-.66,2.24-.83,3.42-.17,1.18-.22,2.29-.14,3.33,.07,1.04,.31,1.82,.72,2.32Zm4.82-7.67c-.14,.46-.28,.93-.41,1.42-.13,.49-.26,.99-.38,1.49-.19,.77-.26,1.54-.22,2.32,.05,.78,.18,1.55,.4,2.32,.07,.26,.16,.44,.27,.54,.11,.1,.33,.08,.67-.04,.6-.24,1.24-.72,1.93-1.44,.68-.72,1.36-1.57,2.02-2.56,.66-.98,1.3-2.03,1.93-3.15,.62-1.12,1.18-2.2,1.67-3.26,.49-1.06,.89-2.02,1.19-2.88,.3-.86,.47-1.52,.52-1.98,.05-.43,.05-.81,0-1.13-.05-.32-.11-.64-.2-.94-.08-.3-.18-.61-.29-.94-.11-.32-.2-.7-.27-1.13-.02-.22-.09-.38-.2-.49s-.34-.15-.7-.13c-.7,.07-1.21,.34-1.55,.79-.34,.46-.64,.9-.9,1.33-.36,.5-.7,1.13-1.03,1.89-.32,.76-.6,1.55-.83,2.38-.23,.83-.38,1.65-.45,2.47-.07,.82-.04,1.54,.11,2.16,.1,.41,.04,.76-.18,1.06-.22,.3-.55,.43-1.01,.38-.34-.05-.67-.11-1.01-.2-.34-.08-.7-.19-1.08-.31Z"/>
  <path class="cls-1" d="M32.02,27.81c-1.15,.77-2.39,1.07-3.73,.92-1.33-.16-2.53-.68-3.58-1.57-.7-.6-1.27-1.24-1.71-1.93-.44-.68-.76-1.46-.95-2.32-.14-.72-.24-1.45-.29-2.18-.05-.73-.04-1.48,.04-2.25,.26-1.9,.7-3.73,1.31-5.49,.61-1.76,1.18-3.55,1.71-5.35,.17-.53,.3-1.06,.4-1.58,.1-.53,.19-1.06,.29-1.58,.05-.24,.16-.46,.32-.67,.17-.2,.37-.37,.59-.49,.23-.12,.48-.2,.76-.23,.28-.04,.53,0,.77,.09,.34,.14,.69,.28,1.06,.41,.37,.13,.73,.27,1.06,.41,.48,.22,.76,.44,.83,.68,.07,.24,.01,.61-.18,1.12-.34,.84-.66,1.7-.97,2.57-.31,.88-.61,1.77-.9,2.68-.31,.94-.62,1.85-.92,2.75-.3,.9-.57,1.8-.81,2.7-.24,.9-.41,1.8-.52,2.7-.11,.9-.13,1.82-.05,2.75,.07,.77,.2,1.46,.38,2.07,.18,.61,.43,1.01,.76,1.21,.32,.19,.71,.11,1.17-.23,.46-.35,1-1.1,1.62-2.25,.41-.72,.79-1.44,1.15-2.16,.36-.72,.72-1.44,1.08-2.16,.17-.26,.32-.53,.45-.81,.13-.28,.21-.59,.23-.95,.02-.29,.15-.58,.38-.88,.23-.3,.4-.61,.52-.92,.41-1.08,.8-2.15,1.17-3.22,.37-1.07,.75-2.13,1.13-3.19,.05-.12,.05-.23,.02-.34-.04-.11-.05-.17-.05-.2,.19-.26,.37-.51,.52-.74,.16-.23,.29-.45,.41-.67,.26-.53,.5-1.05,.7-1.57,.2-.52,.43-1.04,.67-1.57,.29-.6,.6-.95,.94-1.06,.34-.11,.83-.13,1.48-.05,.38,.02,.76,.08,1.12,.16,.36,.08,.73,.15,1.12,.2,.26,.02,.53,.1,.79,.22,.26,.12,.49,.24,.68,.36,.1,.1,.11,.27,.05,.52-.06,.25-.11,.47-.16,.67-.19,.46-.4,.92-.63,1.39-.23,.47-.45,.94-.67,1.42-.24,.5-.46,1.01-.65,1.53-.19,.52-.38,1.05-.58,1.6-.41,.96-.82,1.91-1.22,2.86-.41,.95-.79,1.91-1.15,2.9-.36,.91-.71,1.85-1.06,2.81-.35,.96-.65,1.92-.92,2.88-.26,.91-.49,1.82-.68,2.72-.19,.9-.38,1.81-.58,2.72-.07,.26-.1,.52-.09,.77,.01,.25-.02,.51-.09,.77-.05,.17-.14,.33-.29,.49s-.29,.23-.43,.23c-.48,.07-.94,.08-1.37,.04-.43-.05-.83-.3-1.19-.76-.14-.19-.33-.35-.56-.49-.23-.13-.46-.29-.7-.49Z"/>
  <path class="cls-1" d="M64.39,27.42c-.67,.86-1.43,1.4-2.27,1.62-.84,.22-1.72,.25-2.63,.11-.48-.1-.95-.27-1.4-.52-.46-.25-.89-.53-1.3-.85-.55-.43-1.07-.91-1.55-1.42-.48-.52-.94-1.04-1.37-1.57-.74-.96-1.46-1.92-2.14-2.88-.68-.96-1.39-1.92-2.11-2.88-.12-.14-.25-.28-.4-.4-.14-.12-.3-.28-.47-.47-.26,.65-.52,1.26-.76,1.84-.24,.58-.46,1.15-.65,1.73-.46,1.2-.89,2.38-1.31,3.55-.42,1.16-.73,2.36-.92,3.58,0,.14-.09,.28-.27,.4-.18,.12-.34,.2-.49,.25-.19,.05-.41,.03-.67-.05-.25-.08-.5-.19-.76-.32-.25-.13-.49-.28-.7-.45-.22-.17-.37-.32-.47-.47-.1-.17-.18-.32-.25-.47-.07-.14-.18-.25-.32-.32-.31-.14-.47-.32-.49-.52-.01-.2,.02-.4,.09-.59,.19-.67,.4-1.33,.63-1.98,.23-.65,.45-1.28,.67-1.91,.29-.84,.58-1.68,.88-2.52,.3-.84,.59-1.68,.88-2.52,.19-.58,.4-1.14,.63-1.69,.23-.55,.44-1.12,.63-1.69,.31-.98,.62-1.98,.94-2.99,.31-1.01,.6-2,.86-2.99,.05-.19,.07-.39,.07-.59s-.02-.4-.07-.59c0-.1-.07-.18-.22-.25-.14-.07-.28-.12-.4-.14-.41-.07-.72-.2-.94-.4-.22-.19-.4-.43-.54-.72-.12-.19-.26-.38-.41-.58-.16-.19-.32-.38-.49-.58,.1-.12,.18-.22,.25-.31,.07-.08,.16-.17,.25-.27-.12-.07-.25-.14-.38-.2-.13-.06-.29-.14-.49-.23,.17-.12,.28-.34,.32-.65,.05-.31,.1-.55,.14-.72,.05-.22,.37-.43,.95-.63,.59-.2,1.36-.39,2.3-.56,.95-.17,2.03-.31,3.24-.41,1.21-.11,2.48-.17,3.8-.18,1.32-.01,2.65,.03,3.98,.13,1.33,.1,2.59,.28,3.76,.54,.38,.1,.83,.28,1.33,.54,.5,.26,1,.57,1.48,.92,.48,.35,.92,.72,1.33,1.12,.41,.4,.71,.76,.9,1.1,.46,.7,.79,1.47,1.01,2.32,.22,.85,.26,1.71,.14,2.57-.12,.86-.41,1.72-.88,2.56-.47,.84-1.16,1.6-2.07,2.27-.96,.48-1.81,.88-2.54,1.21-.73,.32-1.4,.61-2,.85-.6,.24-1.15,.44-1.64,.61-.49,.17-.98,.32-1.46,.47-.22,.1-.44,.15-.67,.16-.23,.01-.45,.02-.67,.02-.89,.05-1.14,.42-.76,1.12,.34,.5,.67,1.01,1.01,1.53,.34,.52,.7,1.04,1.08,1.57,.31,.43,.63,.88,.95,1.33,.32,.46,.69,.89,1.1,1.3,.43,.48,.91,.92,1.42,1.31s1.03,.8,1.53,1.21c.05,.05,.1,.07,.14,.07s.1,.02,.14,.07c.22,.12,.44,.21,.67,.27,.23,.06,.47,.15,.74,.27Zm-6.52-14.9c.55-.24,1.1-.47,1.64-.7,.54-.23,1.1-.44,1.67-.63,.74-.29,1.42-.62,2.03-1.01,.61-.38,1.04-.96,1.28-1.73,.19-.65,.18-1.24-.04-1.78-.22-.54-.73-.94-1.55-1.21-1.01-.26-1.97-.46-2.88-.58-.91-.12-1.9-.19-2.95-.22-.82-.02-1.63-.03-2.45-.02-.82,.01-1.61,.11-2.38,.31-.12,.05-.23,.13-.32,.23-.1,.11-.13,.2-.11,.27,.1,.7,.07,1.36-.09,1.98-.16,.62-.31,1.26-.45,1.91-.19,.77-.41,1.52-.65,2.27-.24,.74-.46,1.52-.65,2.34,.14,.02,.27,.04,.38,.05,.11,.01,.22,.02,.34,.02,.55-.1,1.1-.17,1.64-.22,.54-.05,1.05-.13,1.53-.25,.55-.12,1.09-.25,1.62-.4,.53-.14,1.07-.3,1.62-.47-.19,.14-.4,.27-.63,.38-.23,.11-.45,.21-.67,.31v.07s.01,.04,.04,.04c.7-.19,1.37-.39,2.02-.59,.65-.2,1.31-.43,1.98-.67-.05-.1-.07-.17-.07-.22-.17,.05-.32,.1-.45,.14-.13,.05-.28,.08-.45,.11-.19,.05-.37,.09-.54,.13-.17,.04-.32,.08-.47,.13Z"/>
</svg>