<?xml version="1.0" encoding="UTF-8"?>
<svg id="Layer_1" data-name="Layer 1" xmlns="http://www.w3.org/2000/svg" viewBox="0 0 140.45 38.97">
  <defs>
    <style>
      .cls-1 {
        fill: #F80123;
      }

      .cls-2 {
        fill: #fff;
      }
    </style>
  </defs>
  <g>
    <path class="cls-2" d="M11.67,1.6h.4c1.08,0,3.38,.59,6.89,1.78,1.42,.28,2.55,.63,3.41,1.05,1.09,0,2.2,.27,3.32,.81,.11-.05,.19-.07,.25-.07,.12,0,.74,.19,1.86,.56v.25h-.25l-.25-.16h-.07c.5,.54,.96,.81,1.37,.81h.09c0-.16,.03-.25,.09-.25,1.39,.57,2.09,1.03,2.09,1.37,.82,.38,1.39,.89,1.71,1.55,.08,0,.19,.13,.33,.4v.16h-.09l-.9-1.05v.18h-.07c-.43-.35-.81-.76-1.14-1.23-.54-.21-1.08-.45-1.62-.72v.16c.82,.4,1.39,.78,1.71,1.14,0-.06,.02-.09,.07-.09,0,.21,.33,.59,.98,1.14v.07h-.16v.4c.11,.22,.26,.33,.47,.33,0-.06,.03-.09,.09-.09l.07,.16c-.09,.06-.2,.09-.32,.09v.09c0,.08,.11,.19,.32,.32,0-.08,.08-.16,.25-.25,.16,.43,.25,.7,.25,.81-.06,.11-.09,.19-.09,.25h.09l.33-.4c.14,0,.25,.25,.32,.74h-.16v-.18h-.09c0,.26-.08,.74-.25,1.46h.18v.18c-.16,0-.25,.05-.25,.16,.05,.11,.07,.19,.07,.25-.08,0-.19,.11-.32,.32,.05,0,.07,.03,.07,.09-.05,0-.29,.24-.72,.72l.09,.16c-.16,.01-.44,.29-.83,.83-.68,.52-1.35,.92-2.02,1.21l-.07,.16v.09c.27,0,.4,.05,.4,.16-.97,.29-1.46,.59-1.46,.9-.19,0-.6,.21-1.23,.63-.43,.32-.86,.51-1.28,.58,0,.16-.3,.35-.9,.56h-.16l-.18-.09c0,.43-1.67,.98-5.01,1.63l-.18,.16c.5,.66,1.05,1.52,1.63,2.58l.23-.16c0,.06,.11,.22,.33,.49h-.25c0,.3,.22,.76,.65,1.37h-.09l1.14,1.63c0,.11-.05,.16-.16,.16-.19-.16-.32-.36-.4-.58l-.33-.07v.25c.69,1.57,1.39,2.76,2.11,3.57,.21,.21,.32,.37,.32,.47h.18v-.16h.16l.32,.25c.11-.06,.19-.09,.25-.09,.16,.18,.25,.31,.25,.4h.09c.02-.21,.1-.32,.23-.32,.19,0,.4,.22,.65,.65,.3,.09,.55,.45,.74,1.05h.16v-.16c.11,0,.22,.27,.33,.81v.88c0,.27-.11,.43-.33,.49,0,.15,.08,.4,.25,.74-.11,.05-.19,.07-.25,.07v.09l.16,.56h-.25l-.16-.09c0,.12-.05,.18-.16,.18h-.09l-.23-.18v.09l.16,.25v.16h-.09l-.25-.16h-.07l.16,.25v.07c0,.12-.05,.18-.16,.18l.16,.32c-.18,0-.36,.19-.56,.56,0-.06-.22-.19-.65-.4v.16l.25,.42v.07c-.11-.11-.27-.16-.49-.16,0,.06-.03,.14-.09,.25l-.16-.09h-.07l.07,.16v.09h-.07c-.28-.33-.47-.49-.58-.49-.18,.12-.31,.18-.4,.18-.19-.12-.46-.2-.81-.25l.4,.47h-.07c-.39-.14-.88-.6-1.48-1.37v-.4h-.07l-.16,.09c-.14,0-.44-.38-.9-1.14-.97-1.03-1.46-1.62-1.46-1.78,0-.22-.38-.77-1.14-1.63l-.32-.07v-.33l.07-.16c-.08,0-.22-.08-.4-.25,0,.16-.05,.25-.16,.25-1.01-1.68-1.55-2.51-1.62-2.51h-.09v.25l.09,.16h-.09c-1.14-1.31-2.35-3.21-3.64-5.68,0-.21-.08-.32-.25-.32-2.93,3.73-4.93,5.59-5.99,5.59-1.2,.63-1.79,1.28-1.79,1.95h-.25v-.4h-.07c0,.38-.08,.56-.25,.56-.49-.12-.74-.25-.74-.4h-.07l-.33,.32c-.05-.11-.07-.19-.07-.25h-.16c0,.22-.14,.33-.42,.33,0-.08-.08-.16-.23-.25l-.25,.16c-.76-.56-1.14-1.13-1.14-1.71,1.89-4.08,4.32-8.32,7.29-12.73,.69-.95,2.13-3.25,4.31-6.89l1.71-2.34v-.09c-.22-.18-.96-.53-2.2-1.05-.81-.48-1.21-.8-1.21-.97,.74-2.58,1.33-3.98,1.78-4.22Zm3.5,27.4c.07,.22,.21,.38,.4,.47v-.16c-.11-.13-.16-.23-.16-.32h-.25Zm.72,1.37h.09c.32,.3,.47,.57,.47,.81h-.16c0-.12-.13-.36-.4-.72v-.09Zm.16-12.32c.06,0,.09,.03,.09,.09,1.02-.27,3.43-.76,7.22-1.46,.69-.14,1.61-.6,2.74-1.39,.66-.67,1.01-1.26,1.05-1.78,0-1.38-1.43-2.54-4.29-3.48-.11,.05-.19,.07-.25,.07-.3-.11-1.06-.24-2.27-.4l-.16,.09c-.11-.06-.19-.09-.25-.09-.32,0-.5,.4-.56,1.21-.46,1.43-.79,2.3-.98,2.6-.32,1.05-1.04,2.46-2.18,4.22l-.18,.32Zm2.11,13.46v.07c0,.12,.16,.39,.49,.81,.43,.53,.65,.83,.65,.9h.16c-.21-.49-.64-1.08-1.3-1.78Zm1.3,2.18v.09c.66,.87,1.01,1.3,1.05,1.3v-.49c-.33-.07-.49-.21-.49-.4,.06-.11,.09-.19,.09-.25l-.25-.16-.16,.07v-.16h-.25Zm3.08,4.13v.09c.02,.11,.08,.16,.18,.16v-.25h-.18Zm.49-8.42h.25c.21,.16,.38,.25,.49,.25v.23h-.25l.07,.18v.07h-.07c-.33-.34-.49-.58-.49-.72Zm.65-.4c.25,.11,.38,.21,.4,.32v.25l-.09,.16c.12,.02,.18,.08,.18,.16h-.09c-.08,0-.3-.27-.65-.81,.11-.05,.19-.07,.25-.07Zm0,2.11v.23c0,.09,.11,.21,.32,.33h.09v-.09c-.2-.32-.33-.47-.4-.47Zm.56-1.05c.6,.41,.9,.65,.9,.72v.09h-.09c-.54-.06-.81-.33-.81-.81Zm.4,1.71v.16l.25,.16v-.16c-.11,0-.16-.05-.16-.16h-.09Zm.65-.74c0,.16,.13,.25,.4,.25v.16c0,.11-.05,.16-.16,.16,0-.14-.13-.22-.4-.25v-.16c.01-.11,.06-.16,.16-.16Zm.09,1.05v.09c.08,.21,.16,.32,.25,.32h.07v-.09c0-.08-.11-.19-.32-.32Zm.47,0v.09c.08,.21,.16,.32,.25,.32h.09c-.14-.27-.25-.4-.33-.4Zm5.85-17.6h.16c0-.08,.08-.19,.25-.32v-.16c-.07,0-.21,.16-.4,.47Zm.63-3.16l.18,.09v-.25c-.12,.02-.18,.08-.18,.16Z"/>
    <path class="cls-2" d="M62.4,3.51c.62,0,1.3,.44,2.04,1.32,.26,0,.39,.19,.39,.56,.07,0,.15,.08,.23,.23,0,.11-.15,.16-.46,.16v.07c.36,0,.67,.29,.93,.86v.25l-.07,.16-.79-.09c-1.58,0-3.02,.7-4.31,2.11-.94,.63-3.29,1.47-7.05,2.51-2.11,.86-3.91,1.48-5.4,1.88,0,.25-.66,1.52-1.97,3.83v.16c1.79-.57,4.46-1.1,8-1.56,.43,0,.8,.23,1.09,.7,.35,.42,.59,.63,.7,.63,.11,.16,.16,.29,.16,.39-.11,.01-.16,.06-.16,.16v.39h-.32v.16h.32v.16h-.23v.09c.3,.05,.46,.12,.46,.23l-.07,.16c.42,.05,.63,.12,.63,.23-.06,.06-.27,.09-.63,.09l.54,.3v.16l-.07,.16-1.27-.16c-1.83,0-3.18,.66-4.06,1.97-2.5,1.41-4.82,2.11-6.98,2.11h-.7c-.2,0-.85-.05-1.95-.16-.39,.22-.76,.49-1.11,.79,0,.07-.31,.43-.93,1.09v.16c4.07-1.04,7.04-1.56,8.93-1.56,.68,.18,1.02,.46,1.02,.86,.2,.2,.4,.49,.62,.86v.07c0,.32-.44,.47-1.32,.47v.09c.55,.09,.91,.14,1.09,.14v.16h-1.09l-.25,.16h-.77v.16h.07c.12,0,.22-.02,.32-.07l.16,.07s.07-.02,.07-.07l1.34,.16v.16h-.47v.07h.4v.16h-.16c-.19,0-.42-.03-.7-.09-.11,.06-.19,.09-.25,.09v.07c1.42,.06,2.13,.16,2.13,.32-.62-.05-1.07-.07-1.34-.07h-.79c-.11,.01-.16,.06-.16,.16h.47v.16h-.77c-.11,.01-.16,.06-.16,.14h.16v.16c-1.46,.27-2.54,.59-3.22,.95-1.07,.68-2.5,1.22-4.31,1.63-1.07,.32-2.11,.47-3.13,.47h-1.34l-.39,.09v-.09l-.16,.09h-.79c-.21,0-.5,.02-.86,.07l-.16-.07c-.28,.05-.52,.07-.7,.07-.26,0-.49-.13-.7-.39v-.16c.33-.64,.56-1.06,.7-1.25-.21-.08-.32-.16-.32-.25,.11-.32,.21-.55,.32-.7v-.23c-.06,0-.13-.03-.23-.09-.12,0-.4,.34-.86,1.02-.08,0-.21-.16-.39-.47v-.14c.25-1.09,1.39-3.23,3.45-6.43,.75-1.31,1.29-2.2,1.63-2.65,1.49-2.38,2.56-4.26,3.22-5.64,.45-.73,1.85-3.91,4.22-9.56,.26-.2,.81-.3,1.65-.3,2.13,.26,3.41,.57,3.83,.93l.47,.39c3.64-1.56,7.82-2.34,12.53-2.34Zm-15.28,23.57v.07h.32v-.07h-.32Zm1.18,.23v.09h.39v-.09h-.39Zm1.18,1.02h.54l.39,.07v.16l-.77-.07h-.16v-.16Zm.23-.79h.39v.16h-.39v-.16Z"/>
    <path class="cls-2" d="M86.15,3.74c1.61,.28,2.86,.76,3.76,1.44,1.69,1.58,2.6,3.03,2.74,4.34,.06,.48,.08,.86,.05,1.12-.01,.12-.04,.22-.09,.3,.04,.09,.05,.17,.05,.23-.13,1.39-1.94,3-5.43,4.82-1.17,.61-2.2,1.07-3.09,1.37l-.02,.14c1.04,.46,2,1.17,2.88,2.13,1.02,1.2,1.62,2.24,1.81,3.13,.2,.6,.28,1.15,.23,1.67-.05,.55-.69,1.37-1.93,2.44-1.41,.89-2.83,1.56-4.27,2-.11-.01-1.2,.27-3.29,.84-2.03,.43-3.05,.74-3.06,.91-.95,.29-1.8,.64-2.55,1.05-1.73,.69-3.9,.92-6.49,.69-1.05-.23-1.77-.59-2.14-1.07h-.07s-.18,.12-.47,.4c-.43-.25-.64-.46-.62-.65l.02-.3-.16,.05-.14-.09c.06-.09,.09-.16,.11-.21l-.07-.16c.12-.15,.18-.29,.19-.42v-.09c-.41,.47-.63,.7-.65,.7-.39-.36-.86-.66-1.42-.88-.15-.46-.38-.7-.69-.72,0,.09-.08,.13-.23,.12-.76-.43-1.14-.69-1.12-.77l.04-.3,.07-.14c-.19-.12-.28-.25-.26-.39,.86-1.97,2.23-4.26,4.11-6.87,.63-1.04,1.91-2.82,3.83-5.34,2.66-3.79,4-5.73,4.01-5.84l.02-.14c.01-.19-.19-.7-.62-1.55l-.19-1.14c.05-.63,.7-1.07,1.97-1.32,.59-.23,2.64-.73,6.17-1.48,3.11-.18,5.44-.19,7.01-.05Zm-22.1,26.77l.07,.02c.12,.01,.21-.11,.26-.35l-.09-.02c-.08,0-.16,.12-.25,.35Zm19.72-8.19c-1.52-.13-3.64-.04-6.35,.26-1.12,.26-2.75,.39-4.89,.4-.02,.2-.46,.36-1.32,.47l-.14-.02c-.07,0-.18-.13-.33-.4v-.07c.02-.29,.29-.49,.79-.6l.04-.3c-.36-.07-.6-.16-.72-.28-.54,.82-1.34,1.75-2.41,2.78-.52,.36-.9,.73-1.14,1.09l.16,.02c4.37,.08,7.41-.03,9.12-.33,2.3-.39,4.37-1.03,6.21-1.92,.63-.36,1.11-.69,1.42-.98l.02-.07c-.2-.02-.3-.06-.3-.11l-.16,.05Zm-8.86-6.82l.14,.02c2.2-.8,5.45-2.1,9.74-3.92,1.42-.73,2.5-1.48,3.25-2.25l.02-.07c-2.5,.02-5.33,.25-8.49,.67-1.05,.07-1.6,.32-1.63,.76-.38,.46-1.21,1.83-2.51,4.11-.08-.01-.25,.22-.51,.69Z"/>
    <path class="cls-2" d="M120.9,3.51c.62,0,1.3,.44,2.04,1.32,.26,0,.39,.19,.39,.56,.07,0,.15,.08,.23,.23,0,.11-.15,.16-.46,.16v.07c.36,0,.67,.29,.93,.86v.25l-.07,.16-.79-.09c-1.58,0-3.02,.7-4.31,2.11-.94,.63-3.29,1.47-7.05,2.51-2.11,.86-3.91,1.48-5.4,1.88,0,.25-.66,1.52-1.97,3.83v.16c1.79-.57,4.46-1.1,8-1.56,.43,0,.8,.23,1.09,.7,.35,.42,.59,.63,.7,.63,.11,.16,.16,.29,.16,.39-.11,.01-.16,.06-.16,.16v.39h-.32v.16h.32v.16h-.23v.09c.3,.05,.46,.12,.46,.23l-.07,.16c.42,.05,.63,.12,.63,.23-.06,.06-.27,.09-.63,.09l.54,.3v.16l-.07,.16-1.27-.16c-1.83,0-3.18,.66-4.06,1.97-2.5,1.41-4.82,2.11-6.98,2.11h-.7c-.2,0-.85-.05-1.95-.16-.39,.22-.76,.49-1.11,.79,0,.07-.31,.43-.93,1.09v.16c4.07-1.04,7.04-1.56,8.93-1.56,.68,.18,1.02,.46,1.02,.86,.2,.2,.4,.49,.62,.86v.07c0,.32-.44,.47-1.32,.47v.09c.55,.09,.91,.14,1.09,.14v.16h-1.09l-.25,.16h-.77v.16h.07c.12,0,.22-.02,.32-.07l.16,.07s.07-.02,.07-.07l1.34,.16v.16h-.47v.07h.4v.16h-.16c-.19,0-.42-.03-.7-.09-.11,.06-.19,.09-.25,.09v.07c1.42,.06,2.13,.16,2.13,.32-.62-.05-1.07-.07-1.34-.07h-.79c-.11,.01-.16,.06-.16,.16h.47v.16h-.77c-.11,.01-.16,.06-.16,.14h.16v.16c-1.46,.27-2.54,.59-3.22,.95-1.07,.68-2.5,1.22-4.31,1.63-1.07,.32-2.11,.47-3.13,.47h-1.34l-.39,.09v-.09l-.16,.09h-.79c-.21,0-.5,.02-.86,.07l-.16-.07c-.28,.05-.52,.07-.7,.07-.26,0-.49-.13-.7-.39v-.16c.33-.64,.56-1.06,.7-1.25-.21-.08-.32-.16-.32-.25,.11-.32,.21-.55,.32-.7v-.23c-.06,0-.13-.03-.23-.09-.12,0-.4,.34-.86,1.02-.08,0-.21-.16-.39-.47v-.14c.25-1.09,1.39-3.23,3.45-6.43,.75-1.31,1.29-2.2,1.63-2.65,1.49-2.38,2.56-4.26,3.22-5.64,.45-.73,1.85-3.91,4.22-9.56,.26-.2,.81-.3,1.65-.3,2.13,.26,3.41,.57,3.83,.93l.47,.39c3.64-1.56,7.82-2.34,12.53-2.34Zm-15.28,23.57v.07h.32v-.07h-.32Zm1.18,.23v.09h.39v-.09h-.39Zm1.18,1.02h.54l.39,.07v.16l-.77-.07h-.16v-.16Zm.23-.79h.39v.16h-.39v-.16Z"/>
    <path class="cls-2" d="M132.47,3.51c1.17,.48,1.76,1.01,1.76,1.6,.45,.22,.75,.66,.91,1.3,0,.15,.05,.23,.16,.23,0-.08,.08-.16,.23-.23h.16c.46,0,.81,.53,1.05,1.6-.46,.81-1.42,3.38-2.9,7.72-1.05,2.26-2.46,4.71-4.2,7.33-.32,.71-1.51,2.19-3.59,4.41,.68,.5,3.56,1.48,8.63,2.92,.87,.36,1.3,.67,1.3,.91l.16,.07h.07v-.16c1.62,.41,2.48,.62,2.6,.62v.16c-.06,0-.13,.02-.23,.07-.15-.05-.23-.1-.23-.16l-.39,.09h-.07c-.06,0-.26-.05-.62-.16h-.39c0,.08,.25,.18,.76,.3,.02,.11,.08,.16,.16,.16l.16-.07c.25,.16,.63,.32,1.14,.46v.07c-.2,.05-.3,.1-.3,.16,.05,.09,.07,.17,.07,.23-.08,0-.18,.1-.3,.3l.3,.32-.16,.07c-1.08-.2-1.79-.3-2.13-.3h-.23v.07c1.42,.27,2.13,.47,2.13,.62-.08,0-.23,.1-.46,.3h-.46v.16h-.07c-.62-.15-1.05-.23-1.3-.23,0,.09,.28,.19,.84,.3v.07c-.06,0-.09,.03-.09,.09-.08,0-.51-.08-1.28-.23,0,.05-.03,.12-.09,.23l.54,.14h.23v.16h-.23c-.3,.04-.46,.11-.46,.23,.38,0,.68,.13,.91,.39,0,.11-.05,.16-.16,.16h-.23c-.28,0-.77-.08-1.46-.23h-.23v.3l-.83,.3v.09c.18,0,.4,.05,.69,.14v.16h-.16c-2.48,0-4.8-.4-6.94-1.21-1.41-.41-3.06-1.38-4.97-2.92-.25-.14-.37-.37-.37-.69h-.09c-.06,.3-.13,.46-.23,.46s-.14-.05-.14-.14v-.09c0-.18,.08-.76,.23-1.74h-.16c-.04,.25-.11,.37-.23,.37h-.07v-.14h-.09c-.18,.07-.28,.32-.3,.76h-.16c0-.4,.11-.78,.32-1.14l-.16-.09c-.29,.67-.47,1-.53,1,0-.11-.05-.16-.16-.16l.07-.37-.07-.16c.05-.09,.07-.2,.07-.32v-.14h-.07c-.22,.95-.43,1.46-.62,1.53,0,.13-.15,.25-.46,.37h-.07c-.14,0-.22-.12-.23-.37-.18,.15-.3,.23-.39,.23-.26-.09-.39-.22-.39-.39,0-1.79,.51-3.6,1.53-5.41,1.01-2.12,3.15-5.64,6.42-10.55,1.95-2.92,3.52-5.56,4.73-7.93,.71-1.69,1.22-2.99,1.53-3.9,.06,0,.13-.02,.23-.07Zm2.37,31.22v.07l.39,.09h.23v-.09l-.54-.07h-.07Zm1.9,1c.41,.05,.62,.12,.62,.23,0,.09-.05,.14-.16,.14-.16-.09-.32-.14-.46-.14v-.23Z"/>
  </g>
  <g>
    <path class="cls-1" d="M13.01,0h.4c1.08,0,3.38,.59,6.89,1.78,1.42,.28,2.55,.63,3.41,1.05,1.09,0,2.2,.27,3.32,.81,.11-.05,.19-.07,.25-.07,.12,0,.74,.19,1.86,.56v.25h-.25l-.25-.16h-.07c.5,.54,.96,.81,1.37,.81h.09c0-.16,.03-.25,.09-.25,1.39,.57,2.09,1.03,2.09,1.37,.82,.38,1.39,.89,1.71,1.55,.08,0,.19,.13,.33,.4v.16h-.09l-.9-1.05v.18h-.07c-.43-.35-.81-.76-1.14-1.23-.54-.21-1.08-.45-1.62-.72v.16c.82,.4,1.39,.78,1.71,1.14,0-.06,.02-.09,.07-.09,0,.21,.33,.59,.98,1.14v.07h-.16v.4c.11,.22,.26,.33,.47,.33,0-.06,.03-.09,.09-.09l.07,.16c-.09,.06-.2,.09-.32,.09v.09c0,.08,.11,.19,.32,.32,0-.08,.08-.16,.25-.25,.16,.43,.25,.7,.25,.81-.06,.11-.09,.19-.09,.25h.09l.33-.4c.14,0,.25,.25,.32,.74h-.16v-.18h-.09c0,.26-.08,.74-.25,1.46h.18v.18c-.16,0-.25,.05-.25,.16,.05,.11,.07,.19,.07,.25-.08,0-.19,.11-.32,.32,.05,0,.07,.03,.07,.09-.05,0-.29,.24-.72,.72l.09,.16c-.16,.01-.44,.29-.83,.83-.68,.52-1.35,.92-2.02,1.21l-.07,.16v.09c.27,0,.4,.05,.4,.16-.97,.29-1.46,.59-1.46,.9-.19,0-.6,.21-1.23,.63-.43,.32-.86,.51-1.28,.58,0,.16-.3,.35-.9,.56h-.16l-.18-.09c0,.43-1.67,.98-5.01,1.63l-.18,.16c.5,.66,1.05,1.52,1.63,2.58l.23-.16c0,.06,.11,.22,.33,.49h-.25c0,.3,.22,.76,.65,1.37h-.09l1.14,1.63c0,.11-.05,.16-.16,.16-.19-.16-.32-.36-.4-.58l-.33-.07v.25c.69,1.57,1.39,2.76,2.11,3.57,.21,.21,.32,.37,.32,.47h.18v-.16h.16l.32,.25c.11-.06,.19-.09,.25-.09,.16,.18,.25,.31,.25,.4h.09c.02-.21,.1-.32,.23-.32,.19,0,.4,.22,.65,.65,.3,.09,.55,.45,.74,1.05h.16v-.16c.11,0,.22,.27,.33,.81v.88c0,.27-.11,.43-.33,.49,0,.15,.08,.4,.25,.74-.11,.05-.19,.07-.25,.07v.09l.16,.56h-.25l-.16-.09c0,.12-.05,.18-.16,.18h-.09l-.23-.18v.09l.16,.25v.16h-.09l-.25-.16h-.07l.16,.25v.07c0,.12-.05,.18-.16,.18l.16,.32c-.18,0-.36,.19-.56,.56,0-.06-.22-.19-.65-.4v.16l.25,.42v.07c-.11-.11-.27-.16-.49-.16,0,.06-.03,.14-.09,.25l-.16-.09h-.07l.07,.16v.09h-.07c-.28-.33-.47-.49-.58-.49-.18,.12-.31,.18-.4,.18-.19-.12-.46-.2-.81-.25l.4,.47h-.07c-.39-.14-.88-.6-1.48-1.37v-.4h-.07l-.16,.09c-.14,0-.44-.38-.9-1.14-.97-1.03-1.46-1.62-1.46-1.78,0-.22-.38-.77-1.14-1.63l-.32-.07v-.33l.07-.16c-.08,0-.22-.08-.4-.25,0,.16-.05,.25-.16,.25-1.01-1.68-1.55-2.51-1.62-2.51h-.09v.25l.09,.16h-.09c-1.14-1.31-2.35-3.21-3.64-5.68,0-.21-.08-.32-.25-.32-2.93,3.73-4.93,5.59-5.99,5.59-1.2,.63-1.79,1.28-1.79,1.95h-.25v-.4h-.07c0,.38-.08,.56-.25,.56-.49-.12-.74-.25-.74-.4h-.07l-.33,.32c-.05-.11-.07-.19-.07-.25h-.16c0,.22-.14,.33-.42,.33,0-.08-.08-.16-.23-.25l-.25,.16c-.76-.56-1.14-1.13-1.14-1.71,1.89-4.08,4.32-8.32,7.29-12.73,.69-.95,2.13-3.25,4.31-6.89l1.71-2.34v-.09c-.22-.18-.96-.53-2.2-1.05-.81-.48-1.21-.8-1.21-.97,.74-2.58,1.33-3.98,1.78-4.22Zm3.5,27.4c.07,.22,.21,.38,.4,.47v-.16c-.11-.13-.16-.23-.16-.32h-.25Zm.72,1.37h.09c.32,.3,.47,.57,.47,.81h-.16c0-.12-.13-.36-.4-.72v-.09Zm.16-12.32c.06,0,.09,.03,.09,.09,1.02-.27,3.43-.76,7.22-1.46,.69-.14,1.61-.6,2.74-1.39,.66-.67,1.01-1.26,1.05-1.78,0-1.38-1.43-2.54-4.29-3.48-.11,.05-.19,.07-.25,.07-.3-.11-1.06-.24-2.27-.4l-.16,.09c-.11-.06-.19-.09-.25-.09-.32,0-.5,.4-.56,1.21-.46,1.43-.79,2.3-.98,2.6-.32,1.05-1.04,2.46-2.18,4.22l-.18,.32Zm2.11,13.46v.07c0,.12,.16,.39,.49,.81,.43,.53,.65,.83,.65,.9h.16c-.21-.49-.64-1.08-1.3-1.78Zm1.3,2.18v.09c.66,.87,1.01,1.3,1.05,1.3v-.49c-.33-.07-.49-.21-.49-.4,.06-.11,.09-.19,.09-.25l-.25-.16-.16,.07v-.16h-.25Zm3.08,4.13v.09c.02,.11,.08,.16,.18,.16v-.25h-.18Zm.49-8.42h.25c.21,.16,.38,.25,.49,.25v.23h-.25l.07,.18v.07h-.07c-.33-.34-.49-.58-.49-.72Zm.65-.4c.25,.11,.38,.21,.4,.32v.25l-.09,.16c.12,.02,.18,.08,.18,.16h-.09c-.08,0-.3-.27-.65-.81,.11-.05,.19-.07,.25-.07Zm0,2.11v.23c0,.09,.11,.21,.32,.33h.09v-.09c-.2-.32-.33-.47-.4-.47Zm.56-1.05c.6,.41,.9,.65,.9,.72v.09h-.09c-.54-.06-.81-.33-.81-.81Zm.4,1.71v.16l.25,.16v-.16c-.11,0-.16-.05-.16-.16h-.09Zm.65-.74c0,.16,.13,.25,.4,.25v.16c0,.11-.05,.16-.16,.16,0-.14-.13-.22-.4-.25v-.16c.01-.11,.06-.16,.16-.16Zm.09,1.05v.09c.08,.21,.16,.32,.25,.32h.07v-.09c0-.08-.11-.19-.32-.32Zm.47,0v.09c.08,.21,.16,.32,.25,.32h.09c-.14-.27-.25-.4-.33-.4Zm5.85-17.6h.16c0-.08,.08-.19,.25-.32v-.16c-.07,0-.21,.16-.4,.47Zm.63-3.16l.18,.09v-.25c-.12,.02-.18,.08-.18,.16Z"/>
    <path class="cls-1" d="M63.74,1.92c.62,0,1.3,.44,2.04,1.32,.26,0,.39,.19,.39,.56,.07,0,.15,.08,.23,.23,0,.11-.15,.16-.46,.16v.07c.36,0,.67,.29,.93,.86v.25l-.07,.16-.79-.09c-1.58,0-3.02,.7-4.31,2.11-.94,.63-3.29,1.47-7.05,2.51-2.11,.86-3.91,1.48-5.4,1.88,0,.25-.66,1.52-1.97,3.83v.16c1.79-.57,4.46-1.1,8-1.56,.43,0,.8,.23,1.09,.7,.35,.42,.59,.63,.7,.63,.11,.16,.16,.29,.16,.39-.11,.01-.16,.06-.16,.16v.39h-.32v.16h.32v.16h-.23v.09c.3,.05,.46,.12,.46,.23l-.07,.16c.42,.05,.63,.12,.63,.23-.06,.06-.27,.09-.63,.09l.54,.3v.16l-.07,.16-1.27-.16c-1.83,0-3.18,.66-4.06,1.97-2.5,1.41-4.82,2.11-6.98,2.11h-.7c-.2,0-.85-.05-1.95-.16-.39,.22-.76,.49-1.11,.79,0,.07-.31,.43-.93,1.09v.16c4.07-1.04,7.04-1.56,8.93-1.56,.68,.18,1.02,.46,1.02,.86,.2,.2,.4,.49,.62,.86v.07c0,.32-.44,.47-1.32,.47v.09c.55,.09,.91,.14,1.09,.14v.16h-1.09l-.25,.16h-.77v.16h.07c.12,0,.22-.02,.32-.07l.16,.07s.07-.02,.07-.07l1.34,.16v.16h-.47v.07h.4v.16h-.16c-.19,0-.42-.03-.7-.09-.11,.06-.19,.09-.25,.09v.07c1.42,.06,2.13,.16,2.13,.32-.62-.05-1.07-.07-1.34-.07h-.79c-.11,.01-.16,.06-.16,.16h.47v.16h-.77c-.11,.01-.16,.06-.16,.14h.16v.16c-1.46,.27-2.54,.59-3.22,.95-1.07,.68-2.5,1.22-4.31,1.63-1.07,.32-2.11,.47-3.13,.47h-1.34l-.39,.09v-.09l-.16,.09h-.79c-.21,0-.5,.02-.86,.07l-.16-.07c-.28,.05-.52,.07-.7,.07-.26,0-.49-.13-.7-.39v-.16c.33-.64,.56-1.06,.7-1.25-.21-.08-.32-.16-.32-.25,.11-.32,.21-.55,.32-.7v-.23c-.06,0-.13-.03-.23-.09-.12,0-.4,.34-.86,1.02-.08,0-.21-.16-.39-.47v-.14c.25-1.09,1.39-3.23,3.45-6.43,.75-1.31,1.29-2.2,1.63-2.65,1.49-2.38,2.56-4.26,3.22-5.64,.45-.73,1.85-3.91,4.22-9.56,.26-.2,.81-.3,1.65-.3,2.13,.26,3.41,.57,3.83,.93l.47,.39c3.64-1.56,7.82-2.34,12.53-2.34Zm-15.28,23.57v.07h.32v-.07h-.32Zm1.18,.23v.09h.39v-.09h-.39Zm1.18,1.02h.54l.39,.07v.16l-.77-.07h-.16v-.16Zm.23-.79h.39v.16h-.39v-.16Z"/>
    <path class="cls-1" d="M87.49,2.14c1.61,.28,2.86,.76,3.76,1.44,1.69,1.58,2.6,3.03,2.74,4.34,.06,.48,.08,.86,.05,1.12-.01,.12-.04,.22-.09,.3,.04,.09,.05,.17,.05,.23-.13,1.39-1.94,3-5.43,4.82-1.17,.61-2.2,1.07-3.09,1.37l-.02,.14c1.04,.46,2,1.17,2.88,2.13,1.02,1.2,1.62,2.24,1.81,3.13,.2,.6,.28,1.15,.23,1.67-.05,.55-.69,1.37-1.93,2.44-1.41,.89-2.83,1.56-4.27,2-.11-.01-1.2,.27-3.29,.84-2.03,.43-3.05,.74-3.06,.91-.95,.29-1.8,.64-2.55,1.05-1.73,.69-3.9,.92-6.49,.69-1.05-.23-1.77-.59-2.14-1.07h-.07s-.18,.12-.47,.4c-.43-.25-.64-.46-.62-.65l.02-.3-.16,.05-.14-.09c.06-.09,.09-.16,.11-.21l-.07-.16c.12-.15,.18-.29,.19-.42v-.09c-.41,.47-.63,.7-.65,.7-.39-.36-.86-.66-1.42-.88-.15-.46-.38-.7-.69-.72,0,.09-.08,.13-.23,.12-.76-.43-1.14-.69-1.12-.77l.04-.3,.07-.14c-.19-.12-.28-.25-.26-.39,.86-1.97,2.23-4.26,4.11-6.87,.63-1.04,1.91-2.82,3.83-5.34,2.66-3.79,4-5.73,4.01-5.84l.02-.14c.01-.19-.19-.7-.62-1.55l-.19-1.14c.05-.63,.7-1.07,1.97-1.32,.59-.23,2.64-.73,6.17-1.48,3.11-.18,5.44-.19,7.01-.05Zm-22.1,26.77l.07,.02c.12,.01,.21-.11,.26-.35l-.09-.02c-.08,0-.16,.12-.25,.35Zm19.72-8.19c-1.52-.13-3.64-.04-6.35,.26-1.12,.26-2.75,.39-4.89,.4-.02,.2-.46,.36-1.32,.47l-.14-.02c-.07,0-.18-.13-.33-.4v-.07c.02-.29,.29-.49,.79-.6l.04-.3c-.36-.07-.6-.16-.72-.28-.54,.82-1.34,1.75-2.41,2.78-.52,.36-.9,.73-1.14,1.09l.16,.02c4.37,.08,7.41-.03,9.12-.33,2.3-.39,4.37-1.03,6.21-1.92,.63-.36,1.11-.69,1.42-.98l.02-.07c-.2-.02-.3-.06-.3-.11l-.16,.05Zm-8.86-6.82l.14,.02c2.2-.8,5.45-2.1,9.74-3.92,1.42-.73,2.5-1.48,3.25-2.25l.02-.07c-2.5,.02-5.33,.25-8.49,.67-1.05,.07-1.6,.32-1.63,.76-.38,.46-1.21,1.83-2.51,4.11-.08-.01-.25,.22-.51,.69Z"/>
    <path class="cls-1" d="M122.24,1.92c.62,0,1.3,.44,2.04,1.32,.26,0,.39,.19,.39,.56,.07,0,.15,.08,.23,.23,0,.11-.15,.16-.46,.16v.07c.36,0,.67,.29,.93,.86v.25l-.07,.16-.79-.09c-1.58,0-3.02,.7-4.31,2.11-.94,.63-3.29,1.47-7.05,2.51-2.11,.86-3.91,1.48-5.4,1.88,0,.25-.66,1.52-1.97,3.83v.16c1.79-.57,4.46-1.1,8-1.56,.43,0,.8,.23,1.09,.7,.35,.42,.59,.63,.7,.63,.11,.16,.16,.29,.16,.39-.11,.01-.16,.06-.16,.16v.39h-.32v.16h.32v.16h-.23v.09c.3,.05,.46,.12,.46,.23l-.07,.16c.42,.05,.63,.12,.63,.23-.06,.06-.27,.09-.63,.09l.54,.3v.16l-.07,.16-1.27-.16c-1.83,0-3.18,.66-4.06,1.97-2.5,1.41-4.82,2.11-6.98,2.11h-.7c-.2,0-.85-.05-1.95-.16-.39,.22-.76,.49-1.11,.79,0,.07-.31,.43-.93,1.09v.16c4.07-1.04,7.04-1.56,8.93-1.56,.68,.18,1.02,.46,1.02,.86,.2,.2,.4,.49,.62,.86v.07c0,.32-.44,.47-1.32,.47v.09c.55,.09,.91,.14,1.09,.14v.16h-1.09l-.25,.16h-.77v.16h.07c.12,0,.22-.02,.32-.07l.16,.07s.07-.02,.07-.07l1.34,.16v.16h-.47v.07h.4v.16h-.16c-.19,0-.42-.03-.7-.09-.11,.06-.19,.09-.25,.09v.07c1.42,.06,2.13,.16,2.13,.32-.62-.05-1.07-.07-1.34-.07h-.79c-.11,.01-.16,.06-.16,.16h.47v.16h-.77c-.11,.01-.16,.06-.16,.14h.16v.16c-1.46,.27-2.54,.59-3.22,.95-1.07,.68-2.5,1.22-4.31,1.63-1.07,.32-2.11,.47-3.13,.47h-1.34l-.39,.09v-.09l-.16,.09h-.79c-.21,0-.5,.02-.86,.07l-.16-.07c-.28,.05-.52,.07-.7,.07-.26,0-.49-.13-.7-.39v-.16c.33-.64,.56-1.06,.7-1.25-.21-.08-.32-.16-.32-.25,.11-.32,.21-.55,.32-.7v-.23c-.06,0-.13-.03-.23-.09-.12,0-.4,.34-.86,1.02-.08,0-.21-.16-.39-.47v-.14c.25-1.09,1.39-3.23,3.45-6.43,.75-1.31,1.29-2.2,1.63-2.65,1.49-2.38,2.56-4.26,3.22-5.64,.45-.73,1.85-3.91,4.22-9.56,.26-.2,.81-.3,1.65-.3,2.13,.26,3.41,.57,3.83,.93l.47,.39c3.64-1.56,7.82-2.34,12.53-2.34Zm-15.28,23.57v.07h.32v-.07h-.32Zm1.18,.23v.09h.39v-.09h-.39Zm1.18,1.02h.54l.39,.07v.16l-.77-.07h-.16v-.16Zm.23-.79h.39v.16h-.39v-.16Z"/>
    <path class="cls-1" d="M133.81,1.92c1.17,.48,1.76,1.01,1.76,1.6,.45,.22,.75,.66,.91,1.3,0,.15,.05,.23,.16,.23,0-.08,.08-.16,.23-.23h.16c.46,0,.81,.53,1.05,1.6-.46,.81-1.42,3.38-2.9,7.72-1.05,2.26-2.46,4.71-4.2,7.33-.32,.71-1.51,2.19-3.59,4.41,.68,.5,3.56,1.48,8.63,2.92,.87,.36,1.3,.67,1.3,.91l.16,.07h.07v-.16c1.62,.41,2.48,.62,2.6,.62v.16c-.06,0-.13,.02-.23,.07-.15-.05-.23-.1-.23-.16l-.39,.09h-.07c-.06,0-.26-.05-.62-.16h-.39c0,.08,.25,.18,.76,.3,.02,.11,.08,.16,.16,.16l.16-.07c.25,.16,.63,.32,1.14,.46v.07c-.2,.05-.3,.1-.3,.16,.05,.09,.07,.17,.07,.23-.08,0-.18,.1-.3,.3l.3,.32-.16,.07c-1.08-.2-1.79-.3-2.13-.3h-.23v.07c1.42,.27,2.13,.47,2.13,.62-.08,0-.23,.1-.46,.3h-.46v.16h-.07c-.62-.15-1.05-.23-1.3-.23,0,.09,.28,.19,.84,.3v.07c-.06,0-.09,.03-.09,.09-.08,0-.51-.08-1.28-.23,0,.05-.03,.12-.09,.23l.54,.14h.23v.16h-.23c-.3,.04-.46,.11-.46,.23,.38,0,.68,.13,.91,.39,0,.11-.05,.16-.16,.16h-.23c-.28,0-.77-.08-1.46-.23h-.23v.3l-.83,.3v.09c.18,0,.4,.05,.69,.14v.16h-.16c-2.48,0-4.8-.4-6.94-1.21-1.41-.41-3.06-1.38-4.97-2.92-.25-.14-.37-.37-.37-.69h-.09c-.06,.3-.13,.46-.23,.46s-.14-.05-.14-.14v-.09c0-.18,.08-.76,.23-1.74h-.16c-.04,.25-.11,.37-.23,.37h-.07v-.14h-.09c-.18,.07-.28,.32-.3,.76h-.16c0-.4,.11-.78,.32-1.14l-.16-.09c-.29,.67-.47,1-.53,1,0-.11-.05-.16-.16-.16l.07-.37-.07-.16c.05-.09,.07-.2,.07-.32v-.14h-.07c-.22,.95-.43,1.46-.62,1.53,0,.13-.15,.25-.46,.37h-.07c-.14,0-.22-.12-.23-.37-.18,.15-.3,.23-.39,.23-.26-.09-.39-.22-.39-.39,0-1.79,.51-3.6,1.53-5.41,1.01-2.12,3.15-5.64,6.42-10.55,1.95-2.92,3.52-5.56,4.73-7.93,.71-1.69,1.22-2.99,1.53-3.9,.06,0,.13-.02,.23-.07Zm2.37,31.22v.07l.39,.09h.23v-.09l-.54-.07h-.07Zm1.9,1c.41,.05,.62,.12,.62,.23,0,.09-.05,.14-.16,.14-.16-.09-.32-.14-.46-.14v-.23Z"/>
  </g>
</svg>