<?xml version="1.0" encoding="UTF-8"?>
<svg id="Layer_1" data-name="Layer 1" xmlns="http://www.w3.org/2000/svg" viewBox="0 0 282.73 40.28">
  <defs>
    <style>
      .cls-1 {
        fill: #fff;
      }
    </style>
  </defs>
  <path class="cls-1" d="M31.55,36.53c-.9,1.15-1.9,1.87-3.02,2.16-1.12,.29-2.29,.34-3.5,.14-.64-.13-1.26-.36-1.87-.7-.61-.34-1.18-.71-1.73-1.13-.74-.58-1.42-1.21-2.06-1.9-.64-.69-1.25-1.38-1.82-2.09-.99-1.28-1.94-2.56-2.85-3.84-.91-1.28-1.85-2.56-2.81-3.84-.16-.19-.34-.37-.53-.53s-.4-.37-.62-.62c-.35,.86-.69,1.68-1.01,2.45-.32,.77-.61,1.54-.86,2.3-.61,1.6-1.19,3.17-1.75,4.73-.56,1.55-.97,3.14-1.22,4.77,0,.19-.12,.37-.36,.53-.24,.16-.46,.27-.65,.34-.26,.06-.55,.04-.89-.07-.34-.11-.67-.26-1.01-.43s-.65-.38-.94-.6c-.29-.22-.5-.43-.62-.62-.13-.22-.24-.43-.34-.62-.1-.19-.24-.34-.43-.43-.42-.19-.63-.42-.65-.7-.02-.27,.02-.54,.12-.79,.26-.9,.54-1.78,.84-2.64,.3-.86,.6-1.71,.89-2.54,.38-1.12,.78-2.24,1.18-3.36,.4-1.12,.79-2.24,1.18-3.36,.26-.77,.54-1.52,.84-2.25,.3-.74,.58-1.49,.84-2.25,.42-1.31,.83-2.64,1.25-3.98,.42-1.34,.8-2.67,1.15-3.98,.06-.26,.1-.52,.1-.79s-.03-.54-.1-.79c0-.13-.1-.24-.29-.34-.19-.1-.37-.16-.53-.19-.54-.1-.96-.27-1.25-.53-.29-.26-.53-.58-.72-.96-.16-.26-.34-.51-.55-.77-.21-.26-.42-.51-.65-.77,.13-.16,.24-.3,.34-.41,.1-.11,.21-.23,.34-.36-.16-.1-.33-.18-.5-.26-.18-.08-.39-.18-.65-.31,.22-.16,.37-.45,.43-.86,.06-.42,.13-.74,.19-.96,.06-.29,.49-.57,1.27-.84,.78-.27,1.81-.52,3.07-.74,1.26-.22,2.7-.41,4.32-.55C14.71,.1,16.4,.02,18.16,0c1.76-.02,3.53,.04,5.3,.17,1.78,.13,3.45,.37,5.01,.72,.51,.13,1.1,.37,1.77,.72,.67,.35,1.33,.76,1.97,1.22,.64,.46,1.23,.96,1.77,1.49,.54,.53,.94,1.02,1.2,1.46,.61,.93,1.06,1.96,1.34,3.09,.29,1.14,.35,2.28,.19,3.43-.16,1.15-.55,2.29-1.18,3.41-.62,1.12-1.54,2.13-2.76,3.02-1.28,.64-2.41,1.18-3.38,1.61s-1.86,.81-2.66,1.13c-.8,.32-1.53,.59-2.18,.82-.66,.22-1.3,.43-1.94,.62-.29,.13-.58,.2-.89,.22-.3,.02-.6,.02-.89,.02-1.18,.06-1.52,.56-1.01,1.49,.45,.67,.9,1.35,1.34,2.04,.45,.69,.93,1.38,1.44,2.09,.42,.58,.84,1.17,1.27,1.78,.43,.61,.92,1.18,1.46,1.73,.58,.64,1.21,1.22,1.9,1.75,.69,.53,1.37,1.06,2.04,1.61,.06,.06,.13,.1,.19,.1s.13,.03,.19,.1c.29,.16,.58,.28,.89,.36,.3,.08,.63,.2,.98,.36Zm-8.68-19.86c.74-.32,1.46-.63,2.18-.94,.72-.3,1.46-.58,2.23-.84,.99-.38,1.9-.83,2.71-1.34,.82-.51,1.38-1.28,1.7-2.3,.26-.86,.24-1.66-.05-2.38-.29-.72-.98-1.25-2.06-1.61-1.34-.35-2.62-.61-3.84-.77-1.22-.16-2.53-.26-3.93-.29-1.09-.03-2.18-.04-3.26-.02-1.09,.02-2.14,.15-3.17,.41-.16,.06-.3,.17-.43,.31-.13,.14-.18,.26-.14,.36,.13,.93,.09,1.81-.12,2.64-.21,.83-.41,1.68-.6,2.54-.26,1.02-.54,2.03-.86,3.02-.32,.99-.61,2.03-.86,3.12,.19,.03,.36,.06,.5,.07,.14,.02,.3,.02,.46,.02,.74-.13,1.46-.22,2.18-.29,.72-.06,1.4-.18,2.04-.34,.74-.16,1.45-.34,2.16-.53,.7-.19,1.42-.4,2.16-.62-.26,.19-.54,.36-.84,.5-.3,.14-.6,.28-.89,.41v.1s.02,.05,.05,.05c.93-.26,1.82-.52,2.69-.79,.86-.27,1.74-.57,2.64-.89-.06-.13-.1-.22-.1-.29-.22,.06-.42,.13-.6,.19-.18,.06-.38,.11-.6,.14-.26,.06-.5,.12-.72,.17-.22,.05-.43,.1-.62,.17Z"/>
  <path class="cls-1" d="M49.15,17.11c.61-.1,1.16-.18,1.66-.26,.5-.08,.97-.14,1.42-.17,1.09-.1,2.17-.18,3.24-.24,1.07-.06,2.12-.13,3.14-.19,.61-.06,1.06-.06,1.37,.02,.3,.08,.56,.19,.77,.34,.21,.14,.43,.29,.67,.43,.24,.14,.58,.25,1.03,.31,.29,.1,.61,.31,.96,.65,.35,.34,.67,.71,.96,1.13,.29,.42,.52,.84,.7,1.27,.18,.43,.26,.79,.26,1.08,0,.54-.15,.89-.46,1.03-.3,.14-.65,.22-1.03,.22-.83,.03-1.65,.04-2.45,.02-.8-.02-1.62,0-2.45,.02-1.92,.1-3.81,.24-5.69,.43-1.87,.19-3.72,.66-5.54,1.39-.45,.16-.82,.38-1.1,.65-.29,.27-.5,.68-.62,1.22-.13,.61-.3,1.22-.53,1.82-.22,.61-.46,1.25-.72,1.92,.38-.03,.74-.06,1.08-.1,.34-.03,.68-.08,1.03-.14,.99-.13,1.97-.24,2.93-.34,.96-.1,1.93-.22,2.93-.38,.38-.06,.78-.1,1.18-.1h1.2c.4,0,.79-.03,1.18-.1,.38-.06,.77-.19,1.15-.38,.16-.06,.32-.05,.48,.05,.7,.38,1.39,.74,2.06,1.08,.67,.34,1.31,.73,1.92,1.18,.35,.26,.62,.62,.82,1.08,.19,.46,.37,.92,.53,1.37,.13,.26,.11,.51-.05,.77-.16,.26-.42,.4-.77,.43-.51,.06-1.02,.13-1.54,.19-.51,.06-1.02,.08-1.54,.05-2.27,0-4.52,.14-6.74,.41-2.22,.27-4.44,.7-6.64,1.27-.29,.06-.58,.14-.86,.22-.29,.08-.56,.2-.82,.36-.16,.1-.3,.24-.43,.43-.13,.19-.19,.37-.19,.53,0,.45-.11,.83-.34,1.15-.22,.32-.51,.53-.86,.62-.26,.06-.56,.02-.91-.14-.35-.16-.62-.35-.82-.58-.61-.64-1.22-1.28-1.85-1.92-.62-.64-1.02-1.42-1.18-2.35-.06-.26-.21-.51-.43-.77-.22-.26-.3-.5-.24-.72,.1-.22,.3-.38,.6-.48,.3-.1,.55-.26,.74-.48,.38-.38,.62-.82,.72-1.3,.19-.96,.39-1.93,.6-2.9,.21-.97,.34-1.96,.41-2.95,.06-.64,.02-1.29-.12-1.94-.14-.65-.31-1.3-.5-1.94-.1-.35-.14-.63-.12-.84,.02-.21,.23-.39,.65-.55,.35-.06,.67-.2,.96-.41,.29-.21,.59-.41,.91-.6,.06-.06,.09-.17,.07-.31-.02-.14,0-.28,.02-.41,0-.06,0-.14-.02-.24-.02-.1,0-.19,.02-.29,.58-1.54,1.16-3.06,1.75-4.58,.59-1.52,1.14-3.06,1.65-4.63,.16-.42,.21-.86,.14-1.34-.06-.48-.11-.94-.14-1.39-.03-.35-.09-.72-.17-1.1-.08-.38-.15-.78-.22-1.2,.32,0,.6,0,.84,.02,.24,.02,.46,0,.65-.02,.26-.03,.47-.07,.65-.12s.25-.25,.22-.6c0-.35,.11-.55,.34-.6,.22-.05,.42,.02,.58,.22,.29,.26,.58,.39,.86,.41,.29,.02,.61,0,.96-.02,1.69-.19,3.38-.33,5.06-.41,1.68-.08,3.37-.04,5.06,.12h.89c.27,0,.55,.02,.84,.05,.64,.03,1.25,.11,1.82,.24,.58,.13,1.09,.45,1.54,.96,.06,.13,.18,.19,.34,.19,.61,.19,1.1,.45,1.46,.77,.37,.32,.66,.7,.89,1.13,.22,.43,.39,.89,.5,1.37,.11,.48,.22,.98,.31,1.49,.03,.13-.04,.29-.22,.48-.18,.19-.34,.3-.5,.34-.26,.03-.53,.03-.82,0-.29-.03-.56-.06-.82-.1-1.92-.22-3.85-.38-5.78-.46-1.94-.08-3.86,0-5.78,.22h-.19c-.8,.06-1.5,.24-2.11,.53-.61,.29-1.01,.91-1.2,1.87-.26,.93-.59,1.84-1.01,2.73-.42,.9-.82,1.84-1.2,2.83Z"/>
  <path class="cls-1" d="M74.62,14.27l-.77,.53c.32-.9,.63-1.75,.94-2.57,.3-.82,.58-1.64,.84-2.47,.22-.7,.42-1.39,.6-2.06,.18-.67,.34-1.36,.5-2.06,.06-.16,.12-.3,.17-.43,.05-.13,.1-.26,.17-.38,.06-.26,.17-.49,.31-.7,.14-.21,.18-.41,.12-.6,0-.45,.09-.75,.26-.91,.18-.16,.44-.24,.79-.24,1.69-.06,3.37-.14,5.01-.22,1.65-.08,3.33-.1,5.06-.07,.93,0,1.85,.06,2.76,.19,.91,.13,1.83,.26,2.76,.38,1.44,.26,2.57,.82,3.38,1.7,.82,.88,1.45,1.93,1.9,3.14,.19,.45,.36,.89,.5,1.32,.14,.43,.28,.87,.41,1.32,.16,.64,.11,1.19-.14,1.66-.26,.46-.56,.9-.91,1.32-.93,1.06-1.94,1.99-3.05,2.81s-2.23,1.59-3.38,2.33l-6.91,4.08c.58,.38,1.16,.77,1.75,1.15,.59,.38,1.14,.82,1.65,1.3,.64,.64,1.22,1.32,1.75,2.04,.53,.72,.73,1.56,.6,2.52-.03,.42-.14,.79-.34,1.13s-.38,.66-.58,.98c-.64,.83-1.38,1.49-2.23,1.97-.85,.48-1.69,.94-2.52,1.39-1.79,.96-3.6,1.82-5.42,2.57-1.82,.75-3.73,1.32-5.71,1.7-.83,.16-1.69,.25-2.57,.26-.88,.02-1.75,0-2.61-.07-.35-.03-.7-.18-1.03-.43s-.66-.51-.98-.77c-.29-.26-.54-.55-.77-.89-.22-.34-.46-.66-.72-.98,.26-.16,.48-.24,.67-.24,.54-.13,.8-.46,.77-1.01-.03-.48-.02-1.01,.02-1.58,.05-.58,.13-1.15,.24-1.73,.11-.58,.25-1.12,.41-1.63,.16-.51,.34-.96,.53-1.34l-.96,5.13c.06,.06,.14,.1,.24,.1,.32-1.7,.74-3.36,1.25-4.99,.51-1.63,1.06-3.25,1.65-4.87,.59-1.61,1.2-3.23,1.82-4.84,.62-1.61,1.21-3.25,1.75-4.92Zm10.79,11.66c-.67-.16-1.31-.29-1.92-.38-.61-.1-1.22-.21-1.82-.34-.61-.13-1.21-.28-1.8-.46-.59-.17-1.24-.34-1.94-.5l-3.12,8.92c.96-.48,1.93-.94,2.93-1.37,.99-.43,1.95-.91,2.88-1.44,.93-.53,1.8-1.14,2.61-1.85,.82-.7,1.54-1.57,2.18-2.59Zm8.68-17.56c-.61-.16-1.16-.34-1.66-.53-.5-.19-1-.29-1.51-.29-.99-.03-1.98-.02-2.95,.05-.98,.06-1.93,.3-2.85,.72-.29,.16-.51,.22-.67,.19-.38-.06-.64,0-.77,.19-.13,.19-.24,.42-.34,.67l-2.25,6.38c-.16,.45-.32,.9-.48,1.37-.16,.46-.34,1.02-.53,1.66,1.28-.74,2.55-1.47,3.81-2.21,1.26-.74,2.49-1.51,3.67-2.33,1.18-.82,2.33-1.7,3.43-2.66s2.13-2.03,3.09-3.21Z"/>
  <path class="cls-1" d="M109.17,17.11c.61-.1,1.16-.18,1.66-.26,.5-.08,.97-.14,1.42-.17,1.09-.1,2.17-.18,3.24-.24,1.07-.06,2.12-.13,3.14-.19,.61-.06,1.06-.06,1.37,.02,.3,.08,.56,.19,.77,.34,.21,.14,.43,.29,.67,.43,.24,.14,.58,.25,1.03,.31,.29,.1,.61,.31,.96,.65,.35,.34,.67,.71,.96,1.13,.29,.42,.52,.84,.7,1.27,.18,.43,.26,.79,.26,1.08,0,.54-.15,.89-.46,1.03-.3,.14-.65,.22-1.03,.22-.83,.03-1.65,.04-2.45,.02-.8-.02-1.62,0-2.45,.02-1.92,.1-3.81,.24-5.69,.43-1.87,.19-3.72,.66-5.54,1.39-.45,.16-.82,.38-1.1,.65-.29,.27-.5,.68-.62,1.22-.13,.61-.3,1.22-.53,1.82-.22,.61-.46,1.25-.72,1.92,.38-.03,.74-.06,1.08-.1,.34-.03,.68-.08,1.03-.14,.99-.13,1.97-.24,2.93-.34,.96-.1,1.93-.22,2.93-.38,.38-.06,.78-.1,1.18-.1h1.2c.4,0,.79-.03,1.18-.1,.38-.06,.77-.19,1.15-.38,.16-.06,.32-.05,.48,.05,.7,.38,1.39,.74,2.06,1.08,.67,.34,1.31,.73,1.92,1.18,.35,.26,.62,.62,.82,1.08,.19,.46,.37,.92,.53,1.37,.13,.26,.11,.51-.05,.77-.16,.26-.42,.4-.77,.43-.51,.06-1.02,.13-1.54,.19-.51,.06-1.02,.08-1.54,.05-2.27,0-4.52,.14-6.74,.41-2.22,.27-4.44,.7-6.64,1.27-.29,.06-.58,.14-.86,.22-.29,.08-.56,.2-.82,.36-.16,.1-.3,.24-.43,.43-.13,.19-.19,.37-.19,.53,0,.45-.11,.83-.34,1.15-.22,.32-.51,.53-.86,.62-.26,.06-.56,.02-.91-.14-.35-.16-.62-.35-.82-.58-.61-.64-1.22-1.28-1.85-1.92-.62-.64-1.02-1.42-1.18-2.35-.06-.26-.21-.51-.43-.77-.22-.26-.3-.5-.24-.72,.1-.22,.3-.38,.6-.48,.3-.1,.55-.26,.74-.48,.38-.38,.62-.82,.72-1.3,.19-.96,.39-1.93,.6-2.9,.21-.97,.34-1.96,.41-2.95,.06-.64,.02-1.29-.12-1.94-.14-.65-.31-1.3-.5-1.94-.1-.35-.14-.63-.12-.84,.02-.21,.23-.39,.65-.55,.35-.06,.67-.2,.96-.41,.29-.21,.59-.41,.91-.6,.06-.06,.09-.17,.07-.31-.02-.14,0-.28,.02-.41,0-.06,0-.14-.02-.24-.02-.1,0-.19,.02-.29,.58-1.54,1.16-3.06,1.75-4.58,.59-1.52,1.14-3.06,1.65-4.63,.16-.42,.21-.86,.14-1.34-.06-.48-.11-.94-.14-1.39-.03-.35-.09-.72-.17-1.1-.08-.38-.15-.78-.22-1.2,.32,0,.6,0,.84,.02,.24,.02,.46,0,.65-.02,.26-.03,.47-.07,.65-.12s.25-.25,.22-.6c0-.35,.11-.55,.34-.6,.22-.05,.42,.02,.58,.22,.29,.26,.58,.39,.86,.41,.29,.02,.61,0,.96-.02,1.69-.19,3.38-.33,5.06-.41,1.68-.08,3.37-.04,5.06,.12h.89c.27,0,.55,.02,.84,.05,.64,.03,1.25,.11,1.82,.24,.58,.13,1.09,.45,1.54,.96,.06,.13,.18,.19,.34,.19,.61,.19,1.1,.45,1.46,.77,.37,.32,.66,.7,.89,1.13,.22,.43,.39,.89,.5,1.37,.11,.48,.22,.98,.31,1.49,.03,.13-.04,.29-.22,.48-.18,.19-.34,.3-.5,.34-.26,.03-.53,.03-.82,0-.29-.03-.56-.06-.82-.1-1.92-.22-3.85-.38-5.78-.46-1.94-.08-3.86,0-5.78,.22h-.19c-.8,.06-1.5,.24-2.11,.53-.61,.29-1.01,.91-1.2,1.87-.26,.93-.59,1.84-1.01,2.73-.42,.9-.82,1.84-1.2,2.83Z"/>
  <path class="cls-1" d="M124.56,35.53l4.22-2.11c.16-.06,.28-.18,.36-.36,.08-.18,.14-.34,.17-.5,.13-1.06,.26-2.13,.38-3.21,.13-1.09,.27-2.17,.43-3.26,.03-.26,.15-.5,.36-.72,.21-.22,.34-.45,.41-.67,.45-1.25,.87-2.49,1.27-3.72,.4-1.23,.79-2.47,1.18-3.72-.03,0-.06,0-.1-.02-.03-.02-.08-.02-.14-.02-.19,.51-.38,1.02-.58,1.51-.19,.5-.37,1-.53,1.51-.06,0-.14-.03-.24-.1,.26-.64,.49-1.29,.7-1.94,.21-.66,.44-1.3,.7-1.94,.61-1.57,1.22-3.11,1.82-4.63,.61-1.52,1.21-3.05,1.82-4.58,.38-.86,.77-1.71,1.15-2.54,.38-.83,.78-1.66,1.2-2.49,.13-.22,.27-.37,.43-.43,.38-.22,.83-.38,1.34-.46,.51-.08,1.03-.09,1.56-.02,.53,.06,1.03,.18,1.51,.36,.48,.18,.86,.41,1.15,.7,.45,.51,.67,1.02,.67,1.51s-.22,1.11-.67,1.85c-2.4,4.38-4.37,8.91-5.9,13.58-.26,.64-.5,1.28-.74,1.92s-.49,1.29-.74,1.97c-.16,.54-.3,1.07-.41,1.58-.11,.51-.23,1.02-.36,1.54-.16,.74-.32,1.49-.48,2.25-.16,.77-.32,1.57-.48,2.4l3.45-.77c1.41-.32,2.81-.62,4.2-.89,1.39-.27,2.79-.54,4.2-.79,.42-.06,.83-.02,1.25,.14,.42,.16,.83,.26,1.25,.29,.99,.06,1.81,.35,2.47,.86,.66,.51,1.18,1.17,1.56,1.97,.16,.26,.21,.58,.14,.96-.06,.38-.14,.72-.24,1.01-.06,.13-.29,.19-.67,.19s-.7,.02-.96,.05c-.77,0-1.54-.02-2.33-.07-.78-.05-1.54,0-2.28,.17-1.7,.42-3.37,.88-5.01,1.39-1.65,.51-3.32,1.02-5.01,1.54-.26,.06-.48,.16-.67,.29s-.4,.24-.62,.34l.24,.14c-.13,.16-.24,.31-.34,.46-.1,.14-.22,.25-.38,.31-.19,.13-.4,.24-.62,.34-.22,.1-.45,.13-.67,.1-.64-.1-1.23-.02-1.78,.22-.54,.24-1.09,.49-1.63,.74-1.34,.64-2.56,.75-3.65,.34-1.09-.42-1.89-1.28-2.4-2.59-.16-.35-.32-.68-.48-.98-.16-.3-.32-.62-.48-.94Z"/>
  <path class="cls-1" d="M190.53,9c-.74,.38-1.42,.8-2.06,1.25-.64,.45-1.25,.94-1.82,1.49-.29,.26-.71,.66-1.27,1.22-.56,.56-1.05,1.17-1.46,1.82-.42,.66-.66,1.29-.74,1.9-.08,.61,.22,1.09,.89,1.44,1.21,.74,2.33,1.55,3.33,2.45s1.81,2,2.42,3.31c.61,1.25,.84,2.56,.7,3.93s-.78,2.67-1.89,3.89c-.7,.77-1.56,1.57-2.57,2.4-1.01,.83-2.1,1.62-3.29,2.35-1.18,.74-2.41,1.35-3.67,1.85-1.26,.5-2.49,.78-3.69,.86-1.2,.08-2.32-.1-3.36-.55-1.04-.45-1.94-1.25-2.71-2.4-.26-.42-.46-.77-.62-1.06s-.19-.54-.1-.77c.1-.22,.34-.41,.74-.55,.4-.14,1.02-.28,1.85-.41,.64-.06,1.44-.29,2.4-.7,.96-.4,1.95-.89,2.97-1.49,1.02-.59,2.02-1.26,3-2.01,.97-.75,1.81-1.5,2.49-2.25,.69-.75,1.16-1.48,1.42-2.18s.19-1.31-.19-1.82c-.83-.67-1.67-1.33-2.52-1.97-.85-.64-1.67-1.28-2.47-1.92-.67-.51-1.17-1.07-1.49-1.68-.32-.61-.5-1.23-.53-1.87-.03-.64,.06-1.27,.29-1.9s.54-1.21,.96-1.75c.99-1.41,2.07-2.67,3.24-3.79,1.17-1.12,2.4-2.13,3.69-3.05,1.3-.91,2.65-1.75,4.05-2.52s2.85-1.5,4.32-2.21c.25,0,.5-.02,.74-.05,.24-.03,.47-.02,.7,.05,.38-.22,.94-.19,1.66,.1,.72,.29,1.46,.72,2.23,1.3s1.5,1.24,2.18,1.99c.69,.75,1.19,1.46,1.51,2.13,.42,.8,.21,1.38-.62,1.73-.38,.16-.78,.3-1.2,.41-.42,.11-.83,.25-1.25,.41-.83,.26-1.47,.7-1.92,1.32-.45,.62-.82,1.3-1.1,2.04-.19,.51-.56,.88-1.1,1.1-.54,.22-1.09,.24-1.63,.05-.99-.29-1.65-.77-1.97-1.46-.32-.69-.5-1.49-.53-2.42Z"/>
  <path class="cls-1" d="M203.43,6.79c.58,.03,1.15,.06,1.73,.07,.58,.02,1.15,.07,1.73,.17,.45,.03,.86,.19,1.22,.48,.37,.29,.66,.63,.89,1.03s.37,.85,.43,1.34c.06,.5,0,.95-.19,1.37-.29,.7-.57,1.43-.84,2.18-.27,.75-.58,1.54-.94,2.37,2.33-1.02,4.11-1.45,5.33-1.27,1.21,.18,2.06,.86,2.54,2.04,.32-1.06,.7-2.26,1.13-3.62s.86-2.75,1.29-4.17c.43-1.42,.86-2.8,1.27-4.13,.42-1.33,.78-2.5,1.1-3.53,.45,0,.9-.02,1.34-.05,.45-.03,.89-.02,1.34,.05,1.25,.32,2.13,.91,2.66,1.77,.53,.86,.6,1.9,.22,3.12-.32,1.06-.7,2.26-1.15,3.62-.45,1.36-.91,2.75-1.39,4.17-.48,1.42-.95,2.81-1.42,4.15-.46,1.34-.87,2.54-1.22,3.6-.42,1.12-.77,2.24-1.06,3.36-.29,1.12-.66,2.24-1.1,3.36-.51,1.28-.88,2.59-1.1,3.93-.22,1.34-.5,2.69-.82,4.03-.06,.38-.1,.78-.12,1.17-.02,.4-.06,.79-.12,1.18-.06,.42-.22,.73-.48,.94-.26,.21-.56,.28-.91,.22-.83-.13-1.51-.43-2.04-.91-.53-.48-1.02-1.02-1.46-1.63-.16-.22-.26-.64-.29-1.25-.03-.61-.04-1.25-.02-1.94,.02-.69,.05-1.34,.1-1.97,.05-.62,.09-1.08,.12-1.37,.13-.83,.3-1.62,.53-2.38,.22-.75,.46-1.54,.72-2.35s.52-1.68,.79-2.59c.27-.91,.5-1.94,.7-3.09-.7,.1-1.37,.17-1.99,.22-.62,.05-1.22,.15-1.8,.31-.74,.26-1.48,.54-2.23,.84-.75,.3-1.5,.6-2.23,.89-.51,.22-.88,.64-1.1,1.25-.45,1.47-.92,2.9-1.42,4.29-.5,1.39-.98,2.81-1.46,4.25-.19,.64-.37,1.29-.53,1.97-.16,.67-.32,1.33-.48,1.97-.13,.42-.28,.79-.46,1.13s-.52,.55-1.03,.65c-.67,.1-1.29,.02-1.85-.22-.56-.24-.97-.58-1.22-1.03-.22-.38-.48-.67-.77-.86-.45-.32-.7-.67-.77-1.06-.06-.38-.03-.8,.1-1.25,.38-1.54,.79-3.05,1.22-4.56,.43-1.5,.9-3.01,1.42-4.51,.26-.74,.26-1.36,0-1.87-.26-.51-.54-1.02-.86-1.54-.13-.16-.26-.33-.41-.5-.14-.17-.3-.36-.46-.55,.51-.22,.98-.44,1.42-.65,.43-.21,.89-.39,1.37-.55,.54-.16,.94-.43,1.17-.81,.24-.38,.44-.8,.6-1.25,.45-1.22,.89-2.44,1.32-3.67,.43-1.23,.87-2.45,1.32-3.67,.16-.45,.27-.88,.34-1.3,.06-.42,.16-.88,.29-1.39Z"/>
  <path class="cls-1" d="M242.58,32.79c-.83,1.22-1.76,2.35-2.78,3.41-1.02,1.05-2.27,1.85-3.74,2.4-1.54,.54-3,.71-4.39,.5-1.39-.21-2.78-.71-4.15-1.51-1.05-.61-1.9-1.3-2.54-2.09-.64-.78-1.1-1.62-1.39-2.52-.29-.89-.44-1.85-.46-2.85-.02-1.01,.06-2.04,.22-3.09,.19-1.18,.52-2.47,.98-3.86,.46-1.39,1-2.78,1.61-4.17,.61-1.39,1.25-2.73,1.94-4.01,.69-1.28,1.35-2.41,1.99-3.41,.58-.86,1.14-1.72,1.7-2.57,.56-.85,1.11-1.69,1.66-2.52,.42-.67,.94-1.13,1.58-1.39,.64-.26,1.3-.45,1.97-.58,.7-.16,1.42-.26,2.13-.29,.72-.03,1.43-.08,2.13-.14,.06,0,.14,0,.22,.02,.08,.02,.13,0,.17-.02,.58-.54,1.16-.77,1.75-.67,.59,.1,1.16,.29,1.7,.58,1.79,.93,3.25,2.13,4.37,3.6,1.12,1.47,1.81,3.23,2.06,5.28,.13,.99,.06,2.07-.22,3.24-.27,1.17-.66,2.37-1.17,3.6-.51,1.23-1.11,2.48-1.8,3.74s-1.38,2.46-2.06,3.6c-.69,1.14-1.34,2.2-1.97,3.19-.62,.99-1.13,1.84-1.51,2.54Zm-17.94,1.29c-.54-1.44-.82-2.82-.82-4.15s.14-2.65,.43-3.96c.35-1.25,.76-2.49,1.22-3.72,.46-1.23,.9-2.44,1.32-3.62-.7,.77-1.31,1.89-1.82,3.36-.51,1.47-.88,2.99-1.1,4.56-.22,1.57-.29,3.05-.19,4.44,.1,1.39,.42,2.42,.96,3.09Zm6.43-10.22c-.19,.61-.38,1.24-.55,1.9-.18,.66-.34,1.32-.5,1.99-.26,1.02-.35,2.06-.29,3.09,.06,1.04,.24,2.07,.53,3.09,.1,.35,.22,.59,.36,.72s.44,.11,.89-.05c.8-.32,1.65-.96,2.57-1.92,.91-.96,1.81-2.09,2.69-3.41,.88-1.31,1.73-2.71,2.57-4.2,.83-1.49,1.58-2.93,2.23-4.34,.66-1.41,1.18-2.69,1.58-3.84,.4-1.15,.63-2.03,.7-2.64,.06-.58,.06-1.08,0-1.51-.06-.43-.15-.85-.26-1.25-.11-.4-.24-.82-.38-1.25-.14-.43-.26-.94-.36-1.51-.03-.29-.12-.5-.26-.65-.14-.14-.46-.2-.94-.17-.93,.1-1.62,.45-2.06,1.06-.45,.61-.85,1.2-1.2,1.77-.48,.67-.93,1.51-1.37,2.52-.43,1.01-.8,2.06-1.1,3.17-.3,1.1-.5,2.2-.6,3.29-.1,1.09-.05,2.05,.14,2.88,.13,.54,.05,1.02-.24,1.42-.29,.4-.74,.57-1.34,.5-.45-.06-.9-.15-1.34-.26-.45-.11-.93-.25-1.44-.41Z"/>
  <path class="cls-1" d="M253.61,22.14c.38,.16,.72,.15,1.01-.02,.29-.17,.5-.47,.62-.89,.45-1.41,.9-2.79,1.34-4.15,.45-1.36,.89-2.73,1.34-4.1,.22-.9,.51-1.76,.86-2.59,.25-.54,.27-1.02,.05-1.44-.22-.42-.51-.83-.86-1.25l-2.35-2.64c.29-.1,.48-.22,.58-.38,.1-.16,.18-.32,.24-.48,.06-.16,.14-.31,.22-.46,.08-.14,.25-.25,.5-.31,.54-.1,.98-.16,1.3-.19,.32-.03,.62-.05,.89-.05s.57-.02,.89-.05c.32-.03,.75-.1,1.3-.19,1.06-.19,2.39-.34,4.01-.43,1.61-.1,3.26-.09,4.94,.02,1.68,.11,3.25,.34,4.72,.7,1.47,.35,2.59,.88,3.36,1.58,2.72,2.49,4.11,4.89,4.17,7.2,.06,2.3-1.06,4.7-3.36,7.2-.77,.83-1.58,1.63-2.45,2.4s-1.76,1.42-2.69,1.97c-1.09,.64-2.2,1.17-3.33,1.58-1.14,.42-2.27,.77-3.41,1.05-1.14,.29-2.25,.53-3.33,.72-1.09,.19-2.14,.4-3.17,.62-.26,.86-.5,1.74-.72,2.62-.22,.88-.42,1.78-.58,2.71-.16,.9-.3,1.8-.41,2.71-.11,.91-.25,1.83-.41,2.76-.1,.7-.46,1.12-1.1,1.25-.7,.06-1.38,.03-2.01-.1-.64-.13-1.26-.46-1.87-1.01-.16-.16-.34-.3-.55-.41-.21-.11-.41-.25-.6-.41-.35-.25-.62-.46-.82-.62-.19-.16-.33-.32-.41-.48-.08-.16-.1-.35-.07-.58,.03-.22,.08-.53,.14-.91,.13-.54,.26-1.06,.41-1.54,.14-.48,.28-.99,.41-1.54l-.05,.82c.1,0,.19,.02,.29,.05l.62-3.17h-.05c.16-.54,.32-1.06,.48-1.56,.16-.5,.32-1.01,.48-1.56-.03-.06-.09-.12-.17-.17-.08-.05-.15-.1-.22-.17-.48-.38-.84-.7-1.08-.96-.24-.26-.38-.51-.41-.77-.03-.26,.06-.56,.29-.91,.22-.35,.56-.85,1.01-1.49Zm8.11,3.84c-.16,.06-.29,.21-.38,.43,.22-.16,.38-.28,.46-.36,.08-.08,.06-.1-.07-.07Zm1.06-5.08c1.76-.32,3.35-.79,4.77-1.42,1.42-.62,2.68-1.33,3.77-2.13,1.21-.9,2.25-1.84,3.09-2.83,.85-.99,1.38-1.9,1.61-2.73,.22-.83,.07-1.53-.46-2.09-.53-.56-1.56-.84-3.09-.84-.9,0-1.77,.05-2.64,.14-.86,.1-1.71,.27-2.54,.53-.16,.06-.34,.17-.53,.31-.19,.14-.32,.3-.38,.46-.26,.67-.48,1.34-.67,2.01-.19,.67-.42,1.34-.67,2.02-.1,.38-.26,.86-.48,1.44-.22,.58-.45,1.18-.67,1.8-.22,.62-.44,1.23-.65,1.82-.21,.59-.36,1.1-.46,1.51Z"/>
</svg>