<?xml version="1.0" encoding="UTF-8"?>
<svg id="Layer_1" data-name="Layer 1" xmlns="http://www.w3.org/2000/svg" viewBox="0 0 209.6 33.94">
  <defs>
    <style>
      .cls-1 {
        fill: #fff;
      }
    </style>
  </defs>
  <path class="cls-1" d="M29.6,1.98c.43-.34,.9-.53,1.4-.59,.5-.06,1.02-.03,1.55,.09,.55,.12,1.07,.32,1.55,.59,.48,.28,.91,.69,1.3,1.24-.46,.7-.91,1.4-1.35,2.12-.44,.72-.91,1.45-1.39,2.2-.7,1.08-1.37,2.15-2.03,3.22-.66,1.07-1.33,2.14-2,3.22-.29,.53-.58,1.04-.86,1.55s-.56,1.03-.83,1.58c-.7,1.46-1.31,2.94-1.85,4.43-.54,1.49-.95,3.02-1.24,4.61l-.76,3.82c-.05,.19-.12,.41-.22,.67-.1,.25-.22,.4-.36,.45-.34,.1-.69,.15-1.06,.16-.37,.01-.71-.04-1.03-.16-.38-.14-.74-.36-1.08-.65-.34-.29-.7-.5-1.08-.65-.48-.19-.79-.46-.92-.81-.13-.35-.25-.71-.34-1.1,.1,.26,.24,.52,.43,.76,.02,0,.04-.01,.04-.04s.01-.04,.04-.04l-.97-3.53h-.11c.05,.36,.11,.72,.2,1.08s.15,.71,.2,1.04c-.07-.22-.16-.43-.27-.63-.11-.2-.19-.41-.25-.61-.06-.2-.09-.41-.09-.63s.06-.44,.18-.68c.14-.26,.17-.57,.09-.92-.08-.35-.14-.68-.16-.99-.07-.62-.15-1.25-.23-1.89-.08-.64-.21-1.27-.38-1.89l.61,5.62c-.14,0-.26-.02-.36-.07l-.61-9.4s-.11-.02-.25-.07c-.24,.34-.48,.67-.72,1.01-.24,.34-.46,.68-.65,1.04-.6,1.01-1.19,2.01-1.76,3.01-.58,1-1.13,2.01-1.66,3.04-.53,1.01-1.03,2.02-1.49,3.04-.47,1.02-.93,2.06-1.39,3.11-.46,1.06-1.04,1.67-1.76,1.85-.72,.18-1.62,.09-2.7-.27-.14-.05-.28-.13-.41-.25-.13-.12-.27-.24-.41-.36-.17-.12-.31-.24-.43-.36-.12-.12-.25-.22-.4-.29-.48-.26-.82-.56-1.03-.9-.2-.34-.29-.78-.27-1.33,.05-.36,.08-.72,.11-1.08,.02-.36,.04-.72,.04-1.08,.02-.6,.04-1.22,.05-1.87,.01-.65,.22-1.21,.63-1.69,.07-.1,.11-.21,.13-.34,.01-.13,0-.27-.02-.41-.07-.22-.09-.42-.05-.61,.04-.19,.1-.37,.2-.52,.1-.16,.2-.31,.32-.47,.12-.16,.23-.32,.32-.49,.02-.05,.04-.1,.04-.16s-.02-.14-.07-.23l-.32,.47s-.01-.09-.04-.13c-.02-.04-.04-.07-.04-.09,.29-.91,.56-1.82,.81-2.74,.25-.91,.53-1.82,.85-2.74,.41-1.22,.83-2.42,1.26-3.6,.43-1.18,.85-2.35,1.26-3.53,.14-.43,.26-.88,.36-1.33,.1-.46,.2-.91,.32-1.37,.05-.07,.12-.16,.22-.27,.1-.11,.19-.16,.29-.16,.41-.05,.81-.08,1.21-.11,.4-.02,.8-.01,1.21,.04,.46,.02,.87,.16,1.24,.4,.37,.24,.67,.54,.88,.9,.22,.36,.35,.75,.4,1.17,.05,.42-.02,.82-.22,1.21-.36,.74-.68,1.49-.95,2.23-.28,.74-.56,1.5-.85,2.27-.48,1.3-.96,2.59-1.44,3.89-.48,1.3-.97,2.6-1.48,3.92,.34,.07,.6,.08,.79,.04,.19-.05,.35-.26,.47-.65,.1-.38,.25-.74,.45-1.08,.2-.34,.39-.67,.56-1.01,.38-.7,.74-1.4,1.06-2.11,.32-.71,.68-1.41,1.06-2.11,.38-.65,.77-1.28,1.15-1.91,.38-.62,.78-1.25,1.19-1.87,.07-.12,.22-.22,.43-.29,.22-.07,.38-.08,.5-.04,.67,.24,1.34,.49,2,.74,.66,.25,1.3,.5,1.93,.74,.07,.02,.13,.08,.18,.18,.05,.1,.1,.17,.14,.22,.07,.19,.13,.38,.18,.56,.05,.18,.12,.35,.22,.52,.43,.7,.68,1.4,.76,2.12,.07,.72,.17,1.45,.29,2.2,.17,1.03,.29,2.05,.36,3.06,.07,1.01,.17,2.02,.29,3.02,.12-.31,.23-.64,.34-.97,.11-.34,.25-.68,.41-1.04,.1-.26,.21-.5,.34-.7,.13-.2,.26-.44,.38-.7l.07-.43c.1-.17,.22-.32,.36-.47,.14-.14,.23-.31,.25-.5,0-.34,.07-.65,.2-.94,.13-.29,.27-.56,.41-.83,.48-.84,.95-1.67,1.42-2.5,.47-.83,.94-1.66,1.42-2.5,.7-1.25,1.24-2.25,1.62-3.01,.38-.76,.67-1.36,.85-1.8,.18-.44,.29-.77,.34-.99,.05-.22,.08-.4,.09-.56,.01-.16,.04-.32,.09-.5,.05-.18,.16-.45,.32-.81Z"/>
  <path class="cls-1" d="M31.32,16.95l.9-2.88c.1-.38,.2-.77,.31-1.15,.11-.38,.2-.78,.27-1.19,.02-.02,.03-.05,.02-.07-.01-.02,0-.05,.05-.07,.12-.31,.27-.62,.45-.92,.18-.3,.31-.62,.38-.95,.07-.19,.07-.35,0-.47-.07-.12-.16-.23-.27-.32-.11-.1-.23-.19-.38-.27-.14-.08-.25-.19-.32-.31-.12-.1-.25-.18-.38-.25-.13-.07-.26-.15-.4-.23-.13-.08-.25-.19-.34-.31-.1-.12-.16-.29-.18-.5l4-.54c.58-.07,1.15-.16,1.71-.27,.56-.11,1.13-.17,1.71-.2,.36-.02,.71-.05,1.06-.09,.35-.04,.7-.04,1.06-.02,.36,.02,.72,.1,1.08,.22,.36,.12,.71,.31,1.04,.58,.5,.36,.71,.71,.61,1.04-.05,.12-.13,.25-.23,.38-.11,.13-.25,.22-.41,.27-.41,.12-.82,.23-1.24,.34-.42,.11-.83,.19-1.24,.23-.29,.05-.49,.13-.61,.25-.12,.12-.24,.31-.36,.58-.19,.58-.42,1.15-.68,1.71-.26,.56-.52,1.12-.76,1.67-.22,.62-.43,1.23-.65,1.82-.22,.59-.42,1.19-.61,1.82-.17,.48-.29,.81-.36,.99-.07,.18-.13,.33-.18,.45-.05,.12-.1,.27-.16,.45-.06,.18-.16,.52-.31,1.03-.24,1.03-.46,2.05-.65,3.06-.19,1.01-.38,2.04-.58,3.1-.07,.41-.04,.65,.09,.74,.13,.08,.4,.09,.81,.02,.79-.14,1.42-.19,1.87-.14,.46,.05,.82,.16,1.08,.34,.26,.18,.48,.41,.65,.7,.17,.29,.36,.59,.58,.9,.12,.24,.16,.42,.11,.54-.05,.12-.14,.24-.29,.36-.07,.05-.13,.14-.18,.27-.05,.13-.09,.28-.13,.43-.04,.16-.08,.29-.13,.41-.05,.12-.11,.17-.18,.14-1.03-.31-2.09-.41-3.19-.29-1.09,.12-2.15,.27-3.17,.45-1.02,.18-1.96,.31-2.81,.4-.85,.08-1.57-.05-2.14-.41-.26-.17-.45-.35-.56-.54-.11-.19-.17-.4-.2-.63-.02-.23-.02-.47,0-.72,.02-.25,.05-.51,.07-.77,.55-.17,1.15-.29,1.8-.38,.65-.08,1.26-.21,1.84-.38-.31-.34-.53-.66-.67-.97-.13-.31-.21-.62-.23-.94-.02-.31-.01-.62,.04-.94,.05-.31,.1-.64,.14-.97,.05-.48,.13-.96,.25-1.44,.12-.48,.23-.97,.32-1.48,.02,.22,.02,.43,0,.63-.02,.2-.04,.4-.04,.59h.07l1.87-7.06c-.19,.24-.34,.47-.43,.68l-.61,1.48Z"/>
  <path class="cls-1" d="M54.22,17.96c.24-.7,.47-1.42,.68-2.18,.22-.76,.46-1.48,.72-2.18,.22-.77,.45-1.52,.7-2.27,.25-.74,.51-1.48,.77-2.2,.26-.77,.51-1.52,.74-2.27,.23-.74,.5-1.46,.81-2.16,.14-.34,.25-.69,.32-1.06,.07-.37,.15-.75,.23-1.13,.08-.38,.19-.75,.32-1.1,.13-.35,.32-.68,.56-.99,.58,.34,1.12,.63,1.62,.88s1.02,.51,1.55,.77c.46,.24,.79,.56,1.01,.97,.22,.41,.23,.85,.04,1.33-.55,1.58-1.12,3.14-1.71,4.68-.59,1.54-1.15,3.1-1.67,4.68-.65,1.9-1.28,3.79-1.89,5.69-.61,1.9-1.19,3.82-1.75,5.76-.17,.55-.29,1.12-.36,1.71-.07,.59-.05,1.19,.07,1.82,.07,.41-.04,.74-.34,1.01-.3,.26-.69,.41-1.17,.43-.7,.02-1.38-.11-2.05-.4-.67-.29-1.27-.64-1.8-1.04-.53-.34-.92-.73-1.19-1.17-.26-.44-.47-.93-.61-1.46-.19-.58-.42-1.15-.68-1.71-.26-.56-.41-1.17-.43-1.82-.02-.58-.05-1.16-.07-1.75-.02-.59-.07-1.19-.14-1.82-.05-.34-.12-.68-.22-1.03-.1-.35-.17-.69-.22-1.03h-.29c-.22,.65-.44,1.3-.68,1.94-.24,.65-.47,1.3-.68,1.94-.34,1.03-.67,2.06-.99,3.08-.32,1.02-.63,2.06-.92,3.11-.12,.48-.2,.96-.23,1.44-.04,.48-.05,.97-.05,1.48,0,.38-.11,.62-.34,.7-.23,.08-.44,.16-.63,.23-.94,.26-1.73,.04-2.38-.68-.07-.12-.19-.23-.36-.32-.34-.1-.59-.24-.76-.43-.17-.19-.29-.4-.36-.63-.07-.23-.1-.47-.09-.74,.01-.26,.03-.52,.05-.76,.1-.65,.22-1.28,.38-1.91,.16-.62,.33-1.24,.52-1.84,.41-1.3,.83-2.59,1.28-3.89,.44-1.3,.89-2.59,1.35-3.89,.36-1.03,.72-2.05,1.08-3.06,.36-1.01,.71-2.03,1.04-3.06,.17-.48,.28-.97,.32-1.46,.05-.49,.12-.98,.22-1.46,.05-.1,.1-.2,.16-.31,.06-.11,.13-.17,.2-.2,.84-.17,1.66-.25,2.47-.25s1.59,.26,2.36,.79c.38,.26,.67,.58,.86,.94,.19,.36,.32,.76,.4,1.19,.12,.79,.23,1.58,.32,2.36,.1,.78,.19,1.55,.29,2.32,.07,.7,.15,1.38,.23,2.05,.08,.67,.15,1.34,.2,2.02,.05,.48,.1,.95,.16,1.4,.06,.46,.13,.92,.2,1.4l.83-2.52Zm3.24-8.06c-.26,.7-.53,1.41-.79,2.14-.26,.73-.53,1.45-.79,2.14l.25,.11,.29-.79,1.12-3.56c.22-.48,.41-.97,.59-1.46,.18-.49,.37-.98,.56-1.46-.07,0-.13-.02-.18-.07l-1.04,2.95Z"/>
  <path class="cls-1" d="M70.2,28.01c.26-.41,.54-.8,.83-1.19,.29-.38,.56-.78,.83-1.19,.6-.91,1.21-1.8,1.82-2.66,.61-.86,1.21-1.75,1.78-2.66,.67-1.08,1.31-2.15,1.93-3.22,.61-1.07,1.24-2.14,1.89-3.22l4.36-7.6c.22-.38,.4-.77,.54-1.17s.31-.77,.5-1.13c.07-.1,.17-.17,.31-.23,.13-.06,.26-.13,.38-.2,.07-.02,.14-.03,.2-.02,.06,.01,.13,0,.2-.02,.65-.07,1.13-.31,1.46-.72,.32-.41,.46-.95,.41-1.62-.05-.34,0-.56,.14-.67s.37-.19,.68-.23c.29,0,.58-.02,.86-.07,.29-.05,.6-.1,.94-.14,.31-.07,.63-.03,.95,.13,.32,.16,.61,.38,.86,.67,.25,.29,.44,.61,.56,.95,.12,.35,.13,.68,.04,.99-.38,1.22-.8,2.43-1.24,3.62-.44,1.19-.85,2.38-1.21,3.58-.65,2.16-1.31,4.29-2,6.39-.68,2.1-1.22,4.24-1.6,6.43-.05,.41,.02,.77,.22,1.08,.19,.41,.25,.74,.16,.99-.08,.25-.29,.5-.63,.74-.24,.17-.36,.38-.36,.65-.1,.98-.17,1.96-.22,2.92-.05,.96-.11,1.92-.18,2.88-.02,.29-.06,.59-.11,.9-.05,.31-.24,.54-.58,.68-.34,.14-.68,.25-1.04,.31-.36,.06-.71-.08-1.04-.41-.14-.14-.33-.25-.56-.31-.23-.06-.4-.16-.52-.31-.19-.12-.33-.29-.41-.5-.08-.22-.17-.42-.27-.61l.07-.07c.07-.07,.13-.12,.18-.14l.07-5.11c-.67,.19-1.34,.4-2.02,.61-.67,.22-1.36,.42-2.05,.61-.05,0-.11,.02-.18,.07-.07,.05-.13,.05-.18,0-.5-.14-.87-.08-1.1,.2-.23,.28-.44,.58-.63,.92-.34,.6-.81,.97-1.42,1.1-.61,.13-1.28-.08-2-.63-.29-.22-.56-.43-.81-.65s-.52-.44-.81-.68Zm13.25-11.95s-.05-.04-.09-.04-.07-.01-.09-.04l-3.89,6.55,2.48-.54,.04,.04s.1,.07,.14,.07l.68-3.1c.12-.5,.24-1,.36-1.49,.12-.49,.24-.98,.36-1.46Z"/>
  <path class="cls-1" d="M97.89,28.55l3.17-1.58c.12-.05,.21-.14,.27-.27,.06-.13,.1-.26,.13-.38,.1-.79,.19-1.6,.29-2.41,.1-.82,.2-1.63,.32-2.45,.02-.19,.11-.37,.27-.54,.16-.17,.26-.34,.31-.5,.34-.94,.65-1.87,.95-2.79,.3-.92,.59-1.85,.88-2.79-.02,0-.05,0-.07-.02-.02-.01-.06-.02-.11-.02-.14,.38-.29,.76-.43,1.13-.14,.37-.28,.75-.4,1.13-.05,0-.11-.02-.18-.07,.19-.48,.37-.97,.52-1.46,.16-.49,.33-.98,.52-1.46,.46-1.18,.91-2.33,1.37-3.47,.46-1.14,.91-2.29,1.37-3.44,.29-.65,.58-1.28,.87-1.91,.29-.62,.59-1.25,.9-1.87,.1-.17,.21-.28,.32-.32,.29-.17,.62-.28,1.01-.34,.38-.06,.78-.07,1.17-.02,.4,.05,.78,.14,1.13,.27,.36,.13,.65,.31,.86,.52,.34,.38,.5,.76,.5,1.13s-.17,.83-.5,1.39c-1.8,3.29-3.28,6.68-4.43,10.19-.19,.48-.38,.96-.56,1.44-.18,.48-.37,.97-.56,1.48-.12,.41-.22,.8-.31,1.19-.08,.38-.17,.77-.27,1.15-.12,.55-.24,1.12-.36,1.69-.12,.58-.24,1.18-.36,1.8l2.59-.58c1.06-.24,2.11-.46,3.15-.67,1.04-.2,2.09-.4,3.15-.59,.31-.05,.62-.01,.94,.11,.31,.12,.62,.19,.94,.22,.74,.05,1.36,.26,1.86,.65,.49,.38,.88,.88,1.17,1.48,.12,.19,.15,.43,.11,.72-.05,.29-.11,.54-.18,.76-.05,.1-.22,.14-.5,.14s-.53,.01-.72,.04c-.58,0-1.16-.02-1.75-.05-.59-.04-1.16,0-1.71,.13-1.27,.31-2.53,.66-3.76,1.04-1.24,.38-2.49,.77-3.76,1.15-.19,.05-.36,.12-.5,.22-.14,.1-.3,.18-.47,.25l.18,.11c-.1,.12-.18,.23-.25,.34s-.17,.19-.29,.23c-.14,.1-.3,.18-.47,.25-.17,.07-.34,.1-.5,.07-.48-.07-.92-.02-1.33,.16-.41,.18-.82,.37-1.22,.56-1.01,.48-1.92,.56-2.74,.25-.82-.31-1.42-.96-1.8-1.94-.12-.26-.24-.51-.36-.74-.12-.23-.24-.46-.36-.7Z"/>
  <path class="cls-1" d="M118.22,28.01c.26-.41,.54-.8,.83-1.19,.29-.38,.56-.78,.83-1.19,.6-.91,1.21-1.8,1.82-2.66,.61-.86,1.21-1.75,1.78-2.66,.67-1.08,1.31-2.15,1.93-3.22,.61-1.07,1.24-2.14,1.89-3.22l4.36-7.6c.22-.38,.4-.77,.54-1.17,.14-.4,.31-.77,.5-1.13,.07-.1,.17-.17,.31-.23,.13-.06,.26-.13,.38-.2,.07-.02,.14-.03,.2-.02,.06,.01,.13,0,.2-.02,.65-.07,1.13-.31,1.46-.72,.32-.41,.46-.95,.41-1.62-.05-.34,0-.56,.14-.67,.14-.11,.37-.19,.68-.23,.29,0,.58-.02,.86-.07,.29-.05,.6-.1,.94-.14,.31-.07,.63-.03,.95,.13,.32,.16,.61,.38,.86,.67,.25,.29,.44,.61,.56,.95,.12,.35,.13,.68,.04,.99-.38,1.22-.8,2.43-1.24,3.62-.44,1.19-.85,2.38-1.21,3.58-.65,2.16-1.31,4.29-2,6.39-.68,2.1-1.22,4.24-1.6,6.43-.05,.41,.02,.77,.22,1.08,.19,.41,.25,.74,.16,.99s-.29,.5-.63,.74c-.24,.17-.36,.38-.36,.65-.1,.98-.17,1.96-.22,2.92-.05,.96-.11,1.92-.18,2.88-.02,.29-.06,.59-.11,.9-.05,.31-.24,.54-.58,.68-.34,.14-.68,.25-1.04,.31-.36,.06-.71-.08-1.04-.41-.14-.14-.33-.25-.56-.31-.23-.06-.4-.16-.52-.31-.19-.12-.33-.29-.41-.5-.08-.22-.17-.42-.27-.61l.07-.07c.07-.07,.13-.12,.18-.14l.07-5.11c-.67,.19-1.34,.4-2.02,.61-.67,.22-1.36,.42-2.05,.61-.05,0-.11,.02-.18,.07-.07,.05-.13,.05-.18,0-.5-.14-.87-.08-1.1,.2-.23,.28-.44,.58-.63,.92-.34,.6-.81,.97-1.42,1.1-.61,.13-1.28-.08-2-.63-.29-.22-.56-.43-.81-.65s-.52-.44-.81-.68Zm13.25-11.95s-.05-.04-.09-.04-.07-.01-.09-.04l-3.89,6.55,2.48-.54,.04,.04s.1,.07,.14,.07l.68-3.1c.12-.5,.24-1,.36-1.49,.12-.49,.24-.98,.36-1.46Z"/>
  <path class="cls-1" d="M161.46,16.49c.05-.19,.1-.38,.14-.58,.05-.19,.1-.38,.14-.58,.05-.12,.08-.25,.09-.38,.01-.13,.04-.26,.09-.38,.07-.02,.16-.04,.27-.04s.17-.02,.2-.07c.12-.26,.22-.53,.29-.81,.07-.28,.16-.55,.25-.81l-.04-.07h-.04l-.5,.68,1.44-3.6s0-.09,.02-.13c.01-.04,.03-.08,.05-.13l-.14-.11-2.41,2.63c-.7,.79-1.38,1.59-2.05,2.39-.67,.8-1.32,1.63-1.94,2.47-.84,1.13-1.62,2.29-2.32,3.47-.71,1.19-1.29,2.47-1.75,3.83-.19,.62-.57,1.07-1.13,1.33-.56,.26-1.19,.28-1.89,.04-.55-.14-1.09-.34-1.6-.58-.52-.24-1.04-.49-1.57-.76-.12-.05-.25-.16-.38-.32-.13-.17-.21-.32-.23-.47-.05-.36-.1-.73-.14-1.12-.05-.38-.05-.74,0-1.08,.12-.74,.1-1.46-.05-2.16-.16-.7-.26-1.4-.31-2.12,0-.6-.12-1.18-.36-1.73-.07,.19-.15,.38-.23,.58-.08,.19-.15,.38-.2,.58l-3.13,11.05c-.14,.53-.28,1.04-.4,1.55s-.25,1.02-.4,1.55c-.07,.29-.22,.53-.43,.74-.22,.2-.46,.35-.74,.45-.28,.1-.57,.14-.88,.13-.31-.01-.59-.1-.83-.27-.5-.29-.92-.56-1.24-.83-.32-.26-.54-.56-.67-.88-.12-.32-.15-.68-.09-1.08,.06-.4,.2-.86,.41-1.39,.14-.29,.23-.59,.25-.92,.02-.32,.1-.62,.22-.88,.17-.24,.27-.47,.31-.68,.04-.22,.08-.47,.13-.76,.05-.53,.17-1.03,.36-1.51,.19-.48,.37-.96,.54-1.44-.02,.12-.04,.22-.05,.31-.01,.08-.04,.19-.09,.31,.48-.34,.65-.83,.5-1.48,0-.12-.01-.23-.04-.34-.02-.11-.02-.21,0-.31l1.94-6.59,1.66-5.51c0-.1,0-.2,.02-.31,.01-.11,.02-.22,.02-.34,.02-.29,.04-.52,.05-.68,.01-.17,.05-.29,.13-.36,.07-.07,.19-.12,.34-.14s.37-.04,.63-.04c-.02-.12-.06-.23-.11-.32-.05-.1-.08-.2-.11-.32,.14-.05,.28-.09,.4-.13,.12-.04,.24-.05,.36-.05,.55,.05,1.11,.1,1.67,.16,.56,.06,1.12,.13,1.67,.2,.67,.1,1.2,.34,1.58,.74s.67,.87,.86,1.42c.12,.31,.18,.62,.18,.92s-.02,.59-.05,.88c-.04,.29-.08,.58-.13,.88-.05,.3-.05,.59,0,.88,.07,.67,.14,1.34,.22,2.02,.07,.67,.17,1.34,.29,2.02,.1,.41,.2,.82,.31,1.24,.11,.42,.22,.87,.34,1.35,.24-.34,.47-.66,.7-.97,.23-.31,.46-.64,.7-.97,.77-.94,1.52-1.88,2.25-2.83,.73-.95,1.48-1.88,2.25-2.79,.89-1.03,1.79-2.05,2.7-3.04,.91-1,1.81-2.01,2.7-3.04,.36-.43,.77-.81,1.24-1.13,.47-.32,.98-.59,1.53-.81,.12-.05,.25-.06,.4-.04,.14,.02,.28,.07,.4,.14,.58,.22,1.15,.44,1.71,.67,.56,.23,1.13,.46,1.71,.7,.46,.24,.82,.63,1.08,1.17,.26,.54,.31,1.05,.14,1.53-.34,.98-.7,1.95-1.1,2.9-.4,.95-.79,1.91-1.17,2.9-.62,1.61-1.26,3.2-1.91,4.79-.65,1.58-1.27,3.19-1.87,4.82-.41,1.15-.8,2.3-1.17,3.46-.37,1.15-.71,2.3-1.03,3.46-.14,.5-.21,1.04-.2,1.6,.01,.56-.02,1.1-.09,1.6-.02,.17-.13,.32-.31,.47s-.37,.24-.56,.29c-.48,.14-.95,.17-1.4,.07-.46-.1-.9-.28-1.33-.54-.58-.31-1.16-.62-1.76-.94-.19-.72-.23-1.42-.13-2.09,.11-.67,.31-1.34,.59-2.02l-.36,3.17c.12-.41,.23-.8,.32-1.17,.1-.37,.2-.75,.32-1.13l3.13-9.18c.05-.14,.06-.3,.04-.47-.02-.17-.05-.35-.07-.54,.12-.02,.23-.08,.32-.18v-.14l.5-.94Z"/>
  <path class="cls-1" d="M172.04,12.6l-.58,.4c.24-.67,.47-1.31,.7-1.93,.23-.61,.44-1.23,.63-1.85,.17-.53,.32-1.04,.45-1.55s.26-1.02,.38-1.55c.05-.12,.09-.23,.13-.32,.04-.1,.08-.19,.13-.29,.05-.19,.13-.37,.23-.52,.11-.16,.14-.31,.09-.45,0-.34,.07-.56,.2-.68,.13-.12,.33-.18,.59-.18,1.27-.05,2.53-.1,3.76-.16,1.24-.06,2.5-.08,3.8-.05,.7,0,1.39,.05,2.07,.14,.68,.1,1.37,.19,2.07,.29,1.08,.19,1.93,.62,2.54,1.28,.61,.66,1.08,1.45,1.42,2.36,.14,.34,.27,.67,.38,.99,.11,.32,.21,.65,.31,.99,.12,.48,.08,.89-.11,1.24-.19,.35-.42,.68-.68,.99-.7,.79-1.46,1.49-2.29,2.11-.83,.61-1.67,1.19-2.54,1.75l-5.18,3.06c.43,.29,.87,.58,1.31,.86,.44,.29,.86,.61,1.24,.97,.48,.48,.92,.99,1.31,1.53,.4,.54,.54,1.17,.45,1.89-.02,.31-.11,.59-.25,.85-.14,.25-.29,.5-.43,.74-.48,.62-1.04,1.12-1.67,1.48-.64,.36-1.27,.71-1.89,1.04-1.34,.72-2.7,1.36-4.07,1.93-1.37,.56-2.8,.99-4.28,1.28-.62,.12-1.27,.19-1.93,.2-.66,.01-1.31,0-1.96-.05-.26-.02-.52-.13-.77-.32-.25-.19-.5-.38-.74-.58-.22-.19-.41-.41-.58-.67s-.35-.5-.54-.74c.19-.12,.36-.18,.5-.18,.41-.1,.6-.35,.58-.76-.02-.36-.02-.76,.02-1.19,.04-.43,.1-.86,.18-1.3,.08-.43,.19-.84,.31-1.22,.12-.38,.25-.72,.4-1.01l-.72,3.85s.11,.07,.18,.07c.24-1.27,.55-2.52,.94-3.74,.38-1.22,.8-2.44,1.24-3.65,.44-1.21,.9-2.42,1.37-3.64,.47-1.21,.91-2.44,1.31-3.69Zm8.1,8.75c-.5-.12-.98-.22-1.44-.29-.46-.07-.91-.16-1.37-.25-.46-.1-.91-.21-1.35-.34-.44-.13-.93-.26-1.46-.38l-2.34,6.7c.72-.36,1.45-.7,2.2-1.03,.74-.32,1.46-.68,2.16-1.08,.7-.4,1.35-.86,1.96-1.39,.61-.53,1.16-1.18,1.64-1.94Zm6.52-13.18c-.46-.12-.87-.25-1.24-.4s-.75-.22-1.13-.22c-.74-.02-1.48-.01-2.21,.04-.73,.05-1.45,.23-2.14,.54-.22,.12-.38,.17-.5,.14-.29-.05-.48,0-.58,.14s-.18,.31-.25,.5l-1.69,4.79c-.12,.34-.24,.68-.36,1.03-.12,.35-.25,.76-.4,1.24,.96-.55,1.91-1.1,2.86-1.66s1.87-1.13,2.75-1.75c.89-.61,1.75-1.28,2.57-2,.83-.72,1.6-1.52,2.32-2.41Z"/>
  <path class="cls-1" d="M203,26.49c-.62,.91-1.32,1.76-2.09,2.56-.77,.79-1.7,1.39-2.81,1.8-1.15,.41-2.25,.53-3.29,.38-1.04-.16-2.08-.53-3.11-1.13-.79-.46-1.43-.98-1.91-1.57-.48-.59-.83-1.22-1.04-1.89s-.33-1.39-.34-2.14c-.01-.76,.04-1.53,.16-2.32,.14-.89,.39-1.85,.74-2.9s.75-2.09,1.21-3.13,.94-2.05,1.46-3.01c.52-.96,1.01-1.81,1.49-2.56,.43-.65,.86-1.29,1.28-1.93,.42-.64,.83-1.27,1.24-1.89,.31-.5,.71-.85,1.19-1.04,.48-.19,.97-.34,1.48-.43,.53-.12,1.06-.19,1.6-.22,.54-.02,1.07-.06,1.6-.11,.05,0,.1,0,.16,.02,.06,.01,.1,0,.13-.02,.43-.41,.87-.58,1.31-.5,.44,.07,.87,.22,1.28,.43,1.34,.7,2.44,1.6,3.28,2.7,.84,1.1,1.36,2.42,1.55,3.96,.1,.74,.04,1.55-.16,2.43-.21,.88-.5,1.78-.88,2.7-.38,.92-.83,1.86-1.35,2.81-.52,.95-1.03,1.85-1.55,2.7-.52,.85-1.01,1.65-1.48,2.39-.47,.74-.85,1.38-1.13,1.91Zm-13.46,.97c-.41-1.08-.61-2.12-.61-3.11s.11-1.99,.32-2.97c.26-.94,.57-1.87,.92-2.79,.35-.92,.68-1.83,.99-2.72-.53,.58-.98,1.42-1.37,2.52-.38,1.1-.66,2.24-.83,3.42-.17,1.18-.22,2.29-.14,3.33,.07,1.04,.31,1.82,.72,2.32Zm4.82-7.67c-.14,.46-.28,.93-.41,1.42-.13,.49-.26,.99-.38,1.49-.19,.77-.26,1.54-.22,2.32,.05,.78,.18,1.55,.4,2.32,.07,.26,.16,.44,.27,.54,.11,.1,.33,.08,.67-.04,.6-.24,1.24-.72,1.93-1.44,.68-.72,1.36-1.57,2.02-2.56,.66-.98,1.3-2.03,1.93-3.15,.62-1.12,1.18-2.2,1.67-3.26,.49-1.06,.89-2.02,1.19-2.88,.3-.86,.47-1.52,.52-1.98,.05-.43,.05-.81,0-1.13-.05-.32-.11-.64-.2-.94-.08-.3-.18-.61-.29-.94-.11-.32-.2-.7-.27-1.13-.02-.22-.09-.38-.2-.49-.11-.11-.34-.15-.7-.13-.7,.07-1.21,.34-1.55,.79-.34,.46-.64,.9-.9,1.33-.36,.5-.7,1.13-1.03,1.89-.32,.76-.6,1.55-.83,2.38-.23,.83-.38,1.65-.45,2.47s-.04,1.54,.11,2.16c.1,.41,.04,.76-.18,1.06-.22,.3-.55,.43-1.01,.38-.34-.05-.67-.11-1.01-.2-.34-.08-.7-.19-1.08-.31Z"/>
</svg>