<?xml version="1.0" encoding="UTF-8"?>
<svg id="Layer_1" data-name="Layer 1" xmlns="http://www.w3.org/2000/svg" viewBox="0 0 394.7 428.96">
  <defs>
    <style>
      .cls-1 {
        fill: #fff;
      }
    </style>
  </defs>
  <path class="cls-1" d="M206.6,.66c-1.7,.4-4.5,2.4-6.3,4.5-2.8,3.1-3.8,3.6-7.5,3.6-8.1,0-30.1,4.9-47.9,10.7-27.1,8.8-47.5,26.3-53.6,46-4.5,14.5-7.7,40.8-6.8,55.2,.2,3.5,.2,5.9,0,5.3s-.9-.9-1.6-.6-1.9-.3-2.6-1.3c-1.2-1.5-1.2-1.6,0-.6,2.1,1.9,3.5,1.6,1.9-.4-3.7-4.4-21.2-9.1-29.7-7.8-10.2,1.5-19.1,7-25.9,15.9-4.8,6.4-17,30.8-23.1,46.1-3,7.7-3.5,10.1-3.5,17,.1,13.2,8.3,37.9,17.5,52.7l2.2,3.6-4.6,5c-6.2,6.6-9,12.3-9.6,19.8-.5,7.2,.7,10,5.2,11.9,3.5,1.5,9.4,.7,14.6-2,4.3-2.2,11.3-9.7,13.9-14.9,2-4.2,2.6-4.7,4.8-4.1,1.3,.3,6.1,1,10.6,1.6,14,1.8,48.7-.6,44.6-3.1-.8-.6,0-1.1,2.4-1.5,4.3-.8,5.7-.1,5.6,2.8v2.2l-.9-2.3c-.6-1.4-1.7-2.2-3.2-2.1h-2.3l2.2,.9c2.5,1,2.6,.1-.7,17.5-3.9,20.3-10,64.1-10,71.3,0,1.3,.4,2,1,1.7,.6-.4,1,.7,1,2.7l.1,3.3,1.9-3.5c1.5-2.7,1.9-3,2-1.5,.1,3.1,1.6-.1,2.3-5l.6-4-1.4,3.5c-1.7,4.4-1.8,1.7,0-3l1.3-3.5,.8,3,.8,3,.6-3c.4-1.7,.6,.5,.6,5-.1,6.8,.3,8.9,2.6,13.9,2.1,4.3,3.2,5.7,4.3,5.2,.9-.3,1.8,.1,2.1,.9,1.2,3,2.4,1.4,2.5-3.3,0-2.6,.3-4,.6-3.2,.2,.8,1.1,2.8,1.8,4.5,.7,1.6,2.4,6.1,3.9,10,2.8,7.3,5.7,11.7,7.5,11.3,.5-.2,1.7,.6,2.6,1.7,1.5,1.9,1.5,1.8,1.2-2.5-.3-2.5-.2-3.7,0-2.8,.2,1,.9,1.8,1.4,1.8,1.1,0,1.1-.7-.1-4.9-.5-1.9-.6-4-.1-4.8,.6-1.1,1.4-.4,3.4,2.9,2.2,3.6,2.6,3.9,2.7,2,0-1.3,.4-2,1-1.7s1,.1,1-.6c0-.8,.6-.6,1.8,.4,1.4,1.3,2.1,1.4,3,.5s1.2-.9,1.2,.2c0,2.7,5.7,13.6,9.1,17.4,5.4,6.3,16.6,13,30.4,18.5,17.3,6.8,24.8,8.2,37.8,7.5,5.6-.4,17.1-.1,25.7,.6,31.2,2.5,55.1,1.1,72-4.1,13.7-4.3,18.4-9.3,17.9-19-.2-3.8,.2-5.3,1.6-6.7q1.9-1.6,0,.8t.9-.1l2.8-2.6-2.2-4.3-2.1-4.2,2.6-6.5c3.8-9.6,5.1-20.7,3.6-31-1.7-12.2-7-28.6-14.3-44.3-2.2-4.7-5-10.9-6.4-13.8-2.1-4.5-2.4-6.7-2.4-16.2,0-12.1-.8-10.7,8.7-16.8,4.3-2.7,19.7-16.8,34.3-31.2,18.1-17.8,26.2-34.8,26.4-55,.1-11.3-2.1-20.9-6.7-29.5-4.1-7.6-9-10.4-20.1-11.2-13.3-1-24.6,2.5-33.1,10.3-2.1,1.9-3.4,2.6-3,1.6,.4-.9,.9-3.3,1.2-5.2s1.2-4.2,1.9-5.1c.8-.9,1.2-1.8,.9-2.1s.3-1.1,1.2-1.9c1.6-1.3,1.7-1.2,.4,.3-.7,1-.9,1.8-.4,1.8,1.2,0,16.3-12.8,16.3-13.8,0-.4,1.9-2.7,4.3-5.2s6.3-7.2,8.8-10.5c17.4-23,21.5-33.1,17.3-42-2.1-4.5-9.5-11.3-16.9-15.7-7.9-4.6-24-9.9-31.8-10.5-9.7-.7-10.4-1-14.7-6.8-6.7-9.1-15.6-13.1-36.4-16.5-20.7-3.4-29.6-4.2-44.6-4.2h-14.5l-3.2-3c-3.4-3.3-9.1-4.4-15-2.9Zm8.5,1.8c-1.6,.2-4,.2-5.5,0-1.6-.2-.3-.4,2.7-.4s4.3,.2,2.8,.4Zm-9.9,.6c-.2,.1-1.5,1.1-2.9,2.2l-2.5,2,1.9-2.3c1.1-1.2,2.4-2.2,2.9-2.2,.6,0,.8,.1,.6,.3Zm26.6,5l8,.3-8.5,.1q-8.5,.2-10.9-3l-2.5-3.2,3,2.7c2.6,2.4,3.9,2.7,10.9,3.1Zm-32.2,1.8c-.6,.6-2.1,.9-3.4,.6q-2.2-.4,.4-.6c1.5,0,2.7-.6,2.7-1.3,0-.6,.3-.8,.7-.5,.4,.4,.2,1.2-.4,1.8Zm51-1.4c-1.3,.2-3.3,.2-4.5,0-1.3-.2-.3-.4,2.2-.4s3.5,.2,2.3,.4Zm10,1c-1.3,.2-3.3,.2-4.5,0-1.3-.2-.3-.4,2.2-.4s3.5,.2,2.3,.4Zm8,1c-.7,.2-2.1,.2-3,0-1-.3-.4-.5,1.2-.5,1.7,0,2.4,.2,1.8,.5Zm-82,1c-.7,.2-1.9,.2-2.5,0-.7-.3-.2-.5,1.2-.5s1.9,.2,1.3,.5Zm90,0c-.7,.2-1.9,.2-2.5,0-.7-.3-.2-.5,1.2-.5s1.9,.2,1.3,.5Zm-96.6,.9c-.3,.3-1.2,.4-1.9,.1-.8-.3-.5-.6,.6-.6,1.1-.1,1.7,.2,1.3,.5Zm103.6,.1c-.7,.2-1.9,.2-2.5,0-.7-.3-.2-.5,1.2-.5s1.9,.2,1.3,.5Zm-107.6,.9c-.3,.3-1.2,.4-1.9,.1-.8-.3-.5-.6,.6-.6,1.1-.1,1.7,.2,1.3,.5Zm113.6,.1c-.7,.2-2.1,.2-3,0-1-.3-.4-.5,1.2-.5,1.7,0,2.4,.2,1.8,.5Zm-117.6,.9c-.3,.3-1.2,.4-1.9,.1-.8-.3-.5-.6,.6-.6,1.1-.1,1.7,.2,1.3,.5Zm122,0c-.3,.3-1.2,.4-1.9,.1-.8-.3-.5-.6,.6-.6,1.1-.1,1.7,.2,1.3,.5Zm-126.4,1.1c-.7,.2-1.9,.2-2.5,0-.7-.3-.2-.5,1.2-.5s1.9,.2,1.3,.5Zm130.4-.1c-.3,.3-1.2,.4-1.9,.1-.8-.3-.5-.6,.6-.6,1.1-.1,1.7,.2,1.3,.5Zm-135,1c-.3,.3-1.2,.4-1.9,.1-.8-.3-.5-.6,.6-.6,1.1-.1,1.7,.2,1.3,.5Zm140.3,.4c.8,.5,1.1,1,.5,1-.5,0-1.7-.5-2.5-1s-1-1-.5-1c.6,0,1.7,.5,2.5,1Zm12.5,8c2.1,2.2,3.7,4,3.4,4s-2.3-1.8-4.4-4-3.7-4-3.4-4,2.3,1.8,4.4,4Zm-175.6-1.6c-1,.9-16.9,8.6-16.9,8.1,0-.6,15.1-8.4,16.4-8.5,.5,0,.7,.2,.5,.4Zm183.6,11.4c-.3,.3-1.1,0-1.8-.7-.9-1-.8-1.1,.6-.5,1,.3,1.5,.9,1.2,1.2Zm9.8,.9c-.7,.2-2.1,.2-3,0-1-.3-.4-.5,1.2-.5,1.7,0,2.4,.2,1.8,.5Zm-217.3,.6c0,.2-1,1.2-2.2,2.3l-2.3,1.9,1.9-2.3c1.8-2.1,2.6-2.7,2.6-1.9Zm223.7,.3c-.3,.3-1.2,.4-1.9,.1-.8-.3-.5-.6,.6-.6,1.1-.1,1.7,.2,1.3,.5Zm4,1c-.3,.3-1.2,.4-1.9,.1-.8-.3-.5-.6,.6-.6,1.1-.1,1.7,.2,1.3,.5Zm-238.2,8.6c-3.3,3.5-6,6.5-6.2,6.7s-.3,.1-.3-.3c0-.8,11-12.6,11.8-12.6,.3,0-2.1,2.8-5.3,6.2Zm249.5-5.2c.8,.5,1.1,1,.5,1-.5,0-1.7-.5-2.5-1s-1-1-.5-1c.6,0,1.7,.5,2.5,1Zm12,6.6c0,.2-.9,0-2-.6s-2-1.3-2-1.6c0-.2,.9,0,2,.6s2,1.3,2,1.6Zm6.1,4.1c1.3,1.6,1.2,1.7-.3,.4-1.7-1.3-2.2-2.1-1.4-2.1,.2,0,1,.8,1.7,1.7Zm-276.1,6.3c-.6,1.1-1.3,2-1.6,2-.2,0,0-.9,.6-2s1.3-2,1.6-2c.2,0,0,.9-.6,2Zm282.5,0c1,1.1,1.6,2,1.3,2s-1.3-.9-2.3-2-1.6-2-1.3-2,1.3,.9,2.3,2Zm-125.3,7c4.8,6,2.4,14.6-6.4,22.4l-5,4.5,.6,5.3c.7,6-3.2,29.3-4.9,29.3-.6,0-1.3-4.5-1.6-10.1-.7-10.8-1.1-12.4-3.5-12.4s-11.2,9.8-15,16.6l-3.5,6.2-3.4-1.1c-1.9-.6-3.5-1.6-3.5-2.4,0-.7,2.7-5.3,5.9-10.1,5.6-8.2,11.9-19.9,15.5-28.6,1.6-3.8,1.7-3.9,3.6-2.1,2.5,2.3,2.5,4.1,.1,8.8s-1,4.8,2.5,.2c1.4-1.9,4.8-5.1,7.5-7.1,9-6.6,7.6-11.3-3.7-12.3l-6.7-.6,5.3-4.9c5-4.6,5.4-4.8,9.8-4.3,3.1,.3,5.2,1.2,6.4,2.7Zm50.7,.6c2.2,1.6,2.3,2,1.7,10.8-.6,8-.5,8.8,.7,6.7,.8-1.3,5.1-6,9.6-10.6l8.1-8.2v4.4c0,4-.5,4.8-5.1,9.1-7.9,7.2-18.4,21.8-21.5,29.7-1.5,3.8-3,7.4-3.5,7.9-.7,.8-4.9-7.5-4.9-9.9,0-.7,1.6-4.7,3.6-8.8,3.6-7.7,6.3-19.4,6.4-28,0-5.2,1-5.8,4.9-3.1Zm46.8-.1c.2,.6-.9,1.6-2.5,2.2-3.4,1.6-16.3,14.4-20.3,20.3-5.3,8-7.9,13.8-7.9,18,0,3.3,.4,4.2,2.5,5.2,1.4,.6,2.5,1.5,2.5,1.9,0,.9-9.3,3.9-12.1,3.9-10,0,1.4-25.5,18.9-42.1,4.2-4.1,9.3-8.2,11.2-9.2,3.7-1.8,7.1-1.9,7.7-.2Zm-68.1,23.6c-2.5,7.9-5,16.6-5.6,19.4-2.3,11-1.6,10.3-5.9,6.1-3.7-3.6-12.5-7.7-14.7-6.9-.7,.2-4,4-7.4,8.4-3.5,4.3-6.5,7.8-6.7,7.5-.6-.6,2.9-13.9,4.2-15.8,.6-.9,5.2-6.1,10.2-11.6,5-5.4,10.6-11.6,12.5-13.8,1.8-2.2,6-7,9.3-10.7l6-6.7,1.3,4.9c1.3,4.7,1.2,5.2-3.2,19.2Zm-192.9-13.9c-.3,.8-.6,.5-.6-.6-.1-1.1,.2-1.7,.5-1.3,.3,.3,.4,1.2,.1,1.9Zm-1,5c-.3,.7-.5,.2-.5-1.2s.2-1.9,.5-1.3c.2,.7,.2,1.9,0,2.5Zm286.7,4.6c-.9,1.6-2.5,3.9-3.6,5.3l-2,2.4,1.6-2.8c2.8-4.8,4.8-7.7,5.3-7.7,.2,0-.3,1.3-1.3,2.8Zm-288.7,7.9c-.3,1-.5,.2-.5-1.7s.2-2.7,.5-1.8c.2,1,.2,2.6,0,3.5Zm281.1,3.3c-2.2,3-3.5,4.1-2.2,1.7,.9-1.6,3.6-4.7,4.1-4.7,.2,0-.6,1.3-1.9,3Zm-282.1,11.7c-.2,2.1-.4,.4-.4-3.7s.2-5.8,.4-3.8c.2,2.1,.2,5.5,0,7.5Zm279.3-7.4c0,.2-1,1.2-2.2,2.3l-2.3,1.9,1.9-2.3c1.8-2.1,2.6-2.7,2.6-1.9Zm-4,5c0,.2-1.7,1.9-3.7,3.8l-3.8,3.4,3.4-3.8c3.3-3.4,4.1-4.2,4.1-3.4ZM86,121.46c-.2,1.6-.4,.3-.4-2.7s.2-4.3,.4-2.8c.2,1.6,.2,4,0,5.5Zm268.3-7.4c0,.1-3.3,3.4-7.2,7.2l-7.3,7,7-7.3c6.4-6.7,7.5-7.7,7.5-6.9Zm-299.7,3.4c-.7,.2-2.1,.2-3,0-1-.3-.4-.5,1.2-.5,1.7,0,2.4,.2,1.8,.5Zm9.4-.1c-.3,.3-1.2,.4-1.9,.1-.8-.3-.5-.6,.6-.6,1.1-.1,1.7,.2,1.3,.5Zm4,1c-.3,.3-1.2,.4-1.9,.1-.8-.3-.5-.6,.6-.6,1.1-.1,1.7,.2,1.3,.5Zm-24.7,1.8c0,.2-.7,.7-1.6,1-.8,.3-1.2,.2-.9-.4,.6-1,2.5-1.4,2.5-.6Zm25.2,2.1c9.6,3.4,13.6,6.3,20.8,15.3,5.2,6.6,6,8.1,6,11.9,0,2.4-.1,4.3-.3,4.3s-1.8-2.2-3.5-4.9c-8.8-13.5-22.2-19.5-36.2-16.1-4.1,1-7.4,3-15,9.1-5.3,4.3-12,10.4-14.9,13.4-2.8,3.1-4.8,4.8-4.5,3.8,1.2-3.1,8.2-11.8,14.4-17.7,7.7-7.4,15.1-10.7,25.1-11.4,6.8-.4,8.4-.1,13.5,2.2,3.6,1.6,8.4,5.1,12.3,8.9,5.2,5.1,6,5.6,4.7,3.1-2.5-5-10.1-12-16.3-15-5.2-2.4-6.5-2.6-14.1-2.1-12,.7-20.3,5-28.9,15-4.2,4.8-4.2,3.6-.2-2.3,5.4-7.8,14.8-13.1,26.3-14.5,7.7-1,5.8-3-2.6-2.8-12.6,.4-21.5,7.6-30.4,24.9-9.3,17.9-17.7,37.5-18.2,42.4-1.1,11.6,9.8,43.7,18.3,53.8,2.3,2.8,3.3,3.1,8.8,3.4l6.2,.3,.8,5.3c1.1,6.9,1.8,7.1,23.2,8.2,17.4,.9,26.9,.2,34.7-2.6,3.6-1.2,3.9-1.2,3.6,.3-.5,2.9-5.7,3.5-29.3,3.7-24.3,.1-31.2-.7-37.3-4.4l-3.3-2,3-2.6c5.5-4.6,3.8-6.3-4.3-4.4-3.6,.8-4.1,.6-6.8-2.3-3.7-3.9-11.8-20.6-15.2-31.2-1.4-4.4-3.1-11.9-3.8-16.8-1.6-11.7-1.4-12.2,14.7-46.2,9.7-20.3,15.8-27,28.7-31,6.5-2.1,12.1-1.8,20,1Zm9.7,.1c1.4,1.2-1.9,.1-3.5-1.2q-1.8-1.4,.6-.3c1.4,.6,2.7,1.3,2.9,1.5Zm-41.9,1.7c0,.2-1.5,1.6-3.2,3.3l-3.3,2.9,2.9-3.3c2.8-3,3.6-3.7,3.6-2.9Zm281.4,8.3c1.8,4.7-.3,41.7-2.9,51-1.9,6.8-8.6,16.6-12.8,18.8-3.2,1.8-3.6,1.8-11.7-.3-7.1-1.8-18.8-6.8-21.2-9-.3-.3-.4-1.8-.1-3.3l.5-2.7,3.2,2.4c4.2,3.2,11.1,6.1,16.2,7,9.8,1.5,19.3-4.9,23.8-16,2.2-5.6,2.6-8,2.6-16.8,0-10-.1-10.4-2.7-12.9-4.2-4-11.1-5.4-19.1-3.9-7.1,1.3-14.7,4.7-17.6,8-2.8,3.1-3.5,2.6-2.5-1.7,.5-2,.9-6.7,.9-10.5s.3-6.7,.8-6.7c.4-.1,8.8-1.1,18.7-2.4,22.2-3,23.1-3,23.9-1Zm9,.9c-.8,3.4,.4,3.2,1.8-.3,1.7-4.2,2.1-.5,.4,5.3-.7,2.7-3,11.2-5.1,18.8-2.1,7.5-3.8,13.6-3.9,13.5-.1-.2,0-9.2,.2-20.1l.3-19.7h3.5c3.2,0,3.4,.2,2.8,2.5Zm-250.4,5.1c6.5,3.6,12.1,10.2,16.5,19.8,3.7,8,4.1,9.1,2.5,8.1-.5-.3-3.6,.1-6.8,1l-5.8,1.6-5.2-3.5c-7-4.7-18.1-7.2-24.3-5.6-12.5,3.4-18.4,9.9-22,24.5l-1.8,7v-4.6c-.2-10.8,5.9-20.9,16-26.4,7.4-4,17.4-4,27.1-.1,3.7,1.5,7.2,3.4,7.9,4.2,1.3,1.6,5.5,1.9,6.4,.4,.3-.6,.1-1-.5-1s-2.9-1.7-5.3-3.8c-8.9-8.1-14.9-10.6-27.7-11.7-7.4-.6-7.7-.6-11.5,2.5-4.1,3.3-6.1,7-10.1,18.9-6.8,20.2-4.8,38,6.5,58.9,4,7.3,8,11.5,13.6,14.4,2.2,1.2,4.1,2,4.3,1.9,.1-.1,3,.4,6.4,1.1,4.8,1,5.6,1.4,3.7,1.9-1.7,.4-.5,.8,4.1,1.3,4.5,.5,8.7,.3,13.7-.8,9-1.8,13.1-3.8,18.5-8.5,3.8-3.4,4.2-4.2,4.2-8.7,.1-3.2-.3-4.9-1.1-4.9-.7,0-4.4,3-8.2,6.7-8.5,8.1-11.6,9.9-19,10.4l-5.6,.3,4.4-.9c10-2.2,20.8-11.4,27.3-23.4l3.3-6.1,.3,12,.3,12-4.8,4.4c-5.9,5.4-11.4,7.8-20.7,9.2-25.7,3.8-48.8-12.1-54.4-37.6-3.6-16.2-3.7-23.1-.6-38.5,6.4-31.1,28.1-47.5,48.4-36.4Zm298.3-1c9.6,3.3,14.7,13.3,15.5,30.7,1,22.6-7.3,40.5-26.9,57.6-4.1,3.6-10.8,9.9-14.9,14-10.4,10.4-13.7,13.2-19.4,16.4-3.8,2.1-5.1,2.5-5.8,1.5-1.8-2.9-.6-4.9,5.5-8.9,16.9-11.4,46.1-47.4,50.7-62.7,.5-1.6,.9-2,.9-1,.2,3.1-4.8,14.9-8.2,19.7-11.6,16.1-30.6,37-39.4,43.3-2.3,1.7-4.3,3.7-4.3,4.5,0,3.4,3.8,.6,18.5-13.6,6.7-6.4,14.7-14.1,18-17.1,6.9-6.4,13.6-15.2,17.6-23.2,10.2-20.1,6.7-52.5-6.3-58.4-10.8-4.9-31.8,1.5-44,13.4-7.2,6.9-3.1,6.1,4.3-.8,7.1-6.7,23.8-12.6,32.8-11.7,6,.7,9.4,2.7,12.9,7.7,2.4,3.5,3.1,6.8,.7,3.5-5.3-7.5-10.7-10-20-9.3-10.5,.9-11.2,2.6-.9,2.1,9.5-.6,13.1,.4,17.5,4.8,3.3,3.3,2.1,4.2-1.6,1.1-4.1-3.7-8.2-4.6-17.8-4-8.3,.5-16.5,3.7-26.8,10.5-3.7,2.4-6.9,4.3-7.2,4.3s0-1.8,.5-4c.8-3,2.5-5.4,6.4-8.8,12.7-11.4,29.1-15.9,41.7-11.6Zm-350.8,2.4c-.9,1.6-1.8,3-2.1,3-.2,0,.2-1.4,1.1-3,.9-1.7,1.8-3,2.1-3,.2,0-.2,1.3-1.1,3Zm241,7c-.5,5.3-1,7.8-1.6,6.9-.5-.8-.9-3-.9-5,0-4.6-3.9-8.6-7.8-8-4.3,.5-4.5,1.1-1.6,4.2,3.5,3.6,2.9,3.6-5.4,0-3.7-1.6-8-3.3-9.7-3.9q-2.9-1-.5-1.2c1.4-.1,7.9-.7,14.5-1.4s12.4-.9,12.9-.5c.4,.4,.5,4.4,.1,8.9Zm6.2-2.3c-.3,4.4-1.9,12.4-3.6,18.3-1.9,6.3-3.4,13.9-3.8,19.1l-.6,8.7-2.9-1c-1.6-.6-5.6-.8-8.8-.6-5,.4-5.7,.2-4.8-1,2.2-2.6,6.9-4.3,9.8-3.7,3.2,.7,3.3,.6,4.5-8.8,.4-2.6,1.5-7.4,2.7-10.5,2.1-6.1,2.3-7.3,3.4-20,.6-7.3,.9-8.2,2.7-8.2s1.9,.5,1.4,7.7Zm-67.9,1.7c-11.4,5.5-24.4,17.1-33.2,29.3-2.1,2.9-4.9,6.1-6.4,7.2s-2.1,2.1-1.4,2.1,4.2,2.2,7.9,5c7.7,5.8,13.9,8.3,24.8,10,9.3,1.4,24.8,.6,30-1.6,5.2-2.1,5.2-1.8,.2,3-5.1,4.8-3,4.3-29.8,7.1-7.3,.8-14.5,3.3-18,6.2l-3.1,2.7-5.2-2.7c-2.8-1.4-7.1-3.5-9.6-4.6-9.2-3.9-16-14.8-16-25.7s4.9-22.5,13-31.6q4-4.6,12.2-5.3c4.6-.3,15.3-1.5,23.8-2.5s16-1.8,16.5-1.8c.6-.1-2,1.4-5.7,3.2Zm30.2-1.3l3.8,1.2,.7,7.6c.4,4.2,1.3,10.4,2,13.8,.7,3.5,1,6.3,.8,6.3-.3,0,0,.6,.6,1.4,.9,1.1,0,1.6-4.9,2.6-3.3,.7-6.3,1-6.7,.6-.3-.3,.7-.9,2.3-1.2,1.8-.3,3.6-1.7,4.6-3.5,1.5-2.6,1.6-4.2,.7-13.7-.6-5.9-1.4-11.4-1.9-12.2-.5-1.1-2.8-1.6-8.1-1.8-14.3-.6-29.8,6.6-44.2,20.5-7.2,7-8.1,8.4-6.4,10.7,1,1.3,4.3,1.6,21.7,1.8,11.3,.2,22.8-.1,25.5-.6,4.2-.7,4.8-.6,3.7,.5-1,1.1-7,1.5-28,1.6-17.2,.2-26.2-.1-25.2-.7,1.3-.8,1.3-1.1,.1-2.2-1-.9-1.2-1-.7-.1s.2,1.1-.8,.7c-1.3-.5-1.3-.8,0-2.2,.8-.9,3.3-3.9,5.6-6.5,4.9-5.7,15.4-14.3,21.8-17.9,6.4-3.7,13.5-6,21-6.8,3.6-.4,6.9-.8,7.4-.9,.5,0,2.6,.4,4.6,1Zm15.5,2.9c4.9,1.3,6.1,1.9,4,2-1.6,0-4.2,1.1-5.7,2.3l-2.7,2.2,1.5,7.5c1.8,9.8,3.1,12.7,5.8,13.4,3.4,.8,2.6,4.1-1.7,7l-3.7,2.5v-2.4c0-1.8,1-3.1,3.3-4.5l3.2-2h-3.3c-2.8,0-3.5-.5-4.7-3.4-2-4.8-5-26.7-3.6-26.5,.3,0,3.8,.9,7.6,1.9Zm-95.1,2.2c-.4,.7-2,2.9-3.5,4.9-1.6,2-4.3,6.4-6.1,9.9-3,6-3.2,6.8-3.2,17.9-.1,10.5,.1,12.1,2.4,16.5,3.1,6,10.8,12.9,16.3,14.6,2.3,.7,5.2,2.1,6.6,3.1,1.3,1,3.2,1.9,4.2,1.9,1.7,0,1.9,.8,1.9,6.9,0,5.4,.4,7.4,2.1,9.5,2.5,3.2,13.9,10,19.7,11.7,2.3,.7,4.2,1.4,4.2,1.6,0,1.4-12.3,23-25.5,44.8-18.8,31-20.5,34.4-23.8,46-3.3,11.2-4.5,21.5-4,32.5,.3,7.2,.2,8.2-.9,6.5-3.2-5.1-15.3-37-16.3-43-.8-5.4,.8-2.7,4,6.3,4.2,12,8.4,22.5,9.3,23.4,.5,.5,1.2-1.8,1.6-5.7,1.4-14,6.4-30.5,12-40.2,1.7-2.9,8.1-13.4,14.1-23.4,6.1-10,13.3-22.1,16.1-27.1,2.9-4.9,6-9.8,6.9-10.9,1.6-1.7,1.7-2.4,.5-5.9-.9-2.7-2.3-4.4-4.4-5.5-1.7-.9-4.6-2.5-6.4-3.7-1.8-1.1-3.5-1.8-3.8-1.5-.6,.6,5.6,9.7,9.5,13.9,1.3,1.5,2.2,3,2,3.3-.9,.9-5.6-4.8-12.3-15-6.4-9.5-7-11.2-6.9-18.7,.1-1.8-.5-2.9-1.8-3.3-1-.4-1.9-1-1.9-1.4s-3.4-2.4-7.5-4.5c-13.9-7-19.3-15-19.5-29.1-.1-9.8-1.5-8.3-2.9,3.2-1.8,14.1,1.6,25.1,9.8,32.6,3.9,3.5,5.6,4.1,16.3,5.7l5.3,.8-5.1,.1c-13.8,.3-23.4-7.5-27.4-22.2-2.8-10.3,1.3-33.8,7.7-44.4,3.4-5.7,3.9-10.4,1-10.3-.6,.1-8.3,.7-17,1.4-15.6,1.3-15.9,1.3-18.3,4.2-2.7,3.3-2.7,2.5,.7,26.4,1.1,7.4,2.4,16.6,2.9,20.5,1.2,8.7,1.2,49.8,0,58.5-.8,6.6-5.6,34.7-6.5,38.7-.4,1.7-.2,2.1,1,1.7,2-.8,1.9,.5-.8,7.8-1.3,3.5-2.7,8.5-3.1,11.3-.3,2.7-1.5,7.7-2.5,11-3.8,12-2.2-2.2,4.3-38,6.2-34.4,7.1-42.6,7.1-62.5,0-17.3-1.1-28.4-4.6-49.5-2.7-16.1-3.9-24.3-3.9-27.2v-3.1l10.8-.7c5.9-.4,15.9-1.3,22.2-2,15.8-1.7,18.3-1.8,17.4-.3Zm153.3,.3c5.4,2.3,7.3,4.4,7.2,7.9-.1,2.8-.2,2.9-.8,.7-.8-3-3.3-4.6-5.6-3.7-1.5,.5-1.7,1.4-1.2,5.4,.7,5.6,4.5,14.8,5.7,13.6,.5-.5,1-2,1.3-3.4l.4-2.5,.2,2.7c.1,3.4-2.6,6.3-4.4,4.8-3.2-2.7-9.8-27-7.3-27,.5,0,2.5,.7,4.5,1.5Zm-275.6,5.2c-1.6,3.2-3.9,9.2-5.2,13.3-2.2,6.8-2.4,9.2-2.3,25,.1,16.4,.2,18,2.8,25,6.4,18,18.5,29.3,37,34.6,11,3.1,27.9,.7,36.5-5.2,1.9-1.3,3.7-2.2,3.9-2s-.1,2.2-.7,4.4c-1,3.7-1.4,4-6.9,5.5-8,2.2-18.5,3.9-21.3,3.5l-2.4-.4,2.5-.6c1.4-.4,6.4-1.2,11.2-1.8,4.8-.7,9.5-1.9,10.5-2.7,1.7-1.3,1.6-1.4-1.2-.9-1.6,.3-5.9,1.3-9.5,2.1s-8.6,1.4-11.1,1.5c-11.2,.1-24.5-4.6-32.4-11.3-2.2-1.9-4.5-3.2-5-3-3.7,1.2-15.1-16.4-20.2-31.2-2.7-7.9-4.1-22.6-2.5-26.5,.9-2,1.1-1,1.1,5.6,.1,4.5,1,11.4,2,15.6,2.7,10.4,10.5,26,15.9,31.6,3.4,3.6,4,4,2.7,1.7-1-1.7-3.1-4.6-4.7-6.6-6.7-8.6-13.7-31.7-13.8-45.4,0-5.8,1.3-6.7,2.3-1.5,.3,1.9,.5,1.5,.6-1.2,.1-3.3,2.1-14,3.7-19.5,.4-1.6,.1-2.2-1.3-2.5-1.5-.3-.7-1.5,4.1-6.6,3.2-3.4,6.1-6.2,6.3-6.2s-1,2.6-2.6,5.7Zm266.3-4.6c-.3,.5-.1,.9,.4,.9s1.2,2.5,1.6,5.5c.3,3.1,1.5,7.8,2.6,10.7,1,2.8,1.6,5.6,1.3,6.1-.3,.6-.1,.7,.4,.4,.6-.4,1.3-.1,1.6,.7,.7,1.6-4,3.6-8.2,3.5-2.4,0-2.5-.1-.5-1,1.1-.6,2.7-2.2,3.6-3.6,1.4-2.4,1.4-3.1,0-7.1-.8-2.5-2-7-2.6-10.1l-1.1-5.6-3.5,.4c-1.9,.1-4.2,.7-5.1,1.2-.9,.4-1.9,.5-2.3,.1-.4-.3,.7-1.1,2.5-1.7,4-1.4,10.1-1.6,9.3-.4Zm72.9,1.3c8.2,7.6,9.7,26.7,3.2,39.7-5.7,11.1-18.5,28-30.9,40.7-8.7,8.9-18.5,16-20.5,14.8-.5-.4-1.3-3.6-1.6-7.1-.9-7.8,.6-10.4,5.3-9.7,3.3,.4,14.4-3.1,18.7-6.1l3-2.1-2.5,2.8c-3.6,4.1-9.1,6.5-16,7.3-5.4,.5-6.1,.9-6.7,3.1-.4,1.9,0,3,1.7,4.4,3.2,2.6,5.2,2.3,9.6-1.4,5.2-4.3,18.2-18.7,24.5-27.1,16.1-21.5,20.5-35,15.8-48.5-1.1-3.1-1.3-3.2-6.7-3.3-5.5-.1-5.6-.1-2.3-1.1,1.9-.5,4.3-.7,5.4-.4,1.7,.4,1.7,.2-.4-2.2-3.8-4.2-4.1-4.3-10.5-3.9-6.8,.5-15.7,4-24.3,9.7-6.2,4-5.1,5,3,2.6,8-2.4,17-3,23-1.6,8.6,2,14.4,7.5,12.2,11.5-.8,1.3-1.6,1.1-6.1-1.2-8-4.1-8.6-3.4-8.7,11.3,0,11.6-.1,12.3-3.2,18.2-6.2,11.9-12.3,18.2-17.3,18.2-.8,0,0-.8,1.7-1.8,3.5-1.9,8.5-7.8,11.4-13.3,6.5-12.9,7.5-22.3,3.4-32.4-1.4-3.3-2.5-6.2-2.5-6.4,0-1.3,10.4,1.4,15.2,3.9,6,3.2,7.4,2.9,3.5-.8-8-7.5-26.5-7.7-42.4-.3-3.4,1.7-6.3,2.8-6.3,2.5,0-2.3,4-7,8.8-10.2,11.9-8.1,21.9-12,30.8-12.1,5.1-.1,6.5,.3,8.7,2.3Zm-353.5,1.1c-.6,1.4-1.3,2.3-1.5,2.1-.5-.5,1.5-4.6,2.2-4.6,.3,0-.1,1.1-.7,2.5Zm360.4,.6c1,1.3,2.1,4.2,2.4,6.4l.5,4-2-4.9c-1.1-2.6-2.8-5.7-3.8-6.9-1.3-1.4-1.4-1.9-.4-1.5,.8,.2,2.3,1.5,3.3,2.9Zm-92.7-.1c.3,.5,.1,1-.4,1-.6,0-1.1-.5-1.1-1,0-.6,.2-1,.4-1,.3,0,.8,.4,1.1,1Zm-4,2c-1,1.1-2.5,2.2-3.5,2.5-.9,.3-2.3,1.7-3,3-.7,1.4-1.7,2.5-2.2,2.5-1.4,0,2.8-5,6.4-7.7,3.9-2.8,4.7-2.9,2.3-.3Zm105.1,9.9c1.6,8.4-1.4,24.2-5.8,30.4-2.4,3.4-3.7,2.8-1.5-.7,2.6-3.9,5.7-16.5,5.7-22.8,0-3.4-.8-7.8-2-10.8-1.1-2.8-2-5.6-2-6.3,.1-2.2,5,6.7,5.6,10.2Zm-313.8-.4c9.5,4.2,9.5,4.6,1.9,11.6-4.7,4.3-7.6,8-9.9,12.7-3,6.1-3.3,7.4-3.3,16.2s.3,10,2.9,14.8c1.7,3,5,6.8,7.7,8.9,5.3,4,5.8,5.3,1.1,2.9-4.5-2.3-9.3-7.5-11.6-12.6-1.7-3.6-2.1-6.5-2.1-14.5,0-8.7,.3-10.7,2.7-15.7,1.4-3.1,4.5-7.7,6.8-10.2,3.6-3.8,4.1-5,3.8-8.3-.3-3.6-.5-3.8-5.8-5.5-7.3-2.2-9.9-2.2-16.6,.3-6.5,2.5-10,6.6-14.7,17.9-1.6,3.9-3.1,6.9-3.3,6.7-.8-.8,3.4-12.7,6-17.1,6.6-11.3,20.2-14.5,34.4-8.1Zm199.7,1.7c-.4,1.3-.9,3.1-1.1,4.1-.4,1,.6,2.9,2.5,4.8l3.1,3.1,9.1-.8c6.8-.5,9-.4,8.5,.5-.5,.7-4.9,1.1-13.2,1.1h-12.4v-3.6c0-4.4,2-11.4,3.2-11.4,.5,0,.6,1,.3,2.2Zm110.3,6.3v3l-.8-3c-.4-1.7-.8-4.4-.8-6v-3l.8,3c.4,1.6,.8,4.3,.8,6Zm-373.2-2.8c-.8,1.5-1.5,2.5-1.6,2.1,0-1.2,2.3-5.8,2.7-5.4,.3,.2-.2,1.7-1.1,3.3Zm341.9-.1c2.9,4.5,4.1,14.4,2.6,21.6-1.4,7-6.5,17.4-11.2,23.1-5.1,6.2-5.2,4.1,0-3.6,5.5-8.2,10.1-19.9,10.1-25.8s-1.9-12.5-4.1-14.5c-1.7-1.5-2.5-1.6-7.1-.5-7.4,1.7-16.5,6-18.2,8.6-.8,1.2-2,4.2-2.6,6.6-.7,2.4-2.3,6.8-3.6,9.7-3,6.5-3,9.7-.3,12,5.9,4.8,8.2,8.4,9.3,14.4,.4,2.1,1.2,3.8,1.9,3.8s4.4-.9,8.2-2c7.5-2.1,10.5-2.5,9-1.2-1.6,1.4-14.3,5.2-17.4,5.2-2.6,0-2.9-.4-3.5-4.1-.9-5.9-3-9.3-8.1-13.6-2.5-2-4.5-4.4-4.5-5.3s2-7.2,4.5-14,4.5-12.5,4.5-12.6c0-.2,1.6-1.5,3.5-3,4.8-3.6,15-7.3,20.6-7.3,4-.1,4.9,.3,6.4,2.5Zm42.2,5.1c-.2,1.6-.4,.3-.4-2.7s.2-4.3,.4-2.8c.2,1.6,.2,4,0,5.5Zm-293.7-3.9c3.3,3.3,4.2,6.6,6.4,21.7,2.1,14.6,2.2,14.5-2.1,22.7-6.6,12.6-19.1,23.8-28.4,25.4-2.8,.5-2.3,0,3.1-2.9,10.3-5.5,18.4-13.6,23.1-22.9l4-7.9-1.5-10.5c-1.5-10.8-4.1-17-9.2-22.1-2.8-2.8-5.3-2.9-10.3-.3-12.8,6.5-20.9,22.9-18.1,36.6,1.5,7.1,2.7,9.7,7.4,15.3,4.4,5.2,4.5,5.8,.6,3-8.1-6-12.9-18.8-11-29.1,2.4-12.3,9.9-22.3,21.5-28.5,7.5-4.1,10.8-4.2,14.5-.5Zm281.7,10.4c-.3,.8-.6,.5-.6-.6-.1-1.1,.2-1.7,.5-1.3,.3,.3,.4,1.2,.1,1.9Zm11,3c-.3,.7-.5,.2-.5-1.2s.2-1.9,.5-1.3c.2,.7,.2,1.9,0,2.5Zm-389,0c-.3,.8-.6,.5-.6-.6-.1-1.1,.2-1.7,.5-1.3,.3,.3,.4,1.2,.1,1.9Zm232.5,2.8c-1.8,1.7-4.2,3-5.5,3-2.7,0-5.7-1.9-4.1-2.6,.6-.3,2-1.1,3-1.9s3.7-1.4,5.9-1.4h4l-3.3,2.9Zm-233.5,1.2c-.3,.8-.6,.5-.6-.6-.1-1.1,.2-1.7,.5-1.3,.3,.3,.4,1.2,.1,1.9Zm294.3-.2c0,.5-.8,1-1.7,1-1.5,0-1.6-.2-.3-1,1.9-1.2,2-1.2,2,0Zm94.7,1.2c-.3,.8-.6,.5-.6-.6-.1-1.1,.2-1.7,.5-1.3,.3,.3,.4,1.2,.1,1.9Zm-183.7,.1c0,4.1-6.3,4.9-9.9,1.2l-2.3-2.5h6.1c4.3,0,6.1,.4,6.1,1.3Zm9.5,2.7c.4,.6-1.2,1-4,1s-4.4-.4-4-1c.3-.6,2.1-1,4-1s3.7,.4,4,1Zm38.9-.2c.4,.7-14.8,4.2-18.4,4.2-3.1,0,.8-2,6.5-3.4,6.9-1.7,11.2-1.9,11.9-.8Zm31.3,.8c-.3,.3-1.2,.4-1.9,.1-.8-.3-.5-.6,.6-.6,1.1-.1,1.7,.2,1.3,.5ZM2,198.46c-.3,1-.5,.4-.5-1.2,0-1.7,.2-2.4,.5-1.8,.2,.7,.2,2.1,0,3Zm270.5,.5c3.7,1.2,6.5,2.4,6.3,2.8-.2,.3-3.9,.2-8.2-.3-4.3-.4-11.2-.6-15.3-.4-4.3,.3-6.4,.1-5-.3,2.1-.7,1.7-.8-1.9-.9-5.6-.1-4.7-1.1,2.7-2.8,6.8-1.5,12.3-1,21.4,1.9Zm37.9,.5c-.5,1-1.2,2.6-1.5,3.5-.3,1-1.5,1.8-2.7,1.8-1.9,0-1.9-.3,1.1-4,3.2-4.1,5-4.8,3.1-1.3ZM3,203.96c-.3,.8-.6,.5-.6-.6-.1-1.1,.2-1.7,.5-1.3,.3,.3,.4,1.2,.1,1.9Zm265.2,7c1.2,6.6,.2,14.5-3.3,25.8-3.2,10.2-5,20.8-4.3,25.5,4.6,32.7,8.8,47.3,22.2,77,8.9,19.9,13.2,33.4,14.1,44.8,.4,4.5,.7,8.4,.6,8.7-.1,.5-12.9,2.8-16.4,2.9-1.7,.1-3.1-3.2-4.3-10.4-.9-5.1,.4-3.9,2.4,2.3l1.6,4.7,5.2-.1c7.7-.2,8.3-.7,8.3-5.8,0-12.1-4.5-25.9-19.1-58.6-4.5-10.3-10.4-29.5-12.6-41.5-4.4-23.1-4.5-24.5-3.8-32.2,.4-4.2,2.1-11.7,3.8-16.7,2.8-8.2,3.1-10.3,3.2-21.3,0-6.7,.3-11.9,.7-11.5,.3,.4,1.1,3.3,1.7,6.4Zm-5.2-4.5c1.4,3.6,.8,19-1.2,26.8-2.4,10.2-3.2,6.6-1-5,1.2-6.8,1.4-9.8,.5-14.3-.5-3.1-1.3-5.9-1.8-6.3-.4-.4-5.4,.1-11.2,1.2-6.6,1.3-12.4,1.8-15.5,1.4-2.7-.3-9.9,.1-16,.9-6,.8-14.4,1.8-18.5,2.1-9.4,.8-17.6,4.3-19,8-.6,1.5-1,4.6-1,7,0,5.3,2.1,7.1,10.8,9.1,7.4,1.8,9.8,1.7,4.7-.1-4.9-1.8-10.5-8-10.5-11.7s5-8.4,10.3-9.9c2.3-.7,8.3-1.2,13.2-1.3,8.4,0,9.5,.3,16,3.6,3.9,2,9,3.9,11.4,4.3,3.5,.6,5.5,1.8,9.4,5.7,2.7,2.7,4.7,5.1,4.4,5.4s-1.6-.6-2.9-1.9c-2.7-2.7-10.1-7.1-13.8-8.2-2.3-.7-2.4-.7-1,1s1.4,1.7-2,0c-1.9-.9-4.4-2.5-5.5-3.5-3.1-2.7-9.4-4.4-16.5-4.3-8.8,0-14.7,1.8-18.7,5.8-3.4,3.4-4.4,6.1-1.9,5.2,.9-.4,1.6,.3,2.1,2,.4,1.6,1.1,2.3,2,2,.7-.3,1.6,.1,1.9,.9,.7,1.8,6.6,5.4,8.9,5.4,1,0,1.6-.3,1.4-.8-.3-.4,4.1-.7,9.6-.8,5.6,0,12.8-.6,15.9-1.3,5.1-1.1,6-1,9.5,.8,5.3,2.7,8.5,8,9.1,14.7,.3,3.6,.1,5.4-.7,5.4-.6,0-1.1-1.3-1.1-2.8s-1-4.8-2.2-7.2c-3.1-6.1-5.9-6.4-14.1-1.2-7.7,4.9-15.1,8.6-22,11.2-6.2,2.3-7.3,3.4-11.5,11-1.6,3-9,15.4-16.3,27.5s-15.2,25.8-17.5,30.5c-4.8,9.6-9.4,26.2-9.4,33.7,0,5,2.3,13.1,5.5,19.3,2.5,4.8,11.3,13.9,15.7,16.1,5.7,2.9,11.8,3.2,51.8,1.9,35.2-1,46.1-1.8,47.7-3.3,.3-.4,.8-3,1.1-5.9l.6-5.3,1.7,7.5c1,4.1,1.7,7.6,1.6,7.7-.1,0-4.8,.4-10.5,.7-5.6,.4-11,1-11.9,1.3-.9,.4-1.4,.2-1-.3,.7-1.2-25.7-.8-42.8,.6-16,1.4-18.6,1.3-28.6-.3-10.1-1.7-11.7-2.5-18.7-9.1-6.6-6.3-12.9-16.7-14.4-24.1-1.3-6.8,.2-17.4,4.2-29,4.2-12.3,4.8-13.4,42.4-76.3,1.4-2.3,3.3-4.2,4.1-4.2,3.8,0,16.9-6.6,28.5-14.3,3.2-2.2,5.1-2.8,7.7-2.5,3.1,.4,3.3,.3,1.7-.9-2.4-1.8-4.5-1.6-14.4,.9-11.2,2.9-29,3.1-36.8,.4-10.3-3.5-13.7-8.8-10.6-16.5,2.2-5.4,6.2-8.7,12.6-10.1,6.8-1.5,60.4-7.7,68.1-7.9,4.5-.1,5.9,.3,6.4,1.6Zm-259,1.5c-.3,.8-.6,.5-.6-.6-.1-1.1,.2-1.7,.5-1.3,.3,.3,.4,1.2,.1,1.9Zm297.5-.7c12.3,2.6,18.8,8.6,18.8,17.3,0,3.6-.6,5-3.3,7.7-4.8,4.8-11.8,6-26.8,4.6-12.2-1.1-14.4-.9-15.3,1.5-.3,.8-.2,1.3,.3,.9,1.1-.6,15.4,5.3,21.9,9.1,2.6,1.6,5.1,2.7,5.5,2.6s2.2,2.8,3.9,6.5c1.7,3.8,8.2,18,14.5,31.7,16.1,35.2,21,49.2,22,63.7,.5,7.2,.4,8-2.8,14.4-5.6,11.1-11.6,16-24.8,20.1q-4.4,1.4-2.6-.6c1.5-1.6,1.6-2.2,.5-3.5-1.9-2.3-.3-3.1,1.9-1.1,2,1.8,5.5,1.9,5.7,.1,0-.6,.3-1.7,.7-2.5,.3-.8,.8-3.5,1.2-6,.3-2.5,1.3-5.6,2.1-7q1.5-2.5,.9,1c-.3,1.9-.8,5.3-1.1,7.5-.4,2.2-1.3,4.6-2.2,5.2-1.4,1.2-1.4,1.3,.1,1.3,2.7,0,4.5-4,5.3-11.3,.4-3.7,1-6.7,1.4-6.7s1.3-1.8,2-4,1.5-3.9,1.7-3.7c.3,.4-1.4,15.9-2.3,19.6-.4,2.1-.3,2.3,.9,1.2,2.3-1.9,3.9-9.8,3.1-16-.7-6.3,.5-6.2,2.2,.2l1.1,4.2,1.2-2.8c2.6-6.4,1.1-18.5-4.1-34.2-3.1-9.4-13.8-33.1-17-37.7-1-1.4-1.8-2.9-1.8-3.2,0-.4-1.9-4.6-4.1-9.4-2.3-4.8-4.8-10.5-5.6-12.7-2.4-6.7-6-12-10.2-14.8-2.2-1.5-4.3-2.7-4.5-2.7-.3,0-3.9-1.6-8-3.5-4.2-1.9-7.8-3.5-8.1-3.5-1,0-2.9,4.9-4.1,10.5l-1.2,6-.1-6.8c-.1-5,.4-7.8,1.9-10.7,3.2-6.3,4.7-6.8,21.3-7.2,16.4-.4,17.7-.9,17.7-7.1,0-8.6-15.1-13-28.5-8.2-1.7,.6-1.7,.4,.4-1.4,2-1.8,3.6-2.1,10.8-2.1,12.8,0,19.3,4,19.3,11.9,0,4.7-.7,5.6-6,8-5,2.4-1.5,1.8,4.1-.6,4.2-1.7,5.9-4.7,5.9-10.1,0-5-2.1-7.7-8.3-10.9-4.2-2.1-7-2.7-14.9-3.1-5.3-.2-10.8-.2-12.2,.2-2.6,.6-3.5,2.8-5.2,11.7l-.7,3.4,2.4-2.2c3-2.7,7.2-4.3,10.7-4.2,1.7,.1,2.1,.3,.9,.6-.9,.2-1.4,.9-1,1.5,.4,.8,0,.9-1.1,.5-2.2-.9-9.6,4.1-13,8.6-1.3,1.7-3.4,5.2-4.6,7.7-2.1,4.2-2.2,5.2-1.7,20.5,.8,23.5,4.6,36.6,19.7,69.1,10.8,23,16.1,42.2,15.8,57.1,0,4.9-.3,7.2-.5,5.3-2.4-23.4-8.5-44.4-19.3-66-13.4-26.9-18.5-47.3-17.8-71,.4-11.7,.9-14.5,3.2-20.5,1.5-3.9,3.8-10.2,5.2-14,4.1-11.9,3.7-11.5,12-11.5,4,0,10.6,.7,14.6,1.5ZM6,215.96c-.3,.8-.6,.5-.6-.6-.1-1.1,.2-1.7,.5-1.3,.3,.3,.4,1.2,.1,1.9Zm366.3,5.3c-2.4,2.5-4.6,4.5-4.9,4.5s1.5-2,3.9-4.5,4.6-4.5,4.9-4.5-1.5,2-3.9,4.5Zm-170.6-.7c.3,.5-.8,.6-2.5,.4-1.6-.2-2.9-.6-2.9-.8,0-.8,4.9-.4,5.4,.4Zm-191.4,6.7c0,.5-.5,.3-1-.5s-1-2-1-2.5c0-.6,.5-.3,1,.5s1,1.9,1,2.5Zm185.3-1.1c.3,.8,0,1.7-.8,1.9-1.1,.5-1.3-.6-.6-3.1,.2-.6,.9,0,1.4,1.2Zm49.6,8.6c1.5,1.9,3.3,4.9,4,6.6,1.4,3.5,1.1,14.6-.4,15.1-.6,.2-.9-1.8-.7-5.1,.5-7.5-2.6-14.3-9.2-20.3l-5.1-4.6,4.4,2.4c2.4,1.3,5.5,4,7,5.9Zm-233.5-4.4c.3,.8,.2,1.2-.4,.9s-1-1-1-1.6c0-1.4,.7-1.1,1.4,.7Zm352.6-1.3c0,.2-1.7,1.9-3.7,3.8l-3.8,3.4,3.4-3.8c3.3-3.4,4.1-4.2,4.1-3.4ZM14.7,236.36c.3,.8,.2,1.2-.4,.9s-1-1-1-1.6c0-1.4,.7-1.1,1.4,.7Zm341.6-.3c0,.1-3.7,3.8-8.2,8.2l-8.3,8,8-8.3c7.4-7.6,8.5-8.7,8.5-7.9Zm-38.6,3.1c.3,1.3,1.5,11.1,2.6,21.7,1.2,10.6,2.5,21.1,3,23.3,1.2,5.2,.5,5.8-1,.9-.6-2.1-4.1-9.8-7.6-17.2-3.6-7.3-7.4-15.8-8.6-19-1.1-3.1-2.5-6.1-3-6.8-.7-.9,.1-1.4,2.9-1.9,2.1-.4,5.2-1.3,6.8-2,4.1-1.8,4.2-1.7,4.9,1Zm-298.8,4.8c.8,1.6,1.3,2.8,1,2.8-.5,0-4.6-6.9-4.6-7.8,0-.8,1.5,1.3,3.6,5Zm275.2,7.8c2.9,2.7,5.8,8.5,6.7,13.5,.6,3.3-.1,2.4-4-5.3-2.6-5-5.2-9.2-5.7-9.2-1.8,0,3.1,10.7,7,15.2,.8,1,1,1.8,.5,1.8-1.7,0-6.8-6.3-8.2-10.1-.7-1.8-1.7-4.2-2.2-5.1-.8-1.6-.3-2,3.2-2.7,.3,0,1.5,.8,2.7,1.9Zm-266.3,1.3c-1,.7-4.3,3.4-7.2,6.1-5.7,5.2-6.7,5.4-3,.4,2.6-3.5,8.5-7.8,10.7-7.7,1.1,0,1,.3-.5,1.2Zm192.5,1.2c-.9,1.1-1.1,3.7-.7,9,.3,4.1,.2,7.5-.3,7.5-1.3,0-2.1-3.5-2.3-9.6-.1-4.5,.3-5.9,1.8-7,2.5-1.8,3.1-1.8,1.5,.1Zm5.2-.3c-.7,.7-1.2,4.1-1.3,7.7-.1,3.7-.5,7.7-.9,9.1-1.1,3.3-1.2,2-1-7.5,.2-7.7,1.1-10.5,3.3-10.5,.7,0,.7,.4-.1,1.2Zm5.7,2.1c.6,.8,1.8,4.9,2.7,9.3,.9,4.3,2.2,8.9,3,10.1,1.6,2.5,.4,3.2-1.5,.9-.6-.7-2.1-5.1-3.2-9.7-2.8-11.5-2.9-11.8-3.9-9.4-1.8,4.2-1,8.7,2.5,14.6,3.9,6.7,3.4,7.5-1.5,2.4-2.8-2.8-3.4-4.4-3.8-8.9-.6-7.1,.3-10.6,2.7-10.6,1,0,2.4,.6,3,1.3Zm102.1,1.2c0,.2-1,.9-2.2,1.5-2.2,1.1-2.2,1-.4-.4,2.1-1.7,2.6-1.9,2.6-1.1Zm-70.3,5.7c-.2,1.3-.4,.5-.4-1.7-.1-2.2,.1-3.2,.4-2.3,.2,1,.2,2.8,0,4Zm-233.5-3.1c2,1.1,2,2.6,.1,7.5-.5,1.3-.3,1.5,.7,.9,.9-.5,1.1-.4,.6,.4-.4,.6-1.1,.9-1.5,.7-.4-.3-3.1,1.7-6,4.5-8.1,7.6-10.3,6.3-5.6-3.4,2.2-4.6,7.7-11.7,9.1-11.7,.3,0,1.4,.5,2.6,1.1Zm4.1,2.9c-.7,2.7-1,2.5-1.5-1-.3-2.2-.2-2.7,.8-1.9,.6,.5,1,1.9,.7,2.9Zm10,1.7c-.7,.2-2.1,.2-3,0-1-.3-.4-.5,1.2-.5,1.7,0,2.4,.2,1.8,.5Zm8,1c-.7,.2-2.1,.2-3,0-1-.3-.4-.5,1.2-.5,1.7,0,2.4,.2,1.8,.5Zm43.4-.1c-.3,.3-1.2,.4-1.9,.1-.8-.3-.5-.6,.6-.6,1.1-.1,1.7,.2,1.3,.5Zm-25.9,1.1c-2.1,.2-5.7,.2-8,0-2.4-.2-.7-.4,3.7-.4s6.3,.2,4.3,.4Zm9,0c-1,.2-2.6,.2-3.5,0-1-.3-.2-.5,1.7-.5s2.7,.2,1.8,.5Zm-62.1,4.3c-.7,1.7-1.3,2.6-1.5,2.1-.3-1,1.5-5.1,2.2-5.1,.3,0-.1,1.4-.7,3Zm21.3,.4c0,.2-.8,1-1.7,1.7-1.6,1.3-1.7,1.2-.4-.4s2.1-2.1,2.1-1.3Zm68.7,3.8c-.3,.7-.5,.2-.5-1.2s.2-1.9,.5-1.3c.2,.7,.2,1.9,0,2.5Zm-79.7-.9c0,.2-1.2,1.4-2.7,2.8l-2.8,2.4,2.4-2.8c2.3-2.5,3.1-3.2,3.1-2.4Zm-9.7,6.1c1.8,.3,1.8,.4-.3,.3-1.9-.2-2.5-.8-2.6-2.7-.1-2,0-2.1,.3-.3,.2,1.2,1.4,2.4,2.6,2.7Zm17.7-5.1c0,.2-1.5,1.6-3.2,3.3l-3.3,2.9,2.9-3.3c2.8-3,3.6-3.7,3.6-2.9Zm70.7,4.9c-.3,.8-.6,.5-.6-.6-.1-1.1,.2-1.7,.5-1.3,.3,.3,.4,1.2,.1,1.9Zm-79.6,2.8c-1.3,1.1-2.8,2-3.5,2-.6,0,.3-.9,1.9-1.9,3.9-2.5,4.6-2.5,1.6-.1Zm-8.2,2.6c2.5-.4,3.1-.2,2.1,.4-2.3,1.5-6.4,1.2-8.6-.6-1.8-1.4-1.8-1.5,.5-.3,1.3,.6,4,.9,6,.5Zm86.8,.6c-.3,.8-.6,.5-.6-.6-.1-1.1,.2-1.7,.5-1.3,.3,.3,.4,1.2,.1,1.9Zm13.9,3.6c-4.1,11.5-4.8,38.1-1.6,56.1,2.1,11.3,6.9,24.1,9.2,24.1,1.3,0,.7-8.8-1.6-23-.9-5.2-1.5-12.7-1.4-16.5,.1-3.9,.3-5.4,.5-3.5,.3,1.9,1.1,4.2,1.8,5,.9,1,1.7,6.9,2.4,18.5,1.7,26.7,2.1,30.8,2.7,33.5,1.4,5.4-1.6,.1-7.1-12.5-3.2-7.2-7.4-16.6-9.5-21-4.2-8.8-8-21.7-8-26.8,0-1.7,.7-4.4,1.4-5.9,.8-1.5,1.8-5.3,2.2-8.5,.6-4.9,.8-5.4,1.6-3.4,.6,1.7,.2,5-1.3,10.8-2.2,9.2-1.8,13.8,2.2,22.8l1.7,4-.5-11c-.8-16.3,1.1-38.4,3.7-43.6,2.6-5.1,3.5-4.6,1.6,.9Zm2.5,4.9c-1.3,10.1,0,50.2,1.9,56.6,.6,2.1,1,5.9,.8,8.5q-.3,4.6-2.5-4.3c-3.9-16-5.4-38.4-3.4-51,2-12.8,3.3-19.6,3.8-19.1,.3,.2,0,4.4-.6,9.3Zm-17.4-2.5c-.3,.7-.5,.2-.5-1.2s.2-1.9,.5-1.3c.2,.7,.2,1.9,0,2.5Zm21.1,16.3c0,4.4-.3,8.9-.8,10-.5,1.2-.8-4-.8-13.5,.1-11.5,.3-14.1,.8-10,.5,3,.8,9.1,.8,13.5Zm204.2-12c0,.5-.5,.3-1-.5s-1-2-1-2.5c0-.6,.5-.3,1,.5s1,1.9,1,2.5Zm-226.3,.7c-.3,.7-.5,.2-.5-1.2s.2-1.9,.5-1.3c.2,.7,.2,1.9,0,2.5Zm-1,6c-.3,.8-.6,.5-.6-.6-.1-1.1,.2-1.7,.5-1.3,.3,.3,.4,1.2,.1,1.9Zm231.3,1.8c.6,1.1,.8,2,.6,2-.3,0-1-.9-1.6-2s-.8-2-.6-2c.3,0,1,.9,1.6,2Zm5,11.5c0,.5-.5,.3-1-.5s-1-2-1-2.5c0-.6,.5-.3,1,.5s1,1.9,1,2.5Zm5.9,17.5c0,.8-.7-.1-1.4-2-1.8-4.6-1.7-6.4,0-2.5,.8,1.6,1.4,3.7,1.4,4.5Zm-247.2,3.2c-.3,.8-.6,.5-.6-.6-.1-1.1,.2-1.7,.5-1.3,.3,.3,.4,1.2,.1,1.9Zm250,9c-.3,.8-.6,.5-.6-.6-.1-1.1,.2-1.7,.5-1.3,.3,.3,.4,1.2,.1,1.9Zm-251,1c-.3,.8-.6,.5-.6-.6-.1-1.1,.2-1.7,.5-1.3,.3,.3,.4,1.2,.1,1.9Zm252,4.5c-.3,1-.5,.4-.5-1.2,0-1.7,.2-2.4,.5-1.8,.2,.7,.2,2.1,0,3Zm-240.6,6.8c.7,2.1,.6,2.6-.1,1.9-.6-.6-1.3-2.8-1.5-5-.2-2.1-.2-3,.1-1.9s1,3.3,1.5,5Zm240.6,9.7c-.3,.7-.5,.2-.5-1.2s.2-1.9,.5-1.3c.2,.7,.2,1.9,0,2.5Zm-224.8,7.3c0,.5-.6-.1-1.4-1.5s-1.4-3-1.4-3.5c0-.6,.6,.1,1.4,1.5s1.4,2.9,1.4,3.5Zm219.2-2.8c-1.2,2-1.4,1.4-.5-1.2,.4-.9,.9-1.4,1.1-1.1,.3,.2,0,1.3-.6,2.3Zm4.3,1.7c-.3,1.5-.8,2.5-1.1,2.3-.2-.3-.1-1.7,.3-3.1,.3-1.5,.8-2.5,1.1-2.3,.2,.3,.1,1.7-.3,3.1Zm-163,2.8c1-1.7,4-.3,9.7,4.4,6.1,5,11.2,7.7,13.7,7.2,.9-.2-1.2-1.7-5.1-3.6-3.7-1.8-6.7-3.5-6.7-3.7,0-.1,1.7,.1,3.8,.6,2,.5,4,.9,4.4,.9s2,1.3,3.6,2.8c3.6,3.5,2.5,4.8-4.5,4.7-2.8,0-4.9,.3-4.6,.7,1.1,1.9-3.8,.6-7.4-2-4.6-3-8.2-7.2-10.7-11.9-2.3-4.5-1.9-5.3,.8-1.9,1.3,1.6,2.6,2.4,3,1.8Zm1.6,11.1c2.3,1.9,5.8,4,7.8,4.6l3.7,1.1-4.3-.4c-8-.8-16.4-9.4-16.1-16.7,0-1.9,.6-1.3,2.4,2.7,1.3,2.8,4.2,6.7,6.5,8.7Zm125-3.2c0,2.8-.6,5.1-1.4,5.8-1.2,1-1.5,0-1.8-6.8-.3-7.9-.2-8,1.4-5.9,1.1,1.4,1.8,4.1,1.8,6.9Zm30.3-6.4c-.4,1-1.3,2.9-1.9,4.2-.7,1.4-1,2.9-.7,3.4,.3,.6,.1,.7-.5,.3-.7-.4-1.2-.2-1.2,.3,0,.6-1.2,1.1-2.7,1q-2.7-.1-.4-.8c1.5-.4,3.3-2.4,4.8-5.4,2.5-4.7,3.8-6.2,2.6-3Zm2.3,6c-.8,1.5-1.5,2.5-1.6,2.1,0-1.2,2.3-5.8,2.7-5.4,.3,.2-.2,1.7-1.1,3.3Zm-177.8,10.7c4.7,5,10.2,7.5,15.6,7l4.1-.4-4.2,1.1c-3.7,.9-4.8,.7-9-1.5-5.1-2.6-8.5-5.8-12.2-11.6q-2.2-3.4-.1-1c1.2,1.4,3.8,4.3,5.8,6.4Zm163.9-7.8c-.3,.3-1.2,.4-1.9,.1-.8-.3-.5-.6,.6-.6,1.1-.1,1.7,.2,1.3,.5Zm-173.2,5.5c1.4,2.7,4.7,7.1,7.3,9.6,3.7,3.7,4,4.1,1.2,2-2-1.4-4.5-3.9-5.6-5.4-2.5-3.4-6.7-11.3-5.9-11.3,.2,0,1.6,2.3,3,5.1Zm168.8-4.4c-.7,.2-1.9,.2-2.5,0-.7-.3-.2-.5,1.2-.5s1.9,.2,1.3,.5Zm18.2,1.3c1,1.1,1.6,2,1.3,2s-1.3-.9-2.3-2-1.6-2-1.3-2,1.3,.9,2.3,2Zm-2.1,3.2c2.6,4.1-1.2,5.7-20.9,8.7-7.1,1.1-18.6,3.8-25.5,5.9-6.9,2.2-14.5,4.5-17,5-7.6,1.8-22,2.4-31,1.3-10.5-1.3-33.2-3.6-51-5.1-16.6-1.5-16.5-1.5-11-2.8,2.5-.6,6.3-1.5,8.5-2.1,2.3-.6,15.7-1.1,32-1,34.8,0,61.6-2.5,81.8-7.7,9-2.3,29-5.1,31.2-4.4,1,.4,2.3,1.4,2.9,2.2Zm-116.6,6.5c-1,.2-2.6,.2-3.5,0-1-.3-.2-.5,1.7-.5s2.7,.2,1.8,.5Zm12.9,0c-2,.2-5.2,.2-7,0-1.7-.2,0-.4,3.8-.4s5.3,.2,3.2,.4Zm97.3,4.3c0,.5-.9,1-2,1s-3.7,.7-5.7,1.5c-5.2,2.2-5.4,.9-.2-1.5,4.8-2.1,7.9-2.6,7.9-1Zm-.7,9.2c-4.3,4.2-15,7.5-30.9,9.5-12.6,1.5-15.9,1.5-35.4,.2-11.8-.7-20.4-1.5-19.1-1.7s10.5,.1,20.6,.7c20.5,1.2,25.4,.7,49-5,14.1-3.4,18.1-5.5,17-9-.4-1-.3-2.4,.2-3.1,.5-.9,.9-.1,1.1,2.1,.3,2.7-.3,4-2.5,6.3Zm-12.3-5.3c0,.5-2.6,1.5-5.7,2.1-3.2,.6-8.5,1.8-11.8,2.5-11.9,2.7-35.4,6.7-36.7,6.2-.7-.2,.5-.8,2.7-1.1,11.2-1.9,49.4-9.7,51.3-10.5,.1-.1,.2,.3,.2,.8Zm-147,2.7c0,.2-.9,0-2-.6s-2-1.3-2-1.6c0-.2,.9,0,2,.6s2,1.3,2,1.6Zm7.6,4.2c-.5,.4-6.6-2.6-6.6-3.3,0-.3,1.6,.3,3.5,1.2s3.3,1.8,3.1,2.1Zm155.8,.3c-1,1.2-3.2,2.7-4.9,3.5-1.8,.8-2.2,.9-1.1,.2,1-.7,3.1-2.3,4.5-3.5,3.3-2.8,4-2.9,1.5-.2Zm-132.8,2.4c-1.1,.8-2.5,1.5-3,1.4-.6,0-.5-.3,.3-.6,1.1-.5,1.1-.7,0-1.4-1-.6-.5-.9,1.6-.9q2.9,.1,1.1,1.5Zm21.7-.8c-3.4,.2-9.3,.2-13,0s-.9-.3,6.2-.3,10.2,.1,6.8,.3Zm22.7,1.4c2.2,.6,2.1,.7-1,.7-1.9,0-5.7-.3-8.5-.8l-5-.8,6,.1c3.3,0,7.1,.4,8.5,.8Zm13.3,.6c-.7,.2-2.1,.2-3,0-1-.3-.4-.5,1.2-.5,1.7,0,2.4,.2,1.8,.5Zm-52.5,1c-1,.2-2.6,.2-3.5,0-1-.3-.2-.5,1.7-.5s2.7,.2,1.8,.5Zm4.9,.9c-.3,.3-1.2,.4-1.9,.1-.8-.3-.5-.6,.6-.6,1.1-.1,1.7,.2,1.3,.5Zm20.6,.1c-3.4,.2-9.3,.2-13,0s-.9-.3,6.2-.3,10.2,.1,6.8,.3Zm84.4,2.9c-.3,.3-1.2,.4-1.9,.1-.8-.3-.5-.6,.6-.6,1.1-.1,1.7,.2,1.3,.5Zm-110,1c-.3,.3-1.2,.4-1.9,.1-.8-.3-.5-.6,.6-.6,1.1-.1,1.7,.2,1.3,.5Zm106,0c-.3,.3-1.2,.4-1.9,.1-.8-.3-.5-.6,.6-.6,1.1-.1,1.7,.2,1.3,.5Zm-97.9,1.1c-1,.2-2.6,.2-3.5,0-1-.3-.2-.5,1.7-.5s2.7,.2,1.8,.5Zm6.5,0c-.7,.2-2.1,.2-3,0-1-.3-.4-.5,1.2-.5,1.7,0,2.4,.2,1.8,.5Zm24,0c-1.3,.2-3.5,.2-5,0-1.6-.2-.5-.4,2.2-.4s4,.2,2.8,.4Zm19.5,1c-1,.2-2.6,.2-3.5,0-1-.3-.2-.5,1.7-.5s2.7,.2,1.8,.5Zm33.5,0c-.7,.2-1.9,.2-2.5,0-.7-.3-.2-.5,1.2-.5s1.9,.2,1.3,.5Zm-12.5,1c-3.2,.2-8.4,.2-11.5,0-3.2-.2-.6-.3,5.7-.3s8.9,.1,5.8,.3Z"/>
  <path class="cls-1" d="M245.3,67.26c0,1.7,.6,2.5,1.7,2.5,.9,0,2.7,1,4,2.2l2.3,2.1v-3c0-3.4-2.6-6.3-5.8-6.3-1.7,0-2.2,.6-2.2,2.5Z"/>
  <path class="cls-1" d="M228,95.26c-.9,1.9-1.5,3.5-1.2,3.5,.7,0,3.7-6.1,3.3-6.6-.3-.2-1.2,1.2-2.1,3.1Z"/>
  <path class="cls-1" d="M236.8,94.36c-1.6,1.3-2.5,2.4-1.8,2.4s1.7,.9,2.3,2.1c1.1,1.9,1,2-1,.9-2.9-1.6-8.1,.3-10.6,3.8-3.9,5.2-3.7,5.7,.4,2,4.3-3.9,8.2-5.5,10.2-4.3,.7,.4,1.8,2.1,2.5,3.9l1.3,3.1,.7-3.8c.4-2,.3-5.7-.1-8.1l-.9-4.4-3,2.4Z"/>
  <path class="cls-1" d="M217.1,113.86c-2.8,4-3.7,6.5-1.8,5.4,1.1-.7,5.3-8.5,4.8-9-.2-.1-1.5,1.5-3,3.6Z"/>
  <path class="cls-1" d="M302.2,75.46c-.4,12.9-1.3,16.8-6,24.1-1.4,2.2-1.8,3.7-1.2,4.3,.7,.7,2-1,3.8-4.8,1.6-3.2,4.9-8.1,7.5-10.8,2.5-2.8,5.2-5.9,6-7,.8-1.2-.2-.2-2.4,2.2-2.1,2.4-4.2,4.3-4.7,4.3s-.9-3.4-.9-7.5-.4-7.5-1-7.5c-.5,0-1,1.2-1.1,2.7Z"/>
  <path class="cls-1" d="M325.3,87.26c-5.2,7.1-9.9,17-9.3,19.5,.6,2.4,2.3,1.6,2.3-1,0-3.5,4-12.7,8-18.4,5.1-7.2,4.3-7.3-1-.1Z"/>
  <path class="cls-1" d="M313.5,111.26c0,1.6,.2,2.2,.5,1.2,.2-.9,.2-2.3,0-3-.3-.6-.5,.1-.5,1.8Z"/>
  <path class="cls-1" d="M279.2,76.46c-.1,.5-.2,1.2-.4,1.8-.1,.5-.3,1.5-.3,2.2-.2,1.6-9.7,13.1-13.4,16.3l-2.9,2.5,5.6-.3c6.4-.4,6.8-.9,10.5-13.9,2.2-7.8,3.9-10.1,4.1-5.6l.1,2.8,.7-2.5c1-3.1,.5-4-2-4-1,0-2,.3-2,.7Z"/>
  <path class="cls-1" d="M280.4,86.86c-.7,2.2-1.1,4.3-.8,4.5,.2,.2,.9-1.4,1.6-3.7,.7-2.2,1.1-4.3,.8-4.5-.2-.2-.9,1.4-1.6,3.7Z"/>
  <path class="cls-1" d="M269.7,86.96l-2.9,3.3,3.3-2.9c1.7-1.7,3.2-3.1,3.2-3.3,0-.8-.8-.1-3.6,2.9Z"/>
  <path class="cls-1" d="M265.2,92.46c-1.3,1.6-1.2,1.7,.4,.4,.9-.7,1.7-1.5,1.7-1.7,0-.8-.8-.3-2.1,1.3Z"/>
  <path class="cls-1" d="M278.4,94.36c0,1.1,.3,1.4,.6,.6,.3-.7,.2-1.6-.1-1.9-.3-.4-.6,.2-.5,1.3Z"/>
  <path class="cls-1" d="M258.2,99.96c-5.2,6.3-5.7,7.3-2.9,5.8,2.5-1.3,11.8-.7,15,1,1.3,.7,2.1,.5,3-.5,.7-.8,1.6-1.3,2-1,.9,.5,3.4-7.5,2.6-8.3-.3-.3-.6,0-.6,.6,0,3.1-3.1,4.2-11,3.9-7.7-.2-7.8-.2-6.2-2.2,.9-1.1,2.2-2.3,2.7-2.7,.7-.5,.6-.8,0-.8s-2.7,1.9-4.6,4.2Z"/>
  <path class="cls-1" d="M65.3,123.66c0,.5,1.9,1.3,4.1,1.9,2.4,.6,3.8,.7,3.2,.1-1.3-1.3-7.3-2.9-7.3-2Z"/>
  <path class="cls-1" d="M36.1,255.46c.7,.3,1.6,.2,1.9-.1,.4-.3-.2-.6-1.3-.5-1.1,0-1.4,.3-.6,.6Z"/>
  <path class="cls-1" d="M301.8,134.46c-8.5,1.1-22.9,3.5-23.7,3.9-1.4,.9-.9,8.4,.6,9,.8,.3,4.4-.4,8.1-1.5,7.7-2.4,14.6-2.6,22.7-.7,4.8,1.2,5.7,1.2,6.2,0,.8-2.2-.5-7.4-1.9-7.4-.6,0-2-.9-3-2-1.8-2-2.8-2.1-9-1.3Z"/>
  <path class="cls-1" d="M302.5,195.76c-1.8,1.1-5.4,2.3-8,2.7-3.5,.5-4.2,.8-2.7,1.4,2.8,1.1,8.3,1.1,10.4-.1,2-1,5.6-6,4.4-6-.5,0-2.3,.9-4.1,2Z"/>
  <path class="cls-1" d="M323.9,137.46c-.3,.3-.6,2.9-.6,5.7,.1,5.6,1.3,4.8,2.5-1.5,.6-3.4-.4-5.7-1.9-4.2Z"/>
  <path class="cls-1" d="M56,138.06c-3.9,1.3-15.2,9.5-14.3,10.4,.3,.3,1.2,0,2.1-.7,1.7-1.4,15.9-.8,22.6,1,4.3,1.2,10.8,5.4,16.1,10.6,3.2,3,4.3,3.6,5.6,2.7,.9-.5,1.8-2,2-3.2,.4-2.5-4.3-10.3-8.5-14.3-6.7-6.3-17.7-9.1-25.6-6.5Z"/>
  <path class="cls-1" d="M61.1,247.46c.7,.3,1.6,.2,1.9-.1,.4-.3-.2-.6-1.3-.5-1.1,0-1.4,.3-.6,.6Z"/>
  <path class="cls-1" d="M171.3,148.86q-9.5,.7-13.1,4.7c-1.9,2.2-5.1,7.1-7,10.8-3.3,6.5-3.4,7.2-3.4,17.8s1.1,16.1,4.5,20.1c4.6,5.5,20.6,7.9,34.5,5.2,4.4-.9,10.7-1.8,14-2.2,12-1.1,15.5-1.7,15.5-2.5,0-.4-3.5-.6-7.7-.3-16.3,1.1-33.2-4.1-43.7-13.4l-5.4-4.7,4-4.6c2.2-2.5,4.8-6.1,5.9-8.1,1.9-3.8,7.8-10.2,14.9-16,2.2-1.9,4.8-4.4,5.6-5.7q1.4-2.2-3.8-2.1c-2.9,.1-9.6,.5-14.8,1Z"/>
  <path class="cls-1" d="M172.3,210.76l-3.5,.6,2.8,.9c1.8,.5,3.3,.3,4-.4,1.5-1.5,.7-1.8-3.3-1.1Z"/>
  <path class="cls-1" d="M93.3,171.16c0,1,7.2,7.7,7.7,7.2,1-1-3-5.8-5.5-6.7-1.2-.5-2.2-.7-2.2-.5Z"/>
  <path class="cls-1" d="M310.3,244.26c0,.8-.4,1.5-1,1.5-.5,0-1,.6-1,1.4,0,2,4.1,11.7,6.2,14.8,3.3,4.8,4.1,3.5,3.4-5.5-.9-10.5-1.1-11.2-4.2-12.5-3.2-1.5-3.4-1.5-3.4,.3Z"/>
  <path class="cls-1" d="M183.3,377.56c0,1.6,8,8.3,12.4,10.3,5.6,2.5,8.1,2.3,3.1-.3-2.2-1.1-6-3.6-8.5-5.6q-7-5.5-7-4.4Z"/>
  <path class="cls-1" d="M325.8,393.46c-1.6,.2-10.4,2-19.5,3.9-27.7,5.8-48.1,7.8-79.7,7.6-14.9-.1-28.2,.2-29.5,.7-2.5,.9-3.4,.8,20.2,3.1,6.3,.6,16,1.6,21.5,2.1,5.5,.6,15.9,.9,23,.6,11.8-.4,14.3-.9,27.5-5,12.2-3.7,24.5-6.3,43.7-9.3,3.7-.5,5.2-2.2,3.2-3.5-1.4-.9-4.8-.9-10.4-.2Z"/>
  <path class="cls-1" d="M134.3,381.66c0,.5,.7,1.5,1.7,2.2,1.5,1.3,1.5,1.2,.4-.9-1.2-2.3-2.1-2.8-2.1-1.3Z"/>
</svg>