<?xml version="1.0" standalone="no"?>
<!DOCTYPE svg PUBLIC "-//W3C//DTD SVG 20010904//EN"
 "http://www.w3.org/TR/2001/REC-SVG-20010904/DTD/svg10.dtd">
<svg version="1.0" xmlns="http://www.w3.org/2000/svg"
 width="499.000000pt" height="499.000000pt" viewBox="0 0 499.000000 499.000000"
 preserveAspectRatio="xMidYMid meet">

<g transform="translate(0.000000,499.000000) scale(0.100000,-0.100000)"
fill="#000000" stroke="none">
<path d="M2393 4671 c-17 -4 -45 -24 -63 -45 -28 -31 -38 -36 -75 -36 -81 0
-301 -49 -479 -107 -271 -88 -475 -263 -536 -460 -45 -145 -77 -408 -68 -552
2 -35 2 -59 0 -53 -2 6 -9 9 -16 6 -7 -3 -19 3 -26 13 -12 15 -12 16 0 6 21
-19 35 -16 19 4 -37 44 -212 91 -297 78 -102 -15 -191 -70 -259 -159 -48 -64
-170 -308 -231 -461 -30 -77 -35 -101 -35 -170 1 -132 83 -379 175 -527 l22
-36 -46 -50 c-62 -66 -90 -123 -96 -198 -5 -72 7 -100 52 -119 35 -15 94 -7
146 20 43 22 113 97 139 149 20 42 26 47 48 41 13 -3 61 -10 106 -16 140 -18
487 6 446 31 -8 6 0 11 24 15 43 8 57 1 56 -28 l0 -22 -9 23 c-6 14 -17 22
-32 21 l-23 0 22 -9 c25 -10 26 -1 -7 -175 -39 -203 -100 -641 -100 -713 0
-13 4 -20 10 -17 6 4 10 -7 10 -27 l1 -33 19 35 c15 27 19 30 20 15 1 -31 16
1 23 50 l6 40 -14 -35 c-17 -44 -18 -17 0 30 l13 35 8 -30 8 -30 6 30 c4 17 6
-5 6 -50 -1 -68 3 -89 26 -139 21 -43 32 -57 43 -52 9 3 18 -1 21 -9 12 -30
24 -14 25 33 0 26 3 40 6 32 2 -8 11 -28 18 -45 7 -16 24 -61 39 -100 28 -73
57 -117 75 -113 5 2 17 -6 26 -17 15 -19 15 -18 12 25 -3 25 -2 37 0 28 2 -10
9 -18 14 -18 11 0 11 7 -1 49 -5 19 -6 40 -1 48 6 11 14 4 34 -29 22 -36 26
-39 27 -20 0 13 4 20 10 17 6 -3 10 -1 10 6 0 8 6 6 18 -4 14 -13 21 -14 30
-5 9 9 12 9 12 -2 0 -27 57 -136 91 -174 54 -63 166 -130 304 -185 173 -68
248 -82 378 -75 56 4 171 1 257 -6 312 -25 551 -11 720 41 137 43 184 93 179
190 -2 38 2 53 16 67 19 16 19 16 0 -8 -19 -25 -19 -25 9 1 l28 26 -22 43 -21
42 26 65 c38 96 51 207 36 310 -17 122 -70 286 -143 443 -22 47 -50 109 -64
138 -21 45 -24 67 -24 162 0 121 -8 107 87 168 43 27 197 168 343 312 181 178
262 348 264 550 1 113 -21 209 -67 295 -41 76 -90 104 -201 112 -133 10 -246
-25 -331 -103 -21 -19 -34 -26 -30 -16 4 9 9 33 12 52 3 19 12 42 19 51 8 9
12 18 9 21 -3 3 3 11 12 19 16 13 17 12 4 -3 -7 -10 -9 -18 -4 -18 12 0 163
128 163 138 0 4 19 27 43 52 24 25 63 72 88 105 174 230 215 331 173 420 -21
45 -95 113 -169 157 -79 46 -240 99 -318 105 -97 7 -104 10 -147 68 -67 91
-156 131 -364 165 -207 34 -296 42 -446 42 l-145 0 -32 30 c-34 33 -91 44
-150 29z m85 -18 c-16 -2 -40 -2 -55 0 -16 2 -3 4 27 4 30 0 43 -2 28 -4z
m-99 -6 c-2 -1 -15 -11 -29 -22 l-25 -20 19 23 c11 12 24 22 29 22 6 0 8 -1 6
-3z m266 -50 l80 -3 -85 -1 c-85 -2 -85 -2 -109 30 l-25 32 30 -27 c26 -24 39
-27 109 -31z m-322 -18 c-6 -6 -21 -9 -34 -6 -22 4 -22 4 4 6 15 0 27 6 27 13
0 6 3 8 7 5 4 -4 2 -12 -4 -18z m510 14 c-13 -2 -33 -2 -45 0 -13 2 -3 4 22 4
25 0 35 -2 23 -4z m100 -10 c-13 -2 -33 -2 -45 0 -13 2 -3 4 22 4 25 0 35 -2
23 -4z m80 -10 c-7 -2 -21 -2 -30 0 -10 3 -4 5 12 5 17 0 24 -2 18 -5z m-820
-10 c-7 -2 -19 -2 -25 0 -7 3 -2 5 12 5 14 0 19 -2 13 -5z m900 0 c-7 -2 -19
-2 -25 0 -7 3 -2 5 12 5 14 0 19 -2 13 -5z m-966 -9 c-3 -3 -12 -4 -19 -1 -8
3 -5 6 6 6 11 1 17 -2 13 -5z m1036 -1 c-7 -2 -19 -2 -25 0 -7 3 -2 5 12 5 14
0 19 -2 13 -5z m-1076 -9 c-3 -3 -12 -4 -19 -1 -8 3 -5 6 6 6 11 1 17 -2 13
-5z m1136 -1 c-7 -2 -21 -2 -30 0 -10 3 -4 5 12 5 17 0 24 -2 18 -5z m-1176
-9 c-3 -3 -12 -4 -19 -1 -8 3 -5 6 6 6 11 1 17 -2 13 -5z m1220 0 c-3 -3 -12
-4 -19 -1 -8 3 -5 6 6 6 11 1 17 -2 13 -5z m-1264 -11 c-7 -2 -19 -2 -25 0 -7
3 -2 5 12 5 14 0 19 -2 13 -5z m1304 1 c-3 -3 -12 -4 -19 -1 -8 3 -5 6 6 6 11
1 17 -2 13 -5z m-1350 -10 c-3 -3 -12 -4 -19 -1 -8 3 -5 6 6 6 11 1 17 -2 13
-5z m1403 -4 c8 -5 11 -10 5 -10 -5 0 -17 5 -25 10 -8 5 -10 10 -5 10 6 0 17
-5 25 -10z m125 -80 c21 -22 37 -40 34 -40 -3 0 -23 18 -44 40 -21 22 -37 40
-34 40 3 0 23 -18 44 -40z m-1756 16 c-10 -9 -169 -86 -169 -81 0 6 151 84
164 85 5 0 7 -2 5 -4z m1836 -114 c-3 -3 -11 0 -18 7 -9 10 -8 11 6 5 10 -3
15 -9 12 -12z m98 -9 c-7 -2 -21 -2 -30 0 -10 3 -4 5 12 5 17 0 24 -2 18 -5z
m-2173 -6 c0 -2 -10 -12 -22 -23 l-23 -19 19 23 c18 21 26 27 26 19z m2237 -3
c-3 -3 -12 -4 -19 -1 -8 3 -5 6 6 6 11 1 17 -2 13 -5z m40 -10 c-3 -3 -12 -4
-19 -1 -8 3 -5 6 6 6 11 1 17 -2 13 -5z m-2382 -86 c-33 -35 -60 -65 -62 -67
-2 -2 -3 -1 -3 3 0 8 110 126 118 126 3 0 -21 -28 -53 -62z m2495 52 c8 -5 11
-10 5 -10 -5 0 -17 5 -25 10 -8 5 -10 10 -5 10 6 0 17 -5 25 -10z m120 -66 c0
-2 -9 0 -20 6 -11 6 -20 13 -20 16 0 2 9 0 20 -6 11 -6 20 -13 20 -16z m61
-41 c13 -16 12 -17 -3 -4 -17 13 -22 21 -14 21 2 0 10 -8 17 -17z m-2761 -63
c-6 -11 -13 -20 -16 -20 -2 0 0 9 6 20 6 11 13 20 16 20 2 0 0 -9 -6 -20z
m2825 0 c10 -11 16 -20 13 -20 -3 0 -13 9 -23 20 -10 11 -16 20 -13 20 3 0 13
-9 23 -20z m-1253 -70 c48 -60 24 -146 -64 -224 l-50 -45 6 -53 c7 -60 -32
-293 -49 -293 -6 0 -13 45 -16 101 -7 108 -11 124 -35 124 -23 0 -112 -98
-150 -166 l-35 -62 -34 11 c-19 6 -35 16 -35 24 0 7 27 53 59 101 56 82 119
199 155 286 16 38 17 39 36 21 25 -23 25 -41 1 -88 -24 -47 -10 -48 25 -2 14
19 48 51 75 71 90 66 76 113 -37 123 l-67 6 53 49 c50 46 54 48 98 43 31 -3
52 -12 64 -27z m507 -6 c22 -16 23 -20 17 -108 -6 -80 -5 -88 7 -67 8 13 51
60 96 106 l81 82 0 -44 c0 -40 -5 -48 -51 -91 -79 -72 -184 -218 -215 -297
-15 -38 -30 -74 -35 -79 -7 -8 -49 75 -49 99 0 7 16 47 36 88 36 77 63 194 64
280 0 52 10 58 49 31z m468 1 c2 -6 -9 -16 -25 -22 -34 -16 -163 -144 -203
-203 -53 -80 -79 -138 -79 -180 0 -33 4 -42 25 -52 14 -6 25 -15 25 -19 0 -9
-93 -39 -121 -39 -100 0 14 255 189 421 42 41 93 82 112 92 37 18 71 19 77 2z
m-681 -236 c-25 -79 -50 -166 -56 -194 -23 -110 -16 -103 -59 -61 -37 36 -125
77 -147 69 -7 -2 -40 -40 -74 -84 -35 -43 -65 -78 -67 -75 -6 6 29 139 42 158
6 9 52 61 102 116 50 54 106 116 125 138 18 22 60 70 93 107 l60 67 13 -49
c13 -47 12 -52 -32 -192z m-1929 139 c-3 -8 -6 -5 -6 6 -1 11 2 17 5 13 3 -3
4 -12 1 -19z m-10 -50 c-3 -7 -5 -2 -5 12 0 14 2 19 5 13 2 -7 2 -19 0 -25z
m2867 -46 c-9 -16 -25 -39 -36 -53 l-20 -24 16 28 c28 48 48 77 53 77 2 0 -3
-13 -13 -28z m-2887 -79 c-3 -10 -5 -2 -5 17 0 19 2 27 5 18 2 -10 2 -26 0
-35z m2811 -33 c-22 -30 -35 -41 -22 -17 9 16 36 47 41 47 2 0 -6 -13 -19 -30z
m-2821 -117 c-2 -21 -4 -4 -4 37 0 41 2 58 4 38 2 -21 2 -55 0 -75z m2793 74
c0 -2 -10 -12 -22 -23 l-23 -19 19 23 c18 21 26 27 26 19z m-40 -50 c0 -2 -17
-19 -37 -38 l-38 -34 34 38 c33 34 41 42 41 34z m-2763 -164 c-2 -16 -4 -3 -4
27 0 30 2 43 4 28 2 -16 2 -40 0 -55z m2683 74 c0 -1 -33 -34 -72 -72 l-73
-70 70 73 c64 67 75 77 75 69z m-2997 -34 c-7 -2 -21 -2 -30 0 -10 3 -4 5 12
5 17 0 24 -2 18 -5z m94 1 c-3 -3 -12 -4 -19 -1 -8 3 -5 6 6 6 11 1 17 -2 13
-5z m40 -10 c-3 -3 -12 -4 -19 -1 -8 3 -5 6 6 6 11 1 17 -2 13 -5z m-247 -18
c0 -2 -7 -7 -16 -10 -8 -3 -12 -2 -9 4 6 10 25 14 25 6z m252 -21 c96 -34 136
-63 208 -153 52 -66 60 -81 60 -119 0 -24 -1 -43 -3 -43 -2 0 -18 22 -35 49
-88 135 -222 195 -362 161 -41 -10 -74 -30 -150 -91 -53 -43 -120 -104 -149
-134 -28 -31 -48 -48 -45 -38 12 31 82 118 144 177 77 74 151 107 251 114 68
4 84 1 135 -22 36 -16 84 -51 123 -89 52 -51 60 -56 47 -31 -25 50 -101 120
-163 150 -52 24 -65 26 -141 21 -120 -7 -203 -50 -289 -150 -42 -48 -42 -36
-2 23 54 78 148 131 263 145 77 10 58 30 -26 28 -126 -4 -215 -76 -304 -249
-93 -179 -177 -375 -182 -424 -11 -116 98 -437 183 -538 23 -28 33 -31 88 -34
l62 -3 8 -53 c11 -69 18 -71 232 -82 174 -9 269 -2 347 26 36 12 39 12 36 -3
-5 -29 -57 -35 -293 -37 -243 -1 -312 7 -373 44 l-33 20 30 26 c55 46 38 63
-43 44 -36 -8 -41 -6 -68 23 -37 39 -118 206 -152 312 -14 44 -31 119 -38 168
-16 117 -14 122 147 462 97 203 158 270 287 310 65 21 121 18 200 -10z m97 -1
c14 -12 -19 -1 -35 12 -18 14 -18 14 6 3 14 -6 27 -13 29 -15z m-419 -17 c0
-2 -15 -16 -32 -33 l-33 -29 29 33 c28 30 36 37 36 29z m2814 -83 c18 -47 -3
-417 -29 -510 -19 -68 -86 -166 -128 -188 -32 -18 -36 -18 -117 3 -71 18 -188
68 -212 90 -3 3 -4 18 -1 33 l5 27 32 -24 c42 -32 111 -61 162 -70 98 -15 193
49 238 160 22 56 26 80 26 168 0 100 -1 104 -27 129 -42 40 -111 54 -191 39
-71 -13 -147 -47 -176 -80 -28 -31 -35 -26 -25 17 5 20 9 67 9 105 0 37 3 67
8 67 4 1 88 11 187 24 222 30 231 30 239 10z m90 -9 c-8 -34 4 -32 18 3 17 42
21 5 4 -53 -7 -27 -30 -112 -51 -188 -21 -75 -38 -136 -39 -135 -1 2 0 92 2
201 l3 197 35 0 c32 0 34 -2 28 -25z m-2504 -51 c65 -36 121 -102 165 -198 37
-80 41 -91 25 -81 -5 3 -36 -1 -68 -10 l-58 -16 -52 35 c-70 47 -181 72 -243
56 -125 -34 -184 -99 -220 -245 l-18 -70 0 46 c-2 108 59 209 160 264 74 40
174 40 271 1 37 -15 72 -34 79 -42 13 -16 55 -19 64 -4 3 6 1 10 -5 10 -6 0
-29 17 -53 38 -89 81 -149 106 -277 117 -74 6 -77 6 -115 -25 -41 -33 -61 -70
-101 -189 -68 -202 -48 -380 65 -589 40 -73 80 -115 136 -144 22 -12 41 -20
43 -19 1 1 30 -4 64 -11 48 -10 56 -14 37 -19 -17 -4 -5 -8 41 -13 45 -5 87
-3 137 8 90 18 131 38 185 85 38 34 42 42 42 87 1 32 -3 49 -11 49 -7 0 -44
-30 -82 -67 -85 -81 -116 -99 -190 -104 l-56 -3 44 9 c100 22 208 114 273 234
l33 61 3 -120 3 -120 -48 -44 c-59 -54 -114 -78 -207 -92 -257 -38 -488 121
-544 376 -36 162 -37 231 -6 385 64 311 281 475 484 364z m2983 10 c96 -33
147 -133 155 -307 10 -226 -73 -405 -269 -576 -41 -36 -108 -99 -149 -140
-104 -104 -137 -132 -194 -164 -38 -21 -51 -25 -58 -15 -18 29 -6 49 55 89
169 114 461 474 507 627 5 16 9 20 9 10 2 -31 -48 -149 -82 -197 -116 -161
-306 -370 -394 -433 -23 -17 -43 -37 -43 -45 0 -34 38 -6 185 136 67 64 147
141 180 171 69 64 136 152 176 232 102 201 67 525 -63 584 -108 49 -318 -15
-440 -134 -72 -69 -31 -61 43 8 71 67 238 126 328 117 60 -7 94 -27 129 -77
24 -35 31 -68 7 -35 -53 75 -107 100 -200 93 -105 -9 -112 -26 -9 -21 95 6
131 -4 175 -48 33 -33 21 -42 -16 -11 -41 37 -82 46 -178 40 -83 -5 -165 -37
-268 -105 -37 -24 -69 -43 -72 -43 -3 0 0 18 5 40 8 30 25 54 64 88 127 114
291 159 417 116z m-3508 -24 c-9 -16 -18 -30 -21 -30 -2 0 2 14 11 30 9 17 18
30 21 30 2 0 -2 -13 -11 -30z m2410 -70 c-5 -53 -10 -78 -16 -69 -5 8 -9 30
-9 50 0 46 -39 86 -78 80 -43 -5 -45 -11 -16 -42 35 -36 29 -36 -54 0 -37 16
-80 33 -97 39 -29 10 -29 10 -5 12 14 1 79 7 145 14 66 7 124 9 129 5 4 -4 5
-44 1 -89z m62 23 c-3 -44 -19 -124 -36 -183 -19 -63 -34 -139 -38 -191 l-6
-87 -29 10 c-16 6 -56 8 -88 6 -50 -4 -57 -2 -48 10 22 26 69 43 98 37 32 -7
33 -6 45 88 4 26 15 74 27 105 21 61 23 73 34 200 6 73 9 82 27 82 18 0 19 -5
14 -77z m-679 -17 c-114 -55 -244 -171 -332 -293 -21 -29 -49 -61 -64 -72 -15
-11 -21 -21 -14 -21 7 0 42 -22 79 -50 77 -58 139 -83 248 -100 93 -14 248 -6
300 16 52 21 52 18 2 -30 -51 -48 -30 -43 -298 -71 -73 -8 -145 -33 -180 -62
l-31 -27 -52 27 c-28 14 -71 35 -96 46 -92 39 -160 148 -160 257 0 105 49 225
130 316 40 46 40 46 122 53 46 3 153 15 238 25 85 10 160 18 165 18 6 1 -20
-14 -57 -32z m302 13 l38 -12 7 -76 c4 -42 13 -104 20 -138 7 -35 10 -63 8
-63 -3 0 0 -6 6 -14 9 -11 0 -16 -49 -26 -33 -7 -63 -10 -67 -6 -3 3 7 9 23
12 18 3 36 17 46 35 15 26 16 42 7 137 -6 59 -14 114 -19 122 -5 11 -28 16
-81 18 -143 6 -298 -66 -442 -205 -72 -70 -81 -84 -64 -107 10 -13 43 -16 217
-18 113 -2 228 1 255 6 42 7 48 6 37 -5 -10 -11 -70 -15 -280 -16 -172 -2
-262 1 -252 7 13 8 13 11 1 22 -10 9 -12 10 -7 1 5 -9 2 -11 -8 -7 -13 5 -13
8 0 22 8 9 33 39 56 65 49 57 154 143 218 179 64 37 135 60 210 68 36 4 69 8
74 9 5 0 26 -4 46 -10z m155 -29 c49 -13 61 -19 40 -20 -16 0 -42 -11 -57 -23
l-27 -22 15 -75 c18 -98 31 -127 58 -134 34 -8 26 -41 -17 -70 l-37 -25 0 24
c0 18 10 31 33 45 l32 20 -33 0 c-28 0 -35 5 -47 34 -20 48 -50 267 -36 265 3
0 38 -9 76 -19z m-951 -22 c-4 -7 -20 -29 -35 -49 -16 -20 -43 -64 -61 -99
-30 -60 -32 -68 -32 -179 -1 -105 1 -121 24 -165 31 -60 108 -129 163 -146 23
-7 52 -21 66 -31 13 -10 32 -19 42 -19 17 0 19 -8 19 -69 0 -54 4 -74 21 -95
25 -32 139 -100 197 -117 23 -7 42 -14 42 -16 0 -14 -123 -230 -255 -448 -188
-310 -205 -344 -238 -460 -33 -112 -45 -215 -40 -325 3 -72 2 -82 -9 -65 -32
51 -153 370 -163 430 -8 54 8 27 40 -63 42 -120 84 -225 93 -234 5 -5 12 18
16 57 14 140 64 305 120 402 17 29 81 134 141 234 61 100 133 221 161 271 29
49 60 98 69 109 16 17 17 24 5 59 -9 27 -23 44 -44 55 -17 9 -46 25 -64 37
-18 11 -35 18 -38 15 -6 -6 56 -97 95 -139 13 -15 22 -30 20 -33 -9 -9 -56 48
-123 150 -64 95 -70 112 -69 187 1 18 -5 29 -18 33 -10 4 -19 10 -19 14 0 4
-34 24 -75 45 -139 70 -193 150 -195 291 -1 98 -15 83 -29 -32 -18 -141 16
-251 98 -326 39 -35 56 -41 163 -57 l53 -8 -51 -1 c-138 -3 -234 75 -274 222
-28 103 13 338 77 444 34 57 39 104 10 103 -6 -1 -83 -7 -170 -14 -156 -13
-159 -13 -183 -42 -27 -33 -27 -25 7 -264 11 -74 24 -166 29 -205 12 -87 12
-498 0 -585 -8 -66 -56 -347 -65 -387 -4 -17 -2 -21 10 -17 20 8 19 -5 -8 -78
-13 -35 -27 -85 -31 -113 -3 -27 -15 -77 -25 -110 -38 -120 -22 22 43 380 62
344 71 426 71 625 0 173 -11 284 -46 495 -27 161 -39 243 -39 272 l0 31 108 7
c59 4 159 13 222 20 158 17 183 18 174 3z m1533 -3 c54 -23 73 -44 72 -79 -1
-28 -2 -29 -8 -7 -8 30 -33 46 -56 37 -15 -5 -17 -14 -12 -54 7 -56 45 -148
57 -136 5 5 10 20 13 34 l4 25 2 -27 c1 -34 -26 -63 -44 -48 -32 27 -98 270
-73 270 5 0 25 -7 45 -15z m-2756 -52 c-16 -32 -39 -92 -52 -133 -22 -68 -24
-92 -23 -250 1 -164 2 -180 28 -250 64 -180 185 -293 370 -346 110 -31 279 -7
365 52 19 13 37 22 39 20 2 -2 -1 -22 -7 -44 -10 -37 -14 -40 -69 -55 -80 -22
-185 -39 -213 -35 l-24 4 25 6 c14 4 64 12 112 18 48 7 95 19 105 27 17 13 16
14 -12 9 -16 -3 -59 -13 -95 -21 -36 -8 -86 -14 -111 -15 -112 -1 -245 46
-324 113 -22 19 -45 32 -50 30 -37 -12 -151 164 -202 312 -27 79 -41 226 -25
265 9 20 11 10 11 -56 1 -45 10 -114 20 -156 27 -104 105 -260 159 -316 34
-36 40 -40 27 -17 -10 17 -31 46 -47 66 -67 86 -137 317 -138 454 0 58 13 67
23 15 3 -19 5 -15 6 12 1 33 21 140 37 195 4 16 1 22 -13 25 -15 3 -7 15 41
66 32 34 61 62 63 62 2 0 -10 -26 -26 -57z m2663 46 c-3 -5 -1 -9 4 -9 5 0 12
-25 16 -55 3 -31 15 -78 26 -107 10 -28 16 -56 13 -61 -3 -6 -1 -7 4 -4 6 4
13 1 16 -7 7 -16 -40 -36 -82 -35 -24 0 -25 1 -5 10 11 6 27 22 36 36 14 24
14 31 0 71 -8 25 -20 70 -26 101 l-11 56 -35 -4 c-19 -1 -42 -7 -51 -12 -9 -4
-19 -5 -23 -1 -4 3 7 11 25 17 40 14 101 16 93 4z m729 -13 c82 -76 97 -267
32 -397 -57 -111 -185 -280 -309 -407 -87 -89 -185 -160 -205 -148 -5 4 -13
36 -16 71 -9 78 6 104 53 97 33 -4 144 31 187 61 l30 21 -25 -28 c-36 -41 -91
-65 -160 -73 -54 -5 -61 -9 -67 -31 -4 -19 0 -30 17 -44 32 -26 52 -23 96 14
52 43 182 187 245 271 161 215 205 350 158 485 -11 31 -13 32 -67 33 -55 1
-56 1 -23 11 19 5 43 7 54 4 17 -4 17 -2 -4 22 -38 42 -41 43 -105 39 -68 -5
-157 -40 -243 -97 -62 -40 -51 -50 30 -26 80 24 170 30 230 16 86 -20 144 -75
122 -115 -8 -13 -16 -11 -61 12 -80 41 -86 34 -87 -113 0 -116 -1 -123 -32
-182 -62 -119 -123 -182 -173 -182 -8 0 0 8 17 18 35 19 85 78 114 133 65 129
75 223 34 324 -14 33 -25 62 -25 64 0 13 104 -14 152 -39 60 -32 74 -29 35 8
-80 75 -265 77 -424 3 -34 -17 -63 -28 -63 -25 0 23 40 70 88 102 119 81 219
120 308 121 51 1 65 -3 87 -23z m-3535 -11 c-6 -14 -13 -23 -15 -21 -5 5 15
46 22 46 3 0 -1 -11 -7 -25z m3604 -6 c10 -13 21 -42 24 -64 l5 -40 -20 49
c-11 26 -28 57 -38 69 -13 14 -14 19 -4 15 8 -2 23 -15 33 -29z m-927 1 c3 -5
1 -10 -4 -10 -6 0 -11 5 -11 10 0 6 2 10 4 10 3 0 8 -4 11 -10z m-40 -20 c-10
-11 -25 -22 -35 -25 -9 -3 -23 -17 -30 -30 -7 -14 -17 -25 -22 -25 -14 0 28
50 64 77 39 28 47 29 23 3z m1051 -99 c16 -84 -14 -242 -58 -304 -24 -34 -37
-28 -15 7 26 39 57 165 57 228 0 34 -8 78 -20 108 -11 28 -20 56 -20 63 1 22
50 -67 56 -102z m-3138 4 c95 -42 95 -46 19 -116 -47 -43 -76 -80 -99 -127
-30 -61 -33 -74 -33 -162 0 -86 3 -100 29 -148 17 -30 50 -68 77 -89 53 -40
58 -53 11 -29 -45 23 -93 75 -116 126 -17 36 -21 65 -21 145 0 87 3 107 27
157 14 31 45 77 68 102 36 38 41 50 38 83 -3 36 -5 38 -58 55 -73 22 -99 22
-166 -3 -65 -25 -100 -66 -147 -179 -16 -39 -31 -69 -33 -67 -8 8 34 127 60
171 66 113 202 145 344 81z m1997 -17 c-4 -13 -9 -31 -11 -41 -4 -10 6 -29 25
-48 l31 -31 91 8 c68 5 90 4 85 -5 -5 -7 -49 -11 -132 -11 l-124 0 0 36 c0 44
20 114 32 114 5 0 6 -10 3 -22z m1103 -63 l0 -30 -8 30 c-4 17 -8 44 -8 60 l0
30 8 -30 c4 -16 8 -43 8 -60z m-3732 28 c-8 -15 -15 -25 -16 -21 0 12 23 58
27 54 3 -2 -2 -17 -11 -33z m3419 1 c29 -45 41 -144 26 -216 -14 -70 -65 -174
-112 -231 -51 -62 -52 -41 0 36 55 82 101 199 101 258 0 58 -19 125 -41 145
-17 15 -25 16 -71 5 -74 -17 -165 -60 -182 -86 -8 -12 -20 -42 -26 -66 -7 -24
-23 -68 -36 -97 -30 -65 -30 -97 -3 -120 59 -48 82 -84 93 -144 4 -21 12 -38
19 -38 7 0 44 9 82 20 75 21 105 25 90 12 -16 -14 -143 -52 -174 -52 -26 0
-29 4 -35 41 -9 59 -30 93 -81 136 -25 20 -45 44 -45 53 0 9 20 72 45 140 25
68 45 125 45 126 0 2 16 15 35 30 48 36 150 73 206 73 40 1 49 -3 64 -25z
m422 -51 c-2 -16 -4 -3 -4 27 0 30 2 43 4 28 2 -16 2 -40 0 -55z m-2937 39
c33 -33 42 -66 64 -217 21 -146 22 -145 -21 -227 -66 -126 -191 -238 -284
-254 -28 -5 -23 0 31 29 103 55 184 136 231 229 l40 79 -15 105 c-15 108 -41
170 -92 221 -28 28 -53 29 -103 3 -128 -65 -209 -229 -181 -366 15 -71 27 -97
74 -153 44 -52 45 -58 6 -30 -81 60 -129 188 -110 291 24 123 99 223 215 285
75 41 108 42 145 5z m2817 -104 c-3 -8 -6 -5 -6 6 -1 11 2 17 5 13 3 -3 4 -12
1 -19z m110 -30 c-3 -7 -5 -2 -5 12 0 14 2 19 5 13 2 -7 2 -19 0 -25z m-3890
0 c-3 -8 -6 -5 -6 6 -1 11 2 17 5 13 3 -3 4 -12 1 -19z m2325 -28 c-18 -17
-42 -30 -55 -30 -27 0 -57 19 -41 26 6 3 20 11 30 19 10 8 37 14 59 14 l40 0
-33 -29z m-2335 -12 c-3 -8 -6 -5 -6 6 -1 11 2 17 5 13 3 -3 4 -12 1 -19z
m2943 2 c0 -5 -8 -10 -17 -10 -15 0 -16 2 -3 10 19 12 20 12 20 0z m947 -12
c-3 -8 -6 -5 -6 6 -1 11 2 17 5 13 3 -3 4 -12 1 -19z m-1837 -1 c0 -41 -63
-49 -99 -12 l-23 25 61 0 c43 0 61 -4 61 -13z m95 -27 c4 -6 -12 -10 -40 -10
-28 0 -44 4 -40 10 3 6 21 10 40 10 19 0 37 -4 40 -10z m389 2 c4 -7 -148 -42
-184 -42 -31 0 8 20 65 34 69 17 112 19 119 8z m313 -8 c-3 -3 -12 -4 -19 -1
-8 3 -5 6 6 6 11 1 17 -2 13 -5z m-2850 -51 c-3 -10 -5 -4 -5 12 0 17 2 24 5
18 2 -7 2 -21 0 -30z m2705 -5 c37 -12 65 -24 63 -28 -2 -3 -39 -2 -82 3 -43
4 -112 6 -153 4 -43 -3 -64 -1 -50 3 21 7 17 8 -19 9 -56 1 -47 11 27 28 68
15 123 10 214 -19z m379 -5 c-5 -10 -12 -26 -15 -35 -3 -10 -15 -18 -27 -18
-19 0 -19 3 11 40 32 41 50 48 31 13z m-3074 -45 c-3 -8 -6 -5 -6 6 -1 11 2
17 5 13 3 -3 4 -12 1 -19z m2652 -70 c12 -66 2 -145 -33 -258 -32 -102 -50
-208 -43 -255 46 -327 88 -473 222 -770 89 -199 132 -334 141 -448 4 -45 7
-84 6 -87 -1 -5 -129 -28 -164 -29 -17 -1 -31 32 -43 104 -9 51 4 39 24 -23
l16 -47 52 1 c77 2 83 7 83 58 0 121 -45 259 -191 586 -45 103 -104 295 -126
415 -44 231 -45 245 -38 322 4 42 21 117 38 167 28 82 31 103 32 213 0 67 3
119 7 115 3 -4 11 -33 17 -64z m-52 45 c14 -36 8 -190 -12 -268 -24 -102 -32
-66 -10 50 12 68 14 98 5 143 -5 31 -13 59 -18 63 -4 4 -54 -1 -112 -12 -66
-13 -124 -18 -155 -14 -27 3 -99 -1 -160 -9 -60 -8 -144 -18 -185 -21 -94 -8
-176 -43 -190 -80 -6 -15 -10 -46 -10 -70 0 -53 21 -71 108 -91 74 -18 98 -17
47 1 -49 18 -105 80 -105 117 0 36 50 84 103 99 23 7 83 12 132 13 84 0 95 -3
160 -36 39 -20 90 -39 114 -43 35 -6 55 -18 94 -57 27 -27 47 -51 44 -54 -3
-3 -16 6 -29 19 -27 27 -101 71 -138 82 -23 7 -24 7 -10 -10 14 -17 14 -17
-20 0 -19 9 -44 25 -55 35 -31 27 -94 44 -165 43 -88 0 -147 -18 -187 -58 -34
-34 -44 -61 -19 -52 9 4 16 -3 21 -20 4 -16 11 -23 20 -20 7 3 16 -1 19 -9 7
-18 66 -54 89 -54 10 0 16 3 14 8 -3 4 41 7 96 8 56 0 128 6 159 13 51 11 60
10 95 -8 53 -27 85 -80 91 -147 3 -36 1 -54 -7 -54 -6 0 -11 13 -11 28 0 15
-10 48 -22 72 -31 61 -59 64 -141 12 -77 -49 -151 -86 -220 -112 -62 -23 -73
-34 -115 -110 -16 -30 -90 -154 -163 -275 -73 -121 -152 -258 -175 -305 -48
-96 -94 -262 -94 -337 0 -50 23 -131 55 -193 25 -48 113 -139 157 -161 57 -29
118 -32 518 -19 352 10 461 18 477 33 3 4 8 30 11 59 l6 53 17 -75 c10 -41 17
-76 16 -77 -1 0 -48 -4 -105 -7 -56 -4 -110 -10 -119 -13 -9 -4 -14 -2 -10 3
7 12 -257 8 -428 -6 -160 -14 -186 -13 -286 3 -101 17 -117 25 -187 91 -66 63
-129 167 -144 241 -13 68 2 174 42 290 42 123 48 134 424 763 14 23 33 42 41
42 38 0 169 66 285 143 32 22 51 28 77 25 31 -4 33 -3 17 9 -24 18 -45 16
-144 -9 -112 -29 -290 -31 -368 -4 -103 35 -137 88 -106 165 22 54 62 87 126
101 68 15 604 77 681 79 45 1 59 -3 64 -16z m-2590 -15 c-3 -8 -6 -5 -6 6 -1
11 2 17 5 13 3 -3 4 -12 1 -19z m2975 7 c123 -26 188 -86 188 -173 0 -36 -6
-50 -33 -77 -48 -48 -118 -60 -268 -46 -122 11 -144 9 -153 -15 -3 -8 -2 -13
3 -9 11 6 154 -53 219 -91 26 -16 51 -27 55 -26 4 1 22 -28 39 -65 17 -38 82
-180 145 -317 161 -352 210 -492 220 -637 5 -72 4 -80 -28 -144 -56 -111 -116
-160 -248 -201 -44 -14 -44 -14 -26 6 15 16 16 22 5 35 -19 23 -3 31 19 11 20
-18 55 -19 57 -1 0 6 3 17 7 25 3 8 8 35 12 60 3 25 13 56 21 70 15 25 15 25
9 -10 -3 -19 -8 -53 -11 -75 -4 -22 -13 -46 -22 -52 -14 -12 -14 -13 1 -13 27
0 45 40 53 113 4 37 10 67 14 67 4 0 13 18 20 40 7 22 15 39 17 37 3 -4 -14
-159 -23 -196 -4 -21 -3 -23 9 -12 23 19 39 98 31 160 -7 63 5 62 22 -2 l11
-42 12 28 c26 64 11 185 -41 342 -31 94 -138 331 -170 377 -10 14 -18 29 -18
32 0 4 -19 46 -41 94 -23 48 -48 105 -56 127 -24 67 -60 120 -102 148 -22 15
-43 27 -45 27 -3 0 -39 16 -80 35 -42 19 -78 35 -81 35 -10 0 -29 -49 -41
-105 l-12 -60 -1 68 c-1 50 4 78 19 107 32 63 47 68 213 72 164 4 177 9 177
71 0 86 -151 130 -285 82 -17 -6 -17 -4 4 14 20 18 36 21 108 21 128 0 193
-40 193 -119 0 -47 -7 -56 -60 -80 -50 -24 -15 -18 41 6 42 17 59 47 59 101 0
50 -21 77 -83 109 -42 21 -70 27 -149 31 -53 2 -108 2 -122 -2 -26 -6 -35 -28
-52 -117 l-7 -34 24 22 c30 27 72 43 107 42 17 -1 21 -3 9 -6 -9 -2 -14 -9
-10 -15 4 -8 0 -9 -11 -5 -22 9 -96 -41 -130 -86 -13 -17 -34 -52 -46 -77 -21
-42 -22 -52 -17 -205 8 -235 46 -366 197 -691 108 -230 161 -422 158 -571 0
-49 -3 -72 -5 -53 -24 234 -85 444 -193 660 -134 269 -185 473 -178 710 4 117
9 145 32 205 15 39 38 102 52 140 41 119 37 115 120 115 40 0 106 -7 146 -15z
m-2955 -87 c-3 -8 -6 -5 -6 6 -1 11 2 17 5 13 3 -3 4 -12 1 -19z m3663 -53
c-24 -25 -46 -45 -49 -45 -3 0 15 20 39 45 24 25 46 45 49 45 3 0 -15 -20 -39
-45z m-1706 7 c3 -5 -8 -6 -25 -4 -16 2 -29 6 -29 8 0 8 49 4 54 -4z m-1914
-67 c0 -5 -5 -3 -10 5 -5 8 -10 20 -10 25 0 6 5 3 10 -5 5 -8 10 -19 10 -25z
m1853 11 c3 -8 0 -17 -8 -19 -11 -5 -13 6 -6 31 2 6 9 0 14 -12z m496 -86 c15
-19 33 -49 40 -66 14 -35 11 -146 -4 -151 -6 -2 -9 18 -7 51 5 75 -26 143 -92
203 l-51 46 44 -24 c24 -13 55 -40 70 -59z m-2335 44 c3 -8 2 -12 -4 -9 -6 3
-10 10 -10 16 0 14 7 11 14 -7z m3526 13 c0 -2 -17 -19 -37 -38 l-38 -34 34
38 c33 34 41 42 41 34z m-3496 -73 c3 -8 2 -12 -4 -9 -6 3 -10 10 -10 16 0 14
7 11 14 -7z m3416 3 c0 -1 -37 -38 -82 -82 l-83 -80 80 83 c74 76 85 87 85 79z
m-386 -31 c3 -13 15 -111 26 -217 12 -106 25 -211 30 -233 12 -52 5 -58 -10
-9 -6 21 -41 98 -76 172 -36 73 -74 158 -86 190 -11 31 -25 61 -30 68 -7 9 1
14 29 19 21 4 52 13 68 20 41 18 42 17 49 -10z m-2988 -48 c8 -16 13 -28 10
-28 -5 0 -46 69 -46 78 0 8 15 -13 36 -50z m2752 -78 c29 -27 58 -85 67 -135
6 -33 -1 -24 -40 53 -26 50 -52 92 -57 92 -18 0 31 -107 70 -152 8 -10 10 -18
5 -18 -17 0 -68 63 -82 101 -7 18 -17 42 -22 51 -8 16 -3 20 32 27 3 0 15 -8
27 -19z m-2663 -13 c-10 -7 -43 -34 -72 -61 -57 -52 -67 -54 -30 -4 26 35 85
78 107 77 11 0 10 -3 -5 -12z m1925 -12 c-9 -11 -11 -37 -7 -90 3 -41 2 -75
-3 -75 -13 0 -21 35 -23 96 -1 45 3 59 18 70 25 18 31 18 15 -1z m52 3 c-7 -7
-12 -41 -13 -77 -1 -37 -5 -77 -9 -91 -11 -33 -12 -20 -10 75 2 77 11 105 33
105 7 0 7 -4 -1 -12z m57 -21 c6 -8 18 -49 27 -93 9 -43 22 -89 30 -101 16
-25 4 -32 -15 -9 -6 7 -21 51 -32 97 -28 115 -29 118 -39 94 -18 -42 -10 -87
25 -146 39 -67 34 -75 -15 -24 -28 28 -34 44 -38 89 -6 71 3 106 27 106 10 0
24 -6 30 -13z m1021 -12 c0 -2 -10 -9 -22 -15 -22 -11 -22 -10 -4 4 21 17 26
19 26 11z m-703 -57 c-2 -13 -4 -5 -4 17 -1 22 1 32 4 23 2 -10 2 -28 0 -40z
m-2335 31 c20 -11 20 -26 1 -75 -5 -13 -3 -15 7 -9 9 5 11 4 6 -4 -4 -6 -11
-9 -15 -7 -4 3 -31 -17 -60 -45 -81 -76 -103 -63 -56 34 22 46 77 117 91 117
3 0 14 -5 26 -11z m41 -29 c-7 -27 -10 -25 -15 10 -3 22 -2 27 8 19 6 -5 10
-19 7 -29z m100 -17 c-7 -2 -21 -2 -30 0 -10 3 -4 5 12 5 17 0 24 -2 18 -5z
m80 -10 c-7 -2 -21 -2 -30 0 -10 3 -4 5 12 5 17 0 24 -2 18 -5z m434 1 c-3 -3
-12 -4 -19 -1 -8 3 -5 6 6 6 11 1 17 -2 13 -5z m-259 -11 c-21 -2 -57 -2 -80
0 -24 2 -7 4 37 4 44 0 63 -2 43 -4z m90 0 c-10 -2 -26 -2 -35 0 -10 3 -2 5
17 5 19 0 27 -2 18 -5z m-621 -43 c-7 -17 -13 -26 -15 -21 -3 10 15 51 22 51
3 0 -1 -14 -7 -30z m213 -4 c0 -2 -8 -10 -17 -17 -16 -13 -17 -12 -4 4 13 16
21 21 21 13z m687 -38 c-3 -7 -5 -2 -5 12 0 14 2 19 5 13 2 -7 2 -19 0 -25z
m-797 9 c0 -2 -12 -14 -27 -28 l-28 -24 24 28 c23 25 31 32 31 24z m-97 -61
c18 -3 18 -4 -3 -3 -19 2 -25 8 -26 27 -1 20 0 21 3 3 2 -12 14 -24 26 -27z
m177 51 c0 -2 -15 -16 -32 -33 l-33 -29 29 33 c28 30 36 37 36 29z m707 -49
c-3 -8 -6 -5 -6 6 -1 11 2 17 5 13 3 -3 4 -12 1 -19z m-796 -28 c-13 -11 -28
-20 -35 -20 -6 0 3 9 19 19 39 25 46 25 16 1z m-82 -26 c25 4 31 2 21 -4 -23
-15 -64 -12 -86 6 -18 14 -18 15 5 3 13 -6 40 -9 60 -5z m868 -6 c-3 -8 -6 -5
-6 6 -1 11 2 17 5 13 3 -3 4 -12 1 -19z m139 -36 c-41 -115 -48 -381 -16 -561
21 -113 69 -241 92 -241 13 0 7 88 -16 230 -9 52 -15 127 -14 165 1 39 3 54 5
35 3 -19 11 -42 18 -50 9 -10 17 -69 24 -185 17 -267 21 -308 27 -335 14 -54
-16 -1 -71 125 -32 72 -74 166 -95 210 -42 88 -80 217 -80 268 0 17 7 44 14
59 8 15 18 53 22 85 6 49 8 54 16 34 6 -17 2 -50 -13 -108 -22 -92 -18 -138
22 -228 l17 -40 -5 110 c-8 163 11 384 37 436 26 51 35 46 16 -9z m25 -49
c-13 -101 0 -502 19 -566 6 -21 10 -59 8 -85 -3 -46 -3 -46 -25 43 -39 160
-54 384 -34 510 20 128 33 196 38 191 3 -2 0 -44 -6 -93z m-174 25 c-3 -7 -5
-2 -5 12 0 14 2 19 5 13 2 -7 2 -19 0 -25z m211 -163 c0 -44 -3 -89 -8 -100
-5 -12 -8 40 -8 135 1 115 3 141 8 100 5 -30 8 -91 8 -135z m2042 120 c0 -5
-5 -3 -10 5 -5 8 -10 20 -10 25 0 6 5 3 10 -5 5 -8 10 -19 10 -25z m-2263 -7
c-3 -7 -5 -2 -5 12 0 14 2 19 5 13 2 -7 2 -19 0 -25z m-10 -60 c-3 -8 -6 -5
-6 6 -1 11 2 17 5 13 3 -3 4 -12 1 -19z m2313 -18 c6 -11 8 -20 6 -20 -3 0
-10 9 -16 20 -6 11 -8 20 -6 20 3 0 10 -9 16 -20z m50 -115 c0 -5 -5 -3 -10 5
-5 8 -10 20 -10 25 0 6 5 3 10 -5 5 -8 10 -19 10 -25z m59 -175 c0 -8 -7 1
-14 20 -18 46 -17 64 0 25 8 -16 14 -37 14 -45z m-2472 -32 c-3 -8 -6 -5 -6 6
-1 11 2 17 5 13 3 -3 4 -12 1 -19z m2500 -90 c-3 -8 -6 -5 -6 6 -1 11 2 17 5
13 3 -3 4 -12 1 -19z m-2510 -10 c-3 -8 -6 -5 -6 6 -1 11 2 17 5 13 3 -3 4
-12 1 -19z m2520 -45 c-3 -10 -5 -4 -5 12 0 17 2 24 5 18 2 -7 2 -21 0 -30z
m-2406 -68 c7 -21 6 -26 -1 -19 -6 6 -13 28 -15 50 -2 21 -2 30 1 19 3 -11 10
-33 15 -50z m2406 -97 c-3 -7 -5 -2 -5 12 0 14 2 19 5 13 2 -7 2 -19 0 -25z
m-2248 -73 c0 -5 -6 1 -14 15 -8 14 -14 30 -14 35 0 6 6 -1 14 -15 8 -14 14
-29 14 -35z m2192 28 c-12 -20 -14 -14 -5 12 4 9 9 14 11 11 3 -2 0 -13 -6
-23z m43 -17 c-3 -15 -8 -25 -11 -23 -2 3 -1 17 3 31 3 15 8 25 11 23 2 -3 1
-17 -3 -31z m-1630 -28 c10 17 40 3 97 -44 61 -50 112 -77 137 -72 9 2 -12 17
-51 36 -37 18 -67 35 -67 37 0 1 17 -1 38 -6 20 -5 40 -9 44 -9 4 0 20 -13 36
-28 36 -35 25 -48 -45 -47 -28 0 -49 -3 -46 -7 11 -19 -38 -6 -74 20 -46 30
-82 72 -107 119 -23 45 -19 53 8 19 13 -16 26 -24 30 -18z m16 -111 c23 -19
58 -40 78 -46 l37 -11 -43 4 c-80 8 -164 94 -161 167 0 19 6 13 24 -27 13 -28
42 -67 65 -87z m1250 32 c0 -28 -6 -51 -14 -58 -12 -10 -15 0 -18 68 -3 79 -2
80 14 59 11 -14 18 -41 18 -69z m303 64 c-4 -10 -13 -29 -19 -42 -7 -14 -10
-29 -7 -34 3 -6 1 -7 -5 -3 -7 4 -12 2 -12 -3 0 -6 -12 -11 -27 -10 -27 1 -27
1 -4 8 15 4 33 24 48 54 25 47 38 62 26 30z m23 -60 c-8 -15 -15 -25 -16 -21
0 12 23 58 27 54 3 -2 -2 -17 -11 -33z m-1778 -107 c47 -50 102 -75 156 -70
l41 4 -42 -11 c-37 -9 -48 -7 -90 15 -51 26 -85 58 -122 116 -22 34 -22 34 -1
10 12 -14 38 -43 58 -64z m1639 78 c-3 -3 -12 -4 -19 -1 -8 3 -5 6 6 6 11 1
17 -2 13 -5z m-1732 -55 c14 -27 47 -71 73 -96 37 -37 40 -41 12 -20 -20 14
-45 39 -56 54 -25 34 -67 113 -59 113 2 0 16 -23 30 -51z m1688 44 c-7 -2 -19
-2 -25 0 -7 3 -2 5 12 5 14 0 19 -2 13 -5z m182 -13 c10 -11 16 -20 13 -20 -3
0 -13 9 -23 20 -10 11 -16 20 -13 20 3 0 13 -9 23 -20z m-21 -32 c26 -41 -12
-57 -209 -87 -71 -11 -186 -38 -255 -59 -69 -22 -145 -45 -170 -50 -76 -18
-220 -24 -310 -13 -105 13 -332 36 -510 51 -166 15 -165 15 -110 28 25 6 63
15 85 21 23 6 157 11 320 10 348 0 616 25 818 77 90 23 290 51 312 44 10 -4
23 -14 29 -22z m-1166 -65 c-10 -2 -26 -2 -35 0 -10 3 -2 5 17 5 19 0 27 -2
18 -5z m129 0 c-20 -2 -52 -2 -70 0 -17 2 0 4 38 4 39 0 53 -2 32 -4z m973
-43 c0 -5 -9 -10 -20 -10 -11 0 -37 -7 -57 -15 -52 -22 -54 -9 -2 15 48 21 79
26 79 10z m-7 -92 c-43 -42 -150 -75 -309 -95 -126 -15 -159 -15 -354 -2 -118
7 -204 15 -191 17 13 2 105 -1 206 -7 205 -12 254 -7 490 50 141 34 181 55
170 90 -4 10 -3 24 2 31 5 9 9 1 11 -21 3 -27 -3 -40 -25 -63z m-123 53 c0 -5
-26 -15 -57 -21 -32 -6 -85 -18 -118 -25 -119 -27 -354 -67 -367 -62 -7 2 5 8
27 11 112 19 494 97 513 105 1 1 2 -3 2 -8z m-1470 -27 c0 -2 -9 0 -20 6 -11
6 -20 13 -20 16 0 2 9 0 20 -6 11 -6 20 -13 20 -16z m76 -42 c-5 -4 -66 26
-66 33 0 3 16 -3 35 -12 19 -9 33 -18 31 -21z m1558 -3 c-10 -12 -32 -27 -49
-35 -18 -8 -22 -9 -11 -2 10 7 31 23 45 35 33 28 40 29 15 2z m-1328 -24 c-11
-8 -25 -15 -30 -14 -6 0 -5 3 3 6 11 5 11 7 0 14 -10 6 -5 9 16 9 29 -1 29 -1
11 -15z m217 8 c-34 -2 -93 -2 -130 0 -37 2 -9 3 62 3 72 0 102 -1 68 -3z
m227 -14 c22 -6 21 -7 -10 -7 -19 0 -57 3 -85 8 l-50 8 60 -1 c33 0 71 -4 85
-8z m133 -6 c-7 -2 -21 -2 -30 0 -10 3 -4 5 12 5 17 0 24 -2 18 -5z m-525 -10
c-10 -2 -26 -2 -35 0 -10 3 -2 5 17 5 19 0 27 -2 18 -5z m49 -9 c-3 -3 -12 -4
-19 -1 -8 3 -5 6 6 6 11 1 17 -2 13 -5z m206 -1 c-34 -2 -93 -2 -130 0 -37 2
-9 3 62 3 72 0 102 -1 68 -3z m844 -29 c-3 -3 -12 -4 -19 -1 -8 3 -5 6 6 6 11
1 17 -2 13 -5z m-1100 -10 c-3 -3 -12 -4 -19 -1 -8 3 -5 6 6 6 11 1 17 -2 13
-5z m1060 0 c-3 -3 -12 -4 -19 -1 -8 3 -5 6 6 6 11 1 17 -2 13 -5z m-979 -11
c-10 -2 -26 -2 -35 0 -10 3 -2 5 17 5 19 0 27 -2 18 -5z m65 0 c-7 -2 -21 -2
-30 0 -10 3 -4 5 12 5 17 0 24 -2 18 -5z m240 0 c-13 -2 -35 -2 -50 0 -16 2
-5 4 22 4 28 0 40 -2 28 -4z m195 -10 c-10 -2 -26 -2 -35 0 -10 3 -2 5 17 5
19 0 27 -2 18 -5z m335 0 c-7 -2 -19 -2 -25 0 -7 3 -2 5 12 5 14 0 19 -2 13
-5z m-125 -10 c-32 -2 -84 -2 -115 0 -32 2 -6 3 57 3 63 0 89 -1 58 -3z"/>
<path d="M2780 4005 c0 -17 6 -25 17 -25 9 0 27 -10 40 -22 l23 -21 0 30 c0
34 -26 63 -58 63 -17 0 -22 -6 -22 -25z"/>
<path d="M2607 3725 c-9 -19 -15 -35 -12 -35 7 0 37 61 33 66 -3 2 -12 -12
-21 -31z"/>
<path d="M2695 3734 c-16 -13 -25 -24 -18 -24 7 0 17 -9 23 -21 11 -19 10 -20
-10 -9 -29 16 -81 -3 -106 -38 -39 -52 -37 -57 4 -20 43 39 82 55 102 43 7 -4
18 -21 25 -39 l13 -31 7 38 c4 20 3 57 -1 81 l-9 44 -30 -24z"/>
<path d="M2498 3539 c-28 -40 -37 -65 -18 -54 11 7 53 85 48 90 -2 1 -15 -15
-30 -36z"/>
<path d="M3349 3923 c-4 -129 -13 -168 -60 -241 -14 -22 -18 -37 -12 -43 7 -7
20 10 38 48 16 32 49 81 75 108 25 28 52 59 60 70 8 12 -2 2 -24 -22 -21 -24
-42 -43 -47 -43 -5 0 -9 34 -9 75 0 43 -4 75 -10 75 -5 0 -10 -12 -11 -27z"/>
<path d="M3580 3805 c-52 -71 -99 -170 -93 -195 6 -24 23 -16 23 10 0 35 40
127 80 184 51 72 43 73 -10 1z"/>
<path d="M3462 3565 c0 -16 2 -22 5 -12 2 9 2 23 0 30 -3 6 -5 -1 -5 -18z"/>
<path d="M3119 3913 c-1 -5 -2 -12 -4 -18 -1 -5 -3 -15 -3 -22 -2 -16 -97
-131 -134 -163 l-29 -25 56 3 c64 4 68 9 105 139 22 78 39 101 41 56 l1 -28 7
25 c10 31 5 40 -20 40 -10 0 -20 -3 -20 -7z"/>
<path d="M3131 3809 c-7 -22 -11 -43 -8 -45 2 -2 9 14 16 37 7 22 11 43 8 45
-2 2 -9 -14 -16 -37z"/>
<path d="M3024 3808 l-29 -33 33 29 c17 17 32 31 32 33 0 8 -8 1 -36 -29z"/>
<path d="M2979 3753 c-13 -16 -12 -17 4 -4 9 7 17 15 17 17 0 8 -8 3 -21 -13z"/>
<path d="M3111 3734 c0 -11 3 -14 6 -6 3 7 2 16 -1 19 -3 4 -6 -2 -5 -13z"/>
<path d="M2909 3678 c-52 -63 -57 -73 -29 -58 25 13 118 7 150 -10 13 -7 21
-5 30 5 7 8 16 13 20 10 9 -5 34 75 26 83 -3 3 -6 0 -6 -6 0 -31 -31 -42 -110
-39 -77 2 -78 2 -62 22 9 11 22 23 27 27 7 5 6 8 0 8 -6 0 -27 -19 -46 -42z"/>
<path d="M980 3441 c0 -5 19 -13 41 -19 24 -6 38 -7 32 -1 -13 13 -73 29 -73
20z"/>
<path d="M688 2123 c7 -3 16 -2 19 1 4 3 -2 6 -13 5 -11 0 -14 -3 -6 -6z"/>
<path d="M3345 3333 c-85 -11 -229 -35 -237 -39 -14 -9 -9 -84 6 -90 8 -3 44
4 81 15 77 24 146 26 227 7 48 -12 57 -12 62 0 8 22 -5 74 -19 74 -6 0 -20 9
-30 20 -18 20 -28 21 -90 13z"/>
<path d="M3352 2720 c-18 -11 -54 -23 -80 -27 -35 -5 -42 -8 -27 -14 28 -11
83 -11 104 1 20 10 56 60 44 60 -5 0 -23 -9 -41 -20z"/>
<path d="M3566 3303 c-3 -3 -6 -29 -6 -57 1 -56 13 -48 25 15 6 34 -4 57 -19
42z"/>
<path d="M887 3297 c-39 -13 -152 -95 -143 -104 3 -3 12 0 21 7 17 14 159 8
226 -10 43 -12 108 -54 161 -106 32 -30 43 -36 56 -27 9 5 18 20 20 32 4 25
-43 103 -85 143 -67 63 -177 91 -256 65z"/>
<path d="M938 2203 c7 -3 16 -2 19 1 4 3 -2 6 -13 5 -11 0 -14 -3 -6 -6z"/>
<path d="M2040 3189 c-95 -7 -95 -7 -131 -47 -19 -22 -51 -71 -70 -108 -33
-65 -34 -72 -34 -178 0 -111 11 -161 45 -201 46 -55 206 -79 345 -52 44 9 107
18 140 22 120 11 155 17 155 25 0 4 -35 6 -77 3 -163 -11 -332 41 -437 134
l-54 47 40 46 c22 25 48 61 59 81 19 38 78 102 149 160 22 19 48 44 56 57 14
22 14 22 -38 21 -29 -1 -96 -5 -148 -10z"/>
<path d="M2050 2570 l-35 -6 28 -9 c18 -5 33 -3 40 4 15 15 7 18 -33 11z"/>
<path d="M1260 2966 c0 -10 72 -77 77 -72 10 10 -30 58 -55 67 -12 5 -22 7
-22 5z"/>
<path d="M3430 2235 c0 -8 -4 -15 -10 -15 -5 0 -10 -6 -10 -14 0 -20 41 -117
62 -148 33 -48 41 -35 34 55 -9 105 -11 112 -42 125 -32 15 -34 15 -34 -3z"/>
<path d="M2160 902 c0 -16 80 -83 124 -103 56 -25 81 -23 31 3 -22 11 -60 36
-85 56 -70 55 -70 55 -70 44z"/>
<path d="M3585 743 c-16 -2 -104 -20 -195 -39 -277 -58 -481 -78 -797 -76
-149 1 -282 -2 -295 -7 -25 -9 -34 -8 202 -31 63 -6 160 -16 215 -21 55 -6
159 -9 230 -6 118 4 143 9 275 50 122 37 245 63 437 93 37 5 52 22 32 35 -14
9 -48 9 -104 2z"/>
<path d="M1670 861 c0 -5 7 -15 17 -22 15 -13 15 -12 4 9 -12 23 -21 28 -21
13z"/>
</g>
</svg>
