<?xml version="1.0" encoding="UTF-8"?>
<svg id="Layer_1" data-name="Layer 1" xmlns="http://www.w3.org/2000/svg" viewBox="0 0 160.8 68.64">
  <defs>
    <style>
      .cls-1 {
        fill: #fff;
      }
    </style>
  </defs>
  <path class="cls-1" d="M45.85,56.75c-1.3,1.67-2.77,2.72-4.39,3.14-1.63,.42-3.32,.49-5.09,.21-.93-.19-1.84-.52-2.72-1.01-.88-.49-1.72-1.03-2.51-1.64-1.07-.84-2.07-1.75-3-2.75-.93-1-1.81-2.01-2.65-3.03-1.44-1.86-2.82-3.72-4.15-5.58-1.32-1.86-2.68-3.72-4.08-5.58-.23-.28-.49-.53-.77-.77-.28-.23-.58-.53-.91-.91-.51,1.25-1,2.44-1.46,3.56-.47,1.12-.88,2.23-1.25,3.35-.88,2.33-1.73,4.61-2.54,6.87-.81,2.25-1.41,4.57-1.78,6.94,0,.28-.17,.53-.52,.77-.35,.23-.66,.39-.94,.49-.37,.09-.8,.06-1.29-.1-.49-.16-.98-.37-1.46-.63-.49-.26-.94-.55-1.36-.87-.42-.33-.72-.63-.91-.91-.19-.32-.35-.63-.49-.91-.14-.28-.35-.49-.63-.63-.6-.28-.92-.62-.94-1.01-.02-.39,.03-.78,.17-1.15,.37-1.3,.78-2.58,1.22-3.83,.44-1.26,.87-2.49,1.29-3.7,.56-1.63,1.13-3.25,1.71-4.88,.58-1.63,1.15-3.25,1.71-4.88,.37-1.12,.78-2.21,1.22-3.28,.44-1.07,.85-2.16,1.22-3.28,.6-1.91,1.21-3.83,1.81-5.79,.6-1.95,1.16-3.88,1.67-5.79,.09-.37,.14-.75,.14-1.15s-.05-.78-.14-1.15c0-.19-.14-.35-.42-.49-.28-.14-.53-.23-.77-.28-.79-.14-1.39-.39-1.81-.77-.42-.37-.77-.84-1.05-1.39-.23-.37-.5-.74-.8-1.12-.3-.37-.62-.74-.94-1.12,.19-.23,.35-.43,.49-.59,.14-.16,.3-.34,.49-.52-.23-.14-.48-.27-.73-.38-.26-.12-.57-.27-.94-.45,.32-.23,.53-.65,.63-1.25,.09-.6,.19-1.07,.28-1.39,.09-.42,.71-.82,1.85-1.22,1.14-.39,2.63-.75,4.46-1.08,1.84-.32,3.93-.59,6.28-.8,2.35-.21,4.8-.32,7.36-.35,2.56-.02,5.12,.06,7.7,.24,2.58,.19,5.01,.54,7.29,1.05,.74,.19,1.6,.53,2.58,1.05,.98,.51,1.93,1.1,2.86,1.78,.93,.67,1.79,1.39,2.58,2.16,.79,.77,1.37,1.48,1.74,2.13,.88,1.35,1.53,2.85,1.95,4.5,.42,1.65,.51,3.31,.28,4.99-.23,1.67-.8,3.32-1.71,4.95-.91,1.63-2.24,3.09-4.01,4.39-1.86,.93-3.5,1.71-4.92,2.34-1.42,.63-2.71,1.17-3.87,1.64-1.16,.47-2.22,.86-3.17,1.19-.95,.33-1.89,.63-2.82,.91-.42,.19-.85,.29-1.29,.31-.44,.02-.87,.03-1.29,.03-1.72,.09-2.21,.81-1.46,2.16,.65,.98,1.3,1.96,1.95,2.96,.65,1,1.35,2.01,2.09,3.03,.6,.84,1.22,1.7,1.85,2.58,.63,.88,1.34,1.72,2.13,2.51,.84,.93,1.75,1.78,2.75,2.54,1,.77,1.99,1.55,2.96,2.34,.09,.09,.19,.14,.28,.14s.19,.05,.28,.14c.42,.23,.85,.41,1.29,.52,.44,.12,.92,.29,1.43,.52Zm-12.62-28.87c1.07-.46,2.13-.92,3.17-1.36,1.05-.44,2.13-.85,3.24-1.22,1.44-.56,2.75-1.21,3.94-1.95,1.19-.74,2.01-1.86,2.48-3.35,.37-1.26,.35-2.41-.07-3.45-.42-1.05-1.42-1.82-3-2.34-1.95-.51-3.81-.88-5.58-1.12-1.77-.23-3.67-.37-5.72-.42-1.58-.05-3.16-.06-4.74-.03-1.58,.02-3.11,.22-4.6,.59-.23,.09-.44,.24-.63,.45-.19,.21-.26,.38-.21,.52,.19,1.35,.13,2.63-.17,3.83-.3,1.21-.59,2.44-.87,3.7-.37,1.49-.79,2.95-1.25,4.39-.47,1.44-.88,2.95-1.25,4.53,.28,.05,.52,.08,.73,.1,.21,.02,.43,.03,.66,.03,1.07-.19,2.13-.32,3.17-.42,1.05-.09,2.03-.25,2.96-.49,1.07-.23,2.11-.49,3.14-.77,1.02-.28,2.07-.58,3.14-.91-.37,.28-.78,.52-1.22,.73-.44,.21-.87,.41-1.29,.59v.14s.02,.07,.07,.07c1.35-.37,2.65-.75,3.9-1.15,1.25-.39,2.53-.82,3.83-1.29-.09-.19-.14-.32-.14-.42-.33,.09-.62,.19-.87,.28-.26,.09-.55,.16-.87,.21-.37,.09-.72,.17-1.05,.24-.33,.07-.63,.15-.91,.24Z"/>
  <path class="cls-1" d="M46.89,54.24c.51-.79,1.05-1.56,1.6-2.3,.56-.74,1.09-1.51,1.6-2.3,1.16-1.77,2.34-3.49,3.52-5.16,1.19-1.67,2.34-3.39,3.45-5.16,1.3-2.09,2.54-4.17,3.73-6.24,1.19-2.07,2.41-4.15,3.66-6.24l8.44-14.71c.42-.74,.77-1.5,1.05-2.27,.28-.77,.6-1.5,.98-2.2,.14-.19,.34-.34,.59-.45,.25-.12,.5-.24,.73-.38,.14-.05,.27-.06,.38-.03,.12,.02,.24,.01,.38-.03,1.26-.14,2.2-.6,2.82-1.39,.63-.79,.89-1.84,.8-3.14-.09-.65,0-1.08,.28-1.29,.28-.21,.72-.36,1.32-.45,.56,0,1.12-.05,1.67-.14,.56-.09,1.16-.19,1.81-.28,.6-.14,1.22-.06,1.85,.24,.63,.3,1.19,.73,1.67,1.29,.49,.56,.85,1.17,1.08,1.85,.23,.67,.25,1.31,.07,1.92-.74,2.37-1.55,4.71-2.41,7.01-.86,2.3-1.64,4.61-2.34,6.94-1.25,4.18-2.54,8.31-3.87,12.38-1.32,4.07-2.36,8.22-3.1,12.45-.09,.79,.05,1.49,.42,2.09,.37,.79,.48,1.43,.31,1.92-.16,.49-.57,.97-1.22,1.43-.47,.33-.7,.74-.7,1.25-.19,1.91-.33,3.79-.42,5.65-.09,1.86-.21,3.72-.35,5.58-.05,.56-.12,1.14-.21,1.74-.09,.6-.47,1.05-1.12,1.33-.65,.28-1.32,.48-2.02,.59-.7,.12-1.37-.15-2.02-.8-.28-.28-.64-.48-1.08-.59-.44-.12-.78-.31-1.01-.59-.37-.23-.64-.56-.8-.98-.16-.42-.34-.81-.52-1.19l.14-.14c.14-.14,.25-.23,.35-.28l.14-9.9c-1.3,.37-2.6,.77-3.9,1.19-1.3,.42-2.63,.81-3.97,1.19-.09,0-.21,.05-.35,.14-.14,.09-.26,.09-.35,0-.98-.28-1.69-.15-2.13,.38-.44,.54-.85,1.13-1.22,1.78-.65,1.16-1.57,1.87-2.75,2.13-1.19,.25-2.48-.15-3.87-1.22-.56-.42-1.08-.84-1.57-1.25-.49-.42-1.01-.86-1.57-1.33Zm25.66-23.15s-.1-.07-.17-.07-.13-.02-.17-.07l-7.53,12.69,4.81-1.05,.07,.07c.09,.09,.19,.14,.28,.14l1.33-6c.23-.98,.46-1.94,.7-2.89,.23-.95,.46-1.89,.7-2.82Z"/>
  <path class="cls-1" d="M123.52,5.71c.32-.32,.74-.49,1.25-.49s1.08,.09,1.71,.28c.63,.19,1.27,.44,1.92,.77,.65,.33,1.25,.7,1.81,1.12,1.35,.93,2.11,1.79,2.3,2.58,.19,.79-.19,1.84-1.12,3.14-.88,1.21-1.73,2.42-2.54,3.63-.81,1.21-1.66,2.42-2.54,3.63-1.07,1.49-2.15,2.96-3.24,4.43-1.09,1.46-2.15,2.96-3.17,4.5-1.3,2-2.59,4.02-3.87,6.07-1.28,2.05-2.43,4.16-3.45,6.34-1.12,2.28-2.1,4.63-2.96,7.04-.86,2.42-1.69,4.86-2.48,7.32-.37,1.25-.65,2.56-.84,3.9-.19,1.35-.37,2.67-.56,3.97-.05,.37,.02,.73,.21,1.08,.19,.35,.32,.71,.42,1.08,.05,.23,.09,.51,.14,.84,.05,.32,.02,.63-.07,.91-.05,.19-.21,.3-.49,.35-.28,.05-.54,.12-.77,.21-1.72,.51-3.25,.23-4.6-.84-1.12-.93-2.22-1.89-3.31-2.89-1.09-1-1.78-2.31-2.06-3.94v-.56c0-.19-.02-.37-.07-.56,.51,0,.71-.14,.59-.42-.12-.28-.1-.51,.03-.7,.09-.14,.19-.29,.28-.45,.09-.16,.16-.34,.21-.52,.19-.56,.32-1.19,.42-1.88,.09-1.07,.3-2.03,.63-2.89,.32-.86,.77-1.75,1.32-2.68,.65-.93,1.14-1.94,1.46-3.03,.32-1.09,.77-2.13,1.32-3.1,1.16-2,2.32-3.97,3.49-5.93,1.16-1.95,2.35-3.9,3.56-5.86l2.23-3.77c-.33,.23-.59,.41-.8,.52-.21,.12-.38,.24-.52,.38-1.63,1.91-3.24,3.78-4.85,5.61-1.6,1.84-3.24,3.71-4.92,5.61-.47,.6-.9,1.2-1.29,1.78-.4,.58-.85,1.2-1.36,1.85-.74,1.02-1.69,1.66-2.82,1.92-1.14,.26-2.24,.01-3.31-.73-.79-.6-1.55-1.22-2.27-1.85-.72-.63-1.41-1.34-2.06-2.13-.37-.42-.58-.93-.63-1.53-.05-.6-.09-1.19-.14-1.74-.14-1.07-.22-2.11-.24-3.14-.02-1.02,.01-2.02,.1-3,.09,1.49,.21,2.98,.35,4.46,.14,1.49,.28,2.98,.42,4.46h.14c-.05-1.49-.08-2.95-.1-4.39-.02-1.44-.03-2.88-.03-4.32,0-.56,.02-1.09,.07-1.6,.05-.51,.12-1.02,.21-1.53,.05-.65,.08-1.3,.1-1.95,.02-.65,.08-1.28,.17-1.88,.23-1.26,.48-2.51,.73-3.77,.25-1.26,.57-2.51,.94-3.77,.6-1.95,1.22-3.89,1.85-5.82,.63-1.93,1.22-3.89,1.78-5.89,.23-.65,.51-1.08,.84-1.29,.32-.21,.81-.17,1.46,.1,.42,.09,.86,.12,1.32,.07,.46-.05,.93-.07,1.39-.07h.66c.21,0,.41,.05,.59,.14,.46,.37,.92,.74,1.36,1.12,.44,.37,.89,.74,1.36,1.12,.42,.46,.64,.93,.66,1.39,.02,.46-.06,.95-.24,1.46-.7,1.86-1.39,3.7-2.09,5.51s-1.35,3.7-1.95,5.65c-.47,1.35-.87,2.72-1.22,4.11-.35,1.39-.69,2.81-1.01,4.25-.09,.37-.15,.74-.17,1.12-.02,.37-.06,.77-.1,1.19,1.72-1.58,3.74-3.39,6.07-5.44,2.32-2.04,4.76-4.21,7.32-6.48,2.56-2.28,5.14-4.61,7.74-7.01,2.6-2.39,5.04-4.78,7.32-7.15Z"/>
  <path class="cls-1" d="M147.09,5.71c.84,.09,1.6,.15,2.3,.17,.7,.02,1.37,.09,2.02,.21,.65,.12,1.31,.29,1.99,.52,.67,.23,1.41,.63,2.2,1.19,1.02,.74,2.01,1.49,2.96,2.23,.95,.74,1.68,1.79,2.2,3.14,.09,.33,.05,1.01-.14,2.06-.19,1.05-.45,2.15-.8,3.31-.35,1.16-.74,2.23-1.19,3.21-.44,.98-.85,1.58-1.22,1.81-.28,.14-.7,.17-1.25,.1-.56-.07-1.15-.21-1.78-.42-.63-.21-1.2-.46-1.71-.77-.51-.3-.86-.62-1.05-.94-.33-.42-.42-1.12-.28-2.09,.14-.98,.31-1.93,.52-2.86,.21-.93,.36-1.71,.45-2.34,.09-.63-.05-.82-.42-.59-2.88,1.77-5.43,3.87-7.63,6.31-2.21,2.44-4.17,5.19-5.89,8.26-.93,1.77-1.84,3.54-2.72,5.33-.88,1.79-1.65,3.66-2.3,5.61-.51,1.72-.99,3.45-1.43,5.19-.44,1.74-.66,3.61-.66,5.61,0,1.07,.16,1.73,.49,1.99,.32,.26,.95,.27,1.88,.03,2.18-.7,4.19-1.7,6.03-3,1.84-1.3,3.64-2.7,5.4-4.18,.84-.65,1.59-1.39,2.27-2.23,.67-.84,1.41-1.65,2.2-2.44,.37-.37,.77-.51,1.19-.42,.7,.09,1.36,.21,1.99,.35s1.27,.26,1.92,.35c.33,.09,.72,.33,1.19,.7,.46,.37,.92,.79,1.36,1.25,.44,.47,.83,.95,1.15,1.46,.33,.51,.51,.93,.56,1.25,.05,.42-.04,.83-.24,1.22-.21,.4-.43,.71-.66,.94-1.49,1.35-2.99,2.7-4.5,4.04-1.51,1.35-3.08,2.65-4.71,3.9-.93,.7-1.92,1.35-2.96,1.95-1.05,.6-2.15,1.12-3.31,1.53-2.32,.84-4.64,1.09-6.94,.77-2.3-.33-4.59-1.42-6.87-3.28-.6-.51-1.16-1.12-1.67-1.81-.51-.7-1.05-1.37-1.6-2.02-.09-.14-.16-.29-.21-.45-.05-.16-.12-.27-.21-.31-.84-.84-1.44-1.7-1.81-2.58-.37-.88-.6-1.78-.7-2.68-.09-.91-.08-1.81,.03-2.72,.12-.91,.24-1.82,.38-2.75,.56-3.35,1.44-6.53,2.65-9.55,1.21-3.02,2.63-5.83,4.25-8.44,.6-.98,1.51-2.44,2.72-4.39,1.21-1.95,2.6-3.9,4.18-5.86,1.58-1.95,3.27-3.63,5.06-5.02,1.79-1.39,3.57-2.02,5.33-1.88Z"/>
</svg>